<?xml version="1.0" encoding="UTF-8"?>
<svg id="Layer_1" data-name="Layer 1" xmlns="http://www.w3.org/2000/svg" viewBox="0 0 112.73 113.56">
  <path d="M37.45,72.65c0,.08.24.34.24.69,0,1.75-2.81,2.27-1.89,4.2,1.06.04,2.16.12,3.21.27.42.06.4-.12.36.47-.96.16-1.84-.19-2.75-.25-.26-.02-.91-.15-.85.25,1.06.57,1.85.91,3.12.72.25,1.01-1.28.05-1.44.72l1.92.24v.72s-1.2-.24-1.2-.24l.14.74,1.3.22-.96.48c.28.58.97-.19.72.96h-.72s.47,2.14.47,2.14l-1.67.74c.67-.15.91.62,1.14.72.2.08.65-.07.76.02.07.06,0,.67.13.95.17.38.46.68.62,1.06.31.76-.1,1.56.95,1.33.04.71-.8.39-.48,1.44l.72.12-.96.37.72.24v.72s-2.88.24-2.88.24c.31.72,2.37-.38,2.16.72-1.43.19-2.81-.18-4.19-.25-.26-.01-1.13-.16-1.09.25,1.8.23,3.83,1.46,4.56,3.12l1.19-.48c.29.28-1.82,1.86,0,1.68l-.49,1.55.5.25c-.36,1.28-1.24,1.4-2.41,1.56l.12-.72-2.73.27c-.07,1.35-1.56,4.54.69,4.3v.95c3.15-.6,7.03.48,10.02,1.63.67.26,1.16.88,1.88,1s1.61-.09,2.37.03c.68.1.99.55,1.93.48,1.41-.1,4.03-2.82,4.2-.5-1.06-1.05-2.47.75-3.49.95-1.46.28-2.35-.48-3.71-.47l1.81,1.2,5.39-.48c.11.68-.14.4-.55.51-3.83,1.03-7.97.35-11.74-.82-1.38-.43-2.7-1.26-4.21-1.55-1.05-.2-4.54-.16-5.1-.66-.28-.25-.14-.81-.38-.86l-2.02.26.24-5.52c-.41.2-.78.62-1.06.98-1,1.28-.52,1.65-2.45,2.11-1.81.44-3.86.22-5.49-.7l-.12,1.2c-2.37.25-5.29-1.2-7.33-2.39-7.74-4.53-18.32-15.11-12.93-24.71,2.73-4.85,8.17-12.48,12.84-15.48.6-.38,1.95-1.28,2.38-.38l-1.44.72c.91.07,1.69-.83,2.55-.88.41-.03,1.36.12,1.89.17.47.04.7-.21.6.48-1.7-.35-3.89,1.97-4.68,3.36-.49.1-.41-.21-.31-.55.37-1.29,2.29-2.01,3.08-3.04-1.1-.03-2.4,1.23-3.25,1.43-.66.15-.17-.78-.47-.71-2.94,2-5.23,4.21-7.31,7.09-1.93,2.67-6.49,9.04-6.91,12.05s.94,7.27,3.18,9.42l.6-.48c.38.85-.61.97-.48,1.32.06.15,1.79,2.2,2.06,2.5,2.81,3.05,9.73,8.57,13.76,9.52.5.12,1.23.25,1.69-.01-.75-.41-.43-1.94-.5-2.02-.04-.05-.73-.22-1.06-.5-4.43-3.71-5.06-12.83-1.8-17.4,1.36-1.91,3.85-2.87,4.32-5.16.46-.02.48-.11.49.37.02,1.87-3.21,3.45-4.33,5.03-2.81,3.96-2.58,10.66-.1,14.74,1.04,1.71,3.3,3.58,5.38,2.9v.72s-1.68.24-1.68.24c.62.07,1.27.62,1.86.68.53.06.84-.21,1.12-.21.16,0,.02.49.49.51.34.02,2.84-.69,2.97-.8.1-.09,0-.44.12-.57.42-.49,1.13-1.39,1.5-1.75,1.45-1.39,2.91-.6,4.78-.74.54-.04,2.43-.34,2.61-.78.84-2.62-3.5-6.03-5.68-5.45-.18.05-.14.44-.33.48-.34.07-1.27-.22-1.75,0,.01-1.83,2.49-1.49,3.66-1.74,1.34-.29,2.65-.76,4.02-.9l-.24-.72h.72c-.08-2.18-1.54-5.25-3.95-5.53-.8-.09-2.99.11-3.79.3-1.07.25-2.15,1.24-3.53.67-.72-.74,3.42-1.99,3.83-2.05,1.89-.3,2.82.54,4.22.39.2-.02.88-.77,1.45-.73.23-.28-.42-3-.67-3.45-.04-.08-.97-1.27-1.04-1.35-.08-.09-1.81-1.35-1.97-1.41-.56-.2-.9,0-1.1-.06-.17-.04-.14-.4-.34-.45-3.13-.74-5.32.52-7.41,2.71-.34.35-.24,1.03-1.05,1.12-.25-.28.73-1.39.83-1.7.13-.42-.16-.69.15-1.26,1.18-2.2,4.67-3.75,7.1-3.07.41.11.67-.18.55.51-2.14-.42-3.89-.15-5.63,1.21-.58.45-1.63,1.37-1.56,2.15,1.21-1.4,3.27-2.43,5.16-2.42.66,0,1.82.52,2.16.03.71-1.01.44-3.12.76-4.28.26-.93,1.49-1.78,1.51-1.9.28-1.37-1.17-2.84.15-4.16.93.4,2.03.07,2.91.44.49.2,1.56,1.59,2.24,2.08,3.47,2.5,9.57,3.62,13.78,3.25,2-.18,4.36-1.46,6.26-1.21.7.09,1.25.75,2.08,1.04,3.75,1.33,7.33.32,10.49-1.88.72-.5,2.5-2.45,2.9-2.62.81-.36,1.65.09,2.73-.64.27-.18.34-.57.43-.63.06-.04,1.11.13,1.4-.06-.47,1.67.57,3.09.73,4.43.12,1-.26,6.33,0,6.59l4.29.27v.94c-.68-.07-.44-.53-1.36-.65-2.3-.32-3.55-.48-5.56.8s-3,4.24-2.65,6.45c.2,1.22,2.23,2.72,3.41,2.5.47-.09,2.13-2.16,2.59-2.72.19-.23.17-.69.28-.79.15-.12.61-.05.88-.19.9-.47,1.47-1.08,2.67-.82.81.81-2.62,1.75-2.97,1.95-1.53.89-4.45,5.22-4.49,7.04-.04,1.67,2.36,3.63,3.79,2.45,1.25-1.03.87-3.87,3.91-3.05.07.38-.04.55-.23.85-.8,1.26-3.59,3.61-3.8,4.85-.07.39.2.65.19.88,0,.17-.45.02-.5.48-.18,1.52-.34,3.62,1.29,4.27.22.09,1.88.6,2.01.61.57.05,1.53-.79,2.13-.89,2.16-.38,2.64.45,5.24-.76,4.45-2.08,3.2-10.14,2.14-14.08-1.16-4.34-2.22-4.97-5.09-7.92-.85-.87-1.28-2.45-2.65-1.73.09-.88.82-.59-.02-1.3-1.34-1.12-3.75-1.99-5.26-.86l.23-.85c1.42-.3,3.22-.13,4.5.56.58.31,1.01.9,1.62,1.26.27.16.81.21.84.24.06.06-.21.42-.01.82.69,1.4,2.83,2.85,3.86,4.08,2.89,3.42,4.23,12.86,2.95,17.12-.22.73-.61,1.34-1.04,1.96.27.23,1.92-.5,2.32-.68,3.09-1.36,10.59-7.84,11.88-10.92,1.04-2.49.11-5.01-.88-7.36-1.19-2.84-2.98-5.91-4.82-8.38-1.11-1.49-3.11-2.96-3.46-4.82,2.16,2.51,4.45,5.01,6.19,7.84,1.85,3.01,4.97,9.36,3.58,12.85-.17.42-.66,1.06-.94,1.46-1.89,2.7-9.51,9.79-12.61,10.43-.66.14-1.29-.02-2,.16-1.11.28-3.44,2.06-4.6,1.76-.7-.18-.72-.69-1.88-.32-1.04.33-.78,1.12-.97,1.32-.05.06-1.43,0-1.5-.02-.31-.1-.79-1.35-1.84-.93l.25,4.64-.97.41.23.45c-.53.07-.95.44-1.43.62-4.01,1.45-13.71,1.4-18.11,1.08-1.05-.08-2.16-.53-3.24-.48l.96-.71c-.79-.17-2.19-1.24-1.91.33-.91.56-1.08-.53-.97-1.29l-.24.72c-.34.06-.56-.08-.67-.41-.38-1.18-.64-4.23-.54-5.48.14-1.79,1.11-3.42,1.22-5.26.23-4.02-1.12-8.44-.73-12.49.14-1.44.84-2.98,1.13-4.39.63-3.1.61-6.25.79-9.41-.13-.14-3.15.96-3.72.96h-3.96v.24c.3-.09.7.24.84.24h5.64c0,1.18-1.61.47-2.27.47-2.89-.03-7.23-.22-10.03-.77-2.38-.46-2.94-1.3-4.63-2.57-1.08-.81-2.6-2.44-3.95-2.17v-.72c.23-.23,1.92.69,1.2-.13-.61-.25-2.48-.26-2.64.49-.09.43,1.51.96.96,2.03.64-.11-.26-1.45.72-1.2,0,1.32,0,2.64,0,3.96ZM80.65,69.53c.41,2.05-.3,5.36,0,7.56h.72c-.39-1.9.25-4.07-.02-6.1-.17-1.26-1.08-2.5-.7-3.98-.16-.18-1.7.78-2.09.9-.46.14-1-.05-1.5.18-.42.19-2.49,2.19-3.29,2.71-4.02,2.61-8.56,3.51-12.79.77-.15,2.76-.13,5.52-.79,8.22-.12.48-.47.85-.59,1.33-1.74,6.83.78,13.78.19,20.35-.19,2.14-1.99,4.62-.99,6.97,1.79-.21,2.87,1.05,4.48,1.27,1.42.2,10.75-.68,12.34-1.04,1.21-.27,3.51-1.53,4.43-1.58.48-.02.39.05.36.48l-3.84,1.21c-.06.42.56.25.81.21.85-.12,2.76-.68,3.27-1.35.97-1.28.01-4.17.06-5.75,0-.21.59-1.8.41-1.99l-.96.24v-.6c2.13-.81.24-.84.24-.96-.02-.56.65-.43.73-.77.14-.6-.11-1.57,0-2.23-1.03,1.66-1.63-.15-2.88,0,.05-1.1.8-.59,1.39-.55.24.02.59.25.53-.17-1.66-.65-1.3-2.35-3.6-1.44-.14-1.15,1.76-.56,1.92-.72v-1.54c-.07-.48-2.19.39-1.92-.62l2.35-.29,1.01-2.11c-.11-.09-2.33-.37-2.7-.5-.22-.07-.59-.88-1.62-.47-.25-.89.98-.3,1.2-.48-.79-1.05-.76-2.35-.72-3.6l-.96.24c-.14-.75.76-.57.98-.87s.22-.91.22-1.29c-.08-.09-1.53,1.08-1.92.6.19-1.03,1.83-.82,2.34-1.14.23-.15.71-1.23,1.02-1.5-.65-.46-.6.66-.87.86-.2.15-.86.26-1.21.41-.28.13-.52.47-.68.53-.7.28-.37-1.27.6-.96.04-.4-.92-.12-.36-.72.35-.38,2.31-.77,2.9-1.21l.46.49c1.24-.72,1.16-1.16,1.08-2.52-.15-2.59-1.06-5.21-.48-7.8.49-.46,1.37.98,1.44,1.32ZM80.17,75.17v-5.4c0-.62-.95-1.03-.73,0l.73,5.39ZM36.25,70.14c.09,1.65-2.75,2.77-1.32,4.55,1.02-.95,1.52-2.33,1.57-3.71.01-.26.15-.91-.25-.85ZM49.45,72.54l-6.72-1.68c1.54,1.37,3.87,1.71,5.88,1.92.26.03.9.17.83-.24ZM60.49,71.81h-.72s-.48,8.16-.48,8.16c.35,0,.46-.73.55-1.01.67-2.27.31-4.79.65-7.15ZM35.29,75.65c.96-.96,2.18-1.88,1.68-3.36l-1.68,3.36ZM35.29,77.81l-.96-2.16c-.19,1.24-.54,1.85.96,2.16ZM58.09,108.05c-.03-1.3,0-2.62.31-3.89.25-1.06.8-1.73.9-2.94.29-3.24-.57-6.46-.74-9.6s.15-6.19.13-9.25c-.25,1.23-.74,2.45-.85,3.71-.35,4.03,1.12,8.71.73,12.73-.22,2.19-1.73,4.3-1.17,6.69l.69,2.55ZM33.13,85.26h-1.2v.24h1.2v-.24ZM85.93,91.98c-.29.01-1.38.06-1.2.59.24.7.5.05.64-.05.2-.15.58-.32.56-.54ZM83.53,94.61c.66-.33,1.1-.89.96-1.68l-.96,1.68ZM83.05,95.1l-1.68.24c.39.75.21,1.59.24,2.4l1.44-2.64ZM35.29,100.86h-1.44c-.32.76.06,1.97,0,2.49-.02.16-.44.12-.49.31-.17.66.11,1.75,0,2.48h1.2c.1-.4-.42-.11-.48-.4-.1-.4-.08-3.34,0-3.8.08-.41.26-.67.72-.6l-.25,1.79.25,2.29c-.05-1.53.06-3.08.48-4.56ZM82.57,103.01c-.32-.47-.78-.79-.72-1.44-.69.28-.52,1.58-.49,2.29.09,1.67,1.01,2.94-.46,4.32-2.26,2.13-9.52,1.42-12.62,1.54l-4.19.49c3.79-.21,7.88.29,11.64,0,1.1-.08,4.79-.65,5.65-1.07.75-.37,1-1.2,1.92-1.48-.18-1.24-.07-2.88-.25-4.05-.08-.51-.4-.48-.48-.59-.09.96.12,2.07,0,3-.04.35-.18.74-.48.35.08-.96-.12-2.07,0-3,.04-.35.19-.75.48-.36ZM37.45,107.1l-1.92-.96c-.17.86.48,1,1.14,1.14.24.05.84.24.78-.18ZM47.05,109.01c-.8-.92-2.8-1.53-4.03-1.85-1.73-.45-3.79-.74-5.57-.79.22.49.91.75,1.39.89,1.94.58,4.1.48,5.88.84.82.17,1.39,1.11,2.33.9ZM44.89,109.01c-.15-.54-.74-.51-1.2-.48v.23s1.2.24,1.2.24ZM49.69,109.98c-.96-.29-1.85-.63-2.88-.48l2.06.7.82-.22Z"/>
  <path d="M34.81,16.13c-.37-.59-.86-1.44-1.18-2.07-.54-1.05.12-1.22-1.7-1.05v-.72s.96.12.96.12c-.69-2.02-.7-4.15-.95-6.25-.04-.36-.05-.74-.49-.83.04,4.46-.59,9.08-.24,13.56.17,2.18,1.44,7,3,8.52.71.69,2.35,1.28,2.77,1.79.65.8.34,2.33.9,3.42.84,1.6,3.69,2.98,4.9,1.21,1.08-1.58.13-1.4-.41-2.1-.33-.43-.68-1.66-.91-1.86-.13-.11-3.2-.98-2.58-1.5,3.45-.83,2.66,2.55,5.01,3.64-.19,3.97-3.11,2.9-5.96,3.09.21,1.25-.79,1.34-1.81,1.43-2.09.19-4.54.14-6.45-.75-.67-.31-2.11-1.08-2.07-1.76.05-1.16.69.24.83.35,2.58,2.11,5.9,1.87,9.01,1.44l-.72-1.2h2.16c-.51-.65-1.3-1.04-1.61-1.86-.39-1.04-.18-2.23-.78-3.06-.46-.64-1.97-1.24-2.65-1.91-4.02-3.92-3.32-16.73-2.87-22.09.05-.59.32-3.59,1.2-2.76.13,4.75.51,8.8,3.11,12.85,1.86,2.9,4.37,5.18,6.89,7.39.4.35,1.28,1.64,1.61,1.87.56.37,2.54.06,2.54.82v4.44c-.67.13-.47-.24-.48-.72l-1.92.24c-.21-.86,1.71-.53,1.91-.73-.08-.8.27-2.41-.21-3.01-.53-.67-1.66-.12-2.13-.39-.06-.03-.3-.58-.52-.8-1.21-1.24-3.13-2.97-4.64-3.76-.37-.2-2.55-.61-1.85-1.39.22-.25,1.45,1.04,1.92.6l-.65-.85c-1.59.16-2.85-.45-2.95-2.15l1.19.51-.23.69.96.12c-.49-.92-1.38-1.66-1.92-2.52.19.93-1.31.37-1.78.26l-.14-.98c.67-.19.35.39.77.56.35.14.77.17,1.15.16Z"/>
  <path d="M76.09,12.89c-.36,3.39-4.11,11.21-6.72,13.44-.89.76-1.69.85-2.61,1.43.26,1.28,1.79,1.98,1.89,3.25-.27.29-1.64-1.46-1.79-1.69-1.65-2.72.09-2.07,1.54-3,2.3-1.48,5.4-7.43,6.26-10.06,1.55-4.73.88-9,.23-13.81h.72c-.33,1.69.46,2.85.8,4.36.51,2.3.78,4.63,1.23,6.93.26,1.32.96,2.62,1.09,3.95.25,2.57-.39,4.6-.49,6.95-.09,2,1.27,5.66.02,7.22-.63.78-1.19.23-.73,1.55-1.37.2-2.5,1.16-3.91.43-.77-.4-.98-1.46-1.41-2.19-.25-.42-.93-.8-.93-1.24,0-.8,1.35-.92,1.87-1.26s.38-.89,1.02-.78c.32,1.54-1.4,1.14-2.15,2.04.86.34,1.3,2.87,1.82,2.98,2.89-1.31,4.78-1.11,4.41-4.9-.07-.68-.39-1.31-.45-1.95-.41-4.3,1.6-8.64-.75-13.11-.29-.55-1.45-.54-.21-1.73l-.75-3.25c-.11,1.43.15,3.04,0,4.44Z"/>
  <path d="M89.13,59.25c3.57,3.26,7.07,5.75,10.42,9.13.2.2.58.48.3.79s-2.42-2.11-2.77-2.39c-2.13-1.77-4.31-3.3-6.36-5.16s-4.02-4.77-7.14-5.35c-1.08-.2-.9,1.22-1.97-.29l-.48.72-.12-.72-.93.22.1,1.94h-.72s0-1.68,0-1.68l-.92.28c-.32.53.52,2.4-.76,2.36l.24-1.92c-1.09.82-.95,2.61-.96,3.84-1,.19-.17-1.46-.6-1.92-.79.25-.37.52-.58.84-.44.65-1.17.93-.98,2.03h-.95s.48,1.21.48,1.21c-.72.71-1.85-2.07.23-1.69l.04-1.42.67-.03c-.2-1.11.41-1.25.99-2.03l-.45-.14-.03-.33c.81-1.26,2.37-.93,3.36-1.93-.39-1.04-1.86-1.39-1.41-2.72,1.65-.63,3.48-.79,5.25-.75.12-1.77-3.04-1.09-3.36-2.4.97-.44,5.85,2.14,3.68,2.84-.9.29-4.38-.07-5.01.75-.39.51.78.92,1.09,1.32.21.27.25.82.46.99.1.08,1.93-.19,2.53-.14,3.04.27,4.66,1.9,6.68,3.75Z"/>
  <path d="M45.37,93.65h-2.23c-1.08-1-.74-3.38,0-4.5s2.94-.71,4.16-.78c-.34-1.51-.75-2.27-.1-3.81s1.25-1.86,2.87-1.71c2.43.21,2.31,2.36,2.27,4.33.81-.3,1.1-.56,2.05-.5,1.51.1,1.85.82,1.54,2.25-.03.16-1.8,1.55-1.66,2.18,1.97,1.09,2.96,1.93,2.2,4.4-1.31,4.26-5.58-.45-5.81-.17.24.96-.77,3.73-1.66,3.98-.57.16-1.91.23-2.42-.02-.31-.15-1.2-1.91-1.2-2.16v-3.48ZM48.73,88.85h-4.2c-1.17,0-2.36,3.85-.91,4.27.65.19,1.54-.03,2.23.05-.13,1.12-.11,5.6,1.31,5.78,2.68.34,3.12-2.48,3.01-4.58.81-.21.67.36,1.11.68,1.07.8,2.89,2.45,4.07,1.25,1.91-1.94.58-4.25-1.82-4.7-.31-1.3,3.25-3.37,1.39-4.25-1.37-.65-1.96.72-2.53.49-.89-.36-.21-2.93-1.08-3.96-.45-.53-1.77-.73-2.41-.51-.1.03-1.14,1.26-1.22,1.42-.42.81-.38,2.62.16,3.29.27.33,1.12.03.91.78Z"/>
  <path d="M59.49,43.05c-.1-.11-1.07-.04-.92-.63.83-.53,1.59-1.53,2.57-1.75,2.83-.63,4.88.04,6.79,2.22,3.17,3.61,3.33,11.05-3,10.68-3.02-.17-4.72-2.29-5.15-5.18-.12-.79-.11-5.15-.29-5.35ZM64.57,41.1l-1.2-.24c.15.55.76.51,1.2.48v-.23ZM62.41,41.1h-1.2v.24h1.2v-.24ZM66.63,42.87c-2.34-1.46-4.28-1.42-6.86-.58l.48,3.84c.43.1.04-.71.59-.48.75.31,1.65,1.77,1.32,2.64-.82.13-1.3-.3-1.92-.72.12,1.71,1.04,4.35,2.74,5.06,2.08.87,5.43.49,6.27-1.93.62-1.79.05-5.28-1.22-6.71-.22-.24-1.11-.93-1.4-1.11Z"/>
  <path d="M77.77,48.77c-.8.18-.34-.45-.48-.72l-3.01.23c-.61,1.9,1.15,3.12.56,5.12-.15.49-1.06.98-1.36,1.52-.61,1.11-2.63,4.54-2.96,5.44s-.11,2.09-.66,2.88c-.07.11-1.84,1.43-2.08,1.58-.36.22-1.39.42-1.48.56-.15.22.05.82-.27,1.05-.42.3-2.08-.01-2.77.11-.51.09-.81.58-1.26.67-.62.13-1-.21-1.4-.18-.35.02-.59.44-.91.42s-.84-.53-1.29-.63c-.6-.13-1.23.04-1.82-.1s-.84-.83-1.61-.43c-.12-1.77,1.47-.16,1.85-.05,1.29.39,2.77.06,3.79.06.38,0,.7.39.96.39.32,0,.72-.54,1.21-.63.67-.13,2.6.24,2.88-.24.16-.26.03-.73.15-.92.06-.1,1.42-.49,1.81-.72,2.47-1.48,1.72-1.84,2.42-4.06.45-1.45,2.01-3.02,2.68-4.33.17-.33.09-.94.4-1.48.32-.56,1.19-.89,1.3-1.59.18-1.07-.57-1.54-.71-2.4s.21-1.88.13-2.4c-.06-.42-1.14-.79-.86-1.55,1.3-.23,1.12.78,1.49,1.14.57.57,2.32.35,2.83-.35.02-1.42-.23-3.04-1.84-3.1-.51-.02-1.46.55-1.28-.33,3.74-1.14,3.75,2.3,3.6,5.04Z"/>
  <path d="M56.34,41.88c.14,1.1.88,2.45,1.01,3.43.58,4.24-2.16,10.5-7.06,10.44-5.43-.07-4.85-5.04-3.18-8.72.33-.72,1.52-1.94,1.58-2.27.07-.43-.31-.83-.09-1.26.07-.14,2.16-1.9,2.36-1.99,1.8-.8,3.85-1.06,5.39.38ZM54.97,41.58c-.53-.06-.97-.24-1.52-.23-.19,0-1.35.15-1.36.46.68-.01,1.36.03,2.04,0,.29-.01.89.18.84-.24ZM56.17,43.01c.6-.65-3.69-.74-4.14-.66-1.58.27-1.34.85-2.11,1.67-1.55,1.65-2.87,4.08-3.27,6.38-.33,1.9-.33,3.76,1.8,4.54,5.49,2,9.23-5.22,8.34-9.78-.1-.49-.51-1.73-1.09-1.67v-.35s.48-.12.48-.12Z"/>
  <path d="M62.59,54.11c.06.03.17.67.78.43-.94,2.13.85,2.42,1.79,3.61,1.41,1.78,2.35,4.62.02,6-4.68,2.76-10.23-.08-10.21-5.53.73-.12.38.18.48.58.5,1.97,1.14,3.57,2.95,4.74,2.1,1.36,5.16.86,6.88-.89-.78-.17-.25-.92-.48-1.56-.39.35-1.8,1.02-1.68,0,1.65.09,1.32-1.2,2.17-1.81-.47-1.67-2.8-2.25-2.66-4.18l-1.91.23c-.07-.46.19-.64.6-.72.38-.07,1.28.23,1.32-.24l-3.12.24c-.07-.45.19-.65.6-.72.26-.05,2.35-.24,2.46-.19ZM65.53,62.93c.97-.57.31-2.01.24-2.88-.35-.04-.43.87-.43,1.08,0,.55.33,1.18.19,1.8Z"/>
  <path d="M43.45,49.74l-.72,2.15c2.76.83,1.61,3.37,1.93,5.39.3,1.89,4.07,2.9,4.49,4.87.13.61-.11,1.38.27,1.89.59.77,3.59.84,4.58,1.3-.09,1.22-.76.32-1.48.16-.88-.19-3.62-.48-3.8-1.48-.09-.49.08-1.07-.05-1.63-.37-1.7-4.25-2.82-4.52-5.08-.25-2.13.79-4.09-1.93-5.08-.19-.8.56-1.47.49-1.52-1.4.19-2.61.99-4.08.72-.19-.78,1.05-.42,1.69-.59,1.06-.27,2.05-.81,3.11-1.09Z"/>
  <path d="M31.45,58.85c.02-.32-.02-.64,0-.96l3.6.24-2.8-.93-.56-.51c1.79-.15,3.33.9,5.03,1.21v.71s-1.44,0-1.44,0l.48.96c-.29.29-2.5-2.35-2.16,0-.67.17-.58-.52-.72-.96-.48.15-.94.19-1.44.24-.01.26.05.52-.01.78-.16.62-1.54,1.02-1.93.09-.18-.42-.03-1.25-.45-1.34-.11.73.06,1.43.13,2.14.02.17.27.75-.25.49-.72-.36-.22-2.87-.36-3.6-2.71-.05-5.95,1.04-8.29,2.4-.81.47-1.24,1.39-2.27,1.2-.11-.5.26-.54.55-.77,2.43-1.94,7.5-3.71,10.6-3.29.5.07.99.48,1.55.49l.03,2.13.26-.7c.15-.07.31,0,.46-.02ZM30.25,59.81c-.04-.67.33-1.93-.72-1.92l.72,1.92Z"/>
  <path d="M98.89,93.17c-.37.4-2.19-1.13-.5-.97.08-.42.05-.86,0-1.28-.2-1.73-4.34-10.76-5.6-11.68-.5-.37-1.25.08-1.1-.7,1.24-.28,1.9.79,2.5,1.7,1.33,2.05,4.2,7.76,4.59,10.05.17.97.11,1.92.11,2.89Z"/>
  <path d="M18.49,83.58c.45.45-.7,1.02-.93,1.35-1.26,1.85-1.72,9.15-1.45,11.46.13,1.13.51,2.59,1.89,2.07l-.59.72c-1.15-.22-1.52-1.11-1.7-2.15-.45-2.59.01-11.16,1.85-13.06.21-.22.64-.68.92-.39Z"/>
  <path d="M73.45,63.18c-.38,1.51-.99,2.95-.96,4.56-1.11.14-.08-1.44-.36-1.92-1.1.56-1.12,1.48-1.08,2.64-.95.26-.26-1.42-.48-1.68-.87.29-1.13.13-.96,1.2-.78.19-.22-.62-.84-.48l-.73.96h-.35s-.11-.46-.11-.46l-.86.22c-.09-.44.12-.47.42-.66,1.21-.76,3.4-1.18,4.5-2.21.28-.27,1.43-2.58,1.8-2.17Z"/>
  <path d="M15.37,83.82c.12.15-.94,3.02-.97,3.73-.03.79.41,1.66.25,2.34-.05.19-.44.06-.5.51-.11.83-.35,4.4.98,3.5l-.6.97c-.36,0-.52-.26-.66-.55-.66-1.43.01-7.67.61-9.35.06-.17.51-1.63.89-1.14Z"/>
  <path d="M33.61,43.49c-.16.16-2.27-1.34-2.67-1.53-1.61-.77-3.7-1.31-5.49-1.34l.72.72c-.74,0-2.18-.21-1.92-1.2,2.72-.17,6.03.57,8.29,2.15.42.3,1.13.58,1.07,1.2Z"/>
  <path d="M54.49,27.65c-.35.4-1.29-1.72-1.48-1.99-.74-1.08-3.05-4.24-3.92-4.96-.34-.29-.67-.27-1.08-.24v-.72c.43-.05.73-.02,1.1.22.28.19,2.34,2.76,2.74,3.26.45.57,3.09,3.92,2.65,4.43Z"/>
  <path d="M40.81,47.33c-.28.29-1.56-1.68-3.02-.73-.73.47-1.76,3.52-1.54,4.42.05.22.64.06.48.51l-.85.13c-.24-.42-.15-1.71-.06-2.23.06-.35,1.04-2.78,1.21-2.99,1.2-1.46,4.56.07,3.77.89Z"/>
  <path d="M53.05,16.85h.72c-.57,2.15-.19,4.29.48,6.36.29.9,1.18,2.38,1.21,3.11.02.48-.05.38-.49.36l-1.92-5.64v-4.2Z"/>
  <path d="M34.09,47.58c1.1,1.28-2.31-.5-2.45-.55-.86-.31-2.53-.6-3.44-.65-.72-.04-.63,0-.59.72-.06.11-1.92-.21-1.68-.96,2.1-.29,4.29-.23,6.31.53.22.08,1.78.84,1.85.91Z"/>
  <path d="M40.33,61.26v.72s-1.92,0-1.92,0c-.06.42.54.22.84.24.52.02,1.04-.02,1.56,0,.42.37-2.03,1.9-2.16,1.32l.72-.84h-2.64s0-.72,0-.72l3.6-.72Z"/>
  <path d="M33.85,53.09v.72c-.4.18-.91-.24-1.08-.24h-4.08c-.22,0-.96.38-1.33.35v.84s-1.43-.6-1.43-.6c-.11-.47.18-.34.48-.47s1.83-.61,2.04-.61h5.4Z"/>
  <path d="M82.57,33.9c.15,1.47-1.75.99-2.61,1.83l-3.87,3.21c-.27-.3,1.32-1.88,1.63-2.16.53-.48,4.48-3.24,4.85-2.88Z"/>
  <path d="M99.37,89.81c-.75.19-.46-1.22-.63-1.88-.19-.73-.49-1.41-.76-2.12.04-.64-2.36-3.76-2.2-3.92.3-.28.71.17.92.39,1.28,1.32,2.86,5.63,2.67,7.52Z"/>
  <path d="M61.21,24.05c-.13.77,1.13,1.77,1.75,1.98.51.17,1.34-.28,1.74.66.13.3-.4.82-.38,1.2-.94.06-1.07-.83-1.66-1.32-.87-.72-1.96-.72-1.94-2.14,0-.47.02-.39.49-.37Z"/>
  <path d="M83.77,35.34v.96s-1.36-.06-1.36-.06l-4.4,3.42c-.11-.78.69-1.34,1.22-1.78.58-.48,3.99-3.1,4.54-2.54Z"/>
  <path d="M22.33,77.57c-.1.1-1.99-1.3-2.47-1.48-1.17-.44-2.4-.38-3.52-.81-.39-.15-.58.02-.48-.59,1.35.29,2.77.37,4.07.84.39.14,3.02,1.38,2.4,2.03Z"/>
  <path d="M51.13,67.98v.72c-.86-.47-1.93.26-2.73-.03-.3-.11-.8-1.73-1.99-1.61l-1.28-1c.53-.01,2.82.83,3.12,1.08s.21.92.63,1.06l2.25-.22Z"/>
  <path d="M57.13,21.17l-.72-.24c-.32,1.68-.03,3.33.13,5.03.11,1.09-.55.43-.63-.33-.09-.87-.26-2.53-.2-3.34.05-.71.31-2.64,1.18-1.96l.23.84Z"/>
  <path d="M96.25,72.54c.12.73-.18.38-.58.48-.66.17-1.25.22-1.91.5s-2.85,2.23-3.27,1.89.34-.53.45-.62c1.58-1.17,3.18-2.48,5.3-2.26Z"/>
  <path d="M34.09,50.93v.48h-4.44c-.25,0-1.06.68-1.56.48-.4-.38,1.02-.96,1.32-.96h4.68Z"/>
  <path d="M33.13,55.25v.48h-3.6l1.2.48c.02.47.11.48-.37.49-1.8.02-1.96-1.45-.96-1.45h3.72Z"/>
  <path d="M83.29,40.14l-.48,1.68-.59-.72-2.28,1.68c-.54-.61,2.91-3.07,3.36-2.64Z"/>
  <path d="M42.49,63.42c.13.68-.76.64-.92,1.12-.23.69.07,2.03-.04,2.85-.04.33-.18.75-.48.35-.11-.75.15-1.79,0-2.48-.05-.23-.63-.03-.48-.75.02-.11,1.55-1.36,1.92-1.09Z"/>
  <path d="M58.57,23.58l.72-.24v.96s-1.44-.48-1.44-.48c-.22.23.11,1.91-.72,1.68-.21-1.06.92-4.45,1.44-1.92Z"/>
  <path d="M76.33,23.81c.17,1.5-.97,2.58-1.62,3.79-.16.29.17.67-.54.53-.18-1.66,2-2.59,1.44-4.32h.72Z"/>
  <path d="M41.48,31.07c.92.51.29,2.74-1.15,2.1l.24-2.16c.29.03.65-.09.91.06Z"/>
  <path d="M100.33,88.13c-.7.12-.39-.17-.51-.56-.43-1.39-.66-2.86-1.17-4.24.51-.1.56.23.73.58.53,1.11.83,2.98.94,4.21Z"/>
  <path d="M75.61,28.38l-.24,3.12-.48-.72-.96.48c-.31-1.12,1-1.05,1.16-1.23.3-.33-.45-1.89.51-1.65Z"/>
  <path d="M52.09,27.89c-.29.26-2.02-1.02-2.57-1.14-.63-.14-1.94.29-1.75-.53,1.45-.14,2.58.07,3.76.92.3.22.67.25.56.76Z"/>
  <path d="M94.81,71.58c.09.52-.23.57-.6.71s-3.35,1.34-3.47,1.2c-.03-.03-.13-.77.17-.71l3.91-1.2Z"/>
  <path d="M82.09,45.18l-.24.85c-1.33-.35-1.82,1.13-3.12,1.06-.1-.49.24-.56.55-.77.41-.28,2.48-1.47,2.81-1.15Z"/>
  <path d="M63.37,37.97c-.28.29-1.22-1.21-2.24-.48-.2.14-.14.47-.16.48-.22.17-.55.07-.48-.36.28-1.75,3.71-.49,2.89.36Z"/>
  <path d="M54.25,37.74c.19,1.1-1.48-.04-1.9.26-.22.65-.09,1.12-.98.94.21-1.66,1.53-1.67,2.88-1.2Z"/>
  <path d="M76.57,34.38c.11,1.25-1.63,2.27-.96.72l-1.2.24c-.25-.83,2.05-1.05,2.16-.96Z"/>
  <path d="M93.61,70.62c.12.64-.13.42-.48.59-.41.2-2.68,1.25-2.88,1.09-.46-.36.34-.52.47-.6.84-.5,1.9-1.01,2.88-1.08Z"/>
  <path d="M78.01,20.93h-.72c-.04-.35.12-.86-.05-1.15-.08-.15-1.73-.62-1.15-1.25.31-.33,2.48,1.53,1.92,2.4Z"/>
  <path d="M52.81,74.69c-.24,1.16.55,2.03.72,3.12-.41.47-1.1-1.39-1.14-1.62-.09-.43-.36-1.74.42-1.5Z"/>
  <path d="M42.49,64.62c.39.3.17,1.83.03,2.32-.11.41.18.67-.51.55l.25-1.77-.51-.29c.06-.28.29-1.16.73-.82Z"/>
  <path d="M73.93,64.38c-.07.81.1,1.74,0,2.52-.04.35-.18.74-.48.35.07-.81-.1-1.74,0-2.52.04-.35.18-.74.48-.35Z"/>
  <path d="M44.89,65.34c-.15.82.13,1.55.23,2.3.06.44-.24.51-.46.34s-.3-1.89-.24-2.28c.04-.33.18-.76.48-.35Z"/>
  <path d="M78.01,18.53c-.25.28-1.71-1.18-1.44-1.44.8-.1,1.54.65,1.44,1.44Z"/>
  <path d="M84.01,73.73c-.85.23-.32-.81-.48-.96-.44-.06-1.13.3-.96-.48l1.21.1.22,1.33Z"/>
  <path d="M54.01,76.38l.72,1.68c-.83.82-1.67-2.5-.72-1.68Z"/>
  <polygon points="48.96 27.19 48.97 27.89 47.77 27.89 47.77 26.94 48.96 27.19"/>
  <path d="M43.45,65.57l.24,1.92c-.5.64-1.31-2.21-.24-1.92Z"/>
  <path d="M37.45,34.37c-.22.27-1.53-1.08-1.2-1.44.28-.29,1.55.99,1.2,1.44Z"/>
  <path d="M40.09,85.26c.14.99-1.67.92-1.2.24l1.2-.24Z"/>
  <path d="M33.61,14.93l-.72-.11c-.83-1.3.64-.98.72.11Z"/>
  <path d="M77.53,16.85l-.72-.11c-.83-1.3.64-.98.72.11Z"/>
  <polygon points="45.61 28.14 45.61 28.61 44.41 28.61 44.41 27.9 45.61 28.14"/>
  <rect x="80.41" y="46.62" width=".72" height=".96"/>
  <path d="M76.81,13.49l.24,1.2h-.36c-.43-.3-.4-.73-.36-1.2h.48Z"/>
  <polygon points="77.29 15.18 77.29 15.65 76.33 15.65 76.33 14.94 77.29 15.18"/>
  <rect x="44.65" y="27.18" width=".96" height=".48"/>
  <path d="M69.13,81.41c1.51-.16,5.15,2.96,4.21,4.33-1.72.95-3.76,1.31-5.65.71-.18,1.71-.76,3.1-2.74,2.86-1.13-.13-1.72-.4-1.82-1.54-.15-1.66-.17-2.97.96-4.2h-2.88c-.27-3.79,1.18-5.64,5.04-4.08-.25-.67,2.24-3.92,2.46-4.01.47-.18,2.16-.19,2.46.16,1.31,1.54-.88,4.65-2.04,5.76ZM69.5,80.11c.74-.81,2.05-2.79,1.29-3.84-1.09-1.5-3.08,1.13-3.63,2.09-1.66,2.88.53,3.74,2.34,1.75ZM65.77,79.98c-2.93-1.48-4.09.33-4.08,3.12l3.84-.24c.08-1.14-.41-1.86.24-2.88ZM66.89,81.49c-.16-.15-.74-.52-.88-.2.1.96-.47,2.3.86,2.27,1-.02.58-1.56.03-2.08ZM67.77,85.88c1.37.79,4,.34,5.19-.74-1.01-1.94-2.78-3.38-5.03-3.48-.05.55.11,1.23-.04,1.76-.24.8-1.38.23-.75,1.79.02.04.6.66.64.68ZM65.45,83.63c-2.05.2-3.11,5.29-.03,5.24,1.17-.02,1.78-1.58,1.72-2.59-.02-.44-.41-.64-.54-1.02-.23-.62,0-1.75-1.15-1.64Z"/>
  <path d="M72.91,94.44c.11.04,1.48,1.51,1.58,1.67.89,1.41.8,5.05.65,6.79-.12,1.43-1,2.34-2.19,3.09-2.22,1.4-6.27,1.44-7.9-.94-2.04-2.97-.73-9.83,3.11-10.58.74-.14,4.22-.26,4.75-.04ZM68.59,94.91c-4.86.82-6.49,12.45,1.84,11.44,1.32-.16,3.52-1.45,4.05-2.67.29-.68.31-4.93.17-5.81-.11-.69-1.57-2.62-2.15-2.89s-3.19-.19-3.9-.07Z"/>
  <path d="M78.73,68.22c.29.3-.1.59-.3.79-1.33,1.35-6.55,4.76-8.33,5.1-2.75.52-5.49-.2-8.17-.37v-.72c2.43.36,4.56.97,7.08.72,1.8-.18,4.34-1.76,5.86-2.78.47-.32,3.62-2.99,3.86-2.74Z"/>
  <path d="M62.41,100.14c.36.81-.48,1.03-.49,1.1-.02.38.77,1.46-.23,1.3l-.26-2,.97-.4Z"/>
  <path d="M78.25,91.74c.19.92-1.39.32-1.92.48-.19-.92,1.39-.32,1.92-.48Z"/>
  <path d="M50.65,88.62c.18.18-1.9,2.6-1.44,3.36l1.81-.23c1.22-1.71-.55-1.9-.61-2.05-.23-.59,1.22-.52,1.41.03.22.66.05,2.57-.8,2.73-.36.07-1.8.06-2.06-.11-1.12-.75,1.18-4.26,1.69-3.73Z"/>
  <path d="M56.17,46.62c-.08,1.09-.63,2.7-1.92,2.64-.09-1.3.26-2.99,1.92-2.64Z"/>
  <path d="M67.21,99.9c.22.86-.76.32-.96.48-.19,2.46.76,3.99,3.27,4.29,2.1.25,3.45-.12,2.5-2.37.12-.13,2.32,1.07,1.92,1.44-1.26-.38-1.15,1.22-2.28,1.44-2.19.41-4.93-.09-5.69-2.46-.28-.89-.03-1.56-.18-2.18-.06-.25-.41-.05-.49-.28-.22-.68,1.63-.24,1.92-.36Z"/>
  <polygon points="69.85 98.93 69.85 100.14 68.21 100.1 67.93 98.94 69.85 98.93"/>
  <polygon points="73.21 99.65 73.1 101.11 72.01 101.34 71.77 99.66 73.21 99.65"/>
</svg>