<?xml version="1.0" encoding="UTF-8"?>
<svg id="Layer_1" data-name="Layer 1" xmlns="http://www.w3.org/2000/svg" viewBox="0 0 112.73 113.56">
  <path d="M43.45,50.34l-.72,2.15c2.96.83,1.41,3.84,2.03,5.78.48,1.51,4,2.62,4.4,4.48.11.53-.04,1.11.1,1.58.2.68,1.15.69,1.7.94,1.27.57,2.19.67,3.35,1.21.33.15.58.56.83.63.41.11,2.22-.91,3.19-.21.14,1.18-1.87-.29-2.16.72,1.8-.23,3.64.36,5.4.24,1.63-.12,9.02-2.25,9.94-1.17.14.17-.08,1.26.07,1.73.15.51.75.43.96.98.38.97.44,2.46.44,3.51,1.39-.86,3.8-.57,5.21.19.58.31,1.01.9,1.62,1.26.27.16.81.21.84.24.06.06-.21.42-.01.82.69,1.4,2.83,2.85,3.86,4.08,2.89,3.42,4.23,12.86,2.95,17.12-.22.73-.61,1.34-1.04,1.96.27.23,1.92-.5,2.32-.68,3.13-1.37,10.72-7.94,11.96-11.08.94-2.38-.02-4.97-.96-7.2-1.13-2.69-3.93-8.09-6.26-9.57-1.18-.75-2.65-.54-3.94-.27-.14-.55.24-.58.65-.65.9-.17,1.83.08,2.7-.18-.63-1.57-2.08-.51-3.36-.6.32-.98-.48-.73-.48-1.44h1.68s-.24.72-.24.72h1.2s-.24-1.2-.24-1.2c1.22,1.45,2.8,3.05,3.94,4.58,2.67,3.57,7.79,12.03,5.67,16.43-1.42,2.93-10.09,10.74-13.2,11.52-.71.18-1.34.03-2,.16-1.15.24-3.59,2.13-4.78,1.82-.31-.08-.5-.42-1.03-.45-3.13-.22-1.12,3.82-1.78,4.72-.24.33-3.6,1.36-4.52,1.97-1.27.84-2.7,3.35-3.83,3.61-2.66.6-7.41-.46-10.27-.67-1.62-.12-3.41.16-5.01-.03-1.41-.16-2.79-.99-4.22-1.3-.93-.2-3.7-.3-4.17-.58-.25-.15-.08-.54-.21-.67s-.52.05-.67-.22c-.09-.15-1.05-2.11-1.09-2.23-.29-.96-.24-2.57-.35-3.61-1.1.02-1.65,2.12-1.97,2.34s-2.69.8-3.18.79c-.52,0-2.01-.23-2.54-.36-.57-.15-.87-.59-1.42-.62v1.2c-2.42.25-5.41-1.26-7.48-2.49-6.32-3.75-15.06-12.22-14.36-20.19.33-3.76,5.59-10.34,7.84-13.74,1.89-2.86,3.17-5.45,5.71-7.99,1.4-1.4,3.12-2.51,4.44-3.96.07-.32-.77.22-.72-.48.06-.84.63-.79.96-1.32l-1.3-.02c-.15,1.16-1.06.97-2.06.97v-.71c1.89-.6,3.83-1.39,5.83-.68.42.15.58.7.41.91-.38.48-.5-.46-.63-.49-.72-.15-2.93.69-2.25,1.69,1.7-.54,3.59-.25,5.28.24-.38-.7-1.44-.87-2.16-.96-.19-.94,1.3-.35,1.74-.17.35.14,4.46,2.46,3.78,3.06-.59.51-1.58-1.79-2.4-1.32,1.12,1.08,2.49,2.61,2.64,4.2-.65.23-.38-.43-.63-.49-1.51-.32-2.83.87-4.16,1.21-.46-.42,2.08-1.87,2.64-1.44l-.26-.71c-.23-.21-2.33.88-2.14-.25.76-.12,1.52-.17,2.28-.25.26-.03.8.16.6-.35-.46-1.17-2.67-.3-3.6-.36l.52-.55,2.12-.41c-1.29-.72-2.23-.35-3.6-.24l.36-.73-2.19.95-.45-.47c-.41-.03-2.2,1.34-2.63,1.7-3.92,3.26-5.79,6.81-8.52,10.92-1.99,2.99-6.45,8.75-6.91,12.05-.42,3.04.94,7.27,3.18,9.42l.6-.48c.38.85-.61.97-.48,1.32.06.15,1.79,2.2,2.06,2.5,2.31,2.51,6.02,5.59,9,7.32.91.52,5.74,2.91,6.45,2.3-.69-.48-.43-2.05-.5-2.14-.04-.05-.73-.22-1.06-.5-5.4-4.52-5.29-16.6,1.24-20.24l1.76-2.32c.24,2.13-2.07,2.97-3.27,4.16-3.9,3.88-3.9,11.45-1.15,15.98,1.04,1.71,3.3,3.58,5.38,2.9v.72s-1.68.24-1.68.24c.62.07,1.27.62,1.86.68.53.06.84-.21,1.12-.21.16,0,.02.49.49.51.34.02,2.84-.69,2.97-.8.1-.09,0-.44.12-.57.67-.77,1.92-2.31,2.82-2.61.42-.14,1.19.18,1.79.14.68-.05,3.87-.34,4.14-.56.48-.64.22-1.84-.13-2.51-.05-.1-1.34-1.68-1.43-1.76-.34-.32-2.36-1.33-2.84-1.41-1.43-.25-1.29.43-1.47.47-.34.07-1.27-.22-1.75,0-.04-.36,0-.57.22-.86.49-.61,6.27-1.37,7.46-1.78.1-.43-.7-.03-.48-.59s.92-.09.96-.12c.31-.64-.48-.75-.48-.86,0-.27.24-.51.15-1.07-.16-1.02-.69-1.05-1.02-1.52-.54-.77-.5-1.35-1.67-1.81s-3.53-.25-4.72.03c-1.07.25-2.15,1.24-3.53.67-.74-.76,3.6-2.04,4.02-2.1,1.64-.22,2.2.37,3.53.43,2.38.12,2.2-.96,1.69-2.9-.53-2.04-2.01-3.46-3.94-4.18-.2-.07-.87-.35-.93-.36-3.13-.74-5.31.52-7.41,2.71-.34.35-.24,1.03-1.05,1.12-.25-.28.73-1.39.83-1.7.13-.42-.16-.69.15-1.26,1.18-2.2,4.67-3.75,7.1-3.07.41.11.67-.18.55.51-2.14-.42-3.89-.15-5.63,1.21-.58.45-1.63,1.37-1.56,2.15,1.8-2.06,4.49-2.8,7.18-2.18.32-.86.56-1.75.86-2.62s.83-1.4.85-2.54-1.17-2.28-.73-3.7c.68.18,1.11.54,1.86.66,2.86.44,4.96-1.07,7.74-.9.14-.55-.1-.39-.3-.55-1.6-1.25-1.92-.47-2.92-.68-.25-.05-.31-.53-.55-.69-.55-.37-1.68-.41-2.01-.81-.44-.53-.02-1.71-.49-2.63-.63-1.24-3.72-2.53-4.18-3.98-.64-2.02.99-4.71-2.04-5.69-.19-.8.56-1.47.49-1.52-1.4.19-2.61.99-4.08.72-.19-.78,1.05-.42,1.69-.59,1.06-.27,2.05-.81,3.11-1.09ZM39.13,60.42l-.24-.72-.72.6.96.12ZM73.21,99.06v-3.96c0-.16.55-1.02.48-1.08l-3.36.72c-.13-1.1,1.13-1.45,1.92-1.8-3.07-1.4-2.72-3.61-1.68-6.36l-1.2.24c.31.5.23,1-.48.96l.19-.68-.43-.18.22-.47-.45-.11.12-.48c.79-.27,2.31.53,2.76-.24l-3.84.24c-.2-1.03,1.46-.38,1.68-.96h-2.4c-.2-.97,1.25-.19,1.68-.6-.53-.69-1.02-.98-1.92-.84l.96-.48v-.72s-1.68.24-1.68.24c-.24-.85,1.51-.56,1.67-.73.06-.06,0-.92.07-1.25.75-3.58,1.94-4.63,5.24-6.09-.12-1.61-.31-3.18-.79-4.73-.13-.41-.47-.69-.61-1.07s.04-.93-.17-1.27c-.83-1.32-7.53.83-9.13.97-1.96.16-3.96-.33-6.01-.25-2.37.1-4.39,1.01-6.47,1.21-1.41.14-2.8-.12-4.2-.24-.16.67.6.87.76,1.29.39,1.09.07,3.18-.3,4.28-.06.19-.37.21-.44.38-.2.47-.21,1.04-.5,1.49,1.05,0,2.02-.07,3.04.21.41.11.67-.18.56.51l-3.6-.12c.58.59,3.94.21,4.08.36v.72s-2.4-.24-2.4-.24c.58.76,1.45,1.13,2.4.96l-.72.96.73.14c-.07,1.17,1.29,4.22.41,5.08-.32.32-1.11.06-1.14.53.48.06,1.01.15.96.72h.23c-.12-.81.85-.41,1.44-.48l-1.2.6,1.44.12c.39,1.14-.87.39-.71,1.07.3,1.29,1.37.54,1.43.61v.72s-.72,0-.72,0c-.38,1.42,1.29.08,1.2,1.2-.74-.24-1.29.79-.95,1.2.11.13.96-.28.71.49l-1.92.48.72.72-5.04.24c-.06.35.45.31.71.36.68.14,1.6.28,2.29.35.96.1,3.12-.5,3.24.72l-3.6-.24c-.06.35.42.33.67.4.86.25,1.79.36,2.69.32.19.92-1.39.31-1.92.48.54.69,1.2,1.18.96,2.16l.72-.24c.29.67-.43.69-.47.89-.22,1.04.36,1.52-.95,1.88-1.81.49-3.74.19-5.53.84v.71c.8-.28,1.65-.48,2.51-.49.52,0,.7-.13.61.49l-2.64.24c.21.69,1.92-.33,1.68.72h-2.16c-.28,1.45.21,1.85.82,2.9.19.33.23.85.36,1.03.16.22.56.07.69.2s-.05.52.21.67c.56.33,3.08.33,3.98.53,1.42.31,2.69,1.18,4.17,1.35,1.55.18,3.23-.1,4.78.02,2.08.15,8.9,1.32,10.32.5,1.03-.59,2.26-2.78,3.29-3.46.7-.46,2-.93,2.82-1.23.57-.21,1.4,0,1.63-.77s-.06-1.9.05-2.71c-.31-.31-3.28.34-3.97.26-.4-.04-.44-.73-1.07-.5-.05-1.01,1.23-.53,1.92-.72-.4-.86-2.22.02-2.16-1.2l.72-.12-1.21-.12c-.26-.89,1.03-.31,1.2-.48ZM78.73,75.54l.38-.96c-1.41-1.23-3.25-2.11-5.16-1.54-.98.29-.75.9-.73,1.78l4.31.25v.94c-.68-.07-.44-.53-1.36-.65-2.3-.32-3.55-.48-5.56.8-1.94,1.23-3.11,4.44-2.61,6.65.29,1.28,2.86,3.05,4.13,1.83.36-.34,1.39-1.73,1.83-2.26.19-.23.17-.69.28-.79.15-.12.61-.05.88-.19.9-.47,1.47-1.08,2.67-.82.81.81-2.62,1.75-2.97,1.95-.77.45-3.37,3.74-3.8,4.6-1.37,2.69-.61,5.09,2.56,5.22.06-1.35.92-1.35,1.58-2.05.25-.27.2-.78.61-1.07.58-.41,1.57-.22,2.26-.26.07.38-.04.55-.23.85-2.3,3.63-4.64,3.37-4.09,8.87.13,1.29.35.78.87,1.16.14.1.16.38.39.47.17.07,1.92.58,2.03.59.58.05,1.53-.79,2.13-.89.96-.17,2.22.28,3.01.08.66-.16,2.8-1.03,3.33-1.43,3.01-2.3,1.95-10.04,1.1-13.31-1.15-4.43-2.22-5.1-5.15-8.11-.85-.87-1.28-2.45-2.65-1.73ZM43.93,85.15h-1.2v.24h1.2v-.24ZM77.29,89.46c-.29.01-1.38.06-1.2.59.24.7.5.05.64-.05.2-.15.58-.32.56-.54ZM75.13,91.86c.62-.24.81-.81.72-1.44-.45.15-.73,1.01-.72,1.44ZM74.17,93.07c-.42.06-1.52-.02-1.68.48.57-.01,1.44.21,1.68-.48ZM76.33,101.23h-1.2v.24h1.2v-.24Z"/>
  <path d="M59.77,42.9l.48,3.84c.43.1.04-.71.59-.48.75.31,1.65,1.77,1.32,2.64-.82.13-1.3-.3-1.92-.72.14,1.83,1.06,4.45,2.92,5.12,4.64,1.67,7.76-2.04,5.78-6.32-2.36-.25-5.01-1.19-6.9-2.64-.63-.49-3.36-3-2.29-3.73.28-.19,2.29-.16,2.77-.11,1.76.19,4.97,2.16,5.98,3.62,1.1,1.58.46,3.11,3.25,2.15v.72s-2.16,0-2.16,0c1.32,4.11-.41,7.63-5.09,7.13-5.31-.56-4.7-6.53-5.09-10.51l-3.26-.22c3.24,4.23-.29,13.04-5.88,12.98-5.07-.06-4.88-4.24-3.48-7.94l-.96-.48c1.68.32,2.23-1.85,3.13-3s2.42-2.98,4.07-2.76l-.24,1.44c-.85.19-.26-.61-.6-.96-1.24.68-2.04,1.76-2.96,2.8l-1.48,2.48c1.58-.7,3.65-1.94,4.66-3.37,1.27-1.79.57-3.14,3.73-2.62.89.68-1.83.41-1.92.48-.02.15.32.48.36.48h5.16ZM68.89,46.5c-.61-3.51-5.1-5.77-8.4-5.52-.16,1.12.98,2.24,1.8,2.88,1.8,1.4,4.38,2.3,6.6,2.64ZM56.09,44.18c-.08-.1-.95-.71-1.05-.74-1.93-.55-1.35.56-2.22,1.69-.55.71-2.73,2.34-3.55,2.76-.47.24-1.85.52-1.93.59-.31.27-.95,3.78-.92,4.36.15,3.02,3.98,3.6,6.23,2.52,3.09-1.48,5.75-8.38,3.44-11.17Z"/>
  <path d="M99.37,22.5c.09.43-.23.58-.47.84-3.22,3.41-11.54,3.98-15.61,5.99-2.88,1.41-5.03,5.8-8.27,6.13s-6.44.28-5.74-3.86c1.01-.09,2.17-.57,3.12-.67.88-.09,1.7.15,2.39.1.61-.04,1.62-.69,2.51-.37-.14,1.07-1.13,1.06-1.92.72.13,1.32-.28,1.92-1.58,2.14-.49.08-.97.19-.82-.46.76-.08,1.65-.3,1.9-1.09-.1-1.05-3.91-.28-4.65-.1-1.31.31-.13,2.74,1,3.06.82.23,3.67.1,4.55-.15,1.64-.46,4.56-3.97,6.08-5.2,1.96-1.59,7.56-2.53,10.27-3.41l2.22-1.02c-2.9.65-6.09.84-8.88,0l.24.72c-.51.04-.78.11-.72-.48l-.61.72-.95-.48-.48.48c-.51,0-.87-1.03-1.27-1.18-1.72-.64-10.64-1.18-12.62-.96-1.06.12-1.53.86-2.3,1.53l1.19,1.32c-.42.02-1.74-.97-1.92-.12s2.15.36,1.92,1.56l-2.16-.72-.13,2.4c-.46.14-.57-.9-.58-1.12-.03-.51-.03-.82.22-1.28-.86-.22-.32.73-.48.96-1.38.23-1.47-.76-2.28-1.44s-1.84-.58-1.81-2.03c0-.47.02-.39.49-.37-.13.78,1.14,1.77,1.75,1.98.07.03,1.41.29,1.49.3,1.54.12,1.76-2.12,3.12-3,1.71-1.11,7.18-.17,9.36,0,6.07.48,14.23,2.24,19.85-.07.94-.39,1.49-1.45,2.59-1.37Z"/>
  <path d="M45.85,28.02c-.05-.21.06-.53-.04-.79-.29-.8-2.76-.25-3.56-.41-.39-.3,0-.43.35-.48.86-.11,1.88.08,2.76,0-.44-1.13-1.88-.22-2.88-.48-.17-.95,1.61-.3,2.16-.48-.58-1.16-1.91-.39-2.49-.46-.16-.02-.11-.41-.26-.45-3.47-.78-7.89,0-11.53-.28-2.35-.18-7.76-2.52-10.11-3.57-1.94-.86-3.4-2.31-5.36-2.92,3.24,3.23,7.13,5.82,10.89,8.44,3.62,2.52,7.54,4.95,11.58,6.89.57.28,3.39,1.44,3.83,1.46.38.02,1.55-.34,1.78-.58.34-.36,1.15-2.28.12-2.29-.15,0-.09.37-.3.47-.46.22-1.11.25-1.62.27l-.14-.71c-.29-.29-2.15.48-1.91-.51h4.44c.09,0,.39.25.56.28.26,4.98-3.84,3.62-6.85,2.17-8.35-4.03-15.9-9.47-22.9-15.5l-1.9-1.1c3.24-.59,5.16,1.85,7.83,3.08,2.28,1.06,7.99,3.47,10.28,3.64,3.48.26,7.4-.34,10.77-.17,2.66.14,5.1,2.04,5.2,4.85.01.34-.06,1.77-.73,1.55-.11-.54.25-1.07.25-1.56,0-.33-.25-.33-.26-.35.69,1.65-1.11-.07-1.2-.12-.77-.35-2.28.33-2.15-.6.75-.08,3.03-.06,3.36.72Z"/>
  <path d="M79.72,56.55s.71.15,1.01.31c.91.49,3.44,2.01,3.87,2.86.15.3.08.87.14.93.1.1.62-.08.89.06.08.04.73,1.18,1.04,1.48,1.32,1.27,2.84,2.26,4.24,3.67.2.2.58.48.3.79s-1.04-.92-1.57-.97c-.74-.07-1.87,1.25-2.03-.23l1.68-.24c-.8-1.59-1.35-.44-2.64-.48-.28-.83,1.18-.41.96-1.08-.24-.71-1.43.44-1.92.12-.26-.75.95-.42.95-.84,0-.7-1.46-.45-1.91-.36l.95-.84c-.34-.94-1.35-.55-1.42-.6s-.26-1.05-.72-1.57c-1.45-1.65-4.68-3.34-6.87-2.52-1.35.51-3.49,3.46-4.07,4.81-.41.95-.38,1.82-.67,2.58-.13.33-1.09.61-1.23.8-.28.36.18.92-.84.71-.23-1.3,1.23-1.55,1.63-2.33.27-.53,1.09-3.78,1.26-3.91l.46.23.25-.6-.5-.26c.19-.56.13-1.44.5-1.89.3-.36,2.41-1.81,2.87-1.93.65-.18,1.27-.12,1.93-.11-.3-.36-.83-1.35-.34-1.7.89-.64,3.98-.66,5.13-.7.12-1.77-3.04-1.09-3.36-2.4.97-.44,5.85,2.14,3.68,2.84-.9.29-4.38-.07-5.01.75-.44.57.98.94,1.2,1.45.17.39.05,1.04.15,1.17ZM79.21,55.86c-2.09-.66-3.58.25-5.04,1.68,1.07.24,1.7-.95,2.57-1.15.7-.16,1.44.03,2.11-.05.33-.04.74-.17.36-.48Z"/>
  <path d="M62.59,54.72c.06.03.17.67.78.43-.94,2.13.85,2.42,1.79,3.61,1.01,1.28,2.06,3.86.99,5.29-.1.13-1.95,1.71-2.07,1.77-.5.24-1.93.42-2.5.38-3.93-.28-7.41-4.25-7.08-8.17.6-.04.41-.06.47.36.1.66.05,1.87.32,2.45.25.53,2.11,2.98,2.68,3.43,3.11,2.48,9.42,1.3,7.8-3.6-.35-.04-.43.87-.43,1.08,0,.55.34,1.18.19,1.8h-.72s0-1.44,0-1.44c-.53.42-.97.59-1.68.48-.09-.82,1.02-.42,1.46-1.06.32-.46.01-1.04.71-1.23-.47-1.67-2.8-2.25-2.66-4.18l-1.91.23c-.07-.46.19-.64.6-.72.38-.07,1.28.23,1.32-.24l-3.12.24c-.07-.45.19-.65.6-.72.26-.05,2.35-.24,2.46-.19Z"/>
  <path d="M77.77,49.38c-.8.18-.34-.45-.48-.72l-3.01.23c-.61,1.91,1.15,3.12.56,5.12-.03.11-1.36,1.73-1.45,1.78-.25.15-.63,0-1.01.31-1.39,1.12-.84,2.39-1.13,3.67-.1.44-.52.71-.62,1.06-.13.48.05,1.07-.17,1.51-.23.46-1.68.65-2,1.61-.1.31.04.87-.09,1-.08.08-.47-.04-.61.08-.09.08-.84,2.29-1.51,1.63-.35-.35.65-1.03.79-1.26s.06-.72.23-.86c.13-.11.55.02.63-.06.09-.09-.02-.8.26-1.31.38-.69,1.63-.89,1.83-1.3.14-.3-.14-.69-.09-1.03.08-.52.74-.97.87-1.54s-.02-1.1.06-1.62c.32-1.96,3.21-3.03,3.54-4.14s-.51-1.69-.66-2.6c-.13-.83.21-1.88.13-2.4-.06-.42-1.14-.79-.86-1.55,1.3-.23,1.12.78,1.49,1.14.57.57,2.32.35,2.83-.35.02-1.42-.23-3.04-1.84-3.1-.51-.02-1.46.55-1.28-.33,3.74-1.14,3.75,2.3,3.6,5.04Z"/>
  <path d="M90.25,90.66c-.37.4-2.19-1.13-.5-.97.08-.42.05-.86,0-1.28-.2-1.73-4.34-10.76-5.6-11.68-.5-.37-1.25.08-1.1-.7,1.24-.28,1.9.79,2.5,1.7,1.33,2.05,4.2,7.76,4.59,10.05.17.97.11,1.92.11,2.89Z"/>
  <path d="M29.29,83.46c.45.45-.7,1.02-.93,1.35-1.26,1.85-1.72,9.15-1.45,11.46.13,1.13.51,2.59,1.89,2.07l-.59.72c-1.15-.22-1.52-1.11-1.7-2.15-.45-2.59.01-11.16,1.85-13.06.21-.22.64-.68.92-.39Z"/>
  <path d="M40.81,62.58l.48,2.64c.4.11.11-.47.38-.5.74-.07,3.24.65,3.92,1.12l.98,1.3c-1.14.35-.96-.71-1.75-1.02-.34-.13-.75.07-1.13-.04-.73-.2-1.36-.75-2.16-.62.28.65.44,1.32.49,2.03.02.29.23,1.46-.37,1.33l-.43-2.69c-.27-.96-1.02-2.25-1.13-3.2-.07-.62.43-.3.72-.35Z"/>
  <path d="M26.17,83.7c.12.15-.94,3.02-.97,3.73-.03.79.41,1.66.25,2.34-.05.19-.44.06-.5.51-.11.83-.35,4.4.98,3.5l-.6.97c-.36,0-.52-.26-.66-.55-.66-1.43.01-7.67.61-9.35.06-.17.51-1.63.89-1.14Z"/>
  <path d="M83.77,35.94v.96c-1.81-.66-2.81,1.4-4.31,2.05l.95.11c.08.07-.24,1.05-.37,1.21-.26.33-.59.03-.84.14-.41.17-.58.93-1.19.81l.48-.84-.49-.24c-.08-.56.56-1.08.97-1.44.58-.51,4.24-3.33,4.8-2.76Z"/>
  <path d="M28.09,34.26s.06.48.35.72c2.58,2.11,5.9,1.87,9.01,1.44l-.36-.72.84.12c.03.53.08.77-.41,1.03-.79.43-4.87.39-5.9.23-.65-.1-3.71-1.48-3.97-1.91-.24-.4-.02-1.32.42-.91Z"/>
  <path d="M27.61,73.14l-.96.96c1.18.2,2.44.13,3.61.35.64.12,1.44.32,1.19,1.09-1.24.19-2.32-.55-3.51-.69-.37-.04-3.66.19-2.97-.74l2.64-.96Z"/>
  <path d="M33.61,44.1c-.16.16-2.27-1.34-2.67-1.53-1.61-.77-3.7-1.31-5.49-1.34l.72.72c-.74,0-2.18-.21-1.92-1.2,2.72-.17,6.03.57,8.29,2.15.42.3,1.13.58,1.07,1.2Z"/>
  <path d="M88.93,72.66c.2.06.44.46.36.72l-2.64.24,2.14.5-.1.7c-1.06-.59-2.05-.52-3.24-.48l.72-1.2c-.73-.07-1.57.09-2.28,0-.44-.06-.39.08-.36-.48h5.4Z"/>
  <path d="M54.49,28.26c-.35.4-1.29-1.72-1.48-1.99-.74-1.08-3.05-4.24-3.92-4.96-.34-.29-.67-.27-1.08-.24v-.72c.43-.05.73-.02,1.1.22.28.19,2.34,2.76,2.74,3.26.45.57,3.09,3.92,2.65,4.43Z"/>
  <path d="M40.81,47.94c-.28.29-1.56-1.68-3.02-.73-.73.47-1.76,3.52-1.54,4.42.05.22.64.06.48.51l-.85.13c-.24-.42-.15-1.71-.06-2.23.06-.35,1.04-2.78,1.21-2.99,1.2-1.46,4.56.07,3.77.89Z"/>
  <path d="M53.05,17.46h.72c-.57,2.15-.19,4.29.48,6.36.29.9,1.18,2.38,1.21,3.11.02.48-.05.38-.49.36l-1.92-5.64v-4.2Z"/>
  <path d="M34.09,48.19c1.1,1.28-2.31-.5-2.45-.55-.86-.31-2.53-.6-3.44-.65-.72-.04-.63,0-.59.72-.06.11-1.92-.21-1.68-.96,2.1-.29,4.29-.23,6.31.53.22.08,1.78.84,1.85.91Z"/>
  <path d="M82.57,34.5c.15,1.47-1.75.99-2.61,1.83l-3.87,3.21c-.27-.3,1.32-1.88,1.63-2.16.53-.48,4.48-3.24,4.85-2.88Z"/>
  <path d="M90.73,87.3c-.75.19-.46-1.22-.63-1.88-.19-.73-.49-1.41-.76-2.12.04-.64-2.36-3.76-2.2-3.92.3-.28.71.17.92.39,1.28,1.32,2.86,5.63,2.67,7.52Z"/>
  <path d="M37.69,30.66l-.96-.24c-.09.47,0,1.38-.72,1.2-.08-2.19-1.22-1.93-2.81-2.37-.41-.11-.67.18-.56-.51.42-.03.84,0,1.26.06.35.05,4.51,1.18,3.78,1.86Z"/>
  <path d="M39.13,69.54v.72c-.86-.3-1.7-.31-2.4.36l.72.71c-.05.24-1.02.87-1.21,1.19-.32.53.03,1.23-.7,1.09-.17-1.08.13-1.64.96-2.28l-.49-.24c.2-1.54,1.84-1.69,3.13-1.56Z"/>
  <path d="M57.13,21.78l-.72-.24c-.32,1.68-.03,3.33.13,5.03.11,1.09-.55.43-.63-.33-.09-.87-.26-2.53-.2-3.34.05-.71.31-2.64,1.18-1.96l.23.84Z"/>
  <path d="M52.57,38.82c-.5,2.09-1.88,3.87-4.21,3.61-.78-.09-1.42-.75-.34-.63,1.19.13,2.07.2,2.97-.84.19-.22,1.12-2.64,1.58-2.14Z"/>
  <path d="M33.85,44.82c.04.56.08.42-.36.48-1.4.19-3.83-.54-5.12-1.14-.34-.16-.66.14-.52-.54,2.02.35,3.87,1.39,6,1.2Z"/>
  <path d="M34.09,51.54v.48h-4.44c-.25,0-1.06.68-1.56.48-.4-.38,1.02-.96,1.32-.96h4.68Z"/>
  <path d="M83.29,40.74l-.48,1.68-.59-.72-2.28,1.68c-.54-.61,2.91-3.07,3.36-2.64Z"/>
  <path d="M99.13,82.74l-.24,2.88,1.2-1.44c-.06,1.57-.26,2.24-1.92,1.68-.13-.56.38-.87.47-1.33.12-.6-.37-1.98.49-1.79Z"/>
  <polygon points="80.17 71.94 78.13 70.25 77.77 68.58 78.98 69.41 80.17 71.94"/>
  <path d="M58.57,24.19l.72-.24v.96s-1.44-.48-1.44-.48c-.22.23.11,1.91-.72,1.68-.21-1.06.92-4.45,1.44-1.92Z"/>
  <path d="M91.69,85.62c-.7.12-.39-.17-.51-.56-.43-1.39-.66-2.86-1.17-4.24.51-.1.56.23.73.58.53,1.11.83,2.98.94,4.21Z"/>
  <path d="M52.09,28.5c-.29.26-2.02-1.02-2.57-1.14-.63-.14-1.94.29-1.75-.53,1.45-.14,2.58.07,3.76.92.3.22.67.25.56.76Z"/>
  <path d="M82.09,45.78l-.24.85c-1.33-.35-1.82,1.13-3.12,1.06-.1-.49.24-.56.55-.77.41-.28,2.48-1.47,2.81-1.15Z"/>
  <path d="M62.17,37.62l-.14.97c.37.51,1.74.1,1.58.94-.55.09-1.87-.19-2.17-.64-.46-.71-.22-1.43.73-1.28Z"/>
  <path d="M34.99,41.04c.26.19.54,1.14-.05.9-.2-.08-.44-.46-.84-.6-.74-.26-1.33-.24-2.04-.37-.4-.07-.41.15-.36-.47.7-.04,2.79.16,3.3.54Z"/>
  <rect x="32.17" y="38.82" width="4.08" height=".48"/>
  <path d="M70.57,25.38c.17.99-1.3.24-1.81.23-.47-.01-.86.2-1.31.25l.16-.72c1.16-.56,1.83.25,2.96.24Z"/>
  <path d="M41.29,37.62c.15.16-.73,1.54-.9,1.87-.16.3.17.67-.54.53-.04-.94.34-2.26,1.44-2.4Z"/>
  <path d="M19.45,77.22c-.08.61-.18,1.34-.37,1.92-.14.41-.01.57-.59.48.15-.69-.06-2.38.96-2.4Z"/>
  <path d="M82.76,62.61c-.1-.11-.53.14-.43-.26,1.57-.84,1.9,1.55.6,1.19-.52-.14-.14-.9-.17-.93Z"/>
  <path d="M79.21,63.06l.48,1.68-.72-.16c0-.48-.72-1.69.24-1.52Z"/>
  <polygon points="48.96 27.79 48.97 28.5 47.77 28.5 47.77 27.54 48.96 27.79"/>
  <path d="M42.01,39.06c.18.2-.56,2.19-.96,1.68.03-.58.14-1.71.96-1.68Z"/>
  <path d="M20.17,77.94l.24,1.68c-1.14.23-.79-2.37-.24-1.68Z"/>
  <path d="M72.73,39.54h-.36c-.55-.26-.94-1.43-.25-1.2.41.32.7.64.6,1.2Z"/>
  <path d="M30.49,52.74l-1.2,1.2c-.21-.73.61-1.1,1.2-1.2Z"/>
  <rect x="30.01" y="63.54" width=".48" height="1.44"/>
  <rect x="80.41" y="47.22" width=".72" height=".96"/>
  <path d="M73.93,38.58c-.49.23-1.14-1.02-.96-1.2.49-.23,1.14,1.02.96,1.2Z"/>
  <path d="M72.25,32.34c.09.58-.11,1.02-.72.96v-.96s.72,0,.72,0Z"/>
  <rect x="31.45" y="64.5" width=".48" height=".96"/>
  <rect x="80.17" y="63.54" width=".48" height=".72"/>
  <path d="M65.82,86.77c.31.18.93.01,1.62.43,1.54.93,1.01,2.51.22,3.79-.28.45-.86.77-1.03,1.13-.86,1.8-.07,4.05-3.49,2.87-.06,1.56-1.6,2.73-3.12,2.04-.44-.2-.85-1.12-1.37-1.27-1.73-.5-3.8.47-4.13-2.35-.37-3.15,2.89-5.78,5.83-4.15.47.26,1.31,1.5,1.71,1.41,1.08-.93.1-2.01.14-2.98.06-1.41,1.06-2.32,2.49-2.06.87.16.9,1,1.14,1.14ZM65.42,86.93c-.68-.42-1.18-1.39-2.06-.48-1.47,1.52.87,3.09-1.07,4.69-.84.7-2.22.56-1.76,2.12,1.02.16,3.61,1.66,4.35,1.44,1.11-.33.93-2.35,1.25-3.08.39-.85,2.77-2.35,1.3-3.71-.56-.52-1.27-.41-1.71-.63-.22-.11-.23-.31-.3-.35ZM60.49,89.95c-.07-.08-1.8-.68-2.03-.69-2.16-.03-4.2,2.85-3.19,4.83.69,1.34,2.55.87,3.62,1.18.67.19.98,1.42,1.97,1.42.85,0,1.89-1.29,1.8-2.18-.62-.08-2.26-.43-2.52-.96-.42-.85-.13-2.5,1.08-2.41-.1-.75-1.06-.11-1.2-.24-.34-.6.9-.41.48-.96Z"/>
  <path d="M51.37,78.3c.01.07.27.61.38.61,2.55-1.32,5.44-.75,8.14-.97.68-.06,1.31-.39,1.95-.45,1.46-.14,2.96.04,4.42-.27-.62-1.84-.79-3.8-.72-5.76-2.14,1.19-4.6.71-6.83.96-2.35.27-4.7.83-7.08.96v-.72c2.33.26,4.57-.47,6.84-.72,1.64-.18,3.23.02,4.98-.3.74-.14,1.44-.63,2.22-.67.46-.02.35-.03.36.36.06,1.33.03,2.75.25,4.07.11.63.81,1.35.46,2.29-2.24.42-4.87,0-7.03.73-.22.07-.16.48-.29.48-.34,0-.56-.41-.96-.48-1.16-.22-4.08.13-5.26.48-.71.21-2.29,1.55-2.29-.13v-5.64h.48c.17,1.59-.24,3.63,0,5.16Z"/>
  <path d="M70.57,100.26c-1.57-.34-2.55-1.45-4.33-.85-.26.09-1.9,1.84-2.14,2.18-.92,1.25-1.21,2.88.24,3.83l4.62.57c1.02-.29,2.16-3.12,2.31-4.15l-.7-.85c1.97-.27,1.08,1.83.66,2.94-1.3,3.45-2.36,2.61-5.37,2.13-.74-.12-1.49.17-2.15-.25-1.01-.65-.99-2.57-.71-3.62s2.48-3.22,3.6-3.36,3.57.1,3.97,1.44Z"/>
  <path d="M56.17,98.34v.72c-1.01-.45-2.08-.12-2.61.87-.39.73-.17,1.33-.38,2.02-.16.54-.9,1.1-1.04,1.61-.42,1.51,1.25,1.92,2.46,1.73.21-.03,3.14-1.63,3.26-1.78,1.57-1.91-2.04-4.13-1.45-4.69.23-.22.57,0,.79.29.99,1.3,2.3,3.1,1.23,4.73-.11.17-3.1,1.87-3.36,1.92-.9.17-3.26.04-3.47-1.07-.36-1.87.59-1.87,1.02-3.07.3-.86.12-1.57.7-2.42.74-1.07,1.67-.91,2.84-.88Z"/>
  <path d="M57.61,82.02c-.64,1.34.35,2.18.44,3.31.13,1.62-2.82,1.51-3.8.9-.31-.31-.68-4.35-.2-4.65l3.57.45ZM54.52,82.05c-.37.26-.11,3.23.09,3.58.33.56,1.95.6,2.54.37.43-.31-.26-3.36-.36-3.51-.17-.26-2.02-.61-2.26-.44Z"/>
  <rect x="65.77" y="80.58" width="1.44" height=".48"/>
  <path d="M31.21,88.74c.17.78-.16,1.57-.19,2.28,0,.22.27.8.19.84-.09.04-.37-.07-.53.01-.32.15-.02.65-.67.47-.02-.81-.04-1.6.11-2.41.12-.64.32-1.44,1.09-1.19Z"/>
  <path d="M83.53,86.82h-.72c.3-1.45-.24-2.76-.72-4.08.78-.87,1.57,3.72,1.44,4.08Z"/>
  <path d="M84.25,83.22c-.16,1.09.39,2.15.24,3.24-.06.43.08.39-.48.36.16-1.09-.39-2.15-.24-3.24.06-.43-.08-.39.48-.36Z"/>
  <path d="M56.17,47.22c-.08,1.09-.63,2.7-1.92,2.64-.09-1.3.26-2.99,1.92-2.64Z"/>
</svg>