<?xml version="1.0" encoding="UTF-8"?>
<svg id="a" data-name="Layer_1" xmlns="http://www.w3.org/2000/svg" viewBox="0 0 234.38 170.14">
  <path d="M188.12,78.18c-.69,1.94-1.45,3.86-2.05,5.82-.81,2.64-1.49,5.31-2.24,7.96-.26.92-.57,1.83-.83,2.64,2.57,1.94,4.7,3.97,6.26,6.58,1.24,2.07,2.73,4,3.86,6.12.49.93.36,2.19.48,3.3,0,.05-.24.12-.58.29.74-2.59-.88-4.21-2.01-6.01-.77-1.22-1.69-2.37-2.34-3.65-1.25-2.43-3.38-4-5.38-5.94-1.13,2.06-.8,4.2-.92,6.65-.35-.44-.62-.63-.64-.84-.13-1.86-.15-3.73-.33-5.59-.12-1.27-1.92-2.04-2.84-1.36-2.55-2.02-5.61-.53-8.28-1.08-.07-.25-.12-.33-.11-.4.23-1.99-.22-3.86-.98-5.69-.11-.26-.02-.61-.02-1.09-.1-.03-.44-.15-1.16-.4.49,1.76.9,3.26,1.34,4.85-.21-.15-.72-.32-.82-.61-.34-1.08-.51-2.2-.8-3.29-.1-.39-.36-.74-.76-1.01.17,2.94,1.56,5.4,2.81,7.99-1.65.6-3.68-.77-5.18.64-.38,3.6-.76,7.15-1.13,10.71-.18-.01-.35-.02-.53-.04.1-1.17.19-2.33.3-3.62-.59-.34-1.28-.73-1.96-1.13l-.03.03c.68.1,1.36.21,2.09.32v-.58c-.21.07-.39.13-.59.2.19-1.01.65-1.98.46-2.8-.39-1.68-1.15-3.28-1.74-4.92-.55-1.54-1.08-3.08-1.62-4.62.12-.04.24-.09.37-.13,1.37,2.69,1.99,5.68,3.15,8.48,0-3.13-1.72-5.85-2.22-8.87.24.12.42.27.48.46.61,1.72,1.3,3.43,1.75,5.19.23.88.71.78,1.23.64.73-.19,1.43-.51,2.04-.73-.64-2.33-1.27-4.6-1.89-6.88.19.16.5.28.56.47.67,2.1,1.3,4.2,1.94,6.29h1.25c-.73-2.02-1.56-4.06-2.18-6.16-.32-1.09-.5-1.27-1.54-.58-.09.59-.37,1.24-.22,1.76.45,1.6,1.08,3.15,1.63,4.72-1.51-1.76-2.08-3.88-2.42-6.06-2.03.29-4.06.57-6.21.88,1.47,3.92,2.87,7.67,4.27,11.41-.07.05-.14.1-.21.15-.37-.52-.73-1.03-1.1-1.55,0,0,.03.03.03.03-.16-.47-.32-.95-.48-1.42-.09-.18-.18-.37-.27-.55-.08-.23-.16-.47-.24-.7l.03.04c-.83-2.41-1.65-4.82-2.58-7.53-.45.63-.7.99-.95,1.35-.18.04-.35.08-.53.12.09.13.17.27.26.4.08-.18.16-.36.24-.54-.01.53-.17,1.12,0,1.59.74,2.12,1.56,4.2,2.38,6.29.27.7.64,1.36.96,2.03-.14.06-.27.12-.41.19-1.82-2.99-2.22-6.68-4.12-9.63-.11.05-.22.1-.33.15,1.03,2.81,2.07,5.63,3.08,8.37-.09-.02-.38-.1-.67-.17l.03.03c-.98-2.65-1.96-5.3-2.97-8.04-.95.96-.94.96-.48,2.08.76,1.86,1.5,3.72,2.37,5.87-.69-.34-1.1-.54-1.5-.75-1.72-.85-3.37-1.91-5.17-2.51-3.63-1.21-7.37-2.07-10.52-4.43-.48-.36-1.26-.56-1.7.44-.52,1.18-1.17,2.33-1.92,3.39-1.15,1.62-2.43,3.16-3.71,4.8.6.07,1.13.04,1.59.19,2.76.92,5.13,2.56,6.87,4.81,2,2.61,3.16,5.68,3.71,8.96.34,2.04.76,4.07,1.12,6.11.27,1.54.52,3.09.79,4.75-.59-.32-.99-.54-1.4-.76.62-1.03.62-1.76-.1-2.58-.06-.07-.39.08-.7.16.3-1.11.58-2.12.85-3.13q-2.24,2.33-2.71,2.16c1.62-1.28,2.48-3.47,1.91-4.21-.2.32-.43.66-.65,1.01-.16-.15-.32-.31-.48-.46.12-.31.24-.62.36-.94-.23-.02-.45-.03-.76-.06.5-.76.93-1.42,1.35-2.07l-.17-.11c-.53.47-1.07.95-1.6,1.42-.09-.1-.17-.19-.26-.29.24-.27.48-.53.88-.96-.56.2-.9.31-1.23.43.06-.41.26-.59.48-.74,1.55-1.07,1.59-1.63.32-3.1-.67-.78-1.26-1.62-1.89-2.44.1-.09.19-.19.29-.28.3.3.6.59.89.91.3.33.58.68.87,1.02-1.16-2.81-2.41-5.54-5.45-7.06-.12.55-.18.84-.27,1.27-1.21-.65-2.33-1.25-3.6-1.94-.75.86-1.57,1.81-2.38,2.75-.07-1.09,1.51-3.18,2.52-3.3.17-.02.37.09.53.18.79.48,1.57.98,2.36,1.48.25-.37.44-.64.71-1.05-1.28-.56-2.41-1.18-3.62-1.55-1.4-.42-2.45.58-3.66,1.2,3.61-3.4,6.41-7.29,8.35-12.14-1.11.25-1.91.44-2.78.64.09-.42.14-.67.25-1.23-.98.28-1.9.31-2.48.76-.84.65-1.32.46-1.9-.2-.68-.78-1.38-1.55-2.22-2.5-.31,1.24-.54,2.17-.76,3.04-1.46-.23-2.93-.46-4.39-.68,0,.1,0,.2,0,.3.9.94,1.8,1.89,2.8,2.94-1.67.45-3.15.85-4.55,1.23-.21,2.36,2.04,1.05,2.75,2.09-.19.17-.34.34-.53.45-1.46.91-2.33,2.26-2.77,3.89-.17.63-.02,1.07.75.69.69-.34,1.37-.72,2.03-1.12,1.06-.64,1.99-.63,2.81.15-.6,0-1.18-.14-1.65.03-.79.3-1.48.87-2.27,1.17-.57.22-1.23.19-1.85.28-.06-.61-.16-1.22-.15-1.84,0-.28.17-.59.33-.84.67-.97,1.37-1.92,2.03-2.83-.36-.06-.82-.14-1.32-.23-.06.28-.12.57-.19.88-1.84-.76-1.74-1.06-5.83.27.16.72.32,1.47.49,2.21-.29,0-.57,0-.86,0,.03.09.06.18.09.27.25-.1.49-.2.74-.3.83.49.05.69-.2.88-.75.57-1.5,1.37-1.09,2.18.9,1.76,2.1,3.36,3.18,5.02.05-.74-.12-1.37-.31-2-.32-1.03-.31-1.14.18-1.62.79,2.31.64,5.09,3.21,7,0-1.26-.11-2.2.04-3.09.1-.59.57-1.13.87-1.69.48.27,1.09.44,1.43.84.91,1.07,1.6,2.34,2.57,3.35.79.82,1.31,2.07,2.77,2.31,0-1.4-.03-2.68.02-3.95.02-.52.22-1.03.33-1.55.56.21,1.21.31,1.65.66,1.14.89,2.19,1.9,3.1,2.71.22-.49.44-.99.67-1.49l-.03-.03c.08.69.16,1.38.25,2.16-1.98.05-2.49-1.97-4.03-2.46.67.79,1.35,1.59,2.02,2.38-.05.06-.11.12-.16.18-.3-.2-.6-.41-.9-.61-.15-.1-.29-.21-.43-.32-.03.07-.06.14-.09.21.18.03.37.05.55.08.08.32.16.64.27,1.07-.32-.1-.58-.18-.85-.26-.15-.18-.3-.35-.45-.53-.41-.62-.82-1.24-1.23-1.86-.21,1.11.5,1.49,1.26,1.83.15.18.3.35.46.53.05.31.1.62.14.92-.07.04-.14.08-.21.12-.54-.59-1.09-1.18-1.8-1.95v2.26c1.66-.23,3.27-.45,4.87-.67,0,.1,0,.21,0,.31-3.07,1.17-6.24.95-9.4.4-.21,1.56-.33,2.93-.59,4.27-.38,1.94-.42,1.93,1.29,3,.13.08.24.2.37.3,2.05,1.65,4.28,2.78,7.01,2.55.35-.03.72.09.92.13-.39,1.09-.67,2.08-1.11,3-1.04,2.19-2.16,4.35-3.36,6.77.77-.2,1.23-.32,1.96-.52-.69,1.15-2.51.62-2.23,2.24.27.05.55.1.95.16-.63.43-1.09.74-1.56,1.06.05.07.1.15.15.22.25-.12.5-.23.75-.35.06.09.11.17.17.26-.43.34-.87.68-1.39,1.08.34.15.56.26.78.35-.44.58-.83,1.09-1.21,1.61.07.05.14.1.22.15.3-.21.6-.42.9-.62-.57,1.36-1.9,2.4-1.18,3.95.67-.42,1.35-.84,2.03-1.27.08.11.16.22.24.33-.4.73-2.3.61-1.34,2.02.86-.54,1.7-1.46,2.63-1.56,1.88-.22,3.83-.08,5.73.08,1.17.1,2.31.54,3.46.82.07-.09.15-.17.22-.26-.28-.5-.56-1-.82-1.47.65-.19.63-.53.08-.93-.17.13-.32.25-.64.49.14-.91.24-1.61.36-2.39-.65.28-1.14.49-1.62.7-.05-.1-.1-.2-.15-.3.41-.31.83-.62,1.24-.93-.54-.04-.95.15-1.39.26-.43.11-.75,0-.63-.56.59-.15,1.19-.31,1.78-.46-.04-.11-.08-.22-.12-.33-.55.27-1.09.54-1.64.8-.18.02-.35.03-.53.05-.03-.07-.06-.14-.09-.22.57-.36,1.14-.73,1.71-1.09-.53.03-.96.3-1.42.41-.24.06-.54-.17-.82-.27.1-.1.19-.19.29-.29.82-.25,1.64-.49,2.49-.75,2.05,3.53,2.61,7.53,2.25,11.66-.14,1.56-.76,3.08-1.13,4.63-.15.61-.15,1.26-.33,1.86-.11.36-.48.64-.65.99-.9,1.9-1.78,3.81-2.68,5.7-.08.18-.33.28-.55.46-.63-1.58,1.39-1.98,1.19-3.4-.77-.08-1.61-.23-2.45-.24-4.98-.1-9.96-.17-14.94-.25-4.28-.07-8.49.37-12.66,1.36-.95.23-2.04.37-3.03-.5-.58-.51-1.58-.61-2.41-.78-.87-.18-1.76-.22-2.82-.34.12.77.27,1.38.3,1.99.04,1.1-.2,2.17-.39,3.25-.32,1.79-.07,3.67-.12,5.51,0,.34-.26.67-.4,1-.25-.2-.59-.34-.73-.6-2.15-3.74-4.74-7.11-8.29-9.61-.51-.36-1.38-.31-2.07-.29-.76.02-1.18-.17-1.53-.91-.65-1.4-1.46-2.73-2.26-4.19-.95.57-1.79,1.02-2.58,1.56-2.95,2.02-6.35,2.98-9.67,4.11-2.61.89-5.19,1.98-7.88,2.54-2.12.44-4.37.2-6.57.24-1.08.02-2.16-.07-3.23,0-3.72.23-7.25-.66-10.76-1.74-1.6-.49-3.28-.77-4.81-1.43-1.7-.73-3.25-1.81-4.89-2.69-.53-.28-1.14-.57-1.72-.59-2.02-.07-4.05-.03-6.08-.03-.01-.1-.02-.19-.04-.29.35-.07.69-.19,1.04-.19,1.72-.02,3.44-.06,5.15.02.62.03,1.39.19,1.83.58,2.13,1.94,4.74,2.81,7.43,3.55,2.29.63,4.58,1.29,6.89,1.85,1.06.26,2.16.39,3.26.44,2.7.13,5.4.18,8.1.26,2.95.09,5.74-.68,8.47-1.69.47-.17.94-.32,1.66-.57-5.27.28-10.31,1.06-15.22-.39-4.71-1.39-9.24-3.23-13.43-5.79l.14-.31c1.31.62,2.61,1.25,3.92,1.86,3.89,1.83,7.83,3.51,12.07,4.36.65.13,1.34.14,2.01.12,2.94-.06,5.88-.15,8.82-.25.19,0,.38-.21.56-.32.42.03.84.05,1.26.08,0-.08,0-.16-.01-.25l-1.23.18h-2.49c2.42-.71,4.94-.82,7.13-2.28,2.05-1.37,4.26-2.52,6.47-3.68-1.93,2.05-4.56,3.11-6.79,4.77,2.74-1.69,6.32-2.04,8.26-5.03.31.5.02,1.42-.89,1.97-1.22.73-2.49,1.38-3.74,2.06.05.09.09.18.14.27,2.2-1.12,4.39-2.24,6.91-3.52-4.69-4.48-8.77-9.21-14.86-11.98,4.71-1.42,8.98-3.4,13.49-4.63.04.11.08.23.12.34-4.01,1.45-8.03,2.91-11.73,4.25,2.8,2.23,5.77,4.47,8.59,6.89,1.59,1.36,2.78,3.18,4.41,4.48,1.22.98,1.85,2.42,3.12,3.3,1.35.94,2.78,1.79,4,2.89,1.73,1.57,3.36,3.27,4.91,5.01,1.06,1.18,1.92,2.54,3.02,4.02,0-1.5-.08-2.8.03-4.09.09-1.01.37-2.01.66-2.98.24-.78-.3-3.28-.79-3.53.23-.28.59-.55.68-.89.07-.25-.23-.6-.28-.71,1.62-4.96,4.53-9.15,7.94-13.47-1.91-.4-3.48-.73-5.48-1.15,3.39-2.32,6.56-4.49,9.72-6.66-2.87-2.81-4.81-6.05-6.88-9.29.2.5.39,1.01.6,1.5.12.29.22.61.42.84.9,1.05.49,2.34.84,3.74-.56-.55-.93-.91-1.3-1.28-.24-.56-.48-1.12-.72-1.68-.07-.28-.15-.56-.22-.84-.09.05-.17.09-.26.14.17.23.34.45.51.68.24.56.48,1.12.72,1.68.37.84.73,1.68,1.1,2.51-1.38-.76-1.41-2.45-2.51-3.48.12,2.28,1.73,3.82,2.68,5.7-1.59-.88-2.05-2.65-3-4.09-.22.97-.45,1.93-.74,3.19-.44-1.16.22-4.57,1.29-7.44.85-2.28,1.74-4.54,2.51-6.55.46-.61.87-1,1.1-1.47,1.53-3.23,3.71-5.99,6.14-8.57.4-.42.91-.73,1.44-1.15-.37-2.51-.3-5.08,1.44-7.62-1.54-.12-2.83-.22-4.13-.32-.01-1.4,4.14-3.45,8.81-3.96-.08-.28-.15-.55-.22-.81-.25.12-.5.24-.78.37-1.37-1.27-1.52-1.73-.72-2.92-2.76-1.58-4.75-4.37-8.27-5.11-.38,1.96-.78,3.71-1.03,5.47-.24,1.71-.47,3.45-.45,5.17.01,1.05.5,2.09.83,3.31.52-.48.87-.8,1.22-1.13.09.08.18.16.26.24-.49.64-.98,1.27-1.56,2.02-.21-.37-.3-.45-.32-.55-.35-1.81-.65-1.84-2.36-1.34-2.35.68-4.5,1.73-6.56,2.99-.97.59-2.37,1.05-2.73,1.92-.81,1.94-2.74,2.56-3.95,3.99-1,1.18-1.26,2.16-.5,3.45.17.3.26.65.37.98.53,1.75.4,1.84-1.03,2.31-.8.26-1.89.43-2.26,1.01-.27.42.33,1.5.69,2.21,1.04,2.07,2.12,4.11,3.24,6.13.45.82,1.04,1.58,1.77,2.22-1.7-3.27-3.4-6.55-5.1-9.82.14-.08.29-.15.43-.23,1.73,3.29,3.47,6.58,5.26,9.99.44-.47.71-.75.87-.92-2.51-2.91-3.76-6.45-5.82-9.52.16-.1.32-.19.48-.29,1.18,2.06,2.36,4.12,3.55,6.19l.23-.08c-.74-2.22-1.48-4.43-2.22-6.65l.23-.13c.16.13.42.22.48.39,1.16,3.25,2.19,6.56,3.51,9.76.59,1.43,1.75,2.62,2.65,3.92-.95.59-2.47-.93-2.81-2.91-1.33.55-.24,1.21.03,1.83-.09.06-.18.12-.27.18-.35-.33-.69-.65-1.12-1.05-3.38,3-7.31,5.33-11.48,7.22h-2.16c-.2-1.17-.39-2.28-.6-3.51,1.54-.21,1.27-1.28,1.08-2.54-.31-2.1-.35-4.24-.53-6.37-.03-.34-.14-.68-.54-1.21-.55.7-1.11,1.4-1.66,2.11.03.02.06.03.08.05-.42.4-.95.72-1.23,1.2-.94,1.64-1.78,3.33-2.68,4.99-.81,1.49-2.34,2.09-3.53,3.12-.13-.08-.27-.16-.4-.23.2-2.23.36-4.47.62-6.69.27-2.27.58-4.54.97-6.79.47-2.69.93-5.4,1.6-8.04,1.05-4.15,2.2-8.29,3.47-12.38.39-1.25.76-2.8,2.48-3.02.12-.93.27-1.82.34-2.72.06-.76.17-1.39,1.08-1.59.19-.04.3-.58.38-.9.64-2.49,1.27-4.98,1.95-7.65-.43.08-.76.11-1.07.2-2.85.84-5.42,2.3-7.66,4.18-1.58,1.33-2.88,3.06-4.06,4.78-.53.77-.47,1.94-.67,2.93-.04.2-.1.4-.15.61-.11,0-.22,0-.33-.01,0-.91-.1-1.84.02-2.74.35-2.6.88-5.19,1.17-7.79.33-3.01.49-6.04.72-9.07.28-3.73.56-7.45.84-11.18.04-.33.08-.66.14-1.13-.53.16-.89.27-1.16.35.33.25.68.51,1.03.78-.67-.13-1.34-.27-2.4-.48.64-.41.95-.68,1.31-.83,2.9-1.22,5.94-1.27,8.95-.7,3.14.59,6.22,1.44,9.34,2.13.26.06.6-.24,1.16-.49-1.66-.55-1.7-.64-1.02-1.75.73-1.19,1.47-2.37,2.22-3.55.1-.16.3-.4.41-.38,1.12.23,1.26-.79,1.65-1.36.87-1.29,1.62-2.66,2.47-4.08-1.05-.65-2.18-1.25-3.2-2-.77-.57-1.43-1.32-2.09-2.03-.58-.62-1.93-.66-2.61-.05-.29.26-.64.47-1.12.5.64-.77,1.28-1.55,2.09-2.53-.56,0-.97-.02-1.37,0-4.17.18-8.26-.36-12.34-1.16-3.88-.76-7.77-1.5-11.7-1.91-3.91-.4-6.64-2.98-9.79-4.78-.52-.3-.59-1.39-.89-2.16.94.82,1.79,1.52,2.59,2.28,2.54,2.46,5.66,3.7,9.07,4.35,1.81.34,3.61.67,5.43.97,2.47.41,4.96.75,7.42,1.2,3.64.65,7.31.8,11,.74.68-.01,1.07-.25,1.42-.76,2.21-3.18,4.31-6.45,6.71-9.48,1.64-2.07,3.64-3.86,5.6-5.64.93-.84,2.11-.97,3.41-.37.93.43,2.07.39,3.08.67,3.53.99,5.87,3.51,7.76,6.44,1.39,2.16,2.53,4.48,3.76,6.75.27.5.44,1.06.7,1.73,2.34-.16,4.73-.33,7.17-.5-.16-.43-.27-.74-.37-1.04.08-.07.15-.14.23-.22,1.65,2.1,3.89,1.08,5.87,1.15,2.08.07,4.17-.33,6.26-.4,2.23-.08,4.47-.02,6.81-.02.3-2.59.85-5.18.82-7.75-.03-2.71.3-5.55-1.22-8.28.47,0,.83-.09,1.12.01,2.4.81,4.84,1.55,7.17,2.54,1.52.65,2.89,1.68,4.3,2.59,2.73,1.76,5.51,3.36,8.77,3.96,1.18.22,2.35.58,3.49.97,1.12.37,2.01,1.03,2.27,2.71-.46-.49-.79-.7-.91-.99-.31-.77-.9-1.07-1.64-1.27-2.22-.61-4.51-1.05-6.61-1.93-2.31-.97-4.6-2.15-6.62-3.63-2.6-1.9-5.53-2.84-8.5-3.77-.59-.19-1.17-.43-1.68-.62.21,1.9.58,3.84.59,5.79.02,2.2-.28,4.41-.45,6.61-.06.79-.16,1.57-.21,2.36-.27,3.74-1.72,6.96-4.31,9.78,1.49,1.21,2.99,2.41,4.46,3.64.46.39.86.86,1.27,1.29.52.54,1.05,1.08,1.54,1.64.25.28.43.62.64.94-.18,0-.37.01-.55.02-.15-.18-.3-.35-.44-.53l-.18.24c.22.09.44.17.66.25.11.14.23.29.41.53.03-.26.05-.4.07-.54,1.43-1.55,2.85-3.1,4.28-4.65,1.83-2,3.65-4,5.48-6,.13.12.27.24.4.36-1.22,1.28-2.43,2.56-3.65,3.85-.91.68-.98,1.43-.28,2.33.36.46.62,1,.86,1.53.09.19.01.45.01.67-.58-.55-.96-1.13-1.28-1.74-.63-1.2-.62-1.21-1.31-.88.43.95.87,1.9,1.3,2.85-.09.06-.19.13-.28.19-.47-.7-.93-1.39-1.4-2.09-.08.04-.17.08-.25.13.41.87.81,1.74,1.25,2.67-.1.05-.34.17-.58.29.05.13.09.25.14.38,1.63.05,2.68-1.71,4.39-1.75-3.64,2.68-7.95,4.12-11.11,7.12,2.52,4.75,4.13,9.6,4.39,14.87.02-3.65-.75-7.18-1.7-10.7,1.54,2.89,1.91,6.09,2.32,9.26,1.34-1.1,2.64-2.07,3.84-3.16,2.43-2.22,5.16-3.84,8.37-4.67,1.96-.51,3.85-1.29,5.83-1.65,2.36-.43,4.77-.67,7.17-.77,2.91-.13,5.83-.05,8.75-.02.9,0,1.81.12,2.7.25.25.04.46.3.69.46-.79.06-1.43-.22-2.06-.21-5.97.1-11.99-.54-17.88.86-2.04.49-3.98,1.37-5.99,1.96-2.82.83-5.28,2.24-7.33,4.34-.39.4-.54,1.02-.9,1.45-1.38,1.64-3.94,2.57-3.05,5.53-.1,0-.2,0-.31,0-.18-.43-.37-.86-.52-1.23-.72.51.26,1.81-1.01,2.14-.07,1.36-.14,2.82-.21,4.32.71-.18,1.15-1.21,1.76-.37,2.43-2.08,5.64-.97,8.23-2.13-.16-.11-.33-.23-.51-.35.1-.12.14-.21.2-.23.15-.03.32-.04.48-.04,4.14-.05,8.07.92,11.93,2.34,3.08,1.13,5.1,3.14,5.62,6.45.19,1.2.26,2.41.38,3.66.45-1.9.97-3.73,1.3-5.59.66-3.74,1.88-7.32,3.18-10.86.35-.95.4-2.21,1.61-2.69ZM153.46,92.45c.1.47.2.94.29,1.42v.58c-.54-.59-.82-1.25-1.11-1.9q-.53-1.23-1.55-1.05c.84,2.41,1.6,3.92,3.57,3.76-.32-.49-.62-.94-.91-1.39-.1-.47-.2-.93-.31-1.4-.16-.4-.32-.8-.48-1.19-.15-.83-.68-1.85-.38-2.44.74-1.43.95-2.65.12-4.09-.46-.8-.7-1.73-1.01-2.61-.8-2.21-1.59-4.43-2.42-6.75-.85,5.06,1.01,9.41,2.93,13.75-.17.06-.34.12-.51.18-.76-1.87-1.52-3.73-2.34-5.73-.34,2.33,1.51,3.83,1.67,5.87-.33-.31-.55-.69-.76-1.06-.2-.37-.4-.74-.59-1.11.4,1.37.65,2.84,2.06,3.64.18-.31.31-.54.43-.74.31.41.57.74.83,1.08.16.4.32.79.48,1.2ZM103.92,96.23c-.06-.23-.11-.47-.17-.7-.08.04-.17.07-.25.11.15.19.29.38.44.57.24.32.48.64.72.96-.12.12-.24.25-.36.37-.28-.33-.57-.64-.82-.99-.43-.59-.84-1.2-1.26-1.8-.13.1-.26.19-.4.29.68.91,1.36,1.82,2.15,2.87-1.4-.3-1.73-1.66-2.8-2.19.6.82,1.21,1.64,1.81,2.46-.1.08-.2.17-.3.25-.64-.74-1.29-1.47-1.93-2.21-.24.35-.43.63-.61.89.42.58.77,1.15,1.22,1.64.17.19.6.36.82.28,1.05-.36,2.06-.81,3.38-1.34-.41-.22-.67-.36-.93-.5-.24-.32-.48-.64-.72-.96ZM129.8,63.4l-.13-.93c-.11.04-.22.08-.34.12.16.26.33.52.49.78.13.31.27.62.4.93.11-.07.21-.14.32-.21-.25-.23-.5-.46-.75-.69ZM129.46,105.9c.05.23.11.47.16.7.08-.04.16-.08.25-.11-.15-.19-.29-.37-.44-.56-.04-.22-.07-.43-.11-.65-.13.1-.26.2-.39.3.18.11.35.21.53.32ZM147.77,88.58c-.05-.36-.1-.72-.15-1.08-.09.02-.18.05-.28.07.15.33.3.66.45.99.18.35.37.7.55,1.06.11-.08.21-.16.32-.23-.3-.27-.59-.53-.88-.8ZM106.45,94.15c.26.58.53,1.16.79,1.74.13-.08.26-.15.39-.23-.4-.5-.81-.99-1.21-1.49-.29-.56-.58-1.12-.87-1.68-.11.09-.23.18-.34.26.41.46.83.92,1.24,1.39ZM124.51,76.12v-1.17c-.12.01-.23.02-.35.04.12.37.24.74.36,1.12.29.63.58,1.26.87,1.89.16-.1.32-.2.48-.29-.46-.52-.91-1.05-1.36-1.58ZM149.78,61.89h-.64c.41.88.79,1.69,1.23,2.63.3-.27.57-.5.83-.74.12-.15.37-.39.34-.44-.34-.54-.71-1.08-1.13-1.56-.07-.08-.41.07-.62.12ZM128.61,145.61c-.05-.23-.11-.47-.16-.7-.08.04-.16.08-.25.11.15.19.29.37.44.56.55,1.03,1.09,2.08,1.67,3.09.07.12.41.09.62.13-.09.27-.18.54-.4,1.19-1.09-1.78-2.01-3.28-3.05-4.97-.07,2.25,1.5,3.42,2.42,4.9-.09.08-.18.16-.27.24-.54-.54-1.08-1.09-1.61-1.62.25,1.74.27,1.77,1.87,1.77,1.78,0,3.55,0,5.28,0,0,0-.11-.15-.22-.3-1.7-2.34-3.4-4.67-5.07-7.02-.18-.26-.14-.67-.19-.9,1.87,2.52,3.75,5,5.57,7.51.83,1.14,1.96,1.19,3.16,1.16q.64-2.19-.81-3.86c-.13-.15-.22-.32-.32-.49-1.22-2.03-2.41-4.08-3.69-6.07-.17-.27-.77-.27-1.17-.39.05.32,0,.71.16.94,1.25,1.7,2.57,3.36,3.83,5.06.77,1.04,1.46,2.13,2.19,3.2-.11.08-.22.16-.34.24-.17-.18-.36-.35-.5-.56-.59-.84-1.14-1.72-1.75-2.55-1.47-1.98-2.98-3.93-4.43-5.93-.51-.7-.73-.3-1.02.13l.03-.03c-1.83.82-2.07,1.31-1.3,2.68,1.28,2.26,2.6,4.49,4.56,6.26.12.11.13.33.19.5-.11.08-.22.15-.34.23-1.03-1.25-2.16-2.43-3.07-3.75-.93-1.35-1.65-2.85-2.48-4.29-.09.02-.29.06-.48.1v-1.36c-.29.69-.93,1.08.03,1.33.93,2.47,2.31,4.64,4.15,6.53.16.17.08.58.15,1.2-.57-.54-.85-.8-1.14-1.06-.76-1.07-1.53-2.15-2.28-3.23ZM120.11,91.99c-.02.42-.05.84-.08,1.4.26-.33.44-.55.63-.8-.2-.19-.39-.38-.58-.57.07-.25.13-.51.2-.76-.62-.08-1.25-.16-1.93-.25.03.41.05.72.07,1.03,0,0,.05,0,.07.01.2-.21.4-.27.58-.25.35.04.69.12,1.03.19ZM150.08,93.22c-.38-.66-.76-1.33-1.18-2.05-1.06.91.77,1.18.42,1.88.27.05.53.09.8.14.4.25.8.5,1.35.85q-.96-2.6-1.85-2.79c.34.67.68,1.32,1.05,2.05-.27-.04-.42-.06-.58-.07ZM111.36,107.85c-.43.53-.66,1.04-.19,1.73.67.99,1.25,2.04,1.87,3.07.11,0,.22-.02.33-.03-.04-.29-.03-.6-.14-.86-.61-1.32-1.26-2.63-1.89-3.94.43.55.9,1.08,1.28,1.67.44.7.8,1.45,1.2,2.17.22-.32.29-.56.21-.7-.65-1.11-1.33-2.2-2.03-3.28-.04-.06-.41.11-.62.17ZM150.41,77.08c.02-.21.04-.42.05-.62-.06,0-.12.01-.17.02.05.2.09.39.14.59l2.69,7.42c.15-.05.31-.11.46-.16-.24-.72-.45-1.45-.71-2.17-.38-1.02-.74-2.04-1.2-3.02-.34-.72-.83-1.37-1.25-2.06ZM122.73,119.68c1.65.26,3.3.53,4.95.79.03-.17.05-.33.08-.5-1.2-.16-2.41-.32-3.61-.48.28-.25.56-.31.85-.33.29-.02.59,0,1.05,0-1.37-1.13-2.43-.89-3.28.55-.28-.01-.56-.02-.84-.03,1.3-1.59,1.21-2.25-.46-3.51-.19-.14-.46-.21-.58-.38-1.3-1.99-2.57-4-3.86-5.99-.29-.44-.63-.85-1-1.35-.18.3-.23.36-.25.44-.55,1.49-.81,3.2-2.21,4.16-1.23.84-2.64,1.46-4.02,2.05-1.26.54-2.59.91-3.97,1.39.49.54.87.97,1.24,1.39-.05.07-.11.14-.16.2-.37-.23-.75-.47-1.16-.73-.16.19-.36.42-.58.68.49.56.94,1.06,1.42,1.6h-1.15c.75,1.29,1.46,2.48,2.15,3.67.01.02-.08.11-.19.25-.68-.72-1.35-1.42-2.01-2.13,1.43,2.37,3.06,4.57,4.49,6.88,1.36,2.19,2.51,4.5,3.75,6.75.37.68.58,1.54,1.12,2.02.95.82.42,1.62.49,2.5-1.49-2.84-2.91-5.55-4.36-8.33-3.2,2.2-6.18,4.25-9.2,6.33.81.19,1.56.27,2.24.53,4.1,1.58,8.19,3.21,12.29,4.79,1.01.39,2.16.51,3.09,1.03,1.08.6,2.1,1.4,2.97,2.28,1.39,1.4,2.63,2.93,3.95,4.42.27-.2.47-.47.66-.46.94.05,1.07-.07.93-.92-.27-1.54-.62-3.08-.74-4.63-.39-5.26.29-10.38,2.36-15.26,1.15-2.72,2.38-5.4,3.56-8.07-3.33-.32-6.45-.63-9.57-.93-.02.06-.04.13-.06.19,2.3.45,4.61.9,6.91,1.35-2.6.3-5.02-.26-7.38-1.19-.23-.09-.53,0-.8,0,.16.22.28.52.5.63,1.28.71,2.56,1.37,4.11,1.21.31-.03.65.14.97.22-1.9.56-3.54-.03-5.12-.92-.57-.32-1.15-.5-1.28.47l.03-.03c-3.42,4.54-5.12,9.63-4.97,15.41-.31-.16-.54-.34-.53-.51.12-1.4.33-2.8.43-4.21.29-3.69,1.99-6.79,3.82-9.9.62-1.06,2.18-2.07,1-3.7-.04-.05.05-.18.03-.11.41.14.78.27,1.16.39.23.57.49.45.78.04ZM149.89,89.57c-.07.17-.15.34-.22.51l.21.04v-.55c-.24-.45-.53-.87-.7-1.34-.41-1.09-.77-2.19-1.15-3.29-.13.13-.26.25-.39.38-.49-.14-.99-.28-1.49-.42.1.73.5,1.18,1.38,1.39.5.12.88.07.67.86-.21.78.9,2.16,1.69,2.41ZM112.22,113.5c-.91-1.01-1.82-2.01-2.74-3.01-1.33,1.2-1.62,1.29-.05,2.97.16.17.32.44.51.48.32.06.67-.03,1-.06l-.03.03c.42-.15.85-.29,1.26-.44.03-.33.19-.74.06-.99-.59-1.13-1.26-2.21-1.9-3.31-.12.04-.23.07-.35.11.12.42.17.88.38,1.25.58,1.01,1.23,1.99,1.85,2.98ZM125.24,58.14c-.13-.62-.27-1.23-.4-1.85-.11.04-.22.08-.34.12.25.57.5,1.14.75,1.71,1.25,3.02,2.5,6.04,3.75,9.06.13-.01.27-.02.4-.04.05-.37.2-.76.13-1.1-.09-.4-.39-.74-.58-1.12-.77-1.56-1.5-3.14-2.31-4.68-.39-.74-.94-1.4-1.41-2.1ZM103.65,94.09c.02-.21.04-.42.05-.62l-.17.02c.05.2.09.39.14.59.77,2.5,2.05,3.48,4.2,3.13-1.17-1.49-2.3-2.95-3.44-4.4-.11,1.69,1.17,2.7,1.84,4.05-.54-.28-.96-.65-1.33-1.07-.46-.54-.86-1.12-1.29-1.68ZM95.28,93.36c-.27-.76-.43-1.58-.83-2.26-1.2-2.01-2.48-3.96-3.75-5.92-.27-.42-.61-.78-.92-1.17-.11.07-.21.15-.32.22,1.95,3.03,3.9,6.07,5.85,9.1-.34.02-.67.03-1,.04l-.15-1.08c-.09.02-.18.05-.28.07.15.33.3.66.44.99,1.12,1.74,2.23,3.48,3.35,5.21.07-.03.15-.06.22-.09v-2.16c-.53-.56-.96-.97-1.36-1.42-.44-.5-.84-1.02-1.26-1.54ZM143.05,71.66c.09,0,.18,0,.27,0,1.09-.07,2.19-.15,3.28-.22,0,.15.02.31.03.46-2.81.09-5.57.35-8.07,1.79-2.44,1.4-4.52,3.15-5.86,5.38.71,1.33,1.45,2.45,1.92,3.67.24.63.28,1.38,1,1.51.65.12,1.45.1,2.04-.18,1.77-.85,3.64-1.26,5.55-1.33,2.16-.07,3.95.94,5.33,2.32,0-2.74.08-5.57-.04-8.4-.04-.94-.33-1.81,0-2.81.21-.63-.14-1.46-.27-2.35.06-.25.31-.73.24-1.16-.08-.51-.45-.98-.67-1.47-.78-1.71-1.56-3.42-2.37-5.2-.22.14-.56.37-.9.6-.24.16-.49.32-.73.48-.33.24-.65.47-.98.71l.03-.03c-.81.41-.89,1-.48,1.76.7,1.3,1.38,2.61,2.06,3.92-.1.06-.19.12-.29.18-1.27-1.24-1.55-3.11-2.71-4.59-.16.22-.33.45-.49.69-.71.32-.93.8-.5,1.51.51.83,1.01,1.68,1.61,2.68-1.39-.52-1.76-1.69-2.3-2.79-.15.13-.38.28-.36.31.44.94.83,1.92,1.43,2.75.15.21,1-.08,1.53-.14.24-.02.48-.03.72-.05ZM128.13,79.43c.36.24.73.47,1.09.71.09-.08.19-.17.28-.25-1.43-3.06-2.86-6.12-4.29-9.17-.14.06-.28.12-.43.18.24.54.46,1.09.72,1.63.99,2.02,1.96,4.06,3,6.05.31.6.12.77-.41.89-.25-.59-.47-1.19-.75-1.76-.82-1.71-1.63-3.44-2.52-5.11-.16-.31-.44-1.07-1.05-.57-.19.15-.13.81.02,1.13.36.72.89,1.36,1.27,2.07.83,1.54,1.32,3.32,3.05,4.21ZM121.5,105c-.05.79-.39,1.71-.1,2.34.58,1.26,1.5,2.35,2.32,3.57q.24-.79,3.08-.73c-1.64-2.01-3.24-3.96-4.95-6.05-.17.42-.27.66-.37.9,0,0,.03-.03.03-.03ZM96.54,65.25c-.12-.25-.25-.51-.37-.76-.1.08-.19.16-.29.24.23.16.46.32.69.48-.33.63.11.96.48,1.35.75.78,1.6,1.51,2.15,2.42.56.9.69,2.05,1.22,2.98,1.05,1.85,2.25,3.6,3.36,5.41.41.67,1.05,1.39,1.03,2.07-.02,1.05.5,1.15,1.46,1.39-3.96-7.34-7.8-14.46-11.65-21.59-.14.07-.29.14-.43.21.15,2.61,2.34,4.25,3.3,6.55-.32-.26-.65-.51-.97-.77ZM86.38,115.72c-.35.24-.71.48-1.12.76,2,3.75,4,7.48,6,11.22-.11.06-.23.12-.34.19-2.34-3.48-3.98-7.36-6.03-10.99-.73.34-.59.86-.27,1.45,1.51,2.82,3.02,5.64,4.5,8.47.79,1.51,1.26,2.27,3,.91-.87-1.48-1.82-2.91-2.57-4.44-1.21-2.46-3.02-4.67-3.17-7.57.17.08.46.12.51.25.53,1.32.9,2.72,1.55,3.97,1.18,2.31,2.5,4.54,3.81,6.78.17.28.6.41,1.08.73-1.97-3.88-3.83-7.43-5.55-11.05-.37-.78-.66-.97-1.38-.67ZM121.26,147.72l.03.03c-.63-.97-1.04-2.31-1.93-2.83-1.57-.92-3.43-1.33-5.17-1.96-.48-.21-.96-.43-1.44-.64-.06.11-.13.21-.19.32,1.16,2.84,3.23,5.06,5.22,7.34-2.14-.86-5.76-6.02-5.64-7.66-2.14-1-4.25-1.98-6.43-2.99-.13.39-.48.88-.35,1.14.66,1.34,1.37,2.67,2.19,3.92,1.28,1.98,2.66,3.89,4,5.83-.1.07-.2.14-.3.21-2.51-2.95-4.65-6.17-6.43-9.8-.67.9-1.22,1.67-1.8,2.41-.42.54-.53,1.09-.18,1.69.88,1.46,1.75,2.92,2.67,4.36.28.44.68.8,1.02,1.19-.1.08-.21.16-.31.23-1.9-1.53-3.12-3.58-4.08-5.91-.29.31-.53.56-.68.72,1.14,1.64,2.24,3.21,3.33,4.78-.12.09-.25.18-.37.27-1.09-1.49-2.18-2.98-3.26-4.45-.1.17-.22.37-.34.57l.03-.03c-.77.59-.67,1.32-.22,2.01.61.95,1.3,1.84,1.96,2.76-.03.05-.07.09-.1.14-.65-.48-1.31-.96-1.96-1.45-.15-.48-.3-.96-.45-1.44-.14.08-.28.16-.41.23.3.39.59.79.89,1.18.39.59.78,1.17,1.23,1.86-1.56,0-1.41-1.91-2.88-2.36.47.91.82,1.59,1.17,2.27-.06.06-.11.11-.17.17-.39-.3-.78-.6-1.16-.89-.09.33-.18.66-.32,1.19,5-.37,9.86-.73,14.97-1.11-2.94-3.56-5.81-6.9-7.59-10.98.6.57,1.07,1.24,1.52,1.92.77,1.18,1.45,2.42,2.28,3.55,1.32,1.79,2.73,3.52,4.12,5.26.11.14.33.26.51.26,1.7.02,3.41.01,5.4.01-1.03-1.39-1.91-2.6-2.81-3.79-.9-1.19-1.86-2.34-2.74-3.54-.11-.15.08-.51.13-.77,1.49,1.9,3.39,3.61,4.37,5.74,1.12,2.45,2.85,2.21,4.79,2.11.52-.03,1.04-.16,1.7-.27-1.28-1.51-2.45-2.88-3.61-4.25l-.23.18c.95,1.28,1.89,2.56,2.84,3.84-.11.09-.21.18-.32.26-.28-.32-.56-.64-.85-.96-.55-.62-1.1-1.25-1.65-1.87ZM105.98,61.97l.02.02c-1.17-2.67-2.27-5.37-4.19-7.62-.86-1.01-1.8-1.88-3.3-2.26,3.46,6.81,6.83,13.44,10.2,20.06.08-.02.16-.05.24-.07-.99-3.38-1.98-6.75-2.97-10.13ZM89.9,82.64c.02.27-.05.59.08.79,1.74,2.68,3.52,5.35,5.28,8.02.8,1.39,1.61,2.77,2.41,4.16.14-.05.28-.1.42-.15-.12-1.25-.29-2.5-.34-3.76-.12-3.1-.18-6.19-.25-9.29-.03-1.42-.35-1.78-1.86-1.93.39.77.78,1.55,1.17,2.33-1.4-.73-1.29-2.74-2.98-2.95-1.45-.18-2.93-.04-4.82-.04,2.66,4.26,5.15,8.23,7.74,12.37-.59-.29-1.04-.51-1.49-.73-.1-.36-.12-.77-.3-1.08-.47-.81-1-1.59-1.52-2.37-1.18-1.78-2.37-3.56-3.56-5.34-.22-.54-.41-1.1-.66-1.62-.59-1.23-.73-1.25-1.8-.43-.1.07-.25.09-.38.11-.34.03-.93-.04-.97.08-.14.39-.23.94-.05,1.28.63,1.24,1.38,2.42,2.09,3.62,2.09,3.53,4.16,7.06,6.27,10.58,1.1,1.83,2.26,3.61,3.4,5.42-.75-.39-1.74-.6-2.21-1.22-1.4-1.82-2.63-3.76-3.86-5.71-1.95-3.1-3.85-6.22-5.75-9.36-.16-.26-.11-.64-.15-.97,3.09,4.6,5.65,9.41,8.75,13.88.1-.06.19-.12.29-.18-3.1-5.17-6.2-10.34-9.39-15.65-.17.83-.35,1.54-.44,2.27-.04.28.06.63.2.88,1.05,1.8,2.12,3.59,3.19,5.38,1.03,1.72,2.06,3.44,3.09,5.15-1.86-1.1-2.51-3.17-3.57-4.91-1.07-1.76-2.07-3.57-3.1-5.35-.14.08-.29.16-.43.23.61,3.31,3.32,5.54,4.47,8.6-1.92-1.86-2.86-4.47-4.68-6.46-.06.41-.13.83.04,1.14.64,1.17,1.27,2.37,2.07,3.44.74,1,1.02,2.37,2.5,2.8,2.25.65,4.01,2.03,5.35,3.95.71,1.01,1.43,2.03,2.24,3.18.49-.4.93-.76,1.36-1.12,1.15-.7,2.31-1.39,3.48-2.1-.42-.6-.9-1.27-1.56-2.22-.36,1.21-.61,2.08-.91,3.1-.53-.56-1.22-1.09-1.66-1.78-1.83-2.85-3.57-5.75-5.38-8.62-1.2-1.9-2.45-3.76-3.67-5.64-.36-.56-.64-1.17-1.01-1.72-.62-.92.57-.86.6-1.59.6.99,1.07,1.76,1.55,2.54.08-.04.16-.09.24-.13-.34-.63-.68-1.25-1.02-1.88.43.06.66.25.88.45.21.19.41.38.62.57ZM113.87,75c.2.1.4.21.74.39-.36.14-.6.24-.85.34.1.12.2.24.3.36.38-.2.76-.39,1.17-.61-.68-.49-1.25-.9-1.72-1.24-.77.23-1.46.45-2.15.66-.04-.1-.07-.2-.11-.3.52-.26,1.04-.52,1.67-.84-1.37-1.27-2.61-2.42-4.06-3.77.51,2.52.98,4.83,1.44,7.14-3.61-8.52-8.06-16.63-12.5-24.93-.29.59-.53,1.06-.76,1.53-.74.48-.98,1.17-.56,1.91,1.4,2.5,2.89,4.95,4.3,7.45,1.03,1.83,2.03,3.68,2.98,5.55,1.42,2.77,2.8,5.56,4.19,8.34.95,1.89,1.91,3.78,2.86,5.66-.1.06-.2.11-.3.17-1.99-2.77-3.19-6.01-4.82-8.98-1.66-3.04-3.06-6.22-4.7-9.27-1.63-3.02-3.42-5.96-5.2-9.04-.26.52-.44.87-.52,1.04,5.68,7.84,8.8,16.95,13.83,25.13-.34.04-.57.06-.8.09-.24-.57-.44-1.16-.73-1.71-1.28-2.45-2.61-4.87-3.88-7.32-.92-1.76-1.75-3.57-2.67-5.33-1.16-2.22-2.35-4.43-3.56-6.61-.57-1.02-1.24-1.99-2-3.2-.17.62-.41,1.01-.32,1.29.24.73.58,1.44.96,2.12.95,1.7,1.97,3.37,2.93,5.07,1.44,2.57,2.87,5.14,4.25,7.74,1.04,1.96,1.92,4.01,3.01,5.94.46.81.74,1.99,2.06,1.98,2.33,1.93,4.67,3.85,7.19,5.93-.29-2.58,1.17-3.7,3.01-4.37-.22-.38-.6-.88-.54-.95.48-.52-.08-.47-.26-.72-.92-1.29-1.77-2.63-2.64-3.95.15-.1.3-.2.45-.29.23.36.45.72.69,1.07.61.89,1.22,1.78,1.84,2.66.08.11.25.2.37.2.08,0,.21-.18.23-.29.23-1.55-1.6-4.38-3.26-5.01v.7c-1.01-.28-3.88.98-4.1,1.58,2.11,1.57,2.67,4.11,4.05,6.07-1.5-.58-1.51-2.43-2.9-3.51.77,1.5,1.4,2.73,2.04,3.96l-.15.1c-.34-.24-.68-.48-1.02-.72-.98-2.11-1.96-4.21-3.07-6.59.61-.39,1.39-.85,2.12-1.36.54-.38,1.02-.84,1.53-1.26l-.03.03ZM138.11,50.91c-1.09-.05-1.48-.95-2.08-1.63-1.1-1.24-2.28-2.39-3.43-3.58l.19-.22c.29.22.62.4.87.65,1.02,1.05,2,2.12,3.01,3.17.22.22.54.5.81.49,1.85-.09,3.69-.27,5.54-.38.64-.04,1.32-.09,1.91.09,1.08.34,1.67.18,2.11-.86.33-.79.68-1.58.94-2.39.27-.81.44-1.66.68-2.58-5.79.23-11.31.44-16.74.65.1.19.26.51.47.91-.53.09-.91.15-1.26.21.98,4.23,1.03,8.46.88,12.69-.15,4.23-1.28,8.25-3.42,12.02.57.39,1.04.91,1.59,1.03,1.44.3,1.96,1.38,2.24,2.55.27,1.11.95,2.45-.76,3.25-.59-1.08-1.2-2.18-1.81-3.28-.07.04-.13.07-.2.11.72,1.66,1.44,3.33,2.16,4.99-.07.04-.14.09-.21.13-.24-.18-.47-.35-.71-.53-.05.07-.1.14-.15.21.38.33.75.67,1.07.94.41-.67.66-1.35,1.14-1.82.59-.57.67-1.04.39-1.8-.21-.56-.31-1.4-.03-1.85.65-1.04,1.5-2,2.39-2.85,1.46-1.4,3.19-2.55,4.51-4.06,1.93-2.2,4.26-3.69,6.85-4.93,1.05-.5,2.04-.88,3.23-.9.65,0,1.29-.46,2.07-.76-2.52-.92-2.91-3.67-5.03-4.59.82,1.19,1.64,2.39,2.47,3.61-.18.05-.3.11-.31.09-.95-1.25-1.89-2.52-2.83-3.78-.17-.23-.31-.54-.55-.64-1.54-.69-3.07-1.44-4.67-1.95-1.44-.45-2.23-1.65-3.36-2.44.36.09.73.17,1.09.26q-.48-1.16-1.6-.77c.18.19.36.37.54.55ZM121.71,58.49c.27-.46.53-.92.85-1.47.16.25.29.38.27.43-1.44,3.24-1.08,6.6-.58,9.94.07.45.46.85.71,1.3-.86.22-.43.83-.12,1.43.34-.26.68-.52,1.02-.77.05.05.11.1.16.15-.34.63-.67,1.27-1.01,1.9.56-.16.98-.33,1.15-.63.3-.55.77-1.29.61-1.75-1.15-3.32-.38-6.76-.81-10.12-.25-1.93-.04-3.92-.09-5.89-.02-.8.01-1.66-.29-2.36-.33-.75-.15-1.45-.26-2.14-.23-1.43-.06-3.1-1.37-3.96-.12-.62-.1-1.13-.32-1.53-1.22-2.27-2.42-4.55-3.77-6.75-.82-1.33-1.78-2.6-2.87-3.72-1.79-1.84-4.09-2.74-6.6-3.25-2.4-.49-4.35-.15-6.17,1.77-2.9,3.04-5.44,6.31-7.67,9.85-1.14,1.8-2.49,3.47-3.78,5.24.8.36,1.54.55,2.11.98.64.48,1.07,1.25,1.7,1.76,1.82,1.47,4.24,1.96,5.97,3.6.25.24.62.39.82.66,1.14,1.58,2.4,3.1,3.32,4.8.98,1.83,1.7,3.81,2.4,5.78.64,1.81,1.11,3.68,1.58,5.24,2.26-2,4.59-4.06,6.93-6.11,1.75-1.53,3.5-3.06,5.29-4.55.14-.11.56.12.85.2-1.31,1.05-2.64,2.07-3.92,3.15-2.26,1.9-4.49,3.85-6.75,5.75-1.33,1.12-1.68,1.93-1.07,2.95.23.38.61.67.95.97,2.12,1.82,4.37,3.52,6.34,5.49.88.88,1.46,2.23,1.74,3.47.35,1.55.26,3.19.37,4.85,1.79-2.03,3.43-4.14,5.87-5.22-.46-1.31-.91-2.5-1.29-3.72-1.61-5.12-3.17-10.26-2.5-15.75.08-.66.15-1.32.23-1.98ZM71.94,88.5c.58-.46,1.65-1.01,2.29-1.88,1.52-2.03,3.7-3.13,5.78-4.35,2.93-1.71,6.24-2.34,9.54-2.91,2.8-.48,5.48-.27,7.97,1.21.51.3.99.66,1.52,1.02.22-1.29.21-2.53.65-3.58.76-1.81.31-3.59.15-5.37-.09-1.09-.46-2.21-.94-3.2-1.47-3.1-4.62-4.16-7.36-5.58-1.69-.87-3.71-1.12-5.59-1.64-3.56-1-7.17-1.44-10.85-.81-.26.04-.65.27-.69.47-.26,1.53-.53,3.07-.63,4.61-.29,4.18-.46,8.37-.76,12.55-.13,1.87-.46,3.74-.68,5.6-.17,1.46-.32,2.92-.42,3.85ZM82.61,94.33c-1.78-.19-2.22-.06-2.84,1.46-1.03,2.55-2.08,5.12-2.81,7.77-.98,3.57-1.67,7.21-2.46,10.83-.21.95-.34,1.93-.48,2.89-.32,2.13-.67,4.26-.93,6.39-.25,2.09-.41,4.2-.63,6.57,1.07-.82,2.1-1.29,2.63-2.1,1.06-1.6,1.72-3.47,2.8-5.06.89-1.31,1.56-2.86,3.12-3.67.5-.26.82-.86,1.08-1.15,3.08-2.68,6.57-4.29,10.13-5.19-.32-1.47-.59-2.75-.87-4.03-.29-.18-.5-.51-.41-.66.87-1.44,1.76-2.87,2.73-4.24.35-.5.91-.85,1.37-1.27.09.1.17.2.26.3-.56.61-1.13,1.23-1.69,1.84q2.45-1.59.88-3.85c-.11-.16-.18-.35-.28-.52-.95-1.61-2.23-2.93-3.91-3.74-1.48-.71-2.89-1.52-4.68-1.56-.97-.02-1.91-1.14-3.07-.04.02-.41.04-.69.05-.97ZM143.62,85.9c.88-.59,1.73-1.15,2.6-1.74-1.19-.88-3.47-1.32-3.97-.6-.64.92-.94,2.09-1.38,3.14.18.02.42.06.67.09.01.09.02.19.03.28-.5.16-1.01.32-1.75.56.67-1.52,1.22-2.79,1.87-4.29-.56.13-.83.18-1.08.26-1.52.48-3.03.99-4.56,1.43-1.28.37-1.65.13-2.11-1.1-.13-.35-.37-.77-.68-.94-.73-.4-1.6-.57-2.31-1.01-1.83-1.15-3.6-2.39-5.65-3.77.5,1.17.95,2.15-.39,2.62.17.35.32.65.48.96-.94.53-1.85.93-2.63,1.5-1.84,1.34-1.85.65-1.09,3.02.02.05-.06.13-.21.44-.5-.44-.96-.84-1.41-1.23-.22.26-.48.56-.91,1.07-.18-1.08-.31-1.84-.43-2.6-2.19.33-3.02,2-2.16,3.83.76,1.63,2.05,2.33,3.61,2.83.5.16.99.68,1.42.62,1.01-.15,1.98-.55,3.3-.95-1.1-.89-2.05-1.67-3.05-2.48,1.53-1.4,3.32-.67,4.93-.22.4-1.05.77-2.06,1.25-3.33,1.28,1.4,2.25,2.47,3.13,3.43.73-.34,1.29-.72,1.91-.88,1.39-.36,2.63.91,4.06.49.05-.02.18.06.2.11.28,1.16,1.49,1.24,2.21,1.9.62.57,1.45.91,2.18,1.36.07-.07.14-.14.21-.22-.34-.87-.68-1.73-1.02-2.6.13-.05.25-.09.38-.14.29.61.7,1.2.84,1.84.23,1.07.75,1.71,1.85,1.88.21.03.37.32.59.37.4.11.91.31,1.23.17,1.05-.45,2.04-1.04,3.2-1.66-1.39-.46-2.77-.91-4.26-1.4.79-.63,1.59-1.27,2.4-1.91,0-.14.02-.28.02-.42-1.13-.22-2.26-.44-3.52-.69ZM98.1,85.85c.15,4.01.32,8.26.47,12.44,2.68-3.14,4.42-7.4,9.33-7.66.23-1.27.43-2.38.63-3.5.12-.65.03-1.45.39-1.92.34-.45,1.14-.55,1.7-.79-2.21-1.99-4.63-3.69-7.9-3.62-2.65.05-2.75.11-2.62,2.7-.21-.32-.42-.64-.74-1.12.08,1.25.15,2.32.23,3.54-.4-.02-.98-.05-1.49-.08ZM138.27,151.28c-1.14-.08-2.15-.22-3.17-.23-3.4-.02-6.79-.05-10.19.02-1.89.04-3.77.34-5.65.44-2.5.13-5,.13-7.5.26-4.31.21-8.61.48-12.91.73-.11,0-.22.06-.31.09-.06.35-.11.68-.15.93,1.7.38,3.57.41,5,1.22,1.54.88,2.93.64,4.28.28,2.96-.79,5.97-.96,8.99-1.08,2.55-.09,5.11-.08,7.66,0,3.92.11,7.84.32,11.76.44.32.01.8-.2.95-.46.46-.8.8-1.68,1.24-2.63ZM131.5,50.12c-.42-1.98-.78-3.78-1.2-5.55-.05-.19-.5-.41-.75-.4-1.8.12-3.61.26-5.4.49-.29.04-.73.62-.71.94.07,1.29.24,2.57.49,3.84.06.28.59.65.91.65,2.11.06,4.21.03,6.66.03ZM169.91,85.73c.29,1.46.54,2.6.72,3.74.17,1.09.24,2.19.34,3.08,2.45.11,4.87.21,7.35.32-.08-.96-.08-2.12-.32-3.22-.11-.52-.59-1.17-1.07-1.36-2.25-.91-4.56-1.69-7.02-2.57ZM83.54,117.51c-.82,1.53.53,2.13.89,3.03.39.96,1,1.84,1.49,2.77.51.96.98,1.95,1.5,2.9.49.88,1.23,1.65,1.41,2.67-.12.06-.24.12-.37.19-1.97-3.49-3.94-6.97-5.9-10.46-.17.09-.34.18-.52.27,1.89,3.56,3.79,7.12,5.68,10.67-.16.08-.31.16-.47.24l-4.36-8.14c-.28,1.26-.22,2.26.55,3.34,1.21,1.71,1.78,3.85,3.73,5.38-1.8.16-1.89-1.24-2.44-2.03-.65-.94-1.16-1.98-1.77-3.04-.48,1.75.76,2.71,1.42,3.93.39.72,1.22,1.35.97,2.69-.79-1.31-1.41-2.32-2.03-3.34-.06.03-.11.07-.17.1.47,1.12.94,2.25,1.49,3.57,1.75-.88,3.55-1.78,5.34-2.68-2.15-4.01-4.24-7.9-6.46-12.05ZM114.07,100.95c-.51.95-.14,1.73.47,2.53,1.79,2.35,3.53,4.75,5.29,7.12,1.1,1.49,2.21,2.98,3.31,4.48l.27-.16c.13-1.16.26-2.32.35-3.14-.9-1.26-1.68-2.34-2.42-3.38-.67.58-.42,1.11.13,1.79.76.94,1.34,2.03,1.99,3.05-.11.07-.21.14-.32.21-3.02-4.16-6.03-8.31-9.07-12.5ZM124.82,51.25c1.04,2.11,2.02,4.05,2.96,6.02.94,1.97,1.84,3.97,2.86,6.17.45-1.7.79-2.94-.21-4.46-1.18-1.8-1.94-3.93-2.56-6.01-.54-1.82-1.36-2.78-3.33-2.38-.09.02-.2-.05-.46-.12.1.54.18.98.28,1.56.21-.36.32-.54.46-.78ZM122.9,116.74l.4-.16c-.22-.48-.37-1.01-.68-1.42-.79-1.03-1.71-1.96-2.47-3.01-1.61-2.24-3.13-4.54-4.73-6.79-.43-.6-.97-1.12-1.45-1.68-.1.06-.19.12-.29.18.26.57.53,1.15.8,1.74-.32.14-.69.31-1.06.47.57.96,1.11,1.85,1.68,2.81.35-.63.63-1.12.93-1.66.01,0,.15.03.21.11,1.03,1.49,1.37,3.38,3.08,4.51.85.56,1.32,1.72,1.92,2.63.19.3.24.7.41,1.26.29.23.78.62,1.26,1.01ZM153.49,82.44c.63-1.37-6.13-18.16-7.41-19.07.06.3.06.58.16.81.83,1.83,1.76,3.62,2.51,5.48.48,1.19.62,2.51,1.05,3.73.56,1.57,1.28,3.09,1.91,4.64.6,1.47,1.18,2.94,1.77,4.42ZM124.91,67.15s-.08.04-.11.06c.34,1.27.53,2.6,1.05,3.79,1.25,2.86,2.64,5.65,3.99,8.46.26.55.5,1.15.9,1.58.65.69,1.3,1.48,2.61,1.41-.28-.46-.43-.83-.69-1.1-.7-.75-1.64-1.35-2.13-2.21-.99-1.76-1.73-3.66-2.58-5.49-1.01-2.17-2.03-4.33-3.05-6.49ZM130.93,54.37c-.1.07-.21.13-.31.2-.33-.58-.77-1.13-.96-1.76-.21-.68-.19-1.42-.27-2.17h-1.62c1.18,2.33,2.38,4.68,3.57,7.03-.14.07-.28.15-.42.22-.45-.81-.89-1.63-1.34-2.44-.08.04-.16.08-.24.12.61,1.26,1.22,2.53,1.82,3.79.1-.03.2-.06.3-.1v-8.62h-.95c.2.7.4,1.36.59,2.02-.11.04-.21.07-.32.11-.25-.5-.5-1-.75-1.5-.11.05-.21.1-.32.15.41.98.82,1.97,1.23,2.95ZM101.69,79.4c-.08.07-.16.13-.24.2-.41-.49-.82-.97-1.31-1.56-.12.9-.23,1.68-.34,2.47,1.46-.09,2.84-.18,4.35-.28-.25-2.87-2.61-4.67-3.65-7.4-.34,2.99,1.69,4.76,2.79,6.9-.12.07-.24.15-.35.22-.74-1.08-1.48-2.16-2.22-3.24-.09.05-.18.1-.28.15.42.84.84,1.68,1.26,2.53ZM94.02,126.6c.53-.74.44-1.06-.11-1.82-.88-1.22-1.84-2.42-2.51-3.75-1-2-1.79-4.1-2.66-6.16-.12-.03-.25-.05-.37-.08-.07.31-.29.68-.2.93.49,1.27,1.01,2.52,1.61,3.74.77,1.56,1.6,3.1,2.48,4.61.49.85,1.12,1.62,1.77,2.53ZM153.81,76.61c.12-.05.25-.1.37-.15-1.3-5.04-2.98-9.93-5.91-14.33-.1.41-.08.79.07,1.11.66,1.46,1.37,2.9,2.03,4.37.43.97.82,1.95,1.2,2.95.76,2.01,1.5,4.04,2.24,6.05ZM104.04,121.31c.26,2.72,4.69,8.81,6.66,9.2-2.34-3.23-4.5-6.22-6.66-9.2ZM137.59,70.32c-.83,1.13.65,1.64.37,2.66-.45-.6-.9-1.21-1.4-1.88-.69,1.02.29,1.66.66,2.42-.09.08-.18.15-.27.23-.42-.54-.85-1.08-1.27-1.62-.61.92.1,1.61.46,2.35,1.42-.77,2.78-1.52,4.13-2.25-.46-.85-.97-1.79-1.63-3.02-.63,1.44.58,2.04.71,2.91-.09.07-.18.14-.28.2-.47-.64-.94-1.29-1.46-2.01ZM124.97,61.07c-.74,1.87.43,3.09,1.06,4.5.63,1.4,1.18,2.84,1.77,4.27.12,0,.24,0,.36-.01.32-.65.64-1.3.96-1.95-.14.05-.28.09-.41.14-.36-.27-.87-.47-1.04-.84-.94-2.01-1.8-4.07-2.69-6.11ZM135.09,141.1c.14-.08.28-.17.42-.25,1.23,2.08,2.46,4.16,3.84,6.49.34-.68.5-1,.63-1.25-.5-.38-1.02-.6-1.27-.99-.77-1.22-1.53-2.47-2.1-3.78-.5-1.16-1.16-1.63-2.61-1.06.88,1.44,1.74,2.84,2.6,4.23.12-.06.23-.13.35-.19-.62-1.07-1.23-2.13-1.85-3.2ZM150.99,70.68c-.25.38-.45.55-.41.64,1.23,3.37,2.49,6.74,3.83,10.34.2-.52.44-.82.37-1.01-1.2-3.23-2.44-6.44-3.78-9.97ZM178.48,89.43c.11.77.25,1.54.31,2.32.13,1.73.18,1.79,2.15,1.9-.04-1.81-.92-3.15-2.46-4.21ZM125.11,54.48c-.17.09-.34.18-.51.27,1.71,3.64,3.43,7.28,5.14,10.92.13-.06.26-.12.39-.18-1.68-3.67-3.35-7.34-5.03-11.01ZM139.67,143.18c-1.71-.21-1.58-2.25-2.98-3.01q2.31,4.72,3.31,4.91c.59-2.29-.43-4.46-2.12-4.45.6.86,1.2,1.71,1.79,2.56ZM150.62,70.78c.15-.07.31-.15.46-.22-1.21-2.62-2.42-5.23-3.62-7.83-.26.06-.57.12-.73.16,1.29,2.62,2.59,5.26,3.89,7.9ZM86.8,94.74c-.85-1.43-1.71-2.86-2.57-4.31-.91,1.24.47,3.86,2.57,4.31ZM141.57,49.76c1.11,3.16,2.37,4.56,4.61,4.8-1.92-1.14-3.07-2.55-3.64-4.42-.05-.16-.49-.2-.96-.38ZM94.06,63.89c-.08.1-.16.19-.24.29-.51-.5-1.02-.99-1.57-1.53-.15.28-.28.54-.44.85,1.27.61,2.49,1.21,3.89,1.89-.87-1.35-1.65-2.56-2.55-3.96-.58,1.33.5,1.76.91,2.46ZM112.18,107.03c.8,1.22,1.55,2.38,2.44,3.75.54-2.05-1.23-2.92-1.55-4.34-.01-.04-.09-.07-.2-.16-.21.23-.43.46-.69.75ZM127.99,70.37c.04.13.05.28.13.38.59.68,1.21,1.33,1.79,2.02.2.23.33.52.49.77.19-.16.35-.29.48-.41.36.79.68,1.5,1.13,2.47.23-3.19-2.76-3.51-4.02-5.23ZM115.06,95.38c-.09-.09-.17-.18-.26-.27-.96.49-1.91.97-2.87,1.46.04.09.08.18.13.27.77.11,1.53.22,2.3.33.26-.67.48-1.23.69-1.78ZM156.32,59.66c-.1.06-.2.13-.29.19-.25-.41-.48-.82-.75-1.21-.06-.09-.24-.08-.37-.12,0,.09-.05.19-.02.26.35.72.71,1.43,1.08,2.19.5-.4.86-.68,1.21-.96-.47-.86-.92-1.7-1.37-2.53-.1.04-.21.08-.31.12.27.69.54,1.39.82,2.08ZM144.58,51.26c-.08.06-.17.11-.25.17-.34-.52-.69-1.03-1.03-1.55-.08.06-.16.12-.24.18.35.71.71,1.42,1.13,2.28.6-.76,1.13-1.42,1.72-2.16-.64-.05-1.1-.09-1.7-.14.14.44.26.83.38,1.21ZM106.24,91.96c-.08.06-.16.12-.24.18.52.91,1.04,1.81,1.56,2.72.08-.04.15-.08.23-.12v-1.68c-.56-.39-1.06-.74-1.55-1.09ZM134.26,73.87c-.15.01-.3.03-.45.04v2.67c.6-.54.98-.88,1.36-1.22-.32-.52-.61-1.01-.91-1.49ZM109.4,114.82c.06-.11.11-.21.17-.32-.53-.65-1.06-1.3-1.59-1.96-.24.5-.37,1.12-.12,1.4.37.42,1.01.59,1.54.87ZM127.07,69.75c-.12.06-.24.12-.36.18.82,1.58,1.63,3.16,2.45,4.74l.26-.13c-.78-1.6-1.57-3.2-2.35-4.8ZM141.46,52.57c-.53-1.07-.94-1.88-1.34-2.7-.1,0-.21,0-.31,0-.06.26-.25.63-.15.77.5.63.52,1.73,1.8,1.93ZM124.86,64.39c-.13.07-.25.14-.38.21.62,1.36,1.24,2.71,1.86,4.07.12-.05.23-.1.35-.15-.61-1.38-1.22-2.75-1.84-4.13ZM124.74,58.49l-.33.14c.52,1.22,1.04,2.44,1.56,3.65.13-.06.26-.11.4-.17-.54-1.21-1.09-2.41-1.63-3.62ZM148.75,93c-.37-.55-.71-1.05-1.09-1.61-.45.31-.87.6-1.43,1,1,.24,1.74.42,2.52.61ZM84.78,152.95c.65.82.78,2.58,2.51,1.77-.85-.6-1.68-1.18-2.51-1.77ZM153.74,59.79c-.74,1.02-.65,1.39.51,2.08.76-.93-.26-1.4-.51-2.08ZM98.86,82.07c-.13,0-.27.01-.4.02.16,1.09-.3,2.22.4,3.47v-3.49ZM108.15,115c-.4-.35-.79-.69-1.18-1.03-.2.55-.38,1.02-.64,1.73.76-.29,1.28-.49,1.83-.69ZM84.85,94.47c-.48-.7-.86-1.27-1.44-2.11v1.76c.43.1.83.2,1.44.35ZM153.8,62.27c-.66-.51-1.11-.86-1.56-1.21.06.92.15,1.84,1.56,1.21ZM150.01,75.96c.09-.06.18-.11.27-.17-.34-.75-.68-1.5-1.02-2.25-.12.06-.24.11-.36.17.37.75.74,1.5,1.11,2.25ZM107.9,91.13c-.39.14-.72.26-1.09.4.32.4.56.7.92,1.15.07-.67.12-1.04.17-1.55ZM146.83,88.01c-.34.28-.62.52-1.06.87.67.06,1.11.09,1.64.14-.21-.36-.38-.65-.59-1.01ZM152.08,63.22c.08-.06.16-.12.24-.19-.34-.48-.67-.96-1.01-1.43-.08.06-.16.12-.24.18.34.48.67.96,1.01,1.44ZM82.39,93.76c.1.02.2.03.29.05.08-.56.16-1.13.24-1.69-.07-.01-.13-.02-.2-.03l-.34,1.67ZM94.45,62.43c.08-.05.16-.09.25-.14-.28-.43-.56-.87-.84-1.3l-.23.14c.27.44.55.87.82,1.3ZM127.3,144.21c.11,0,.21-.02.32-.02-.04-.36-.08-.72-.12-1.08l-.19.02v1.08ZM89.72,85.59c-.07.04-.15.08-.22.11.2.33.4.65.6.98l.2-.12-.57-.98ZM82.7,130.08c-.06-.1-.11-.2-.17-.29-.2.12-.41.25-.61.37.05.09.1.18.15.27.21-.12.42-.23.63-.35ZM123.48,82.12c-.06-.07-.12-.13-.18-.2-.26.21-.51.42-.77.63.05.06.1.13.15.19.27-.21.53-.42.8-.62ZM139.99,141.72c.09-.09.17-.18.26-.26l-.54-.53c-.08.08-.17.17-.25.25.18.18.35.36.53.54ZM88.56,83.73c-.09.1-.19.2-.28.3.26.15.53.3,1.01.57-.34-.41-.54-.64-.73-.87ZM102.99,94.04c-.08.03-.16.07-.24.1.1.24.2.48.31.71.08-.03.16-.07.24-.1-.1-.24-.2-.48-.31-.71ZM154.57,60.11c.07-.02.15-.05.22-.07-.11-.29-.22-.58-.33-.87l-.16.05c.09.3.18.59.27.89ZM134.9,73.2c-.08.04-.15.07-.23.11.11.2.23.41.34.61.05-.02.1-.05.15-.07l-.26-.65ZM128.16,66.47c-.06.03-.12.06-.19.09.1.21.21.42.31.64.06-.03.12-.05.18-.08-.1-.21-.2-.43-.3-.64ZM125.23,53.37c-.06.05-.13.1-.19.15.12.2.23.39.35.59.06-.03.12-.07.18-.1-.11-.21-.22-.43-.34-.64ZM143.2,113.2c-.11.02-.22.04-.33.05.08.2.16.39.24.59l.15-.04-.06-.6ZM155.36,60.81l-.3-.02c.01.17.02.35.04.52.05,0,.11.01.16.02l.1-.51ZM157.04,58.71s.09-.05.14-.08c-.09-.18-.19-.35-.28-.53-.06.03-.11.06-.17.09.1.17.2.34.31.51ZM131.3,44.87c.04-.05.08-.1.12-.16-.16-.09-.32-.18-.48-.27-.02.07-.08.19-.06.2.13.09.28.15.43.22ZM104.05,120.8s.09-.05.14-.08c-.09-.18-.19-.35-.28-.53l-.17.09c.1.17.2.34.31.51ZM127.53,65.76s.06,0,.09,0v-.54s-.06,0-.09,0v.54ZM127.31,58.13s.1-.02.14-.03c-.02-.13-.05-.25-.07-.38-.04,0-.09.02-.13.02.02.13.04.25.06.38ZM149.17,56.79s.07-.06.11-.09c-.09-.11-.18-.22-.27-.33l-.12.1c.1.1.19.21.29.31ZM148.28,55.5c-.09-.09-.17-.17-.26-.24,0,0-.12.11-.12.12.05.08.12.17.2.22.02.02.11-.06.18-.1ZM124.61,53.21c-.08-.01-.15-.02-.23-.04.03.13.06.27.09.4.05-.12.09-.24.14-.37ZM93.67,91.57c-.07-.06-.14-.14-.23-.17-.04-.02-.11.06-.17.09.08.08.16.17.24.25.04-.04.08-.09.16-.17ZM83.68,87.86s.1-.02.14-.03c-.02-.13-.05-.25-.07-.38-.04,0-.09.02-.13.02.02.13.04.25.06.38ZM136.25,43.97s.02.1.03.14l.38-.07s-.02-.09-.02-.13c-.13.02-.25.04-.38.06ZM139.13,147.86c.09-.09.17-.17.24-.26,0,0-.11-.12-.12-.12-.08.05-.17.12-.22.2-.02.02.06.11.1.18ZM145.27,85.47s.06.07.09.11c.11-.09.22-.18.33-.27-.03-.04-.07-.08-.1-.12l-.31.29ZM104.46,119.89c.07-.07.13-.14.2-.2-.13-.03-.27-.06-.4-.09.07.1.14.2.21.29ZM129.71,75.87s.1-.02.14-.03c-.02-.13-.05-.25-.07-.38-.04,0-.09.02-.13.02.02.13.04.25.06.38ZM91.56,61.74s.06.07.09.11c.11-.09.22-.18.33-.27-.03-.04-.07-.08-.1-.12l-.31.29ZM129.1,61.28s-.09,0-.14.01c.01.14.02.28.03.42.05,0,.09,0,.14,0,0-.14-.02-.28-.03-.42ZM83.84,86.59c.08.01.15.02.23.04-.03-.13-.06-.27-.09-.4l-.14.37ZM82.9,132.61c-.05-.08-.1-.15-.15-.23-.11.09-.22.18-.34.26.05.06.1.12.14.18.11-.07.23-.14.34-.21Z"/>
  <path d="M135.89,133.75l-.29.29c-1.21,1.07-1.91,2.44-2.36,3.97-.09.3-.28.56-.43.84.38-3.02,1-5.91,1.62-8.79.39-1.79,1.09-3.57,1.13-5.37.11-4.01-.08-8.04-.21-12.05-.02-.71-.38-1.39-1.37-1,.28,1.09.55,2.12.82,3.15-.12.05-.24.1-.36.16-.44-1.22-.87-2.45-1.38-3.87-.14.19-.09.05,0,0,1.68-.83,2.16-2.14,1.58-3.88-.07-.2-.31-.34-.47-.51l.03.03c.11-.81.22-1.62.33-2.43.17-.05.35-.1.52-.14.82.91,1.71,1.78,2.45,2.75.6.78.27,1.59-.45,1.98-1,.55-1.92,1.25-2.88,1.88,1.28.22,1.65.95,1.68,1.92.1,3.06.18,6.11.24,9.17.02,1.12.15,2.26-.05,3.34-.62,3.24-1.37,6.45-2.03,9.47,2.08-1.88,4.18-3.95,6.46-5.78,1.45-1.16,3.14-2.04,4.8-2.92,2.4-1.28,4.83-2.54,7.33-3.63.87-.38,1.5-.57,1.2-1.73.71,1.19,1.42,2.39,2.24,3.76.22-.58-.44-1.39.59-.99.06-.15.11-.3.17-.44l-.03.03c.15-.25.31-.5.39-.64-.89-1.13-1.7-2.17-2.46-3.15-.2.25-.41.51-.64.8-.1-.7,0-1.52-.28-1.69-1.4-.82-2.89-1.47-4.5-2.24-.89,1.68-1.77,3.36-2.66,5.04-.12-.08-.23-.17-.35-.25,1.82-4.49,4.39-8.42,8.67-11.09-.48.11-.96.22-1.44.34-.01-.05-.03-.11-.04-.16.97-.7,1.93-1.39,2.9-2.09-.04-.06-.07-.13-.11-.19-.66.28-1.32.55-1.98.83.32-.67.16-1.85,1.46-1.15-1.18-1.81-2.8-.78-4.36-.9,1.36-.93,2.52-1.72,3.67-2.51l-.2-.29c-.52.32-1.05.65-1.57.97-.03-.05-.07-.11-.1-.16,1.67-1.82,3.34-3.63,5.06-5.5-.81-.66-1.47-1.2-2.22-1.81h.95l-.03-.03c.81.82,1.63,1.63,2.44,2.45.15-.19.35-.46.62-.81.45.45.86.86,1.26,1.27,0,0,.03-.03.03-.03-.37-.11-.74-.23-1.14-.35-1.49,1.31-2.3,3.59-5.1,3.72.52.2.71.28,1.16.46-.88.66-1.62,1.22-2.57,1.92,1.98-.19,2.89,1.17,3.74,2.31.88,1.18,1.77,2.64,1.89,4.04.2,2.33.12,4.8-.47,7.05-.65,2.47-1.99,4.77-3.05,7.13-.44.99-.97,1.95-1.39,2.95-.88,2.11-1.72,4.25-2.7,6.68.83-.46,1.42-.86,2.06-1.14,3.21-1.37,6.4-2.78,9.65-4.04,2.17-.85,4.4-1.56,6.65-2.17,1.26-.34,2.61-.45,3.92-.47.96-.02,1.34-.41,1.23-1.26-.36-2.68-.71-5.36-1.18-8.02-.28-1.57-.73-3.11-1.22-4.63-.32-.99-.61-2.19-1.33-2.81-1.48-1.25-3.25-2.17-4.89-3.23l.03.03c-.27-.1-.53-.2-.79-.3-.51,1.24.3,2.59-.69,3.84v-4.71c-.14,0-.29,0-.43,0v4.22c-.16,0-.33,0-.49,0,0-1.42,0-2.84,0-4.26,0-.26-.08-.58.04-.77.12-.18.45-.21.69-.31.38,1.33,1.67,1.53,2.64,2.11,1.16.69,2.42,1.22,3.55,1.95.67.43,1.18,1.12,1.75,1.71,2.55,2.59,4.45,5.58,5.22,9.15.52,2.4.85,4.84,1.2,7.27.21,1.45-.42,3.03.67,4.35l.03-.04c-.79.48-1.07.01-1.17-.66-.06-.47,0-.96-.02-1.44-.08-1.62-.16-3.24-.4-4.88-.52,2.68-.95,5.39-1.6,8.04-.65,2.68-1.4,5.34-2.32,7.93-.88,2.47-2.04,4.84-3.07,7.26-.1-.01-.21-.02-.31-.03-.18-.48-.36-.96-.66-1.76.47.43.66.61.99.92.16-.91.24-1.68.44-2.41.08-.28.43-.47.65-.71.18-.19.42-.35.5-.58.79-2.15,1.62-4.29,2.3-6.48.47-1.52.74-3.11,1.07-4.67.38-1.79.69-3.6,1.11-5.38.92-3.84.18-8.44-1.99-11.46-.05,1.03-.09,1.93-.13,2.82-.08,0-.17.01-.25.02-.15-.71-.3-1.42-.44-2.13-.15.02-.3.05-.44.07.17.89.35,1.79.49,2.69.25,1.59.18,3.3.79,4.73.72,1.69,0,3.09-.16,4.63-1.68-.54-3.37-.71-4.99.12-.38.2-.8.63-.89,1.03-.69,2.92-1.21,5.89-1.98,8.78-.43,1.64-1.22,3.18-1.88,4.76-.4.97-.88,1.9-1.29,2.87-.29.68-.34,1.32-.23,2.14.21,1.67-.08,3.39-.13,5.1-.03,1.23,0,2.46,0,3.71,2.11.32,4.02.24,5.6-1.44-.78.67-.87,1.7-2.03,2.16-1.12.44-2.17.54-3.3.63-.26.02-.58.34-.72.6-.2.37-.26.81-.36,1.17-1.31-.2-2.56-.55-3.82-.55-1.18,0-2.55-.57-3.39.48-.48-.12-.86-.27-1.25-.3-2.64-.17-5.35,0-7.9-.55-2.24-.49-4.31-1.76-6.42-2.75-.86-.4-1.62-.57-2.36.18-.18-.92.5-1.42,1.54-1,1.63.65,3.23,1.36,4.8,2.15,3.31,1.68,6.79,1.61,10.37,1.34,2.4-.18,4.84.07,7.25.28.77.07,1.01.03.95-.76-.04-.44.04-.9.11-1.34.12-.77.36-1.52.41-2.3.13-2.1.18-4.21.25-6.32,0-.16.06-.36-.01-.47-.84-1.35-.72-3.01-1.43-4.38-1.29-2.48-1.63-5.5-4.09-7.33-.22-.16-.35-1.7-.38-1.96-.05-.4-.27-.79-.44-1.22-2.96,1.26-5.88,2.31-7.5,5.33-.12-.12-.24-.24-.36-.35.43-.73.94-1.42,1.28-2.19.68-1.53,1.32-3.09,1.85-4.67.13-.39-.08-1.02-.34-1.4-.99-1.48-1.9-3.11-3.99-3.25-.25-1.09-1.34-1.18-2.23-.37.65.1,1.45.22,2.26.34-2.21.03-3.88,1.25-5.45,2.59-.85.72-1.55,1.61-2.34,2.4-.14.14-.4.16-.79,0,1.69-1.59,3.39-3.17,4.97-4.66-1.45.21-2.35.75-4.43,2.77-.67.65-1.3,1.36-2.01,1.97-.31.27-.81.29-1.17.52-.43.28-.8.67-1.2,1.01ZM157.26,119.12c-.14-.11-.29-.21-.43-.32-.03.07-.05.14-.08.21.18.03.36.05.55.08.16.46.33.92.49,1.38-.92-.93-1.87-1.82-2.74-2.79-1.25-1.39-2.45-2.84-3.65-4.25-.75.5-.82.92-.22,1.5.87.85,1.66,1.78,2.5,2.66.07.07.23.12.33.1.74-.13.86.44,1.15.91.64,1.02,1.36,1.99,2.05,2.97.1-.05.21-.09.31-.14.09-.33.17-.66.25-1,.38-1.11.76-2.21,1.19-3.48-.48.07-.67.1-.86.12-1.18-1.82-2.37-3.63-3.56-5.44-.01-.02-.11.01-.31.04,1.06,2.03,2.13,3.95,3.9,5.38-.53.29-.61.36-1.16-.36-1.25-1.63-2.41-3.33-3.67-5.08-.04.06-.29.31-.25.37,1.56,2.37,3.15,4.73,4.74,7.1-.09,0-.31.02-.53.04ZM157.76,109.49c.05.23.11.47.16.7l.25-.11-.44-.56c-.63-1.14-.91.28-1.51.3.53.59,1.07,1.19,1.6,1.78-.42.01-.83-.13-1.19-.35-.26-.16-.46-.43-.69-.65-.04-.18-.08-.35-.12-.53l-.4.26c.18.08.36.16.54.24.77,1.4,1.54,2.8,2.32,4.21-.2.06-.36.12-.61.19.35.53.66.99.96,1.44.09-.04.19-.09.28-.13-.46-1.98.96-4.38-1.5-5.94-.53-.34-.23-.74.33-.86ZM153.91,124.87c-.39-.72-.79-1.44-1.18-2.16-.13.1-.27.19-.4.29.54.61,1.08,1.23,1.61,1.84.15.41.29.81.49,1.38-.33-.19-.68-.28-.86-.52-.46-.61-.81-1.29-1.27-1.91-.17-.22-.5-.33-.75-.49-.02.33-.16.72-.04.98.21.45.58.83.9,1.23.56.7,1.14,1.4,1.7,2.1-.13.1-.26.21-.39.31-1.1-1.36-2.2-2.72-3.35-4.15-.07.05-.26.16-.36.23,1.2,1.63,2.35,3.18,3.49,4.73-.09.08-.17.17-.26.25-.44-.45-.92-.87-1.31-1.36-.58-.73-1.18-1.47-1.62-2.29-.68-1.27-1.45-.96-2.21-.38,2.76.88,3.72,3.47,5.17,5.67.31-.79.5-1.6.91-2.29,1.16-1.92,2.35-3.8.06-5.74-.09-.08-.17-.16-.26-.24-.73.61-.4,1.53.93,2.86-.34-.11-.68-.23-1.02-.34ZM162.98,131.6c-.33.11-.67.23-1.11.38,1.51,2.53,2.93,4.89,4.37,7.3-.2-.01-.39-.03-.58-.03-1.44-2.34-2.88-4.69-4.33-7.03-.23.09-.5.2-.84.33,1.39,2.16,2.71,4.24,4.09,6.27.18.26.73.27,1.11.4-.06.41-.12.82-.18,1.24-.09.06-.18.13-.27.19-.2-.27-.41-.54-.6-.82-1.4-2.08-2.77-4.16-4.19-6.22-.28-.41-.54-1.13-1.54-.44,2.04,2.99,4.07,5.95,6.11,8.93-.06.01-.29.11-.33.06-2.13-2.89-4.25-5.79-6.42-8.76-.05.02-.27.14-.38.2,2.35,3.49,4.7,6.97,6.98,10.36.66-1.57,1.45-3.33,2.12-5.13.21-.58.34-1.4.09-1.91-.54-1.1-1.38-2.07-2.05-3.11-.42-.65-.78-1.35-1.16-2.03.12-.07.24-.15.36-.22,1.07,1.64,2.14,3.29,3.32,5.1.19-.77.36-1.24.41-1.73.02-.2-.13-.55-.29-.63-1.33-.61-1.69-1.8-1.88-3.16.68.98,1.37,1.96,2.05,2.94.11-.06.23-.13.34-.19.16-.86.32-1.72.46-2.49-.38-.42-.72-.8-1.06-1.17.08-.08.16-.16.24-.24.26.19.52.38.85.63.12-.43.22-.82.44-1.61-2.28.97-4.22,1.8-6.15,2.63,0,0,.03-.03.03-.03ZM163.56,146.51c.63-.64,1.06-1.39.53-2.33-1.1-1.93-2.23-3.84-3.37-5.75-.08-.14-.36-.15-.81-.33.47.65.82,1.04,1.04,1.48.23.44.27.99.51,1.42.2.37.53.7.87.95.76.54,1.41,2.16,1.06,2.85-.17-.33-.34-.65-.51-.97-.07.03-.14.06-.21.09.3.87.59,1.74.88,2.59ZM156.13,118.12c.08-.06.16-.11.24-.17-1.29-1.85-2.59-3.7-3.88-5.55-.11.02-.23.04-.34.07-.02.32-.18.77-.02.95,1.3,1.59,2.67,3.14,4.01,4.7ZM135.39,105.01c-.15.02-.3.05-.45.07-.46,1.37.56,2.55.47,3.98.75-.55,1.33-.97,1.91-1.39-.04-.09-.08-.18-.12-.27-.4.14-.81.27-1.51.5-.1-.98-.2-1.93-.29-2.89ZM152.4,117.12c.05-.09.09-.18.14-.26-.75-.68-1.51-1.37-2.33-2.12-.18.38-.31.64-.44.92.92.51,1.78.99,2.63,1.46ZM154.61,110.78c.82,1.14,1.61,2.24,2.4,3.33.05-.04.11-.08.16-.12-.68-1.22-1.37-2.45-2.1-3.75-.2.23-.37.42-.46.53ZM174.04,113.76c-.11.01-.23.02-.34.04.08.81.17,1.63.25,2.44.03-.01.06-.02.09-.03v-2.44ZM159.64,137.6c.07-.07.15-.14.22-.21-.44-.58-.89-1.16-1.33-1.74-.11.09-.22.19-.33.28.48.56.97,1.11,1.45,1.67ZM155.79,108.82c.08.11.16.23.24.34.38-.19.76-.39,1.14-.58l-.14-.3-1.23.54ZM164.24,158.06v.11h1.82v-.11h-1.82ZM172.66,112.62c.06.08.27.39.49.71.1-.07.2-.15.3-.22-.33-.2-.66-.41-.79-.49ZM146.63,125.54c0,.1.01.2.02.3h1.02c0-.08,0-.15.01-.23-.35-.02-.7-.05-1.05-.07ZM158.39,100.45c.05.04.1.08.16.12.09-.16.18-.32.27-.48-.07-.02-.19-.08-.2-.06-.09.13-.15.28-.22.43Z"/>
  <path d="M53,36.85c-2.1.41-3.96,1.32-5.64,2.65-1.96,1.57-4,3.04-5.93,4.66-1.34,1.12-2.53,2.42-3.78,3.64-.61.6-1.29,1.15-1.82,1.81-2.04,2.54-4.01,5.14-6.04,7.68-3.71,4.65-6.75,9.72-9.28,15.07-1.21,2.57-1.99,5.33-3.11,7.95-1.58,3.69-2.27,7.62-3.15,11.48-.48,2.13-.73,4.34-.87,6.53-.25,4-.55,8.01-.44,12,.09,3.28.6,6.58,1.2,9.82.58,3.18,1.28,6.37,2.34,9.41,1.25,3.57,2.65,7.15,4.51,10.43,2.23,3.91,5.23,7.32,9.79,8.67,1.9.56,3.94.64,5.93.94-.16.07-.38.25-.6.25-2.6-.03-5.23-.08-7.54-1.48-2.35-1.43-4.38-3.19-6.14-5.36-3.15-3.9-4.78-8.51-6.43-13.1-1.42-3.95-2.07-8.08-2.72-12.22-.6-3.8-1.14-7.61-.86-11.43.26-3.45.41-6.92.75-10.37.43-4.43,1.81-8.57,2.65-12.87.46-2.38,1.6-4.64,2.57-6.9,1.26-2.9,2.5-5.84,4.06-8.58,1.91-3.36,4.03-6.61,6.27-9.76,2.09-2.94,4.28-5.86,6.75-8.47,2.84-3,5.94-5.78,9.12-8.41,2.11-1.75,4.27-3.58,7.05-4.26.44-.11.91-.07,1.36-.1-.01.11-.02.22-.03.33Z"/>
  <path d="M188.39,77.67c.19-2.2,1.42-3.92,2.65-5.62.38-.53.88-.98,1.53-1.69.65,2.15-1.38,2.92-1.49,4.52.31-.4.53-.69.76-.98.12.07.25.14.37.2-.47.77-.87,1.58-1.42,2.28-.31.39-.86.58-1.31.87l-.28-.27c.82-1.54,1.63-3.08,2.45-4.61-.07-.05-.15-.09-.22-.14-.92,1.63-1.85,3.25-2.78,4.9,2.21.65,4.35,1.28,6.6,1.94.02-.13.08-.47.09-.8.09-6.91.18-13.82.23-20.73,0-1.14-.07-2.3-.26-3.42-.15-.88-.67-1.47-1.74-1.43-.49.02-.99-.36-1.5-.44-2.17-.33-4.36-.95-6.51-.83-3.15.17-6.33.66-9.39,1.44-3.3.84-6.49,2.16-9.72,3.29-1.1.38-2.18.81-3.28,1.2-1.27.45-1.86.25-2.44-.95-.5-1.03-.91-2.11-1.37-3.17.17.16.38.29.5.48.47.71.9,1.43,1.56,2.06-.03-.43-.07-.85-.1-1.28.11-.02.23-.04.34-.06.29.94.58,1.87.83,2.67,1.97-.77,3.87-1.51,5.96-2.32-.89-1.32-1.58-2.58-2.5-3.66-.88-1.04-1.98-1.9-2.96-2.81,3.94-3.61,7.68-7.49,13.17-8.62.06.11.12.21.17.32-.62.26-1.23.55-1.87.76-3.08,1.01-5.61,2.88-7.98,5.01-.59.53-1.17,1.06-1.78,1.56-.72.58-.76,1.21.02,1.78,1.95,1.42,2.95,3.53,4.08,5.34,2.84-.84,5.64-1.77,8.51-2.47,1.79-.44,3.69-.41,5.5-.8,3.51-.76,6.83.15,10.23.7,1.39.23,2.31.61,2.71,1.81.29.87.29,1.87.29,2.81.02,6.11.04,12.22,0,18.33-.02,2.45-.22,4.89-.59,7.44-.12-.33-.37-.68-.34-1,.11-1.39-.71-2.03-1.86-2.36-1.61-.46-3.24-.83-4.87-1.24Z"/>
  <path d="M155.44,16.33c-1.09-.8-2.18-1.59-3.28-2.39-.66-.48-1.37-.89-1.98-1.43-1.7-1.48-3.31-3.07-5.04-4.52-1.89-1.58-3.85-3.09-5.85-4.55-.32-.23-1.08-.16-1.47.07-2.69,1.58-4.28,4.09-5.51,6.85-1.25,2.78-1.78,5.74-1.94,8.77-.16,2.96-.28,5.93-.5,8.89-.07,1-.37,1.99-.58,3.11,3.91.69,5.62,4.1,8.06,6.81,2.56-10.32,9.64-16.3,19.15-20.06-.14.2-.24.48-.43.58-1.51.74-3.11,1.33-4.55,2.18-4.18,2.48-8.03,5.4-10.5,9.7-1.19,2.07-1.96,4.39-2.85,6.62-.18.45-.03,1.03-.03,1.62.33-.06.66-.12,1.09-.19-.07.25-.14.62-.17.62-.6-.08-1.38,0-1.74-.35-1.04-1.01-2-2.13-2.84-3.32-1.55-2.2-3.91-3.72-6.68-4.01-.01-.08-.05-.21-.04-.22,1.86-.68,1.38-2.43,1.58-3.77.21-1.37-.04-2.8.07-4.18.17-2.13.35-4.27.74-6.37.41-2.22.86-4.49,1.69-6.57,1.17-2.94,2.98-5.51,5.74-7.26.88-.56,1.62-.23,2.27.27,1.47,1.13,2.89,2.33,4.31,3.52,2.5,2.09,4.97,4.23,7.51,6.27.99.8,2.17,1.37,3.2,2.13.36.27.53.8.79,1.21l-.22-.03Z"/>
  <path d="M53.97,35.1c-.95-.1-1.9-.21-2.85-.3-1.53-.15-3.05-.36-4.58-.42-.42-.01-.95.35-1.28.68-1.26,1.3-2.46,2.65-3.67,3.99-1.39,1.54-2.8,3.08-4.16,4.64-3.17,3.63-6.36,7.23-9.45,10.93-.99,1.19-1.68,2.63-2.54,3.94-.65,1-1.42,1.93-2.02,2.95-1.38,2.32-2.75,4.65-4.03,7.03-1.92,3.58-3.83,7.16-5.6,10.81-.98,2.03-1.77,4.16-2.46,6.31-.79,2.44-1.47,4.93-2.01,7.44-.54,2.52-.87,5.1-1.21,7.66-.2,1.47-.26,2.96-.38,4.45-.11,0-.22.01-.33.02,0-1.29-.13-2.59.03-3.86.29-2.45.66-4.89,1.16-7.31.53-2.51,1.18-5.01,1.91-7.47.63-2.12,1.32-4.24,2.19-6.28.7-1.65,1.74-3.15,2.57-4.75,1-1.94,1.91-3.92,2.92-5.86,1.3-2.5,2.52-5.07,4.04-7.44,2.33-3.64,4.78-7.2,7.36-10.67,1.45-1.95,3.25-3.63,4.89-5.43,2.46-2.7,4.92-5.39,7.37-8.1.87-.96,1.72-1.95,2.52-2.98.91-1.17,2.12-1.42,3.49-1.26,1.91.23,3.82.48,5.73.73.16.02.31.18.46.28l-.05.26Z"/>
  <path d="M72.42,18.23c-2.67,4.2-5.73,16.19-6.75,20.19.67-.66,1.14-1.12,1.61-1.59,2.68-2.64,5.87-4.53,9.49-5.27,2.73-.56,5.61-.59,8.4.28,1.44.45,2.45,1.28,3.19,2.55.24.42.62.76.93,1.14-.05.09-.1.19-.15.28-.41-.32-.97-.56-1.19-.98-1.13-2.15-3.01-2.79-5.26-2.94-2.32-.16-4.66-.3-6.86.49-3.23,1.17-6.33,2.61-8.61,5.39-.72.87-1.75,1.49-2.79,2.34.13-.49.23-.87.34-1.24,1.08-3.71,2.07-7.44,3.28-11.11,1.02-3.07,2.25-6.07,3.49-9.06.28-.67.98-1.16,1.49-1.73.03.15.06.3.09.46.56.19,1.12.51,1.69.54,3.73.22,7.47.53,10.93,2.01,1.38.59,2.51,1.79,3.69,2.79.89.76,1.69,1.63,2.51,2.48.41.42.75.91.96,1.51-.61-.55-1.23-1.09-1.83-1.65-1.25-1.16-2.48-2.37-3.76-3.5-1.74-1.54-3.91-2.09-6.13-2.39-2.92-.39-5.86-.67-8.77-.99Z"/>
  <path d="M37.3,92.8c.17.15.47.29.49.46.19,1.76.25,3.54.53,5.29.26,1.65.73,3.26,1.12,4.89.65,2.73,1.28,5.46,1.99,8.17.56,2.13,1.25,4.23,1.85,6.22.48-1.86.77-3.86,1.51-5.68,1.4-3.45,3.21-6.76,5.95-9.31,1.69-1.58,3.8-2.75,5.82-3.94,1.63-.97,3.38-1.74,5.12-2.53.88-.4,1.82-.77,2.76-.89,1.04-.13.9-.67.88-1.4-.09-2.99-.14-5.98-.14-8.97,0-.41.38-.82.72-1.18-1.04,4.54-.51,8.97.7,13.38-.1.02-.21.05-.31.07-.29-.53-.58-1.05-.88-1.58-3.46.85-6.7,2.35-9.76,4.23-1.63,1-3.33,1.99-4.69,3.31-2.17,2.09-3.84,4.64-4.97,7.45-.76,1.9-1.32,3.88-1.88,5.85-.22.79-.17,1.66-.25,2.49-.17.05-.35.1-.52.15-.33-.71-.76-1.38-.97-2.12-.61-2.09-1.17-4.21-1.68-6.33-.76-3.15-1.39-6.33-2.2-9.46-.73-2.83-1.24-5.67-1.17-8.6l-.03.03Z"/>
  <path d="M19.12,145.59c-.52.17-.69.22-.87.28.95,1.37,2.08,2.49,3.8,2.77,3.59.57,7.19,1.12,10.79,1.67.5.08,1.02.1,1.52.15-.02.14-.03.29-.05.43-3.69-.57-7.38-1.15-11.31-1.76.22.56.32.81.42,1.05-.7.59-5.05-2.92-6.41-5.14.31-.03.57-.05.88-.08-7.6-11.27-10.58-23.86-11.17-37.14l.6-.14c-.06,6.81,1.35,13.33,3.17,19.85,1.82,6.53,4.54,12.54,8.64,18.09Z"/>
  <path d="M178.47,33.47c.71-.55,1.3-1.01,1.69-1.31.52.19.9.41,1.29.45,4.02.42,8.12.26,12.04,1.46,1.95.6,3.92,1.25,4.73,3.41.28.76.4,1.57.68,2.74.2-1.21.38-2.08.49-2.95.12-.94.18-1.89.25-2.83.17-2.06.34-4.11.5-6.17.09-1.21.16-2.42.22-3.63.09-1.96.18-3.91.23-5.87.02-.87-.14-1.67-1.42-1.51.93-.67,1.57-.58,1.67.35.2,1.88.25,3.79.21,5.69-.03,1.53-.28,3.05-.43,4.58-.4,4.08-.8,8.15-1.18,12.23-.04.43,0,.87,0,1.38-1.48-.41-1.18-1.68-1.41-2.58-.64-2.46-2.22-3.82-4.67-4.41-3.28-.79-6.58-1.12-9.94-1.17-.58,0-1.17-.21-1.75-.21-.8,0-1.69-.42-2.37.43-.08.1-.48-.04-.82-.08Z"/>
  <path d="M57.3,72.76c-.58-.19-1.16-.36-1.73-.57-3.04-1.15-6.04-2.46-9.15-3.41-1.35-.41-2.92-.14-4.38-.13-.63,0-1.25.1-1.88.19-.47.07-.94.19-1.23.25.12.86.24,1.51.29,2.17,0,.13-.26.28-.39.43-.1-.14-.27-.27-.29-.42-.27-1.95-.38-3.84.41-5.76,1.17-2.88,1.92-5.95,3.24-8.75,1.12-2.38,2.7-4.57,4.28-6.7.81-1.08,2.02-1.9,3.16-2.68.36-.24,1.07.03,1.63.27-2.75-.26-3.92,1.89-5.14,3.52-2.72,3.65-4.69,7.73-5.92,12.15-.47,1.67-1.03,3.31-1.59,5.08,2.06-.11,3.87-.2,5.68-.3,1.97-.11,3.79.44,5.59,1.2,2.36,1,4.75,1.93,7.13,2.89.14.06.25.17.37.25-.02.1-.05.21-.07.31Z"/>
  <path d="M28.94,82.62c-.03,3.26-1.15,4.29-3.85,4.58-1.26.13-3.01.3-3.77-1.23-.65-1.32-.89-2.83-.11-4.27.35-.65.7-1.3,1.04-1.95.52-.99,2-1.53,3.4-1.1,2.19.67,3.55,1.68,3.28,3.96ZM22.63,85.21c-.07-.35-.15-.7-.22-1.05l-.27.11c.17.31.34.61.51.92-.35.1-.7.2-1.02.29.36,1.1,1.27,1.04,2.2,1.11,2.7.18,3.92-.41,4.52-2.68.62-2.33-.34-4.14-2.58-4.49-.67-.1-1.4.1-2.1.2-1.03.15-1.82,1.58-1.44,2.5.32.78.62,1.57.84,2.39.05.18-.3.47-.46.7ZM21.69,83.23l-.11.05v1.32s.08,0,.11,0v-1.37Z"/>
  <path d="M51.16,49.22c.16.24.41.46.48.72.8,3.3,2.84,5.82,4.97,8.35,1.97,2.35,4.15,4.25,7.18,5.02.56.14,1.16.37,1.58.74.36.32.64.88.68,1.36.02.24-.54.61-.91.77-1.41.62-2.9,1.08-4.26,1.79-1.68.88-2.43,2.28-1.75,4.22.07.19-.04.44-.07.74-1.29-1.86-.77-4,1.23-5.26,1.19-.75,2.59-1.18,3.91-1.73.45-.19.94-.31,1.83-.6-.75-.58-1.18-1.05-1.71-1.29-1.27-.56-2.72-.83-3.87-1.56-1.36-.86-2.56-2.01-3.69-3.18-1.17-1.21-2.33-2.49-3.19-3.92-1.12-1.88-1.95-3.94-2.9-5.92l.5-.26Z"/>
  <path d="M37.33,92.77c-.38.45-.75.91-1.13,1.36-.15-.14-.3-.29-.45-.43.8-.86,1.51-1.82,2.42-2.54,2.2-1.76,4.4-3.55,6.77-5.06,2.07-1.31,4.3-2.45,6.59-3.32,2.97-1.12,6.08-.98,9.17-.26,1.14.27,2.29.46,3.43.7.17.04.31.19.46.29-.03.11-.06.22-.09.33-1.53-.33-3.06-.67-4.6-.98-3.22-.64-6.41-.62-9.38.97-3.02,1.62-6.04,3.25-8.91,5.11-1.6,1.04-2.88,2.56-4.3,3.86,0,0,.03-.03.03-.03Z"/>
  <path d="M174.13,26.38c1.14-1.7,2.09-3.58,3.46-5.07,2.87-3.1,6.34-5.39,10.51-6.41,3.13-.77,6.3-1.13,9.47-.24.81.23,1.73.46,1.91,1.87-2.07-2.05-4.45-1.96-6.77-1.85-3.29.15-6.41,1.01-9.28,2.68-2.92,1.7-5.52,3.71-7.13,6.8-.48.91-1.19,1.69-1.8,2.54-.12-.1-.25-.21-.37-.31Z"/>
  <path d="M230.36,94.15c-.72-.48-1.51-.9-2.16-1.47-1.93-1.7-3.67-3.65-5.74-5.16-2.74-2-5.72-3.68-9.21-4.08-1.21-.14-2.41-.46-3.62-.44-1.86.02-3.72.26-5.5.4.77-1.08,2.18-.82,3.33-.88,4.35-.23,8.55.54,12.39,2.65,1.57.86,3,1.99,4.41,3.12,2.12,1.7,4.16,3.5,6.22,5.26.05.04.04.14.06.22l-.18.37Z"/>
  <path d="M215.47,116.71c0-.38,0-.76,0-1.13,0-3.03-.08-6.07.02-9.1.09-2.66-.95-4.93-2.38-6.99-1.5-2.17-3.5-3.78-6.26-4.19-1.23-.18-2.43-.53-3.64-.83-.22-.05-.43-.21-.64-.32l.11-.28c1.4.32,2.78.72,4.19.95,4.87.79,7.02,4.4,8.78,8.41.24.55.29,1.23.3,1.85.03,3.63.02,7.26,0,10.89,0,.25-.07.5-.11.75-.13,0-.25,0-.38-.01Z"/>
  <path d="M179.93,132.42c1.26-2.19,2.55-4.36,3.77-6.57,1.41-2.56,2.71-5.18,4.16-7.71,1.3-2.27,2.73-4.46,4.11-6.68.43-.69.82-.58,1.23.04-1.44.48-1.99,1.78-2.62,2.86-2.13,3.63-4.13,7.35-6.16,11.04-1.56,2.83-3.08,5.68-4.65,8.51-.16.28-.49.47-.93.87-.04-.66-.06-1-.08-1.35l.34.17c.28-.41.56-.81.84-1.22,0,0-.03.04-.03.04Z"/>
  <path d="M231.03,94.76c-5.3,8.29-11.25,15.9-15.77,24.44.25-2.17,14.15-23.59,15.77-24.44Z"/>
  <path d="M36.61,127.37c.51,1.63,1.02,3.25,1.61,5.15-.49-.52-.84-.89-1.21-1.28q-.55.75.28,2.09-.39.08-1.63-1.91c-.26.24-.52.48-.77.72-.13-.02-.26-.03-.39-.05,1.54-1.6.11-2.87-.35-4.24.13-.05.26-.09.39-.14.3.62.56,1.26.92,1.85.19.31.54.53.82.78.1-.35.3-.71.29-1.06-.02-.63-.16-1.26-.25-1.9.09,0,.18-.01.27-.02Z"/>
  <path d="M203.27,84.55c-.27,3.76-.4,7.45-1.73,10.88-.2-.05-.4-.09-.6-.14.21-.71.44-1.41.64-2.12.24-.86.55-1.71.67-2.59.23-1.64.32-3.3.53-4.95.05-.38.32-.72.49-1.08Z"/>
  <path d="M94.51,25.86c-.56.98-.94,2.14-1.72,2.9-1.74,1.69-2.67,3.6-2.5,6.03,0,.06-.08.12-.46.2.04-.95-.17-2.01.19-2.82.58-1.31,1.54-2.45,2.32-3.67.6-.94,1.17-1.89,1.75-2.83.14.07.28.13.41.2Z"/>
  <path d="M178.46,36.05c-1.55-3.06-2.86-6.28-5.29-8.94.3.15.71.22.89.46.89,1.23,1.79,2.46,2.56,3.76.85,1.43,1.56,2.94,2.33,4.41-.16.1-.33.21-.49.31Z"/>
  <path d="M147.75,127.96c-.22.05-.44.1-.68.16.24.14.47.26.77.44-.74.37-1.4.7-2.06,1.02-1.08-.52-1.63.96-2.88.77,1.6-1.16,2.8-2.6,4.7-2.77.05.13.09.26.14.38Z"/>
  <path d="M171.4,149.66c-.29,1.02-.48,2.09-.91,3.06-.48,1.09-1.15,2.1-1.78,3.12-.12.2-.38.34-.61.46-.06.03-.22-.15-.33-.23.15-.19.32-.37.43-.58,1.02-1.93,2.03-3.87,3.04-5.81.05,0,.1-.01.15-.02Z"/>
  <path d="M78.09,148.29c-2.2.72-3.77,2.96-6.47,2.73,2.18-1.1,4.25-2.14,6.32-3.18.05.15.1.31.16.46Z"/>
  <path d="M20.53,150.55c.6-.06,1-.23,1.18-.1,1.44,1.1,2.83,2.25,4.24,3.38-.06.09-.12.19-.18.28-1.65-1.12-3.29-2.24-5.23-3.56Z"/>
  <path d="M176.75,123.62c-.08-1.22-.17-2.45-.25-3.67.14-.02.29-.04.43-.06.1.65.21,1.3.31,1.95.1.66.36,1.36-.17,1.88-.11-.04-.22-.07-.32-.11Z"/>
  <path d="M147.75,12.91c-.39.55,1.1,1.31-.09,1.99-.45-.5-.88-.97-1.29-1.43.38-.15.83-.33,1.38-.56Z"/>
  <path d="M65.73,75.48c-.45-.21-.82-.39-1.05-.5.32-.49.65-1,1.05-1.62v2.11Z"/>
  <path d="M164.89,55.41c-.44.05-.89.11-1.31.16-.09.14-.21.34-.33.53-.13-.34-.26-.69-.43-1.13h1.98c.03.14.06.29.08.43Z"/>
  <path d="M166.54,108.11v2.86c-.13,0-.26,0-.4,0,0-.9,0-1.8.02-2.7,0-.04.27-.08.41-.12,0,0-.03-.03-.03-.03Z"/>
  <path d="M175.78,120.07v-2.29c.07,0,.13-.02.2-.03v2.3c-.07,0-.13.01-.2.02Z"/>
  <path d="M163.13,105.27c.31.5.56.9.85,1.36-1.38-.32-1.44-.42-.85-1.36Z"/>
  <path d="M117.2,90.03c-.13.44-.25.88-.38,1.32-.12-.03-.25-.06-.37-.08.1-.45.2-.9.3-1.35.15.04.3.08.45.12Z"/>
  <path d="M167.72,110.4c-.26-.26-.52-.53-.77-.79.1-.1.19-.19.29-.29l.77.7-.28.38Z"/>
  <path d="M160.55,97.1c-.01.23-.02.45-.03.68l-.28.08c-1.29-3.15-2.58-6.31-3.86-9.46.13-.06.25-.11.38-.17.95,2.09,1.91,4.18,2.86,6.26,0,0-.03-.04-.03-.04.08.23.16.47.24.7l.27.55c.16.47.32.95.48,1.42l-.03-.03Z"/>
  <path d="M143.05,71.66c-.72-1.43-1.44-2.87-2.16-4.3.12.01.31-.01.34.05.74,1.34,1.46,2.69,2.18,4.04.02.04-.06.14-.1.21-.09,0-.18,0-.27,0Z"/>
  <path d="M154.9,69.36c1.28,2.64,1.45,5.44,1.62,8.24-.11.02-.21.03-.32.05-.43-2.76-.87-5.53-1.3-8.29Z"/>
  <path d="M157.1,76.22c-.35-2.12-.7-4.23-1.05-6.4.81.6,1.59,4.67,1.05,6.4Z"/>
  <path d="M158.07,72.21c.1.77.2,1.54.3,2.31-.14.02-.28.04-.41.06-.11-.77-.22-1.54-.33-2.32.15-.02.3-.03.44-.05Z"/>
  <path d="M156.6,81.96v-1.82c.09,0,.19-.02.28-.03.03.61.06,1.22.1,1.83-.13,0-.25.01-.38.02Z"/>
  <path d="M128.68,102.05c-1.25-.04-.45,2.17-2.06,1.71-.2-1.81-.39-3.6-.59-5.39.14-.02.28-.04.42-.05.22,1.58.44,3.16.62,4.45.45-.37,1.05-.85,1.66-1.34.36.48.71.97,1.07,1.45-.13.09-.27.17-.4.26-.25-.39-.51-.79-.71-1.1Z"/>
  <path d="M130.12,96.59h-1.03c.29-.87.55-1.65.82-2.47-.67.04-1.27.08-2.19.14.36-.49.54-.94.71-.93.57.02,1.21.07,1.66.36.23.15.15.83.15,1.27,0,.49-.06.97-.11,1.63Z"/>
  <path d="M133.16,89.4h-2.91c0-.09,0-.17,0-.26h4.18c-.7,1.08-1.4,1.84-3.05,1.34.77-.36,1.31-.62,1.86-.87l-.07-.21Z"/>
  <path d="M157.68,98.94l-2.35,2.36c-.12-.13-.24-.26-.37-.39,1.03-.51,1.23-1.96,2.41-2.3.1.11.2.22.3.34Z"/>
  <path d="M156.81,122.92c-1.12,0-2.35-1.69-2.04-2.73.66.91,1.33,1.84,2,2.77,0,0,.03-.03.03-.03Z"/>
  <path d="M137.8,106.55c.33-.81.66-1.62,1-2.43.13.05.27.11.4.16-.32.83-.63,1.67-.95,2.5-.15-.08-.3-.15-.45-.23Z"/>
  <path d="M131.38,93.44c.1-.23.2-.44.34-.75.41.29.76.53,1.11.77-.04.08-.08.16-.12.24-.43-.09-.87-.18-1.32-.27Z"/>
  <path d="M120.99,122.29c1.13.6,2.26,1.2,3.39,1.78.49.25,1,.45,1.39.88-1.72-.64-3.66-.93-4.75-2.69,0,0-.03.03-.03.03Z"/>
  <path d="M120.19,124.88c.75.43,1.55.89,2.31,1.33-1.4.31-2.4-.32-2.31-1.33Z"/>
  <path d="M122.23,125.26c-.72-.36-1.44-.71-2.16-1.07.06-.13.12-.26.18-.39l2.15,1.11c-.06.11-.11.23-.17.34Z"/>
  <path d="M90.77,106.28c.83-1.46,1.65-2.92,2.52-4.45.54.35.88.56,1.11.71-1.11,1.35-2.21,2.68-3.31,4.02-.11-.09-.21-.18-.32-.27Z"/>
  <path d="M127.39,138.73c.45-.31.89-.62,1.34-.94.08.11.16.22.24.33-.43.33-.86.65-1.28.98-.1-.12-.2-.25-.3-.37Z"/>
  <path d="M143.77,64.73c.3.24.61.47.92.71-.06-.35-.13-.77-.2-1.19.2.15.48.26.57.45.92,2.05,1.81,4.12,2.55,6.44-.4-.24-.98-.38-1.18-.73-.87-1.56-1.64-3.18-2.42-4.79-.13-.27-.16-.59-.24-.89Z"/>
  <path d="M142.81,65.48c.39.52.85.99,1.15,1.55.67,1.25,1.27,2.54,1.89,3.79-.72.07-2.82-3.6-3.01-5.37,0,0-.03.03-.03.03Z"/>
  <path d="M112.8,146.9c.63,1.05,1.27,2.1,1.9,3.14-.11.08-.23.16-.34.23-2.13-3.03-4.26-6.05-6.39-9.08l.37-.29c.43.58.85,1.16,1.28,1.73,1.07,1.43,2.14,2.86,3.22,4.29l-.03-.03Z"/>
  <path d="M104.43,141.79c1.75,3.13,3.1,6.35,5.87,8.97-1.68-.18-6.12-7.24-5.87-8.97Z"/>
  <path d="M112.84,146.93c-.8-1.23-1.6-2.46-2.4-3.7-.09-.14-.14-.31-.22-.46.12-.08.23-.15.35-.23,1.88,2.62,3.75,5.24,5.63,7.86-.09.08-.19.17-.28.25-1.04-1.25-2.07-2.5-3.11-3.76,0,0,.03.03.03.03Z"/>
  <path d="M108.34,150.9c-1.65-.81-4.93-6.2-4.73-7.6,1.53,2.46,3.12,5.01,4.73,7.6Z"/>
  <path d="M100.85,146.5c.22.17.5.31.64.53.65,1.04,1.25,2.1,1.84,3.09-.88.05-2.27-1.91-2.45-3.66,0,0-.03.03-.03.03Z"/>
  <path d="M97.01,53.7c.41.43.92.8,1.2,1.3,2,3.64,4,7.28,5.89,10.98,1.04,2.03,1.78,4.21,2.8,6.25,1.96,3.92,4.03,7.78,6.07,11.67.06.12.25.17.38.26.03.22.07.44.1.67-.06.06-.13.12-.19.17-.29-.33-.67-.63-.87-1.01-1.1-2.07-2.17-4.15-3.23-6.24-1.62-3.21-3.23-6.43-4.84-9.65-1.36-2.72-2.69-5.46-4.09-8.16-.98-1.88-2.08-3.69-3.1-5.54-.11-.19-.08-.46-.12-.69Z"/>
  <path d="M112.64,77.86c.34-.08.61-.14.95-.22,1.1,1.65,2.3,3.44,3.49,5.23-1.56-.91-2.19-2.65-3.58-3.78.94,1.58,1.87,3.16,2.79,4.71-.94-.02-3.19-3.62-3.65-5.94Z"/>
  <path d="M158.84,87c1.43,4.02,2.75,7.73,4.07,11.46-.96-.41-4.36-9.65-4.07-11.46Z"/>
  <path d="M163.13,86.74c.76,1.89,1.53,3.77,2.29,5.66-.15.06-.31.13-.46.19l-2.29-5.66c.16-.06.31-.13.47-.19Z"/>
  <path d="M130.58,140.51c.32.3.72.54.94.9,1.09,1.73,2.14,3.5,3.2,5.25.49.8.94,1.62,1.48,2.38.28.4.71.7.98,1.29-.3-.14-.71-.21-.88-.44-.75-1-1.47-2.02-2.13-3.07-1.2-1.9-2.36-3.82-3.52-5.75-.09-.15-.02-.39-.02-.59,0,0-.03.03-.03.03Z"/>
  <path d="M96.99,90.77c-.39-.36-.87-.65-1.15-1.08-1.48-2.31-2.9-4.65-4.34-6.98-.22-.35-.49-.67-.55-1.13,2.41,2.75,3.89,6.16,6.27,8.94-.08.08-.15.17-.23.25Z"/>
  <path d="M92.01,80.54c1.7,2.66,3.39,5.31,5.08,7.95-.97-.18-4.36-5.16-5.08-7.95Z"/>
  <path d="M93.27,80.48c.97,1.35,1.94,2.69,2.9,4.02-.91.03-1.23-.34-3.18-3.77.1-.08.19-.17.29-.25Z"/>
  <path d="M113.9,74.97c-.85.39-1.71.77-2.56,1.16-.05-.12-.1-.23-.15-.35.64-.37,1.27-.78,1.94-1.08.17-.08.49.19.74.3,0,0,.03-.03.03-.03Z"/>
  <path d="M110.78,73.54c.38-.13.76-.25,1.14-.38.04.13.08.25.12.38-.4.13-.8.25-1.19.38-.02-.13-.04-.26-.07-.39Z"/>
  <path d="M174.08,91.47c-.7.21-1.4.41-2.18.65v-1.06c.79.04,1.5.07,2.21.1,0,.11-.02.21-.03.32Z"/>
  <path d="M176.64,91.36c-.3-.06-.5-.1-.7-.14.14-.08.28-.18.43-.22.04-.01.13.17.27.37Z"/>
  <path d="M105.98,61.97h-1.18c.7,1.57,1.49,3.32,2.27,5.06-1.34-.99-1.7-2.53-2.35-3.91-.68-1.44-1.34-2.89-2.03-4.32-.69-1.41-1.41-2.81-2.11-4.21l.28-.16c.46.67.92,1.33,1.37,2,.04-.08.08-.16.12-.24.23.13.56.2.66.39.67,1.28,1.27,2.61,1.95,3.89.28.54.69,1.01,1.04,1.51,0,0-.02-.02-.02-.02ZM104.22,60.86c.08-.05.17-.1.25-.15l-.57-1.05c-.07.04-.14.07-.22.11.18.36.35.73.53,1.09Z"/>
  <path d="M149.73,78.87c.96,3.08,1.91,6.17,2.87,9.27-.71-.27-3.34-7.93-3.18-9.2.1-.02.2-.04.31-.06Z"/>
  <path d="M116.03,144.46c2,1.43,3.43,3.31,4.2,5.69-1.4-1.9-2.8-3.8-4.2-5.69Z"/>
  <path d="M121.26,147.72c.4.73.8,1.46,1.23,2.24-.84-.2-3.56-4.07-3.5-4.91.78.91,1.54,1.81,2.3,2.7,0,0-.03-.03-.03-.03Z"/>
  <path d="M126.22,50.92l4.7,10.33c-.15.07-.3.13-.45.2-1.48-3.48-3.4-6.77-4.58-10.38l.34-.15Z"/>
  <path d="M114.67,107.47c-.24-.44-.48-.88-.72-1.32.13-.07.27-.15.4-.22.23.44.47.89.7,1.33l-.38.21Z"/>
  <path d="M121.47,105.03c.26.28.55.54.78.84.66.89,1.29,1.79,1.9,2.65-.97.06-2.47-1.87-2.65-3.53,0,0-.03.03-.03.03Z"/>
  <path d="M110.95,113.88c-.96-.61-1.69-1.38-1.94-2.49l.32-.22c.53.91,1.06,1.83,1.59,2.74,0,0,.03-.03.03-.03Z"/>
  <path d="M149.76,61.85c.49.65.98,1.3,1.47,1.95-1.3-.04-1.44-.96-1.47-1.95Z"/>
  <path d="M162.95,131.63c.16.07.4.1.47.22,1.04,2.06,2.06,4.14,3.04,6.11-.85,0-3.52-4.57-3.47-6.37,0,0-.03.03-.03.03Z"/>
  <path d="M166.6,130.6c.52.64,1.04,1.29,1.57,1.93-.11.09-.22.19-.32.28-.54-.63-1.07-1.26-1.61-1.89.12-.1.24-.21.37-.31Z"/>
</svg>