<?xml version="1.0" encoding="UTF-8"?>
<svg id="a" data-name="Layer_1" xmlns="http://www.w3.org/2000/svg" viewBox="0 0 107.78 240.37">
  <path d="M85.5,192.69c.84-.22,1.67-.52,2.52-.65,1-.16.98-.57.53-1.15-1.09.31-2.12.61-3.15.9-.04-.11-.07-.21-.11-.32.28-.11.56-.22,1.1-.43-.7-.07-1.12-.12-1.87-.19,1.24-.32,2.15-.56,3.07-.8.05-.11.1-.21.15-.32-.43-.3-.87-.6-1.3-.89v.02c-.08-.09-.16-.17-.25-.26h.02c-.24-.15-.48-.31-.72-.47v.02c-.68-.97-1.36-1.94-2.05-2.92-.18-.25-.35-.5-.71-1.02-.13.82-.2,1.24-.27,1.66-.12-.02-.23-.03-.35-.05.09-.73.19-1.46.27-2.13-.49.22-.91.41-1.54.69.4-.57.64-.9.87-1.23.04-.08.07-.16.11-.24-.08.04-.16.08-.24.11-.42.15-.84.31-1.26.46-.04-.07-.08-.14-.12-.21.58-.37,1.17-.73,1.75-1.1-.03-.07-.05-.15-.08-.22-.24,0-.52-.08-.72.01-1.54.7-2.96.4-4.41-.32-1.14-.57-2.36-.98-3.59-1.48-.23-1.94,1.38-3.62,3.7-3.73.56-.03,1.12-.03,1.68,0,1.83.11,2.24-.26,2.2-2.08,0-.24-.03-.47-.05-.81-.47.23-.87.44-1.29.63-.4.18-.81.34-1.49.63.85-1.18,2.72-.96,2.61-2.65-.73.5-1.36.93-1.99,1.36l-.17-.2c.64-.58,1.27-1.17,1.91-1.75l-.15-.23c-1.06.68-2.11,1.36-3.17,2.03-.08-.13-.17-.26-.25-.39.18-.12.35-.3.55-.36,1.93-.55,2.56-1.66,2.05-3.49-.19-.71-.21-1.48-.22-2.23-.03-1.6.07-3.2-.04-4.79-.07-1.02-.44-2.03-.67-3.04l-.14-.6c-.07.02-.14.04-.21.05.07.22.15.44.22.67-.08.28-.16.56-.24.84-.36.34-1,.61-.27,1.34.16-.5.28-.86.4-1.22.05.95.17,1.91.11,2.85-.03.48-.37.94-.66,1.61-.54-.54-1.26-1.11-1.8-1.83-1.34-1.76-2.59-3.59-3.88-5.39l-.89-.18c0,.09,0,.17-.01.26.26.02.52.04.78.06-.28.12-.73.4-.81.32-.63-.65-1.25-.05-1.85-.09-.82-.06-1.63-.31-2.63-.52,1.56-.33,2.94-.62,4.32-.91.08.08.16.16.24.24.08.08.16.16.24.24.08.04.16.07.24.11-.04-.08-.08-.16-.11-.24-.08-.08-.16-.16-.24-.24-.08-.08-.16-.16-.24-.24-.3-.14-.62-.44-.89-.41-1.34.16-2.66.41-3.99.63-.03-.11-.06-.22-.09-.33.7-.16,1.4-.32,2.1-.48.34-.03.69-.06,1.03-.09l-.04-.27c-.37.08-.74.15-1.11.23-1.41.16-2.82.5-4.22.45-2.59-.09-5.21-.72-7.76-.49-1.42.13-2.74-.69-4.16-.16l.85-.52c-.03-.13-.05-.26-.08-.39-1.11.2-2.22.46-3.33.58-.98.1-2,.13-2.98.03-1.6-.16-3.17-.51-4.77-.66-.82-.07-.97-.47-.92-1.24-1.47.19-2.81-.03-3.7-1.37,0,0-.02.02-.02.02,1.18.3,2.11,1.16,3.49,1.11,1.89-.08,3.85-.02,5.68.42,2.51.61,5.07.61,7.54,1.06,2.36.43,4.66,1.12,7.08,1.03,2.67-.1,5.35-.28,8.03-.7-1.83-.47-3.7-.28-5.55-.38,0-.12-.01-.23-.02-.35.89,0,1.79,0,2.68,0,.44,0,.89.06,1.31-.02.32-.06.62-.28.93-.42-.29-.13-.57-.37-.86-.36-.86,0-1.71.11-2.57.15-.03,0-.08-.19-.12-.3.04-.08.07-.16.11-.24-.08.04-.16.08-.24.11-.56.08-1.13.25-1.68.22-.63-.04-.94-.45-.65-1.11h-.02c1.58-.08,3.15-.17,4.73-.26-1.09-2.03-2.75-.74-4.18-1.06.88-.91,2.56.12,3.28-1.62-1.11.06-1.99.1-2.86.15-.01-.08-.03-.15-.04-.23.57-.09,1.14-.28,1.7-.26,1.08.04,1.47-.37,1.15-1.6-.9.14-1.8.28-2.69.42-.03-.07-.05-.13-.08-.2.42-.16.84-.32,1.34-.51-.28-.1-.54-.18-.86-.3.79-.69,2.36-.07,2.7-1.66-1.35.37-2.55.71-3.91,1.09.13-.29.2-.45.27-.61,1.28-.34,2.56-.67,3.84-1.01-.04-.14-.08-.27-.12-.41-1.52-.37-2.77.15-3.84,1.28-.8.28-1.6.55-2.41.83,0-.05-.01-.1-.02-.15,1.66-.97,3.33-1.94,4.89-2.86.44.15.87.31,1.51.53.3-3.54.57-6.84.86-10.24-.35.11-.68.21-1,.31-.03-.06-.07-.12-.1-.18.4-.29.8-.58,1.2-.87-.05-.1-.11-.21-.16-.31-.38.2-.76.42-1.16.59-.07.03-.24-.16-.36-.24.08-.08.16-.16.24-.24.04-.08.07-.16.11-.24-.08.04-.16.08-.24.11-.08.08-.16.16-.24.24h-.68c.74-.66,1.37-1.23,2-1.79.04-.08.07-.16.11-.24-.08.04-.16.08-.24.11-.48.23-.96.47-1.44.7-.05-.07-.11-.15-.16-.22.56-.35,1.12-.7,1.67-1.07.2-.13.36-.32.54-.49.04-.08.07-.16.11-.24-.08.04-.16.08-.24.11-.56.13-1.12.26-1.75.41.06-.16.07-.3.13-.34.56-.32,1.57-.57,1.61-.93.13-1.23-.05-2.51-.18-3.76-.04-.36-.31-.69-.33-1.14.26.24.52.48,1.02.95.12-1.86.23-3.49.35-5.18-1.23-.12-2.36-.43-3.42-.27-1.81.27-2.97-.74-4.31-1.76,1.44.36,2.79.7,4.14,1.03l.13-.51c-.76-.17-1.61-.2-2.27-.55-.56-.3-.93-.98-1.23-1.62.77.65,1.29,1.64,2.59,1.2-1.02-2.3-.79-4.68-.54-7,.2-1.86.84-3.67,1.23-5.51.06-.28-.07-.78-.27-.89-1.58-.86-3.19-1.65-5.02-2.58.04,1.44.06,2.66-1.15,3.36-.23.13-.46.37-.7.38-2.8.04-5.65.33-8.25-1.12-.15-.09-.3-.19-.36-.51.59.19,1.24.29,1.78.58,2.1,1.13,4.37.67,6.56.61.59-.02,1.4-.91,1.67-1.58.42-1.04-.04-2.08-1.14-2.49-3.13-1.17-6.25-2.39-9.46-3.29-.95-.27-2.17.5-3.28.71-1,.19-2.03.27-3.04.4.38-.16.75-.39,1.15-.47,1.2-.26,2.41-.47,3.61-.7-.02-.14-.04-.28-.06-.41-.73-.1-1.71-.54-2.13-.23-.82.6-1.46.17-2.19.15-.53-.01-1.06.14-1.6.21-.08-.04-.16-.07-.24-.11.04.08.08.16.11.24.4.48.8.96,1.2,1.44.77.22,1.55.44,2.6.74h-2.55c0,.08-.01.16-.02.24.3.12.59.23.58.23-.06.61-.24,1.12-.14,1.58.64,3.11,1.33,6.21,2.01,9.3.26,1.17.72,2.16,2.08,2.39.2.03.38.23.49.52-.66-.2-1.32-.4-2.05-.63-.07.3-.15.61-.23.96-.11-.09-.21-.13-.22-.18-.31-1.58-.58-3.17-.91-4.74-.65-3.15-1.35-6.28-2.01-9.43-.33-1.57-1.33-2.86-2.63-3.38-1.1-.44-2.58-.08-3.86.13-.82.13-1.57.64-2.37.99v-.4c.66-.32,1.31-.88,1.99-.93,2.54-.18,5.12-.44,7.64-.2,4.07.38,7.98,1.64,11.82,3.05,1.1.4,2.29.58,3.33,1.08,2.44,1.17,4.81,2.47,7.2,3.72.08.04.16.07.24.11-.04-.08-.08-.16-.11-.24-1.65-1.35-3.31-2.7-4.96-4.04.02-.03.04-.06.06-.09.39.18.79.36,1.18.54.04-.08.07-.15.11-.23-1.58-1.26-3.16-2.52-4.75-3.78.07-.1.13-.19.2-.29.44.32.88.65,1.32.97,1.12.83,2.24,1.66,3.36,2.49l1.68,1.44c.72.64,1.44,1.28,2.15,1.91.08.08.16.16.24.24.08.04.16.07.24.11-.04-.08-.08-.16-.11-.24-.08-.08-.16-.16-.24-.24-.53-.85-.8-2-2.16-1.92-.56-.48-1.12-.96-1.68-1.44-.93-1.02-1.79-2.13-2.82-3.04-1.28-1.15-2.72-2.12-4.06-3.21-3.11-2.53-6.21-5.08-9.31-7.63-1.99-1.65-3.95-3.34-5.95-4.97-1.52-1.23-3.1-2.4-4.81-3.71.09.66.15,1.12.22,1.59-.06.02-.12.03-.18.05l-.4-.64c-.07-.44-.14-.89-.2-1.33-.13.03-.25.06-.38.09.15.45.3.91.45,1.36-.03.24-.06.49-.12.91-.45-1.11-.82-2.02-1.19-2.94-.08-.16-.16-.32-.25-.49-.08-.04-.16-.07-.24-.11.04.08.08.16.11.24.08.16.16.32.24.48.46,1.97.91,3.95,1.37,5.92-.09.03-.18.06-.27.09l-2.13-7.49c-.11.03-.22.05-.34.08,0,.18-.03.37,0,.55.38,2.11.8,4.21,1.14,6.32.17,1.07.22,2.16.29,3.25.15,2.01.34,4.01.39,6.02.03,1.5-.12,3-.22,4.5-.04.66-.16,1.32-.25,1.98-.11-.09-.32-.18-.32-.27.13-2.17.28-4.34.44-6.51.17-2.38-.43-3.28-2.61-4.39-.62-.32-1.04-1.03-1.71-1.72-.02,0-.34.06-.66.12.06.05.12.09.18.14,1.35-1.41,2.71-2.83,4.09-4.28-.51-2.33-.98-4.51-1.46-6.7.1-.05.19-.1.29-.16,1.48,1.18,2.96,2.36,4.55,3.63.91-1,1.74-1.95,2.62-2.86.46-.47,1.05-.81,1.5-1.29,2.2-2.41,4.44-4.78,6.51-7.29,1.6-1.94,3.12-3.98,4.42-6.14,1.23-2.03,2.14-4.25,3.15-6.41.73-1.57,1.43-3.16,2.07-4.77,1.38-3.44,2.18-7.02,2.76-10.68.26-1.61.94-3.14,1.38-4.72.28-1.01.45-2.05.68-3.13-.52-.14-.82-.22-1.13-.3.8-.32,1.24-.22,1.34.75.14,1.39-.13,2.55-.85,3.81-.59,1.03-.47,2.44-.73,3.67-.16.79-.46,1.55-.64,2.34-.07.32-.01.68-.01,1.16-.35,1.06-.78,2.32-1.2,3.59.1.05.2.1.3.15.23-.42.46-.84.69-1.26.1.05.2.11.29.16-.27.51-.51,1.04-.83,1.53-.48.74-1.02,1.45-1.53,2.17.16.12.33.24.49.36.5-.62,1-1.24,1.5-1.87.42.71-.24,1.34-.71,1.7-2.06,1.59-2.89,3.85-3.68,6.17-.15.44-.3.87-.49,1.45.56-.18,1-.33,1.72-.57-.83,1.12-2.62.74-2.57,2.49.36-.2.69-.37,1.02-.55.05.07.1.13.15.2-.78.63-1.57,1.26-2.35,1.89l.18.31c.64-.31,1.29-.63,1.93-.94.05.1.1.2.14.3-.69.36-1.35.85-2.09,1.03-.86.21-1.11.71-1.31,1.65.97-.38,1.78-.69,2.58-1,.04.1.08.2.13.3-.75.33-1.49.86-2.27.95-1.19.14-1.58.86-1.85,1.81v-.02c-.33.29-.68.57-1.02.86.05.11.1.21.16.32.9-.29,1.8-.57,2.71-.86.04.11.07.22.11.33-.95.32-1.92.61-2.85.98-.54.22-1.03.58-1.54.87.06.15.13.29.19.44.94-.12,1.89-.24,2.83-.36.02.1.04.2.07.3-1.1.19-2.2.37-3.3.56,0,.06,0,.11,0,.17h3.72c0,.14.01.27.02.41-.81,0-1.64.1-2.43-.02-1.55-.24-2.65.35-3.48,1.6-.33.49-.7.95-1.17,1.57.84.05,1.57.09,2.31.14v.32h-2.98c-.01.15-.02.3-.03.45l2.27.2c.04.1.07.2.11.31-1.99-.2-3.81-.01-5.01,2.01,1.15,0,2.21.06,3.26-.02,1.04-.07,2.06-.28,3.38-.47-2.58,1.61-5.4.2-7.78,1.24l.04.48h5.16c0,.15,0,.3,0,.45-1.04,0-2.11.15-3.12-.03-1.94-.34-2.88-.12-4.21,1.54,2.56-.29,4.88-.54,7.19-.8l.03.34c-2.38.32-4.76.64-7.09.95.21.16.44.41.73.53.54.21,1.11.49,1.67.48,1.24-.02,2.48-.21,3.71-.33.01.1.02.21.03.31-1.31.17-2.62.34-3.93.5,0,.13.01.25.02.38h2.31c-.58.34-.88.51-1.31.76.85.66,1.62,1.21,2.34,1.83,1.9,1.63,3.74,3.33,5.66,4.93.75.62,1.52,1.35,2.73.92.34-.12.9.2,1.3.43,1.88,1.07,3.72,1.12,5.74.24,1.99-.87,4.14-1.1,6.32-.51,1.15.31,2.33.57,3.5.81.32.07.67-.03,1-.03.77,0,1.53,0,2.48,0-.21-7.85-.42-15.99-.64-24.12.14-.04.28-.07.42-.11.6.93,1.23,1.85,1.78,2.8,1.17,2.01,1.16,2.01,3.33,2.5-.57.05-1.15.09-1.76.14.41,1.31,1.37,1.34,2.41,1.18.59-1.9-1.21-5.08-3.4-5.54.47-.08.66-.11.86-.15.08.04.16.07.24.11-.04-.08-.08-.16-.11-.24-.36-.94-.71-1.89-1.02-2.71-.68-.19-1.22-.33-1.75-.48.02-.08.04-.17.05-.25.39.04.77.08,1.16.13.07-.1.15-.2.22-.3-.39-.31-.76-.68-1.19-.91-.41-.22-.9-.31-1.35-.45.04-.09.07-.18.11-.27.48.12.97.24,1.69.43-.53-1.37-.96-2.49-1.39-3.61-.05.07-.11.15-.16.22-.36-.28-.72-.57-1.08-.85l.12-.23.59.2c-.4-.58.19-1.81-1.18-1.78-.11,0-.26-.46-.33-.72-.36-1.28-.67-2.59-1.09-3.85-.09-.26-.52-.44-.82-.6-.8-.43-1.32-1.02-1.38-2.16.59.77,1.07,1.39,1.48,1.92-.17-2.76-.34-5.51-.51-8.27.17-.01.34-.02.51-.03,0,.42,0,.85,0,1.27-.06,2.46-.14,4.94.82,7.26.85,2.05,1.87,4.03,2.76,6.07,1.42,3.27,2.78,6.57,4.22,9.83.38.86.98,1.61,1.45,2.43.33.59.84,1.21.85,1.83.04,1.58.94,2.68,1.72,3.89.28.44.47.94.6,1.49-.69-.33-.73-2.01-2-.84-.08-.08-.16-.16-.24-.24-.08-.04-.16-.07-.24-.11.04.08.08.16.11.24.08.08.16.16.24.24,1.23,2,1.69,1.53,2.84,1.08.59,1.5,1.13,3.02,1.8,4.49.25.54.74,1,1.22,1.39,2.48,2,3.99,4.54,4.47,7.7.05.34.26.65.47,1.15-.49.04-1.06.28-1.35.09-.67-.45-1.03.03-1.55.21-.9.31-1.83.58-2.77.7-1.72.21-3.45.31-5.36.46,0,.69.03,1.39-.01,2.09-.03.55-.05,1.14-.27,1.62-.63,1.42-.47,2.83-.29,4.3.08.69-.35,1.42-.47,2.15-.32,1.98-.65,3.96-.86,5.95-.15,1.38.35,2.61,1.36,3.59,2.46,2.38,4.92,4.75,7.36,7.15.5.49.9,1.07,1.22,1.7-2.23-2.24-4.46-4.48-6.78-6.81-.25.47-.36.66-.43.79-.33-.2-.65-.4-.96-.59-.08-.08-.16-.16-.24-.24-.08-.08-.16-.16-.24-.24-.08-.08-.16-.16-.24-.24-.08-.16-.16-.32-.24-.48-.08-.08-.16-.16-.24-.24-.08-.08-.16-.16-.24-.24-.08-.08-.16-.16-.24-.24-.08-.08-.16-.16-.24-.24-.08-.08-.16-.16-.24-.24-.08-.04-.16-.07-.24-.11.04.08.08.16.11.24.08.08.16.16.24.24l.24.24c.08.08.16.16.24.24.08.08.16.16.24.24s.16.16.24.24c.08.16.16.32.24.48.08.08.16.16.24.24l.24.24c.08.08.16.16.24.24,2.47,2.95,4.3,6.52,7.93,8.4.6.31,1.11.79,1.66,1.19.08.04.16.07.24.11-.04-.08-.08-.16-.11-.24-.56-.78-1.13-1.55-1.69-2.33.1-.08.2-.15.31-.23,1.3,1.77,2.59,3.54,4.01,5.47-1.24-.17-1.83-1.03-2.51-1.7-1.22-1.19-2.42-2.35-4.08-2.99-.61-.24-1.07-.93-1.52-1.48-1.65-2.06-3.25-4.16-4.88-6.22-.48-.61-1.01-1.17-1.52-1.75-.14.03-.28.05-.42.08-.06,1.58-.39,3.21-.12,4.73.43,2.33,1.35,4.57,1.91,6.89.4,1.67.59,3.4.79,5.12.1.88,0,1.77.03,2.66.02.66,1.33,1.2,2.2.94h0c.61.76,1.19,1.55,1.84,2.27,1.79,1.96,3.09,4.04,3.44,6.85.31,2.44.63,4.82.13,7.21-.24,1.13-.66,2.32-1.34,3.23-.48.64-1.52.9-2.35,1.24-.94.38-1.94.62-2.89.96-.65.23-.95.67-.58,1.38.48.9.84,1.87,1.43,2.68,1.44,1.96,1.75,4.13,1.73,6.49-.03,2.16-.41,4.37.44,6.48,1.24,3.09,1.52,5.49,1.07,9.11-.18-.41-.3-.66-.4-.9q-1.8.47-2.19-.52c.72.04,1.45.07,2.26.12.03-.43.05-.77.07-1.1-.14-.02-.21-.05-.28-.04-.89.1-1.78.3-2.67.27-1.48-.05-2.72.52-3.8,1.4-.34.28-.48.96-.47,1.45,0,.22.6.47.96.63,1,.43,2.02.82,3.03,1.22,1.13.68,2.51.67,3.29-.13h-3.17c.48-.12.95-.26,1.43-.35.63-.12,1.26-.2,1.89-.3l-.02.02c.17-.41.33-.82.58-1.44.28.97.46,1.87.8,2.7.43,1.07.81,2.24,1.53,3.09,1.87,2.2,3.96,4.2,5.87,6.36.95,1.07,1.73,2.3,2.54,3.5.17.25.11.66.19,1.28-.48-.76-.76-1.28-1.11-1.75-.98-1.29-1.88-2.73-3.95-1.86-.55.23-1.26.07-1.9.08l.02.02ZM29.1,81.84c-.08.08-.16.16-.24.24-.21.22-.42.43-.64.65.12.08.25.16.37.24.13-.26.26-.51.39-.77.08-.08.16-.16.24-.24.04-.08.07-.16.11-.24-.08.04-.16.08-.24.11ZM80.27,135.55c-.08-.04-.16-.07-.24-.11.04.08.08.16.11.24.08.08.16.16.24.24.08.04.16.07.24.11-.04-.08-.08-.16-.11-.24-.08-.08-.16-.16-.24-.24ZM54.87,88.79c-.08-.04-.16-.07-.24-.11.04.08.08.16.11.24.08.04.16.07.24.11l-.11-.24ZM81.47,136.03c-.08-.04-.16-.07-.24-.11.04.08.08.16.11.24.08.04.16.07.24.11-.04-.08-.08-.16-.11-.24ZM81.11,141.78c-.04.08-.07.16-.11.24.08-.04.16-.08.24-.11.04-.08.07-.16.11-.24-.08.04-.16.08-.24.11ZM82.19,137.23c-.08-.04-.16-.07-.24-.11.04.08.08.16.11.24.08.04.16.07.24.11-.04-.08-.08-.16-.11-.24ZM61.34,97.66c-.08-.04-.16-.07-.24-.11.04.08.08.16.11.24.08.04.16.07.24.11l-.11-.24ZM77.4,159.89l.11-.24c-.08.04-.16.08-.24.11-.04.08-.07.16-.11.24.08-.04.16-.08.24-.11ZM61.58,99.82c-.08-.04-.16-.07-.24-.11.04.08.08.16.11.24l.24.24.24.11c-.04-.08-.08-.16-.11-.24-.08-.08-.16-.16-.24-.24ZM78.71,142.26c-.08.08-.16.16-.24.24-1.25.31-2.49.61-3.78.93v1.14c.31.03.6.06.64.06-.29.41-.57.82-1.04,1.49h1.51s0,.1-.01.14c-.37.07-.74.14-1.11.21.19.96.36,1.83.54,2.74h.94c-.27.3-.77.61-.74.86.1.87.38,1.71.58,2.5,1.19-.34,2.21-.58,3.19-.92.88-.31,2.06-.51,2.51-1.17.74-1.09,1-2.5,1.46-3.78.04-.08.07-.16.11-.24-.08.04-.16.08-.24.11-.23.31-.42.66-.7.91-.34.31-.76.54-1.3.93.73-.99,1.29-1.74,1.84-2.49l-.02.02c.16-.07.47-.15.47-.22,0-1.45.46-2.98-.59-4.35-.98.65-1.92,1.29-2.86,1.92-.04-.06-.09-.12-.13-.17.1-.16.2-.32.31-.48.04-.08.07-.16.11-.24-.08.04-.16.08-.24.11-.44.04-.88.08-1.31.13l.24-.24c.04-.08.07-.16.11-.24-.08.04-.16.08-.24.11ZM67.33,104.38c-.08-.04-.16-.07-.24-.11.04.08.08.16.11.24.08.04.16.07.24.11l-.11-.24ZM73.8,108.69c-.08-.04-.16-.07-.24-.11.04.08.08.16.11.24.08.04.16.07.24.11l-.11-.24ZM74.76,109.89c-.08-.04-.16-.07-.24-.11.04.08.08.16.11.24.08.08.16.16.24.24l.24.24c.08.08.16.16.24.24.08.08.16.16.24.24.16.24.32.48.48.72.08.08.16.16.24.24.08.04.16.07.24.11-.04-.08-.08-.16-.11-.24-.08-.08-.16-.16-.24-.24-.16-.24-.32-.48-.48-.72-.08-.08-.16-.16-.24-.24-.08-.08-.16-.16-.24-.24-.08-.08-.16-.16-.24-.24-.08-.08-.16-.16-.24-.24ZM71.28,118.05c-.04.08-.07.16-.11.24.08-.04.16-.08.24-.11.08-.08.16-.16.24-.24.16-.24.32-.48.48-.72.27-.42.54-.83.81-1.25-.15-.08-.29-.16-.44-.24-.17.45-.34.91-.51,1.36-.16.24-.32.48-.48.72-.08.08-.16.16-.24.24ZM86.02,122.6c-.08-.04-.16-.07-.24-.11.04.08.08.16.11.24.08.08.16.16.24.24.08.08.16.16.24.24.08.04.16.07.24.11-.04-.08-.07-.16-.11-.24-.08-.08-.16-.16-.24-.24-.08-.08-.16-.16-.24-.24ZM75.11,129.79c-.08.08-.16.16-.24.24h-1.53c.29-.64.5-1.1.7-1.55.04-.08.07-.16.11-.24-.08.04-.16.08-.24.11-.27.07-.54.14-1.15.29,1.15-1.1,2.93-1.41,2.42-3.37-1.24.61-2.3,1.12-3.35,1.63.11.61.17,1.23.33,1.84.48,1.85,1.13,3.67,1.47,5.54.33,1.86.39,3.77.53,5.66.09,1.22.38,1.43,1.44.93.39-.18.78-.37,1.21-.57-.08-.18-.17-.39-.27-.61-.51.24-.97.45-1.4.65-.12-.36-.22-.68-.32-.99,1.37-.43,1.5-.56,1.22-1.28-.33.11-.65.22-.98.33l-.07-.16c.39-.36.79-.71,1.44-1.3h-1.38c.26-.41.48-.77.84-1.33-.64.22-.97.34-1.31.46.39-.61.71-1.12,1.22-1.91-.54.12-.68.17-.82.18-.14,0-.29-.03-.26-.02.29-.53.59-1.06.89-1.59-.1-.05-.2-.11-.3-.16-.23.11-.46.22-.77.37.41-.72.73-1.3,1.21-2.15-.83.24-1.23.35-1.81.52.48-.51.78-.82,1.09-1.14l.24-.24c.04-.08.07-.16.11-.24-.08.04-.16.08-.24.11ZM80.03,134.11c-.08-.04-.16-.07-.24-.11.04.08.08.16.11.24.08.08.16.16.24.24.08.04.16.07.24.11-.04-.08-.08-.16-.11-.24-.08-.08-.16-.16-.24-.24ZM53.67,154.73c-.08-.04-.16-.07-.24-.11.04.08.08.16.11.24.15.04.29.09.44.13-.1-.09-.21-.17-.31-.26ZM78.84,89.27c-.08-.08-.16-.16-.24-.24-.03-.34-.06-.68-.09-1.03-.09.01-.18.02-.27.04.08.37.15.74.23,1.12.08.08.16.16.24.24v.12c-.6-.08-1.2-.16-1.79-.24-.08-.08-.16-.16-.24-.24v-1.24c-.13.01-.26.02-.38.03.09.44.17.89.26,1.33.08.08.16.16.24.24-.3.04-.61.07-.91.11.98.43,1.96.51,2.95.13.14-.04.27-.09.6-.19-.32-.1-.46-.14-.59-.18ZM74.88,160.37c.08.04.16.07.24.11-.04-.08-.08-.16-.11-.24-.08-.16-.16-.32-.24-.48-.83-1.61-1.67-3.22-2.51-4.86.1.03.24.04.28.11,1.09,1.9,2.18,3.81,3.25,5.72,0,.02-.19.15-.3.23-.08-.04-.16-.07-.24-.11.04.08.08.16.11.24.56.8,1.12,1.6,1.68,2.4.08.04.16.07.24.11-.04-.08-.08-.16-.11-.24-.06-.75-.07-1.5-.2-2.24-.47-2.58-1-5.16-1.49-7.74-.09-.5-.05-1.02-.13-1.52-.51-3.26-1.17-6.5-1.5-9.78-.36-3.54-.48-7.09-1.45-10.56-1.32-4.71-1.45-9.59-1.72-14.44-.12-2.08-.37-4.16-.56-6.23-.1,0-.19,0-.29,0v11.51h-.39v-2.37c-.08,0-.16,0-.23,0l-.13,2.15c-.1,0-.19-.01-.29-.02.19-3.59.38-7.18.57-10.77-.13,0-.27-.02-.4-.02-.18,2.33-.39,4.65-.52,6.98-.2,3.6-.28,7.22-.51,10.82-.26,4.1-.59,8.2-.95,12.3-.16,1.8-.47,3.59-.67,5.39-.16,1.46-.47,2.92.88,4.14,1.05.94,1.91,2.1,2.81,3.19,1.56,1.9,3.1,3.82,4.64,5.73l.25.49ZM56.66,88.91c.09.11.17.22.26.32-.04-.15-.08-.29-.13-.44l-.14-.6c-.07.02-.14.03-.21.05.07.22.15.44.22.66ZM72.72,96.23c0,.28,0,.56,0,.84-.39.98-.72,1.99-1.2,2.92-.82,1.6.95,1.94,1.32,2.89.27-.25.55-.51.83-.77v.84c.16-.03.31-.05.47-.08-.11-.29-.23-.59-.34-.88,0-.12,0-.23,0-.35.16-.2.33-.39.49-.59l-.27-.19c-.12.22-.23.43-.35.65-.28.07-.56.14-1.12.28.81-.95,1.39-1.64,1.97-2.32.04-.08.07-.16.11-.24-.08.04-.16.08-.24.11-.41.17-.83.33-1.24.5l-.04-.15,1.92-1.68c-.08-.08-.15-.16-.23-.24-.37.3-.75.6-1.12.89l-.15-.17c.53-.65,1.07-1.29,1.74-2.11h-.83c.26-.76.51-1.51.76-2.26l-.02.02c.95-1.19.39-2.52.53-4.03-.51.28-.81.44-1.2.65.35.19.52.28.4.22-.36.8-.73,1.46-.96,2.16-.41,1.26-.73,2.54-1.09,3.81,0-.2,0-.4,0-.6.04-.08.07-.16.11-.24-.08.04-.16.08-.24.11ZM49.71,87.96c.08.04.16.07.24.11-.04-.08-.08-.16-.11-.24-.11-.15-.21-.3-.32-.45-.07.06-.14.13-.21.19.14.13.27.26.41.38ZM87.1,190.7c-.2.05-.4.09-.6.14.02.07.04.14.06.21.22-.07.44-.14.66-.22.11-.09.22-.17.32-.26-.15.04-.29.08-.44.13ZM66.61,131.84c.23-.06.46-.13.69-.19-.04-.1-.07-.21-.11-.31-.24.13-.47.25-.71.38-.04.08-.07.16-.11.24.08-.04.16-.08.24-.11ZM75.11,128.36c-.24.16-.48.32-.72.48-.04.08-.07.16-.11.24l.24-.11c.24-.16.48-.32.72-.48.04-.08.07-.16.11-.24-.08.04-.16.08-.24.11ZM74.76,128c.19-.03.45,0,.55-.11.11-.12.07-.38.15-.9-.42.45-.62.66-.82.88-.04.08-.07.16-.11.24.08-.04.16-.08.24-.11ZM59.54,88.44c.08.08.16.16.24.24.22.34.45.68.67,1.02-.09.07-.18.14-.27.21-.66-.8-1.31-1.61-1.97-2.41-.09.05-.19.09-.28.14.51.92,1.01,1.84,1.37,2.49-.75-.11-1.64-.24-2.52-.37-.08-.04-.16-.07-.24-.11.04.08.08.16.11.24-.44-.12-.88-.24-1.31-.37-.08-.04-.16-.07-.24-.11.04.08.08.16.11.24-.2.04-.39.08-.59.12-.25-.41-.51-.82-.76-1.23-.12.09-.25.19-.37.28.33.35.66.71,1,1.06-.14.06-.35.22-.42.18-.32-.23-.6-.51-.89-.78-.15-.33-.31-.65-.46-.98-.11.06-.22.13-.32.19.22.3.44.6.65.9-.04.28-.08.56-.11.83-.08-.08-.16-.16-.24-.24-.5-1.1-1.15-2.06-2.45-2.39.77.84,1.55,1.68,2.32,2.52.08.08.16.16.24.24.9.69,1.83,1.35,2.69,2.08,3.53,2.97,7.04,5.96,10.4,8.82,1.37-.8,2.86-1.67,4.29-2.5v-9.73c-.7.1-1.19.18-1.67.25-.07-.25-.13-.49-.24-.92.27.17.4.24.5.32.11.1.21.21.39.41-.05-1.34-.35-1.43-1.72-.58.33.31.63.6.94.89-.35.31-.33.29-.88-.24-.45-.44-.7-1.27-1.65-.97.32.52.6.98.89,1.44-.09.07-.17.15-.26.22-.75-.6-1.55-1.16-2.24-1.83-.95-.91-2.03-1-3.43-.79.33.6.56,1.03.79,1.46l-.22.13-1.36-1.71c-.1.07-.2.13-.29.2.33.55.65,1.11,1.12,1.92-.49-.34-.73-.51-.98-.67-.08-.08-.16-.16-.24-.24-.13-.37-.26-.74-.39-1.1-.13.07-.26.14-.4.21.22.34.44.68.66,1.02ZM66.96,115.05c.05.2.1.4.14.6.07-.02.14-.04.21-.06-.07-.22-.15-.44-.22-.66v-1.68c-.14.01-.28.02-.41.03l.28,1.77ZM77.4,157.37c-.09-.11-.17-.22-.26-.32.04.15.08.29.13.44-.1.5-.19,1-.29,1.5.18.01.35.02.53.03-.04-.55-.07-1.1-.11-1.65ZM58.1,89.4c.08.04.16.07.24.11-.04-.08-.08-.16-.11-.24-.28-.53-.56-1.05-.98-1.85-.1,1.1-.04,1.75.86,1.98ZM71.41,106.3c-.09-.11-.17-.22-.26-.32.04.15.08.29.13.44-.08.64-.17,1.29-.25,1.93.18,0,.37,0,.55,0-.05-.68-.11-1.36-.16-2.05ZM65.76,115.53c.09.11.17.22.26.32-.04-.15-.08-.29-.13-.44-.06-.68-.11-1.35-.19-2.25-1.07,1.07-.34,1.69.06,2.37ZM46.36,153.9c-.17.2-.35.41-.56.65h3.07c.02-.09.03-.17.05-.26-.81-.17-1.63-.35-2.44-.52-1.71-.23-3.42-.46-5.14-.68-.03.13-.06.26-.1.39.29.22.57.45.63.49.69-.14,1.12-.31,1.54-.29.98.03,1.96.15,2.95.23ZM31.74,85.8c.08.04.16.07.24.11-.04-.08-.08-.16-.11-.24.58-1.63.08-1.59-2.14-1.78.44.35.87.67,1.26,1.03.28.26.5.58.75.88ZM79.26,76.15v.02c-.07-.4-.16-.8-.25-1.2-1.78.39-2.08.88-1.47,1.94.67-.08,1.28-.15,1.88-.22.08.04.16.07.24.11-.04-.08-.08-.16-.11-.24-.1-.14-.19-.28-.29-.42ZM82.43,139.27c.34-.61.44-1.17-.06-1.41-1.36,1-2.5,2.01-3.79,2.76-1.29.76-2.73,1.27-4.11,1.89.06.17.12.34.18.5.89-.21,1.89-.22,2.65-.66,1.41-.82,2.67-1.9,4.01-2.84.28-.2.66-.25.99-.37-1,.94-2,1.88-3,2.82.64-.06,1.12-.37,1.63-.62.88-.43,1.74-.85,1.5-2.08ZM76.92,137.95c-.1-1.58-.2-3.15-.29-4.73-.18.02-.36.03-.54.05.23,1.6.47,3.2.7,4.8.19.86.39,1.73.64,2.85,1.17-.79,2.17-1.45,3.16-2.13q1.03-.7.33-2.04c-.29.53-.54.98-.85,1.54-.2-.24-.46-.41-.5-.62-.13-.69-.21-1.4-.27-2.1-.09-1.16-.31-1.5-1.34-1.75.31,1.78.61,3.52.91,5.27-.07.02-.14.05-.21.07-.16-.44-.32-.88-.53-1.47-.32.35-.59.64-.85.93-.12-.22-.25-.45-.37-.67ZM79,87.67l-.02-.02c.14.26.28.52.42.78-.12.09-.24.19-.39.31.51.33,1,.64,1.48.95.07-.09.13-.17.2-.26-.38-.37-.76-.74-1.14-1.11.33.12.74.16.99.37,1,.85,2.2.95,3.31.34.65-.36,1.41-.53,2.34-.87.31-1.58.14-1.8-1.75-1.75-.31,0-.62.1-.94.12-2.09.14-4.21.53-5.96-.43h8.25c-.67-1.99-.84-2.09-2.49-1.62.27.14.45.27.65.34.23.08.47.09.71.14-.01.1-.02.21-.04.31-1.67-.11-3.35-.22-5.02-.34,0-.08,0-.16,0-.23,1.12-.11,2.23-.21,3.35-.32l-.03-.33c-.63.05-1.26.1-1.89.15,0-.13,0-.25,0-.38,1.13-.05,2.26-.11,3.42-.16-.2-.98-.8-1.24-1.84-1.02-.89.19-1.83.14-2.74.2,0-.09-.01-.18-.02-.26.86-.12,1.72-.24,2.58-.36.36-.03.72-.07,1.07-.1-.03-.12-.06-.25-.08-.37-.37.11-.74.23-1.11.34-1.3-.06-2.61-.13-3.91-.19,0-.13,0-.26,0-.39,1.49-.06,3.06.74,4.58-.3-1.28-1.44-3.05-.36-4.39-1.14h2.51c-.48-1.07-1.74-1.44-2.99-.97-.07.03-.2.07-.23.04-.6-.59-.94-.56-1.11.26-.51,2.49-.94,5-1.4,7.5-.07.22-.15.44-.22.66.07.02.14.04.21.07.05-.2.1-.4.14-.6.42.08.83.16,1.25.24.76.14,1.51.29,2.27.44ZM75.01,85.08c.07-.21.17-.42.22-.64.66-3.11,1.31-6.21,1.98-9.39-.38-.08-.74-.17-1.18-.26.84-.48.44-.9.02-1.32-1.39-1.39-2.44-3-3.35-4.74-.77-1.47-1.72-2.84-2.59-4.26-.18.95-.05,1.8-.02,2.65.1,2.94.17,5.88.24,8.83.09,3.42.16,6.84.24,10.27.08,3.06.16,6.12.25,9.19,0,.15.09.29.14.43.09-.01.17-.02.26-.03v-11.68c.11,0,.22,0,.33,0v7.67c.07,0,.13,0,.2,0,.18-1.18.36-2.36.54-3.54.11.02.23.05.34.07-.12.76-.28,1.52-.37,2.29-.1.9-.15,1.8-.17,2.7-.01.57.19,1.15.1,1.7-.13.82-.44,1.61-.67,2.41-.2.59-.41,1.18-.61,1.77l.57.12c.06-.59.12-1.18.17-1.77.8-2.4,1.6-4.8,2.4-7.19.32-1.76.64-3.52.96-5.28ZM72.91,120.96c-.03-.08-.07-.15-.1-.23.12-.07.27-.12.36-.23.21-.26.39-.55.58-.83-.29-.08-.65-.09-.85-.27-.21-.18-.35-.54-.36-.82,0-.27.19-.55.35-.96-1.43.69-2.28,1.44-1.48,2.93.06.11,0,.27,0,.41.09,1.77.18,3.54.27,5.37,2.6-.7,3.36-1.33,3.13-2.36-.64.17-1.28.34-2.06.55.44-.96,2.17-.35,1.9-1.91-.73.3-1.33.55-1.93.8,2.31-1.68,2.07-1.21,1.2-2.8-.33.12-.66.24-.99.36ZM64.79,103.7c-.5,2.39-1.12,4.47-1.35,6.6-.26,2.46-.37,5.03,1.39,7.11.71.84,1.47,1.87,2.88,1.37.1-.36.2-.69.29-1.02-1.8-.43-3.42-2.16-3.54-3.96-.2-3.17-.05-6.31,1.75-9.23-.43-.26-.78-.47-1.43-.86ZM70.4,99.59c-.09-.13-.18-.25-.27-.38-1.07.67-2.2,1.24-3.17,2.03-.99.8-.86,1.38.27,2.18.23-1.87,1.64-2.38,3.17-2.77v-1.05ZM71.09,117.03c.14.03.28.05.43.08.2-.76.51-1.52.57-2.29.14-1.78.18-3.56.22-5.35,0-.22-.28-.66-.35-.64-.31.08-.71.21-.86.45-.19.3-.17.73-.28,1.33.41-.31.63-.48,1.07-.82-.28,2.56-.54,4.9-.8,7.24ZM79.91,77.12c-2.35-.19-2.96.14-2.7,1.29,1.05.07,2.09.14,3.23.22-.21-.59-.36-1.03-.53-1.51ZM68.15,105.47l-.3.09c.21,1.57.42,3.15.62,4.72.1,0,.19,0,.29,0,.12-1.38.24-2.76.35-4.1-.35-.26-.65-.49-.96-.72ZM74.5,70.67c.46,1.4,1.47,1.9,2.57,1.25-.54-1.07-1.36-1.55-2.57-1.25ZM66.19,110.15c.1,0,.2,0,.29,0v-4.86c-.1,0-.2,0-.29,0v4.86ZM31.8,82.61c-.86-.07-1.6-.14-2.35-.2-.07.09-.15.17-.22.26.22.24.4.61.67.71.59.2,1.24.27,1.9.39v-1.15ZM77.54,133.48c-.15,0-.3,0-.45.01.09,1.36.18,2.72.29,4.38,1.08-1.68.23-3.03.16-4.4ZM65.81,107.57c-.22-.03-.44-.05-.66-.08-.14,1.95-.29,3.89-.43,5.84.15,0,.3.02.45.02,0-.98-.08-1.96.02-2.93.11-.96.4-1.91.62-2.86ZM68.06,113.22c.2-.03.4-.05.6-.08-.23-1.26-.46-2.51-.69-3.77-.11.02-.22.03-.34.05.14,1.27.28,2.53.43,3.8ZM30.02,81.46c.03.14.06.28.09.42.54.11,1.08.22,1.63.33l.19-.28c-.25-.34-.45-.9-.76-.97-.32-.08-.76.31-1.14.5ZM69.98,102.9c.05,0,.11-.01.16-.02.04-.59.07-1.19.12-1.9-.52.26-.93.47-1.33.67.11.61.21,1.15.32,1.69.05,0,.11,0,.16,0,.05-.43.09-.87.14-1.3h.19c.08.29.16.59.24.88ZM67.35,105.02c-.07,0-.15,0-.22.01v2.49c.07,0,.15-.01.22-.02v-2.49ZM71.55,104.07c.08.08.16.16.24.24.26-.17.75-.37.73-.5-.06-.5-.29-.98-.46-1.47-.07.02-.13.04-.2.05-.1.56-.2,1.12-.31,1.68ZM67.4,113.55c.12.76.25,1.52.39,2.42q.65-1.1-.39-2.42ZM66.71,116.11c-.07.13-.14.27-.21.4.35.23.68.54,1.06.64.16.04.44-.35.8-.66-.71-.16-1.18-.27-1.66-.38ZM65.46,152.56h2.08c-.85-1.06-1.48-.85-2.08,0ZM72.56,112.37c.08,0,.16,0,.23,0,.05-.84.1-1.68.14-2.53-.13,0-.25,0-.38,0v2.53ZM65.99,111.45l-.49.15c.23.61.45,1.21.68,1.82.09-.02.18-.04.27-.06-.15-.63-.31-1.27-.46-1.9ZM78.82,133.71c.11-.09.23-.17.34-.26-.27-.35-.54-.71-.81-1.06-.14.11-.28.23-.42.34.3.33.6.66.89.99ZM69.44,107.25c.14.02.27.04.41.06.03-.51.05-1.02.08-1.53-.1,0-.21-.02-.31-.03-.06.5-.12,1-.18,1.49ZM70.12,108.8c-.15-.02-.31-.04-.46-.05,0,.3-.02.59.02.88,0,.04.25.06.45.1v-.93ZM55.73,88.25c-.15.09-.31.18-.46.27.26.36.52.71.78,1.07.09-.06.17-.11.26-.17-.19-.39-.39-.78-.58-1.17ZM68.54,104.21c.12-.02.25-.03.37-.05-.09-.56-.17-1.12-.26-1.68l-.26.03c.05.56.1,1.13.15,1.69ZM75,89.94c.13,0,.26,0,.39,0v-1.19c-.1,0-.19,0-.29-.01-.03.4-.07.8-.1,1.2ZM69.03,105.47c.13-.07.26-.13.39-.2-.2-.31-.39-.63-.59-.94l-.36.23c.19.3.37.61.56.91ZM66.05,146.57c-.02-.14-.04-.27-.05-.41-.43.1-.86.2-1.29.29.02.09.03.17.05.26.43-.05.86-.1,1.3-.14ZM72.56,104.89c-.08-.11-.16-.21-.23-.32-.23.13-.45.27-.68.4.1.14.2.28.3.42.2-.17.41-.34.61-.5ZM71.07,112.84c-.12.02-.23.05-.35.07.07.48.13.96.2,1.43.08-.01.16-.02.24-.03-.03-.49-.06-.98-.09-1.47ZM68.03,102.92c-.09,0-.18.01-.28.02-.04.41-.09.83-.13,1.24.1.01.21.02.31.03.03-.43.07-.86.1-1.29ZM44.02,154.3c.03-.06.06-.12.09-.17h-1.33c0,.06,0,.12,0,.17h1.25ZM67.49,111.59c-.06-.01-.11-.02-.17-.03v1.12c.06,0,.11,0,.17,0v-1.09ZM65.83,102.91c-.09.09-.17.18-.26.28.26.2.52.4.78.6.06-.08.13-.16.19-.24-.24-.21-.48-.43-.71-.64ZM70.19,105.13h.39c-.02-.23-.04-.46-.06-.69-.1,0-.2,0-.29,0-.01.23-.02.46-.04.68ZM80.02,136.12c-.12.05-.25.09-.37.14.11.26.22.52.32.78l.29-.1c-.08-.27-.16-.54-.24-.82ZM63.72,152.61c.01-.06.02-.11.03-.17h-1.12c0,.06,0,.11,0,.17h1.09ZM78.12,162.13c-.13-.03-.26-.07-.38-.1-.07.27-.14.54-.2.82.1.03.2.06.3.09l.29-.81ZM73.05,105.51c.08-.02.16-.03.24-.05-.02-.3-.03-.6-.05-.89-.06,0-.13,0-.19,0v.93ZM40.08,95.54c0,.09-.02.19-.03.28h.78c0-.08,0-.16,0-.24-.25-.01-.5-.03-.75-.04ZM67.05,111.03c.05,0,.1,0,.16,0v-.91c-.07,0-.13,0-.2,0,.02.3.03.6.05.91ZM65.23,88.34l.19-.22c-.2-.18-.4-.35-.6-.53-.06.07-.12.14-.18.21.2.18.39.36.59.54ZM78.02,87.76c-.1-.05-.2-.09-.3-.14-.06.21-.12.42-.18.63.06.02.12.05.17.07.1-.19.21-.38.31-.57ZM43.65,96.06c0-.09,0-.18,0-.26-.25.02-.49.03-.74.05,0,.05,0,.11,0,.16.25.02.49.04.74.05ZM69.95,155.03c-.11-.09-.19-.21-.27-.21-.08,0-.17.1-.25.16.09.09.17.2.27.27.02.01.14-.12.25-.22ZM72.33,106.49c.07,0,.15,0,.22-.01-.03-.17-.06-.34-.09-.51h-.13v.52ZM67.22,108.58c-.05,0-.1,0-.15,0v.6c.05,0,.1,0,.15,0v-.6ZM73.77,104.34l.23-.02c-.03-.17-.07-.34-.1-.51-.04,0-.09.01-.13.02v.51ZM81.24,181.26s.08.13.12.14c.07,0,.14-.05.2-.07-.04-.05-.08-.14-.12-.14-.07,0-.14.05-.21.08ZM70.22,156.8s.08.13.12.14c.07,0,.14-.05.2-.07-.04-.05-.08-.14-.12-.14-.07,0-.14.05-.21.08ZM69.69,157.19c.05-.04.11-.08.16-.11-.05-.04-.12-.12-.16-.11-.07.02-.12.09-.19.14.06.03.12.05.18.08ZM68.87,157.35c-.03-.05-.05-.13-.08-.14-.06-.02-.13.02-.19.03.03.06.05.15.1.18.03.02.11-.04.18-.07ZM76.54,132.17c-.03-.05-.05-.13-.08-.14-.06-.02-.13.02-.19.03.03.06.05.15.1.18.03.02.11-.04.18-.07ZM41.94,95.66s.08.13.12.14c.07,0,.14-.05.2-.07-.04-.05-.08-.14-.12-.14-.07,0-.14.05-.21.08ZM77.42,132.8s-.03.05-.04.07c.05,0,.1,0,.14,0-.01-.02-.02-.06-.03-.07-.01-.01-.05,0-.07,0ZM75.98,131.12l-.04.07s.1,0,.14,0c-.01-.02-.02-.06-.03-.07-.01-.01-.05,0-.07,0ZM75.55,129.33s.05-.05.07-.07c-.02-.02-.05-.05-.07-.07-.03.03-.05.07-.08.1.02.01.05.03.07.04ZM73.21,118.69s-.05-.05-.07-.07c-.02.02-.05.05-.07.07.03.03.07.05.1.08l.04-.07ZM62.8,118.41l-.04.07s.1,0,.14,0c-.01-.02-.02-.06-.03-.07-.01-.01-.05,0-.07,0ZM71.19,111.7s-.03.05-.04.07c.05,0,.1,0,.14,0-.01-.02-.02-.06-.03-.07-.01-.01-.05,0-.07,0ZM67.7,108.14l-.07-.07-.07.07s.07.05.1.08c.01-.02.03-.05.04-.07ZM73.69,107.66s-.05-.05-.07-.07c-.02.02-.05.05-.07.07.03.03.07.05.1.08.01-.02.03-.05.04-.07ZM72.39,107.38s-.03.05-.04.07h.14s-.02-.05-.03-.06c-.01-.01-.05,0-.07,0ZM74.79,141.67s-.03.05-.04.07c.05,0,.1,0,.14,0-.01-.02-.02-.06-.03-.07-.01-.01-.05,0-.07,0ZM76.57,140.99s-.05-.05-.07-.07c-.02.02-.05.05-.07.07.03.03.07.05.1.08.01-.02.03-.05.04-.07ZM69.14,154.18s-.05-.05-.07-.07c-.02.02-.05.05-.07.07.03.03.07.05.1.08.01-.02.03-.05.04-.07ZM69.75,104.51s-.03.05-.04.07h.14s-.02-.05-.03-.06c-.01-.01-.05,0-.07,0ZM69.6,104.05s-.05-.03-.07-.04c0,.05,0,.1,0,.14.02-.01.06-.02.07-.03.01-.01,0-.05,0-.07ZM73.16,103.91l.07-.07-.07-.07s-.05.07-.08.1c.02.01.05.03.07.04ZM70.04,103.67l.07-.07-.07-.07s-.05.07-.08.1c.02.01.05.03.07.04ZM80.58,142.28s.05-.05.07-.07c-.02-.02-.05-.05-.07-.07-.03.03-.05.07-.08.1.02.01.05.03.07.04ZM70.8,102.61s-.05-.03-.07-.04v.14s.05-.02.06-.03c.01-.01,0-.05,0-.07ZM76.7,156.3s-.03.05-.04.07c.05,0,.1,0,.14,0-.01-.02-.02-.06-.03-.07-.01-.01-.05,0-.07,0ZM75.02,98.75s-.03.05-.04.07h.14s-.02-.05-.03-.06c-.01-.01-.05,0-.07,0ZM60.17,96.83s-.03.05-.04.07h.14s-.02-.05-.03-.06c-.01-.01-.05,0-.07,0ZM81.84,136.68s-.05-.05-.07-.07c-.02.02-.05.05-.07.07.03.03.07.05.1.08.01-.02.03-.05.04-.07ZM80.86,136.42s-.05-.03-.07-.04c0,.05,0,.1,0,.14.02-.01.06-.02.07-.03.01-.01,0-.05,0-.07ZM77.27,88.7s-.05-.03-.07-.04v.14s.05-.02.06-.03c.01-.01,0-.05,0-.07ZM30.54,84.87s-.05-.03-.07-.04v.14s.05-.02.06-.03c.01-.01,0-.05,0-.07ZM29.01,83.65s-.03.05-.04.07c.05,0,.1,0,.14,0-.01-.02-.02-.06-.03-.07-.01-.01-.05,0-.07,0ZM31.41,80.29s-.03.05-.04.07c.05,0,.1,0,.14,0-.01-.02-.02-.06-.03-.07-.01-.01-.05,0-.07,0ZM68.42,52.75s-.05-.05-.07-.07c-.02.02-.05.05-.07.07.03.03.07.05.1.08.01-.02.03-.05.04-.07Z"/>
  <path d="M80.63,192.26c.08.42.19.83.23,1.25.1,1.29.18,2.59.26,3.88-.28-.53-.65-1.04-.84-1.61-.44-1.34-.79-2.72-1.18-4.08-.15.03-.3.07-.45.1.45,2.21.89,4.41,1.41,6.96.59-.62.88-.92,1.17-1.23,1-.41,2.01-.82,2.94-1.2-.33-.52-.71-1.1-1.09-1.69.11-.07.22-.15.33-.22.17.27.35.55.52.82.12-.15.24-.32.48-.64.05.66.08,1.12.1,1.41,1.13.12,2.16.24,3.19.34.29.03.6.04.89-.02,2.31-.54,4.44-.1,6.48,1.05.57.32.69.62.56,1.32-.19,1.02-.68,2.14.23,3.13.22.24.34.66.33,1-.08,2.34.29,4.58.92,6.86.46,1.68.3,3.55.3,5.33,0,2.31.33,4.48,1.38,6.59,1.12,2.24,1.97,4.61,2.99,6.9.22.49.57,1.04,1.01,1.29,2.34,1.33,3.23,3.52,3.69,6.1-2.94.68-5.9,1.06-8.96.67-1.02-.13-2.1.32-3.15.34-1.34.04-2.72.36-3.99-.48.56.06,1.12.2,1.67.15,1.12-.1,2.23-.4,3.35-.44,1.18-.04,2.37.22,3.55.17,1.97-.08,3.94-.26,5.89-.48.38-.04.73-.43,1.03-.88-5.25,1.46-10.54.42-15.78.87,0-.17,0-.35-.01-.52h12.43c0-.16,0-.33,0-.49h-11.32c1.59-.14,3.02-.27,4.46-.39,0-.07.01-.13.02-.2-.5-.15-1-.31-1.5-.46,0-.11,0-.21,0-.32,3.3,1.17,6.48.07,9.7-.21l.07.29c-.66.11-1.32.23-1.97.33-.72.12-1.45.23-2.18.34.02.13.04.26.06.4,1.41-.19,2.83-.39,4.24-.57.4-.05.81-.04,1.21-.06-.15.12-.3.24-.46.36-.2.05-.4.1-.6.14.02.07.04.14.06.21.22-.07.44-.15.66-.22.35-.05.91.07.48-.6-.34-.62-.67-1.24-1.01-1.86v.02c-.34-.42-.66-.89-1.07-1.25-.49-.44-1.05-.79-1.59-1.18v.02c-.08-.09-.16-.17-.25-.26h.02c0-.72-.39-1.06-1.04-.76-1.36.62-2.65.09-4.03-.12,1.39-.34,2.73-.66,4.23-1.02-.61-1.49-1.1-2.7-1.59-3.91-.07,0-.13,0-.2,0-.04.73-.09,1.46-.13,2.19-.04,0-.08,0-.12-.01-.68-3.95-1.36-7.89-2.04-11.88-.29-.11-.66-.25-1.03-.38.01-.08.02-.16.03-.23.36-.07.72-.13,1.2-.22.09-.76.17-1.52.28-2.47-.99.43-1.74.76-2.5,1.08-.05-.1-.09-.2-.14-.3.72-.35,1.45-.7,2.44-1.18-.18-.33-.4-.74-.62-1.16v.02c-.22-2.29-.46-4.58-.7-6.86-.08,0-.15-.02-.23-.03-.42,1.07-.84,2.13-1.26,3.2-.1-.02-.21-.04-.31-.05v-3.23c-.08-.02-.16-.05-.24-.07-.18.29-.37.57-.68,1.05-.13-1.46-.24-2.71-.37-4.24-.29.41-.41.58-.63.89-.54-.87-.13-2.78-1.9-2.09-.4.15-.38,1.38-.54,2.06-.17-.25-.46-.69-.75-1.12.04-.08.07-.16.11-.24-.08.04-.16.08-.24.11-.74.38-.01.66.05.99.05.3.91.56.08.93-.14-.2-.28-.41-.42-.61-.09.09-.19.18-.28.27.2.16.39.32.59.49.24.4.55.78.69,1.22.17.54.35.86.99.9.25.02.55.45.69.75.26.55.41,1.14.71,1.68.24-2.14-.23-4.1-1.47-5.86,1.42.54,2.23,3.32,1.91,6.53q-.66.05-1.49-1.72c-.43,7.22-.18,14.38-4.12,20.99.86-.19,1.43-.31,2-.43.03.11.06.21.09.32-.6.14-1.21.26-1.79.44-.21.06-.38.27-.57.41.21.12.43.24.76.42-.5.24-1,.45-1.46.72-.48.28-.91.63-1.37.96.09.12.18.23.28.35.89-.04,1.77-.08,2.66-.13.02.11.05.22.07.33-2.42-.05-4.52.69-6.1,2.65-.05-.09-.1-.19-.15-.28.2-.26.41-.51.61-.77.16-.16.32-.32.48-.48.08-.08.16-.16.24-.24.08-.08.16-.16.24-.24.71-.59,1.42-1.17,2.13-1.76-.14-.14-.27-.28-.41-.41-.61.68-1.23,1.36-1.84,2.05-.08.08-.16.16-.24.24-.08.08-.16.16-.24.24-.16.16-.32.32-.48.48-.56.2-1.13.4-1.69.6,3.19-2.09,5.34-5,6.68-8.56.1.05.2.1.31.15-.3.72-.57,1.44-.9,2.14-.36.77-.79,1.51-.99,2.46.33-.33.77-.6.99-.99,1.67-3.09,3.02-6.31,3.57-9.8.3-1.87.39-3.77.54-5.65.17-2.17.31-4.34.45-6.51,0-.13-.09-.27-.4-.43-.21.99-.55,1.97-.61,2.97-.16,2.38,0,4.78-.32,7.14-.3,2.28-.99,4.51-1.57,6.74-.1.36-.51.87-.83.91-1.35.17-1.26,1.38-1.6,2.18-.76,1.82-2.03,3.16-3.59,4.24-1.9,1.32-3.86,2.57-5.79,3.84-.09.29-.18.57-.27.86.11.02.22.05.33.07.02-.27.05-.54.07-.81.42.52.83,1.05,1.25,1.57.11-.05.22-.1.34-.15-.26-.4-.53-.8-.88-1.32.19-.08.47-.29.59-.22.88.51,1.66,1,2.82.99.75,0,.71.95.03,1.5.36.41.67.76.98,1.11-.04.11-.08.22-.11.33-1.53-1.21-3.2-1.74-5.21-1.7-.03-.11-.15-.52-.27-.93-.09,0-.19-.01-.28-.02-.15.41-.31.83-.49,1.32-.32-.22-.66-.45-1.05-.71-.27.32-.52.61-.83.97-.99-1.33-1.2.32-1.86.53-.42-1.22-.89-.74-1.36.02-.63-.29-1.21-.55-1.84-.84-.32.2-.46,1.28-1.33.17-.22.5-.39.9-.58,1.34-.95-.23-1.91-.48-2.88-.7-.22-.05-.49,0-.69.09-.49.23-1.13.87-1.39.73-1.17-.62-2.22-1.45-3.31-2.2.08-.16.15-.32.23-.49.68.08,1.35.15,2.24.25-.03.05.1-.16.24-.37.3.26.59.51,1.04.9-.75.07-1.31.12-2.15.2.78.49,1.33.83,1.95,1.21.37-.81.71-1.54,1.08-2.34.13.21.24.38.53.84.05-.53.19-.87.07-1.01-.52-.67-1.13-1.28-1.67-1.94-.49-.61-1.16-1.2-1.36-1.91-.7-2.53-1.24-5.11-1.82-7.67-.04-.2.05-.42.08-.7.58,2.36,1.11,4.63,1.72,6.88.2.73.62,1.4.94,2.1.12.22.24.44.35.65.09-.06.18-.12.27-.19-.16-.2-.33-.39-.49-.59-.44-1.91-.87-3.81-1.32-5.72-.42-1.79-.92-3.57-1.28-5.37-.11-.56.15-1.2.27-1.99.99,3.5,1.92,6.79,2.81,10.09.08.32-.15.72-.24,1.08-.12-.66-.23-1.31-.35-1.97-.12.03-.24.06-.36.1.19.66.38,1.33.58,1.99.61,2.01,1.23,4.01,2.99,5.38.72-.92.85-1.01-.25-2.68-.61-.93-.79-1.91-1.09-2.88-.75-2.44-1.42-4.9-2.13-7.34-.58-2.02-1.18-4.04-1.72-5.9-2.74,6.28-.82,12.17,1.96,18.14.09-.05-.17.18-.27.12-2.03-1.15-4.02-2.35-4.11-5.11.26.49.52.97.78,1.46.12.29.24.57.36.86.1-.05.19-.1.29-.15-.17-.28-.34-.56-.52-.83-.08-2.7-.37-5.42-.2-8.1.23-3.53.83-7.06,2.78-10.14,1.81-2.85,3.63-5.7,5.57-8.46.64-.9,1.72-1.48,2.52-2.28,1.23-1.22,2.36-2.55,3.59-3.77.85-.84,1.79-1.58,2.84-2.27-.71,1.56.08,2.83.5,4.15.82,2.58,1.62,5.17,2.44,7.75.07.21.22.39.33.57.45-.68.88-1.33,1.36-2.05h-1.05c-1-3.31-1.98-6.58-2.95-9.84-.03-.09.06-.21.2-.63,1.07,3.49,2.05,6.71,3.07,10.02.77-.82.65-1.35.28-2.29-1-2.55-1.61-5.25-2.32-7.91-.07-.28.1-.74.32-.96.91-.97,3.65-1.13,4.67-.3.09.07.06.3.09.45-.11-.05-.22-.09-.32-.14-.08-.04-.16-.07-.24-.11.04.08.08.16.11.24ZM65.77,233.02c.08.04.16.07.24.11-.04-.08-.08-.16-.11-.24-.08-.04-.16-.07-.24-.11.04.08.08.16.11.24ZM72.96,232.06c.08.04.16.07.24.11-.04-.08-.08-.16-.11-.24-.08-.04-.16-.07-.24-.11.04.08.08.16.11.24ZM64.81,231.35c.08.04.16.07.24.11-.04-.08-.08-.16-.11-.24-.08-.04-.16-.07-.24-.11.04.08.08.16.11.24ZM57.86,230.15c.08.04.16.07.24.11-.04-.08-.08-.16-.11-.24-.08-.04-.16-.07-.24-.11.04.08.08.16.11.24ZM81.47,226.79c.08-.08.16-.16.24-.24.16-.16.32-.32.48-.48.89-.49.93-.58.43-1.31-.2.43-.37.8-.55,1.17-.16.16-.32.32-.48.49-.08.08-.16.16-.24.24-.04.08-.07.16-.11.24.08-.04.16-.08.24-.11ZM100.52,227.86c-.1.09-.21.17-.31.26.15-.04.29-.09.44-.13.04-.08.07-.16.11-.24-.08.04-.16.08-.24.11ZM73.44,199.22c.08.04.16.07.24.11-.04-.08-.08-.16-.11-.24-.09-.1-.17-.21-.26-.31.04.15.09.29.13.44ZM73.91,221.99c.09.11.17.22.26.32-.04-.15-.08-.29-.13-.44-.08-.16-.16-.32-.24-.48-.05-.2-.09-.4-.14-.6-.07.02-.14.03-.21.05.07.22.15.44.22.66l.24.48ZM81.95,221.15c-.08-.16-.16-.32-.24-.48-.2-.7-.49-1.39-.57-2.1-.17-1.45-.79-2.44-2.31-2.7-.08-.04-.16-.07-.24-.11.04.08.08.16.11.24l2.86,7.89c-.1.04-.19.07-.29.11-1.57-3.6-2.73-7.35-3.89-11.1.14.02.28.04.42.05-.01-.11-.03-.21-.04-.32-.16.04-.32.08-.48.12-.49-1.3.06-2.68-.73-4.09-1.25-2.23-1.98-4.75-2.87-7.17-.64-1.74-1.19-3.51-1.78-5.26l.15-.07c.21.25.43.51.84,1-.12-.68-.19-1.04-.25-1.39.07-.02.13-.05.2-.07l1.87,4.87c.22-.3.22-.52.16-.73-.5-1.72-1.02-3.45-1.53-5.17.04-.08.07-.16.11-.24-.08.04-.16.08-.24.11-2.04,1.31-1.95,1.84-1.27,3.74.12.33.22.67.33,1,.79,2.49,1.59,4.99,2.38,7.48,0,.12,0,.24,0,.37,1.26,3.86,2.55,7.72,3.79,11.6.77,2.39,1.47,4.81,2.21,7.21-.19-.21-.49-.39-.57-.64-.96-3.15-1.85-6.32-2.85-9.45-.55-1.71-1.32-3.35-1.89-5.06-.67-2.01-1.24-4.06-1.86-6.08-.82-2.7-1.64-5.39-2.46-8.08-.29.55-.53,1.16-.4,1.66.57,2.14,1.21,4.27,1.91,6.37.99,2.94,2.08,5.83,3.08,8.77.71,2.08,1.32,4.2,1.98,6.3.5,1.57,1.03,3.12,1.52,4.69.05.15-.17.39-.27.58-.28-.94-.53-1.89-.84-2.82-1.15-3.5-2.34-6.99-3.49-10.49-.41-1.24-.69-2.52-1.12-3.75-1.17-3.35-2.38-6.68-3.53-9.88-.55.53-1.31,1.27-1.92,1.85.68,2.43,1.29,4.78,1.99,7.12,1.11,3.72,2.26,7.43,3.4,11.14.8,2.59,1.63,5.16,2.42,7.75.15.48.46,1.22.26,1.45-.68.77-.68,1.49-.28,2.39-.34-.35-.63-.71-.72-1.11-.28-1.2-.41-2.43-.74-3.61-.67-2.38-1.41-4.74-2.16-7.1-1.15-3.63-2.33-7.25-3.47-10.88-.57-1.82-1.07-3.65-1.61-5.48.12-.04.24-.08.36-.12.18.6.34,1.2.53,1.79.46,1.39.95,2.77,1.42,4.15.09.11.17.22.26.32-.04-.15-.08-.29-.13-.44-.62-2.38-1.25-4.76-1.91-7.27-1.25,1.22-1.3,1.27-.92,2.64.46,1.66,1.06,3.28,1.51,4.94.72,2.65,1.26,5.35,2.08,7.97,1.59,5.1,3.32,10.16,5.01,15.26-.05.02.07,0,.17-.06.6-.37,1.45-.64,1.71-1.18.21-.43-.31-1.21-.47-1.84-.85-3.38-1.64-6.78-2.56-10.15-.7-2.57-1.57-5.09-2.35-7.63-.47-1.53-.85-3.09-1.37-4.6-.52-1.52-1.17-3-1.73-4.51-.11-.3-.1-.65-.17-1.11.32.17.48.25.63.34.09-.33.17-.64.3-1.16,2.97,9.28,5.86,18.31,8.83,27.59.22-.7.33-1.03.43-1.36.26.62.52,1.25.86,2.05.51-.47.85-.78,1.18-1.09.14.02.36.11.4.06.56-.67,1.18-1.31,1.61-2.06.37-.63.75-1.4.71-2.08-.06-.93-.53-1.84-.89-2.95.39.19.53.25.67.31.14.78.27,1.55.41,2.33,1.11-.98,3.01-.52,3.27-2.08.2-1.17.79-2.43.02-3.86.21-.09.56-.24,1.05-.45-.95-.2-1.49-.37-2.04-.41-.25-.02-.61.13-.75.33-.29.4-.74.95-.64,1.32.38,1.41.45,1.39-.18,2.48.06-.76.11-1.35.16-1.94-.7,1.27-.81,2.49.44,3.53-.12.07-.23.14-.35.2-.41-.52-.83-1.05-1.24-1.57-.3-.54-.6-1.09-.92-1.66.41.03.82.06,1.12.08.42-.96.56-2.21,1.22-2.6,1.38-.81,1.12-1.72.8-2.84-.07-.26-.05-.58.05-.84.15-.41.63-.84.56-1.18-.37-1.96-.86-3.9-1.31-5.84-.03-.14-.16-.38-.25-.38-1.35,0-.93-1.1-1.14-1.97-.67,1.22-1.36.3-1.61-.05-.38-.52-.38-1.32-.54-2-.12.01-.25.02-.37.04.05.63-.03,1.32.2,1.88.22.52.77.91.94,1.09-.91.55-1.94,1.34-3.1,1.8-1.36.54-.92,1.52-1.12,2.39.57-.54,1.19-1.48,1.53-1.38,1.11.31,1.63-.14,2.25-.92.56-.7,1.39-.57,1.74.24-1.63-.85-1.79.55-2.28,1.41-.47-.1-.9-.3-1.3-.26-.38.04-.96.24-1.07.52-.5,1.29-.36,2.59.37,4,.49-.67.89-1.23,1.3-1.79l-.02.02h1.36c.45-.68.74-1.42,1.28-1.83.42-.32,2.18.84,2.26,1.52.07.64,0,1.68-.39,1.92-1.17.73-2-.22-2.76-1.13-.33,2.36-.45,2.44-2.73,1.86-.28-.07-.58-.04-1.07-.06.6.56.99.93,1.27,1.2-.41.75-.74,1.35-1.07,1.96.08-.75.15-1.5.23-2.24-.72.74-.77,1.53-.36,2.36.36.39.83,1.18,1.07,1.11,1.21-.33,1.48.75,2.12,1.23.03.02-.12.26-.19.4-.08-.04-.16-.07-.24-.11.04.08.08.16.11.24.54,1.76,1.07,3.51,1.61,5.27-.05.02-.09.04-.14.07-.21-.38-.41-.76-.62-1.14l-.24-.48ZM71.65,213.96c-.08-.16-.16-.32-.24-.48-.16-.48-.32-.96-.48-1.44-.34-1.3-.68-2.6-1.02-3.91-.16.05-.32.1-.48.15.45,1.29.91,2.58,1.36,3.87.16.48.32.96.48,1.44.08.16.16.32.24.48l.26.32c-.04-.15-.08-.29-.12-.44ZM75.49,201.97c-.09-.11-.17-.22-.26-.32.04.15.08.29.13.44.08.16.16.32.24.48.08.24.16.48.24.72.09.11.17.22.26.32-.04-.15-.08-.29-.13-.44-.08-.24-.16-.48-.23-.71l-.24-.48ZM72.61,217.32c-.09-.11-.17-.22-.26-.32.04.15.08.29.13.44.05.2.09.4.14.6.07-.02.14-.04.21-.06-.07-.22-.14-.44-.22-.66ZM75.35,227.02c.09.11.17.22.26.32-.04-.15-.08-.29-.13-.44-.04-.27-.07-.55-.11-.82-.09.02-.17.04-.26.05.08.29.16.59.24.88ZM85.79,205.09c-.08-.32-.16-.64-.24-.96.07-.62.14-1.24.23-2.02.07-.05.34-.21.58-.37-.18-.37-.35-.71-.57-1.17-.33.77-.62,1.44-.9,2.11l-.44-.25c.58-.93,1.03-1.98,1.76-2.76.8-.85,1.88-1.42,2.79-2.17.86-.71,2.23-.68,2.73.25.4.73.9.61,1.53.61.49,0,1.06-.51,1.5.13-.22.24-.44.49-.62.68-.33-.19-.69-.39-1.29-.72.56,1.87,1.04,3.45,1.49,4.96.49-1.02,1.05-2.19-.32-3.47.48.1.73.15,1.19.25-.12-.71-.22-1.26-.32-1.81,0-.23.08-.62-.02-.67-1.56-.78-3.15-1.39-4.96-1.2-2.01.21-3.46,1.41-4.84,2.7-.46.43-1,1.05-1.02,1.6-.04,1.05-.58,2.42,1.02,2.97.15.05.22.3.33.46.08.32.16.64.24.96.11.43.23.85.34,1.28l.35-.14c-.19-.42-.38-.84-.56-1.26ZM78.35,232.42c-.08-.04-.16-.07-.24-.11.04.08.08.16.11.24.32.42.65.84.97,1.27.15-.19.31-.37.46-.56-.44-.28-.87-.56-1.31-.84ZM80.38,194.41l.14.6c.07-.02.14-.04.21-.05l-.22-.67c-.15-.84-.3-1.69-.45-2.53-.16.04-.32.08-.48.12.27.84.53,1.69.8,2.53ZM70.32,204.01c.08.04.16.07.24.11-.04-.08-.08-.16-.11-.24-.32-1.16-.64-2.31-.95-3.47-.15.05-.3.1-.45.15.43,1.15.85,2.3,1.28,3.45ZM72.95,211.68l.14.6c.07-.02.14-.03.21-.05-.07-.22-.15-.44-.22-.67-.38-1.27-.76-2.54-1.14-3.81-.18.06-.35.13-.53.19.51,1.25,1.02,2.49,1.53,3.74ZM86.99,213.84c.73-2.3.82-4.62.6-6.96-.12,0-.24-.01-.36-.02-.12,2.29-.25,4.57-.37,6.86-.07.22-.15.44-.22.66.07.02.14.04.21.06.05-.2.1-.4.14-.6ZM76.79,207.84c.09.37.18.74.27,1.12.14-.05.29-.11.43-.16l-.56-1.08c-.97-2.67-1.95-5.33-2.92-8l-.42.15c.58,1.65,1.13,3.31,1.77,4.93.41,1.04.96,2.03,1.45,3.04ZM59.06,230.63c.08.04.16.07.24.11-.04-.08-.08-.16-.11-.24-.61-2-1.22-4-1.83-6-.2,2.28.04,4.42,1.7,6.13ZM65.89,229.54l-.24-.24c-.77-1.11-.26-2.44-.62-3.64-.5-1.65-.88-3.33-1.3-5.01-.94-3.68-1.32-7.52-3.45-11.2-.61,1.34-1.5,2.46-1.54,3.6-.05,1.27.67,2.58,1.06,3.87.96,3.24,1.9,6.48,2.9,9.7.28.89.42,1.91,1.22,2.52l.37-.15c-1.51-5.7-3.03-11.4-4.54-17.1l.43-.13c.11.23.27.45.32.7.36,1.69.63,3.4,1.06,5.07.78,2.96,1.6,5.91,2.51,8.83.33,1.07.97,2.04,1.46,3.06l.24.24c-.29.08-.58.16-.82.23.11,1.65,1.56,2.11,2.6,3.02.1-.39.14-.79-.03-1.07-.5-.8-1.08-1.54-1.62-2.3ZM70.69,222.11c-.32-1.36-.64-2.72-.96-4.08-.06-.43-.07-.87-.19-1.28-.7-2.4-1.45-4.79-2.14-7.2-.69-2.4-1.33-4.81-1.99-7.22.21.03.43.05.73.09-.04-.39-.07-.72-.14-1.35-.36.57-.53.85-.71,1.13-.16.24-.32.48-.48.72-.64.96-1.28,1.92-1.92,2.88-1.07.71-1.12,1.75-.77,2.81.77,2.35,1.65,4.67,2.41,7.03.38,1.19.57,2.44.88,3.66.56,2.18,1.14,4.35,1.71,6.53-.06.02-.11.03-.17.05-1.76-5.95-3.52-11.89-5.29-17.84-.19.03-.38.06-.57.08.03.47,0,.96.12,1.4.28,1.06.67,2.09.96,3.15.49,1.78.94,3.56,1.39,5.35.43,1.71.87,3.42,1.24,5.15.35,1.61.43,3.31.97,4.85.47,1.35,1.41,2.54,2.15,3.79.19-.08.38-.17.56-.25-.67-1.59-1.34-3.17-2-4.76.94,1.3,1.66,2.67,2.4,4.02.23.43.52.82.72,1.26.11.24.08.54.11.82.17-.04.46-.04.5-.13.11-.27.19-.6.16-.88-.03-.26-.26-.48-.35-.74-.82-2.36-1.76-4.69-2.43-7.1-1.05-3.78-1.91-7.61-2.87-11.42-.56-2.24-1.14-4.48-1.72-6.71.28.48.66.92.81,1.43.51,1.76.94,3.54,1.39,5.31.76,3.01,1.52,6.01,2.24,9.02.9,3.77,1.68,7.59,4.33,11.04.1-.7.16-1.11.22-1.52.21.1.44.2.67.3-.16-.61-.47-1.04-.79-1.47-.46-.6-1.12-1.13-1.35-1.8-.72-2.1-1.31-4.25-1.91-6.4-1.4-5.08-2.77-10.16-4.14-15.24-.15-.55-.18-1.13-.26-1.69.1-.02.2-.03.3-.05.62,2.51,1.21,5.03,1.86,7.52.93,3.52,1.98,7.02,2.84,10.56.56,2.3,1.19,4.54,2.53,6.54.05-.34,0-.66-.08-.98-.73-2.65-1.46-5.3-2.2-7.95-.67-2.42-1.11-4.93-2.07-7.23-1.39-3.32-1.69-6.85-2.49-10.28.13.16.34.3.38.48.26,1.18.39,2.41.75,3.56,1.14,3.7,2.35,7.37,3.54,11.06.32,1.36.64,2.72.96,4.08.08.62.08,1.27.27,1.86.59,1.79,1.25,3.56,1.89,5.34.08.04.16.07.24.11-.04-.08-.08-.16-.11-.24-.03-2.6-1.33-4.82-2.15-7.19ZM73.28,231.41c.36-.24.7-.47,1.04-.71.13.03.26.06.4.09-1.4-4.61-2.8-9.22-4.21-13.84-.19.06-.39.12-.58.18,1.23,4.31,2.47,8.61,3.77,13.15-.57-.21-.74-.26-1.19-.43.36.72.58,1.17.77,1.55ZM74.07,214.08c-.15.05-.29.1-.44.16,1.26,4.82,2.53,9.64,3.8,14.52.5-.41.86-.64,1.14-.95.21-.25.4-.59.42-.9,0-.12-.46-.28-.7-.43-.22-.14-.56-.24-.62-.44-.68-2.16-1.32-4.34-1.97-6.51-.55-1.82-1.09-3.64-1.64-5.46ZM88.25,204.7c.1,0,.2.01.3.02-.23,3.31-.46,6.62-.69,10.03,1.14-1.17,1.64-11.88.46-13.52-.23,1.91-.43,3.51-.63,5.11.14.02.27.03.41.05.05-.56.1-1.13.14-1.69ZM87.19,197.15c-.07-.2-.14-.4-.2-.61-2.71-.12-5.05.79-7.02,2.78-.75.76-.98,1.79-.52,3.13.12-.14.26-.24.3-.37.91-2.99,2.53-4.22,5.55-4.34.64-.02,1.26-.39,1.89-.59ZM76.79,192.18c-.14.29-.45.63-.39.86.69,2.57,1.44,5.13,2.17,7.69.43-2.98-1.03-5.59-1.79-8.56ZM79.75,199.02c-.55-2.51-1.06-4.86-1.58-7.21-.38.27-.7.68-.62,1,.49,1.97,1.06,3.93,1.64,5.88.05.16.38.24.55.34ZM83.83,207.76c-1.04.07-1.39.53-1.25,1.31.14.76,1.18,1.54,1.84,1.36.23-.06.58-.48.54-.57-.33-.73-.75-1.42-1.13-2.1ZM68.83,212.76c.17-.05.34-.1.5-.15-.53-1.73-1.05-3.47-1.58-5.2-.14.04-.29.09-.43.13.5,1.74,1.01,3.48,1.51,5.22ZM81.61,209.55c-.85-.1-1.36.39-1.56,1.54,1.6.58,1.52-.53,1.56-1.54ZM86.97,201.88c.61-.79.99-1.62.05-2.44-1.43.79.38,1.62-.05,2.44ZM83.37,200.57c.49-.55.89-.99,1.36-1.51-.68-.24-1.14-.4-1.74-.61.13.75.24,1.36.38,2.13ZM81.25,202.82c-.27-.47-.5-.88-.74-1.29-.07.01-.14.03-.21.04v1.9c.36-.24.64-.43.95-.64ZM82.6,198.99c-.14.03-.27.05-.41.08.2.89.39,1.78.59,2.66.13-.03.27-.06.4-.09l-.59-2.66ZM73.78,232.83c.1.03.2.06.31.09q.81-.9-.08-1.47c-.08.5-.15.93-.22,1.37ZM59.37,221.03c-.11.03-.22.07-.33.1l.61,1.92c.1-.03.21-.06.31-.09-.19-.64-.39-1.29-.58-1.93ZM65.74,233.56c-.14-.04-.29-.09-.43-.13-.11.35-.23.71-.34,1.06.15.05.3.09.45.14.11-.36.21-.72.32-1.07ZM72.12,233.3l.56.09v-1.09c-.12,0-.24,0-.36-.01-.07.34-.13.68-.2,1.01ZM68.73,233.96c.15.08.3.15.44.23.12-.27.25-.53.34-.81,0-.02-.36-.19-.37-.18-.16.24-.28.5-.41.76ZM64.33,232.86c-.16.28-.35.46-.33.61.02.16.24.3.38.45.13-.16.35-.31.38-.49.02-.13-.21-.3-.42-.58ZM70.22,233.5h.99c-.04-.25-.08-.5-.14-.93-.33.36-.5.55-.85.93ZM65.02,231.72c-.16.05-.31.1-.47.16.1.27.2.54.3.82.12-.03.23-.07.35-.1-.06-.29-.12-.58-.18-.87ZM84.16,198.2c0,.08,0,.15,0,.23l1.22.09c0-.11,0-.21,0-.32h-1.22ZM63.26,233.59c-.11-.07-.21-.15-.32-.22-.15.22-.29.45-.44.67.1.07.19.14.29.21.16-.22.31-.44.47-.66ZM84.03,223.48c-.12-.06-.24-.11-.36-.17-.14.37-.28.75-.42,1.12.08.04.17.07.25.11.18-.35.36-.7.53-1.05ZM86.43,211.71c-.14.02-.27.04-.41.05.07.31.14.63.2.94.09-.01.17-.03.26-.04-.02-.32-.04-.64-.05-.95ZM64.36,230.75l.29-.08c-.11-.33-.22-.67-.33-1-.08.02-.16.05-.23.07.09.34.19.68.28,1.02ZM77.89,212.3l.31-.15c-.12-.25-.24-.5-.36-.76l-.31.14c.12.25.24.51.36.76ZM68.65,232.58c-.41.27-.59.35-.58.39.04.16.14.31.21.47.08-.18.15-.36.37-.85ZM66.94,234.18c.08-.49.14-.67.11-.69-.15-.08-.32-.12-.48-.17.08.19.16.37.37.86ZM87.36,202.53c-.12,0-.23,0-.35,0,.07.29.14.57.21.86.06,0,.12-.02.18-.03-.01-.28-.03-.56-.04-.84ZM87.85,198.73c-.08,0-.15,0-.23,0v.6c.08,0,.15,0,.23,0v-.6ZM87.2,206.5s.09,0,.14,0v-.74c-.06,0-.13,0-.19,0,.02.25.04.49.05.74ZM78.09,210.1s.1,0,.15,0v-.75c-.06,0-.13,0-.19,0l.04.74ZM80.73,195.97h.15v-.6h-.15v.6ZM74.27,223.3s.1,0,.15,0v-.59s-.1,0-.15,0v.59ZM63.58,234.32c.19.11.27.2.37.21.06,0,.2-.11.19-.14-.02-.09-.09-.19-.17-.22-.06-.02-.16.06-.39.15ZM103.04,234.68v.15h.59v-.15h-.59ZM73.26,198.17c-.04-.06-.08-.11-.11-.17-.04.05-.12.12-.11.16.02.07.09.13.14.19.03-.06.05-.12.08-.18ZM73.65,213.37s-.13.08-.14.12c0,.07.05.14.07.2.05-.04.14-.08.14-.12,0-.07-.05-.14-.08-.21ZM72.21,215.53s-.13.08-.14.12c0,.07.05.14.07.2.05-.04.14-.08.14-.12,0-.07-.05-.14-.08-.21ZM66.31,202.96c-.04-.06-.08-.11-.11-.17-.04.05-.12.12-.11.16.02.07.09.12.14.19.03-.06.05-.12.08-.18ZM73.02,218.6c-.03-.06-.05-.12-.08-.18-.05.06-.13.12-.14.19-.01.04.07.11.11.16.04-.05.08-.11.11-.17ZM60.08,223.89c-.03-.07-.06-.14-.08-.2-.05.04-.14.08-.14.12,0,.07.05.14.07.2.05-.04.1-.08.15-.12ZM74.54,223.93c-.03.07-.09.15-.07.18.04.05.12.07.18.1.01-.07.05-.14.03-.19,0-.04-.09-.06-.14-.09ZM60.23,224.4s-.13.08-.14.12c0,.07.05.14.07.2.05-.04.14-.08.14-.12,0-.07-.05-.14-.08-.21ZM76.37,204.16c-.04-.05-.08-.11-.11-.17-.04.05-.12.12-.11.16.02.07.09.13.14.19.03-.06.05-.12.08-.18ZM68.86,231.83s-.13.08-.14.12c0,.07.05.14.07.2.05-.04.14-.08.14-.12,0-.07-.05-.14-.08-.21ZM58.56,233.29c-.07-.03-.15-.09-.18-.07-.05.04-.07.12-.1.18.07.01.14.05.19.03.04,0,.06-.09.09-.14ZM72.96,197.32s-.05-.03-.07-.04c0,.05,0,.1,0,.14.02-.01.06-.02.07-.03.01-.01,0-.05,0-.07ZM81.82,199.48s-.05-.03-.07-.04c0,.05,0,.1,0,.14.02-.01.06-.02.07-.03.01-.01,0-.05,0-.07ZM82.06,200.44s-.05-.03-.07-.04c0,.05,0,.1,0,.14.02-.01.06-.02.07-.03.01-.01,0-.05,0-.07ZM75.11,200.92s-.05-.03-.07-.04c0,.05,0,.1,0,.14.02-.01.06-.02.07-.03.01-.01,0-.05,0-.07ZM79.67,203.08s-.05-.03-.07-.04c0,.05,0,.1,0,.14.02-.01.06-.02.07-.03.01-.01,0-.05,0-.07ZM66.96,205.47s-.05-.03-.07-.04c0,.05,0,.1,0,.14.02-.01.06-.02.07-.03.01-.01,0-.05,0-.07ZM77.05,206.21s-.05-.05-.07-.07c-.02.02-.05.05-.07.07.03.03.07.05.1.08l.04-.07ZM77.29,206.69s-.05-.05-.07-.07c-.02.02-.05.05-.07.07.03.03.07.05.1.08l.04-.07ZM77.9,207.61l-.04.07s.1,0,.14,0c-.01-.02-.02-.06-.03-.07-.01-.01-.05,0-.07,0ZM77.51,210.51s-.05-.03-.07-.04c0,.05,0,.1,0,.14.02-.01.06-.02.07-.03.01-.01,0-.05,0-.07ZM73.39,213.01s.05-.05.07-.07c-.02-.02-.05-.05-.07-.07-.03.03-.05.07-.08.1.02.01.05.03.07.04ZM69.27,213.36l-.04.07s.1,0,.14,0c-.01-.02-.02-.06-.03-.07-.01-.01-.05,0-.07,0ZM72.01,215.08s-.05-.05-.07-.07c-.02.02-.05.05-.07.07.03.03.07.05.1.08.01-.02.03-.05.04-.07ZM87.83,216.04s-.05-.05-.07-.07c-.02.02-.05.05-.07.07.03.03.07.05.1.08.01-.02.03-.05.04-.07ZM70.04,216.61s.05-.05.07-.07c-.02-.02-.05-.05-.07-.07-.03.03-.05.07-.08.1.02.01.05.03.07.04ZM73.16,219.48s.05-.05.07-.07c-.02-.02-.05-.05-.07-.07-.03.03-.05.07-.08.1.02.01.05.03.07.04ZM73.39,219.96s.05-.05.07-.07c-.02-.02-.05-.05-.07-.07-.03.03-.05.07-.08.1.02.01.05.03.07.04ZM74.89,224.91s-.05-.05-.07-.07c-.02.02-.05.05-.07.07.03.03.07.05.1.08.01-.02.03-.05.04-.07ZM75.02,225.59s-.03.05-.04.07c.05,0,.1,0,.14,0-.01-.02-.02-.06-.03-.07-.01-.01-.05,0-.07,0ZM80.54,227.27s-.03.05-.04.07c.05,0,.1,0,.14,0-.01-.02-.02-.06-.03-.07-.01-.01-.05,0-.07,0ZM98.84,228.49l-.07-.04s0,.1,0,.14c.02-.01.06-.02.07-.03.01-.01,0-.05,0-.07ZM72.44,230.03s.05-.05.07-.07c-.02-.02-.05-.05-.07-.07-.03.03-.05.07-.08.1.02.01.05.03.07.04ZM78.38,233.26s-.03.05-.04.07c.05,0,.1,0,.14,0-.01-.02-.02-.06-.03-.07-.01-.01-.05,0-.07,0ZM62.17,233.53s-.05-.03-.07-.04c0,.05,0,.1,0,.14.02-.01.06-.02.07-.03.01-.01,0-.05,0-.07Z"/>
  <path d="M14.78,234.16c-4.35.11-8.22-1.4-11.82-3.79-.1.13-.21.27-.31.4.25.34.42.82.75.99,2.95,1.54,5.98,2.9,9.31,3.43-3.67.04-6.75-1.86-10.27-3.04.2.37.31.92.62,1.08,2.85,1.48,5.83,2.53,9.09,2.67,1.09.05,2.17.18,3.25.28,0,.15,0,.31,0,.46-1.38.03-2.76.15-4.13.05-1.49-.11-2.98-.35-4.43-.69-1.51-.35-3.04-.77-4.45-1.39-.93-.41-.44-1.44-.32-2.17.51-3.16,1.96-5.96,3.63-8.63,1.44-2.3,3.23-4.4,4.5-6.78,1.09-2.04,1.68-4.36,2.47-6.56.33-.92.51-1.92.95-2.79,1.15-2.27,2.51-4.43,3.58-6.73,1.92-4.09,5.39-7.01,7.81-10.7.92-1.4,1.52-3.01,2.26-4.52,1.01-2.08,2.05-4.14,3.01-6.24.73-1.6,1.33-3.26,2.07-4.85.32-.69.98-1.23,1.3-1.93,1.2-2.6,2.52-5.17,3.43-7.88.85-2.55,1.74-5.16,1.48-7.95-.11-1.18.46-2.11,1.25-2.95-1.13,1.8-.89,3.78-.89,5.73,0,.08.01.17-.01.24-1.11,2.98-1.14,6.34-3.19,9.01-.44.57-.61,1.34-.92,2.07.53.12.94.21,1.32.29-.69.39-1.29.74-1.9,1.09.17.24.34.47.56.78-.3.04-.66.08-1.41.18.58.63.97,1.06,1.45,1.58-.59-.21-1.14-.4-1.69-.59-.06.12-.11.24-.17.37l2.1,1.26c-.04.08-.08.16-.11.24-.64-.3-1.28-.6-2.09-.98-.22.35-.58.8-.83,1.3-1.09,2.22-2.19,4.44-3.2,6.69-.77,1.72-1.22,3.61-2.18,5.2-1.47,2.42-3.05,4.83-4.97,6.89-1.77,1.9-3.06,4.03-4.28,6.25-1.07,1.96-2.18,3.89-3.13,5.9-.55,1.15-.81,2.44-1.21,3.65-.35,1.05-.74,2.08-1.06,3.13-.17.56-.23,1.15-.34,1.72l.02-.02c.16,1.25.16,2.54.52,3.72.23.74,1,1.31,1.59,2.03-.47-.23-1.02-.49-1.57-.76-.08-.16-.16-.32-.24-.48-.3-.97-.6-1.93-.94-3.02-.39,1.32-.36,2.38.81,3.14.08.16.16.32.24.48.53.65,1.05,1.3,1.74,2.15-1.66-.62-2.06-2.27-3.48-3.33.2.66.32,1.03.44,1.42-.54-.06-1.06-.13-1.93-.23,1.46-.56,1.53-1.51,1.34-2.74-.66.98-1.26,1.83-1.79,2.71-.09.16.05.62.22.74.64.42,1.34.76,1.91,1.38-.62-.28-1.26-.53-1.85-.86-.84-.48-.83-.51-1.65.36.64.6,1.27,1.19,1.91,1.79-.05.07-.1.14-.16.2-.7-.53-1.4-1.07-2.09-1.59-1.19,1.88-.98,2.39,1.37,3.05.32.09.61.25.92.38-.04.1-.08.21-.12.31-.71-.29-1.5-.48-2.12-.9-1.33-.89-1.37-.92-2.13.9,1.29.47,2.57.94,3.85,1.41-.02.07-.04.15-.06.22-.93-.27-1.87-.51-2.78-.83-1.34-.47-1.4-.45-1.85,1.15,2.67,1.02,5.36,2.05,8.05,3.09-.02.07-.04.13-.05.2-1.64-.51-3.3-.98-4.92-1.54-.88-.31-1.7-.8-2.58-1.14-.26-.1-.61.03-.92.06.12.33.15.83.38.95,1.63.86,3.25,1.8,4.98,2.4,1.58.54,3.29.67,4.94,1.01.39.08.77.27,1.15.42,0,0,0,0,0,0ZM5.74,235.05c-.24-.08-.48-.16-.72-.24-.77-.42-1.54-.84-2.3-1.25-.08.18-.16.36-.24.54.81.28,1.62.57,2.43.85.24.08.48.16.72.24.56.16,1.12.32,1.68.48.22.07.44.15.66.22l.07-.21c-.2-.05-.4-.1-.6-.14-.56-.16-1.12-.32-1.68-.48ZM8.82,236.08c.05-.04.11-.08.16-.11-.05-.04-.12-.12-.16-.11-.07.02-.12.09-.19.14.06.03.12.05.18.08ZM10.32,217.92s-.03.05-.04.07c.05,0,.1,0,.14,0-.01-.02-.02-.06-.03-.07-.01-.01-.05,0-.07,0Z"/>
  <path d="M33.41,143.35c-.32,2.58,1.23,4.65,2,6.92.19.57.93.96,1.42,1.43,0,0,.02-.02.02-.02-1.51-.59-2.06-1.82-2.67-3.26-.87-2.05-1.22-4.13-1.36-6.3-.18-2.65,1.11-4.74,2.71-6.62.83-.97,1.96-1.7,3.01-2.46.78-.57,1.65-.77,2.58,0-.28.17-.57.35-.92.56.24.1.44.18.8.33-.44.26-.78.45-1.11.65-.08.08-.16.16-.24.24-.04.08-.07.16-.11.24.08-.04.16-.08.24-.11.08-.08.16-.16.24-.24l.99,3.6c-.19.03-.37.07-.56.1-.1-.96-.21-1.93-.31-2.89l-.22-.07c-.09.34-.27.7-.25,1.03.05.74.23,1.47.29,2.21.03.32-.15.66-.14,1,0,.48.1.95.16,1.42-.5-.01-.55,0-.89-2.2-.14-.91-.02-1.86-.02-2.79-.17,0-.34-.01-.51-.02,0,.95,0,1.91,0,2.86,0,.62.01,1.24.02,1.86-.08-.16-.16-.32-.24-.48-.12-1.29-.23-2.59-.35-3.88-.72.31-.65,1.62.22,4,.08.16.16.32.24.48.05.11.09.21.14.32-.16-.02-.44.01-.47-.05-.27-.72-.54-1.45-.73-2.2-.17-.64-.24-1.3-.38-2.11-1.07.61-.68,1.54-.68,2.26,0,2.54,1.99,3.05,4.1,3.72.3-1.16.6-2.29.86-3.3,2.36.95,4.78,1.93,7.19,2.9-.04.09-.07.19-.11.28-2.2-.85-4.41-1.69-6.57-2.52.53,1.07,1.5,1.54,5.22,2.72-.66-.08-1.32-.16-1.98-.24-1.2-.59-2.39-1.19-3.54-1.76-.67,1.29-.42,2.36.85,2.77,1.06.34,2.26.28,3.4.39.01-.11.03-.22.04-.34-1.21-.47-2.42-.93-3.64-1.4.02-.05.05-.11.07-.16.9.21,1.79.42,2.69.64,1.69.4,3.38.81,5.09,1.18,1.72.37,3.45.74,5.19,1,1.27.19,2.57.2,3.86.38-1.5.22-2.98.38-4.49-.17-.77-.28-1.58-.44-2.39-.56-.23-.03-.5.27-.76.42.03.11.06.21.09.32h-3.67c-.02-.09-.04-.17-.06-.26,1.06-.1,2.12-.19,3.19-.29v-.4c-1.54-.09-3.08-.35-4.6-.23-1.86.15-3.62.41-5.35-.68-.97-.61-2.16-.85-3.27-1.21-.19-.06-.46.11-.69.17.11.15.23.3.32.46.25.47.48.95.71,1.43-.1.05-.21.1-.31.15-.47-.65-.94-1.3-1.41-1.96-.03.4-.07.94-.11,1.48-1.19-.63-1.12-1.05-1.22-2.9-.15.95-.3,1.9-.48,3.04-.76-1.82.61-3.52-.21-5.25-.15.63-.31,1.26-.43,1.9-.14.77-.25,1.55-.37,2.32-.08-.04-.16-.07-.24-.11.04.08.08.16.11.24ZM38.69,135.31l-.11.24c.08-.04.16-.08.24-.11.04-.08.07-.16.11-.24-.08.04-.16.08-.24.11ZM35.94,141.54c-.08-.04-.16-.07-.24-.11.04.08.08.16.11.24-.08.41-.17.83-.25,1.24.12,0,.25.02.37.03v-1.4ZM36.42,135.43l1.33-.56c-.08-.14-.17-.28-.25-.42-.4.28-.8.56-1.2.85-.08.08-.16.16-.24.24-.4.56-.8,1.12-1.2,1.68-.04.08-.07.16-.11.24.08-.04.16-.08.24-.11.4-.56.8-1.12,1.2-1.68.08-.08.16-.16.24-.24ZM39.97,133.95c-.08-.13-.15-.27-.23-.4-.44.24-.88.48-1.33.72.08.14.15.27.23.41.44-.24.88-.49,1.32-.73ZM33.45,140.56h-.16v1.33c.05,0,.11,0,.16,0v-1.33ZM35.68,139.2c-.08-.03-.17-.06-.25-.09v1.17c.06,0,.13,0,.19,0,.02-.36.04-.72.06-1.08ZM34.74,138.08c-.09-.1-.18-.24-.2-.23-.09.04-.18.12-.24.2-.02.02.1.18.15.18.08,0,.17-.08.29-.15ZM36.75,136.42c-.07-.03-.15-.09-.18-.07-.05.04-.07.12-.1.18.07.01.14.05.19.03.04,0,.06-.09.09-.14ZM39.73,132.98c-.06.03-.12.05-.18.08.06.05.12.13.19.14.04.01.11-.07.16-.11-.05-.04-.11-.08-.17-.11ZM37.21,143.48s.05-.05.07-.07c-.02-.02-.05-.05-.07-.07-.03.03-.05.07-.08.1.02.01.05.03.07.04ZM35.77,138.68s.05-.05.07-.07c-.02-.02-.05-.05-.07-.07-.03.03-.05.07-.08.1.02.01.05.03.07.04ZM35.59,137.63s-.05-.05-.07-.07c-.02.02-.05.05-.07.07.03.03.07.05.1.08.01-.02.03-.05.04-.07Z"/>
  <path d="M54.58,198.19c.42-.58.83-1.15,1.25-1.73-.07-.11-.14-.22-.2-.33-1.18.16-2.36.31-3.54.47-.03-.09-.05-.18-.08-.26.84-.16,1.68-.32,2.52-.49.5-.1,1.3.36,1.33-.68,1.69-.46,1.8-2.37,3.04-3.32-2.13-.1-4.25-.61-6.23.55-.06-.09-.12-.18-.18-.28.3-.2.59-.54.9-.57,1.58-.13,3.17-.28,4.74-.23.85.02,1.47-.18,2.01-.77,1.18-1.3,2.34-2.61,3.54-3.96-2.1-.53-10.5-.23-11.8.39l-.13-.33c.62-.22,1.23-.6,1.86-.62,2.79-.07,5.6-.18,8.38.02,1.79.13,2.89-.61,3.89-1.85.34-.42.71-.81,1.17-1.34-3.17-.34-6.15.39-9.16.89,2.21.13,4.42.27,6.64.4-3.37.36-6.79-.46-10.12.53-.08-.04-.16-.07-.24-.11.04.08.08.16.11.24-.43-.05-.87-.1-1.4-.16,1.16-1.34,13.28-2.81,15.27-1.99-2.49,2-4.45,4.5-6.47,6.93-1.29,1.55-2.81,2.93-3.94,4.58-1.31,1.9-2.34,3.99-3.44,6.02-.67,1.23-1.21,2.53-1.87,3.76-2.15,4-3.49,8.21-2.88,12.8.36,2.71.84,5.42,2.02,7.95.59,1.27.75,2.73,1.36,3.98.71,1.46,1.7,2.78,2.59,4.19-.58.45-.67.43-1.39-.41h0c.14.02.28.04.42.06.08.04.16.07.24.11-.04-.08-.08-.16-.11-.24-2.71-3.65-3.85-7.94-4.91-12.23-.83-3.4-.92-6.87-.25-10.37-.24.02-.52.03-1.08.07.7-.48,1.18-.8,1.9-1.29-.63-.11-.89-.16-1.49-.27,1.42-.33,1.9-1.13,1.95-2.22l-.02.02c.39-.73.82-1.44,1.17-2.18.91-1.91,1.79-3.84,2.68-5.75,0,0-.01.02-.01.02ZM53.8,184.39s-.05-.05-.07-.07c-.02.02-.05.05-.07.07.03.03.07.05.1.08l.04-.07Z"/>
  <path d="M63.44,28.42c-.31-.12-.62-.23-.93-.35-.39-.15-.77-.29-1.37-.52,0,.03-.07-.23-.13-.44-.63.21-1.24.41-1.89.63,0-.23-.02-.35,0-.36q1.97-.85,1.97-2.97c0-1.72-.05-3.44.01-5.15.05-1.58.22-3.15.34-4.72.13,0,.26-.01.39-.02.04.31.05.63.12.93.2.84.5,1.72,1.57,1.57.73-.1,1.62-.35,2.08-.86.69-.77,1.13-1.8,1.55-2.78.41-.95.67-1.98,1.06-3.19.3.83.52,1.45.74,2.07.11-.02.21-.05.32-.07-.14-1.51-.28-3.03-.44-4.82-.41.47-.56.7-.76.86-1.4,1.12-1.64,2.76-1.8,4.35-.19,2.01-1.12,2.91-3.07,2.59-.29-.05-.54-.4-.78-.59.84.05,1.64.34,2.15.07.56-.29,1-1.04,1.24-1.68.25-.68.21-1.47.3-2.22,0-.08.08-.19.05-.23-1.17-1.22.46-1.2.8-1.7.56-.83,1.28-1.56,2.15-2.58.21,2.52.4,4.78.59,7.04-.1.05-.2.1-.3.14-.43-.5-.85-1-1.19-1.39-.71,1.41-1.45,2.79-2.11,4.2-.78,1.68-3.69,1.8-4.57-.1.62,3.65.67,7.29-.09,10.76.73.58,1.35,1.07,1.96,1.55l.02-.02Z"/>
  <path d="M56.58,233.36c-.85-1.57-1.73-3.13-2.52-4.73-.25-.51-.36-1.13-.39-1.71-.2-3.98.45-7.84,1.24-11.75.69-3.39,2.08-6.31,4.04-9.03,1.21-1.68,2.53-3.29,3.85-4.89,1.91-2.31,3.82-4.62,5.84-6.83,1-1.09,2.25-1.95,3.38-2.91.08.07.15.15.23.22-.16.18-.31.37-.47.54-2.48,2.49-5.08,4.88-7.42,7.49-1.67,1.86-2.9,4.11-4.51,6.02-1.76,2.1-3.31,4.33-3.97,6.97-1.15,4.63-2.36,9.3-1.81,14.14.14,1.23.87,2.4,1.4,3.56.43.93.97,1.81,1.47,2.71l-.37.18Z"/>
  <path d="M42.04,136.15c.57,1.57,1.47,2.75,3.7,2.67-.78.31-1.19.47-1.82.72-.66-.27-1.6-.66-2.68-1.1-.09-3.03.39-6.25,1.59-9.39.35-.9.27-1.98.33-2.98.05-.87.01-1.74.13-2.67.12,1.61.14,3.26,2.01,4-.48-.17-.95-.34-1.42-.51-.38,2.19-.46,2.12,1.4,2.94-.63-.2-1.25-.4-1.95-.62-.07.08-.21.22-.31.38-.08.13-.11.29-.19.5.64.39,1.28.77,1.91,1.16-.04.08-.09.16-.13.24-.62-.29-1.25-.57-1.9-.87-.89,2.01,1.03,2.25,2,3.06-.06.08-.12.15-.18.23-.74-.38-1.47-.77-2.44-1.27-.02,2.24,2.36,1.99,3.25,3.56-1.3-.77-2.33-1.37-3.36-1.98-.1.08-.21.16-.31.24.32.46.53,1.1.97,1.33,1.27.69,2.63,1.21,3.95,1.8.26.11.52.22.77.33-.07.15-.14.3-.2.45-1.67-.78-3.33-1.55-5-2.33-.08-.04-.16-.07-.24-.11.04.08.08.16.11.24ZM42.76,138.55c.08.04.16.07.24.11-.04-.08-.08-.16-.11-.24-.16-.08-.32-.16-.48-.24-.08-.08-.16-.16-.24-.24v-.84c-.15.02-.29.04-.44.06.1.3.21.61.31.91l.24.24c.16.08.32.16.48.24ZM43.92,139.16s.05-.05.07-.07c-.02-.02-.05-.05-.07-.07-.03.03-.05.07-.08.1.02.01.05.03.07.04ZM43.48,138.82s-.05-.03-.07-.04c0,.05,0,.1,0,.14.02-.01.06-.02.07-.03.01-.01,0-.05,0-.07Z"/>
  <path d="M60.14,5.59c-.37-1.16.52-1.88.96-2.75.08-.08.16-.16.24-.24.04-.08.07-.16.11-.24-.08.04-.16.08-.24.11-.08.08-.16.16-.24.24-1.16.08-2.31.16-3.47.24-.08-.04-.16-.07-.24-.11.04.08.08.16.11.24,1.18.98,1.16,2.1.88,3.58-.51,2.79.03,5.5,1.85,7.81.2.25.56.36.78.73-.35-.13-.88-.17-1.01-.42-.69-1.3-1.51-2.6-1.85-4.01-.44-1.79-.57-3.66.11-5.5.12-.32-.21-.92-.5-1.24-.36-.4-.89-.66-1.24-1.17,1.83-.74,3.97.74,5.22-1.55.66,1.2-.03,1.81-.55,2.39-.58.64-.74,1.17-.27,2,.37.64.42,1.46.39,2.33-.39-.51-.79-1.02-1.18-1.53.09,2.09-1.11,4.36,1.01,6.11-.13.07-.26.14-.39.21-.41-.61-1.09-1.18-1.16-1.83-.18-1.5-.09-3.03-.03-4.54,0-.25.37-.49.57-.73.08.08.16.16.24.24.08.04.16.07.24.11-.04-.08-.08-.16-.11-.24-.08-.08-.16-.16-.24-.24Z"/>
  <path d="M51.66,235.54c-.61.3-1.19.78-1.82.88-2.09.34-4.2.68-6.32.76-1.66.06-3.33-.34-4.99-.38-.79-.02-1.59.43-2.4.51-1.01.1-2.04.14-3.04.04-1.08-.11-2.14-.54-3.22-.58-2.43-.09-4.86,0-7.3-.04-1.2-.02-2.39-.21-3.59-.59.52,0,1.05-.01,1.57,0,3.18.08,6.35.14,9.53.25.82.03,1.72.06,2.43.4,1.52.73,2.89.39,4.41,0,1.37-.36,2.87-.21,4.31-.23,1.87-.03,3.75.13,5.6-.05,1.59-.15,3.15-.67,4.72-1.02.04.02.08.04.12.06Z"/>
  <path d="M31.01,218.81c-.22.06-.45.12-.67.19-.55.16-1.14.23-1.65.48-1.43.71-2.78.72-4.15-.16-.59-.38-1.22-.75-1.89-.94-3.56-1.03-4.29-4.83-2.66-7.83.55-1.01,1.58-1.75,2.92-1.76,1.17-.01,2.33-.11,3.5-.16,0,.1.02.2.02.3-.98.08-1.96.29-2.92.21-1.7-.14-3.37,1.2-3.74,3.1-.61,3.09.4,4.83,3.36,5.94.55.2,1.04.57,1.55.86,1.18.67,2.35.77,3.61.17.81-.38,1.71-.57,2.58-.85.05.15.09.3.14.45Z"/>
  <path d="M83.63,189.14c-.59-.18-1.18-.4-1.78-.52-.63-.12-1.34-.32-1.91-.15-1.57.49-3.08,1.17-4.61,1.77-.34.13-.66.3-.99.45-.06-.14-.11-.29-.17-.43,2.12-.86,4.25-1.73,6.52-2.66-3.98-1.93-7.93-3.85-11.89-5.77,5.25,1.69,9.96,4.54,14.83,7.29Z"/>
  <path d="M38.61,197.1c-1.26-.22-2.55-.34-3.78-.68-1.22-.34-1.3-1.55-1.53-2.57-.11-.45,0-1.04-.26-1.36-.8-1.04-.14-1.78.44-2.46,1.46-1.7,3.51-2.43,5.62-2.77,1.41-.23,2.89-.05,4.33-.02.19,0,.37.22.54.47-1.95-.74-3.9-.46-5.72.17-1.56.55-3.03,1.45-4.41,2.39-.61.41-1.05,1.23-.38,2.1.17.22.18.59.2.9.1,2.24.76,2.9,2.97,3.08.7.06,1.39.31,2.09.48-.03.09-.07.19-.1.28Z"/>
  <path d="M35.82,227.88c.42.48.72.87,1.06,1.22.81.83,1.74.66,2.69.29.68-.26,1.4-.43,2.08-.71.36-.15.89-.42.92-.68.05-.49-.05-1.15-.36-1.49-1.08-1.18-2.53-.81-3.89-.71-.38.03-.75.12-1.46.23,1.96-1.04,4.42-.98,5.61.19.43.42.52,1.36.46,2.03-.03.31-.76.6-1.22.81-.63.28-1.33.41-1.95.72-1.26.63-3.52.29-3.94-1.89Z"/>
  <path d="M104.43,232c-1.3.22-2.6.55-3.91.64-1.77.11-3.55.03-5.32.03-.01-.1-.02-.2-.03-.3,2.54-.55,5.09-1.1,7.63-1.64.02.11.05.22.07.33-1.34.32-2.68.63-4.02.95.01.11.03.22.04.33,1.52-.12,3.03-.25,4.55-.36.33-.02.67.03,1.01.05,0,0-.01-.02-.01-.02Z"/>
  <path d="M60.32,121.74c-.83.23-1.58.39-2.3.63-1.94.64-3.02,2.16-3.03,4.19,0,.28.02.56,0,.84-.2,1.95.25,2.36,2.25,2.05.22-.03.46.02.68.03,0,.12-.01.23-.02.35-.93-.08-1.87-.1-2.78-.29-.3-.06-.75-.64-.7-.89.34-1.56-.11-3.24.87-4.72.98-1.48,3.36-2.65,5.02-2.2Z"/>
  <path d="M36.48,235.77c4.47-.28,8.93-.56,13.4-.84,0,.12.01.24.02.37-4.46.28-8.93.56-13.39.84,0-.12-.01-.24-.02-.37Z"/>
  <path d="M93,239.72c-.93-.52-1.82-1.12-2.79-1.56-1.53-.69-3.14-1.22-4.65-1.94-1.01-.48-1.97-1.12-2.85-1.83-.61-.49-.54-1.12.03-1.64-.26,1.5.94,1.96,1.8,2.64.33.26.79.35,1.18.51,1.94.81,3.91,1.58,5.82,2.44.59.27,1.07.8,1.6,1.21-.05.05-.1.1-.14.15Z"/>
  <path d="M87.99,229.68c-.57.14-1.14.28-1.96.48.51.17.78.25,1.04.34.01.1.02.2.03.3-1.92.29-3.84.58-5.76.87-.02-.13-.05-.27-.07-.4,1.53-.19,3.06-.38,4.59-.57l-.05-.42c-1.03.08-2.05.17-3.08.25,0-.08-.01-.16-.02-.24,1.75-.3,3.51-.6,5.26-.9,0,.1.01.2.02.3Z"/>
  <path d="M55.66,156.06c-.12,1.32-2.83,2.86-3.99,2.47-1.35-.46-2.71-.9-4.04-1.44-.63-.26-1.18-.72-1.76-1.09l.18-.27c1.19.64,2.32,1.44,3.57,1.88,1.83.63,3.72.63,5.41-.52.3-.2.42-.68.62-1.03Z"/>
  <path d="M44,114.92c.2.03.42.06.73.1.02-.42.05-.79.07-1.17.07-.02.14-.03.22-.05.07.47.13.94.19,1.38-1.34.53-1.37,1.28-.2,3.14-1.57.41-.95,1.82-1.26,2.81-.16.51-.17,1.07-.5,1.56.25-2.56.5-5.11.76-7.78Z"/>
  <path d="M47.02,118.47c2-.6,3.27-.16,3.45,1.3.16,1.25.08,2.6-.22,3.82-.32,1.3-1.71,1.26-2.85,1.37.28-.11.54-.26.83-.33,1.42-.38,1.82-.89,1.83-2.34,0-.36-.03-.72,0-1.08.25-2.25-.17-2.78-2.58-2.7-.15,0-.31-.03-.46-.05Z"/>
  <path d="M55.35,82.47c-1.25-.27-2.35-2.06-2.29-3.86.33.63.61,1.17.89,1.7.13-.04.27-.08.4-.12-.11-.66-.22-1.32-.33-1.99.05-.02.1-.05.16-.07.56,1.2,1.12,2.4,1.75,3.77-.4-.27-.71-.48-1.03-.69-.1.06-.2.12-.3.18.23.34.47.68.74,1.08ZM54.5,80.64c-.1.09-.21.17-.31.26.15-.04.29-.09.44-.13.04-.08.07-.16.11-.24-.08.04-.16.08-.24.11Z"/>
  <path d="M45.07,172.72c1.17-.03,2.45-.37,3.5-.03,2.29.74,4.34.59,6.33-.73.07-.05.21,0,.34.1-1.34.86-2.6,1.77-4.39,1.46-1.89-.33-3.82-.45-5.73-.66-.02-.05-.03-.09-.05-.14Z"/>
  <path d="M94.59,209.21c-1.41-.07-2.92,1.08-3.17,2.3-.23,1.13.62,1.76,1.2,2.3.55.51,1.57.51,2.51.76h-2.6c-.43-.55-.9-1.02-1.21-1.59-.21-.37-.25-.87-.25-1.32,0-1.02,1.49-2.75,2.5-2.84.32-.03.67.26,1.01.4,0,0,.02-.02.02-.02Z"/>
  <path d="M63.42,28.43c1.25-.05,1.37.84,1.39,1.74.03,1.56-.07,3.12.04,4.67.06.95.42,1.87.62,2.81.05.21,0,.44,0,.65-.13.02-.26.05-.39.07-.21-1.02-.52-2.04-.61-3.08-.11-1.23-.06-2.47-.02-3.71.04-1.19.04-2.35-1.02-3.18,0,0-.02.02-.02.02Z"/>
  <path d="M72.8,168.46c-.23-.18-.45-.49-.69-.5-1.02-.06-2.05-.02-3.06-.02q-.23,1.45,3.61,2.15c-.84.31-3.46-.04-3.91-.65-.24-.32-.25-.89-.18-1.31.04-.23.46-.55.73-.56.99-.05,1.99-.05,2.97.05.21.02,1.22.03.51.83l.02.02Z"/>
  <path d="M58.95,137.35c.13-.21.27-.42.4-.64.06.02.13.04.19.06-.26,1.15-.51,2.3-.77,3.45-.08-.01-.17-.02-.25-.04.06-.67.13-1.33.19-2-.09-.02-.17-.04-.26-.07-.23.77-.47,1.54-.7,2.31-.11-.03-.22-.06-.34-.1.42-1.48.84-2.96,1.25-4.45.1.02.21.04.31.06-.05.43-.11.85-.16,1.28-.04.15-.08.29-.13.44.09-.11.17-.21.26-.32Z"/>
  <path d="M51.08,189.39c2.97-.21,5.94-.43,8.91-.64.01.12.02.25.03.37-2.97.21-5.94.42-8.91.63,0-.12-.02-.24-.03-.36Z"/>
  <path d="M66.97,75.37l-.58,1.14-.28-.07c.15-.99.3-1.97.44-2.96.59.1.93.15,1.52.25-.2.94-.41,1.9-.62,2.86-.12-.03-.24-.05-.36-.08.05-.34.11-.69.16-1.03-.1-.04-.19-.07-.29-.11ZM66.55,74.88c.49.06.68.11.69.08.07-.15.09-.32.12-.48-.18.09-.36.18-.82.4Z"/>
  <path d="M41.81,170.7c-.39-1.72,2.99-4.16,5.79-3.68-2.79.31-4.65,1.48-5.79,3.68Z"/>
  <path d="M56.38,235.59c.23.18.6.33.71.59.09.2-.06.64-.25.79-.89.7-1.81,1.35-2.74,1.98-.44.3-.94.5-1.41.75-.06-.09-.11-.18-.17-.28.22-.14.45-.28.66-.43,1.12-.78,2.26-1.54,3.34-2.36.11-.08-.07-.53-.15-1.04Z"/>
  <path d="M51.37,167.29c1.49.63,3.04,1.18,4.45,1.95.45.25.58,1.12.79,1.72.02.05-.41.26-.9.57.66-1.08.41-1.96-.44-2.3-1.23-.49-2.49-.93-3.73-1.39-.13-.05-.23-.17-.34-.26.05-.1.11-.2.16-.3Z"/>
  <path d="M54.23,100.62c-1.29-1.2-4.24-.43-5.46,1.25-.05-.92,1.47-2.12,3.28-2.35.77-.1,1.9-.53,2.19,1.11Z"/>
  <path d="M40.58,191.51c.53-.68,2.67-1.28,3.31-.84.19.13.36.45.36.69,0,.51-1.32,1.39-2.06,1.37.59-.49,1.14-.94,1.68-1.4-.05-.15-.1-.31-.16-.46-1.07.22-2.13.43-3.14.64Z"/>
  <path d="M101.78,229.59c-1.3.46-2.58,1.03-3.91,1.36-.84.2-1.78.04-2.69-.14,2.21-.18,4.46-.11,6.38-1.45,0,0-.02-.01-.02-.01.09.09.17.17.26.26v-.02Z"/>
  <path d="M72.75,189.42c.17-.24.33-.48.67-.97-.91.32-1.54.55-2.18.77-.04-.09-.09-.17-.13-.26.51-.23,1.12-.77,1.5-.64.95.32,1.63-.26,2.44-.37.09-.01.19.08.27.11-.82.52-1.63,1.02-2.44,1.53-.04-.06-.08-.11-.13-.17Z"/>
  <path d="M35.81,190.46c-.33.23-.65.46-.96.68.03-.68.87-1.53,1.41-1.31.18.07.18.57.26.87-.04.08-.07.16-.11.24.08-.04.16-.08.24-.11.13.85-.21,1.11-1.23.88.17-.38.34-.75.51-1.12.04-.08.07-.16.11-.24-.08.04-.16.08-.24.11Z"/>
  <path d="M35.37,212.16c-.45-2.28-1.4-4.14-3.23-3.82,0-.11,0-.22.01-.32.39.03.83-.04,1.16.12,1.59.74,2.41,2.23,2.06,4.03Z"/>
  <path d="M44.86,155.6c-1.53.07-3.06.14-4.71.22,1.56-1.56,3.19,0,4.69-.55,0,.11.01.22.02.33Z"/>
  <path d="M54.59,198.18c-1.72.45-3.44.89-5.27,1.37.11-.2.16-.4.25-.43,1.54-.41,3.09-.8,4.64-1.18.1-.02.25.16.37.25,0,0,.01-.02.01-.02Z"/>
  <path d="M64.64,130.21c-1.7,1.06-3.5.3-5.21.57l-.03-.32c1.72-.08,3.44-.17,5.24-.25Z"/>
  <path d="M66.72,194.5c1.21-1.1,2.42-2.2,3.62-3.3.09.1.18.19.26.29-1.21,1.1-2.41,2.19-3.62,3.29-.09-.09-.18-.19-.27-.28Z"/>
  <path d="M53.23,232.97c-1.75.62-4.36.48-4.84,0,1.62,0,3.23,0,4.84,0Z"/>
  <path d="M85.48,192.67c.11.34.21.69.32,1.03-.07.05-.13.1-.2.15-.92-1.25-1.84-2.51-2.76-3.76.08-.06.15-.12.23-.18.81.93,1.61,1.85,2.42,2.78,0,0-.02-.02-.02-.02Z"/>
  <path d="M52.65,200.38c-1.39.35-2.79.69-4.18,1.04-.03-.12-.07-.23-.1-.35,1.39-.36,2.78-.72,4.17-1.07.04.13.07.25.11.38Z"/>
  <path d="M11.65,215.94c.98.54,1.5,1.41,1.79,2.45-1.35-.27-1.31-1.55-1.77-2.47,0,0-.02.02-.02.02Z"/>
  <path d="M48.67,191.95c-.61-1.04-1.28-2.18-1.91-3.27,1.39.7,2.13,2.04,1.91,3.27Z"/>
  <path d="M48.45,152.91h4.14l-.02.37c-1.38-.05-2.79.19-4.13-.37Z"/>
  <path d="M82.21,193.25c.2,1.04.39,2.07.59,3.11-.14.03-.29.06-.43.09-.23-1.03-.46-2.06-.69-3.09.18-.04.36-.07.54-.11Z"/>
  <path d="M50.14,156.65c1-1.11,1.39-1.11,2.77-.14-.56.14-1.05.27-1.78.46.26-.33.37-.48.67-.87-.71.24-1.19.4-1.66.55Z"/>
  <path d="M62,151.91c-.31-.1-.62-.2-.93-.31.01-.08.03-.17.04-.25h3.63s.01.06.02.08c-.93.16-1.85.32-2.78.49,0,0,.02-.01.02-.01Z"/>
  <path d="M51.04,171.05c.55-.59,1.09-1.17,1.66-1.78.07.42.14.78.23,1.27-.51.24-1.11.52-1.72.8-.06-.1-.11-.19-.17-.29Z"/>
  <path d="M56.36,125.86c.22-1.67.97-2.48,2-2.53-.59.75-1.24,1.57-2,2.53Z"/>
  <path d="M52.09,232.33c-2.27-.06-3.56-.81-3.2-1.77.46,1.59,2.12.96,3.2,1.77Z"/>
  <path d="M27.21,212.71c.73-.47,1.45-.94,2.18-1.41l.28.46c-.74.45-1.47.91-2.21,1.36l-.25-.41Z"/>
  <path d="M49.19,146.08c.82-.15,1.42-.26,2.05-.38-.14,1.34-.15,1.34-2.05.38ZM50.58,146.23l-.04.07s.1,0,.14,0c-.01-.02-.02-.06-.03-.07-.01-.01-.05,0-.07,0Z"/>
  <path d="M43.2,234.51h3.3c0,.06,0,.12,0,.18h-3.31c0-.06,0-.12,0-.18Z"/>
  <path d="M50.78,229.18c-.19.31-.39.62-.65,1.03.46.11.84.2,1.22.29,0,.09-.02.17-.02.26-.44-.07-1.04.01-1.28-.24-.22-.23-.11-.84-.03-1.26.03-.14.4-.21.62-.32.05.08.09.16.14.25Z"/>
  <path d="M47.04,68.11c-1.03.13-2.07.26-3.1.39-.02-.11-.03-.21-.05-.32,1.03-.15,2.06-.3,3.09-.45.02.12.04.25.05.37Z"/>
  <path d="M48.31,62.26c.87-.39,1.74-.79,2.61-1.18-.33.93-1.46,1.43-2.6,1.17,0,0-.01.02-.01.02Z"/>
  <path d="M65.46,123.37c-.86-.31-1.71-.63-2.49-.92q.64-.32,2.49.92Z"/>
  <path d="M48.58,204.08c.74-.32,1.47-.65,2.21-.97.05.11.11.22.16.33-.72.32-1.45.64-2.17.96-.07-.11-.13-.21-.2-.32Z"/>
  <path d="M41.75,157.12c-.76-.11-1.51-.21-2.27-.32.01-.1.02-.21.03-.31.75.09,1.51.18,2.26.26,0,.12-.02.24-.03.36Z"/>
  <path d="M97.42,222.16c-.72.27-1.44.54-2.15.81l-.12-.32c.71-.29,1.42-.57,2.12-.86.05.12.1.24.15.36Z"/>
  <path d="M52.19,101.69c.68-.24,1.36-.48,2.04-.72.04.11.08.22.11.32-.68.24-1.36.48-2.04.72-.04-.11-.08-.22-.11-.33Z"/>
  <path d="M50.75,206.09c-.67.25-1.34.49-2.01.74-.03-.09-.06-.18-.09-.27.51-.23,1.02-.5,1.54-.68.14-.05.36.14.55.23,0,0,.02-.02.02-.02Z"/>
  <path d="M95.26,212.77c.44-.49.89-.98,1.33-1.46.07.07.13.14.2.21-.48.45-.96.91-1.44,1.36-.03-.04-.07-.07-.1-.11Z"/>
  <path d="M82.2,192.34c.51.41,1.03.82,1.54,1.23-.08.1-.16.2-.23.3-.48-.42-.97-.83-1.45-1.25.05-.09.1-.19.14-.28Z"/>
  <path d="M78.17,179.15h1.9l.02.16h-1.91c0-.05-.01-.1-.02-.16Z"/>
  <path d="M80.95,180.69c-.69-.04-1.38-.07-2.06-.11.03-.14.05-.29.08-.43.66.19,1.31.37,1.97.56,0,0,.02-.02.02-.02Z"/>
  <path d="M73.46,67.15c.54.14,1.09.27,1.63.41-.03.1-.05.19-.08.29-.55-.11-1.1-.23-1.65-.34.03-.12.06-.24.09-.36Z"/>
  <path d="M80.4,174.83c-.47.26-.93.51-1.4.77-.06-.09-.11-.18-.17-.28.46-.27.92-.54,1.38-.81.06.11.13.21.19.32Z"/>
  <path d="M86.44,188.83c-.59.17-1.17.35-1.76.52-.03-.11-.06-.22-.09-.33.54-.14,1.08-.28,1.62-.42,0,0-.02-.01-.02-.01.09.09.17.17.26.26v-.02Z"/>
  <path d="M95.36,220.34c.5-.1.99-.2,1.49-.31.02.1.04.2.06.3-.49.11-.98.23-1.47.34-.03-.11-.06-.22-.09-.34Z"/>
  <path d="M50.93,150.93c.34.16.7.29,1,.51.1.08.02.4.02.57-.43-.34-.76-.59-1.08-.84.02-.08.05-.16.07-.24Z"/>
  <path d="M47.85,120.24l1.22-.9c.07.09.13.17.2.26-.41.3-.82.6-1.23.9-.07-.09-.13-.18-.2-.26Z"/>
  <path d="M45.32,125.28c-.5-.17-.99-.35-1.49-.52.04-.1.07-.2.11-.3.49.19.98.37,1.47.56-.03.09-.06.18-.1.26Z"/>
  <path d="M40.55,227.8h-1.46c0-.05,0-.1,0-.16h1.46c0,.05,0,.1,0,.16Z"/>
  <path d="M72.78,168.45c-.49.2-.98.39-1.47.59-.04-.14-.07-.28-.11-.43.53-.05,1.07-.1,1.6-.14,0,0-.02-.02-.02-.02Z"/>
  <path d="M96.28,208.97c-.51.47-1.03.85-1.69.24,0,0-.02.02-.02.02.57-.08,1.15-.16,1.72-.24,0,0-.01-.02-.01-.02Z"/>
  <path d="M54.86,50.71c.31-.36.62-.72.92-1.08.08.06.15.12.23.18-.29.38-.59.75-.88,1.13l-.28-.23Z"/>
  <path d="M89.79,221.23l.3.43c-.36.18-.71.36-1.07.54l-.09-.21c.29-.26.58-.52.87-.77,0,0-.02.02-.02.02Z"/>
  <path d="M47.95,122.75c.07-.42.13-.84.2-1.26.11.01.21.02.32.03-.07.42-.15.84-.22,1.26-.1-.01-.2-.03-.3-.04Z"/>
  <path d="M58.57,124.32c-.29.31-.58.61-.87.92-.07-.07-.15-.14-.22-.2.28-.33.55-.66.83-.99.09.09.18.18.27.28Z"/>
  <path d="M29.61,213.52l1.06-.76s.08.04.11.07l-.86.97c-.1-.09-.21-.18-.31-.27Z"/>
  <path d="M51.04,169.91c-.37.16-.74.32-1.11.48-.05-.1-.09-.2-.14-.3.37-.16.74-.32,1.11-.48.05.1.09.21.14.31Z"/>
  <path d="M44.24,121.85c.3.19.6.38.9.57-.04.08-.08.15-.12.23-.34-.15-.67-.31-1.01-.46l.23-.34Z"/>
  <path d="M54.06,52.88c.28-.26.56-.53.84-.79l.18.19c-.3.25-.59.5-.89.74-.04-.05-.08-.09-.13-.14Z"/>
  <path d="M63.73,147.98c.37-.05.74-.1,1.11-.15.01.11.03.21.04.32-.37.04-.74.07-1.11.11l-.04-.28Z"/>
  <path d="M64.89,124.82c.34.03.67.06,1.01.1-.04.13-.08.27-.11.4-.3-.17-.61-.34-.91-.52l.02.02Z"/>
  <path d="M69.51,57.01c.13.25.26.49.39.74-.09.05-.17.09-.26.14-.13-.25-.26-.49-.38-.74.08-.04.17-.09.25-.13Z"/>
  <path d="M64.87,124.8c-.03.22-.06.44-.12.84-.25-.35-.41-.56-.6-.82.29,0,.51,0,.73,0,0,0-.02-.02-.02-.02Z"/>
  <path d="M54.35,102c.24-.12.49-.24.75-.37.04.13.1.25.08.26-.22.14-.46.27-.69.4-.05-.1-.09-.19-.14-.29Z"/>
  <path d="M85.5,188.12c-.37.06-.74.12-1.11.19v-.36c.38.06.76.13,1.13.19,0,0-.01-.02-.01-.02Z"/>
  <path d="M89.81,221.21c-.08-.25-.15-.5-.23-.75.12-.02.25-.04.37-.07-.05.28-.1.56-.16.83,0,0,.02-.02.02-.02Z"/>
  <path d="M95.98,217.44c.18.15.36.29.54.44-.05.07-.11.15-.16.22-.19-.14-.38-.28-.56-.41.06-.08.13-.16.19-.25Z"/>
  <path d="M44.57,120.2c.22.08.43.17.65.25l-.09.22c-.21-.09-.42-.19-.63-.28.02-.06.05-.13.07-.19Z"/>
  <path d="M88.71,223.12c-.19.1-.26.17-.35.18-.07.01-.15-.03-.22-.05.05-.09.07-.23.14-.26.08-.03.19.05.42.13Z"/>
  <path d="M89.94,219c-.03.07-.04.17-.09.19-.05.02-.17-.03-.19-.08-.02-.05.03-.17.08-.19.05-.02.13.05.2.08Z"/>
  <path d="M78.06,131.06l-.02-.07s.01.05.02.07c0,0,0,0,0,0Z"/>
  <path d="M54.09,232.48l-.02-.07s.01.05.02.07c0,0,0,0,0,0Z"/>
  <path d="M14.78,234.16s.01.05.02.07c0-.02-.01-.05-.02-.07,0,0,0,0,0,0Z"/>
  <path d="M75.58,156.98c.14.74.3,1.58.46,2.41-.08.03-.15.06-.23.09-.72-1.38-1.43-2.77-2.29-4.43,1.16.49.75,1.96,2.05,1.93Z"/>
  <path d="M70.02,123.2v4.2c-.05,0-.11,0-.16.01v-4.21h.16Z"/>
  <path d="M62.7,88.55c-.21-.3-.42-.59-.64-.89.07-.06.14-.11.2-.17l.73.87c-.1.06-.2.13-.3.19Z"/>
  <path d="M74.87,84.96c-.32,1.76-.64,3.52-.96,5.28-.13.14-.26.28-.65.69.48-2.58.89-4.85,1.31-7.12.1,0,.2,0,.3-.01v1.16Z"/>
  <path d="M82.51,142.65c-.53.31-1.06.62-1.59.93l-.18-.31c.53-.31,1.06-.62,1.59-.93.06.1.12.21.18.31Z"/>
  <path d="M81.2,144.66c.47-.42.95-.85,1.42-1.27.08.08.16.16.24.25-.47.43-.94.86-1.41,1.28-.08-.09-.17-.17-.25-.26Z"/>
  <path d="M76.22,150.38h1.03c0,.07.01.14.02.21-.34.02-.68.05-1.03.07,0-.09-.01-.19-.02-.28Z"/>
  <path d="M82.86,145.92c-.09-.28-.17-.57-.26-.85.13.01.26.02.4.03-.05.28-.1.56-.16.83,0,0,.02-.02.02-.02Z"/>
  <path d="M75.46,147.03h.62c0,.06.01.12.02.19-.21.03-.42.05-.63.08,0-.09,0-.18-.01-.26Z"/>
  <path d="M76.23,148.13c-.18.07-.28.14-.35.12-.07-.02-.13-.12-.19-.19.06-.05.13-.14.17-.13.1.02.19.1.37.2Z"/>
  <path d="M79,87.67c.42-.14.88-.47,1.26-.4,1.51.29,2.97.33,4.41-.25.19-.08.46.01.9.04-.7.62-2.09.05-1.8,1.46h-2.48l-.03-.26c.69-.04,1.39-.08,2.08-.11,0-.08,0-.17,0-.25-1.46-.08-2.91-.16-4.37-.24,0,0,.01.02.01.02Z"/>
  <path d="M74.21,93.1l.87-.66c.05.04.11.09.16.13-.24.27-.49.54-.73.81-.1-.09-.2-.19-.3-.28Z"/>
  <path d="M75.2,94.12c-.29.14-.57.29-.86.43.23-.26.16-1.37.84-.41,0,0,.02-.02.02-.02Z"/>
  <path d="M79.26,76.15c-.41.06-.82.12-1.23.19,0-.12,0-.24,0-.36.41.06.83.13,1.24.19,0,0-.01-.02-.01-.02Z"/>
  <path d="M79.91,214.56c-.2-.11-.4-.22-.6-.34.18-.31.3-.68.55-.92.21-.2.57-.25.88-.37.45.22,1.05.5,1.83.88v-1.97c.77,1.09.2,2.44.88,3.61.14-.89.29-1.78.42-2.64.45.39.81.69,1.21,1.04-.27.05-.61.12-.97.2-.4.6.45,2.12-1.39,1.74-.04-.55-.07-1.12-.11-1.66-.97-.48-1.78-.16-2.57.31l-.14-.6c-.07.02-.14.03-.21.05.07.22.15.44.22.67Z"/>
  <path d="M81.82,221.27l.24.48v.94c-.07.01-.13.02-.2.04-.65-1.6-1.31-3.2-1.96-4.8.1-.04.2-.08.3-.12.46,1,.92,2,1.38,2.99.08.16.16.32.24.48Z"/>
  <path d="M80.47,208.98c-.1-.26-.19-.52-.29-.79.14-.02.29-.04.43-.06-.05.29-.1.58-.15.87,0,0,.02-.02.02-.02Z"/>
  <path d="M83.77,206.43c-.25.1-.5.2-.75.3-.04-.08-.07-.17-.11-.25.25-.12.5-.24.75-.36.04.1.08.21.12.31Z"/>
  <polygon points="74.76 207 74.76 206.89 74.85 206.94 74.76 207"/>
</svg>