<?xml version="1.0" encoding="UTF-8"?>
<svg id="a" data-name="Layer_1" xmlns="http://www.w3.org/2000/svg" viewBox="0 0 97.57 117.28">
  <path d="M47.37,30.62c1.19-1.43,1.54-3.04,2.26-4.48,1.22-2.45,3-3.85,5.9-3.7,2.43.12,4.87.1,7.3-.01,1.01-.05,1.94.69,2.97.18.1-.05.42.31.62.5,1.03.99,1.69,2.3,2.98,3.09,1.2.72,1.37,2.17,1.77,3.35,1.55-.31,2.86-1,4.25-1.3,3.31-.72,6.67-.82,9.99.03.27.07.53.23.8.17,1.7-.37,3.09.6,4.58,1.09.8.26,1.26.83,1.22,1.8-.04,1.18.2,2.36.25,3.55.07,1.34-.57,2.08-1.61,2.62-.54.28-.69.67-.86,1.26-.72,2.45-.29,5.1-1.42,7.5-.92,1.96-1.62,4-2,6.18-.62,3.54-.82,7.05-.39,10.62.13,1.06.03,2.12-.49,3.11-.51.98-.1,2.09-.4,3.14-.4,1.45-.28,2.99-.3,4.5-.01,1.06.06,2.05.76,2.91.09.11.21.28.18.4-.59,2.59.29,4.91,1.14,7.31.52,1.48,1.28,2.84,1.77,4.31.68,2.05,1.01,4.13.73,6.31-.34,2.65.34,5.14,1.47,7.52.24.5.47,1,.64,1.52.67,2,.06,3.26-1.64,4.53-1.82,1.36-3.98,1.35-6.09,2.12,0,.99-1.03,1.1-1.81,1.15-4.53.28-8.62,2.39-13.06,3.03-.98.14-1.89.74-2.84,1.13-.86.36-1.7.32-2.5-.16-.81-.49-1.67-.62-2.61-.61-3.27.04-6.55.04-9.82,0-3.37-.04-6.59-.76-9.73-2.04-2.18-.89-4.09-2.26-6.24-3.17-.65-.27-1.33-.49-1.98-.76-1.94-.82-2.63-2.32-1.93-4.33.58-1.67,1.25-3.3,1.92-4.94.17-.42.33-.8-.02-1.25,1.41-.43,1.27-1.76,1.57-2.74.24-.77.41-1.63.37-2.5-.1-2.39-1.06-4.58-1.44-6.89-.54-3.27-.83-6.59-.2-9.88.41-2.13-.64-3.6-1.89-5.02-.23-.26-.45-.44-.59-.8-1.53-3.75-1.31-7.58-.8-11.5.46-3.51,1.59-6.95,1.31-10.54-.21-2.7-.41-5.43-1.69-7.9-.3-.58-.22-1.17-.2-1.75.03-.82-.11-1.35-1.1-1.45-.37-.04-.83-.07-1.22-.36-1.29-.95-2.33-1.85-1.83-3.79.33-1.29.09-2.73.06-4.1-.03-.94.3-1.38,1.3-1.4,2.07-.05,4.04-.93,6.14-.87.34.01.76-.18,1.04.02,1.8,1.24,4,1.34,5.95,2.11,1.05.41,2.13.16,3.19.18,1.5.03,3.02-.16,4.28.98ZM66.45,80.33c-.08-.04-.15-.08-.23-.12.04.08.08.15.12.23.08.08.16.16.24.24.09.22.28.23.48.24.08.08.16.16.24.24.05.18.28.3.16.55-.47.16-.56-.66-1.02-.48-.36.93.48,1.14.91,1.58-.3.39-.68-.36-.99.18.2.58.78.87,1.21,1.22-.88.87.48.81.47,1.32-.56.15-.86-.47-1.33-.5-.78,1.61,1.24,1.29,1.62,2.24-.57-.01-.87-.47-1.48-.37.67,1,.42,2.02.23,3.07-.43,2.39-.5,4.78.38,7.13.21.56.5,1.22.29,1.85-.31.91.09,1.59.59,2.26.16.22.39.38.39.7.02,1.57,1.59,2.28,2.03,3.63.03.09.19.22.27.21,1.12-.14,1.89.54,2.75,1.38.23-2.55,1.77-4.49,1.89-6.85.11-2.08,1.29-4.1-.05-6.25-.49-.79-.77-1.69-1.61-2.2-.71-.43-1.06-1.1-1.09-1.86-.19-4.16-1.86-8.03-2.38-12.13-.23-1.78-.85-3.53-.01-5.31.25-.53.74-1.15.63-1.61-.36-1.5.02-3.01-.25-4.54-.43.11-.79-.02-.99-.4-.2-.38-.51-.59-.73-.77-.35.03-.1.54-.6.36.18-.92-.2-1.69-.86-2.37.52-.21.6.44,1.04.29.04-.55.08-1.12.12-1.65.62-.04.47.82,1.13.66,0-.43-.02-.87,0-1.3.05-.84.51-.98,1.21-.24.69-2.73,1.47-5.36,1.65-8.12l-.03.03c.66-.86.49-1.88.53-2.85.44-.68.18-1.39.19-2.38-.38.41-.58.63-.77.84-.08.08-.16.16-.24.24-.43-.14-.57.55-1.21.32.82-.76,1.7-1.29,2.46-2.44.57,3.59-.6,6.63-.96,9.72.5.13.84-.55,1.4-.12-.52.36-.97.7-1.6.58-.08.5-.17.99-.26,1.53.37-.13.69-.24,1.01-.35.16.72-.05,1.15-.73,1.39-.26.09-.64.19-.59.63-.04.08-.08.15-.12.23.08-.04.15-.08.23-.12.81.01,1.56-.29,2.37-.57-.15,1.21-1.91.29-1.96,1.56.29.14.37-.36.62-.13.27.7-.35,1.71.76,2.13.27-.51-.02-.83-.24-1.22-.33-.57.38-1.12.5-.95.52.71,1.15.14,1.7.31,1.14.36,1.51,0,1.52-1.22.01-1.52-.2-3.08.73-4.46.04-.08.08-.15.12-.23-.08.04-.15.08-.23.12-.38.13-.52.66-1.11.68.19-.56.55-.96.92-1.1,1.14-.45,1.15-1.41,1.26-2.35.26-.35.43-.73.38-1.23-.41.16-.8.25-.97.65q-.3-.44.31-.86c.57-.39,1.37-.67.78-1.68-.63.47-1.15,1.01-2.16,1.41.45-.56.69-.85.93-1.15.19-.02.39-.02.48-.24.16-.16.32-.32.48-.48.34.02.5-.15.48-.48.4-.44.22-.91.14-1.44q-1.59,1.1-2.37.87c1.4-.45,2.22-1.38,2.8-2.93-.75.44-1.23.73-1.89,1.12.19-.69.66-.85.98-1.16-.17-.11-.31-.2-.52-.34.33-.23.71-.31.84-.67.12-.05.25-.11.37-.16-.04-.05-.08-.12-.13-.13-.16-.04-.27.05-.35.18-.47-.05-.78.5-1.4.36.43-.68,1.22-.68,1.72-1.18-.25-.72-.37-1.51-.88-2.23-.77.72-1.55,1.33-2.18,2.07-.83.97-1.88,1.85-1.64,3.4.06.41-.37.75-.97.64.52-2.92,2.58-4.74,4.67-6.6.99.26.93,1.36,1.32,2.16,1.11-.08,1.8-.94,2.71-1.36.59-.27,1.21-.52,1.78-.05,1.03.85,1.67.87,2.85-.03l-.03.03c.71.5.03.55-.24.76-.34.26-.93-.07-1.14.54.61,1.07,1.35-.42,2.05.07-.42.51-1.08.57-1.56.88.54,1.04,1,.28,1.4,0,.49.33-.35.75.43,1.22-.05-3.19,1.15-6.08,1.02-9.16-1.15-.38-2.14.27-3.16.11-1.44-.22-2.87-.45-4.31-.61-1.07-.12-2.1-.39-3.26-.19-1.37.23-2.65.94-4.08.81.27-.14.54-.31.83-.41,1.29-.43,2.66-1.31,3.91-1.05,2,.41,4.05.49,6.04.97,1.57.38,3.11-.18,4.65-.46-1.72-.83-3.59-.25-5.56-.63.95-.48,1.85.06,2.58-.5-.46-.64-.97-.05-1.45-.15.76-.83,4.81-.86,5.74.1h-2.92c1.13.7,2.14.46,3.08.64.25-.73.04-1.34-.28-1.98h-4.12c1.38-.49,2.86,0,4.45-.56-1.72-.76-3.38-.39-4.93-.7,1.54-.38,3.07-.1,4.74,0-.87-1.53-2.49.26-3.3-1.08.52,0,1.01.39,1.46-.05-1.31-.72-2.79-.19-4.15-.82-2.16-1.02-4.57-.89-6.89-.7-1.2.1-2.51-.07-3.6.53-1.27.69-2.67.89-4,1.34-1.91.64-3.97.48-5.88,1.15-2.8.98-5.62,1.21-8.59.58-2.14-.45-4.3-1.04-6.56-.8-1.46.15-2.93.11-4.23-.78-.46-.32-1.02-.19-1.52-.14-3.69.34-7.09-.69-10.38-2.21-.31-.15-.59-.07-.88-.09-2.12-.18-4.06.89-6.15.85-.77-.02-1.05.29-1.06,1.06-.04,1.52.37,3.08-.07,4.56-.38,1.28.41,1.74,1.16,2.54.3-.77.31-1.82,1.18-1.53,1.51.5,3.25-.5,4.61.82.17.17.62.03.93.08,1.62.3,3.31.03,4.91.66.79.31,1.69.53,2.53.5,4.22-.16,8.4.63,12.61.52,2.35-.06,4.71,0,7.07-.02,3.17-.03,6.26-.52,9.33-1.33,1.51-.4,3.05-.76,4.63-.81-1.15.51-2.4.69-3.61,1-3.36.88-6.75,1.45-10.24,1.55-6.36.18-12.7-.31-19.06-.52-.56-.02-1.12.02-1.71-.15-2.43-.67-4.92-1.08-7.46-1.04-1.35-.59-2.72-.94-4.2-.46,1.42-.17,2.71.56,4.1.57,1.89.85,3.73,1.68,5.91,1.75,1.46.05,2.93-.18,4.34-.02,2.1.23,4.18.74,6.32.78,1.34.03,2.69.61,3.99.24.98-.28,1.93-.37,2.92-.37,2.71,0,5.43,0,8.14,0,.43,0,.86-.02,1.3-.11,2.11-.47,4.17-1.22,6.34-1.28,2.03-.06,3.99-.08,5.9-.98,1.69-.79,3.53-.52,5.36-.32,1.98.22,3.84,1.31,5.96.68-.52.07-.6.72-1.06.71-3.06-.04-6.11.44-9.18.24-.42-.03-.42-.27-.29-.62.9-.04,1.84,0,2.69-.73-1.55-.27-2.89.08-4.13.68-1,.48-1.98.7-3.08.7-.98,0-1.96-.02-2.96.12-2.03.3-3.96,1.12-5.99,1.26-4.23.29-8.48-.16-12.73.42-2.2.3-4.53-.41-6.81-.59-1.07-.09-2.05-.67-3.14-.5-2.87.45-5.64.2-8.34-.94-.83-.35-1.69-.61-2.56-.88-.73-.22-.78.15-.95.6.36.23,1.02-.06,1.09.75-.64-.22-1.23-.42-1.9-.65.08,1.04,1.22,1.89.24,2.88.08.08.17.15.25.23l-.03-.03c.14.69.42,1.31.82,1.9.44-.5.83-.96,1.27-1.47.5.43,1.06.68,1.22,1.57-.47-.38-.77-.62-1.07-.86l-.23-.12c.04.08.08.15.12.23-1.31.93-1.48,1.51-.8,3.35.55,1.5,1.86,1.47,3.16,1.47-1.04.75-2-.08-3.04-.25-.09,1.02.37,1.92.21,2.86.88.48,1.69,1,2.95.96-1.24.82-2-.29-3.13-.24.85.79,1.58,1.37,2.53,1.92-1.16.32-1.41-.94-2.27-.96-.17.47.02,1.02-.4,1.48.42.07.72.12,1.02.18.15.29.36.5.72.48.3.75,1.28.72,1.79,1.58-1.52-.11-2.03-1.79-3.4-1.73.06,1.19,2.23,2.63,3.61,2.34.02-3.03-.12-6.09.48-9.1.13-.65-.2-1.19-.51-1.77-.35-.65-1.16-.98-1.37-2.08.52.5.81.83,1.15,1.08.36.26.36.82.84.96.92-2.08,1.87-2.58,3.38-1.76-.6.25-1.3-.13-1.86.24-.64.43-.73.93-.05,1.36-.28.47-.72-.33-.92.25-.26.78.79-.11.67.52-.24.28-.81-.13-.93.49-.13.65.45.61.73.84-.14.35-.58.08-.68.41-.11.41.48.51.43.89-.2.28-.44-.18-.65.07-.06.42-.13.85.05,1.22.34.26.84-.1,1.09.37-.43.3-.97-.05-1.28.21-.51.77.55.69.5,1.19-.92.2-.97.57-.22,1.1-.9.65.06,1.03.25,1.43-.13.46-.58-.09-.68.43.61.53.1,1.14,0,1.75-.35,2,.84,3.82.58,5.7.31.31.59-.28.79.13-.03.56-.72.25-.86.71.24.58.93.39,1.34.68-.22.42-.73.03-.98.5.66.04,1.27.07,1.87.1.22.56.17,1.19.64,1.62.62-.4.03-.94.2-1.4.41.23.78.44,1.06.6,1.29-.6,1.48-1.59,1.47-2.84,0-2.04-.45-4.1.19-6.12.08-.24.07-.56-.15-.8-.73-.27-1.47.52-2.33-.04.84-.34,1.8-.1,2.51-.94-.97.07-1.8.38-2.94,0,1.07-.18,1.81-.31,2.56-.43.45-.08.17-.32.12-.51l-.03.03c.54-.73.28-1.45.01-2.23-.24.82-.82,1.04-1.57,1.13.09-.36-.1-.64-.32-1.03.86.12,1.39-.55,2.15-.46,0-.68,0-1.27,0-1.86,0-.32.02-.68-.48-.58l.02.02c.2-.74.77-.63,1.42-.66-.22.45-.39.81-.56,1.16.25.35.81.15.95.6-.27.07-.6-.12-.83.21.34.16.66.24.93-.1.22.03.49-.11.64.19-.35.66-1.24.17-1.72.8,1.07.01,2.06-.18,3.27.16-1.19.43-2.27-.18-3.1.57.13.3.61.07.61.39-.12.32-.54.06-.6.39.34.3.86-.09,1.08.39-.36.31-.93-.13-1.21.48.42.45,1.14,0,1.6.43-.53.36-1.11-.02-1.57.37-.09.66-.16,1.37.11,1.97.3.69,1.24.41,1.82.8-.69.48-1.33-.35-1.88.05-.63.45-.27,1.16-.28,1.71.28.29.71,0,.92.47-.65.08-1.36.18-.83,1.04.49.27,1.19-.21,1.52.62-.55-.04-1.04-.26-1.53-.05-.17.3-.18.59.01.88q1.06.12,1.45.63c-.53-.1-1.02-.31-1.45-.07-.47.83.21,1.21.57,1.6-1.25.51-.5,1.44-.65,2.13.62.16,1.2.17,1.62.56-.55.54-1.07-.37-1.57.05-.24,1.96,1.63,1.4,2.83,2.13-.89.06-1.43-.32-1.92.08.09,1.05.63,1.89,1.19,2.77.26.41.8.2.85.48.12.76-.64,1.71.53,2.23-.69.32-.24.78-.07,1.12.28.57.91.09,1.34.25-.07.7-.89.12-.96.65.06.81.91.35,1.18.8-.31.19-.6.36-.88.53.31.4.84-.04,1.14.51-.16.03-.3.05-.44.07-.31.05-.8-.15-.77.45.02.5.45.31.73.37.23.05.57-.16.66.33-.36.04-.7.08-1.06.12.33.74,1.19.26,1.61.78-.92.34-1.64-.08-2.6-.68.56,1.6,1.91,1.54,2.98,2.13-1.26.29-1.94-.77-3.07-.79.19,2.81-.39,5.61.44,8.57.81-.95-.28-1.56.03-2.39.28.26.34.66.69.66.41-1.1,1.23-2.01,1.45-3.39.75.85,1.68,1.28,2.01,2.59.38-1.14,1.15-1.96,1.14-2.67-.05-2.91.87-5.74.52-8.65,0-.06-.1-.11-.15-.17-.23.2-.29.69-.8.47.34-.66.67-1.28.98-1.87-.39-.34-.66.28-.93-.07,0-.64.93-.92.61-1.67-.55.05-.59.68-1.09.94,0-.33,0-.52,0-.72.08-.08.16-.16.24-.24.29-.22.59-.44,1.07-.79-.82-.19-1.08.12-1.17.69-.08.08-.16.16-.24.24-.31-.12-.52.4-.92.1.55-.76,1.51-1.22,1.74-2.21l-.03.03c.41,0,.59.12.67.59.29,1.58.34,3.19.52,4.77.41.1.66-.62,1.06-.12-.21.46-.75.33-1.11.63.05.5-.36,1.2.72,1.32-1.33.33-.49.97-.28,1.49-.85.34-.79.93-.63,1.47.42.34.83,0,1.19.17-.18.83-1.93-.25-1.41,1.27q1.1-.13,1.46.47c-.52-.11-1.04-.34-1.58.07.48.96,1.55.59,2.24,1.08-.82.4-1.44-.26-2.13-.17q-.29,2.64.33,3.42c.86-1.09,1.29-1.15,1.94-.37.45.14.25-.49.7-.39.14.57-.57,1.24.07,1.79.42-.09.35-.82.98-.58-.26.6-.91,1.27.16,1.82.18-.68.34-1.26.55-2.08.39,1.14.78,2.02,1.51,2.85-.55.03-.48-.56-.85-.36-.35.11.08.84-.57.67,0-.29,0-.57,0-.86.36-.29.22-.58-.06-.87-.02.26-.03.52-.05.78-.34.35-.33.71,0,1.06-.14.52-.92.41-.87,1.14-.51-.63.22-1.1-.13-1.67-1.44-.16-.89,1.19-1.33,1.86-.49,0-1.02-.51-1.56-.06.36.36,1.08.24,1.25,1-.35-.09-.6-.16-.84-.22-.16-.32-.46-.2-.72-.24-.08-.04-.15-.08-.23-.12.04.08.08.15.12.23.16.32.47.2.72.24.35.4.08,1.01.55,1.38-.67-.15-1.21-.61-1.87-.46-.47,1.25,1.4.77,1.2,1.86-.45-.19-.73-.67-1.24-.57-.34,1.05,1.1.8,1.2,1.58-.57-.04-.88-.65-1.44-.44-.15.49.61.73.35,1.09-1.1,1.53-.5,3.27-.67,4.91-.08.84-.04,1.6,1.07,1.69-.29.58-.69.16-.99.26-.21.86-.2,1.6.91,1.75-.12.32-.61.25-.46.67.26.32.83.24.98.74-.37.34-.59-.44-1.01,0,.17,1.66,1.83,1.18,2.86,1.82-.99.37-1.74-.27-2.55-.34-.08-.04-.15-.08-.23-.12.04.08.08.15.12.23.37.66,1.04.86,1.67,1.08.07.34-.33.2-.33.37.34.65,1.06.32,1.57.6-.29.92-.79.1-1.13.24-.5-.38-1.01-.72-1.68-.72-.34-.32-.68-.57-1.06-.07-.25.32-.6.31-.97.32-1.45.04-3.05-1.1-3.49-2.54-.14-.46-.35-.56-.87-.44-1.5.35-3.01.62-4.58.32-.71-.13-1.01-.88-1.72-.95-.08-.08-.16-.16-.24-.24-.08-.08-.16-.16-.24-.24-.09-.22-.29-.23-.48-.24-.9-1.32-2.01-1.95-2.7-1.43,1.08.22,1.5,1.43,2.6,1.54.09.22.28.23.48.24.08.08.16.16.24.24l.24.24c-.11.04-.24.15-.31.12-1.93-.86-3.62-2.05-4.85-3.81-.13-.36-.25-.72-.39-1.13-.62.68-.12.94.28,1.23-.35,1.23.46,2.06,1.24,2.58,1.51,1,2.85,2.37,4.77,2.68-.56.16-1.05.23-1.58-.13-1.25-.84-2.56-1.58-3.85-2.36-.08-.08-.16-.16-.24-.24,0-.5-.39-.71-.72-.96-.08-.08-.16-.16-.24-.24-.05-.28.1-.73-.46-.65-.2.44.11.58.35.75l.24.24c0,.5.39.71.72.96.08.08.16.16.24.24-.06.2.88.62-.14.61-.08-.04-.15-.08-.23-.12.04.08.08.15.12.23.14.54,1.04.43,1.02,1.16-1.38-.38-1.83-1.85-3.11-2.32.8,1.61,1.64,3.18,3.52,3.85-1.89,0-2.54-1.68-3.74-2.65.51,1.52,1.6,2.53,2.93,3.35.44.27.64-.57,1.22-.12,1.4,1.12,3.22,1.45,4.76,2.3,2.96,1.63,6.18,2.17,9.47,2.58,1.05.13,2.08.39,3.11.6-1.53.24-2.97-.38-4.47-.23-1.5-.4-3.01-.78-4.55-.96-2.17-.65-4.02-2.06-6.23-2.63-.08-.04-.15-.08-.23-.12.04.08.08.15.12.23-.04.39.11.62.47.84,1.52.95,3.35,1.21,4.81,2.28.2.29.43.28.7.1-.13-.29-.4-.16-.6-.21.19-.35.5-.41.86-.37,1.38.96,2.96.98,4.55.96.43.57,1.25-.11,1.7.49-.47.32-1.06-.1-1.61.46.57,0,1,0,1.43,0,3.79,0,7.58,0,11.36,0,.69,0,1.34.1,1.91.51.78.55,1.59.62,2.46.25,1.66-.71,3.33-1.37,5.14-1.6,2.86-.36,5.1-2.42,7.93-2.91,2.08-.36,3.92-1.38,5.72-2.45.2-.05.47.08.62-.26-.28-.06-.53-.17-.72.15-.23.04-.49.03-.69.13-1.62.82-3.41,1.15-5.11,1.7-.42.14-.87.2-1.41-.14,3.1-.65,5.88-1.81,8.69-2.89-1.6-.21-2.93.95-4.49.9-.12-.33.34-.27.33-.55-.77-.39-1.53-.53-2.32-.01-.35.23-.75.21-1.12,0,.04-.08.08-.15.12-.23-.08.04-.15.08-.23.12-.3-.45-.26-.65.19-.59,1.39.18,2.32-.86,3.51-1.21.33-.02.74.06.72-.48l.12-.23c-.08.04-.15.08-.23.12-.36-.02-.56.19-.72.48q-1.41.24-2.16-.02c1.22-.23,2.44-.28,2.98-1.54.12-.05.25-.11.37-.16-.04-.05-.08-.12-.13-.13-.16-.04-.27.05-.35.18-1.24.38-2.34,1.16-3.7,1.23,1.42-.83,3.03-1.28,4.36-2.26.29-.21.33-.16.25-.79-1.23.5-2.23,1.56-3.68,1.48,1.45-.77,3-1.36,4.13-2.63.87-.98.87-1.73-.04-2.4-1.21.9-2.43,1.78-4.02,1.89,1.16-.75,2.58-1.07,3.53-2.16.14-.07.23-.18.18-.34-.01-.05-.09-.08-.13-.13-.05.12-.11.25-.16.37-1.1.21-1.95,1.2-3.47,1.1,1.23-.77,2.57-.83,3.34-2.06-1.66-.65-2.45,1.78-4.12,1,2.01-.56,2.97-1.39,2.54-2.08-.96.3-1.68,1.4-2.85.96,1.04-.2,1.81-.89,2.65-1.44.08.04.15.08.23.12-.04-.08-.08-.15-.12-.23-.2-.53-.4-1.05-.61-1.59q-1.18.73-1.72.68,1.69-1.32,1.4-1.87c-.63.46-1.11,1.31-2.11.93.84-.22,1.37-.86,1.98-1.39.08.04.15.08.23.12-.04-.08-.08-.15-.12-.23-.2-.65-.33-1.33-.7-1.9-.61.21-.96.84-1.74.59.54-.47,1.07-.77,1.7-.99-.43-1.17-.83-2.33-1.58-3.37-.3.35-.47.86-1.04.56.22-.6,1.56-1.02.33-1.88.84-.63,2.2-5.45,1.9-6.69-.62.24-.43.86-.58,1.32-.2.6-.63.77-1.24.72.93-.35.73-1.26,1.03-1.91.04-.08.08-.15.12-.23l-.23.12c-.32-.4-.05-.67.24-.89.56-.44.28-.73-.36-1.03.99-.31.57-.98.66-1.49.21-1.19.11-2.32-.64-3.38-.66-.93-1.08-1.95-1.01-3.18.09-1.79,0-3.59.04-5.39.02-.74-.3-1.22-.83-1.66-.24.25.24.76-.38.72-.08-.04-.15-.08-.23-.12.04.08.08.15.12.23-.39.41-.57-.11-.84-.21-.31.42.13.85.03,1.33-.24-.12-.38-.19-.51-.26-.05-.12-.11-.25-.16-.37-.05.04-.12.08-.13.13-.04.16.05.27.18.35-.04.35.13.75-.18,1.11-.3-.41-.53-.77-.92-.98-.08-.04-.15-.08-.23-.12.04.08.08.15.12.23.06.73.12,1.47.18,2.2-.06,0-.12.02-.18.03-.17-.41-.34-.83-.53-1.3-.41.53.02,1.06-.11,1.69-.81-.78-.24-2.01-1.22-2.69-.04,1.19.35,2.16.6,3.14-.19.37-.87.25-.83.89.51.18.99-.46,1.53-.04-.43.42-1.06.3-1.36.76-.04.08-.08.15-.12.23.08-.04.15-.08.23-.12.44-.05.88-.1,1.39-.16-.35.88-1.2.28-1.72.76.12,1.89,1.82-.12,2.31.89-.68.15-1.32.3-1.85.41-.83,2.24-1.87,4.35-.99,6.83.74,2.07.51,4.45,1.78,6.48-.42.58.04,2.51.89,3.15-.75.83-.64,1.53.42,1.92-.73.23-.73.68-.56,1.15.55.27,1.17-.11,1.65.37-.51.26-1.04-.04-1.52.35.7.99,1.8.34,2.68.67-.38.55-.98.08-1.35.47.42.71,1.14,1.27,1.16,2.13.3.13.3-.49.55-.19.33.53-.52.5-.35.85.92.45.17,1.93,1.66,1.97q-1.21.49-1.37,1.97c.44-.09.86-.17,1.31-.26-.09.58-.48.51-.83.54-.32.03-.77-.15-.78.45-.01.62.62.07.79.49-.39.31-1.12.41-.96,1.16.41.46.94-.22,1.38.06-.3.67-.94.33-1.39.56,0,.38-.39.69-.24,1.03.54.38.89.05,1.31-.36.04,1.35-1.09.61-1.46,1.1.57.33,1.2.01,1.93.16-.6.59-1.22.33-1.76.35-.59.02-.93.14-.82.8l.03-.03c-.8.85-.44,2.16-1.2,3.12-.39-.47-.91-.67-1.23-1.14-.41-.61-1.12-.19-1.66-.39-.21-.08-.37-.29-.56-.42-1.16-.77-2.37-.6-3.3.46-.08.08-.16.16-.24.24-.71.37-.85,1.25-1.48,1.73-.16-.34-.05-.56.11-.82.53-.86,1.31-1.48,1.98-2.21.83-.9,1.27-2.75.73-3.5-1.17-1.63-1.41-3.53-1.77-5.41v.02c.2-.09.29-.28.25-.48-.38-1.97-.42-3.96.06-5.89.31-1.26.05-2.31-.45-3.4-.11-.25-.19-.52-.19-.87.01-1.65-.11-3.31-.2-4.96-.14-2.52-.95-4.97-.85-7.5.13-3.31-.26-6.61.59-9.94.65-2.56.46-5.35.57-8.03.07-1.75-.09-3.52.05-5.26.11-1.44.03-2.91.26-4.33.19-1.17-.34-2.33-1.47-2.61-.94-.24-1.76-.68-2.45-1.37,1.46,1.04,3.82.63,4.5,3.1.72-1.23,1.25-2.34,2.5-2.78-.12.19-.25.38-.37.56-.08.08-.16.16-.24.24-.04.08-.08.15-.12.23.08-.04.15-.08.23-.12.08-.08.16-.16.24-.24.32,0,.58.13.56.46-.03.33-.33.39-.63.4-.48.02-1.09-.16-1.18.66.52.32,1.04.08,1.64-.03-.37.45.16.64.14.98-.41.06-.79.11-1.21.17.2.41.71.01.81.54-.75.23-1.6-.12-2.54.34,1.07.63,2.17-.03,3.14.6q-2.9.31-3.1.79c.79.33,1.68-.1,2.53.26-.76.7-2.08-.34-2.68.79.58.44,1.14.05,1.51.52-.55.33-1.23-.14-1.66.34.02.52.64.2.66.67-1.47.11-.32,1.21-.63,1.81-.22.44-.24,1.27.76,1.53-1-.04-.82.58-.84,1.08-.08,2.18-.04,4.37-.29,6.53-.12,1.04-.06,2.12-.41,3.15-.97,2.85-.31,5.78-.51,8.67.5.03.75-.62,1.15-.12-.24.46-.88.27-1.16.76.23.28.69.32.76.7-.12.43-.62-.29-.72.26-.06.38.23.43.45.59.4.29.64.69.71,1.18-.65.15-.23-.65-.78-.62-.67,1.78,1.39,2.61,1.53,4.12-.67-.13-.76-.76-1.1-1.13-.49,1.05.5,1.28.96,1.78.21.23.82.24.23.7-.08-.08-.16-.16-.24-.24-.09-.22-.28-.23-.48-.24l-.24-.24ZM36.64,67.88c-.04.08-.08.15-.12.23.08-.04.15-.08.23-.12.04-.08.08-.15.12-.23-.08.04-.15.08-.23.12ZM42.73,67.87c-.08-.04-.15-.08-.23-.12.04.08.08.15.12.23.08.04.15.08.23.12-.04-.08-.08-.15-.12-.23ZM36.88,68.59c-.04.08-.08.15-.12.23.08-.04.15-.08.23-.12.04-.08.08-.15.12-.23-.08.04-.15.08-.23.12ZM88.97,107.26c.04-.08.08-.15.12-.23-.08.04-.15.08-.23.12-.08.08-.16.16-.24.24-.19.01-.39.02-.48.24-.91.32-1.81.67-2.46,1.42.92-.31,1.87-.57,2.56-1.31.19-.02.39-.02.48-.24.08-.08.16-.16.24-.24ZM89.69,106.06c.04-.08.08-.15.12-.23-.08.04-.15.08-.23.12-.04.08-.08.15-.12.23.08-.04.15-.08.23-.12ZM46.7,105.59c.08.08.16.16.24.24.09.22.29.23.48.24.46.72,1.23,1.02,1.98,1.39-.31.31-.63.14-.92.18-.09-.22-.29-.23-.48-.24-.16-.62-.75-.75-1.25-1.2.04.9.71,1,1.15,1.31.09.22.29.23.48.24-.05,1.08.77.64,1.27.7.92.11,1.28-.58,1.42-1.29.13-.61.13-1.29,0-1.9-.85-3.93-.36-7.85-.04-11.79.12-1.51.39-3.1-.27-4.62-.56.38-.45.9-.39,1.39-.97-.23-1.13-1.05-1.5-1.7-.82.77-.12,1.38-.01,2.13-.75-.85-1.5-1.69-2.4-2.7.18.9-.21,1.49-.07,2.26.33,1.81.51,3.66.6,5.52.07,1.68.79,3.3.48,5.06-.18,1.02.11,2.12-.52,3.08l.02-.02c-.56.42.03.44.21.6.3.26.92.04.98.67-.34.26-.55-.26-.86-.14-.07-.14-.18-.23-.34-.18-.05.01-.08.09-.13.13.12.05.25.11.37.16.22.6,1.05.48,1.32,1.07-.44.27-.62-.37-.98-.22-.09-.22-.28-.23-.48-.24-.08-.08-.16-.16-.24-.24-.08-.04-.15-.08-.23-.12.04.08.08.15.12.23ZM85.85,104.87c.08-.08.16-.16.24-.24.2-.16.41-.32.61-.48.08.08.16.16.24.24-.53.74-1.28,1.24-2.12,1.84.99.17,1.6-.27,2.15-.75.37-.32.73-.41,1.18-.37-.24.2-.48.41-.72.61-.04.08-.08.15-.12.23.08-.04.15-.08.23-.12.29.02.46.09.23.42-.18.26-.72.17-.64.86,1.29-.78,2.54-1.42,3.29-2.72.04-.08.08-.15.12-.23l-.23.12c-.63.4-1.2.97-2.05.72-.27-.45-.71-.63-1.2-.72-.08-.08-.16-.16-.24-.24-.41-.23-.83-.47-1.24-.7l.03.03c-.16-.36-.63-.41-.79-.82-.11-.27-.63-.25-.65.02-.07.93-.89,1.66-.72,2.63.83,0,1.46-.36,2.04-.83.27-.22.48-.35.51.16-.08.08-.16.16-.24.24-.08.08-.16.16-.24.24-.12.05-.24.11-.37.16.04.05.08.12.13.13.16.04.27-.05.34-.19.08-.08.16-.16.24-.24ZM91.02,36.5c-.08.08-.16.16-.24.24-.04.08-.08.15-.12.23.08-.04.15-.08.23-.12.08-.08.16-.16.24-.24l.24-.24c.76-.45.54-1.2.38-1.78-.11-.41-.61-.26-1.02.03.52.49.58,1.05.53,1.65-.08.08-.16.16-.24.24ZM32.57,103.67c.08.04.15.08.23.12-.04-.08-.08-.15-.12-.23-.08-.04-.15-.08-.23-.12.04.08.08.15.12.23ZM51.83,91.11c-.08-.04-.15-.08-.23-.12.04.08.08.15.12.23.07.14.18.23.34.19.05-.01.09-.09.13-.13-.12-.05-.25-.11-.37-.16ZM47.66,87.28c-.14.07-.23.18-.19.34.01.05.09.09.13.13.05-.12.11-.25.16-.37.04-.08.08-.15.12-.23-.08.04-.15.08-.23.12ZM47.18,86.56c-.14.07-.23.18-.19.34.01.05.09.09.13.13.05-.12.11-.25.16-.37.04-.08.08-.15.12-.23-.08.04-.15.08-.23.12ZM82.87,110.99c-.12.05-.25.11-.37.16.04.05.08.12.13.13.16.04.27-.05.34-.19.04-.08.08-.15.12-.23-.08.04-.15.08-.23.12ZM36.64,110.38c.07.14.18.23.34.18.05-.01.08-.09.13-.13-.12-.05-.25-.11-.37-.16-.07-.14-.18-.23-.34-.18-.05.01-.08.09-.13.13.12.05.25.11.37.16ZM51.83,107.87c-.08-.04-.15-.08-.23-.12.04.08.08.15.12.23.07.14.18.23.34.19.05-.01.09-.09.13-.13-.12-.05-.25-.11-.37-.16ZM70.42,29.55c-.12.05-.25.11-.37.16.04.05.08.12.13.13.16.04.27-.05.34-.19.04-.08.08-.15.12-.23-.08.04-.15.08-.23.12ZM34.58,99.25c-.08-.04-.15-.08-.23-.12.04.08.08.15.12.23.09.22.29.23.48.24.5.77,1.25,1.05,2.2.93-.7-.35-1.4-.69-2.1-1.04-.09-.22-.29-.23-.48-.24ZM35.92,99.36c.08.04.15.08.23.12-.04-.08-.08-.15-.12-.23-.07-.14-.18-.23-.34-.19-.05.01-.09.09-.13.13.12.05.25.11.37.16ZM50.88,85.46c.29-.2.28-.43.08-.72-.24.16-.17.41-.19.62-.29.2-.28.43-.08.72.24-.17.16-.41.2-.62ZM34.72,109.42c.08.04.15.08.23.12-.04-.08-.08-.15-.12-.23-.16-.32-.47-.2-.72-.24-.85-.85-1.7-1.69-2.62-2.6.32,1.89.75,2.34,2.52,2.71.16.32.46.2.72.24ZM69.7,105.11c.08.04.15.08.23.12-.04-.08-.08-.15-.12-.23-.16-.32-.47-.2-.72-.24-.13-.33.38-.33.32-.64-.26-.07-.52-.14-.83-.22.04.39-.66,1.01.4.97.16.32.46.2.72.24ZM88.97,99.26c-.05-.12-.11-.25-.16-.37-.05.04-.12.08-.13.13-.04.16.05.27.18.35-.22.33-.19.55.28.6.03-.27.14-.53-.17-.7ZM51.83,89.54q.37-.41-.06-.7c-.02.22-.03.41-.04.59-.04.08-.08.15-.12.23.08-.04.15-.08.23-.12ZM35.54,109.07c-.08-.04-.15-.08-.23-.12.04.08.08.15.12.23-.07.2-.37.36-.1.61q.54-.42.2-.72ZM87.53,101.28q.92-.03.72-.58c-.84-1.18-1.77-.11-2.68-.02.12-.61.6-.7.97-.8.38-.1.78-.08.98-.51.24-.08.67.15.66-.44-.31.01-.57.07-.76.33-.51-.16-.99.36-1.57.12.49-.71,1.46-.31,1.9-.96.92.52.73-.27,1.08-.95-.57.4-.87.61-1.17.83-.93-.05-1.71.48-2.65.62.13.76-.1,1.4-.34,2.03-.13.35-.25.76.03,1.01,1.29,1.13,2.62,2.2,4.38,2.74.16-.96-.12-1.76-.28-2.54-.13-.63-.65-.6-1.13-.36-.58.3-1.2.42-1.81.52,0-.93.93-.3,1.18-.8.19-.02.39-.02.48-.24ZM38.9,103.19c.41-.06.54.36.85.48.02.22.05.44.07.66-.47.07-.75-.57-1.35-.25.86.62,1.48,1.4,2.54,1.51-.71-.51-.08-1.75-1.15-2.02-.11-.29-.22-.58-.33-.88-.29.12-.58.13-.74.4-.04.08-.08.15-.12.23.08-.04.15-.08.23-.12ZM34.96,85.95c.09.22.29.23.48.24.37.8,1.38.8,2.05,1.63-1.31-.42-2.41-.7-3.41-1.33.35,1.27,1.86,1.25,2.46,2.27-.65-.33-1.31-.66-1.96-1-.08-.04-.15-.08-.23-.12.04.08.08.15.12.23-.11.69.19,1.11.83,1.38.63.27,1.23.62,1.85.94-.88.05-1.48-.64-2.45-.69.83,1.09,2.29.98,3.02,1.97-.82-.34-1.6-.7-2.5-.95-.19,2.13,2.12,1.05,2.62,2.25-.84.08-1.52-.59-2.34-.51q.05.99,4.07,1.78c-.07-1.49-.49-2.87-.96-4.21-.51-1.47-.45-2.95-.45-4.45,0-1.48-.08-2.96.02-4.42.1-1.37-.38-2.7-.1-4.11-.46-.14-1.04-.06-1.41-.54.41-.34.99.53,1.21-.3-.29-.37-.94-.19-1.18-.65.41-.45.79.26,1.2-.17.11-1.59-1.49-.32-1.9-1.05.6-.3,1.17-.78,1.78.07.33-.82-.18-1.43-.13-2.1.12-1.52-1.08-2.5-1.68-3.73-.1-.2-.25-.07-.39-.08-1.81-.06-3.26-.98-4.68-1.98-.75-.53-.48-.77.2-.96.65,1.31,3.69,2.77,4.76,2.29-.25-.98-.49-1.96-.76-3,.83.17.37,1.27,1.23,1.37-.39-3.36-.77-6.67-1.15-10.03-1.43-.11-2.42-1.2-3.72-1.75-.21.95-.4,1.83-.59,2.67,1.14.86,2.71,1.09,3.37,2.66-1.34-.27-2.32-1.2-3.66-1.67.28,1.67-.58,3.11-.39,4.69,1.49-.65,2.48-.02,3.49,2.17-1.41-.17-2.25-1.25-3.34-1.92-.15,1.09.85,2.07,2.73,2.75-.77.46-1.25-.34-1.87-.34-.25-.34-.49-.67-.93-.85q-.38,2.57,1.69,3.81c.16.1.35.17.52.26,1.07.59,2.13,1.18,3.2,1.77-1.04.07-1.74-.58-2.56-.95-.87-.39-1.68-.93-2.65-1.49.1.44.11.89.22.92,1.89.43,3.16,2.06,5.35,2.6-.73.19-1.02.12-1.4-.06-1.2-.55-2.15-1.53-3.42-1.94-.08-.04-.15-.08-.23-.12.04.08.08.15.12.23,0,.36.22.54.51.72,1.47.9,2.77,2.07,4.46,2.63-.84.06-1.51-.39-2.23-.68-.92-.37-1.48-1.24-2.4-1.58-.08-.04-.15-.08-.23-.12.04.08.08.15.12.23.92,1.38,2.24,2.19,3.95,2.59-.85.53-1.47-.28-2.2-.21.37.94.88,1.76.95,2.74,1.04-.17,1.61.43,2.13,1.16-.75.34-1.21-.37-1.84-.39-.05-.12-.11-.25-.16-.37-.05.04-.12.08-.13.13-.04.16.05.27.18.35.41.77,1.28.6,2.06.89-1.03.55-1.65-.31-2.43-.39-.26.66.03,1.19.49,1.58.98.83,2.09.5,3.39.06-.95,1.48-2.16.61-3.21.77.57.76,1.49.48,2.3.95-1.39.29-2.28-.37-3.26-1.05v1.84c1.01.4,2.02.81,3.35,1.34-1.45.22-2.22-.86-3.32-.76-.4,1.79,1.12,1.87,2.37,2.5-.8.05-1.3.08-1.82.12.79,1.29,2.43,1.2,3.39,2.16-.77.07-1.26-.64-2.01-.54-.09-.22-.29-.23-.48-.24-.25-.48-.77-.57-1.31-.99.16.88.72.96,1.21,1.1ZM55.43,25.83c.56-.06,1.14.11,1.95-.25-.87-.08-1.47-.28-2.05.13-.2.05-.47-.08-.6.21.27.18.5.19.7-.1ZM82.15,106.44c-.44.13-.87.25-1.38.4q1.26.5,1.49-.29c.04-.08.08-.15.12-.23-.08.04-.15.08-.23.12ZM69.32,64.28c-.08-.04-.15-.08-.23-.12.04.08.08.15.12.23.22.28.45.55.67.83-.03-.64.45-1.31-.18-1.77-.54.16.43.83-.39.84ZM90.65,107.02c.39-.4,1.21-.62.56-1.47-.31.22-.61.43-.89.62.09.3.16.52.23.74q-1.15.53-.7,1.19c.32-.33.79-.53.8-1.08ZM90.54,103.43c.08.04.15.08.23.12-.04-.08-.08-.15-.12-.23-.05-.39-.17-.74-.53-.93-.8.46-.82,1-.34,1.68.29-.24.53-.45.77-.65ZM83.11,105.96c-.37.5-.47,1.09-.63,1.86.83-.42,1.63-.46,2.27-.92-.07-1.13-1.09-.43-1.54-.83.04-.08.08-.15.12-.23-.08.04-.15.08-.23.12ZM87.91,93.98c-2.07-.08-3.98.95-6.07.72.02.49.13.8.49.98,1.06-.32,2.04-.77,3.23-.71.8.04,1.81-.09,2.45-.88.39-.08,1.08.2.86-.78-.36.25-.66.46-.96.67ZM39.27,102.23c.08.04.15.08.23.12-.04-.08-.08-.15-.12-.23-.14-1.13-.96-1.4-1.87-1.54-.33.25.26.51,0,.71-1.34-.06-2.27-.94-3.35-1.6-.4,1.23.36,1.94.77,2.76.47-.07.71-.72,1.21-.19,1.04,1.12,2.1.68,3.15-.03ZM35.06,97.44c1.33.46,2.66.93,4.14,1.44-1.81.45-2.98-1.2-4.6-.9,1.42.98,3.09,1.33,4.7,1.96.25-.52.81-1.1.71-1.55-.22-1-.15-1.98-.15-2.96,0-.79-.47-1.11-1.07-1.18-1.1-.11-2.16-.34-3.2-.75-.17.36-.25.71-.04.96.84,1.03,1.97.52,3.15.28-1.07,1.67-2.18.48-3.49.29,1.18,1.35,2.93.67,4.04,1.86-1.44-.33-2.71-.62-3.98-.92.94,1.36,2.68.98,3.76,1.97-1.12-.3-2.32-.27-3.35-.88-.35-.21-.68-.37-.73.26-.04.08-.08.15-.12.23.08-.04.15-.08.23-.12ZM48.85,29.66c.83.54,1.78,0,2.61.35.76-1.14,1.85-2.08,2.16-3.38.23-.94.76-1.15,1.49-1.4.67-.23,1.4-.27,1.99-.08,1.34.42,2.57-.09,3.84-.2,1.29-.11,2.54-.2,3.79.38.78.37.81,1.09,1.15,1.67.13.24.33.44.52.64.68.68,1.18,1.46,1.52,2.44.51-.57,1.28-.54,1.87-.9.24-.08.67.15.66-.44-.31.01-.57.07-.76.33h-.68c.56-.3.36-1.09.92-1.33.08.04.15.08.23.12l-.12-.23c-.12-1.06-.89.18-1.08-.19-.31-.5.24-.76,0-1.19-.73-.57-1.73-.95-2.08-2.04-.1-.32-.51-.53-.92-.68-1.24-.45-2.46-.74-3.8-.7-2.43.07-4.87.01-7.3.02-.43,0-.84.02-1.28.16-2.54.79-3.55,2.81-4.26,5.1-.04.08-.08.15-.12.23.08-.04.15-.08.23-.12.39,0,.58.19.62.49-.44.33-.69-.2-1.05-.05-.2.18-.12.43-.15.65-.22.12-.21.23,0,.34ZM81.54,43.07q.13.51-.8.84c-.05,1.29-.03,2.59-.22,3.89-.36,2.49-.61,4.97-1.63,7.33-.47,1.08-1.23,2.09-1.06,3.44.16,1.25-.28,2.59.78,3.6-.4.32-.41-.29-.75.02,0,1.93.09,3.93-.03,5.91-.11,1.79.69,3.15,1.61,4.54.17.26,1.09.03.57.75-.12.05-.25.11-.37.16.04.05.08.12.13.13.16.04.27-.05.35-.18.29.05.63-.15.88.18-.08.37-.54.05-.64.35.06.33.69-.02.6.52-.35.03-.69.06-1.09.09.1.35.18.63.25.88.43-.01.9-.45,1.1.25-.2.05-.47-.08-.62.26.28.06.53.17.72-.15.22.03.49-.11.64.19-.41.54-1.06.35-1.59.51-.15.46-.14.89-.02,1.3.58.44,1.09-.26,1.68-.12-.24,1.03-2.34.18-1.89,1.93.6-.16,1.09-.33,1.87-.24-1.01.68-2.65.38-2.38,2.07.61.2,1-.7,1.62-.23-.45.66-1.73.4-1.67,1.55.39.28.56-.53.95-.12-.16.85-1.44.52-1.56,1.39.35.36.68-.2,1.03.05-.14.75-1.25.28-1.35,1.1.43.45.94-.06,1.4.03-.11.91-1.21.17-1.43.93,1.06.54,1.95-.26,3.17-.42-.86.9-1.79.88-2.6,1.1.3,1.27,1.22.42,1.88.57-.28.76-1,.35-1.41.63,1.08,2.03,1.44,4.23,1.98,6.37,1.41-.32,2.93-.1,4.34-.87-1.34-.41-2.64.5-3.96-.02.35-.38.73-.17,1.06-.24,1.6-.3,3.32-.1,4.71-1.19.12-.05.25-.11.37-.16-.04-.05-.08-.12-.13-.13-.16-.04-.27.05-.35.18-.92-.08-1.62.76-2.86.66,1.38-.77,2.53-1.31,3.9-1.39-.64-.56-1.44-.28-2.06-.12-.78.2-1.57-.01-2.34.33-.7.31-1.49.45-2.34.45.47-.87,1.58-.19,1.97-1.02,1.62.05,3.21-.14,4.81-.63-.19-.44-.17-.85-.54-1.18-1.37.76-2.85,1.27-4.36,1.69l-1.74.15c2.08-.69,4.12-1.39,6.05-2.32-.14-.49-.17-1.01-.64-1.26-.25-.13-.17-.96-.76-.38l.02-.02c-.71-.48-1.6,0-2.43-.4q2.18-.58,1.97-1.3c-.87.26-1.74.51-2.72.8.3-.84.97-.71,1.44-.9.48-.19,1.01-.28,1.61-.44-1.19-.78-2.34.09-3.43-.44.93-.16,1.87-.32,2.83-.48-.27-1.12-.54-2.2-.8-3.29-.64-.07-1.22.58-1.78,0,.55-.44,1.89.12,1.6-1.32-.54.07-1.03.14-1.53.21.71-.62,2.18-.56,1.43-2.28-.08-.23-.64.26-.77-.2.15-.3.73-.03.65-.55-.18-.4-.7,0-.89-.37,1-.79.19-1.73.23-2.6.04-.08.08-.15.12-.23-.08.04-.15.08-.23.12-.18.05-.3.28-.53.17q.86-1.72.68-2.42c-.42.15-.72.6-1.33.51.46-.84,1.8-.98,1.69-2.25-.64.51-1.23.97-1.81,1.43-.1-.11-.21-.22-.31-.33,1.39-.74,2.14-1.88,2.47-3.53-.49.3-.71.67-1.31.55,1.02-.8.53-2.09,1.27-2.94.33-.38,1.02-.59.72-1.32-.41-1-.2-2.04-.23-3.07-.03-.97,0-1.95,0-3.07-1.08.63-1.56,1.66-2.62,2.15.5-1.53,2.46-1.8,2.67-3.58-.94.31-1.24,1.07-1.88,1.46-.17-.47.2-.64.38-.95.45-.81,2.08-.67,1.7-2.1.04-.08.08-.15.12-.23-.08.04-.15.08-.23.12q-1.4,1.21-2.38,1.22c2.76-1.29,3.16-3.53,3.38-5.96-.68-.02-.99.62-1.6.58.34-1.04,1.6-.85,2.17-1.9-.85.31-1.48.55-2.13.78-.1-.62.45-.72.73-.76,1.62-.22,2.07-1.48,2.57-2.72.14-.07.23-.18.18-.34-.01-.05-.09-.08-.13-.13-.05.12-.11.25-.16.37-1.04-.46-1.96.22-3.14.43.49-.52.82-.89,1.18-1.21.13-.12.36-.13.55-.19-.22-.41-.34-.9-.66-1.15-.76-.6-1.15-1.94-2.43-1.55-.84.25-1.66.72-2.2,1.51-.2.05-.47-.08-.6.21.27.18.5.19.7-.1ZM41.55,105.82c.84,0,1.47.03,2.09,0,.66-.04,1.51-.02,1.83-.58.75-1.29,1.67-2.46,1.63-4.19-.05-2.3-.56-4.54-.59-6.83-.02-1.55-.2-3.2-.76-4.62-.41-1.04-1.04-1.97-.94-3.15,0-.01-.1-.04-.26-.09,0,.44.02.83,0,1.22-.03.34.15.76-.27,1.08-.32-2.49-.13-3.16.8-2.94v-6.22c-.58-.17-1.12-.33-1.69-.49.28-1.17,1.71-.47,2.11-1.36-.32-.36-.74.41-1.02-.12.34-.5.84-.41,1.32-.35.05-.46.12-.86-.06-1.24-.53.1-1.04.19-1.65,0,.42-.53,1.47.09,1.45-.96-.49.06-.93.26-1.44-.04.34-.39,1.84-.06.81-1.26-.66.25-1.32.43-1.91-.25.66-.23,1.14-.71,1.88-.75-.38-.47,0-1.19-.76-1.38-.52.07-.78,1.09-1.64.46.75-.21,1.19-.73,1.74-1.16-.72-1-1.27.68-1.91,0,.24-.47.98-.35,1.13-1.02-.18-.35-.4-.76-.57-1.1-.48-.2-.59.5-1.07.24.13-.23.25-.45.4-.71-.25-.06-.48-.12-.8-.2,1.14-.71.01-.88-.25-1.31.39,1.14-1.49,1.59-.61,2.87-.66-.24-.55-.84-.81-1.1-.9.3.1.82-.21,1.15-.39,0-.48-.47-.84-.4-.72,1.6,1.22,1.06,1.57,1.89-.88.12-1.47-.69-2.24-.54-.39.58.04,1.04.1,1.54.38,3.67.59,7.36.45,11.05-.11,3.14.1,6.22,1.17,9.21.31.87.7,1.86.67,2.67-.04,1.13-.21,2.23.07,3.36.1.38.04.77-.29,1.1-.73.75-.5,1.7-.35,2.56.26,1.49,1.44,2.59,1.73,4ZM65.1,26.2c-2.74,0-5.45,0-8.16,0-1.52,0-2.95.1-3.59,1.87-.32.89-1.32,1.43-1.46,2.37,2.63.6,5.21,1.13,7.83,1.36,2.7.23,5.05-1.28,7.69-1.56-.22-1.75-2-2.44-2.32-4.04ZM82.35,96.04c.72.96,1.57,1.35,2.9.99.8-.21,1.52-.63,2.31-.76,1.51-.24,1.53-.21,1.23-1.8-2.02,1.14-4.39.69-6.45,1.56ZM89.01,96.75c-1.79-.06-3.25.88-4.96.95.76,1.13,2.77.71,4.96-.95ZM81.15,37.42c1.61.28,2.66.19,3.95-.33q-3.24-.6-3.95.33ZM86.83,109.21c.06.08.12.16.18.24.65-.52,2.01.09,2.24-1.63-.97.56-1.7.98-2.42,1.4ZM88.86,92.24c-.66.7-1.77.56-2.56,1.26,1.29.3,2.09-.16,2.56-1.26ZM72.15,62.98c.01-.23.06-.47.04-.7-.05-.36.2-.81-.26-1.05-.1-.05-.37,0-.42.09-.2.4-.19.81.06,1.22.14.22.15.54.57.45ZM37.67,65.62c.57-.64,0-1.26-.05-1.82-.03-.32-.42-.24-.72-.04.27.57.11,1.3.77,1.86ZM36.55,99.64c.75.43,1.51.86,2.43.75-.76-.42-1.52-.82-2.43-.75ZM52.38,86.91c-.5.52-.54,1.03.02,1.54.5-.54.46-1.04-.02-1.54ZM52.91,86.66c.44-.51.38-.95.23-1.53-.42.49-1,.82-.23,1.53ZM32.83,63.95c-.34-.65-.88-1.03-1.73-1.39.47.85,1.07,1.17,1.73,1.39ZM53.2,89.72c.06-.57.1-.99.16-1.6-.65.56-.83.98-.16,1.6ZM49.21,86.86c-.09.46-.5.91.17,1.39-.05-.52.67-.98-.17-1.39ZM89.53,102.18c.18-.4.66-.71-.03-1.19-.18.4-.66.71.03,1.19ZM61.63,25.62c-.49-.08-1-.26-1.63.05.64.21,1.13.19,1.63-.05ZM49.48,30.47c.52.18.96.2,1.62-.06-.69-.16-1.12-.25-1.62.06ZM48.64,87.5c0-.72.53-1.05.16-1.56-.31.38-.57.75-.16,1.56ZM51.66,86.94c.15-.38.59-.81-.08-1.2-.13.41-.12.8.08,1.2ZM54.09,88.95c.07-.64.46-.92.22-1.35-.49.26-.47.62-.22,1.35ZM72.71,62.37c-.08.37-.26.75.04,1.13.24-.39.2-.76-.04-1.13ZM49.92,89.14c.29-.56.28-.89.09-1.29q-.22.58-.09,1.29ZM48.49,87.77c-.69.35-.64.73-.42,1.3.15-.46.26-.8.42-1.3ZM71.05,66.07c-.2-.53-.32-.84-.56-1.46-.07.73-.19,1.12.56,1.46ZM53.58,87.7c.11-.52.38-.77.13-1.16-.38.3-.31.59-.13,1.16ZM47.23,114.53c.46.17.76.23,1.1-.02-.36-.21-.66-.2-1.1.02ZM40.8,65.34c-.03.18-.08.3-.06.4.06.33.31.38.46.14.14-.22-.06-.42-.4-.54ZM79.73,78.21c.13-.32.22-.59-.08-.9-.1.31-.54.53.08.9ZM40.94,64.37c-.14.09-.27.12-.32.21-.15.22-.18.48.17.46.33-.02.24-.31.15-.66ZM45.26,78.53c-.41-.15-.59.11-.86.34.46.19.72.11.86-.34ZM41.65,64.3c.03-.12.1-.24.09-.34-.01-.26-.15-.38-.35-.15-.28.32.05.37.26.49ZM84.92,65.95c.32-.11.55-.25.29-.63-.23.14-.5.25-.29.63ZM38.6,65.48c-.09.11-.21.19-.21.27,0,.08.09.22.16.24.17.04.3-.06.27-.25-.02-.08-.13-.15-.22-.25ZM38.66,66.57c.11.32.25.55.63.29-.14-.23-.25-.5-.63-.29ZM36.16,66.98c.11.09.19.21.27.21.08,0,.22-.09.24-.16.04-.17-.06-.3-.25-.27-.08.02-.15.13-.26.22ZM38.32,67.31c.08-.23-.04-.3-.14-.31-.09,0-.24.07-.26.14-.04.15.01.32.22.3.09,0,.16-.11.19-.12ZM38.43,68.45c.07-.12.16-.22.15-.3-.01-.08-.13-.19-.21-.2-.21-.03-.26.14-.22.29.02.08.16.12.28.2ZM49.74,86.29c.23-.26.21-.5,0-.8-.21.31-.2.55,0,.8ZM53.73,89.83c.26-.4.32-.58,0-.77v.77ZM89.21,100.44c-.12-.07-.2-.16-.29-.16-.08,0-.25.02-.15.18.05.09.15.16.24.2.02.01.11-.12.2-.22ZM50.38,87.47c.26-.44.33-.63,0-.8v.8ZM50.86,88.42c.26-.44.33-.63,0-.8v.8ZM90.73,36.02c.15-.21.2-.41-.03-.63-.15.21-.2.41.03.63ZM79.87,76.63c-.09-.11-.14-.18-.2-.25-.08.07-.18.12-.24.2-.11.16.06.19.14.19.09,0,.17-.08.29-.15ZM68.41,44.9c-.4-.26-.58-.32-.77,0h.77ZM78.96,111.97c-.4-.26-.58-.32-.77,0h.77ZM37.84,66.51c.12-.06.29-.05.19-.22-.05-.09-.15-.14-.23-.21-.05.07-.15.16-.14.22.01.08.12.14.18.21ZM86.92,107.6c-.03-.05-.05-.13-.09-.14-.06-.02-.15,0-.19.04-.17.15.03.16.09.18.05.01.12-.04.18-.07ZM72.82,58.71c-.06-.04-.11-.1-.17-.11-.06,0-.16.03-.17.07-.03.13.06.17.17.15.06-.01.11-.07.17-.11ZM41.72,65.08c-.03-.06-.05-.12-.08-.18-.05.06-.13.12-.14.19-.01.04.07.11.11.16.04-.06.08-.11.11-.17ZM39.8,66.23c-.04-.06-.08-.11-.11-.17-.04.05-.12.12-.11.16.02.07.09.13.14.19.03-.06.05-.12.08-.18ZM71.66,66.23c-.04-.06-.08-.11-.11-.17-.04.05-.12.12-.11.16.02.07.09.13.14.19.03-.06.05-.12.08-.18ZM85.37,109.72c.06.04.11.1.17.11.06,0,.16-.03.17-.07.03-.13-.06-.17-.17-.15-.06.01-.11.07-.17.11ZM39.32,67.66c-.04-.06-.08-.11-.11-.17-.04.05-.12.12-.11.16.02.07.09.13.14.19.03-.06.05-.12.08-.18ZM81.05,110.92c.06.04.11.1.17.11.06,0,.16-.03.17-.07.03-.13-.06-.17-.17-.15-.06.01-.11.07-.17.11ZM79.49,111.68c-.03-.05-.05-.13-.09-.14-.06-.02-.15,0-.19.04-.17.15.03.16.09.18.05.01.12-.04.18-.07ZM33.7,78.75c-.04.06-.1.11-.11.17,0,.06.03.16.07.17.13.03.17-.06.15-.17-.01-.06-.07-.11-.11-.17ZM49.14,84.96c-.02-.06-.04-.16-.08-.18-.13-.03-.17.06-.15.17.01.06.07.11.11.17.04-.05.08-.11.12-.16ZM47.56,85.81c.05-.03.13-.05.14-.09.02-.06,0-.15-.04-.19-.15-.17-.16.03-.18.09-.01.05.04.12.07.18ZM73.06,63.96s-.05-.05-.07-.07c-.02.02-.05.05-.07.07.03.03.07.05.1.08l.04-.07ZM35.15,99.02s.05-.05.07-.07c-.02-.02-.05-.05-.07-.07-.03.03-.05.07-.08.1l.07.04ZM74.73,62.05s-.05-.05-.07-.07c-.02.02-.05.05-.07.07.03.03.07.05.1.08l.04-.07ZM46.12,77.81s-.03.05-.04.07c.05,0,.1,0,.14,0-.01-.02-.02-.06-.03-.07-.01-.01-.05,0-.07,0ZM75.83,61.77l-.04.07s.1,0,.14,0c-.01-.02-.02-.06-.03-.07-.01-.01-.05,0-.07,0ZM75.15,61.65s.05-.05.07-.07c-.02-.02-.05-.05-.07-.07-.03.03-.05.07-.08.1.02.01.05.03.07.04ZM33.23,58.78s.05-.05.07-.07c-.02-.02-.05-.05-.07-.07-.03.03-.05.07-.08.1.02.01.05.03.07.04ZM32.22,58.17s-.03.05-.04.07c.05,0,.1,0,.14,0-.01-.02-.02-.06-.03-.07-.01-.01-.05,0-.07,0ZM31.07,57.58s.05-.05.07-.07c-.02-.02-.05-.05-.07-.07-.03.03-.05.07-.08.1.02.01.05.03.07.04ZM80.24,46.72s-.05-.05-.07-.07c-.02.02-.05.05-.07.07.03.03.07.05.1.08.01-.02.03-.05.04-.07ZM80.24,44.56s-.05-.05-.07-.07c-.02.02-.05.05-.07.07.03.03.07.05.1.08.01-.02.03-.05.04-.07ZM38.26,103.81s.05-.05.07-.07c-.02-.02-.05-.05-.07-.07-.03.03-.05.07-.08.1.02.01.05.03.07.04ZM28.87,37.33s-.03.05-.04.07c.05,0,.1,0,.14,0-.01-.02-.02-.06-.03-.07-.01-.01-.05,0-.07,0ZM30.17,37.13s-.05-.05-.07-.07c-.02.02-.05.05-.07.07.03.03.07.05.1.08.01-.02.03-.05.04-.07ZM33.05,104.2s-.05-.05-.07-.07c-.02.02-.05.05-.07.07.03.03.07.05.1.08.01-.02.03-.05.04-.07ZM29.69,36.9s-.05-.05-.07-.07c-.02.02-.05.05-.07.07.03.03.07.05.1.08.01-.02.03-.05.04-.07ZM27.48,36.98s.05-.05.07-.07c-.02-.02-.05-.05-.07-.07-.03.03-.05.07-.08.1.02.01.05.03.07.04ZM33.42,104.64s-.03.05-.04.07c.05,0,.1,0,.14,0-.01-.02-.02-.06-.03-.07-.01-.01-.05,0-.07,0ZM79.99,74.24s-.05-.03-.07-.04c0,.05,0,.1,0,.14.02-.01.06-.02.07-.03.01-.01,0-.05,0-.07ZM91.02,104.68s-.05-.05-.07-.07c-.02.02-.05.05-.07.07.03.03.07.05.1.08.01-.02.03-.05.04-.07ZM55.31,87.9l-.07-.04s0,.1,0,.14c.02-.01.06-.02.07-.03.01-.01,0-.05,0-.07ZM28.48,36.64s-.05-.03-.07-.04v.14s.05-.02.06-.03c.01-.01,0-.05,0-.07ZM90.54,105.4s-.05-.05-.07-.07c-.02.02-.05.05-.07.07.03.03.07.05.1.08.01-.02.03-.05.04-.07ZM87.8,33.02l-.04.07s.1,0,.14,0c-.01-.02-.02-.06-.03-.07-.01-.01-.05,0-.07,0ZM69.12,29.91s-.03.05-.04.07c.05,0,.1,0,.14,0-.01-.02-.02-.06-.03-.07-.01-.01-.05,0-.07,0ZM45.49,88.13s-.05-.03-.07-.04v.14s.05-.02.06-.03c.01-.01,0-.05,0-.07ZM86.69,106.34s-.05-.03-.07-.04c0,.05,0,.1,0,.14.02-.01.06-.02.07-.03.01-.01,0-.05,0-.07ZM54.26,26.08s-.03.05-.04.07c.05,0,.1,0,.14,0-.01-.02-.02-.06-.03-.07-.01-.01-.05,0-.07,0ZM64.89,25.86s-.05-.03-.07-.04c0,.05,0,.1,0,.14.02-.01.06-.02.07-.03.01-.01,0-.05,0-.07ZM44.29,73.28l-.07-.04s0,.1,0,.14c.02-.01.06-.02.07-.03.01-.01,0-.05,0-.07ZM86.13,106.56s-.03.05-.04.07c.05,0,.1,0,.14,0-.01-.02-.02-.06-.03-.07-.01-.01-.05,0-.07,0ZM89.59,106.84s-.05-.05-.07-.07c-.02.02-.05.05-.07.07.03.03.07.05.1.08.01-.02.03-.05.04-.07ZM86.61,107.03s-.03.05-.04.07c.05,0,.1,0,.14,0-.01-.02-.02-.06-.03-.07-.01-.01-.05,0-.07,0ZM44.77,73.04s-.05-.03-.07-.04v.14s.05-.02.06-.03c.01-.01,0-.05,0-.07ZM37.78,70.04s.05-.05.07-.07c-.02-.02-.05-.05-.07-.07-.03.03-.05.07-.08.1.02.01.05.03.07.04ZM37.78,68.84s.05-.05.07-.07c-.02-.02-.05-.05-.07-.07-.03.03-.05.07-.08.1.02.01.05.03.07.04ZM38.06,69.45s-.05-.03-.07-.04c0,.05,0,.1,0,.14.02-.01.06-.02.07-.03.01-.01,0-.05,0-.07ZM51.68,90.4s.05-.05.07-.07c-.02-.02-.05-.05-.07-.07l-.08.1.07.04ZM52.69,108.27s-.05-.05-.07-.07c-.02.02-.05.05-.07.07.03.03.07.05.1.08.01-.02.03-.05.04-.07ZM52.68,91.49l-.07-.04s0,.1,0,.14c.02-.01.06-.02.07-.03.01-.01,0-.05,0-.07ZM85.02,109.21s-.05-.03-.07-.04c0,.05,0,.1,0,.14.02-.01.06-.02.07-.03.01-.01,0-.05,0-.07ZM36.39,109.45l-.07-.04s0,.1,0,.14c.02-.01.06-.02.07-.03.01-.01,0-.05,0-.07ZM84.45,109.43s-.03.05-.04.07c.05,0,.1,0,.14,0-.01-.02-.02-.06-.03-.07-.01-.01-.05,0-.07,0ZM86.45,109.45s-.05-.03-.07-.04c0,.05,0,.1,0,.14.02-.01.06-.02.07-.03.01-.01,0-.05,0-.07ZM36.78,109.67s-.03.05-.04.07c.05,0,.1,0,.14,0-.01-.02-.02-.06-.03-.07-.01-.01-.05,0-.07,0ZM83.97,109.67s-.03.05-.04.07c.05,0,.1,0,.14,0-.01-.02-.02-.06-.03-.07-.01-.01-.05,0-.07,0ZM35.82,109.91s-.03.05-.04.07c.05,0,.1,0,.14,0-.01-.02-.02-.06-.03-.07-.01-.01-.05,0-.07,0ZM37.25,109.91s-.03.05-.04.07c.05,0,.1,0,.14,0-.01-.02-.02-.06-.03-.07-.01-.01-.05,0-.07,0ZM83.49,109.91s-.03.05-.04.07c.05,0,.1,0,.14,0-.01-.02-.02-.06-.03-.07-.01-.01-.05,0-.07,0ZM84.93,109.91s-.03.05-.04.07c.05,0,.1,0,.14,0-.01-.02-.02-.06-.03-.07-.01-.01-.05,0-.07,0ZM83.12,110.19s-.05-.05-.07-.07c-.02.02-.05.05-.07.07.03.03.07.05.1.08.01-.02.03-.05.04-.07ZM82.53,110.39s-.03.05-.04.07c.05,0,.1,0,.14,0-.01-.02-.02-.06-.03-.07-.01-.01-.05,0-.07,0ZM82.14,110.65s-.05-.03-.07-.04c0,.05,0,.1,0,.14.02-.01.06-.02.07-.03.01-.01,0-.05,0-.07ZM39.98,67.3s-.05-.03-.07-.04c0,.05,0,.1,0,.14.02-.01.06-.02.07-.03.01-.01,0-.05,0-.07ZM81.81,111.35s-.03.05-.04.07c.05,0,.1,0,.14,0-.01-.02-.02-.06-.03-.07-.01-.01-.05,0-.07,0ZM37.25,66.79s-.03.05-.04.07c.05,0,.1,0,.14,0-.01-.02-.02-.06-.03-.07-.01-.01-.05,0-.07,0ZM42.05,66.56s-.03.05-.04.07c.05,0,.1,0,.14,0-.01-.02-.02-.06-.03-.07-.01-.01-.05,0-.07,0ZM77.5,112.06s-.03.05-.04.07c.05,0,.1,0,.14,0-.01-.02-.02-.06-.03-.07-.01-.01-.05,0-.07,0ZM39.5,65.38s-.05-.03-.07-.04c0,.05,0,.1,0,.14.02-.01.06-.02.07-.03.01-.01,0-.05,0-.07ZM36.88,65.4s-.05-.05-.07-.07c-.02.02-.05.05-.07.07.03.03.07.05.1.08.01-.02.03-.05.04-.07ZM66.83,96.54s-.05-.05-.07-.07c-.02.02-.05.05-.07.07.03.03.07.05.1.08.01-.02.03-.05.04-.07ZM44.25,113.87s.05-.05.07-.07c-.02-.02-.05-.05-.07-.07-.03.03-.05.07-.08.1l.07.04ZM67.07,97.25s-.05-.05-.07-.07c-.02.02-.05.05-.07.07.03.03.07.05.1.08.01-.02.03-.05.04-.07ZM46.12,114.22s-.03.05-.04.07c.05,0,.1,0,.14,0-.01-.02-.02-.06-.03-.07-.01-.01-.05,0-.07,0Z"/>
  <path d="M58.92,82.25c-.51-.04-.38-.24-.16-.52.31-.39.84-.61.96-1.26-.83.05-1,1.33-2.23.9,2.62-.84,1.75-2.66,1.44-4.22-.5-2.56-.83-5.1-.97-7.72-.12-2.16-.06-4.32-.07-6.47,0-1.07.23-2.25.35-3.37.18-1.55.2-3.16-.29-4.72-.44-.11-.51.57-1.09.46.61-.83.81-1.66.48-2.66-.15-.47.73-.6.96-1.1-.48-.25-.78.37-1.37.13.82-.71,2.21-1.07,1.46-2.58-.52.06-1.12.13-1.73.2.16-.81.9-.31,1.29-.66-.54-1.19-1.56-2.18-1.47-3.7.04-.68-.43-1.32-1.37-1.32-.88,0-1.31-.94-2.22-1.24-.04.81-.54.86-1.12.81-.7-.07-1.36-.03-1.73.71-.04.08-.08.15-.12.23.08-.04.15-.08.23-.12.73-.07,1.46-.13,2.41-.22-1.07.9-2.2.42-3.38.72.98.38,1.85.06,2.67.28q-.7.64-2.56.95c.85.19,1.68.19,1.63,1.23-.92.02-1.7.12-1.61,1.42.1,1.45.34,1.78,1.67,2.1.79.19,1.62.11,2.39.42-1.33.36-2.56-.07-3.79-.48-.55,1.56-.14,2.22,1.47,2.45.4.06.79.23,1.49.45-1.19.3-1.96-.33-2.82-.07q-.12.72,1.12.96c-.24.35-.62.15-.87.33-.08.44.54.52.51.94-.34.35-.49-.29-.77-.2-.44.92.06,1.22.81,1.49-.36.05-.72.09-1.06.14-.59,1.56.81,1.61,1.61,2.11-.65.58-1.05-.42-1.69-.12-.13,1.01.32,1.95.48,2.93.15.95.27,2.03.18,3.04-.14,1.48.19,2.81,1.04,4.01,0,0,.03-.03.03-.03-1.01-.16-1.4-1.11-1.37-1.77.12-2.88-.74-5.64-.81-8.49-.04-1.67.45-3.32.25-4.98-.31-2.61-.26-5.24-.22-7.86.03-1.67-1.36-2.09-2.33-2.84-1.52-1.18-2.15-1.18-3.51-.31-1.09.7-1.83,2.51-1.55,3.86-1.01.1-2.01.13-3.02-.25.81-.05,1.62-.1,2.72-.16-.72-.7-1.39-.31-1.96-.61.48-.48,1.1-.09,1.6-.35.43-.84-.17-1.45-.61-2.19.73-.11.73.65,1.21.83.63-.71,1.27-1.38,2.16-1.87,1.1-.6,1.88-.54,2.74.28.83.79,1.8,1.41,2.85,1.99.91-1.27,2.19-2.19,3.44-3.26.14.1.37.17.43.32.56,1.36,1.7,1.89,2.99,2.38.82.31.91,1.24.86,2.05-.06,1.06.52,1.55,1.36,1.86-.27-2.57,1.62-3.89,3.08-5.68.27,1.19,1.21.52,1.94.96-1,.23-1.85.42-2.81.64.48.41.82.69,1.2,1.01-.52.42-1.13.03-1.71.35.54.4,1.24-.04,1.79.39-.83.5-1.86-.24-2.79.77h3.69c-1.33.91-3.02-.48-3.86,1.17.5.43,1.04.09,1.51.39-.38.44-.94.09-1.33.34.1.44.59.06.79.45-.18.35-.66.04-.73.13-.84,3.83-.59,7.5-.4,11.27.43.2,1.17.1,1.35.93-.57-.04-1.23-.95-1.62.11.35.69,1.13.38,1.75.71-.45.31-.85.15-1.21.19-.07-.14-.18-.23-.34-.18-.05.01-.08.09-.13.13.12.05.25.11.37.16.17.46.81-.02.98.5-.45.24-.9.07-1.33,0-.41.7.32.62.69.92-.86.26-1.31.63-.21,1.21-.58.2-.73.58-.81.97.22.42.76,0,.93.46-.21.36-.89-.11-.92.48-.04.79.96.37,1.16.96-.33.45-.68-.17-1.11.02.28.79.56,1.58.87,2.44-.15.29-.43-.17-.64-.02-.27.68.42.87.65,1.31-.04.44-.61.05-.69.42-.11.41.93.82,0,1.26-.08.04-.08.4,0,.57.9,2.2.62,4.68,1.65,6.84.33.69-.02,1.38-.03,2.07-.06,3.34-1.03,6.6-.75,9.98-.46-1.03-.45-4.38,0-5.9.17-.56.06-1.11.15-1.65.1-.6-.4-.45-.64-.57-.26-.8,1.32-.43.78-1.39-.32-.18-.44.46-.79.24-.11-.23.12-.35.17-.53.08-.08.16-.16.24-.24.29-.02.56-.07.31-.56-.16.18-.29.32-.41.46-.08.08-.16.16-.24.24ZM57.96,52.55c-.04.08-.08.15-.12.23.08-.04.15-.08.23-.12.04-.08.08-.15.12-.23-.08.04-.15.08-.23.12ZM52.33,41.95c.28.05.55.39,1.03.13-.37-.32-.61-.6-1.03-.13ZM50.57,46.47c-.46-.16-.76-.23-1.1.04.37.19.66.19,1.1-.04ZM51.32,42.68c.46.16.76.23,1.1-.04-.37-.19-.66-.19-1.1.04ZM58.56,47.92c-.06-.02-.15-.1-.25-.1-.08,0-.15.09-.23.13.07.08.12.18.21.24.17.11.15-.07.27-.28ZM57.86,53.86l-.04.07s.1,0,.14,0c-.01-.02-.02-.06-.03-.07-.01-.01-.05,0-.07,0ZM58.34,48.59l-.04.07s.1,0,.14,0c-.01-.02-.02-.06-.03-.07-.01-.01-.05,0-.07,0Z"/>
  <path d="M59.63,106.54c-.02.27-.05.53-.07.8-.11,0-.23,0-.34,0-.73-4.82-2.14-9.6-.47-14.38.25.74.47,1.52-.15,3.33-.64,1.85-.11,3.5.25,5.19.12.54-.42,1.42.58,1.67l-.03-.03c.13.48.99.12.94.84-.47.1-.76-.36-1.23-.39-.16.58.16.71.62.74.44.03.8.22,1.18.48-.19.16-.32.27-.45.38.59.4,1.39.29,1.95,1.01-1.18-.09-2.05-.83-3.36-.89,1.24,1.22,2.55,1.71,4.03,1.88-1.26.42-2.29-.29-3.36-.76-.08-.04-.15-.08-.23-.12.04.08.08.15.12.23ZM59.44,104.84c-.02-.06-.04-.16-.08-.18-.13-.03-.17.06-.15.17.01.06.07.11.11.17.04-.05.08-.11.12-.16ZM60.09,104.9c-.07-.03-.14-.09-.18-.07-.07.02-.26.03-.09.18.04.04.13.05.19.04.04,0,.06-.09.09-.14Z"/>
  <path d="M53.97,113.73c3.19.12,6.5-1.51,9.6.72-1.18.39-2.18-.25-3.23-.14-.05-.54.6-.15.6-.58-1.42-.36-2.8.15-4.19.17-.26.34.46.31.19.63-1.15.31-2.01-.46-2.97-.8ZM56.26,114c-.07-.03-.14-.09-.18-.07-.07.02-.26.03-.09.18.04.04.13.05.19.04.04,0,.06-.09.09-.14Z"/>
  <path d="M62.03,75.88c0,.16-.02.31-.03.58-.44-.11-.63-.65-1.12-.6.15-.14.3-.28.43-.39-.18-.63-.65.03-.94-.32.46-.34.51-.83.27-1.34.49-.06.4.38.66.41.08.04.15.08.23.12-.04-.08-.08-.15-.12-.23.66-.59,1.62-.75,2.29-1.55-.69,1-.89,1.91.22,2.67-.59.5-1.12.76-1.79.55-.08-.04-.15-.08-.23-.12.04.08.08.15.12.23ZM62.62,74.47c-.09-.1-.15-.17-.21-.24-.08.07-.18.12-.24.21-.1.17.07.19.15.19.09,0,.17-.09.29-.16ZM62.96,75.27c-.03-.05-.05-.13-.09-.14-.06-.02-.15,0-.19.04-.17.15.03.16.09.18.05.01.12-.04.18-.07ZM61.78,74.96s-.05-.03-.07-.04c0,.05,0,.1,0,.14.02-.01.06-.02.07-.03.01-.01,0-.05,0-.07Z"/>
  <path d="M51.73,108.7c.5.38,1.01.72,1.68.72,1.31,1.07,2.63.9,3.5-.35.45-.65.96-1.35,2.31-1.25-1.28.54-1.94,1.26-2.36,2.22-.12.28-.4.44-.77.47-1.76.17-3.18-.74-4.62-1.52-.24-.13.05-.29.26-.3Z"/>
  <path d="M85.59,39.16c-1.81-.03-3.61.47-5.45,0,2.52-.05,4.99-.46,7.72-.94-.76.87-1.73.4-2.3.97l.03-.02Z"/>
  <path d="M74.99,104.6c1.1-.44,2.24-.07,3.56-.33-.58.82-1.36.23-1.87.7.23.94,1.55.65,1.86,1.58-.67.21-.94-.46-1.43-.61-.67-.2-1-1.23-1.94-.8-.05-.19-.1-.38-.16-.56,0,0-.03.03-.03.03Z"/>
  <path d="M73.43,46.19c-.73-1.7-2.66-2.64-2.84-4.64.64,1.75,2.54,2.71,2.84,4.64Z"/>
  <path d="M79.6,102.44c1.75-.49,2.96-1.68,4.14-2.89.07,1.19-2.49,3.06-4.14,2.89Z"/>
  <path d="M85.56,39.19c.9.31,1.8-.36,2.71,0-1.73.5-3.49.75-5.29.83.78-.59,1.85-.22,2.6-.85,0,0-.03.02-.03.02Z"/>
  <path d="M72.68,48.82c.08-.08.16-.16.24-.24.63.3.16.91.37,1.33-.54.4-1.08.8-1.74,1.3-.04-.82.65-.83.89-1.2.08-.08.16-.16.24-.24.04-.08.08-.15.12-.23-.08.04-.15.08-.23.12l-.24.24c-.3,0-.62.01-.26-.41.2-.23.4-.46.6-.69Z"/>
  <path d="M64.1,109.38c-1.08-.7-2.23-1-3.62-1.4.83-.11,3.65.52,3.76.79.06.13-.08.35-.14.61Z"/>
  <path d="M38.07,47.85c1.24.51,2.29.05,3.49.06-1.39.77-2.6.78-3.49-.06Z"/>
  <path d="M66.94,106.54c.08-.08.15-.15.23-.23,1.15.03,2.3.12,3.3.83-1.17-.2-2.35-.4-3.52-.61Z"/>
  <path d="M44.58,107.21c.14.57,1.12-.02,1.09.96-1.11-.45-2.25-.67-3.19-1.4.74.05,1.36.54,2.13.46l-.03-.03Z"/>
  <path d="M63.46,58.3c-.38.13-.46-.17-.35-.36.29-.5.12-1.07.35-1.72.41.61.1,1.37.7,1.8.16.11.03.54-.26.68-.29.14-.31-.1-.32-.3.14-.07.23-.18.18-.34-.01-.05-.09-.08-.13-.13-.05.12-.11.25-.16.37Z"/>
  <path d="M41.52,47.35c-1.17.36-2.34.12-3.5-.07,1.17,0,2.35-.36,3.51.09,0,0-.02-.02-.02-.02Z"/>
  <path d="M78.43,108.7c.74-.36,1.47-.72,2.34-.67-.71.43-1.42.87-2.34.67Z"/>
  <path d="M63.87,97.18c-.38-.33-.24-.76-.61-.87.02-.05.02-.1.04-.12.34-.33.69-.66,1.14-1.09.12.87-.71,1.27-.57,2.08Z"/>
  <path d="M78.8,49.43c-.19.01-.39.01-.47.23-.08,0-.21.03-.23,0-.25-.57.32-.73.58-.97.53-.49.71-.48,1.07-.21-.16.16-.31.31-.47.47-.33-.01-.5.14-.48.48Z"/>
  <path d="M87.73,41.1c-.56-.25-1.08.49-1.75,0,.76-.26,1.4-.61,2.15-.65.07.49-.53.31-.43.69,0,0,.03-.03.03-.03Z"/>
  <path d="M33.38,53.02c-.15-.29-.36-.49-.72-.48-.03-.2-.39-.71.23-.38.6.32,1.22.61,1.89.9-.53.48-.95-.19-1.4-.04Z"/>
  <path d="M53.21,61.36c.33-.95.51-1.62,1.27-1.93-.29.6-.44,1.29-1.27,1.93Z"/>
  <path d="M41.75,52.36c-.54-.12-1.07-.05-1.64.2.08-.98,1.21-.35,1.34-1.1.34.29.15.65.27.92,0,0,.03-.03.03-.03Z"/>
  <path d="M78.38,81.45c.28,1.03-.32,1.34-1.14,1.46.4-.47,1.01-.75,1.14-1.46Z"/>
  <path d="M58.1,49.83q-.48.67-1.8.99c.45-.78,1.25-.65,1.8-.99Z"/>
  <path d="M77.94,92.47c.69-.41,1.2-.72,1.71-1.03-.26.73-.7,1.15-1.71,1.03Z"/>
  <path d="M33.95,49.26c-.87-.24-1.16-.76-1.75-1.45.93.3,1.26.78,1.75,1.45Z"/>
  <path d="M49.76,48.48c.5.07.81.45,1.23.67-.72.39-.94-.24-1.23-.67Z"/>
  <path d="M61.83,94.1c.78-.29,1.25-.62,2.07-.36-.69.32-1.17.59-2.07.36Z"/>
  <path d="M38.92,44.76c.52-.28,1.03-.34,1.52,0h-1.52Z"/>
  <path d="M55.17,60.66c-.34.72-.27,1.32-.89,1.76.02-.7.04-1.26.89-1.76Z"/>
  <path d="M72.4,52.08c-.23-.01-.47-.02-.88-.04.54-.42.95-.75,1.43-1.13.1.67-.56.75-.58,1.19,0,0,.03-.02.03-.02Z"/>
  <path d="M44.19,68.55c.6-.18,1.03.27,1.55.26q-.81.31-1.55-.26Z"/>
  <path d="M72.38,53.42c-.21.88-.54,1.2-1.25,1.29.26-.54.61-.81,1.25-1.29Z"/>
  <path d="M39.85,49.28c.42-.19.79-.55,1.42-.4-.41.55-.87.63-1.42.4Z"/>
  <path d="M38.91,44.09c.44-.37.88-.41,1.61,0h-1.61Z"/>
  <path d="M77.3,88.9c.4-.44.83-.54,1.3-.56-.26.44-.62.68-1.3.56Z"/>
  <path d="M64.09,98.76c-.18-.53.27-.84.32-1.52q.23.97-.32,1.52Z"/>
  <path d="M68.41,105.62c.44.11.88.22,1.48.37-.71.4-1.12.06-1.48-.37Z"/>
  <path d="M44.61,107.24c.06-.31-.36-.27-.4-.6.53-.27.87.26,1.32.44-.32.04-.63.09-.95.13,0,0,.03.03.03.03Z"/>
  <path d="M78.66,52.18c.28-.03.4.1.37.38-.38.13-.51.66-1.05.68.03-.54.55-.68.68-1.05Z"/>
  <path d="M72.9,52.84c-.35-.19-.63.29-1,.13.18-.31.34-.6.51-.89,0,0-.03.02-.03.02.49.04.42.45.49.76,0,0,.03-.03.03-.03Z"/>
  <path d="M32.98,43.1c.16.71-.39.59-.84.97.18-.65.4-.89.84-.97Z"/>
  <path d="M74.56,75.49c-.22-.33-.37-.67.14-.93.23.36-.05.64-.14.93Z"/>
  <path d="M63.25,54.98c-.01.57-.35.42-.65.41-.05-.59.46-.24.65-.41Z"/>
  <path d="M54.68,63.7c-.33-.39-.19-.66-.14-1.07.41.34.32.63.14,1.07Z"/>
  <path d="M63.91,60.36c-.04.39-.17.59-.65.53.08-.34.26-.5.65-.53Z"/>
  <path d="M49.95,60.63c.4-.05.52.13.55.5-.37,0-.5-.16-.55-.5Z"/>
  <path d="M76.13,79.09c-.16.11-.27.2-.39.25-.02,0-.16-.16-.15-.22.03-.09.13-.2.22-.22.07-.02.17.09.31.19Z"/>
  <path d="M74.78,77.04c.21.28.28.46,0,.62-.28-.15-.2-.34,0-.62Z"/>
  <path d="M59.44,103.17c.1-.17.02-.62.48-.32-.02.4-.38.13-.51.29,0,0,.03.03.03.03Z"/>
  <path d="M30.21,40.66c.08-.2.06-.57.48-.35-.02.43-.38.17-.51.33,0,0,.03.03.03.03Z"/>
  <path d="M59.47,100.82c.04.05.12.1.12.15,0,.13-.1.19-.22.14-.04-.02-.08-.13-.07-.18.01-.05.11-.07.17-.11Z"/>
  <path d="M59.84,102c-.06.03-.12.06-.18.1-.03-.08-.06-.16-.1-.25.07-.02.15-.06.19-.04.05.03.06.12.08.19Z"/>
  <path d="M71.92,110.33c.1.11.09.17-.03.17-.11,0-.21-.03-.32-.05.04-.06.08-.13.13-.18.15-.17.15.07.22.06Z"/>
  <path d="M67.38,110.39c.04.05.11.1.12.15.01.14-.09.2-.21.16-.04-.01-.09-.12-.08-.18,0-.05.1-.08.17-.14Z"/>
  <path d="M65.83,111.56c-.06.04-.11.08-.17.11-.04-.08-.08-.16-.12-.24.07-.02.14-.08.19-.06.05.02.06.12.1.18Z"/>
  <path d="M69.06,112.07c.04.05.11.1.12.15.01.14-.09.2-.21.16-.04-.01-.09-.12-.08-.18,0-.05.1-.08.17-.14Z"/>
  <path d="M64.02,112.32c.04.05.12.1.12.15,0,.13-.1.19-.22.14-.04-.02-.08-.13-.07-.18.01-.05.11-.07.17-.11Z"/>
  <path d="M66.06,94.82s-.07-.02-.07-.03c0-.03.02-.06.03-.09.02.01.07.02.07.03,0,.03-.02.06-.03.09Z"/>
  <path d="M66.41,96.24s-.08-.1-.13-.15c.04.06.08.11.11.17,0,0,.01-.02.01-.02Z"/>
  <path d="M86.75,87.05c.16.26.32.53.59.99-2.02,0-3.53,1.56-5.54,1.25,1.53-.14,2.7-1.32,4.23-1.43.53-.04.81-.27.75-.83,0,0-.02.02-.02.02Z"/>
  <path d="M84.6,61.07c0,1.22-.87,2.06-2.24,2.19.84-.72,1.88-1.1,2.24-2.19Z"/>
  <path d="M83.59,64.44c.18-.8,1.1-1.07,1.3-1.85.2,1.02-.68,1.36-1.3,1.85Z"/>
  <path d="M85.01,83.52c-.55.27-1.16.06-1.72.29.47-.79,1.1-.46,1.72-.29Z"/>
  <path d="M85.2,82.36c-.56-.21-1.17-.02-1.72-.28.61-.18,1.25-.52,1.72.28Z"/>
  <path d="M83.46,60.41c.03-1.01.48-1.29,1.15-1.39-.32.39-.64.78-1.15,1.39Z"/>
  <path d="M86.87,46.85c-.43.11-.78.6-1.34.31.4-.42.81-.62,1.34-.31Z"/>
  <path d="M85.89,50.6c-.11.51-.51.58-.99.79.13-.71.63-.66.99-.79Z"/>
  <path d="M42.88,91.19c-.29.67-.94.61-1.51.73.28-.63.98-.53,1.51-.73Z"/>
  <path d="M43.95,99.79c-.23-.26-.41-.46-.58-.66.06-.09.11-.2.15-.19.54.01.59.32.43.85Z"/>
  <path d="M42.96,94.62c-.28.1-.53.16-.81-.05.3-.34.55-.37.81.05Z"/>
  <path d="M42.82,69.52c-.16.1-.28.17-.39.24-.05-.08-.15-.18-.13-.24.03-.09.14-.2.23-.22.07-.01.16.11.3.22Z"/>
  <path d="M43.55,96.26c-.06.02-.17.1-.23.07-.09-.04-.2-.14-.21-.23,0-.06.15-.22.2-.2.14.03.27.12.24.36Z"/>
  <path d="M36.47,83.72c.45.04.94-.04,1.22.7-.49-.15-.89-.28-1.29-.41.02-.1.05-.2.07-.29Z"/>
  <path d="M36.55,85.02c.64-.48.91-.07,1.31.15-.5.41-.8-.11-1.31-.15Z"/>
  <path d="M46.94,103.89c.31-.19.62-.38.96-.59-.13.58-.26,1.07-.94.57,0,0-.02.02-.02.02Z"/>
  <path d="M48.96,29.55s0-.09,0-.14c.37-.24.73-.4,1.18-.01-.42.27-.81.11-1.18.15Z"/>
  <path d="M33.56,61.93c.09.56.75.07.98.65-1.25,0-2.3-.42-3.28-1.01-.37-.22-.32-.51.17-.58l-.03-.03c.55.72,1.24,1.13,2.19.98l-.03-.02Z"/>
  <path d="M31.43,61c.07-.4-.63-.22-.46-.83,1.1.51,2.09,1.23,3.34,1.44-.21.41-.54.21-.75.31,0,0,.03.02.03.02-.69-.42-1.36-.88-2.19-.98l.03.03Z"/>
  <path d="M31.25,59.08c1.12.2,1.86,1.19,3.22,1.34-.99.24-1.44.04-3.22-1.34Z"/>
  <path d="M32.87,56.44c-.15-.45-.84-.43-.89-1.17.66.42,1.23.79,1.84,1.18-.2.29-.51.12-.73.21v.03c.01-.18-.08-.27-.25-.27l.03.02Z"/>
  <path d="M33.1,56.65c-.71.44-1.21.19-1.86-.58.79-.02,1.11.63,1.64.36,0,0-.03-.02-.03-.02,0,.18.09.27.27.27v-.03Z"/>
  <path d="M87.43,101.16c-.19.02-.39.02-.48.24-.37-.03-.76.13-1.35-.28,1.04.12,1.62-.91,2.53-.33-.16.27-.59.02-.7.38Z"/>
  <path d="M85.57,103.34c-.2.74-.62,1.1-1.6.81.63-.31,1.13-.55,1.62-.79,0,0-.03-.03-.03-.03Z"/>
</svg>