<?xml version="1.0" encoding="UTF-8"?>
<svg id="a" data-name="Layer_1" xmlns="http://www.w3.org/2000/svg" viewBox="0 0 97.71 117.47">
  <path d="M6.75,106.54c.22-.72.44-1.44.66-2.16.05-.02.11-.03.16-.05,0,.54,0,1.08,0,1.61-.04.15-.08.29-.13.44.09-.11.17-.21.26-.32.32-1.27.65-2.53,1-3.9.05.77.09,1.51.14,2.24.06.02.13.04.19.05.64-1.49,1.24-3,1.94-4.46,1.29-2.68,2.68-5.3,3.95-7.98.53-1.12.88-2.32,1.3-3.49,1.02-2.83,2.05-5.66,3.03-8.51.59-1.7,1.02-3.46,1.67-5.14.64-1.67,1.31-3.37,2.23-4.9,1.54-2.58,2.61-5.34,3.57-8.17,1-2.93,1.31-6.07,2.79-8.88.66-1.25.8-2.78,1.18-4.18.03-.11.08-.22.14-.31.96-1.38.84-1.68-.65-1.93-.93,3.09-1.86,6.17-2.79,9.25-.16-.05-.33-.1-.49-.15.14-.39.31-.78.41-1.18.35-1.33.64-2.68,1.01-4.01.32-1.13.75-2.22,1.05-3.35.11-.41.45-1.07-.45-1.15h.02c-.96-.36-1.92-.75-2.89-1.07-.12-.04-.45.26-.53.46-.35.87-.63,1.76-.95,2.65-.17.49-.35.98-.53,1.47-.12-.04-.24-.09-.37-.13.52-1.47,1-2.96,1.59-4.4.09-.22.73-.4,1.02-.31,1.68.52,3.32,1.13,5.2,1.79-.53-1.65-1.07-3.18-1.52-4.74-.21-.71-.41-1.47-.35-2.18.07-.8-.14-1.32-.78-1.75-.07-.05-.03-.27-.02-.15,1.43.28,2.85.56,4.27.83.04-.12.07-.23.11-.35-1.72-.67-3.44-1.39-5.19-1.97-.26-.09-.72.44-1.17.73.51.39,1.06.82,1.61,1.24l-.16.23c-.75-.5-1.49-1-2.2-1.47,2.43-2.09,5.15-3.37,8.12-4.12.92-.23,2.12.24,2.85-.19.74-.43.98-1.64,1.58-2.4.39-.5,1.03-.79,1.72-1.29-.55-.1-.88-.16-1.22-.22.73-1.88,2.34-3.4,2.87-3.31-.67.73-1.55,1.68-2.55,2.77.66.23,1,.36,1.62.57-1.9,1.61-3.92,2.97-4.07,5.63-.06-.39-.13-.77-.23-1.39-.51.99-.81,1.84-1.33,2.52-.6.78-1.4,1.4-2.18,2.15q1.99.98,2.39-.67c-.38.25-.68.44-1.01.66.34-.97.99-1.33,2.1-1.7.57-.19.99-.84,1.44-1.33.48-.52.91-1.09,1.35-1.64.04-.08.07-.16.11-.24-.08.04-.16.08-.24.11-.47.3-.94.6-1.41.9,1.01-.83.99-2.61,2.58-2.86.38-.06.79.06,1.14.1-.75.33-1.41.62-2.07.91-.04.08-.07.16-.11.24.08-.04.16-.08.24-.11.73-.02,1.45-.07,2.18-.07.86,0,1.72.42,2.56-.25.29-.24.82-.18,1.21-.25-.17-.71-.34-1.42-.55-2.28.51.06.83.09,1.18.13-.22-.73-.43-1.41-.64-2.1l.2-.08c.46.85.77,1.86,1.43,2.49.66.62.75,2,2.14,1.86-.16-.36-.29-.66-.42-.96h-.02c1.17.74,2.35,1.46,3.62,2.23-.22.04-.39.12-.49.07-1.09-.56-2.15-1.1-3.47-1.06-.52.01-1.06-.63-1.58-.99-.38-.26-.75-.54-1.12-.8-.08-.04-.16-.07-.24-.11.04.08.08.16.11.24.25.9.51,1.8.78,2.75h-1.36c.11-.29.22-.58.37-.99-.61.15-1.08.26-1.7.42.49.28.84.49,1.2.7,1.14.56,2.64.85,3.32,1.75.93,1.22,2.72,1.45,3.17,3.17.24.92.87,1.64,2.16,1.58,1.46-.07,2.94.24,4.41.34.23.02.53-.14.69-.32.61-.67,1.18-1.38,1.87-2.21-.56-.2-1.09-.38-1.62-.57.02-.11.05-.22.07-.33.42.09.9.08,1.23.3.94.6,1.55.25,2.27-.45.72-.7,1.55-1.53,2.46-1.74,1.18-.27,2.49-.01,3.74.07.55.04,1.08.2,1.58.56-.51-.04-1.02-.08-1.53-.12-.08-.04-.16-.07-.24-.11.04.08.08.16.11.24.07.16.15.32.27.59-2.98-1.72-3.87-1.61-6.3.96-1.14,1.2-1.95,2.61-1.66,4.42.04.26-.28.57-.59,1.14-.48-1.97-.19-3.37,1.11-4.55-.14-.08-.27-.16-.41-.24-.72.84-1.59,1.6-2.14,2.54-.79,1.34-1.25,2.86-.1,4.26.3.37.94.58,1.44.63.25.02.57-.47.82-.77.11-.14.07-.47.19-.52.78-.37.85-.74.11-1.25-.11-.07-.01-.43-.01-.76,1.11.87.86,1.9.53,2.82-.4,1.11.24,1.69.97,2.14.89.54,2.02.5,2.6-.3.67-.91,1-2.1,1.35-3.21.16-.52.03-1.14.03-1.9-.22.31-.36.5-.56.79-.13-.45-.25-.83-.37-1.25.73-.21,1.42-.4,2.04-.58.02.5,0,.93.07,1.33.18.91.3,1.87.68,2.7.24.53.84,1.08,1.39,1.24.77.23,1.34-.27,1.46-1.12.06-.45.12-.91.21-1.6.81,1.27,1.9.86,2.86.78.23-.02.51-.83.57-1.3.08-.68-.06-1.39-.05-2.08.02-1.35-1.05-1.87-1.91-2.51-.64-.47-1.39-.8-2.09-1.19.07-.11.14-.23.21-.34,1.17.8,2.41,1.51,3.48,2.42.61.53,1.04.98,1.89.57.76-.37,1.57-.65,2.35-.97.08-.08.16-.16.24-.24.08-.08.16-.16.24-.24.08-.08.16-.16.24-.24.08-.08.16-.16.24-.24.04-.08.07-.16.11-.24-.08.04-.16.08-.24.11-.08.08-.16.16-.24.24-.08.08-.16.16-.24.24s-.16.16-.24.24c-.08.08-.16.16-.24.24-.2-.04-.39-.08-.59-.11.08-.08.16-.16.24-.24.16-.16.32-.32.48-.48.24-.32.48-.64.72-.96.08-.08.16-.16.24-.24.04-.08.07-.16.11-.24-.08.04-.16.08-.24.11-.08.08-.16.16-.24.24-.24.32-.47.63-.71.95-.16.16-.32.32-.48.48-.08.08-.16.16-.24.24-.07-.26-.14-.52-.21-.8-.42.05-.84.09-1.31.14.12.5.23.97.34,1.45-.06.02-.13.03-.19.05-.23-.39-.46-.77-.67-1.16-.13-.24-.23-.51-.34-.76.28,0,.56,0,.84-.02.11,0,.22-.05.44-.11-.44-.33-.82-.6-1.2-.88.02-.05.04-.09.06-.14l.81.2c.41.24.69,1.23,1.32.24.08-.08.16-.16.24-.24.38-.36.77-.73,1.15-1.09-.13-.11-.25-.21-.38-.32-.3.43-.6.85-.9,1.28-.08.08-.16.16-.24.24-.36-.08-.72-.16-1.07-.24.08-.28.16-.55.24-.83.08-.08.16-.16.24-.24.04-.08.07-.16.11-.24-.08.04-.16.08-.24.11-.08.08-.16.16-.24.24-.16.07-.32.15-.58.27.76-1.32,2.01-2.08,3.22-1.8,1.19.27,2.32.81,3.49,1.17,1.56.48,3.23.72,4.7,1.4,1.23.57,2.24,1.61,3.35,2.61-1.24-.02-1.5.53-1.54,1.59-.08,1.68-.32,3.37-.7,5.01-.26,1.16-.7,2.27-1.27,3.37-.69,1.33-.95,2.89-1.31,4.37-.79,3.22-.81,6.51-.74,9.8.03,1.25.23,2.55-.03,3.73-.7,3.14-.97,6.29-.92,9.49,0,.12-.04.27.02.35,1.41,2,.26,4.44,1.16,6.53.81,1.9,1.52,3.83,2.24,5.76.33.88.61,1.78.88,2.68.62,2,.44,4.09.26,6.08-.21,2.33.79,4.21,1.48,6.23.16.48.42.93.59,1.42.74,2.14.21,3.26-1.62,4.63-1.68,1.26-3.65,1.39-5.53,1.89-.15.04-.43.01-.45.07-.49,1.66-2.01,1.18-3.12,1.48-2.49.67-5.03,1.21-7.52,1.88-2.38.64-4.71,1.46-7.1,2.06-.77.19-1.67,0-2.49-.12-.88-.13-1.74-.54-2.61-.56-3.27-.07-6.54,0-9.81-.04-3.37-.04-6.65-.64-9.72-2.08-2.08-.98-4.1-2.06-6.17-3.06-.67-.33-1.39-.53-2.08-.82-1.88-.8-2.59-2.29-1.91-4.23.58-1.67,1.46-3.26,1.83-4.96.28-1.29,1.41-2.11,1.47-3.48.06-1.3.61-2.63.46-3.88-.23-1.94-1.01-3.81-1.33-5.75-.54-3.35-.9-6.76-.23-10.13.43-2.15-.64-3.59-1.84-5.06-.19-.23-.51-.41-.59-.66-.45-1.49-1.08-2.98-1.21-4.5-.17-2.02,0-4.08.16-6.12.14-1.71.49-3.41.49-5.19-.25.7-.52,1.4-.76,2.11-.25.73-.37,1.51-.71,2.19-.75,1.5-1.08,3.04-1.29,4.71-.19,1.5-.86,3.01-1.59,4.36-1.29,2.39-2.72,4.66-2.96,7.5-.1,1.15-.89,2.23-1.31,3.37-1.68,4.44-3.54,8.83-4.92,13.36-.79,2.61-1.74,5.12-2.77,7.62-.64,1.55-.9,3.3-1.78,4.68-1.25,1.96-2.9,3.67-4.4,5.47-.04.05-.22-.02-.41-.05,1.92-1.64,2.38-3.82,2.63-6.11.07-.64.45-1.25.68-1.87.56-1.5,1.3-2.87,2.31-4.15.93-1.18,1.51-2.58,1.61-4.22.06-1.02.56-2.2,1.24-2.97,1.64-1.85,2.4-4.04,2.93-6.34.19-.8.95-1.54.19-2.64-.34-.5.37-1.73.61-2.62.08-.24.16-.48.24-.72.07-.22.15-.44.22-.66-.07-.02-.14-.04-.21-.06-.05.2-.09.4-.14.6-.08.24-.16.48-.24.72-1.69,2.78-2.61,5.86-3.31,8.99-.38,1.69-1.17,3.11-2.07,4.57-1.18,1.92-2.03,4.06-2.96,6.13-.76,1.68-1.48,3.39-2.11,5.13-.45,1.25-.68,2.56-1.05,3.84-.14.49-.37.96-.81,1.35l1.3-4.63c-.09-.02-.17-.05-.26-.07-.41.87-.78,1.76-1.24,2.6-.21.38-.19,1.23-1.09.75-.08-.04-.62.48-.69.8-.07.28.21.64.42,1.18-.3-.12-.81-.22-.82-.34-.06-1.23-1.22-1.44-1.84-2.13-.91-1.02-2.03-2.12-2.31-3.35-.26-1.16.3-2.6.76-3.82,1.61-4.33,3.82-8.42,5.03-12.92.48-1.77,1.39-3.42,2.04-5.14.14-.36.16-.9-.02-1.21-.85-1.51-1.81-2.95-2.68-4.45-.21-.36-.24-.84-.42-1.55.85,1.37,1.53,2.46,2.23,3.6.29-.15.54-.27,1.05-.53-.42.74-1.1,1.33,0,1.83.16-.57.24-1.11.46-1.58.13-.27.51-.41.77-.61l-1.09,2.98c.13.06.26.11.39.17.48-1.02.97-2.03,1.45-3.05-.2-.07-.41-.15-.61-.22-.64-1.5-1.28-3-1.93-4.51.08-.04.16-.08.24-.12.78,1.48,1.55,2.96,2.51,4.79.99-2.54,1.89-4.73,2.71-6.95.97-2.64,1.87-5.3,2.79-7.95.08-.22.09-.46.14-.69.04-.15.08-.29.13-.44-.09.11-.17.21-.26.32-.71.17-1.44.31-2.14.52-.98.3-1.94.65-3.03.78.64-.32,1.26-.7,1.93-.93.73-.25,1.6-.2,2.25-.56.6-.34,1-1.05,1.49-1.59-.09-.09-.18-.18-.28-.27-.34.3-.68.61-1.02.91-.06-.06-.12-.11-.18-.17.21-.32.43-.65.64-.97.04-.15.08-.29.13-.44-.09.11-.17.21-.26.32-.12-.2-.23-.4-.35-.6.16-.38.31-.75.47-1.13-.12-.03-.24-.07-.35-.1-.08.37-.16.74-.24,1.11-.2-.12-.39-.24-.59-.36.04-.15.08-.29.13-.44-.09.11-.17.21-.26.32-.7.11-1.42.15-2.08.36-.76.24-1.46.64-2.19.98-.07-.18-.14-.35-.2-.53,1.9-.63,3.8-1.3,5.72-1.85.48-.14,1.13.02,1.61.24.71.33,1.13-.06,1.37-.51.94-1.79,1.8-3.62,2.72-5.49-.08.51-.04,1.12-.27,1.61-.71,1.49-1.52,2.93-2.29,4.39-.02.04-.04.07-.05.11-1.14,2.83-2.29,5.65-3.41,8.49-1.98,5.01-3.48,10.2-6.11,14.97-1.28,2.31-2.04,4.91-3.03,7.38-1.25,3.12-2.54,6.23-3.71,9.39-.68,1.83-1.26,3.7-1.67,5.6-.13.62.43,1.39.67,2.09.13,0,.25,0,.38,0,.21-.56.42-1.12.63-1.68.07,0,.14.01.21.02-.16.83-.31,1.66-.47,2.49.1.04.2.08.29.12.32-.6.62-1.21.97-1.79.13-.22.39-.36.59-.53.09.23.29.48.26.69-.08.58-.34,1.14-.37,1.71-.02.39.22.8.34,1.2.25-.25.65-.47.72-.77.34-1.34.58-2.7.99-4.08v2.53c-.06.3-.12.59-.18.89h.26c.02-.25.04-.51.06-.77ZM66.45,80.94c.08.08.16.16.24.24.16.08.32.16.48.24.08.08.16.16.24.24.07.16.15.32.37.8-.57-.41-.87-.62-1.16-.83-.09.07-.19.15-.28.22.33.52.66,1.04.97,1.53-.21-.02-.49-.05-.87-.09.6.99,1.13,1.86,1.75,2.89-.56-.28-.96-.49-1.34-.68-.73,1.63,1.12,1.36,1.68,2.3-.6-.2-1.01-.34-1.4-.47,0,1.31,0,2.52,0,3.74,0,1.61-.08,3.22.05,4.82.1,1.2.46,2.38.71,3.57.16.73.32,1.45.52,2.16.08.29.29.53.45.8.69,1.21,1.37,2.42,2.06,3.62.04.07.11.13.17.16.94.34,1.89.67,2.85,1.01.6-2.08,1.41-4.26,1.83-6.52.38-2.03,1.41-4.16-.08-6.21-.51-.71-.87-1.58-1.51-2.13-.73-.63-1.12-1.28-1.14-2.21,0-.44.06-.89-.03-1.31-.75-3.5-1.53-7-2.3-10.49-.39-1.76-.86-3.53-.04-5.3.25-.53.63-1.08.65-1.63.03-1.34-.11-2.68-.2-4.02-.01-.18-.06-.43-.18-.52-.55-.41-1.14-.77-1.73-1.15-.06.06-.21.22-.25.27-.31-.8-.61-1.56-.93-2.37.29.17.56.32.87.5.07-.68.12-1.23.18-1.78l.33-.14c.15.36.3.72.44,1.08.11-.08.22-.15.33-.23,0-.47-.03-.95,0-1.41.07-.75.52-.85,1.36,0,.51-2.9.99-5.58,1.46-8.27l-.02.02c.18-.94.36-1.89.55-2.83.1-.7.19-1.39.29-2.09-.15-.08-.29-.17-.44-.25-.15.26-.3.52-.45.78-.08.08-.16.16-.24.24-.33.14-.65.28-.98.42-.03-.05-.06-.1-.09-.15.73-.66,1.45-1.33,2.38-2.18.48,3.38-.63,6.42-1.03,9.54.47-.11.87-.2,1.28-.3.02.09.04.17.07.26-.51.19-1.02.39-1.56.59-.06.39-.14.84-.23,1.4.38-.12.72-.22,1.05-.32.07.1.14.2.21.31-.33.34-.65.68-.97,1.03-.2.21-.4.43-.6.65-.04.08-.07.16-.11.24.08-.04.16-.08.24-.11.77-.15,1.54-.3,2.31-.46-.46.43-1.02.6-1.55.83-.16.07-.25.31-.38.47.21.02.42.03.51.04.2.73.39,1.42.58,2.11.17-.06.34-.12.51-.18-.16-.37-.45-.73-.44-1.1,0-.32.32-.9.5-.91.55-.01,1.1.23,1.65.33,1.26.25,1.55-.01,1.56-1.36,0-1.49-.19-3.01.73-4.35.04-.08.07-.16.11-.24-.08.04-.16.08-.24.11-.31.24-.62.47-.93.71.62-1.24,2.29-1.74,2.01-3.46.16-.38.32-.76.48-1.14-.08-.05-.15-.1-.23-.14-.28.23-.57.45-.85.68-.25-.44-.24-.44.35-.85.56-.39,1.35-.69.77-1.66-.63.45-1.22.87-1.82,1.3-.04-.05-.09-.11-.13-.16.24-.3.48-.59.71-.89.16-.08.32-.16.48-.25.16-.16.32-.32.47-.47.16-.16.33-.33.49-.49.09-.46.17-.91.28-1.48-.9.49-1.59.87-2.29,1.25-.07-.11-.14-.22-.21-.34,1.39-.45,2.18-1.43,2.82-2.97-.76.46-1.24.75-2.01,1.22.59-.93.99-1.57,1.4-2.21.11-.09.21-.17.32-.26-.15.04-.29.08-.44.13l-1.22.42c-.04-.08-.07-.16-.11-.24.56-.32,1.11-.63,1.72-.98-.3-.78-.58-1.5-.89-2.3-.81.75-1.55,1.3-2.13,1.98-.86,1-1.99,1.89-1.77,3.49.03.23-.46.54-.71.81.28-3.07,2.37-4.87,4.59-6.87.41.76.83,1.54,1.32,2.42.88-.5,1.73-1.08,2.66-1.46.48-.2,1.26-.27,1.63-.01,1.1.76,1.73.83,2.88-.08l-.02.02c.71.64-.15.67-.38.83-.29.19-.69.21-1.04.31,0,.12.01.24.02.36.33.03.66.1.98.06.32-.04.63-.2.94-.31l.08.27c-.5.25-1,.5-1.49.75l.05.36c.48-.04.96-.08,1.44-.12v.82c.08,0,.17,0,.25.01.3-2.22.6-4.43.94-7.01-1.53.64-2.76,1.15-3.99,1.67-.2.05-.4.1-.6.14.02.07.04.14.06.21.22-.07.44-.15.66-.22.86-.06,1.71-.13,2.57-.19-1.08.45-2.19.63-3.29.79-.58.08-1.17.22-1.74.18-.62-.05-1.22-.4-1.83-.39-1.62,0-3.24.17-4.86.2-.84.01-1.13.19-.88,1.11.49,1.82.1,2.25-1.76,2.26-.2,0-.41-.03-.6,0-.36.07-.71.19-1.06.28.18.33.31.7.56.98.83.94.85.93.59,1.71-.69-1.64-.77-1.67-2.28-1.11-.21.08-.47.05-.71.05-.53,0-1.06,0-1.59,0,0,.07,0,.15,0,.22.25.1.49.19,1.04.4-1.1.09-1.86.14-2.62.2l.02.41c.91.04,1.83.09,2.74.13,0,.1-.02.2-.02.3-.55,0-1.11-.04-1.66.01-.46.05-.92.21-1.38.32.03.16.05.32.08.47h2.46c0,.13,0,.27,0,.4-.64,0-1.29-.03-1.92.02-.2.02-.39.26-.58.4.2.13.38.31.59.39.24.09.51.09.77.13-.01.06-.03.12-.04.18-.52.06-1.04.12-1.89.21.54.34.77.48,1.03.64-.63.33-.66.33-.69,2.03,0,.46.24.92.37,1.39-.11.3-.36.68-.38,1.08-.12,2.18-.16,4.36-.27,6.54-.04.87,0,1.79-.29,2.58-1.12,2.98-.51,6.05-.61,9.08,0,.06.09.12.11.15.3-.1.59-.2.89-.3.03.08.07.16.1.23-.38.2-.76.39-1.21.63.33.29.57.5.89.78-.34.07-.57.12-.79.17.12.21.23.43.37.62.28.38.57.76.86,1.13-.32.04-.43-.08-.53-.21-.09-.11-.16-.23-.33-.49-.56,1.94,1.27,2.79,1.59,4.57-.52-.62-.84-1-1.16-1.38-.54,1.01.52,1.19.89,1.74.14.21.2.46.3.69-.08-.08-.16-.16-.24-.24-.16-.08-.32-.16-.48-.24-.08-.08-.16-.16-.24-.24-.08-.04-.16-.07-.24-.11.04.08.08.16.11.24ZM58.07,53.05c-.04.08-.07.16-.11.24l.24-.11c.04-.08.07-.16.11-.24-.08.04-.16.08-.24.11ZM89.07,107.74c.04-.08.07-.16.11-.24-.08.04-.16.08-.24.11-.08.08-.16.16-.24.24-.16.08-.32.16-.48.24l-2.57,1.2c.08.15.17.3.25.44.81-.5,1.63-1.01,2.44-1.51.16-.08.32-.16.48-.25.08-.08.16-.16.24-.24ZM89.66,106.42c-.04.08-.07.16-.11.24l.24-.11c.04-.08.07-.16.11-.24-.08.04-.16.08-.24.11ZM46.82,106.06c.08.08.16.16.24.24.16.08.32.16.48.24.62.49,1.24.98,1.96,1.54-.35,0-.62,0-.88,0-.16-.08-.32-.16-.48-.24-.36-.38-.72-.77-1.08-1.15-.1.11-.19.22-.29.34.42.31.84.63,1.25.94.16.08.32.16.48.24-.03,1.07.78.64,1.28.69.92.1,1.29-.58,1.42-1.29.12-.65.1-1.36-.04-2.01-.8-3.86-.32-7.72-.03-11.58.12-1.56.38-3.15-.46-4.68-.1.45-.21.9-.37,1.58-.55-.73-.97-1.3-1.4-1.87-.1.04-.2.07-.3.11.15.63.3,1.25.5,2.1-.87-.98-1.62-1.82-2.53-2.85,0,.93-.05,1.62,0,2.3.14,1.77.35,3.53.49,5.3.13,1.67.88,3.26.5,4.99-.24,1.09-.32,2.21-.47,3.32,0,0,.01-.02.01-.02.11.24.17.54.35.71.22.21.55.3.83.44-.04.07-.08.13-.11.2-.25-.07-.51-.15-.76-.22-.15-.04-.29-.08-.44-.13.11.09.21.17.32.26l1.29,1.01-.1.12c-.28-.1-.55-.2-.83-.31-.16-.08-.32-.16-.48-.24-.08-.08-.16-.16-.24-.24-.08-.04-.16-.07-.24-.11.04.08.08.16.11.24ZM38.92,105.58c.08.08.16.16.24.24-.11.04-.25.13-.32.1-1.87-.93-3.6-2.04-4.81-3.81-.13-.36-.26-.72-.39-1.08-.12.07-.24.14-.36.21.21.33.41.66.62.99-.35,1.24.48,2.02,1.28,2.6,1.45,1.05,3.04,1.9,4.67,2.9-.55-.16-1.09-.22-1.53-.46-1.29-.72-2.54-1.52-3.81-2.28l-.24-.24c-.24-.32-.48-.64-.72-.96l-.24-.24c-.09-.22-.18-.44-.28-.65-.09.05-.17.11-.26.16.14.21.27.41.41.62.08.08.16.16.24.24.24.32.48.64.72.96.08.08.16.16.24.24-.04.2.83.57-.11.59-.08-.04-.16-.07-.24-.11.04.08.08.16.11.24.36.33.72.67,1.09,1-.08.08-.16.16-.24.24-.91-.85-1.82-1.7-2.74-2.55-.11.11-.23.21-.34.32.99,1.41,1.78,2.99,3.63,3.67-1.88.03-2.46-1.74-3.87-2.92.22.58.25.92.44,1.11,1.05,1.05,1.71,2.32,3.68,2.47,1.79.14,3.43,1.65,5.22,2.32,2.33.87,4.73,1.59,7.14,2.2,1.67.42,3.42.55,5.13.8-.01.09-.02.18-.04.27-1.46-.15-2.91-.3-4.37-.45-1.52-.32-3.03-.64-4.55-.96-2.07-.88-4.15-1.75-6.22-2.63-.08-.04-.16-.07-.24-.11.04.08.08.16.11.24.19.3.31.73.58.87,1.54.79,3.12,1.5,4.68,2.24.22.07.44.15.66.22l.06-.21c-.2-.05-.4-.09-.6-.14.28-.12.56-.23.84-.35,1.38.95,2.96.98,4.55.96.54.12,1.09.25,1.63.37,0,.05,0,.09,0,.14l-1.4.17v.27c.41,0,.82,0,1.22,0,3.67,0,7.33-.04,11,.03.86.02,1.7.48,2.57.63.7.12,1.48.24,2.15.07,1.78-.45,3.53-1.03,5.26-1.63,2.59-.89,5.18-1.8,7.73-2.79,1.97-.77,3.89-1.67,5.84-2.52.2-.05.4-.1.6-.14-.02-.07-.04-.14-.06-.21-.22.07-.44.15-.66.22-1.9.6-3.8,1.21-5.71,1.78-.41.12-.86.09-1.3.13,0-.04,0-.08,0-.12,2.85-.92,5.7-1.85,8.54-2.77-.05-.16-.09-.32-.14-.49-1.43.42-2.86.85-4.56,1.35.27-.38.38-.53.76-1.05-1.06.13-1.82.23-2.58.31-.37.04-.75.02-1.13.02.04-.08.07-.16.11-.24-.08.04-.16.08-.24.11-.26-.48-.22-.63.23-.58,1.38.17,2.3-.86,3.48-1.21.24-.16.48-.32.73-.49.04-.08.07-.16.11-.24-.08.04-.16.08-.24.11-.24.16-.48.32-.72.48-.65.09-1.31.18-1.73.24.8-.55,1.68-1.17,2.57-1.78.11-.09.21-.17.32-.26-.15.04-.29.08-.44.13-1.19.47-2.38.95-3.57,1.42,1.34-.96,2.77-1.7,4.18-2.46.22-.12.37-.37.55-.55-.07-.08-.15-.15-.22-.23-1.22.44-2.21,1.51-3.56,1.58,1.37-.94,2.77-1.74,3.98-2.77.99-.84.87-1.71.1-2.25-1.37.7-2.66,1.35-3.95,2.01-.03-.08-.06-.15-.09-.23,1.14-.72,2.29-1.43,3.43-2.15.04-.15.08-.29.13-.44-.09.11-.17.21-.26.32-1.01.41-2.02.83-3.04,1.24-.04-.08-.07-.16-.11-.24,1.01-.55,2.02-1.09,3.03-1.64-.06-.13-.12-.27-.18-.4-1.48-.59-2.22,1.79-3.68,1.17.76-.47,1.52-.92,2.24-1.41.16-.11.19-.39.28-.6-.23.03-.48,0-.68.09-.46.23-.86.57-1.33.76-.33.13-.72.1-1.35.17,1.18-.68,2.04-1.17,2.9-1.67.08.04.16.07.24.11-.04-.08-.08-.16-.11-.24-.21-.52-.41-1.05-.62-1.57-.59.33-1.1.61-1.65.92.08-1.08,1.89-.75,1.45-2.18-.76.4-1.17,1.38-2.13,1.05.65-.5,1.25-.98,1.86-1.45.08.04.16.07.24.11-.04-.08-.08-.16-.11-.24-.2-.62-.41-1.25-.62-1.88-.59.25-1.11.47-1.62.69-.04-.09-.07-.17-.11-.26.52-.28,1.04-.57,1.57-.85-.15-1.14-.67-1.61-1.86-1.12-.28.12-.72-.14-1.09-.22.01-.09.03-.18.04-.26.72-.06,1.43-.11,2.25-.17-.31-.6-.55-1.09-.77-1.52-.38.21-.71.39-1.04.57,1.02-1.29,1.07-1.56.34-1.91,1.13-2.12,1.69-4.38,1.91-6.89-.97.61-.35,2.3-1.75,2.26.27-.65.55-1.31.83-1.96.04-.08.07-.16.11-.24-.08.04-.16.08-.24.11.19-.46.66-1.18.52-1.35-.66-.76.11-1.37.1-2.03-.02-1.25.02-2.39-.77-3.49-.64-.88-1.02-1.89-.95-3.07.1-1.75.07-3.5,0-5.25-.03-.62-.36-1.22-.6-1.96-.31.48-.44.68-.56.89-.08-.04-.16-.07-.24-.11.04.08.08.16.11.24-.28-.04-.57-.07-.94-.12.03.33.08.74.13,1.2-.23-.11-.36-.18-.49-.25-.09-.11-.17-.21-.26-.32.04.15.08.29.13.44-.02.33-.04.66-.06,1.07-.4-.38-.7-.67-1.01-.96-.08-.04-.16-.07-.24-.11.04.08.08.16.11.24.06.71.12,1.41.18,2.12l-.15.03c-.18-.4-.37-.79-.66-1.41v1.68c-.06.02-.12.04-.19.06-.25-.84-.49-1.67-.74-2.51-.13.04-.26.08-.39.12.17.78.4,1.56.5,2.35.04.31-.19.66-.33.98-.07.17-.22.3-.46.61.67-.13,1.11-.21,1.55-.29.01.06.02.13.04.19-.42.24-.84.47-1.26.71-.04.08-.07.16-.11.24.08-.04.16-.08.24-.11.43-.05.87-.09,1.3-.14-.3.33-.66.37-.98.52-.26.12-.45.37-.67.57.26.16.51.44.77.45.46.02.93-.13,1.39-.2-.87.55-1.77.6-2.24,1.92-.7,1.97-1.01,3.8-.44,5.82.34,1.2.48,2.45.73,3.68.05.22.66,2.87.73,3.1.28.92.61,1.82.97,2.86-.56.66-.47,1.01.39,1.44-.1.52-.18.98-.26,1.44.49.07.98.14,1.47.21,0,.06-.02.12-.03.18-.44.07-.88.13-1.32.2-.01.15-.03.3-.04.45.86.12,1.72.24,2.58.36,0,.06,0,.12-.01.18-.41.05-.82.1-1.25.15.46.8.9,1.54,1.31,2.25.13-.07.25-.14.53-.3-.47.96.05,2.45.65,2.84-.36.64-.71,1.27-1.18,2.13.8-.16,1.2-.23,1.6-.31-.2.33-.47.4-.72.51-.29.12-.56.26-.84.39.24.2.48.4.64.54-.32.35-.64.7-.96,1.06l.17.26c.43-.04.87-.07,1.42-.12-.45.76-2.06.27-1.61,1.82.39-.1.8-.2,1.2-.3l.11.29c-.5.19-1.01.38-1.72.65.79.04,1.37.07,1.95.1,0,.11,0,.23,0,.34-.57,0-1.13.02-1.7,0-.59-.03-.8.23-.68.79,0,0,.02-.02.02-.02-.38,1.01-.77,2.02-1.15,3.01-.71-.49-1.34-.98-2.02-1.37-.48-.27-1.08-.33-1.57-.59-1.2-.64-2.29-.47-3.21.57-.08.08-.16.16-.24.24-.48.55-.95,1.11-1.43,1.66-.07-.29-.05-.54.08-.69.63-.75,1.29-1.49,1.95-2.21.88-.96,1.11-2.71.77-3.59-.69-1.76-1.2-3.58-1.78-5.38,0,0,0,0,0,0,.09-.11.25-.22.26-.34.08-2.23.17-4.45.19-6.68,0-.66-.19-1.32-.32-1.97-.11-.52-.36-1.02-.4-1.54-.14-1.72-.16-3.44-.32-5.16-.22-2.39-.73-4.77-.73-7.15,0-3.38-.31-6.75.57-10.15.64-2.48.44-5.17.57-7.78.12-2.41.19-4.83.23-7.24.01-.73-.14-1.46-.21-2.19.16-.29.32-.59.47-.88-.11-.04-.22-.09-.33-.13-.09.3-.18.59-.27.89-.73.24-1.46.64-2.2.67-1.29.06-2.6-.17-3.9-.16-.38,0-.75.41-1.12.62.06.11.13.21.19.32.43.07.86.13,1.28.2,0,.06-.01.13-.02.19l-1.24.14c0,.05-.02.11-.02.16.27.08.54.16.79.24-.33.26-.85.46-.87.72-.23,2.04-.42,4.08-.5,6.13-.05,1.1.16,2.2.21,3.31.03.74-.15,1.53.98,1.61.15,0,.27.35.4.54-.3,0-.46-.2-.61-.2-.31.01-.61.14-.91.23.21.23.38.53.63.66.27.14.62.11.94.15,0,.08-.01.17-.02.25-.35,0-.7,0-1.05,0-.15-.04-.29-.08-.44-.13.11.09.21.17.32.26.32.14.64.28,1.22.53h-1.63c-.22.24-.44.47-.65.71.43.06.86.13,1.23.18-.19.13-.41.27-.62.41.76.69-.29,1.23-.21,1.86.34.09.61.17.91.26-.36.24-.65.42-.94.61.28.21.57.43.84.65.09.07.16.17.41.44-.55-.11-.83-.17-1.16-.23.06.3.02.6.15.73.78.78.91,1.59.5,2.64-.31.79-.59,1.71-.48,2.51.29,2.05.61,4.14,1.31,6.07.57,1.56.27,3,.2,4.5-.08,1.59-.3,3.17-.43,4.76-.1,1.22-.18,2.44-.27,3.66-.12,0-.24-.02-.36-.02.14-1.95.29-3.9.42-5.85.05-.7.06-1.4.03-2.1,0-.1-.33-.18-.51-.27.23-.13.52-.21.66-.41.15-.2.15-.5.24-.85-.41.15-.66.24-1.04.38.15-.3.22-.44.29-.57.08-.08.16-.16.24-.24.14-.1.29-.19.42-.3,0,0-.07-.11-.11-.17-.15.12-.29.23-.44.35-.08.08-.16.16-.24.24,0-.2-.1-.46-.01-.6.25-.38.57-.72.86-1.08-.06-.04-.11-.08-.17-.12-.53.38-1.07.77-1.77,1.27.65-.93,1.49-1.6,1.5-2.27.02-1.3-.39-2.62-.7-3.92-.18-.75-.67-1.47-.71-2.21-.07-1.61.3-3.27.04-4.84-.34-2.04.08-4.01.1-6,.02-2.53.68-5.08-.13-7.62-.34.2-.64.38-.86.51.18-.69.66-1.48.44-1.94-.49-1.03.45-1.27.91-2.02-.57.2-.91.32-1.24.44.31-.49.89-.68,1.13-1.07.26-.42.2-1.03.3-1.62-.46.04-.76.06-1.06.09-.27.03-.54.07-.82.11-.02-.09-.04-.18-.05-.27.42-.11.83-.22,1.25-.33-.52-1.09-.67-1.2-1.99-1.51.47-.27.98-.37,1.48-.52.28-.08.53-.22.8-.34-.18-.24-.34-.51-.55-.72-.41-.41-.87-.78-1.29-1.18-.22-.21-.46-.68-.62-.65-1.27.21-2.14-2.06-3.59-.58-.04.04-.16-.01-.23.01-.5.18-.99.37-1.49.55.04.09.07.18.11.28.58-.07,1.15-.14,1.73-.21.01.12.03.23.04.35-.98.12-1.97.23-2.95.35v.22h2.61c-.33.35-.49.62-.72.72-.27.12-.6.09-.91.13-.26.03-.53.07-.71.09.48.33.96.66,1.51,1.04-.77.33-1.45.41-1.7.78-.76,1.12.08,2.74,1.46,2.98.82.14,1.64.25,2.47.37-.02.12-.04.23-.06.35-1.28-.22-2.56-.44-3.85-.66-.77,2.47,1.37,2.26,2.7,2.93-.82-.11-1.64-.22-2.45-.32-.56,1.23.71.74,1.18,1.16-.42.1-.7.17-1.05.26.27.35.48.61.91,1.16-.57-.23-.82-.34-1.07-.44-.09.09-.19.18-.28.27.33.42.66.85.95,1.22-.24.05-.6.12-.89.18-.56,1.54.93,1.53,1.44,2.31-.46-.16-.92-.32-1.47-.51,0,.64-.08,1.19.02,1.71.12.62.59,1.21.58,1.8-.05,2.25-.32,4.5.98,6.53-1.02-.37-1.22-1.27-1.31-2.18-.11-.98-.11-1.97-.2-2.95-.16-1.76-.45-3.52-.5-5.28-.05-1.85.2-3.71.19-5.57,0-2.25-.14-4.51-.23-6.76-.02-.43.02-.93-.19-1.25-.22-.33-.86-.76-1.06-.66-1.99,1.05-3.97.39-4.5-1.77-.33-1.31-.27-2.71-.4-4.07-.03-.33-.09-.66-.13-.99l-.38-.03c-.13.42-.41.85-.36,1.24.16,1.23.32,2.5.73,3.66.39,1.12-.21,1.44-1.01,1.69-.33.1-.71.02-1.07.03-.08-.04-.16-.07-.24-.11.04.08.08.16.11.24-.51.04-1.01.07-1.52.11,0-.08,0-.17-.01-.25.35-.07.71-.14,1.19-.23-.49-.43-.86-.76-1.24-1.09.03.13.06.26.1.39-.65.33-1.3.66-1.92.97.07.06.21.18.34.3-.37.13-.67.23-.98.33.22.14.44.28.61.39-.27.18-.79.36-.8.56-.01.31.33.63.53.96-1.21.12-.36.69-.07,1.14-1.23.04-.64.82-.72,1.33.43.1.77.18,1.21.28-.59.21-1.03.37-1.48.53.2.31.39.61.59.91-.75.24-.94.6-.19,1.13-.88.65.11,1.04.1,1.52-.24.23-.35.49-.37.75-.01.19.16.4.16.6-.05,1.07-.24,2.14-.17,3.19.05.77.84,1.76.57,2.23-.62,1.06.07,1.03.74,1.24-.37.23-.67.41-1.13.69.61.27,1.04.45,1.6.69-.44.1-.72.17-1,.23,1.43-.13,2.21.54,2.35,2.1.1-.08.2-.16.3-.24v-1.25c.51.16,1.14.52,1.3.37.5-.45,1.23-.7,1.26-1.68.06-2.36-.44-4.74.18-7.1.21-.8-.22-1.07-1.03-.8-.4.13-.86.08-1.29.11,0-.06,0-.12,0-.18.75-.22,1.5-.43,2.24-.65-.03-.08-.05-.16-.08-.24-.79.04-1.58.08-2.38.12.73-.37,1.46-.48,2.18-.64.07-.01.07-.33.1-.5l-.02.02c.1-.71.2-1.42.32-2.24-.76.56-1.24.91-1.74,1.28-.14-.48-.22-.77-.31-1.06.64-.2,1.29-.4,2.02-.62,0-.52.05-1.12-.02-1.7-.03-.25-.32-.47-.49-.7v.02c.4-.27.79-.54,1.17-.81.07.08.13.16.2.24-.16.39-.33.78-.46,1.11.36.22.65.4.93.57-.27.04-.55.08-.82.12.02.09.03.18.05.26.3-.08.6-.16.89-.24.2.03.41.07.61.1v.2c-.54.16-1.09.33-1.64.49.01.07.02.15.04.22h2.81c0,.07,0,.14,0,.21-.92.09-1.84.17-2.77.26,0,.09.01.17.02.26.19.12.39.24.65.4-.31.12-.5.2-.84.33.54.13.88.21,1.45.34-.63.16-1,.26-1.37.35v.28c.49.08.98.17,1.52.26-.47.56-1.5-.28-1.57.94-.08,1.44.45,2.2,2.01,2.12-.69.84-1.96-.8-2.2.79-.1.67-.23,1.48.83,1.39-.3.29-.57.55-.84.8.32.18.64.35.97.52.21.11.43.2.64.3-.29.15-.52.03-.71.09-.32.09-.6.3-.9.45.26.2.5.42.78.58.24.14.53.19.85.3-.65.15-1.13.26-1.62.37.17.5.33,1.01.48,1.47-.1.08-.43.22-.49.43-.42,1.39.44,1.94,1.57,2.34-.51-.06-1.01-.12-1.46-.17-.21,1.99,1.52,1.54,2.41,2.2h-1.6c.42,1.33.57,2.67,2.01,3.22.09.03.13.26.14.4.09.85.02,1.75.29,2.52.16.46.86.73,1.33,1.09-.21.05-.53.13-1.24.3.7.38,1.09.59,1.5.82-.25.18-.52.38-.86.63.46.11.79.19,1.16.27-.48.23-.83.4-1.18.57.44.24.89.48,1.36.74-.34.07-.69.15-1.37.3.84.25,1.36.41,1.88.56-.03.1-.06.2-.1.3-.73-.19-1.46-.39-2.29-.61.34,1.35,1.72,1.26,2.65,1.74-.04.09-.08.18-.12.28-.87-.33-1.73-.66-2.78-1.06.2,2.91-.39,5.72.4,8.45.15-.02.31-.04.46-.07-.15-.63-.3-1.25-.49-2.07.33.3.54.49.78.71.54-1.12,1.04-2.16,1.62-3.37.65.71,1.28,1.39,1.97,2.13.37-1.23,1.38-2.28,1.16-3.81-.09-.64.1-1.33.15-2,.14-1.76.27-3.52.42-5.48-.48.36-.72.54-.95.72-.04-.04-.08-.09-.13-.13.32-.63.64-1.25,1.02-1.99-.45.06-.72.09-1.01.13.27-.61.5-1.11.73-1.62-.11-.06-.22-.13-.32-.19-.26.31-.52.62-.88,1.04,0-.32,0-.51,0-.7.08-.08.16-.16.24-.24.29-.22.58-.44.87-.67l-.24-.31c-.25.28-.51.57-.76.85-.08.08-.16.16-.24.24-.27.07-.54.14-.8.2.57-.78,1.11-1.51,1.65-2.24.2.17.55.31.58.51.24,1.59.42,3.19.62,4.8.29-.08.61-.17.94-.26-.19.35-.47.45-.72.59-.6.35-.44,1.23.06,1.4-.22,1.06-.43,2.1-.64,3.17.55.06.89.09,1.29.13-.38.66-1.87-.26-1.46,1.12.55.07,1.06.13,1.56.19-.01.1-.03.21-.04.31h-1.52c-.04.12-.07.25-.11.37.72.27,1.45.54,2.17.8-.02.06-.04.12-.06.18-.66-.12-1.32-.25-2.06-.38.16,1.22-.76,2.45.4,3.5.86-1.13,1.31-1.19,1.97-.3.22-.16.42-.31.63-.46-.03.63-.06,1.17-.09,1.85.54-.35.86-.61,1.23-.77.21-.09.65-.12.7-.02.52.96.98,1.96,1.37,2.76-.82.37-1.66.74-2.35,1.05-.09-.31-.25-1.2-.38-1.19-1.17.04-.57,1.23-1.03,1.77-.52-.06-1.03-.11-1.85-.2.7.42,1.13.68,1.56.94-.04.07-.08.15-.12.22-.24-.06-.49-.13-.73-.19-.24-.08-.48-.16-.72-.24-.08-.04-.16-.07-.24-.11.04.08.08.16.11.24.24.08.48.16.72.24.17.44.34.89.52,1.36-.37-.12-.72-.26-1.08-.33-.26-.05-.55.01-.82.02.16.28.27.6.49.81.25.25.6.42.9.62-.05.06-.1.13-.15.19-.39-.19-.77-.38-1.16-.57-.08.11-.17.22-.25.33.46.41.92.81,1.59,1.4-.7-.27-1.15-.44-1.75-.67.21.61.55,1.12.43,1.3-1.07,1.55-.46,3.28-.63,4.92-.09.82-.04,1.55,1.01,1.83-.33.04-.66.08-.98.13-.07.8-.2,1.59,1.01,1.66-1.33,1.09.7.82.41,1.45-.3-.02-.6-.04-.91-.06.14.29.19.72.42.84.7.39,1.47.66,2.21.98-.01.07-.03.13-.04.2-.77-.18-1.53-.36-2.3-.54-.08-.04-.16-.07-.24-.11.04.08.08.16.11.24.96.53,1.39,1.81,2.65,1.95.08,0,.16.23.17.35,0,.05-.17.19-.25.18-.26-.05-.52-.14-.78-.22l-1.68-.72c-.3-.08-.68-.31-.89-.2-2.1,1.02-3.95.21-4.66-2.01-.07-.23-.6-.45-.91-.44-1.5.03-3,.23-4.5.17-.59-.02-1.15-.56-1.73-.87-.08-.08-.16-.16-.24-.24l-.24-.24c-.16-.08-.32-.16-.48-.24-.94-1.34-2.01-1.94-2.68-1.45.86.53,1.71,1.06,2.56,1.58.16.08.32.16.48.24.08.08.16.16.24.24ZM85.96,105.35c.08-.08.16-.16.24-.24.2-.16.39-.32.59-.48.08.08.16.16.24.24-.66.6-1.31,1.2-1.97,1.81.73-.06,1.36-.39,2-.68.38-.17.78-.27,1.17-.41-.24.2-.48.39-.72.59-.04.08-.07.16-.11.24.08-.04.16-.08.24-.11.06.14.21.36.17.41-.19.22-.44.39-.67.58.06.07.13.15.19.22,1.19-.72,2.43-1.38,3.19-2.66.04-.08.07-.16.11-.24-.08.04-.16.08-.24.11-.68.24-1.35.48-2.03.72-.4-.24-.8-.48-1.2-.72-.08-.08-.16-.16-.24-.24-.42-.22-.84-.45-1.26-.67l.02.02c-.25-.28-.46-.61-.76-.82-.15-.11-.63-.07-.66,0-.31.85-.56,1.72-.93,2.95.97-.49,1.6-.82,2.24-1.11.13-.06.34.06.52.1-.08.08-.16.16-.24.24-.08.08-.16.16-.24.24-.1.09-.21.17-.31.26.15-.04.29-.09.44-.13.08-.08.16-.16.24-.24ZM32.7,104.15c.08.04.16.07.24.11-.04-.08-.08-.16-.11-.24-.08-.04-.16-.07-.24-.11.04.08.08.16.11.24ZM78.18,34.38c-.08.08-.16.16-.24.24-.04.08-.07.16-.11.24.08-.04.16-.07.24-.11.08-.08.16-.16.24-.24.04-.08.07-.16.11-.24-.08.04-.16.08-.24.11ZM34.38,34.62c-.08.08-.16.16-.24.24l-.95.71c-.24.16-.48.32-.72.48-.36.16-.71.32-1.07.49.08-.2.15-.4.23-.6.08-.08.16-.16.24-.24.16-.08.32-.16.48-.24l.24-.24c.24-.16.48-.32.72-.48.08-.08.16-.16.24-.24.16-.08.32-.16.48-.24.04-.08.07-.16.11-.24-.08.04-.16.08-.24.11-.16.08-.32.16-.48.24l-.24.24c-.24.16-.48.32-.72.48-.08.08-.16.16-.24.24-.16.08-.32.16-.48.24-.08.08-.16.16-.24.24l-.9.56c.22.09.44.19.66.28.68.27,1.36.95,2.04,0,.08-.08.16-.16.24-.24.04-.08.07-.16.11-.24-.08.04-.16.08-.24.11-.08.08-.16.16-.24.24l-.75.16c.05-.17.1-.34.15-.51.24-.16.48-.32.72-.48.32-.24.64-.48.96-.72.08-.08.16-.16.24-.24.04-.08.07-.16.11-.24-.08.04-.16.08-.24.11ZM37.14,69.21c.04-.08.07-.16.11-.24l-.24.11c-.04.08-.07.16-.11.24.08-.04.16-.08.24-.11ZM80.57,34.86c-.04.08-.07.16-.11.24.08-.04.16-.08.24-.11.04-.08.07-.16.11-.24-.08.04-.16.08-.24.11ZM81.53,34.86c-.08.08-.16.16-.24.24-.08.08-.16.16-.24.24-.04.08-.07.16-.11.24.08-.04.16-.07.24-.11.08-.08.16-.16.24-.24.08-.08.16-.16.24-.24.04-.08.07-.16.11-.24-.08.04-.16.08-.24.11ZM79.61,35.1c-.04.08-.07.16-.11.24.08-.04.16-.08.24-.11.04-.08.07-.16.11-.24-.08.04-.16.08-.24.11ZM82.24,35.1c-.08.08-.16.16-.24.24-.08.08-.16.16-.24.24-.24.32-.48.64-.72.96-.04.08-.07.16-.11.24.08-.04.16-.08.24-.11.24-.32.48-.64.72-.96.08-.08.16-.16.24-.24.08-.08.16-.16.24-.24.04-.08.07-.16.11-.24-.08.04-.16.08-.24.11ZM83.44,35.34c-.08.08-.16.16-.24.24-.08.08-.16.16-.24.24-.08.08-.16.16-.24.24-.16.24-.32.48-.48.72-.04.08-.07.16-.11.24.08-.04.16-.08.24-.11.16-.24.32-.48.48-.72.08-.08.16-.16.24-.24.08-.08.16-.16.24-.24.08-.08.16-.16.24-.24.04-.08.07-.16.11-.24-.08.04-.16.08-.24.11ZM34.38,35.58c-.04.08-.07.16-.11.24.08-.04.16-.08.24-.11.04-.08.07-.16.11-.24-.08.04-.16.08-.24.11ZM42.76,68.49c.08.04.16.07.24.11-.04-.08-.08-.16-.11-.24-.08-.04-.16-.07-.24-.11l.11.24ZM36.9,68.49c.04-.08.07-.16.11-.24-.08.04-.16.08-.24.11-.04.08-.07.16-.11.24.08-.04.16-.08.24-.11ZM82.96,111.44c-.1.09-.21.17-.31.26.15-.04.29-.09.44-.13.04-.08.07-.16.11-.24-.08.04-.16.08-.24.11ZM36.77,110.85c.15.04.29.08.44.13-.11-.09-.21-.17-.32-.26-.15-.04-.29-.08-.44-.12.11.09.21.17.32.26ZM40.36,32.23c-.1.09-.21.17-.31.26.15-.04.29-.09.44-.13.04-.08.07-.16.11-.24-.08.04-.16.08-.24.11ZM51.97,108.33c-.08-.04-.16-.07-.24-.11.04.08.08.16.11.24.15.04.29.09.44.13-.1-.09-.21-.17-.31-.26ZM34.74,99.71c-.08-.04-.16-.07-.24-.11.04.08.08.16.11.24.16.08.32.16.48.24.65.44,1.3.89,1.96,1.33.08-.14.17-.28.25-.41-.7-.35-1.39-.7-2.09-1.05-.16-.08-.32-.16-.48-.24ZM36.05,99.84c.08.04.16.07.24.11-.04-.08-.08-.16-.11-.24-.15-.04-.29-.09-.44-.13.1.09.21.17.31.26ZM51.97,91.58c-.08-.04-.16-.07-.24-.11.04.08.08.16.11.24.15.04.29.09.44.13-.1-.09-.21-.17-.31-.26ZM47.78,87.75c-.04.15-.09.29-.13.44.09-.1.17-.21.26-.31.04-.08.07-.16.11-.24-.08.04-.16.08-.24.11ZM47.3,87.03c-.04.15-.09.29-.13.44.09-.1.17-.21.26-.31.04-.08.07-.16.11-.24-.08.04-.16.08-.24.11ZM34.86,109.89c.08.04.16.07.24.11-.04-.08-.08-.16-.11-.24-.24-.08-.48-.16-.72-.24-.82-.87-1.65-1.74-2.47-2.61.33,2.07.6,2.35,2.36,2.74.24.08.48.16.72.24ZM69.8,105.59c.08.04.16.07.24.11-.04-.08-.08-.16-.11-.24-.24-.08-.48-.16-.72-.24.11-.2.22-.41.34-.63-.3-.08-.55-.14-.86-.22.02.4-.66,1.01.4.98.24.08.48.16.72.24ZM50.89,85.84c-.07.22-.14.44-.22.65.07.02.14.04.21.06.05-.2.09-.4.14-.6.07-.22.15-.44.22-.66-.07-.02-.14-.04-.21-.06-.05.2-.1.4-.14.6ZM89.08,99.72c-.09-.11-.17-.21-.26-.32.04.15.08.29.13.44.02.19.03.37.07.56,0,.02.13.01.2.02-.04-.23-.09-.46-.13-.69ZM51.97,90.03c.11-.17.24-.34.33-.53,0-.02-.17-.13-.26-.19-.07.2-.13.4-.2.59-.04.08-.07.16-.11.24.08-.04.16-.08.24-.11ZM35.7,109.53c-.08-.04-.16-.07-.24-.11.04.08.08.16.11.24-.06.19-.12.38-.18.57.14,0,.28.02.42.03-.04-.24-.08-.48-.12-.72ZM87.63,101.76q.91-.04.72-.6c-.81-1.12-1.75-.16-2.68-.27.65-.35,1.3-.69,1.96-1.04.23-.07.47-.13.7-.2-.04-.1-.07-.21-.11-.31-.24.12-.47.25-.71.37-.48.06-.95.12-1.43.18-.02-.06-.04-.13-.05-.19.61-.27,1.23-.54,1.84-.81.93.52.69-.33.8-.77-.3.21-.61.42-.91.63-.6.15-1.21.28-1.81.45-.27.08-.67.17-.76.37-.95,2.11-.72,2.82,1.25,4.12.33.22.63.49.98.65.55.26,1.13.46,1.69.69-.01-.52-.02-1.03-.04-1.55,0-.16.01-.32-.02-.47-.15-.76-.49-1.11-1.32-.74-.55.25-1.15.38-1.72.56-.03-.09-.07-.18-.1-.26.42-.19.83-.37,1.25-.56l.48-.24ZM39.05,103.67l.83.48c.02.22.03.44.05.68-.42-.17-.78-.31-1.14-.45-.05.08-.09.17-.14.25.77.55,1.55,1.09,2.32,1.64.09-.08.17-.16.26-.24-.41-.67-.82-1.34-1.23-2-.15-.65-.33-1.22-1.09-.48-.04.08-.07.16-.11.24.08-.04.16-.08.24-.11ZM35.1,86.44c.16.08.32.16.48.24.6.47,1.2.94,1.8,1.41-.03.05-.06.11-.1.16-1.01-.42-2.03-.85-3.36-1.4.73,1.29,2.04,1.45,2.75,2.35-.65-.33-1.29-.66-1.94-.98-.08-.04-.16-.07-.24-.11.04.08.08.16.11.24.28.46.47,1.02.87,1.34.52.42,1.2.64,1.8.95-.03.07-.06.14-.1.21-.71-.31-1.42-.63-2.13-.94-.05.1-.09.19-.14.29.52.28,1.04.57,1.57.84.48.25.98.48,1.47.72-.04.07-.09.15-.13.22-.78-.34-1.55-.68-2.43-1.07-.27,2.19,2.03,1.16,2.63,2.38-.85-.23-1.59-.43-2.37-.63q.05,1.08,4.09,1.85c-.05-.38-.04-.72-.14-1.03-1.13-3.5-1.53-7.08-1.3-10.74.07-1.15.04-2.31,0-3.46-.01-.4-.43-.95-.28-1.15.5-.67.35-.85-.41-.92-.26-.02-.5-.23-.75-.35.02-.06.03-.13.05-.19h1.11c0-.07,0-.14,0-.21-.39-.18-.78-.37-1.18-.55l.06-.19c.35.04.71.07,1.09.11.23-1.8-1.45-.47-1.94-1.44h1.93c-.03-1.89-.43-3.79-1.81-5.36-.1-.12-.27-.24-.41-.25-1.83-.02-3.27-.97-4.7-1.95-.69-.48-.58-.75.15-.97.68,1.33,3.71,2.77,4.77,2.27-.24-.97-.49-1.93-.73-2.89.06-.03.12-.06.18-.09.27.48.53.96.8,1.43-.15-3.25-.49-6.41-.84-9.57-.02-.18-.07-.45-.2-.51-1.18-.58-2.38-1.12-3.62-1.68-.18.76-.38,1.51-.53,2.27-.03.16.08.45.22.54,1.07.69,2.15,1.35,3.24,2.01-.09.17-.18.33-.28.5-1.12-.56-2.24-1.13-3.37-1.7-.22,1.59-.42,3.1-.63,4.68,1.6-.65,2.65.01,3.38,2.28-1.06-.67-2.11-1.34-3.42-2.16.51,1.72,1.58,2.43,2.86,3.06-.57-.19-1.14-.37-1.71-.56-.24-.33-.49-.66-.88-1.19q-.45,2.89,1.54,4.1c.2.12.41.22.61.33,1.05.58,2.1,1.17,3.16,1.75-.05.1-.11.19-.16.29-1.62-.87-3.25-1.75-5.03-2.71.27,1.54,1.67,1.26,2.42,1.85.84.66,1.81,1.15,2.73,1.72-.37.01-.72-.06-1.03-.23-1.13-.6-2.24-1.23-3.36-1.84-.08-.04-.16-.07-.24-.11.04.08.08.16.11.24.18.24.3.55.54.7,1.43.92,2.88,1.8,4.33,2.7-.14-.01-.33.02-.47-.05-1.35-.75-2.69-1.52-4.04-2.28-.08-.04-.16-.07-.24-.11.04.08.08.16.11.24.92,1.37,2.22,2.17,3.75,2.8-.63-.14-1.27-.29-1.93-.44.29.86.55,1.7.85,2.53.03.1.19.16.31.21.63.31,1.27.61,1.91.92-.06.13-.11.26-.17.39-.57-.18-1.14-.37-1.71-.55-.09-.11-.17-.21-.26-.32.04.15.08.29.13.44.62.33,1.23.66,1.85.99,0,.05-.01.1-.02.16-.74-.21-1.47-.42-2.55-.72.38.74.54,1.54.92,1.66.96.32,2.02.34,3.04.47-.68,1.02-1.88.18-2.89.58l2.03.61c-.04.11-.08.23-.12.34-.96-.36-1.92-.72-2.85-1.07-.23,1.46-.23,1.47,1.11,2.1.59.27,1.22.48,1.83.71-.04.1-.08.21-.12.31-.56-.23-1.12-.49-1.69-.66-.37-.11-.77-.09-1.16-.12.13.46.13,1.07.43,1.36.43.42,1.09.62,1.79.98-.65.06-1.13.1-1.62.15-.03.08-.06.17-.08.25,1.17.6,2.33,1.19,3.5,1.79-.03.06-.07.13-.1.19-.65-.22-1.29-.43-1.94-.65-.16-.08-.32-.16-.48-.24-.39-.28-.77-.57-1.16-.85-.07.12-.14.24-.21.36.42.21.83.42,1.25.63ZM20.39,83.33c.16-.64.32-1.28.48-1.91,1.65-2.37,2.13-5.14,2.63-7.9.04-.15.08-.29.13-.44-.09.11-.17.21-.26.32-.34.42-.68.83-1.02,1.25-.14-.08-.28-.15-.42-.23.52-1.18,1.05-2.36,1.57-3.53,1.51-2.03,2.64-4.24,3.35-6.68.16-.53.44-1.05.77-1.5.54-.74.56-1.76.06-2.05-1.03,2.52-2.05,5.06-3.11,7.59-.36.86-.8,1.68-1.2,2.51-.71,1.46-1.42,2.92-2.11,4.39-.04.09.03.23.04.34.05.52.18,1.06.12,1.57-.18,1.41-.45,2.82-.68,4.23-.16.64-.32,1.28-.48,1.91-.04.15-.08.29-.13.44.09-.11.17-.21.26-.32ZM86.2,36.06c-.08-.04-.16-.07-.24-.11.04.08.08.16.11.24l-.64.79c.07.08.13.15.2.23.27-.2.56-.37.78-.61.06-.06-.13-.35-.21-.53ZM82.24,106.89c-.44.13-.87.26-1.31.38.5-.02,1.28,1.22,1.43-.26.04-.08.07-.16.11-.24-.08.04-.16.08-.24.11ZM69.44,64.78c-.08-.04-.16-.07-.24-.11.04.08.08.16.11.24.23.27.45.55.68.82.07-.04.15-.08.22-.11-.09-.56-.19-1.11-.31-1.86-.24.54-.36.78-.47,1.02ZM90.75,107.5c.37-.4,1.21-.63.58-1.44-.65.22-1.11.54-.71,1.31q-1.15.54-.62,1.3c.27-.42.51-.79.75-1.17ZM90.62,103.91c.08.04.16.07.24.11-.04-.08-.08-.16-.11-.24-.14-.32-.28-.65-.43-.97-.15.01-.3.02-.46.03-.09.54-.17,1.07-.26,1.61.1.02.2.04.31.06.24-.2.47-.4.71-.6ZM84.87,35.7c-.15.5-.29,1-.44,1.5.48-.25.74-.58,1.01-.91.56-.68.03-.68-.45-.71-.91-.24-1.33.09-2.04,1.79.4-.15.75-.38,1.04-.66.32-.31.58-.67.87-1ZM83.2,106.42c-.21.55-.43,1.11-.71,1.83.43-.13.66-.17.85-.27.5-.26.99-.55,1.48-.83-.5-.2-1-.4-1.5-.61.04-.08.07-.16.11-.24-.08.04-.16.08-.24.11ZM87.99,94.45c-2.01.28-4.03.56-6.04.84,0,.87.47.89,1.16.7.79-.21,1.63-.26,2.42-.49.88-.25,1.72-.61,2.58-.93.33-.13.65-.26.98-.4l-.19-.36c-.3.21-.61.41-.91.62ZM39.4,102.71c.08.04.16.07.24.11-.04-.08-.08-.16-.11-.24-.17-1.15-.98-1.42-1.99-1.52.05.3.08.5.16.97-1.27-.66-2.35-1.21-3.42-1.76-.09.04-.18.09-.27.13.32.86.63,1.71.86,2.34.66,0,1.17-.16,1.37.03,1.11,1.03,2.13.67,3.17-.05ZM56.45,44.03l-.02-.02c.31.49.55,1.08.97,1.45.33.29.89.34,1.36.39.08.01.38-.51.32-.68-.31-.75-.62-1.56-1.14-2.15-.23-.25-.99-.02-1.51-.03-.13,0-.25-.05-.38-.07v-.18c.28-.07.56-.15.97-.25-.37-.16-.61-.27-.86-.37.02-.06.03-.11.05-.17h1.68c.06-.08.11-.16.17-.25-.23-.2-.45-.58-.68-.58-1.53-.05-3.06-.03-4.7-.03,1.17,1.3,1.82,2.97,3.78,2.93ZM17.15,91.34c-.64,1.14-1.7,2.23-1.81,3.42-.22,2.25-1.16,4-2.54,5.64-.2.24-.52.44-.6.72-.63,2.07-1.79,4-1.75,6.25-.04.08-.07.16-.11.24.08-.04.16-.08.24-.11.56-.8,1.23-1.54,1.64-2.41.54-1.12.74-2.42,1.33-3.51,1.72-3.21,2.72-6.66,3.73-10.12.04-.08.07-.16.11-.24-.08.04-.16.08-.24.11ZM35.22,97.93c1.31.46,2.62.91,3.92,1.37-.03.1-.06.2-.09.29-1.41-.45-2.82-.91-4.23-1.36l-.16.46c1.57.59,3.14,1.18,4.77,1.79.27-.56.71-1.07.75-1.6.06-1.01-.02-2.06-.23-3.06-.09-.42-.6-.93-1.02-1.05-1.04-.31-2.13-.43-3.31-.65.02.26-.08.65.08.84.81,1.05,1.95.53,3.03.54-.48.36-.99.64-1.47.6-.53-.04-1.04-.36-1.56-.56-.05.14-.1.28-.15.42,1.25.38,2.49.77,3.74,1.15-.03.08-.05.16-.08.23-1.25-.29-2.49-.59-3.74-.88.8,1.46,2.63.94,3.62,2-1.19-.27-2.32-.66-3.47-1-.13-.04-.35.22-.53.35-.04.08-.07.16-.11.24.08-.04.16-.08.24-.11ZM30.37,41.17l-.02-.02c.22.64.44,1.28.67,1.92.58-.52.99-1.09,1.54-1.29.22-.08.73.65,1.11,1.02-.07.07-.14.13-.2.2-.29-.24-.59-.48-.88-.72-.08-.04-.16-.07-.24-.11.04.08.08.16.11.24-1.3.91-1.47,1.45-.85,3.25.53,1.54,1.86,1.6,3.32,1.45q-.68.53-3.07-.09c-.25,2.22.45,3.45,2.14,3.75.22.04.45.03.67.04-.03.14-.05.28-.08.42-.84-.22-1.68-.44-2.52-.66-.03.06-.06.13-.08.19.72.56,1.44,1.13,2.16,1.69l-.15.22c-.61-.4-1.22-.81-1.88-1.24-.11.57-.2,1.06-.31,1.59.3.05.6.11.9.16.24.16.48.32.72.48.55.45,1.1.91,1.66,1.36-.06.09-.11.18-.17.27-.98-.66-1.97-1.33-2.95-1.99-.08.06-.16.13-.24.19.11.29.13.69.34.85.68.53,1.39,1.04,2.14,1.44,1.01.53,1.2.35,1.26-.77.14-2.64.36-5.28.44-7.92.02-.7-.23-1.46-.54-2.09-.31-.63-.86-1.15-1.3-1.72.02-.02.05-.04.07-.06.62.58,1.25,1.16,2.03,1.89,0-.6.17-1.17-.03-1.38-1.02-1.07-1.17-2.34-1.18-3.71,0-.31-.34-.82-.62-.88-1.44-.37-2.91-.62-4.62-.96.46,1.12,1.1,1.89.42,2.78,0,0,.16.14.24.21ZM85.59,54.49c-.61.49-1.21.99-1.82,1.48-.11-.09-.22-.18-.33-.28,2.44-1.28,2.99-3.47,3.18-6.08-.6.3-1.05.52-1.5.75.21-.46.55-.72.9-.96.34-.23.69-.44,1.03-.65l-.13-.23c-.62.22-1.24.44-1.86.67-.08-.1-.15-.19-.23-.29,1.69-.54,3.15-1.31,3.52-3.15.04-.15.08-.29.13-.44-.09.11-.17.21-.26.32-.97.07-1.95.14-2.99.22.52-.43,1.02-.86,1.53-1.28-.18-.34-.29-.84-.61-1.08-.77-.58-1.17-1.96-2.43-1.51-.81.29-1.47.98-2.2,1.49-.2.05-.4.1-.6.14.02.07.04.14.06.21.22-.07.44-.15.66-.22-.07.2-.09.43-.21.59-.16.2-.57.33-.59.51-.2,1.84-.19,3.71-.55,5.52-.43,2.17-1.06,4.32-1.78,6.42-.66,1.92-1.09,3.76.04,5.64.07.11-.04.32-.07.49-.88-.52-.51.32-.51.53-.03,2.15-.24,4.33.06,6.43.18,1.29,1.15,2.48,1.77,3.71.08.15.2.28.3.43-.11.09-.21.17-.32.26.15-.04.29-.08.44-.13.28.03.56.05,1.15.11-.52.22-.73.31-1,.42.3.16.5.27.93.49-.6.05-.94.08-1.28.11l-.14.38c.32.13.64.25.94.41.17.09.32.23.48.34-.2.05-.4.1-.6.14.02.07.04.14.06.21.22-.07.44-.15.66-.22.2.03.4.07.61.1,0,.07,0,.14,0,.21-.54.15-1.08.3-1.6.44q-.14,1.49,1.66,1.15c-.22,1-2.34.16-1.87,1.86.59-.1,1.08-.18,1.57-.26-.78.7-2.34.46-2.02,2.19.54-.16,1-.3,1.47-.44,0,.06.01.11.02.17-.58.44-1.17.88-1.75,1.32.07.1.15.19.22.29.28-.09.56-.18.84-.26l.09.21-1.69,1.15c.03.07.06.14.09.21l.99-.05.02.18c-.47.25-.95.49-1.42.74.03.11.07.22.1.34.45-.03.9-.06,1.35-.08.02.07.03.14.05.21-.48.17-.96.34-1.45.51.03.13.06.27.1.4l2.79-.51c.03.08.05.16.08.23-.8.27-1.59.53-2.38.8.26,1.2,1.2.34,1.82.73-.45.14-.9.28-1.47.46.45.11.79.2,1.17.3-.34.42-.32.42-.04,1.67.32,1.45.6,2.91.9,4.39,1.52-.25,2.94-.48,4.36-.72-.02-.11-.03-.23-.05-.34-1.26.09-2.52.18-3.77.27,0-.1-.01-.2-.02-.31.33-.03.65-.03.97-.08,1.6-.29,3.32-.1,4.72-1.18.11-.09.21-.17.32-.26-.15.04-.29.08-.44.13-.82.24-1.64.47-2.46.71-.04-.13-.07-.25-.11-.38,1.06-.3,2.11-.59,3.17-.9.16-.05.3-.16.45-.25-.17-.09-.34-.26-.5-.24-.62.07-1.23.19-1.85.3-1.43.23-2.86.47-4.28.7-.01-.04-.02-.09-.04-.13.63-.29,1.27-.57,1.9-.86,1.59-.15,3.17-.29,4.9-.46-.25-.65-.39-.99-.5-1.28-1.56.55-3.03,1.07-4.5,1.6-.55.05-1.11.11-1.66.16.22-.3.48-.43.75-.52,1.46-.48,2.95-.9,4.38-1.47.31-.12.53-.76.58-1.18.04-.35-.8-.83-1.13-.77h.02c-.77-.15-1.53-.29-2.3-.43.45-.22.89-.15,1.29-.25.29-.07.53-.36.8-.56-.29-.11-.59-.34-.85-.29-.66.11-1.3.34-1.95.52l-.11-.35c.97-.31,1.94-.62,2.91-.93-.6-.26-1.16-.36-1.72-.35-.5,0-1,.13-1.5.2-.02-.1-.03-.2-.05-.3.91-.15,1.83-.29,2.76-.44-.29-1.16-.56-2.24-.82-3.29-.65.06-1.18.12-1.98.19.76-.65,2.13-.09,1.79-1.54-.52.08-1.01.16-1.5.23.48-.44,1.21-.62,1.49-1.07.18-.3-.31-1-.53-1.61-.04.03.18-.13.58-.4-.53-.12-.83-.18-1.12-.25.12-.03.24-.05.36-.08-.05-.86-.1-1.72-.15-2.59.04-.08.07-.16.11-.24-.08.04-.16.08-.24.11-.16.07-.32.15-.48.22.35-.79.68-1.55,1.02-2.31-.1-.05-.21-.1-.31-.16-.41.19-.83.38-1.24.56.41-.88,1.62-1.07,1.53-2.52-.41.51-.62.89-.93,1.14-.28.22-.67.29-1.01.43,1.65-1.55,2.3-2.6,2.08-3.61-.29.15-.58.31-.95.51.42-1.11.76-2.07,1.14-3.01.19-.47.88-.59.73-1.36-.21-1.08-.21-2.19-.26-3.3-.04-.89,0-1.79,0-2.99-.97.92-1.7,1.61-2.43,2.3.28-1.54,2.29-1.77,2.19-3.56-.52.46-1.04.92-1.55,1.39,0-.4.23-.6.35-.86.39-.86,2.03-.7,1.69-2.13.04-.08.07-.16.11-.24-.08.04-.16.08-.24.11ZM42.6,71.3c0-.06-.01-.13-.02-.19.32-.39.78-.73.9-1.17.08-.3-.35-.72-.57-1.11-.34.19-.59.33-.57.32-.27-.44-.67-.89-.59-.98.56-.74-.1-.87-.41-1.19-.36.95-.68,1.81-1.01,2.7-.13-.26-.31-.61-.49-.96-.07,0-.14.01-.21.02v1.2c-.28-.19-.52-.36-.76-.53-.76,1.63,1.08,1.21,1.61,2.12-.67-.23-1.1-.4-1.54-.53-.25-.08-.52-.1-.78-.15-.05.26-.15.53-.13.79.21,2.51.55,5.02.65,7.53.11,2.9.01,5.82.04,8.73,0,.5.16,1,.27,1.49.54,2.44,1.59,4.78,1.41,7.37-.04.57.17,1.16.17,1.75,0,.41-.05.89-.28,1.2-.62.88-.58,1.81-.25,2.72.28.78.8,1.47,1.04,2.26.32,1.07.6,1.79,2.05,1.67,2.34-.21,4.16-1.81,4.05-4.16-.15-3.27-.43-6.53-.73-9.79-.09-.96-.15-2.16-.73-2.79-.74-.8-.61-1.58-.68-2.42-.01-.13-.08-.26-.23-.73-.08,1.07-.14,1.79-.19,2.51-.28-.7-.33-1.38-.26-2.04.03-.3.28-.58.44-.87.63.49.48-.12.49-.37.02-1.31-.06-2.64.03-3.94.1-1.31-.08-2.28-1.87-2.14.02-.14.04-.28.06-.42.73-.31,1.46-.63,2.19-.94-.02-.07-.03-.14-.05-.21-.32.02-.64.03-.96.05-.01-.08-.02-.17-.03-.25.42-.1.84-.19,1.31-.3v-1.11h-1.76c.64-.28,1.11-.48,1.58-.69-.05-.1-.1-.2-.15-.3h-1.61c.45-.17.56-.2.65-.26.25-.17.49-.35.73-.53-.29-.11-.57-.25-.87-.32-.43-.1-.86-.14-1.3-.2,0-.08,0-.17-.01-.25.57-.27,1.15-.54,1.72-.81-.29-1.37-.28-1.36-1.48-.73-.18.09-.45.01-.78.01.54-.4.97-.67,1.34-1,.12-.11.13-.36.18-.54-.2,0-.41-.05-.59,0-.34.12-.66.31-.99.47ZM38.93,38.76c0,.9-.03,1.8,0,2.69.06,1.4,1.48,2.82,2.66,2.58.32-.07.81-.63.78-.92-.16-1.6-.48-3.17-.71-4.77-.05-.37,0-1.06.12-1.09.52-.12,1.09-.06,1.64-.03.08,0,.22.25.2.37-.1.56-.39,1.13-.34,1.67.13,1.39.27,2.82.67,4.15.34,1.15,2.36,1.83,3.17,1.23.61-.45,1.17-.96,2.02-1.67-.16.57-.23.79-.39,1.36.73-.34,1.22-.5,1.64-.78.52-.35,1.02-.76,1.43-1.24.22-.26.29-.68.33-1.04.17-1.28-.54-2.31-.94-3.45-.47-1.38-1.73-1.64-2.69-2.32-.17-.12-.64.14-.79,0-.68-.58-1.23-1.34-1.96-1.85-2.82-1.96-4.36-2.02-6.77.32-.69.67-1.31,1.43-2.01,2.09-1.58,1.47-2.16,4.89-1.14,6.68.53.94,1.21.95,2.09.61,1-.39.53-1,.24-1.52-.67-1.21.05-2.12.74-3.08ZM90.44,37.48c-4.97-.29-9.82.58-14.59,2.29.55.17,1.11.24,1.66.22,1.54-.06,3.08-.14,4.62-.23.47-.03.96-.01,1.41-.14,2.3-.69,4.59-1.42,6.89-2.14ZM82.39,96.45c.82,1.15,1.77,1.51,3.02,1.01.72-.29,1.49-.72,2.2-.66,1.49.13,1.56-.6,1.39-1.65-2.21.43-4.38.86-6.61,1.3ZM89.03,97.51c-.03-.14-.06-.27-.08-.41-1.58.37-3.16.74-4.74,1.11-.02.15-.04.3-.05.45.43.08.92.31,1.29.2,1.22-.38,2.39-.89,3.58-1.35ZM27.92,59.6c.17.05.34.1.51.15.66-2.31,1.32-4.63,1.99-6.94-.16-.04-.31-.09-.47-.13-.68,2.31-1.35,4.62-2.03,6.92ZM31.66,51.15c-.11-.08-.21-.16-.32-.24-.25.26-.76.67-.72.75.59.98,0,1.83-.24,2.71-.09.33-.18.66-.28,1.03h1.02c.18-1.41.36-2.82.53-4.24ZM58.42,40.35c-1.83-.16-3.52-.32-5.2-.43-.19-.01-.4.24-.6.37.19.14.37.41.56.41,1.5.03,3,.03,4.51,0,.22,0,.44-.2.74-.35ZM66.96,45.23c1.66-1.8,1.77-2.89.61-3.53-.19,1.08-.37,2.16-.61,3.53ZM26,68.27c.13.05.25.09.38.14l1.21-3.41-.43-.15c-.39,1.14-.78,2.28-1.16,3.41ZM62.09,46.38c0-.1,0-.2,0-.29h-2.65c0,.1,0,.2,0,.29h2.65ZM89.37,108.26c-.98.57-1.71,1-2.43,1.42.82-.27,2.17.35,2.43-1.42ZM86.24,93.96c1.46.3,2.26-.13,2.89-1.32-.99.45-1.8.82-2.89,1.32ZM72.06,63.52c.1,0,.2-.01.3-.02-.09-.59-.17-1.18-.26-1.76-.18.04-.36.08-.54.12.17.55.34,1.11.5,1.66ZM37.63,66.09c.1-.03.2-.06.31-.1.19-1.25-.06-1.78-.94-1.77.22.64.43,1.25.64,1.86ZM56.19,86.45c-.93.82-.93.95,0,1.63v-1.63ZM29.14,35.62c.08.14.16.27.24.41l1.47-.86-.23-.41c-.49.28-.98.57-1.47.85ZM36.76,99.91c-.04.12-.08.24-.12.36.8.27,1.61.54,2.41.81l.11-.34c-.8-.27-1.6-.55-2.4-.82ZM52.32,88.9c.13,0,.27.01.4.02v-1.52c-.13,0-.27,0-.4,0v1.5ZM32.86,64.6c.08-.11.16-.22.24-.33l-1.6-1.18c-.07.09-.14.19-.21.28.52.41,1.04.82,1.57,1.22ZM53.46,85.82c-.14-.04-.28-.08-.43-.12-.12.37-.25.73-.34,1.1,0,.01.29.11.45.16.11-.38.21-.77.32-1.15ZM3.98,108.27c.12-.58.21-1.02.32-1.57-.98.91-1,.96-.32,1.57ZM89.32,102.55c.14.02.27.04.41.05.05-.35.1-.7.16-1.05-.14-.02-.27-.04-.41-.05-.05.35-.1.7-.16,1.05ZM49.25,88.69c.1,0,.21,0,.31,0,.03-.42.07-.85.1-1.27-.14,0-.28,0-.41-.01v1.28ZM53.48,88.79c-.12-.01-.24-.02-.36-.03-.04.43-.08.86-.12,1.29l.34.03.14-1.29ZM79.91,37.72c.05.12.1.23.16.35.32-.12.65-.23.97-.35-.04-.11-.07-.22-.11-.33-.34.11-.67.22-1.01.33ZM48.5,87.69c.09.02.18.04.27.06.1-.41.2-.81.3-1.22l-.3-.07c-.09.41-.18.82-.27,1.23ZM51.67,87.45c.08,0,.15,0,.23,0v-1.14c-.08,0-.15,0-.23,0v1.14ZM72.95,62.86c-.09,0-.17.02-.26.02.02.36.03.71.05,1.07.07,0,.14,0,.21,0v-1.08ZM48,89.32c.1.02.2.04.3.07.08-.33.16-.67.25-1-.09-.02-.19-.05-.28-.07-.09.34-.17.67-.26,1.01ZM49.81,89.35c.13.01.26.03.38.04v-.98c-.06,0-.12,0-.19-.01-.07.32-.13.63-.2.95ZM54.57,88.21c-.11-.04-.22-.09-.33-.13-.07.34-.13.68-.2,1.02.08.02.15.03.23.05.1-.31.2-.62.3-.94ZM70.76,66.5c.11-.03.22-.06.33-.09-.11-.33-.22-.66-.32-.99-.09.02-.17.05-.26.07.09.34.17.67.26,1.01ZM78.59,33.28c0,.05,0,.11,0,.16h.93c0-.05,0-.11,0-.16h-.93ZM50.54,47.16c.01-.08.02-.16.03-.24h-.93c0,.06,0,.13,0,.19.3.02.6.03.91.05ZM41.31,64.76c-.36.2-.54.26-.53.3.01.17.09.33.14.49.09-.19.19-.37.4-.79ZM40.97,65.56c-.06.49-.11.68-.08.69.15.07.32.09.48.12-.09-.18-.18-.36-.4-.82ZM53.54,87.94c.07.01.14.03.21.04.07-.28.14-.57.22-.85-.1-.02-.2-.04-.3-.06-.04.29-.09.58-.13.87ZM79.53,78.6c.13.01.26.03.39.04-.01-.26-.02-.52-.04-.78h-.22c-.04.24-.09.49-.13.74ZM53.26,42.79c.04-.11.09-.21.13-.32-.23-.1-.46-.2-.69-.31-.04.09-.08.18-.12.27l.68.36ZM87.64,36.16l.17-.31c-.28-.09-.55-.18-.83-.27-.03.07-.05.14-.08.22.25.12.5.24.74.37ZM47.48,114.89c0,.05,0,.11,0,.16h.93c0-.05,0-.11,0-.16h-.93ZM45.45,79.23c-.05-.1-.11-.21-.16-.31l-.75.36c.03.07.05.14.08.21.28-.09.55-.18.83-.27ZM84.92,66.38c.07.04.14.08.21.11.1-.19.21-.38.31-.58-.07-.04-.14-.07-.21-.11-.11.19-.21.38-.32.57ZM30.84,50.58h.26c-.02-.25-.04-.5-.06-.74-.05,0-.11,0-.16,0-.02.25-.03.49-.05.74ZM49.8,86.77s.09,0,.14,0v-.74c-.06,0-.13,0-.19.01.02.25.04.49.05.74ZM38.74,65.99c-.09.11-.21.19-.21.27,0,.08.1.17.16.25.09-.09.2-.17.27-.27.01-.02-.12-.14-.22-.25ZM42.02,64.48c-.17-.13-.26-.25-.35-.26-.07,0-.23.15-.22.2.03.12.14.22.22.33.09-.07.18-.14.35-.27ZM36.87,67.4c-.12-.07-.22-.16-.3-.15-.08.01-.14.13-.21.21.1.08.2.16.31.23.06-.09.12-.17.2-.29ZM38.89,66.97l-.11.21c.19.1.38.21.58.31.04-.07.07-.14.11-.21-.19-.11-.38-.21-.57-.32ZM38.26,67.42c-.09.11-.21.19-.21.27,0,.08.1.17.16.25.09-.09.2-.17.27-.27.01-.02-.12-.14-.22-.25ZM56.9,87.41s-.1,0-.15,0v.74c.06,0,.13,0,.19,0l-.04-.74ZM38.22,68.68c.11.09.19.21.27.21.08,0,.17-.1.25-.16-.09-.09-.17-.2-.27-.27-.02-.01-.14.12-.25.22ZM87.38,36.89c-.09-.12-.15-.25-.22-.26-.09-.01-.19.07-.29.12.07.11.13.23.23.31.02.02.16-.09.28-.17ZM58.91,48.47c-.27-.08-.37-.14-.47-.13-.08,0-.15.09-.23.14.07.08.12.19.21.23.04.02.14-.06.49-.24ZM53.86,90.1c.07,0,.15,0,.22-.01-.03-.17-.06-.34-.09-.51-.04,0-.09,0-.13.01v.51ZM79.97,77.13c-.09-.11-.14-.18-.2-.25-.08.07-.18.12-.23.21-.02.03.09.19.14.19.09,0,.17-.08.3-.15ZM58.58,47.48c-.07,0-.15,0-.22.01.03.17.06.34.09.51.04,0,.09,0,.13-.01v-.51ZM68.76,44.57c-.19-.11-.27-.2-.37-.21-.06,0-.2.11-.19.14.02.09.09.19.17.22.06.02.16-.06.39-.15ZM17.92,60.7c-.1-.08-.18-.17-.23-.16-.09.02-.19.09-.22.17-.02.05.08.15.13.22.09-.06.17-.12.32-.23ZM68.32,45.43l-.02-.23c-.17.03-.34.07-.5.1,0,.04.01.08.02.13h.51ZM88.68,100.9c.19.11.27.2.37.21.06,0,.2-.11.19-.14-.02-.09-.09-.19-.17-.22-.06-.02-.16.06-.39.15ZM18.09,59.42c.11-.18.2-.27.21-.37,0-.06-.11-.2-.14-.19-.09.03-.19.09-.22.17-.02.06.06.16.15.39ZM50.67,87.16h-.15v.59s.1,0,.15,0v-.59ZM38.36,66.83c-.18-.11-.27-.2-.37-.21-.06,0-.2.11-.19.14.03.09.09.19.17.22.06.02.16-.06.39-.15ZM78.3,112.27c0,.05,0,.1,0,.15h.6c0-.05,0-.1,0-.15h-.6ZM51,88.71c.05,0,.1,0,.15,0v-.6c-.05,0-.1,0-.15,0v.6ZM27.45,63.94h-.15v.6h.15v-.6ZM57.58,88.68s-.08-.13-.12-.14c-.07,0-.14.05-.2.07.04.05.08.14.12.14.07,0,.14-.05.21-.08ZM80.8,33.4s-.08-.13-.12-.14c-.07,0-.14.05-.2.07.04.05.08.14.12.14.07,0,.14-.05.21-.08ZM4.52,106.22c-.04-.05-.08-.11-.11-.16-.04.05-.12.12-.11.16.02.07.09.12.14.19.03-.06.05-.12.08-.18ZM84.14,40.04c-.07-.03-.15-.09-.18-.07-.05.04-.07.12-.1.18.07.01.14.05.19.03.04,0,.06-.09.09-.14ZM52.41,43.07c-.06.03-.12.05-.18.08.06.05.12.13.19.14.04.01.11-.07.16-.11-.05-.04-.11-.08-.17-.11ZM29.41,58.59c-.04-.05-.08-.11-.11-.16-.04.05-.12.12-.11.16.02.07.09.12.14.19.03-.06.05-.12.08-.18ZM16.97,58.88c-.03-.06-.05-.12-.08-.18-.05.06-.13.12-.14.19-.01.04.07.11.11.16.04-.05.08-.11.11-.17ZM87.02,108c-.07-.03-.15-.09-.18-.07-.05.04-.07.12-.1.18.07.01.14.05.19.03.04,0,.06-.09.09-.14ZM72.89,59.25c-.03-.05-.05-.13-.08-.14-.06-.02-.13.02-.19.03.03.06.05.15.1.18.03.02.11-.04.18-.07ZM16.73,59.55c-.04-.05-.08-.11-.11-.16-.04.05-.12.12-.11.16.02.07.09.12.14.19.03-.06.05-.12.08-.18ZM41.77,65.39s-.13.08-.14.12c0,.07.05.14.07.2.05-.04.14-.08.14-.12,0-.07-.05-.14-.08-.21ZM39.79,66.59c-.03.07-.09.15-.07.18.04.05.12.07.18.1.01-.07.05-.14.03-.19,0-.04-.09-.06-.14-.09ZM85.82,110.16c-.07-.03-.15-.09-.18-.07-.05.04-.07.12-.1.18.07.01.14.05.19.03.04,0,.06-.09.09-.14ZM71.77,66.73c-.04-.05-.08-.11-.11-.16-.04.05-.12.12-.11.16.02.07.09.12.14.19.03-.06.05-.12.08-.18ZM39.31,68.35c.05-.03.13-.05.14-.08.02-.06-.02-.13-.03-.19-.06.03-.15.05-.18.1-.02.03.04.11.07.18ZM58.85,70.37c-.03-.06-.05-.12-.08-.18-.05.06-.13.12-.14.19-.01.04.07.11.11.16.04-.05.08-.11.11-.17ZM81.37,111.27c-.06.03-.12.05-.18.08.06.05.12.13.19.14.04.01.11-.07.16-.11-.05-.04-.11-.08-.17-.11ZM79.46,112.22c.05-.04.11-.08.16-.11-.05-.04-.12-.12-.16-.11-.07.02-.12.09-.19.14.06.03.12.05.18.08ZM33.81,79.28c-.03.07-.09.15-.07.18.04.05.12.07.18.1.01-.07.05-.14.03-.19,0-.04-.09-.06-.14-.09ZM49.28,85.4l-.11-.16c-.04.05-.12.12-.11.16.02.07.09.12.14.19.03-.06.05-.12.08-.18ZM47.75,85.97s-.13.08-.14.12c0,.07.05.14.07.2.05-.04.14-.08.14-.12,0-.07-.05-.14-.08-.21ZM19.78,82.87s-.05-.03-.07-.04c0,.05,0,.09,0,.14.02-.01.06-.02.07-.03.01-.01,0-.05,0-.07ZM50.19,44.6s-.05-.05-.07-.07c-.02.02-.05.05-.07.07.03.03.07.05.1.08.01-.02.03-.05.04-.07ZM49.47,44.6s-.05-.05-.07-.07c-.02.02-.05.05-.07.07.03.03.07.05.1.08.01-.02.03-.05.04-.07ZM38.4,40.86s.05-.05.07-.07c-.02-.02-.05-.05-.07-.07-.03.03-.05.07-.08.1.02.01.05.03.07.04ZM19.78,85.03s-.05-.03-.07-.04c0,.05,0,.09,0,.14.02-.01.06-.02.07-.03.01-.01,0-.05,0-.07ZM34.57,38.71s.05-.05.07-.07c-.02-.02-.05-.05-.07-.07-.03.03-.05.07-.08.1.02.01.05.03.07.04ZM40.14,67.82l-.07-.07-.07.07s.07.05.1.08c.01-.02.03-.05.04-.07ZM33.86,38.47s.05-.05.07-.07c-.02-.02-.05-.05-.07-.07-.03.03-.05.07-.08.1.02.01.05.03.07.04ZM42.03,37.65s-.05-.03-.07-.04c0,.05,0,.09,0,.14.02-.01.06-.02.07-.03.01-.01,0-.05,0-.07ZM39.64,65.88s-.05-.03-.07-.04v.14s.05-.02.06-.03c.01-.01,0-.05,0-.07ZM88.86,36.43s-.03.05-.04.07c.05,0,.09,0,.14,0-.01-.02-.02-.06-.03-.07-.01-.01-.05,0-.07,0ZM80.57,36.21s-.05-.03-.07-.04c0,.05,0,.09,0,.14.02-.01.06-.02.07-.03.01-.01,0-.05,0-.07ZM55.45,88.4s-.05-.05-.07-.07c-.02.02-.05.05-.07.07.03.03.07.05.1.08.01-.02.03-.05.04-.07ZM45.62,88.62s-.05-.03-.07-.04c0,.05,0,.09,0,.14.02-.01.06-.02.07-.03.01-.01,0-.05,0-.07ZM78.91,35.99s-.05-.05-.07-.07c-.02.02-.05.05-.07.07.03.03.07.05.1.08.01-.02.03-.05.04-.07ZM17.64,90.79s-.05-.05-.07-.07c-.02.02-.05.05-.07.07.03.03.07.05.1.08.01-.02.03-.05.04-.07ZM51.85,90.77s-.05-.03-.07-.04c0,.05,0,.09,0,.14.02-.01.06-.02.07-.03.01-.01,0-.05,0-.07ZM74.82,62.53s-.05-.03-.07-.04v.14s.05-.02.06-.03c.01-.01,0-.05,0-.07ZM52.82,91.99l-.07-.07-.07.07s.07.05.1.08c.01-.02.03-.05.04-.07ZM86.31,35.01s-.05-.03-.07-.04c0,.05,0,.09,0,.14.02-.01.06-.02.07-.03.01-.01,0-.05,0-.07ZM25.96,68.86s.05-.05.07-.07c-.02-.02-.05-.05-.07-.07-.03.03-.05.07-.08.1.02.01.05.03.07.04ZM75.93,62.27s-.03.05-.04.07h.14s-.02-.05-.03-.06c-.01-.01-.05,0-.07,0ZM66.94,97.01s-.05-.05-.07-.07c-.02.02-.05.05-.07.07.03.03.07.05.1.08.01-.02.03-.05.04-.07ZM35.09,35.01s-.05-.03-.07-.04c0,.05,0,.09,0,.14.02-.01.06-.02.07-.03.01-.01,0-.05,0-.07ZM67.08,97.69s-.03.05-.04.07c.05,0,.09,0,.14,0-.01-.02-.02-.06-.03-.07-.01-.01-.05,0-.07,0ZM35.35,99.41s-.05-.05-.07-.07c-.02.02-.05.05-.07.07.03.03.07.05.1.08.01-.02.03-.05.04-.07ZM75.21,62.03s-.03.05-.04.07c.05,0,.09,0,.14,0-.01-.02-.02-.06-.03-.07-.01-.01-.05,0-.07,0ZM35.01,34.27s-.03.05-.04.07c.05,0,.09,0,.14,0-.01-.02-.02-.06-.03-.07-.01-.01-.05,0-.07,0ZM81.2,33.55s-.03.05-.04.07c.05,0,.09,0,.14,0-.01-.02-.02-.06-.03-.07-.01-.01-.05,0-.07,0ZM35.01,33.55s-.03.05-.04.07c.05,0,.09,0,.14,0-.01-.02-.02-.06-.03-.07-.01-.01-.05,0-.07,0ZM37.88,69.21s-.03.05-.04.07h.14s-.02-.05-.03-.06c-.01-.01-.05,0-.07,0ZM38.36,104.15s-.03.05-.04.07c.05,0,.09,0,.14,0-.01-.02-.02-.06-.03-.07-.01-.01-.05,0-.07,0ZM25.43,69.45s-.03.05-.04.07c.05,0,.09,0,.14,0-.01-.02-.02-.06-.03-.07-.01-.01-.05,0-.07,0ZM33.18,104.65s-.05-.03-.07-.04c0,.05,0,.09,0,.14.02-.01.06-.02.07-.03.01-.01,0-.05,0-.07ZM8.78,104.91s-.05-.05-.07-.07c-.02.02-.05.05-.07.07.03.03.07.05.1.08.01-.02.03-.05.04-.07ZM58.99,69.58l.07-.07-.07-.07s-.05.07-.08.1c.02.01.05.03.07.04ZM33.57,105.11l-.04.07s.09,0,.14,0c-.01-.02-.02-.06-.03-.07-.01-.01-.05,0-.07,0ZM17.06,62.03l-.04.07s.09,0,.14,0c-.01-.02-.02-.06-.03-.07-.01-.01-.05,0-.07,0ZM91.01,105.11s-.03.05-.04.07h.14s-.02-.05-.03-.06c-.01-.01-.05,0-.07,0ZM38.12,69.93s-.03.05-.04.07h.14s-.02-.05-.03-.06c-.01-.01-.05,0-.07,0ZM17.3,61.55s-.03.05-.04.07c.05,0,.09,0,.14,0-.01-.02-.02-.06-.03-.07-.01-.01-.05,0-.07,0ZM37.02,65.9l-.07-.07-.07.07s.07.05.1.08c.01-.02.03-.05.04-.07ZM37.93,70.53l.07-.07-.07-.07s-.05.07-.08.1c.02.01.05.03.07.04ZM90.64,105.87s-.05-.05-.07-.07c-.02.02-.05.05-.07.07.03.03.07.05.1.08.01-.02.03-.05.04-.07ZM17.1,60.24s.05-.05.07-.07c-.02-.02-.05-.05-.07-.07-.03.03-.05.07-.08.1.02.01.05.03.07.04ZM17.88,59.68s-.05-.05-.07-.07c-.02.02-.05.05-.07.07.03.03.07.05.1.08l.04-.07ZM7.35,106.82s-.05-.05-.07-.07c-.02.02-.05.05-.07.07.03.03.07.05.1.08.01-.02.03-.05.04-.07ZM33.33,59.16s-.03.05-.04.07c.05,0,.09,0,.14,0-.01-.02-.02-.06-.03-.07-.01-.01-.05,0-.07,0ZM44.92,73.56l-.07-.07-.07.07s.07.05.1.08c.01-.02.03-.05.04-.07ZM86.7,106.78s-.03.05-.04.07c.05,0,.09,0,.14,0-.01-.02-.02-.06-.03-.07-.01-.01-.05,0-.07,0ZM44.43,73.78s-.05-.03-.07-.04v.14s.05-.02.06-.03c.01-.01,0-.05,0-.07ZM17.38,58.94s-.05-.03-.07-.04c0,.05,0,.09,0,.14.02-.01.06-.02.07-.03.01-.01,0-.05,0-.07ZM86.22,107.02s-.03.05-.04.07h.14s-.02-.05-.03-.06c-.01-.01-.05,0-.07,0ZM89.66,107.28s-.05-.03-.07-.04v.14s.05-.02.06-.03c.01-.01,0-.05,0-.07ZM86.7,107.5s-.03.05-.04.07h.14s-.02-.05-.03-.06c-.01-.01-.05,0-.07,0ZM6.37,107.76s-.05-.03-.07-.04c0,.05,0,.09,0,.14.02-.01.06-.02.07-.03.01-.01,0-.05,0-.07ZM32.42,58.81s.05-.05.07-.07c-.02-.02-.05-.05-.07-.07-.03.03-.05.07-.08.1.02.01.05.03.07.04ZM80.05,74.84s.05-.05.07-.07l-.07-.07s-.05.07-.08.1c.02.01.05.03.07.04ZM31.28,58s-.05-.05-.07-.07c-.02.02-.05.05-.07.07.03.03.07.05.1.08l.04-.07ZM42.29,67.1l-.07-.07-.07.07s.07.05.1.08c.01-.02.03-.05.04-.07ZM73.11,64.55l.07-.07-.07-.07s-.05.07-.08.1c.02.01.05.03.07.04ZM52.72,108.7s-.03.05-.04.07c.05,0,.09,0,.14,0-.01-.02-.02-.06-.03-.07-.01-.01-.05,0-.07,0ZM20.99,76.91s-.05-.05-.07-.07c-.02.02-.05.05-.07.07.03.03.07.05.1.08l.04-.07ZM30.08,55.85s-.05-.05-.07-.07c-.02.02-.05.05-.07.07.03.03.07.05.1.08l.04-.07ZM85.11,109.68s-.05-.03-.07-.04c0,.05,0,.09,0,.14.02-.01.06-.02.07-.03.01-.01,0-.05,0-.07ZM36.44,109.89l-.04.07s.09,0,.14,0c-.01-.02-.02-.06-.03-.07-.01-.01-.05,0-.07,0ZM84.59,110.02s.05-.05.07-.07l-.07-.07s-.05.07-.08.1c.02.01.05.03.07.04ZM86.55,109.92s-.05-.03-.07-.04c0,.05,0,.09,0,.14.02-.01.06-.02.07-.03.01-.01,0-.05,0-.07ZM36.92,110.13s-.03.05-.04.07h.14s-.02-.05-.03-.06c-.01-.01-.05,0-.07,0ZM84.17,110.17s-.05-.05-.07-.07c-.02.02-.05.05-.07.07.03.03.07.05.1.08.01-.02.03-.05.04-.07ZM20.45,78.43s.05-.05.07-.07c-.02-.02-.05-.05-.07-.07-.03.03-.05.07-.08.1.02.01.05.03.07.04ZM36.05,110.4s-.05-.03-.07-.04c0,.05,0,.09,0,.14.02-.01.06-.02.07-.03.01-.01,0-.05,0-.07ZM37.5,110.41l-.07-.07-.07.07s.07.05.1.08c.01-.02.03-.05.04-.07ZM83.64,110.5s.05-.05.07-.07l-.07-.07s-.05.07-.08.1c.02.01.05.03.07.04ZM85.07,110.5l.07-.07-.07-.07s-.05.07-.08.1c.02.01.05.03.07.04ZM46.34,78.33s-.05-.03-.07-.04v.14s.05-.02.06-.03c.01-.01,0-.05,0-.07ZM83.11,110.61s-.03.05-.04.07h.14s-.02-.05-.03-.06c-.01-.01-.05,0-.07,0ZM58.03,54.5s.05-.05.07-.07l-.07-.07s-.05.07-.08.1c.02.01.05.03.07.04ZM82.74,110.89s-.05-.05-.07-.07c-.02.02-.05.05-.07.07.03.03.07.05.1.08.01-.02.03-.05.04-.07ZM82.15,111.09s-.03.05-.04.07h.14s-.02-.05-.03-.06c-.01-.01-.05,0-.07,0ZM37.49,67.32s-.05-.03-.07-.04v.14s.05-.02.06-.03c.01-.01,0-.05,0-.07ZM82.02,111.85l-.07-.07-.07.07s.07.05.1.08c.01-.02.03-.05.04-.07ZM77.65,112.65l.07-.07s-.05-.05-.07-.07c-.03.03-.05.07-.08.1.02.01.05.03.07.04ZM58.51,49.24s.05-.05.07-.07c-.02-.02-.05-.05-.07-.07-.03.03-.05.07-.08.1.02.01.05.03.07.04ZM80.33,47.22l-.07-.04s0,.09,0,.14c.02-.01.06-.02.07-.03.01-.01,0-.05,0-.07ZM61.33,45.28s-.03.05-.04.07c.05,0,.09,0,.14,0-.01-.02-.02-.06-.03-.07-.01-.01-.05,0-.07,0ZM44.44,114.24s-.05-.05-.07-.07c-.02.02-.05.05-.07.07.03.03.07.05.1.08l.04-.07ZM80.24,45.04s-.03.05-.04.07c.05,0,.09,0,.14,0-.01-.02-.02-.06-.03-.07-.01-.01-.05,0-.07,0ZM46.34,114.7s-.05-.03-.07-.04c0,.05,0,.09,0,.14.02-.01.06-.02.07-.03.01-.01,0-.05,0-.07Z"/>
  <path d="M76.63,32.84c1.73-.99,2.11-2.72,2.38-4.47.4-2.63.12-5.39,1.45-7.83.56-1.02,1.18-2.05,1.94-2.92,1.07-1.23,2.25-2.37,3.46-3.46.46-.41,1.15-.57,1.74-.68-.75.56-1.56,1.06-2.23,1.7-1.16,1.13-2.27,2.33-3.34,3.55-1.75,1.99-2.25,4.46-2.4,6.99-.12,2.06-.14,4.14-1.29,5.93-.46.72-1.2,1.33-1.94,1.8-.96.62-2.05,1.05-3,1.51-.58-.76-1.3-1.7-2.06-2.69.2-.07.51-.17,1.1-.37-1.02-.81-1.92-1.53-2.81-2.24l-.02.02c.84-.31,1.24.38,1.78.77.97.7,1.9,1.49,2.94,2.06.49.27,1.31.32,1.59-.53.41-1.22.93-2.43,1.12-3.69.3-1.94.21-3.95.56-5.89.41-2.3,1.43-4.36,3.24-5.96.85-.75,1.6-1.62,2.44-2.39,1.56-1.44,3.46-2.25,5.46-2.86,1.21-.37,2.32-.09,3.16.79.98,1.03,1.33,2.4,1.03,3.74-.14.64-.97,1.12-1.59,1.63.65-1.08.99-2.31.26-3.27-.61-.81-1.71-1.24-2.46-1.75.82-.31,2.45.63,3.14,2.07.02.41.04.83.07,1.24l.32-.04c-.08-.44-.17-.88-.25-1.32-.2-2.49-1.97-3.41-4.49-2.45-3.85,1.47-6.76,4.09-8.84,7.55-.79,1.32-1.08,3.01-1.35,4.57-.42,2.39-.62,4.81-.93,7.22-.07.52-.2,1.03-.31,1.54-.04.08-.07.16-.11.24.08-.04.16-.08.24-.11ZM73.27,33.43c-.08-.08-.16-.16-.24-.24-.07-.26-.13-.52-.23-.77,0-.02-.3.07-.46.11.19.26.38.52.57.78.08.08.16.16.24.24.12.28.24.55.36.83.12-.07.23-.14.35-.21-.19-.25-.39-.5-.58-.75ZM75.24,33.39c0-.11,0-.23-.01-.34h-1.42c0,.14.02.29.03.43.47-.03.94-.06,1.41-.08ZM76.02,33.1l-.07-.04s0,.09,0,.14c.02-.01.06-.02.07-.03.01-.01,0-.05,0-.07Z"/>
  <path d="M47.59,4.05l.94,1.43c-.12.1-.24.2-.35.3-.34-.36-.69-.72-1.21-1.27.1.52.07.97.27,1.25.67.92,1.65,1.69,2.08,2.7.39.92.28,2.08.24,3.12,0,.15-.85.26-1.39.26.82-.25,1.46-.55,1.15-1.56-.2-.65-.29-1.38-.62-1.95-.49-.84-1.16-1.57-2.07-2.3-.09.66-.16,1.32-.28,1.97-.05.27-.22.51-.33.77-.27-.13-.6-.2-.8-.41-.31-.33-.54-.74-.92-1.29-.21,1.49-.35,2.76-.59,4.02-.07.37-.37.9-.65.96-.29.06-.84-.29-.99-.6-.37-.8-.63-1.66-.85-2.52-.11-.44-.02-.92-.29-1.49-.42.63-.84,1.25-1.26,1.88-.52.78-.99,1.6-1.56,2.34-.18.23-.61.27-.93.39-.07-.32-.28-.69-.19-.95.51-1.44.93-2.95,1.69-4.26.86-1.49,2.02-2.8,3.1-4.15.27-.33.72-.52,1.18-.68-2.99,2.56-4.54,5.93-5.7,9.52.11.08.23.15.34.23l3.61-5.51c.12.04.23.08.35.12,0,.82-.1,1.65.03,2.44.14.83.48,1.63.79,2.42.08.2.37.32.57.48.13-.23.34-.44.38-.69.19-1.2.33-2.41.5-3.62.05-.37.18-.72.34-1.36.61.92,1.06,1.6,1.67,2.51.15-1.16.31-2.03.37-2.91.07-.91.5-1.43,1.39-1.57l-.02-.02Z"/>
  <path d="M93.15,29.51c-.77.38-1.14.56-1.49.73-.35-.58-.71-1.17-1.06-1.75-.11.01-.22.02-.33.03-.07.87-.14,1.73-.21,2.73-1.45-1.14-2.96-1.92-2.99-4.21-.04-2.75.47-5.36,1.06-7.98.14-.6.59-1.13,1.06-1.97.1.52.24.84.17.9-1.34,1.04-1.17,2.7-1.52,4.08-.39,1.52-.18,3.18-.34,4.77-.18,1.75.91,2.62,2.1,3.48.51-2.06,1.14-4.05-.19-6.01l.2,2.71c-1.23-2.5.09-5.04-.18-7.56,0-.07.36-.19.32-.17.3,2.67.53,5.36.94,8.02.17,1.09.7,2.15,2.46,2.2Z"/>
  <path d="M41.8,14.89c.53.93.76,2.1,2.02,2.44.15.04.37.33.34.43-.31.93.17,2.1-.83,2.82-1.37.98-2.75,1.95-4.13,2.93-.21.15-.42.3-.63.45.03.1.06.19.09.29.87-.19,1.75-.4,2.63-.55.5-.09,1.1-.25,1.52-.07.83.36,1.16,1.02.8,2.02-.27.75-.28,1.6-.44,2.65.55-.49.89-.8,1.43-1.28v2.84c-.07.01-.13.02-.2.03-.04-.58-.09-1.15-.15-1.93-.23.35-.36.55-.5.75-.15.21-.31.41-.47.62-.13-.26-.38-.53-.37-.78.07-1.06.18-2.12.35-3.16.16-.96-.68-1.77-1.61-1.41-1.39.53-2.78.75-4.33.26,2.24-2.09,6.25-2.35,6.48-6.37-1.55-.77-2.8-2.78-2.71-4.39,1.11.92,2.2,1.81,3.14,2.59-.54.13-.82,0-2.29-1.31-.08-.04-.16-.07-.24-.11.04.08.08.16.11.24Z"/>
  <path d="M56.52,28.53c.09.13.27.35.25.37-1.23,1.24-1.54,2.59-.88,4.29.34.88.28,1.95.25,2.93-.03,1-.57,1.33-1.52,1.05-.68-.2-1.35-.41-2.01-.66-.89-.33-1.09-1.09-.36-1.69,1.37-1.11,1.32-2.52,1.01-4-.28-1.33.92-3.13,2.24-3.3v-.02c.15.08.32.17.49.25,0,0-.02-.02-.02-.02.14.22.29.44.43.66-.58-.12-1.17-.23-1.75-.35l-.06.38c.64.1,1.17,1.34,1.93.1ZM54.85,36.54c-.08-.04-.16-.07-.24-.11.04.08.08.16.11.24.08.04.16.07.24.11-.04-.08-.08-.16-.11-.24ZM55.09,30.68c.22-.38.44-.77.78-1.37-.72-.12-1.49-.45-1.71-.23-.33.33-.28,1.05-.39,1.6v2.29c.66.2,1.15.35,1.63.5l.24-.26c-.39-.34-.79-.67-1.18-1.01.1.04.21.08.31.11.11-.54.22-1.09.32-1.63ZM53.28,34.39c-.16.16-.32.32-.48.48-.04.08-.07.16-.11.24.08-.04.16-.08.24-.11.9.48,1.8.95,2.82,1.49v-2.44c-.4-.15-.73-.23-1.02-.39-.63-.35-1.05-.28-1.2.49-.08.08-.16.16-.24.24ZM53.43,36.19s-.03.05-.04.07h.14s-.02-.05-.03-.06c-.01-.01-.05,0-.07,0ZM52.8,35.49l-.07-.04s0,.09,0,.14c.02-.01.06-.02.07-.03.01-.01,0-.05,0-.07Z"/>
  <path d="M65.49,18c.08.23.17.46.25.69-.11.05-.23.11-.34.16-.29-.62-.56-1.26-.89-1.86-.09-.16-.38-.22-.57-.32l-1.32-.25c-.01.11-.02.22-.04.33.41.02.83.04,1.24.06-.46.11-.97.41-1.37.29-1.22-.34-2.31-.45-3.43.39-.69.52-2.05-.14-2.53-1.04-.22-.41-.46-.81-.69-1.22-.08-.08-.16-.16-.24-.24-.65-.45-1.3-.9-1.95-1.34-.09.16-.19.32-.28.49.7.33,1.41.66,2.11.98.08.08.16.16.24.24-.29,0-.65.11-.85-.02-1.38-.93-2.88-1.4-4.53-1.28-.52.04-1.03.25-1.65.41.22-.93,1.07-1.18,1.93-1.26,2.94-.26,5.35.6,6.83,3.38.36.67.79.96,1.68.42,2-1.21,4.31-1.53,6.38.1.16.12.11.5.16.75-.08-.08-.16-.16-.24-.24-.08-.04-.16-.07-.24-.11.04.08.08.16.11.24.08.08.16.16.24.24ZM52.23,13.66s0,.1,0,.15h.74c0-.06,0-.13,0-.19-.25.01-.49.03-.74.04Z"/>
  <path d="M57.48,24.81c.4-.12.79-.34,1.19-.34,1.74,0,3.44-.05,5.13-.68.77-.28,1.73-.05,2.67.06-.95.18-1.39.57-1.58,1.61-.33,1.8-2,2.28-3.53,2.68-1.47.39-2.77-.18-3.72-1.22-.38-.41-.21-1.32-.29-2,1.14.1,2.28.2,3.42.31,0-.14,0-.29.01-.43h-3.31ZM58.2,26.73c-.08-.04-.16-.07-.24-.11.04.08.08.16.11.24.74.82,1.67,1.05,2.75.96,1.67-.14,3.28-1.17,3.71-2.44.19-.56.09-.94-.56-.71-1.88.67-3.79,1-5.78.91-.2,0-.42.29-.67.47.55.14.91.23,1.26.33-.19.12-.39.24-.58.36Z"/>
  <path d="M94.21,19.67c.16,2.56.35,5.12.47,7.68.03.62-.13,1.25-.27,1.86-.03.13-.34.19-.52.29-.03-.16-.12-.33-.09-.47.16-.82.45-1.63.51-2.45.09-1.23.1-2.47,0-3.7-.06-.69-.42-1.36-.65-2.04-.1-.3-.21-.59-.27-.89-.16-.85-.29-1.71-.42-2.47,3.46,1.38,3.79,4.81,3.43,7.64-.07.58-.12,1.18-.27,1.74-.14.54-.4,1.05-.76,1.55.83-2.68,1.32-5.34-.03-8.09-.12.32-.2.56-.32.88-.25-.61-.47-1.12-.69-1.63-.05-.2-.1-.4-.14-.6-.07.02-.14.04-.21.06.07.22.15.44.22.66ZM95.08,19.69c-.03.07-.09.15-.07.18.04.05.12.07.18.1.01-.06.05-.14.03-.19,0-.04-.09-.06-.14-.09Z"/>
  <path d="M17.33,76.16c.21-.61.42-1.21.63-1.82-.08-.07-.17-.13-.25-.2-.42.45-.85.89-1.4,1.47.2-.87.38-1.62.55-2.37-.1-.03-.21-.05-.31-.08.33-.29.66-.58,1.15-1.02h-1.48c.64-.4,1.18-.73,1.73-1.07-.04-.09-.08-.17-.12-.26-.26.05-.53.09-.79.14,1.67-.62,1.65-2.28,2.47-3.49-.15.68-.31,1.35-.46,2.03.12.04.24.09.36.13.25-.58.5-1.16.75-1.75-.12,3.02-1.36,5.68-2.53,8.37-.1-.03-.2-.06-.3-.08ZM18.17,72.59c.1.08.21.15.31.23.14-.21.27-.42.41-.63-.09-.06-.24-.17-.25-.16-.17.18-.31.37-.46.56ZM19.55,70.5c-.23-.2-.34-.37-.48-.39-.1-.01-.23.18-.34.27.13.12.24.26.39.33.07.03.21-.1.43-.21ZM19.07,71.65l-.07-.07s-.05.05-.07.07c.03.03.07.05.1.08l.04-.07ZM17.64,73.56s-.05-.05-.07-.07c-.02.02-.05.05-.07.07.03.03.07.05.1.08l.04-.07Z"/>
  <path d="M72.06,10.65c.28-.41.53-.78.78-1.14.34.29.75.54.99.89.5.74.93,1.54,1.36,2.32.43.78.83,1.58,1.54,2.36.12-.83.23-1.66.35-2.49l.25-.02c-.03.49.01.99-.09,1.45-.14.65-.39,1.27-.59,1.91-.37-.54-.78-1.07-1.1-1.64-.82-1.44-1.61-2.91-2.41-4.37-.13.02-.26.05-.39.07l-.43,2.93c-.09.03-.18.06-.27.1-.28-1.08-.57-2.16-.94-3.58-.37.61-.63.96-.81,1.35-.28.61-.46,1.26-.76,1.85-.14.27-.47.44-.71.65-.19-.23-.51-.43-.55-.68-.21-1.15-.37-2.32-.5-3.49-.02-.21.16-.45.29-.77.19,1.53.37,2.91.54,4.3.13.02.26.04.4.06.57-1.23,1.14-2.47,1.87-4.05.51.85.86,1.42,1.18,1.96Z"/>
  <path d="M90.9,14.09c-.73-.29-1.27-.5-1.77-.7,1.23-.34,1.71-.02,2.13,1.47-1.54-.29-2.39.75-3.21,1.73-1.86,2.22-2.3,5.03-2.87,7.72-.32,1.49-.1,3.12-.03,4.68.02.5.36.99.56,1.48l.45-.1c.13-1.18.26-2.36.39-3.54.1,0,.21.01.31.02-.11,1.16-.19,2.33-.35,3.49-.02.17-.47.48-.58.42-.35-.18-.86-.46-.9-.75-.21-1.67-.57-3.38-.37-5.02.27-2.16,1-4.26,1.57-6.38.34-1.29,2.72-3.63,4.67-4.52Z"/>
  <path d="M69.64,29.65c-.18.04-.37.08-.6.14.18-.78.36-1.52.55-2.34.92.33,1.81.65,2.71.97-.57-1.32-1.23-2.42-1.52-3.62-.3-1.21-.27-2.5-.28-3.76,0-.21.48-.47.78-.62.54-.27,1.1-.48,1.66-.72-.02-.12-.04-.23-.07-.35h-3.2c0-.08,0-.15,0-.23,1.64-.21,3.29-.41,5.08-.64-.71,1.04-1.74,1.72-2.86,2.16-.71.28-.84.63-.89,1.3-.22,2.81.46,5.24,3.05,6.91-.09.09-.19.18-.28.27-1.25-.33-2.49-.66-3.87-1.03-.08.49-.17,1.03-.26,1.58,0,0,.02-.02.02-.02Z"/>
  <path d="M61.8,11.48c.03-.3.05-.6.09-.96-.34-.04-.68-.08-1.33-.15.39-.17.52-.27.64-.26.63.02,1.27,0,1.41-.76.16-.92.26-1.85.23-2.78,0-.15-.82-.35-1.26-.36-.17,0-.39.44-.52.71-.48.97-.93,1.95-1.43,3.01-.53-1.77.32-3.31,1.35-3.86.48-.26,1.27-.08,1.86.09.26.08.42.64.52,1.01.1.36.05.76.08,1.36,1.01-.85,1.78-1.68,2.72-2.24.94-.57,2.04-.88,3.17-1.13-3.3,1.18-5.73,3.29-7.5,6.33Z"/>
  <path d="M56.09,23.81c-2.44.46-2.55-2.03-4.1-3.4.13,1.94.2,3.6.38,5.24.03.26.57.45.89.9-.37-.07-.91-.02-1.06-.24-.32-.46-.58-1.05-.6-1.6-.04-1.3.15-2.61.09-3.91-.04-.83-.36-1.65-.56-2.46,2.04,1.25,2.98,3.83,4.95,5.46ZM53.89,21.94c-.08-.04-.16-.07-.24-.11.04.08.08.16.11.24.08.08.16.16.24.24.08.04.16.07.24.11-.04-.08-.07-.16-.11-.24-.08-.08-.16-.16-.24-.24ZM54.85,23.14c-.1-.14-.19-.29-.3-.43,0,0-.11.07-.17.1.12.15.23.3.35.44.15.12.29.23.44.35.04-.06.11-.16.11-.17-.13-.11-.27-.2-.41-.3Z"/>
  <path d="M11.11,64.46c-.91,2.95-1.82,5.89-2.73,8.84-.11,0-.21-.01-.32-.02.15-1.52.24-3.05.49-4.56.13-.79.48-1.57.84-2.3.18-.37.66-.58.9-.94.22-.32.29-.73.42-1.11.13.03.26.06.39.08ZM8.97,70.06s.05-.05.07-.07c-.02-.02-.05-.05-.07-.07-.03.03-.05.07-.08.1.02.01.05.03.07.04ZM10.16,65.99s.05-.05.07-.07c-.02-.02-.05-.05-.07-.07-.03.03-.05.07-.08.1.02.01.05.03.07.04Z"/>
  <path d="M48.25,17.88c-.19-.09-.38-.18-.56-.27.12-.18.2-.47.37-.53.6-.22,1.22-.37,1.82-.54.08.22.15.33.13.35-.63.62-.81,1.22-.62,2.2.21,1.07-.19,2.25-.29,3.39-.04.41-.14,1.04.08,1.22.99.8.78,1.85.75,2.85-.05,1.43.07,2.76,1.72,3.67-1.4-.28-2.01-.98-2.06-2.17-.04-.84,0-1.67-.01-2.51,0-.28.06-.69-.09-.81-1.43-1.14-.66-2.49-.45-3.81.16-1.03.31-2.11-.64-2.92.26-.18.52-.35.78-.53-.15-.13-.31-.26-.46-.39-.15.27-.3.53-.45.8Z"/>
  <path d="M53.99,7.62c.56-.69,1.12-1.37,1.67-2.05.2.26.4.53.6.79-.86-.5-1.37-.07-1.52,1.27-.04.35-.04.7-.06,1.07-1.77-.96-2.04-2.69-.57-3.91.37-.31,1.15-.42,1.62-.25,1.83.65,2.65,2.12,2.82,3.99.06.62,0,1.25-.23,1.88-.12-.86-.27-1.71-.34-2.57-.08-1.03-.66-1.73-1.37-2.39-.71-.66-1.45-1.05-2.29-.32-.8.7-.85,1.84-.34,2.5Z"/>
  <path d="M8.94,61.5c-.61,1.74-1.25,3.47-1.83,5.21-.58,1.74-1.17,3.48-1.62,5.26-.15.61.12,1.34.24,2.41-.3-.56-.67-.92-.64-1.24.12-1.25.25-2.51.58-3.71.59-2.11,1.31-4.18,2.06-6.24.23-.63.73-1.17,1.1-1.75.03.02.07.04.1.06Z"/>
  <path d="M93.24,28.21c-.12-.57-.17-1.16-.37-1.7-.19-.54-.56-1.01-.78-1.54-.18-.43-.33-.89-.39-1.34-.24-1.88-.43-3.76-.58-5.67,1.05,3.33,1.86,6.73,2.44,10.19-.11.02-.22.04-.33.05Z"/>
  <path d="M71.41,5.25c1.56-.29,2.92.33,3.72,1.51,1.25,1.84,2.19,3.88,3.24,5.84.09.17.01.44.01.73-1.03-1.83-2.06-3.54-2.97-5.3-.86-1.66-2.09-2.66-4.01-2.78Z"/>
  <path d="M7.98,91.12c.06.32.11.63.18,1.03.29-.22.51-.4.73-.57.11.04.22.09.32.13-.34,1.31-.68,2.63-1.02,3.94-.12-.02-.24-.04-.36-.06v-1.28c-.49.53-.83.89-1.27,1.36.14-.87.17-1.66.4-2.39.22-.71.64-1.37,1.02-2.15ZM7.6,94.11c.21.04.42.09.63.13.13-.61.27-1.22.4-1.83-.18-.04-.36-.09-.53-.13-.17.61-.33,1.22-.5,1.83Z"/>
  <path d="M66.59,28.11c-.3,2.67-5.82,6.11-8.62,5.3,4.03.1,6.32-2.57,8.62-5.3Z"/>
  <path d="M49.05,30.39c-1.93-1.72-2.84-3.89-2.83-6.47,0-1.34,0-2.68,0-4.02.1,0,.2-.02.31-.03.02.39.03.78.07,1.16.15,1.88.16,3.78.53,5.62.2,1,1.03,1.88,1.55,2.83.16.29.24.61.36.92,0,0,.02-.01.02-.01Z"/>
  <path d="M70.08,17.49c-.22-.13-.53-.31-1.05-.63.96-.64,1.82-1.22,2.82-1.89-1.31-.5-2.54-.05-4.01.36,1.47-1.41,4.74-1.12,5.5.26-1.32.21-3.1-.28-3.26,1.9Z"/>
  <path d="M47.6,4.07c.01-.23.02-.46.03-.68,1.24.29,4.26,5.03,4.12,6.34-.99-1.64-2-3.37-3.08-5.05-.2-.31-.71-.42-1.08-.62,0,0,.02.02.02.02Z"/>
  <path d="M45.29,10.85c1.01.81,1.91,1.52,2.81,2.24,0,.04,0,.09,0,.13-.76-.35-1.52-.71-2.33-1.08-.57.73-.59,1.5.37,2.13-.38.28-.67.48-1.14.83.1-1.47.19-2.8.29-4.24Z"/>
  <path d="M67.12,27.38c1.1-2.47.53-4.99.29-7.5.67,2.52,1.24,5.04-.29,7.5Z"/>
  <path d="M63.04,29.1c-.06,1.28-.72,1.86-2.03,1.71-.19-.02-.52-.03-.57.07-.88,1.66-2.15.38-3.21.56,0-.12.01-.25.02-.37.53.07,1.06.15,1.6.19.25.02.7.06.74-.04.39-.9,1.24-.64,1.9-.89.58-.22,1.02-.78,1.56-1.22Z"/>
  <path d="M68.36,7.35c-1.36,1.17-2.66,2.27-3.92,3.4-.17.15-.14.51-.26.96-.29-.24-.52-.43-.75-.63.18-.17.35-.34.55-.5,1.21-.99,2.43-1.97,3.65-2.94.19-.15.47-.2.72-.3Z"/>
  <path d="M67.69,32.23c.06-.27.17-.77.3-1.39.25.86.44,1.54.68,2.38-.79-.17-1.62-.35-2.61-.57.15.39.24.63.34.88-.08.05-.15.1-.23.14-.18-.31-.35-.62-.53-.94.62-.15,1.24-.31,2.05-.51Z"/>
  <path d="M64.38,33.4c-.43.47-.81,1.01-1.31,1.4-.28.22-.75.25-1.14.27-.1,0-.36-.46-.31-.52.19-.23.45-.43.72-.55.63-.29,1.27-.53,1.91-.8.04.07.08.13.12.2Z"/>
  <path d="M27.74,48.08c-.22.44-.45.88-.67,1.32-.6-.28.76-1.38-1.01-1.15.67-.86,1.17-1.5,1.68-2.14.1.07.2.15.3.22-.11.59-.21,1.18-.32,1.78,0,0,.02-.02.02-.02ZM27.11,47.77c.05-.03.13-.05.14-.08.02-.06-.02-.13-.03-.19-.06.03-.15.05-.18.1-.02.03.04.11.07.18Z"/>
  <path d="M54.2,17.77c.67,1.54,1.34,3.07,2.01,4.6-.71-.25-1.21-1.23-2.26-4.43.09-.06.17-.11.26-.17Z"/>
  <path d="M67.37,13.1c-.62-.18-1.24-.36-1.95-.56.1-.53.23-1.22.41-2.21.62,1.02.09,2.47,1.7,2.4-.06.12-.11.25-.17.37Z"/>
  <path d="M53.76,10.58c-.12.11-.23.22-.35.34-.08-.19-.22-.38-.23-.57,0-.15.19-.45.23-.44.65.15,1.31.29,1.91.56.13.06.07.56.13,1.14-.66-.48-1.12-.82-1.57-1.15-.08-.04-.16-.07-.24-.11.04.08.08.16.11.24Z"/>
  <path d="M55.15,38.7c1.2-.15,2.4-.29,3.58-.44-1.02,1.06-2.33.6-3.58.44Z"/>
  <path d="M92.67,19.13c.27,1.12.54,2.23.81,3.35-.11.03-.23.06-.34.08-.28-1.12-.56-2.24-.84-3.37.12-.02.25-.04.37-.06Z"/>
  <path d="M50.49,33.05q-1.75.41-1.98-.84c.62.26,1.24.52,1.98.84ZM49.13,33.08s-.03.05-.04.07c.05,0,.09,0,.14,0-.01-.02-.02-.06-.03-.07-.01-.01-.05,0-.07,0Z"/>
  <path d="M61.04,9.62c.3-.83.64-1.73.92-2.52.46,1.08-.05,2.41-.92,2.52Z"/>
  <path d="M60.59,21.15c-.6.85-1.21,1.7-1.81,2.54-.1-.07-.2-.14-.3-.21.61-.84,1.21-1.69,1.82-2.53.1.07.19.13.29.2Z"/>
  <path d="M52.39,10.61c-.45.38-.9.75-1.49,1.24-.04-.64-.07-1.03-.08-1.27.53-.09.99-.16,1.45-.24.04.09.08.18.12.26Z"/>
  <path d="M71.36,39.58c.13.75.25,1.4.36,2.05q-.96-1.89-.36-2.05Z"/>
  <path d="M63.66,36.69c1.03-1.32,1.5-1.48,2.37-.95-.72.29-1.5.6-2.37.95Z"/>
  <path d="M43.71,21.85c.11-.15.3-.4.71-.95.13.93.21,1.6.3,2.27-.06.01-.11.02-.17.03-.27-.42-.53-.84-.85-1.35Z"/>
  <path d="M64.82,20.91c.32-.08.73-.18,1.49-.38-.57.81-.92,1.3-1.32,1.88-.06-.54-.11-.98-.17-1.51Z"/>
  <path d="M53.95,25.88c.74-.35,1.45-.68,2.08-.98-.03.87-.69,1.23-2.08.98Z"/>
  <path d="M28.92,45.91c-.24.82-.49,1.64-.73,2.46-.15-.1-.3-.19-.45-.29,0,0-.02.02-.02.02.41-.73.81-1.45,1.22-2.18,0,0-.02-.01-.02-.01Z"/>
  <path d="M56.46,9.95c-.18-.74-.35-1.49-.53-2.23l.31-.08.57,2.19c-.12.04-.24.08-.35.12Z"/>
  <path d="M23.07,61.34c-.22.59-.44,1.18-.66,1.77-.1-.04-.21-.08-.31-.11.16-.61.33-1.22.49-1.83.16.06.32.12.48.17Z"/>
  <path d="M64.1,37.14c.66-.29,1.31-.58,1.97-.88.05.1.09.2.14.3l-1.91.88c-.07-.1-.14-.2-.2-.3Z"/>
  <path d="M52.11,14.93c-.66-.04-1.28-.07-1.87-.11.48-.63.91-.62,1.87.11Z"/>
  <path d="M55.5,27.52c.4-.23.79-.46,1.28-.75.04.36.07.68.11,1.08-.37-.04-.65-.07-.93-.1,0,0,.02.02.02.02-.17-.08-.33-.17-.5-.25v.02Z"/>
  <path d="M45.52,1.99c-.55-.08-1.1-.15-1.66-.23.01-.1.03-.19.04-.29.58.07,1.15.13,1.73.2-.04.11-.08.21-.11.32Z"/>
  <path d="M60.73,11.91c-.34-.04-.68-.07-1.14-.13.09-.2.19-.41.29-.63.33.18.67.35,1,.53l-.15.23Z"/>
  <path d="M69.04,26.42c.08-.37.17-.75.25-1.12.08.01.16.03.24.04-.04.38-.07.76-.11,1.14-.13-.02-.25-.04-.38-.05Z"/>
  <path d="M72.24,7.16c-.37-.08-.75-.15-1.12-.23.05-.14.1-.27.15-.41l.99.66-.02-.02Z"/>
  <path d="M69.92,7.93c.09-.31.18-.62.26-.93.09.03.19.05.28.08l-.28.93-.26-.07Z"/>
  <path d="M54.13,24.75c.22-.09.43-.17.65-.26.05.13.1.26.15.38-.23.07-.46.13-.68.2-.04-.11-.07-.22-.11-.33Z"/>
  <path d="M72.25,7.18c.26-.1.52-.2.78-.3l.11.4c-.3-.04-.6-.08-.91-.12,0,0,.02.02.02.02Z"/>
  <path d="M15.21,82.79c.23.14.49.31.75.47-.14.14-.28.28-.43.42-.11-.32-.23-.63-.32-.9Z"/>
  <path d="M77.6,30.33c.02-.19.04-.38.05-.57.06,0,.13,0,.19,0,.02.18.04.36.06.55-.1,0-.2.01-.31.02Z"/>
  <path d="M65.28,14.32c-.09.07-.16.13-.24.19-.05-.08-.17-.19-.15-.24.05-.11.17-.19.25-.29.04.1.08.2.13.34Z"/>
  <path d="M2.26,104.76c.16.19.27.27.26.33-.02.12-.11.23-.18.35-.06-.04-.17-.08-.17-.12,0-.14.04-.28.09-.56Z"/>
  <path d="M62.11,14.53c-.03.07-.04.17-.09.19-.05.02-.17-.03-.18-.08-.02-.05.03-.17.08-.18.05-.02.13.05.2.08Z"/>
  <path d="M7.54,77.71c-.03.07-.04.17-.09.19-.05.02-.17-.03-.18-.08-.02-.05.03-.17.08-.18.05-.02.13.05.2.08Z"/>
  <path d="M64.69,12.25c.03-.07.04-.17.09-.19.05-.02.17.03.18.08.02.05-.03.17-.08.18-.05.02-.13-.05-.2-.08Z"/>
  <path d="M19.03,83.69c-.03.07-.04.17-.09.19-.05.02-.17-.03-.18-.08-.02-.05.03-.17.08-.18.05-.02.13.05.2.08Z"/>
  <path d="M23.34,60.48c-.03.07-.04.17-.09.19-.05.02-.17-.03-.18-.08-.02-.05.03-.17.08-.18.05-.02.13.05.2.08Z"/>
  <path d="M14.4,84.78s-.1.09-.13.08c-.07-.02-.13-.09-.19-.13l.15-.15c.05.05.1.11.17.2Z"/>
  <path d="M13.49,85.36s-.1-.07-.14-.11c.07-.05.14-.11.22-.13.02,0,.08.11.11.17-.06.02-.13.05-.19.07Z"/>
  <path d="M82.59,13.99s-.1.04-.11.03c-.03-.06-.06-.12-.08-.18.03,0,.07-.03.08-.02.04.05.08.11.11.17Z"/>
  <path d="M59.75,107.02c0,.23,0,.46,0,.69-.14,0-.28.01-.42.02-.68-4.76-2.14-9.47-.27-14.67-.11,1.47.07,2.71-.33,3.73-.72,1.83-.1,3.49.25,5.19.11.53-.44,1.42.59,1.64l-.02-.02c.32.23.64.45.96.68-.03.06-.05.12-.08.18-.4-.14-.8-.27-1.2-.41l-.15.3c.37.17.74.31,1.09.51.24.13.44.34.66.52-.09.09-.18.18-.28.28.62.25,1.24.5,1.86.75-.03.09-.06.18-.09.27l-2.86-.96c.93,1.28,2.22,1.77,3.68,1.95-1.23.38-2.23-.31-3.27-.78-.08-.04-.16-.07-.24-.11.04.08.08.16.11.24ZM59.48,105.12s-.13.08-.14.12c0,.07.05.14.07.2.05-.04.14-.08.14-.12,0-.07-.05-.14-.08-.21ZM60.21,105.37c-.07-.03-.15-.09-.18-.07-.05.04-.07.12-.1.18.07.01.14.05.19.03.04,0,.06-.09.09-.14Z"/>
  <path d="M60.49,114.57c.2-.08.4-.17.6-.25,0-.09,0-.18-.01-.28-1.43.1-2.87.21-4.4.32.2.24.31.38.42.51-.03.09-.06.19-.09.28-.98-.27-1.95-.53-2.93-.8,3.19-.02,6.48-1.7,9.44.71-.99-.11-1.99-.21-2.98-.32-.02-.06-.04-.12-.05-.18ZM56.05,114.47s.08.13.12.14c.07,0,.14-.05.2-.07-.04-.05-.08-.14-.12-.14-.07,0-.14.05-.21.08Z"/>
  <path d="M61.55,74.59c.72-.47,1.45-.95,2.52-1.65-.74,1.09-1.35,2.01.05,2.76-.05.09-.1.18-.15.28-.57.1-1.13.19-1.7.29-.08-.04-.16-.07-.24-.11.04.08.08.16.11.24-.09.17-.18.34-.26.52-.24-.24-.51-.47-.71-.73-.11-.15-.13-.36-.19-.55-.1.04-.2.08-.3.11.09-.48.19-.95.33-1.71.19.31.31.5.42.69.08.04.16.07.24.11-.04-.08-.08-.16-.11-.24ZM62.74,74.97c-.09-.11-.14-.18-.2-.25-.08.07-.18.12-.23.21-.02.03.09.19.14.19.09,0,.17-.08.3-.15ZM62.75,75.7s.08.13.12.14c.07,0,.14-.05.2-.07-.04-.05-.08-.14-.12-.14-.07,0-.14.05-.21.08ZM61.86,75.56l.07-.07s-.05-.05-.07-.07c-.03.03-.05.07-.08.1.02.01.05.03.07.04Z"/>
  <path d="M51.85,109.18c.56.24,1.12.48,1.68.72.68.23,1.34.52,2.03.69.93.23,1.12-.55,1.54-1.13.4-.56,1.06-.93,1.7-1.22-.65.8-1.26,1.64-1.96,2.4-.2.22-.62.3-.95.32-1.62.12-2.91-.78-4.27-1.46.07-.11.15-.21.22-.32Z"/>
  <path d="M75.11,105.06c1.1-.09,2.21-.19,3.31-.28.01.12.03.24.04.35l-1.62.17c-.05.08-.09.17-.14.25.65.43,1.3.87,1.95,1.3-.05.09-.1.17-.15.26-.35-.21-.68-.52-1.06-.6-.79-.17-1.12-1.38-2.15-.92-.06-.18-.11-.37-.17-.55,0,0-.02.02-.02.02Z"/>
  <path d="M80.02,102.98c1.24-.88,2.59-1.84,3.81-2.71.02.96-2.52,2.79-3.81,2.71Z"/>
  <path d="M61,108.22c1.07.29,2.13.57,3.19.88.07.02.14.25.11.35-.03.1-.21.27-.27.25-1.04-.41-2.08-.85-3.11-1.28.03-.07.05-.14.08-.2Z"/>
  <path d="M44.72,107.68c.38.21.76.43,1.15.64-.05.1-.09.2-.14.29-1.04-.4-2.09-.79-3.13-1.19.02-.06.04-.11.06-.17.69.15,1.39.3,2.08.45l-.02-.02Z"/>
  <path d="M67.06,107.01c.07-.07.15-.15.22-.22,1.11.15,2.23.3,3.34.45-.02.12-.05.23-.07.35-1.16-.19-2.33-.38-3.49-.57Z"/>
  <path d="M63.57,58.8c-.1-.17-.31-.35-.29-.51.05-.45.18-.89.29-1.36.24.52.52,1.01.69,1.54.06.2-.14.48-.22.72-.11-.09-.22-.18-.33-.26.04-.15.08-.29.13-.44-.09.11-.17.21-.26.32Z"/>
  <path d="M78.56,109.01c.75-.22,1.5-.45,2.25-.67.03.11.06.22.1.33l-2.28.71c-.02-.12-.04-.24-.07-.37Z"/>
  <path d="M63.9,97.51c-1.03-1.03.21-1.26.72-1.74-.23.55-.46,1.1-.72,1.74Z"/>
  <path d="M54.69,60.05l-.99,1.63-.3-.18c.33-.55.67-1.11,1-1.66.1.07.19.15.29.22Z"/>
  <path d="M77.4,83.32c.36-.41.75-.85,1.11-1.26.1.9-.22,1.26-1.11,1.26Z"/>
  <path d="M56.46,51.09c.56-.25,1.13-.5,1.69-.76.05.1.1.19.16.29-.55.26-1.11.52-1.66.78-.06-.1-.12-.21-.18-.31Z"/>
  <path d="M79.94,92.22c-.48.31-.97.62-1.45.94-.07-.11-.14-.22-.21-.33.5-.29.99-.58,1.49-.87.06.09.11.18.17.27Z"/>
  <path d="M63.81,94.39c-.49.11-.98.23-1.47.34-.03-.1-.05-.2-.08-.3l1.47-.39c.03.11.06.23.08.34Z"/>
  <path d="M50.03,48.86c.36.28.72.56,1.08.84-.07.07-.19.22-.21.21-.38-.24-.75-.5-1.12-.76.08-.1.17-.19.25-.29Z"/>
  <path d="M54.32,62.7c.18-.46.35-.92.53-1.38.1.04.21.07.31.11l-.49,1.38c-.12-.04-.23-.07-.35-.11Z"/>
  <path d="M44.74,107.69c-.12-.17-.23-.35-.47-.69.54.13.94.23,1.34.32,0,.06.02.12.02.18-.3.06-.61.11-.91.17,0,0,.02.02.02.02Z"/>
  <path d="M69.74,106.71c-.42-.12-.85-.23-1.27-.35.02-.08.04-.16.06-.24.42.09.84.18,1.26.27-.02.11-.03.21-.05.32Z"/>
  <path d="M64.14,99.15c.13-.38.26-.77.38-1.15.09.03.18.05.27.08-.11.39-.23.78-.34,1.17l-.31-.1Z"/>
  <path d="M74.88,75.15c-.03.27-.06.55-.09.84-.14-.05-.26-.07-.26-.09,0-.26.03-.52.05-.78.1,0,.2.02.3.03Z"/>
  <path d="M54.9,63.31v.73c-.06,0-.12,0-.18,0v-.74c.06,0,.12,0,.18.01Z"/>
  <path d="M63.4,61.28c.17-.15.33-.3.5-.44.05.05.1.1.15.14-.14.16-.28.33-.43.49-.07-.06-.15-.13-.22-.19Z"/>
  <path d="M50.29,61.05c.12.15.24.3.37.45-.05.05-.1.1-.14.14-.15-.13-.3-.26-.45-.39.08-.07.15-.13.23-.2Z"/>
  <path d="M75.1,77.85c-.08.11-.14.2-.2.28-.06-.08-.17-.15-.17-.23,0-.09.09-.18.14-.27.07.07.14.13.23.22Z"/>
  <path d="M75.93,79.34c.08.11.19.2.18.26-.03.09-.13.18-.22.22-.04.01-.2-.14-.18-.19.02-.09.13-.17.23-.29Z"/>
  <path d="M70.87,111.89c.08.17.16.27.16.37,0,.05-.16.11-.25.13-.06.01-.13-.06-.2-.09.06-.09.12-.18.29-.41Z"/>
  <path d="M59.57,103.63c.1-.13.2-.27.3-.4.05.05.09.11.14.16-.15.07-.31.15-.46.22,0,0,.02.02.02.02Z"/>
  <path d="M59.71,101.4c-.03.07-.04.17-.09.19-.05.02-.17-.03-.18-.08-.02-.05.03-.17.08-.18.05-.02.13.05.2.08Z"/>
  <path d="M70.4,111.41c-.07-.03-.17-.04-.19-.09-.02-.05.03-.17.08-.18.05-.02.17.03.18.08.02.05-.05.13-.08.2Z"/>
  <path d="M61.76,111.56s-.08.12-.1.11c-.07-.03-.14-.08-.2-.12.05-.05.1-.11.15-.16.05.05.1.11.15.17Z"/>
  <path d="M66.79,111.8s-.08.12-.1.11c-.07-.03-.14-.08-.2-.12.05-.05.1-.11.15-.16.05.05.1.11.15.17Z"/>
  <path d="M68.81,111.21c-.03.07-.04.17-.09.19-.05.02-.17-.03-.18-.08-.02-.05.03-.17.08-.18.05-.02.13.05.2.08Z"/>
  <path d="M59.95,102.35c-.03.07-.04.17-.09.19-.05.02-.17-.03-.18-.08-.02-.05.03-.17.08-.18.05-.02.13.05.2.08Z"/>
  <path d="M66.16,95.15s.03.06.03.08c0,.02-.03.05-.05.07-.01-.03-.03-.06-.03-.08,0-.02.03-.05.05-.07Z"/>
  <path d="M66.52,96.68s0-.05,0-.08c-.03.02-.05.04-.08.06.02,0,.05.02.08.03,0,0,0,0,0,0Z"/>
  <path d="M72.8,49.35c.08-.08.16-.16.23-.23.12.44.23.87.35,1.31l-1.62,1.2c-.06-.08-.13-.16-.19-.24.33-.28.65-.56.98-.84.08-.08.16-.16.24-.24.04-.08.07-.16.11-.24-.08.04-.16.08-.24.11-.08.08-.16.16-.24.24-.09-.12-.28-.31-.25-.35.18-.26.4-.48.61-.72Z"/>
  <path d="M78.89,49.94c-.16.08-.32.16-.47.23-.08,0-.16,0-.24,0,.22-.34.37-.75.67-.98.24-.18.65-.14.99-.2l-.47.47c-.16.16-.32.32-.48.48Z"/>
  <path d="M87.82,41.62c-.53.06-1.06.11-1.58.17-.02-.07-.04-.14-.05-.21.65-.22,1.3-.44,2.27-.76-.36.46-.51.64-.65.82,0,0,.02-.02.02-.02Z"/>
  <path d="M72.5,52.62c-.22-.03-.45-.06-.83-.11.52-.39.91-.69,1.31-.99.05.04.09.09.14.13-.21.33-.43.66-.64.99l.02-.02Z"/>
  <path d="M71.25,54.97c.33-.26.67-.51,1-.77.06.05.11.09.17.14-.28.32-.56.63-.85.95-.11-.11-.22-.21-.33-.32Z"/>
  <path d="M78.78,52.7c.12.12.23.24.35.35-.3.24-.59.48-.89.71l-.18-.14c.24-.31.47-.62.71-.93Z"/>
  <path d="M72.49,52.63c.16.25.32.49.49.74,0,0,.02-.02.02-.02-.29.04-.57.08-.95.14.17-.32.32-.6.47-.87,0,0-.02.02-.02.02Z"/>
  <path d="M38.79,46.78c.78-.06,1.56-.11,2.34-.17,0-.12.01-.24.02-.36-.52-.08-1.04-.15-1.65-.24.74-.28,1.41-.52,2.13-.79v1.76h-2.81l-.02-.21Z"/>
  <path d="M41.53,48.81c-1.02.06-2.04.12-3.07.17,0-.12,0-.24-.01-.36,1.02-.05,2.04-.1,3.07-.16v.34Z"/>
  <path d="M41.63,47.85c-1.14.08-2.29.16-3.43.24,0-.16,0-.33,0-.49,1.15.09,2.3.18,3.45.27,0,0-.01-.02-.01-.02Z"/>
  <path d="M41.88,52.87h-1.82c.64-.3,1.12-.53,1.66-.79.05.28.09.54.13.81,0,0,.02-.02.02-.02Z"/>
  <path d="M44.45,68.98c.47.12.94.23,1.41.35-.02.1-.05.2-.07.3-.47-.11-.94-.22-1.41-.33.02-.11.05-.21.07-.32Z"/>
  <path d="M39.09,45.1h1.46c0,.06,0,.12.01.18h-1.46c0-.06,0-.12,0-.18Z"/>
  <path d="M41.34,49.65c-.42.11-.83.23-1.25.34-.03-.09-.05-.17-.08-.26.41-.14.81-.28,1.22-.43.04.11.08.23.11.34Z"/>
  <path d="M86.85,87.56c.14.23.29.46.57.92-1.11.27-2.15.51-3.18.76,0,0,.02.02.02.02.62-.3,1.26-.57,1.85-.92.3-.18.51-.52.77-.79,0,0-.02.01-.02.01Z"/>
  <path d="M84.77,61.75c-.15,1.1-.95,1.86-2.14,1.98.71-.66,1.42-1.32,2.14-1.98Z"/>
  <path d="M85.29,63.33c-.48.58-.96,1.15-1.44,1.73-.09-.07-.17-.13-.26-.2.45-.57.91-1.15,1.36-1.72.11.06.23.13.34.19Z"/>
  <path d="M83.27,89.27c.33,0,.65,0,.98-.01,0,0-.01-.02-.01-.02-.61.81-1.44.73-2.54.58.68-.24,1.14-.4,1.59-.57,0,0-.02.02-.02.02Z"/>
  <path d="M83.64,82.34c.55.06,1.11.12,1.66.18-.01.1-.03.21-.04.31-.55-.05-1.11-.1-1.66-.16.01-.11.02-.22.04-.33Z"/>
  <path d="M83.39,83.91c.55-.04,1.11-.09,1.66-.13.01.09.03.18.04.27-.55.08-1.1.16-1.65.24-.02-.13-.03-.26-.05-.38Z"/>
  <path d="M84.7,59.58c-.31.35-.62.7-.93,1.05-.08-.06-.16-.11-.24-.17.29-.38.59-.77.88-1.15.1.09.19.17.29.26Z"/>
  <path d="M85.68,47.51l1.18-.37c.03.1.06.2.1.3-.39.13-.78.25-1.17.38-.03-.1-.07-.21-.1-.31Z"/>
  <path d="M84.98,51.57c.32-.19.63-.37.95-.56.06.09.11.18.17.27l-.91.58c-.07-.1-.14-.19-.21-.29Z"/>
  <path d="M83.28,89.25c-.13-.1-.26-.19-.38-.29l.08-.08c.1.13.19.25.29.38,0,0,.02-.02.02-.02Z"/>
  <path d="M41.43,92.24c.51-.22,1.01-.44,1.52-.67l.14.3c-.51.22-1.01.44-1.52.66l-.14-.29Z"/>
  <path d="M43.82,99.31c.15.23.29.47.44.7-.07.05-.14.1-.21.15-.18-.21-.35-.41-.53-.62.1-.08.2-.16.29-.24Z"/>
  <path d="M43.02,95.13h-.63c0-.06,0-.12,0-.17h.63c0,.06,0,.12,0,.17Z"/>
  <path d="M43.76,96.64c-.12.08-.21.18-.27.17-.09-.03-.16-.14-.24-.22.07-.07.15-.2.21-.19.09.01.17.12.29.24Z"/>
  <path d="M42.91,70.02c-.12.1-.2.21-.29.23-.05.01-.2-.15-.19-.19.04-.09.13-.2.22-.22.06-.02.15.1.26.18Z"/>
  <path d="M48.26,42.87c-.23-1.35-.47-2.73-.69-4.05.88.69,1.27,2.93.69,4.05Z"/>
  <path d="M47.97,37.92h-.8c0-.08-.02-.15-.02-.23.27-.04.54-.09.81-.13,0,.12,0,.24.01.36Z"/>
  <path d="M37.7,84.87c-.38-.14-.76-.28-1.14-.41.04-.1.07-.19.11-.29.38.14.75.28,1.13.43l-.11.27Z"/>
  <path d="M37.86,85.86c-.33-.11-.65-.22-.98-.33.03-.09.06-.18.09-.27.33.1.66.21.99.31-.03.1-.06.19-.09.29Z"/>
  <path d="M47.1,104.34c.28-.18.57-.36.85-.53.02.1.05.2.07.3-.3.07-.6.15-.91.22,0,0-.01.02-.01.02Z"/>
  <path d="M33.54,53.52c-.24-.16-.48-.32-.72-.48l.17-.42c.62.34,1.24.67,1.86,1.01l-.03.12c-.43-.08-.85-.15-1.28-.23Z"/>
  <path d="M32.74,48.44c.4.37.81.73,1.21,1.1-.06.06-.12.12-.18.17-.39-.38-.78-.76-1.18-1.13.05-.05.1-.09.14-.14Z"/>
  <path d="M32.33,44.23c.23-.21.45-.42.68-.63.07.08.15.16.22.25-.23.2-.47.41-.7.61-.07-.07-.13-.15-.2-.22Z"/>
  <path d="M30.37,41.17l.3-.4c.05.05.09.11.14.16-.15.07-.31.15-.46.22,0,0,.02.02.02.02Z"/>
  <path d="M33.71,62.44c.28.16.56.31.8.45-.71.27-2.83-.31-3.21-.96-.04-.07.18-.28.28-.43l-.02-.02c.72.32,1.45.65,2.17.97h-.02Z"/>
  <path d="M31.58,61.5c-.18-.21-.35-.42-.53-.62l.1-.14c1.08.5,2.15.99,3.36,1.55-.35.06-.57.1-.79.15,0,0,.02.01.02.01-.72-.32-1.45-.65-2.17-.97l.02.02Z"/>
  <path d="M31.46,59.5c.97.51,1.94,1.02,2.9,1.54-.05.1-.1.19-.15.29-.96-.52-1.92-1.05-2.89-1.57.04-.09.09-.17.13-.26Z"/>
  <path d="M33.01,56.95l-1.13-.72c.11-.13.23-.26.34-.38.57.37,1.14.73,1.84,1.18-.38.07-.6.1-.82.14v.02c-.08-.09-.16-.17-.25-.26h.02Z"/>
  <path d="M33.24,57.17c-.67.36-1.21.25-1.74-.56.62.14,1.07.24,1.51.34,0,0-.02-.01-.02-.01.09.09.17.17.26.26v-.02Z"/>
  <path d="M57.67,43.75c-.41.09-.82.17-1.23.26,0,0,.02.02.01.02.35-.31.6-1.08,1.2-.26h.02Z"/>
  <path d="M57.65,43.77c.09.15.22.29.26.45.01.06-.19.17-.52.44.15-.48.22-.69.28-.9,0,0-.02.01-.02.01Z"/>
  <path d="M87.51,101.63c-.16.08-.32.16-.48.24h-1.04c-.02-.11-.03-.21-.05-.32.75-.09,1.51-.18,2.26-.27-.23.12-.47.24-.7.36Z"/>
  <path d="M85.66,103.83c-.21.68-.59,1.08-1.51.8.59-.3,1.06-.54,1.53-.78,0,0-.02-.02-.02-.02Z"/>
  <path d="M53.42,34.5c.07-.08.15-.15.22-.23.63.39,1.26.77,1.89,1.16l-.18.28c-.64-.4-1.29-.81-1.93-1.21Z"/>
  <path d="M53.89,30.56c.35-.5.71-.51,1.06,0-.35,0-.7,0-1.06,0Z"/>
</svg>