<?xml version="1.0" encoding="UTF-8"?>
<svg id="a" data-name="Layer_1" xmlns="http://www.w3.org/2000/svg" viewBox="0 0 113.37 90.83">
  <defs>
    <style>
      .b {
        fill: none;
        stroke: #000;
        stroke-miterlimit: 10;
        stroke-width: .5px;
      }

      .c {
        fill: #fff;
      }
    </style>
  </defs>
  <g>
    <path d="M7.96,58.19c-.84-3.32-.58-6.68-.28-10.03.03-.31,0-.62,0-1.17-.89.5-.94,1.15-.94,1.82.01,2.51,0,5.02-.17,7.56-1.47-2.71-1.59-5.68-1.52-8.99-1.11.87-.61,1.82-.69,2.59-.09.9-.02,1.81-.29,2.8-.54-1.09-1.08-2.19-1.57-3.19,1.78-1.02.01-2.46.72-3.52-.1-.06-.2-.11-.3-.17-.36.27-.73.54-1.09.81-.06-.01-.12-.03-.18-.05.53-.93.94-1.96,1.61-2.78,1.8-2.22,3.7-4.35,5.57-6.52,1.05-1.23,2.09-2.48,3.16-3.7,2.99-3.42,6.7-6.02,10.27-8.76,3.25-2.5,6.53-4.97,9.91-7.29,3.17-2.18,6.45-4.19,9.75-6.18,3.75-2.25,7.51-4.53,11.4-6.53,2.19-1.14,4.65-1.76,7-2.6.6-.22,1.37-.23,1.57-1.08h0c.03-.13.05-.27.05-.43-2,.65-3.94,1.16-5.78,1.92-3.86,1.59-7.54,3.51-10.99,5.88-1.59,1.08-3.41,1.83-5.06,2.84-1.88,1.16-3.66,2.46-5.5,3.68-1.92,1.26-3.92,2.4-5.76,3.76-5.72,4.26-11.62,8.3-16.76,13.28-1.46,1.42-2.65,3.12-4.01,4.67-1.03,1.17-2.17,2.25-3.17,3.46-1.03,1.23-1.82,2.67-2.92,3.83-2.24,2.35-.74,4.63.19,6.7,2.08,4.6,5.11,8.6,8.7,12.16,1.91,1.9,3.65,3.96,5.6,5.79,2.25,2.1,4.55,4.18,7.01,6.02,2.79,2.07,5.7,3.99,8.71,5.71,2.19,1.25,4.62,2.08,6.96,3.05,3.88,1.6,7.76,3.22,11.67,4.73,1.82.7,3.73,1.18,5.6,1.69,1.07.3,2.25.03,3.36.02-.49-.19.12-.44.81-.63-4.85.03-9.3-1.61-13.7-3.32-3.91-1.52-7.82-3.1-11.58-4.95-2.97-1.47-5.86-3.19-8.51-5.15-3.99-2.97-7.83-6.16-11.57-9.43-1.85-1.61-3.46-3.53-4.93-5.49-.57-.75-.62-2-.66-3.03-.09-2.24-.03-4.48-.03-6.72v-1.16c-.14-.03-.29-.05-.44-.08-.09.31-.26.63-.26.94-.03,2.32-.02,4.64-.02,6.96v1.17l-.3.15c-.22-.34-.55-.66-.64-1.04Z"/>
    <path d="M60.71,90.04c.1.02.22-.15.38-.38-.07-.11-.13-.22-.2-.33-.1,0-.19,0-.29.01-.69.19-1.3.44-.81.63.31,0,.62.01.92.07Z"/>
    <path d="M61.82,89.07c-.1.36-.2.72-.29,1.08.01.01.03.01.05.02l.3-1.1h0s-.04-.01-.07,0Z"/>
    <path class="c" d="M66.91,64.96v3.68c.56-1.24.82-2.48.36-3.69-.12,0-.24.01-.36.01Z"/>
    <path d="M69.36,61.14v8.61c.34-.38.73-.6.73-.84.05-2.43.04-4.86,0-7.29,0-.2-.25-.4-.38-.6l-.36.12Z"/>
    <path d="M70.93,65.18v3.76c.11.04.23.08.35.11.13-.47.27-.95.44-1.56.3.71.58,1.39.86,2.07.18-.07.36-.13.54-.2-.19-.73-.27-1.51-.61-2.16-.35-.68-.94-1.22-1.58-2.02Z"/>
    <path d="M107.08,66.97c.41-1.06.8-2.14,1.2-3.21.25-.9.5-1.8.74-2.69.09-.71.09-1.43.26-2.11.9-3.54.66-7.16.67-10.76,0-.2-.22-.41-.54-.57.06,5.7-.42,11.27-2.49,16.61.07-.6.14-1.21.2-1.82-.08-.05-.16-.11-.25-.17-.16.16-.43.29-.48.48-.35,1.27-.59,2.58-.98,3.84-.23.71-.67,1.35-1.01,2.03.07.08.13.17.2.26.35-.16.71-.29,1.03-.5.38-.24.73-.53,1.07-.83.16-.15.3-.35.38-.56Z"/>
    <path class="c" d="M70.93,68.94v-3.76c.64.8,1.23,1.34,1.58,2.02.34.65.42,1.43.61,2.16-.18.07-.36.13-.54.2-.28-.68-.56-1.36-.86-2.07-.17.61-.31,1.09-.44,1.56-.12-.03-.24-.07-.35-.11ZM69.36,69.75v-8.61l.36-.12c.13.2.38.4.38.6.03,2.43.04,4.86,0,7.29,0,.24-.39.46-.73.84ZM7.68,48.16c-.3,3.35-.56,6.71.28,10.03.09.38.42.7.64,1.04l.3-.15v-1.17c0-2.32-.01-4.64.02-6.96,0-.31.17-.63.26-.94.15.03.3.05.44.08v1.16c0,2.24-.06,4.48.03,6.72.04,1.03.09,2.28.66,3.03,1.47,1.96,3.08,3.88,4.93,5.49,3.74,3.27,7.58,6.46,11.57,9.43,2.65,1.96,5.54,3.68,8.51,5.15,3.76,1.85,7.67,3.43,11.58,4.95,4.4,1.71,8.85,3.35,13.7,3.32.49-.14,1.02-.24,1.22-.27,1.19-4.45,2.5-8.88,3.43-13.39,1.02-4.94,1.04-10,.49-15.05.2-.02.39-.04.58-.06.1.65.21,1.3.32,1.98q.35-2.25,1.39-2.35v9.49c4.23,1.83,8.59,3.07,13.2,3.14,2.83.04,5.65-.12,8.48-.22,1.18-.05,2.38-.09,3.55-.26,4.35-.6,8.7-1.25,13.04-1.92.25-.04.55-.42.64-.69.22-.69.32-1.41.48-2.12.29-1.28.57-2.57.86-3.86-.4,1.07-.79,2.15-1.2,3.21-.08.21-.22.41-.38.56-.34.3-.69.59-1.07.83-.32.21-.68.34-1.03.5-.07-.09-.13-.18-.2-.26.34-.68.78-1.32,1.01-2.03.39-1.26.63-2.57.98-3.84.05-.19.32-.32.48-.48.09.06.17.12.25.17-.06.61-.13,1.22-.2,1.82,2.07-5.34,2.55-10.91,2.49-16.61.32.16.55.37.54.57-.01,3.6.23,7.22-.67,10.76-.17.68-.17,1.4-.26,2.11.08-.12.19-.23.23-.36,1.15-3.96,1.53-8.03,1.66-12.12.05-1.38-.09-2.77-.23-4.15-.18-1.71-.44-3.42-.69-5.13-.17-1.2-.38-2.39-.57-3.59.2-.04.4-.09.6-.13.73,1.77.81,3.73,1.12,5.59.32,1.98.45,4.01.49,6.02.04,1.98-.04,3.98-.24,5.95-.2,1.98-.57,3.96-.95,5.92-.36,1.9-.83,3.79-1.26,5.68l.54.12c.49-2.14,1.11-4.26,1.44-6.42.44-2.88.86-5.78.92-8.68.07-3.21-.2-6.42-.44-9.63-.28-3.6-1.14-7.09-2.38-10.47-.25-.68-.5-1.4-.93-1.96-.3-.39-.91-.54-1.51-.86.52-.07.89-.12,1.25-.16-5.73-1.38-11.43-2.91-17.23-3.61-5.89-.72-11.86-.04-17.67.86v2.05c-.13.04-.27.07-.4.11-.09-.39-.13-.8-.27-1.17-.15-.38-.4-.72-.61-1.09-.08.07-.16.13-.24.19.05.49.1.98.16,1.47-.09.05-.18.09-.26.14-.21-.2-.47-.38-.62-.63-.18-.28-.26-.63-.38-.95.27,1.94.18,2.59-.55,2.93-.14-1.01-.27-2.02-.41-3-1.84-.22-1.84-.1-1.68,1.57.16,1.82.03,3.66.03,5.48-.19.03-.39.06-.58.08-.26-1.07.02-2.23-.14-3.32-.16-1.13-.47-2.24-.72-3.35-.22.51-.22.98-.22,1.46,0,1.77.03,3.54,0,5.3-.03,1.14-.28,1.39-1.11,1.43l.78-5.31c-.5,1.2-.78,2.42-1.1,3.63-.29,1.14-.06,2.41-.7,3.48-.24-.9-.38-1.8-.22-2.63,1.01-5.19,1.4-10.38.97-15.68-.3-3.58-1-7.04-2.06-10.45-.37-1.17-.65-2.36-.97-3.54.1-.02.19-.04.29-.06-.08-.3-.13-.63-.26-.87-.2.85-.97.86-1.57,1.08-2.35.84-4.81,1.46-7,2.6-3.89,2-7.65,4.28-11.4,6.53-3.3,1.99-6.58,4-9.75,6.18-3.38,2.32-6.66,4.79-9.91,7.29-3.57,2.74-7.28,5.34-10.27,8.76-1.07,1.22-2.11,2.47-3.16,3.7-1.87,2.17-3.77,4.3-5.57,6.52-.67.82-1.08,1.85-1.61,2.78.06.02.12.04.18.05.36-.27.73-.54,1.09-.81.1.06.2.11.3.17-.71,1.06,1.06,2.5-.72,3.52.49,1,1.03,2.1,1.57,3.19.27-.99.2-1.9.29-2.8.08-.77-.42-1.72.69-2.59-.07,3.31.05,6.28,1.52,8.99.17-2.54.18-5.05.17-7.56,0-.67.05-1.32.94-1.82,0,.55.03.86,0,1.17Z"/>
    <path d="M66.91,68.64v-3.68c.12,0,.24-.01.36-.01.46,1.21.2,2.45-.36,3.69ZM109.18,64.75c.43-1.89.9-3.78,1.26-5.68.38-1.96.75-3.94.95-5.92.2-1.97.28-3.97.24-5.95-.04-2.01-.17-4.04-.49-6.02-.31-1.86-.39-3.82-1.12-5.59-.2.04-.4.09-.6.13.19,1.2.4,2.39.57,3.59.25,1.71.51,3.42.69,5.13.14,1.38.28,2.77.23,4.15-.13,4.09-.51,8.16-1.66,12.12-.04.13-.15.24-.23.36-.24.89-.49,1.79-.74,2.69-.29,1.29-.57,2.58-.86,3.86-.16.71-.26,1.43-.48,2.12-.09.27-.39.65-.64.69-4.34.67-8.69,1.32-13.04,1.92-1.17.17-2.37.21-3.55.26-2.83.1-5.65.26-8.48.22-4.61-.07-8.97-1.31-13.2-3.14v-9.49q-1.04.1-1.39,2.35c-.11-.68-.22-1.33-.32-1.98-.19.02-.38.04-.58.06.55,5.05.53,10.11-.49,15.05-.93,4.51-2.24,8.94-3.43,13.39.03-.01.06-.01.07-.01h0s-.3,1.11-.3,1.11c-.02-.01-.04-.01-.05-.02.09-.36.19-.72.29-1.08-.2.03-.73.13-1.22.27.1-.01.19-.01.29-.01.07.11.13.22.2.33-.16.23-.28.4-.38.38-.3-.06-.61-.07-.92-.07.24.09.75.17,1.64.21.23,0,.44.1.67.12.39.02.48-.3.56-.63,1.21-5.01,2.46-10.01,3.59-15.03.33-1.49.32-3.04.44-4.29,3.04.89,5.99,1.91,9.02,2.61,2.36.55,4.79.91,7.27.42,1.28-.24,2.64-.06,3.96-.04,3.48.03,6.93-.3,10.37-.92,3.52-.62,7.09-.94,10.49-1.38.36-.91.74-1.8,1.07-2.71,1.01-2.72,2.22-5.39,2.93-8.18.58-2.26.62-4.68.8-7.03.15-2.02.28-4.05.23-6.07-.08-3.83-.16-7.66-1.15-11.4-.48-1.8-.83-3.64-1.33-5.44-.19-.7-.68-1.3-.93-1.98-.26-.74-.39-1.52-.59-2.35-4.34-.93-8.8-1.95-13.29-2.82-2.19-.43-4.43-.76-6.66-.81-3.3-.08-6.61.05-9.91.22-2.6.13-5.19.47-7.78.68-.37.02-.76-.23-1.15-.34-.14-.04-.3-.12-.43-.09-1.23.26-2.46.54-3.87.86.39-7.6-.54-14.74-3.31-21.56-.09.02-.19.04-.28.06-.1.02-.19.04-.29.06.32,1.18.6,2.37.97,3.54,1.06,3.41,1.76,6.87,2.06,10.45.43,5.3.04,10.49-.97,15.68-.16.83-.02,1.73.22,2.63.64-1.07.41-2.34.7-3.48.32-1.21.6-2.43,1.1-3.63l-.78,5.31c.83-.04,1.08-.29,1.11-1.43.04-1.76,0-3.53,0-5.3,0-.48,0-.95.22-1.46.25,1.11.56,2.22.72,3.35.16,1.09-.12,2.25.14,3.32.19-.02.39-.05.58-.08,0-1.82.13-3.66-.03-5.48-.16-1.67-.16-1.79,1.68-1.57.14.98.27,1.99.41,3,.73-.34.82-.99.55-2.93.12.32.2.67.38.95.15.25.41.43.62.63.08-.05.17-.09.26-.14-.06-.49-.11-.98-.16-1.47.08-.06.16-.12.24-.19.21.37.46.71.61,1.09.14.37.18.78.27,1.17.13-.04.27-.07.4-.11v-2.05c5.81-.9,11.78-1.58,17.67-.86,5.8.7,11.5,2.23,17.23,3.61-.36.04-.73.09-1.25.16.6.32,1.21.47,1.51.86.43.56.68,1.28.93,1.96,1.24,3.38,2.1,6.87,2.38,10.47.24,3.21.51,6.42.44,9.63-.06,2.9-.48,5.8-.92,8.68-.33,2.16-.95,4.28-1.44,6.42l-.54-.12Z"/>
  </g>
  <g>
    <path class="b" d="M61.89,1.2c-.04-.08-.08-.14-.14-.19"/>
    <path class="b" d="M62.33,2.53c-.09-.12-.14-.28-.18-.45-.08-.3-.13-.63-.26-.87"/>
  </g>
</svg>