<?xml version="1.0" encoding="UTF-8"?>
<svg id="a" data-name="Layer_1" xmlns="http://www.w3.org/2000/svg" viewBox="0 0 234.72 169.92">
  <path d="M185.63,62.33c.06-.29.11-.59.18-.93,1.05.69,4,8.2,3.85,9.25-1.11-.3-2.24-.83-3.37-.85-2.27-.03-4.01,1.35-5.73,2.65-.15.11-.07.57-.05.86.01.31.07.62-.14,1-.19-.34-.37-.68-.56-1.02-.05.02-.1.03-.16.05.06.71.12,1.41.19,2.12-.09.02-.18.05-.27.07-.17-.51-.34-1.02-.52-1.52-.08-.01-.16-.03-.24-.04-.03.38-.1.76-.08,1.13.02.44.13.87.19,1.31l-.31.09c-.18-.51-.36-1.02-.64-1.82v2.75c4.32-1,8.48-.79,12.63.22.49.12,1.05.04,1.56-.02,1.37-.17,2.73-.38,4.24-.59-.13-.82-.32-1.93-.47-3.03-.25-1.95-.53-3.89-.69-5.85-.29-3.66-.45-7.33-.76-11-.07-.83-.51-1.63-.83-2.58-3.21,2.8-6.31,5.78-11.11,5.48,2.09-.72,4.22-1.14,6.03-2.15,1.88-1.05,3.44-2.66,5.23-4.11.75,1.44,1.35,3,1.44,4.72.17,3.4.22,6.82.52,10.21.24,2.69.75,5.35,1.19,8.02.07.42.43.8.67,1.21-1.62-.09-3.24-.18-4.85-.27-.03.15-.06.3-.09.45,1.72.66,3.43,1.31,5.3,2.02-.53,5.11-1.06,10.23-1.61,15.5,2.22-.26,4.13-.66,5.6-2.39-2.63,6.79-2.78,14-4.16,20.99.11.02.22.05.32.07.15-.7.31-1.4.43-2.1.11-.66.24-1.32.26-1.98.03-.98.62-1.26,1.44-1.2,1.73.13,3.45.33,5.17.47.46.04.92-.07,1.48-.12-.29,1.47-.5,2.99-.92,4.46-.89,3.16-1.56,6.35-2.21,9.57-.74,3.65-2.08,7.17-3.11,10.77-.55,1.91-1.01,3.84-1.61,6.17-.33-.61-.59-.94-.7-1.31-.43-1.46-.75-2.95-1.23-4.38-.26-.78-.78-1.47-1.32-2.44-2.24,3.65-4.3,7-6.35,10.35-.82,1.27-1.65,2.53-2.48,3.79.08.06.15.11.23.17.46-.66.92-1.31,1.38-1.97l.17.04c-.07.46-.15.92-.22,1.38-.23.24-.47.48-.7.71.15.07.31.14.46.22-.17.17-.33.43-.53.48-.56.13-1.35-.05-1.68.28-.72.71-1.45.79-2.32.58-.03,0-.1.11-.17.2.26.15.52.31.85.5-4.78,1.22-7.01,4.72-8.78,9.12,1.74-.15,3.23-.29,5.02-.44.29.6.66,1.57,1.21,2.42.64,1.01,1.44,1.92,2.2,2.92,4.55-6.36,9.83-11.78,17.87-14.17-.84-.2-1.3-.29-1.74-.42-2.45-.74-4.98-1.31-7.33-2.3-1.52-.64-3.04-1.66-3.49-3.53.58.54,1.17,1.07,1.73,1.62,1.89,1.89,4.35,2.57,6.81,3.24,1.81.49,3.65.91,5.47,1.36l-.07.37c-1.03.27-2.06.52-3.08.8-2.42.66-4.33,2.27-6.42,3.53-2.34,1.41-4.12,3.4-5.81,5.49-1.18,1.45-2.35,2.91-3.55,4.34-.18.22-.48.34-.75.52-.32-.59-.63-1.04-.84-1.53-1.04-2.45-3.23-2.57-5.25-2.34-2.83.33-5.66.81-8.45,1.39-1.68.35-3.31,1.43-4.95,1.42-1.98-.01-3.36,1.39-5.24,1.47-1.82.08-1.88.35-1.38,2.17.03.1.06.2.18.58-.36-.25-.55-.36-.71-.49-.09-.07-.15-.19-.2-.29-1.73-3.21-2.37-3.38-5.95-2.81-2.35.37-4.61.84-6.72,1.95-.45.24-1.04.23-1.74.38.12-.43.2-.67.24-.91.26-1.93-1.34-3.44-3.7-3.49-1.27-.02-2.55,0-3.89,0,.1-.18.15-.36.22-.37,2.6-.21,5.28-.59,7.34,1.49.54.54.52,1.64.79,2.6,3.32-1.74,7.04-2.45,11.12-2.3-.83-1.38-1.53-2.58-2.28-3.76-.14-.22-.47-.37-.74-.44-2.63-.7-5.26-1.38-7.92-2.08-.04.53-.07.97-.1,1.42.42.05.94.12,1.45.19,0,.09,0,.18,0,.28-1.16.09-2.32.18-3.68.29,2.1,1.82,4.68,1.78,6.99,2.46-.04.16-.08.32-.12.48-3.23-.41-6.44-.97-9.68-1.17-3.3-.2-6.62-.04-10.04.23,1.01.47,2.02.95,3.31,1.55-.48.23-.84.55-1.19.55-2.86-.04-5.72-.09-8.58-.23-3.56-.18-6.93.79-10.31,1.66-3.26.84-6.55.82-9.91.57,2.04-1.31,4.62-1.67,6.37-3.47-.05-.11-.1-.21-.15-.32-2.39,1.06-4.79,2.13-7.18,3.19-.05-.12-.11-.23-.16-.35,1.29-.67,2.57-1.38,3.89-1.99,1.34-.62,2.74-1.14,4.23-1.75-3.04-.23-4.9,2.1-7.57,2.87.44-1.27,1.8-1.07,2.54-1.73.83-.73,1.88-1.25,2.91-1.71.96-.43,2-.67,3.33-1.1.28-.96.68-2.36,1.15-4,.25,1.26.87,1.29,1.74.96.9-.35,1.84-.64,2.79-.84.58-.12,1.21-.02,1.79.16-2.12.55-4.23,1.11-6.35,1.66.02.09.04.18.07.27.96-.18,1.92-.36,2.88-.54.02.11.05.22.07.33-.25.11-.49.26-.76.33-.27.07-.55.04-.83.08-1.56.22-2.14,1.28-2.3,2.69.32-.02.65-.04,1.19-.07-2.7,1.57-4.34,4.34-7.5,4.84,2.96.43,5.78-.09,8.57-.87,4.03-1.13,8.12-1.59,12.29-1.34,1.73.1,3.47.23,5.28.07-.7-.43-1.39-.9-2.11-1.29-1.96-1.05-2.88-3.03-4.25-4.61-.88-1.01-.76-2.13-1.05-3.19-.37-1.35-.6-1.65-2.02-1.27-3.54.94-7.07,1.92-10.59,2.9-2.47.69-4.74,1.78-6.8,3.32-.52.39-.98.87-1.59,1.17.96-1.85,2.68-2.83,4.44-3.52,3.22-1.26,6.51-2.36,9.84-3.27,2.57-.7,5.27-.91,7.88-1.5,3.7-.84,7.45-.62,11.17-.49,2.37.08,4.73.67,7.07,1.18,3.27.71,6.52,1.53,9.77,2.37,2.71.7,5.4,1.5,8.11,2.2.49.12,1.11.1,1.56-.11,1.16-.54,2.32-1.01,3.12-2.22,1.49-2.26,3.25-4.35,4.81-6.57.87-1.24,1.61-2.57,2.3-3.92.17-.33-.1-.88-.17-1.34-.11,0-.21-.01-.32-.02.19-.23.38-.46.66-.79.15.38.25.65.5,1.31,1.45-3.63,2.83-6.91,4.07-10.24.71-1.92,1.2-3.93,1.75-5.91.45-1.61.93-3.22,1.23-4.86.4-2.2.77-4.42.9-6.64.2-3.55.28-7.11.25-10.66-.03-3.54-.41-7.05-1.63-10.42-.46-1.27-.83-2.58-1.21-3.87-1.08-3.73-2.56-7.29-4.42-10.7-1.76-3.22-3.38-6.53-5.19-9.72-.79-1.38-1.83-2.65-2.9-3.84-2.79-3.11-5.68-6.14-8.47-9.24-1.2-1.33-2.28-2.77-3.41-4.16-.1.07-.2.14-.29.21.66.43,1.44.74,1.96,1.3,2.7,2.85,5.35,5.74,7.97,8.66,1.8,2,3.53,4.06,5.49,5.99-.78-1.2-1.56-2.4-2.34-3.61.03-.05.06-.1.1-.15.28.18.57.36.87.55-.04-.36-.08-.7-.13-1.18,1.61,1.54,5.84,10.99,6.09,13.77,1.51-1.01,3.03-1.76,4.23-2.87,2.03-1.87,3.89-3.9,6.5-5.02,1.72-.74,3.4-.7,5.44.04-.39-.5-.54-.75-.75-.95-3.67-3.4-6.42-7.43-8.42-12-.78-1.78-1.53-3.58-2.35-5.34-.27-.59-.73-1.1-1.06-1.67-.11-.19-.08-.47-.11-.71.18-.05.36-.1.54-.15,1.02,2.32,2.05,4.64,3.06,6.93,3.44-3.68,6.87-7.35,10.34-11.07-2.42.14-4.28-1.11-5.86-2.73-1.08-1.11-1.96-2.44-2.8-3.76-1.44-2.27-2.77-4.61-4.18-6.9-.28-.46-.71-.84-1.17-1.38-1,4.3-1.29,8.65-5.17,11.52.91.06,1.7.11,2.57.17-.56.76-1.35,1.35-1.36,1.96-.01.62.73,1.27,1.11,1.86-.78.27-1.43-.34-1.77-2.1-.45.63-.81,1.14-1.18,1.65l.02-.02c-.25.53-.84,1.35-.69,1.53.77.9,1.71,1.67,2.67,2.4.3.23.82.19,1.18.26.49-.89.97-1.76,1.55-2.82.33.56.53.89.64,1.08-.41.22-.79.29-.9.5-1.16,2.3-2.27,4.63-3.41,6.94-.78,1.57-1.53,3.16-2.42,4.67-.74,1.26-1.64,2.43-2.53,3.59-.3.38-.81.6-1.22.89-.12-.09-.24-.19-.35-.28.18-1.55.3-3.11.56-4.64.42-2.52.86-5.04,1.43-7.52.61-2.64,1.71-5.11,3.22-7.35.53-.79,1.42-1.34,2.23-2.08-1.8-.13-3.48-.22-5.15-.37-2.35-.22-4.69-.55-7.04-.67-.53-.03-1.19.57-1.62,1.03-.99,1.04-1.95,2.12-2.79,3.27-.56.77-.88,1.7-1.31,2.57-.1.1-.19.19-.29.29.48.63.95,1.28,1.46,1.89.73.88,2.06,1.7,2.12,2.61.14,2.14,2.1,2.7,2.93,4.19.94,1.69,2.08,3.27,3.13,4.89-.12.09-.25.19-.37.28-.35-.44-.8-.83-1.03-1.33-.95-2.04-2.51-3.55-4.15-5-1.79-1.57-3.63-3.08-5.44-4.62.31.07.7.05.93.23,1.34,1.05,2.63,2.16,3.94,3.24-1.1-1.41-2.32-2.69-3.57-3.95-.23-.23-.58-.33-.87-.5-.13.34-.26.68-.4,1.01-.37.62-.74,1.24-1.29,2.17-.24-.76-.38-1.21-.51-1.64h.95c-.12-.24-.2-.51-.38-.7-.61-.65-1.32-1.22-1.86-1.93-.48-.63-.92-.69-1.58-.38-3.7,1.75-7.62,2.66-11.68,3.14-6.83.81-13.67.4-20.49.38-2.65,0-5.43-.07-7.89-1.51-.53-.31-1.29-.23-1.94-.34,0-.12.01-.24.02-.36.61.04,1.3-.08,1.82.15,4.46,2.02,9.19,1.57,13.87,1.63,2.03.03,4.07.03,6.1-.02.37,0,.73-.29,1.1-.45,2.22,0,4.44,0,6.73,0-.13-.23-.25-.46-.39-.71.61-.25,1.23-.5,1.84-.75-.03-.1-.05-.19-.08-.29-.98.11-1.95.22-2.96.34.22.45.37.77.68,1.4-.73-.46-1.15-.73-1.57-1l.03.03c-.14-.18-.25-.44-.44-.54-1.78-.91-2.36-2.54-2.68-4.36-.04-.21-.32-.37-.69-.77-.11.89-.05,1.6-.31,2.16-.7,1.52-.5,3.01-.12,4.53-.23-.05-.64-.08-.65-.14-.09-1.15-.25-2.32-.15-3.46.1-1.13.63-2.22.72-3.34.18-2.33.21-4.68.27-7.02.07-2.84-.53-2.4-2.39-2.35-1.9.05-3.86-.11-5.69.31-1.98.45-3.88,1.35-5.72,2.24-1.33.64-2.5,1.59-3.97,2.55,1.97,1.72,3.87,3.11,5.41,4.81.91,1.01,1.36,2.48,1.8,3.82.25.75.04,1.65.04,2.24-1.78-.08-3.47-.15-5.16-.23,0-.1-.02-.21-.03-.31,1.52-.13,3.04-.27,4.69-.41.25-2.16-.8-3.94-2.68-5.48-1.61-1.32-3.02-2.88-4.61-4.43,1.2-.99,2.32-1.91,3.59-2.95-.85-.69-1.71-1.4-2.59-2.1-2.23-1.78-4.89-1.47-7.48-1.47-.19,0-.42.19-.56.36-1.59,1.95-3.15,3.92-4.74,5.87-.54.67-1.11,1.3-1.82,2.13,1.66,0,3.09-.05,4.52.01,2.46.1,4.33,1.37,5.95,3.11.92.99,1.86,1.97,2.85,2.88.92.84,1.6,1.74,1.57,3.26-.61-.99-.98-1.88-1.6-2.54-1.2-1.29-2.44-2.56-3.85-3.6-.53-.39-1.56-.16-2.35-.13-.42.02-.83.35-1.24.34-1.58-.06-3.15-.2-4.73-.3-.05.14-.11.29-.16.43.42.2.85.6,1.26.58,1.29-.06,1.87,1,2.73,1.59.07.05-.15.81-.4.95-.64.35-1.37.53-2.24.84.3.32.55.6.81.89.14.14.28.28.42.42-.43.23-.85.46-1.28.68-1.74.89-3.11,2.18-4.42,3.63-1.56,1.72-3.51,3.07-5.14,4.72-1.65,1.67-3.17,3.47-4.64,5.29-1.29,1.59-2.55,3.24-3.64,4.97-1.29,2.04-2.45,4.16-3.54,6.3-1.13,2.23-2.24,4.48-3.14,6.81-.93,2.42-1.86,4.9-2.32,7.44-.78,4.32-1.36,8.69-1.69,13.07-.32,4.28-.42,8.6-.22,12.89.18,3.95.71,7.91,1.44,11.8.48,2.53,1.52,4.97,2.47,7.39,1.06,2.73,2.12,5.49,3.5,8.07,2.19,4.09,4.44,8.18,8.66,10.68,1.02.61,1.81,1.61,2.78,2.32,1.1.8,2.29,1.47,3.43,2.19.23.15.45.32.53.69-.25-.02-.57.05-.74-.07-2.07-1.53-4-3.28-6.19-4.6-2.79-1.68-4.73-4.11-6.52-6.66-1.31-1.86-2.39-3.91-3.34-5.99-1.44-3.17-2.87-6.37-3.95-9.67-.84-2.58-1.2-5.32-1.65-8.01-.34-2.01-.63-4.05-.71-6.08-.17-4.13-.37-8.28-.21-12.41.14-3.68.84-7.34,1.1-11.03.27-3.75,1.23-7.33,2.48-10.83.83-2.34,1.94-4.6,3.09-6.8,1.78-3.38,3.56-6.77,5.61-9.99,1.32-2.08,3-3.97,4.72-5.74,2.39-2.45,4.98-4.72,7.48-7.06,1.53-1.43,3.07-2.86,4.67-4.35-.5-1.05-.41-1.24.96-1.77.46-.18.91-.4,1.71-.76-1.31-.58-2.38-.99-3.38-1.53-.4-.22-.63-.74-.94-1.13.38-.18.76-.51,1.15-.52,1.42,0,2.84.14,4.26.14.44,0,.88-.27,1.32-.42.39-.13.79-.27,1.13-.39-2.58-2.03-5.64-1.69-8.69-1.23-.4.06-.73.55-1.11.82-.38.26-.79.48-1.34.48,1.34-1.45,2.73-2.86,4-4.37,1.65-1.95,3.2-3.97,4.82-5.95.21-.26.54-.57.83-.58,3.82-.2,7.51.05,10.19,3.35.18.22.51.39.79.43.68.08,2.5-1.28,2.77-1.93.91-2.16,2.44-3.64,4.8-4.02,4.52-.73,8.95-.14,13.33,1.02.76.2,1.52.39,2.27.58l-.02.37c-.97.42-1.92.89-2.91,1.26-2.93,1.07-3.67,3.71-4.52,6.26-.22.66-.39,1.38-.37,2.06.01.44.31,1.09.66,1.26.73.34,1.57.52,2.38.59,3.04.27,4.9,1.91,5.76,4.66,1.66-.61,3.31-1.22,4.95-1.83.06.15.11.3.17.46-1.64.63-3.28,1.25-5.2,1.98,2.09.23,3.68-1.03,5.42-1.05.02.16.04.33.07.49-1.68.42-3.37.85-5.23,1.32.29.12.56.34.74.28,2.52-.79,5.06-1.52,7.51-2.48,1.1-.43,1.69-.12,2.34.63.57.66,1.19,1.28,1.92,2.06.58-1.23,1.01-2.22,1.52-3.18.37-.69.78-1.38,1.28-1.97,1.7-2,3.46-3.94,5.18-5.93.81-.93,1.63-1.85,2.35-2.86.79-1.1,1.46-2.29,2.17-3.44-1.62.18-3.33.43-5.05.56-1.74.14-3.48.17-5.22.25-3.24.16-6.49.33-9.73.47-.43.02-.87-.06-1.3-.1,0,0,.02.01.02.01,1.18-.21,2.35-.58,3.54-.61,3.68-.11,7.37,0,11.05-.17,2.06-.1,4.09-.63,6.14-.93.34-.05.71.1,1.07.16-.08.39-.07.84-.26,1.16-.81,1.32-1.64,2.64-2.54,3.9-.54.75-1.21,1.41-2.01,2.32,1.3.18,2.46.35,3.63.49,1.48.17,2.97.43,4.45.43.88,0,2.03.15,2.45-1.09.02-.07.09-.15.16-.17,2.51-.69,2.69-3.01,3.3-4.92.66-2.06,1.03-4.22,1.56-6.46.89,1.08,1.95,2.16,2.77,3.4,1.85,2.79,3.45,5.76,5.4,8.47,1.5,2.09,3.52,3.65,6.37,3.47.36-.02.73.09.92.12-3.7,4.02-7.38,8.01-11.11,12.05,1.48,3.29,3.14,6.59,5.95,9.22-.68-1.42-1.36-2.84-2.04-4.27.06-.03.12-.07.17-.1.35.31.7.63,1.06.94.54,1.36,1.08,2.71,1.62,4.07.12-.04.24-.09.35-.13-.34-1.01-.7-2.02-1.01-3.04-.16-.52-.3-.99-.99-.87ZM165.9,62.2c.13-.26.27-.53.4-.79-.07-.03-.14-.06-.21-.08-.06.3-.11.6-.16.9-.04.2-.08.4-.11.6.06,0,.12,0,.18.01-.03-.21-.06-.43-.09-.64ZM197.54,116.36c.22-.45.44-.91.66-1.36-.13-.04-.25-.08-.38-.12-.09.5-.18,1-.26,1.5-.02.39-.05.77-.07,1.16-.19.49-.38.99-.55,1.48-.27.77-.52,1.54-.78,2.31l-.36-.06c-.11-.52-.19-1.04-.33-1.54-.14-.48-.34-.94-.54-1.48-2.25,2.61-3.21,5.64-4.1,8.62,1.45.31,2.89.54,4.27.94,1.75.5,2.18,1.89,1.29,3.53-.15.28,0,.8.15,1.15.42,1.03.94,2.01,1.34,3.04.39,1,.67,2.05,1,3.07.17-.31.14-.59.22-.85,1.08-3.53,2.29-7.03,3.23-10.6.76-2.92,1.12-5.94,1.81-8.88.64-2.72,1.48-5.4,2.27-8.24-2-.21-3.82-.41-5.36-.58-.1,1.02-.18,1.86-.27,2.69-.14,0-.28-.02-.42-.03.03-.61.06-1.21.09-1.82-.06,0-.11,0-.17.01-.38,2.06-.76,4.12-1.14,6.19-.15-.02-.29-.04-.44-.06,0-.2,0-.39,0-.59.38-1.99.75-3.98,1.13-5.98-.13-.02-.25-.05-.38-.07-.08.48-.19.95-.25,1.43-.17,1.54-.33,3.09-.49,4.64-.34.84-.68,1.68-1.02,2.53-.08-.01-.15-.03-.23-.04,0-.29,0-.57,0-.87.03-.38.06-.76.09-1.14ZM165.6,153.48c-.96.31-1.12,1.03-.97,1.91-.15,0-.34-.06-.45,0-1.68,1.07-3.51,1.37-5.45,1.05l.04.03c-3.77-1.27-7.61-2.26-11.54-3,.38.47.82.78,1.26,1.1,1.9,1.39,3.96,2.51,4.95,4.96.77,1.88,2.17,3.5,3.16,5.02,7.89-3,15.79-4.99,24.14-5.13-.18-.35-.41-.79-.55-1.07-2.37.01-4.55.38-6.7-.47-2.04-.8-3.06-2.7-4.47-4.19-.14-.62-.09-1.39-.23-2.13-.26-1.36-.27-1.5.44-1.95-.36,3.25,1.64,6.52,4.85,7.84,1.04-1.6,2.1-3.22,3.15-4.84-.03-.05-.07-.09-.1-.14-1.34.89-2.67,1.77-4.29,2.85.13-1.35.22-2.33.31-3.31.09-.98.25-1.96.26-2.94,0-.92-.08-1.85-.24-2.75-.16-.91-.47-1.79-.74-2.81-.41.5-.74.8-.93,1.17-.2.39-.47.89-.37,1.26.37,1.35.03,2.55-1.31,3.68.4-1.14.76-2.14,1.11-3.14-.05,0-.11-.02-.16-.02-1.49,1.85-2.98,3.7-4.54,5.63.44-.18.76-.31,1.13-.45-1.25,2.22-2.43,4.31-3.62,6.41-.14-.07-.29-.15-.43-.22.43-.82.87-1.65,1.3-2.48.33-.63.65-1.27.98-1.9.14-.19.29-.38.43-.57-.08-.04-.17-.07-.25-.11-.05.24-.1.48-.15.71ZM130.68,44.44c.02-.21.04-.42.05-.62-.06,0-.12,0-.18,0,.05.2.09.4.14.6.18.67.41,1.34.52,2.02.17,1,.63,1.18,1.56.85,1.29-.46,2.63-.78,4.32-1.27-2.28-.97-4.33-1.37-6.42-1.58ZM175.57,140.71c-.2.06-.41.12-.72.22.32-1.01.6-1.9.88-2.79-.84,1.14-1.34,2.52-2.27,3.47-.83.85-.76,1.5-.4,2.37.85,2.04,1.02,4.15.73,6.33-.17,1.28-.25,2.56-.39,4,4.25-2.95,8.13-5.94,12.85-7.66-3.41-3.36-6.68-6.58-9.94-9.79-.17,1.05-.29,1.9-.45,2.75-.07.38-.21.75-.32,1.13l.03-.03ZM180.88,124.41l-.03-.03c.18.16.35.33.65.6.07-.81.12-1.41.18-2.02.1,0,.21.01.31.02.05.61.11,1.22.16,1.83.02.19,0,.52.06.54.72.21,1.28,1.12,2.2.51.1-.07.43.02.5.14.29.43.55.89.75,1.36.74,1.78,1.44,3.58,2.21,5.5,1.04-2.74,1.96-5.31,2.99-7.83.84-2.05,1.66-4.13,2.78-6.03.58-.99,1.33-1.71.38-2.76-.55-.61-1.12-1.34-1.84-1.64-1.21-.5-2.61-.53-3.8-1.06-1.08-.49-2.5-.22-3.25-1.42.25-.1.71-.2.71-.31.06-1.06.03-2.13.03-3.2-.12,0-.23,0-.35-.01-.07.7-.15,1.4-.22,2.1-.12-.01-.25-.02-.37-.03,0-.65.09-1.32-.03-1.96-.08-.41-.46-.76-.7-1.14l.03.03c-.33-.25-.66-.5-.99-.75l.03.03c-.62-.24-1.24-.47-1.86-.71.23-.25.56-.37.8-.28,1.55.63,3.05,1.33,4.39,2.39,2.73,2.17,5.82,3.94,7.57,7.18.73,1.34,1.64,2.58,2.03,4.15.81-4.06,1.47-8.12,2.16-12.18.7-4.09,1.43-8.18,2.13-12.16-1.32.33-2.75.68-4.02.99-.9,3.4-1.71,6.81-2.73,10.17-.28.94-.63,2.08-1.77,2.68-.64-6.07-4.91-13.87-8-15.85.15.91.32,1.95.49,2.99l-.34.04-1.04-3.98c-.09.02-.18.04-.26.06.22,1.3.45,2.6.67,3.9l-.42.09c-.18-.87-.39-1.74-.53-2.61-.36-2.24-2.21-4.12-4.26-4.26.31,1.04.61,2.07.92,3.1.46,1.55.93,3.1,1.39,4.64l-.03-.04c.18,1.68.4,3.35.53,5.03.08,1.07-.04,2.15.04,3.22.08,1.01.46,2.02.42,3.01-.05,1.18.41,1.78,1.42,2.25.79.37,1.47.95,2.21,1.44-1.34-.59-2.67-1.17-4.09-1.79,0,.65.05,1.25,0,1.84-.29,2.64-.64,5.28-.88,7.93-.02.27.45.76.78.86,1.73.54,3.27,2.52,3.13,4.35-.56-.99-.94-1.95-1.57-2.71-.62-.76-1.44-1.4-2.55-1.02-.25,1.16-.4,2.22.9,2.79ZM174.46,79.18c-.12-.02-.23-.03-.35-.05.21.43.36.91.65,1.29.38.51.97.88,1.28,1.42.51.87,1,1.78,1.28,2.74.4,1.35,1.35,2.63.68,4.05,8.41,3.65,12.13,10.79,14.56,19,.25-.5.54-.97.72-1.48,1.71-4.83,2.6-9.84,3.13-14.91.13-1.25.12-2.51.26-3.76.19-1.72.49-3.42.68-5.14.1-.93.21-1.87-1.04-2.27-1.44-.47-2.83-1.11-4.27-1.58-.37-.12-.85.09-1.31.16-.27-.2-.61-.64-1.01-.7-2.02-.31-4.04-.66-6.08-.72-1.6-.05-3.2.3-4.81.48-1.41.16-2.8.38-3.82,1.54-.07.08-.39-.06-.59-.11.21-.24.42-.48.63-.72-.12-.07-.25-.14-.37-.21-.07.32-.15.64-.22.96ZM190.7,127.34c-1.06,2.5-2.01,4.72-2.95,6.94-.75-1.9-1.62-3.55-2.03-5.3-.54-2.32-2.39-2.48-4.02-3.13.22.65.57,1.2.57,1.75,0,.6-.34,1.2-.53,1.81-.11-.03-.22-.06-.34-.1.14-.76.28-1.51.42-2.27-.05,0-.1-.02-.15-.03-.56,1.67-1.11,3.34-1.67,5.01-.12-.04-.24-.07-.36-.11.57-2.15,1.14-4.31,1.69-6.36-.47-.35-.77-.58-1.12-.84-.17,3.72-1.5,6.97-2.82,10.23l-.29-.07v-2.12c-.07,0-.14-.02-.22-.03-.42,1.07-.84,2.15-1.15,2.93,3.63,3.52,7.16,6.94,10.78,10.45.81-1.23,1.48-2.23,2.11-3.25.71-1.16,1.37-2.35,2.08-3.51,1.02-1.65,1.96-3.37,3.15-4.88.71-.89.84-2.02,1.76-2.87,1.52-1.38,1.01-2.75-1.07-3.38-1.26-.38-2.57-.6-3.85-.89ZM138.06,32.97c-2.26-.45-4.16-.98-6.09-1.18-2.51-.26-5.05-.4-7.57-.33-1.14.03-2.3.62-3.36,1.14-1.19.59-1.81,1.72-2.38,3.15,1.06-.31,1.85-.69,2.66-.75,2.25-.16,4.51-.21,6.77-.26,1.54-.04,1.96.41,1.98,1.94.01.99-.05,2,.08,2.98.05.35.33.46-.07.9-.44.49-.68,1.36.37,1.76.69-4.46,2.28-8.21,7.61-9.35ZM130.83,152.16c0-.17-.01-.34-.02-.52.94-.62,1.87-.75,3.05-.5,1.55.32,3.18.26,4.78.36,0-.15.01-.31.02-.46-3.26-.13-6.51-.26-9.77-.39,1.63,1.77,1.66,2.99.23,6.13h12.79c.02.07.04.14.06.2-.77.2-1.53.4-2.34.61q.55.45,3.03-.17s.09-.07.13-.11c-.16-.08-.31-.15-.56-.28.38-.2.65-.33,1-.51-.69-.26-1.58-.32-1.83-.75-.58-.99-1.37-1.99-1.08-3.33.07-.32-.23-.72-.37-1.08-.42.41-.63.78-.84.79-2.76.03-5.52,0-8.29,0ZM126.69,151.85q0,.46-3.52.92c.42,1.8,1.13,3.38,2.3,4.89,1.22,1.58,2.46,2.49,4.48,2.2.55-.08,1.11-.02,1.67-.01,3.13.08,6.27.15,9.4.25.57.02,1.14.17,1.71.26-1.05-.78-2.39-1.16-3.15-2.04-.86-.99-1.75-.84-2.73-.85-1.91-.02-3.83,0-5.74,0h-3.14c.58-1.11,1.3-2.03,1.55-3.07.28-1.14.23-2.41-1-3.08-.63.18-1.21.36-1.82.54ZM168.59,60.2c1.7-3.43,3.4-6.85,5.16-10.41-1.96.13-4.13-1.18-4.43-2.77-1.32,4.47-3.88,8.5-.73,13.19ZM151.73,158.13c.06-.13.13-.27.19-.4-2.39-1.56-4.3-3.93-7.45-4.21.37.11.73.23,1.1.34-1.27.27-2.55.84-3.6-.36.61.13,1.22.26,1.83.39.05-.09.09-.19.14-.28-.98-.64-1.96-1.28-3.22-2.11.15,1.09.16,1.85.37,2.55.4,1.33,1.56,1.53,2.75,1.82,2.66.67,5.27,1.5,7.9,2.26ZM138.7,48.15c-.47-.53-.93-1.05-1.43-1.61-1.75.51-3.56,1.03-5.35,1.55.84,1.42,4.49,1.5,6.78.06ZM189.15,110.75c-.13.05-.27.1-.4.14.06.56.11,1.12.18,1.85-1.41-.57.2-2.42-1.35-2.83,0,.77-.05,1.45.02,2.13.03.29.25.72.49.81,1.34.51,2.7.93,4.06,1.38.07-.11.13-.22.2-.32-.58-.63-1.16-1.26-1.74-1.89-.08.08-.16.15-.23.23-.16-.1-.38-.16-.48-.3-.27-.38-.5-.8-.75-1.2ZM137.03,51.54c.81-.13,1.62-.26,2.54-.4-.18-.81-.33-1.53-.5-2.31-.52.16-.92.29-1.32.41.56,1.01.26,1.86-.72,2.29ZM177.2,131.63c.14.04.27.08.41.12.74-2.51,1.48-5.02,2.22-7.53-.12-.03-.24-.07-.36-.1-.76,2.51-1.51,5.01-2.27,7.52ZM186.42,112.38c.96-.38.93-2.75,0-3.67v3.67ZM153.96,49.06c-.17.35-.32.58-.29.61,1.16,1.08,2.35,2.15,3.52,3.21.07-.06.14-.13.21-.19-1.12-1.18-2.24-2.37-3.44-3.64ZM128,151.07c-.01-.14-.03-.29-.04-.43-1.61.28-3.22.56-4.83.85.03.14.05.28.06.29,1.65-.24,3.23-.48,4.81-.71ZM175.86,156.18q-1.2,1.38-.61,1.68c.2-.56.41-1.12.61-1.68ZM166.59,58.31q-.18,1.65.6,1.75c-.19-.55-.37-1.08-.6-1.75ZM130.23,42.73c-.1-.01-.2-.02-.3-.03v1.62h.06c.08-.52.16-1.05.24-1.59ZM144.87,152.96c.03-.11.07-.22.1-.33-.42-.08-.84-.16-1.26-.24-.02.08-.04.17-.06.25.41.11.82.21,1.22.32ZM132.89,51.94s0-.07,0-.1h-1.82s0,.07,0,.1h1.82ZM178.66,151.27c-.34.19-.59.34-.95.54.37.15.62.26.95.39v-.93ZM171.52,74.24c.1-.06.2-.12.3-.18-.19-.37-.38-.75-.58-1.12-.07.03-.13.06-.2.1.16.4.32.8.47,1.2ZM175.63,77.97c.61-.32.92-.48,1.22-.64-.28-.13-.53-.14-.72-.05-.13.06-.2.27-.5.7ZM177.45,75.82c-.14.01-.29.02-.43.03.07.25.13.51.2.76.08-.02.15-.03.23-.05v-.74ZM167.94,60.8c-.2-.16-.31-.3-.46-.36-.04-.02-.23.16-.24.26-.02.12.09.25.14.37.16-.08.31-.15.56-.27ZM132.5,151.52s-.02.08-.03.11h.94s0-.08,0-.11h-.9ZM124.54,152.01s0,.07,0,.1h.97s0-.07,0-.1h-.97ZM108.71,159.15c-.01.06-.02.13-.03.19.28.04.56.08.85.12l.03-.27c-.28-.01-.56-.03-.84-.04ZM173.56,77.99c.06.08.11.16.17.23.18-.12.36-.24.53-.37.02-.01-.03-.1-.06-.22-.22.12-.44.24-.65.36ZM133.74,49.66c0,.07,0,.14,0,.2h.54v-.2h-.54ZM176.96,85.01s-.07,0-.1,0v.62s.07,0,.1,0v-.62ZM175.08,76.92c-.01.08-.02.15-.04.23.13-.03.27-.06.4-.09l-.37-.14Z"/>
  <path d="M76.67,90.93c.52.3.73.52.44,1.29-.45,1.22-.58,2.58-.72,3.89-.11.98-.02,1.99-.02,3.09-.97-.35-1.18.14-1.21.92-.06,1.74-.14,3.48-.24,5.22-.06,1.14-.22,2.29-.23,3.43-.03,5.42.77,10.74,1.54,16.09.64,4.44,2.23,8.52,3.48,12.74.33,1.12.82,2.19,1.24,3.31.69-.27,1.24-.37,1.06.28.45.4.92.61,1.04.94.75,2.09,1.85,3.94,3.59,5.36.11.09.18.24.31.41-.37.22-.69.42-1.07.65,3.71,3.97,7.24,8.05,12.27,10.4-5.47-1.88-8.93-6.24-12.81-10.2-1.67.25-2.07.07-2.99-1.58-.72-1.29-1.41-2.59-2.05-3.91-.1-.22.18-.6.24-.92.07-.37.22-.8.1-1.13-1.09-3.12-2.25-6.22-3.33-9.35-.47-1.36-.91-2.75-1.19-4.16-.4-1.99-.73-4.01-.95-6.02-.38-3.44-.82-6.89-.94-10.35-.12-3.33.09-6.68.22-10.02.03-.81.29-1.61.46-2.48-.57-.06-1.1-.12-1.83-.19.64-2.53,1.26-4.98,1.89-7.51.9.34,1.16-.19,1.39-.93.77-2.57,1.5-5.16,2.42-7.68.73-2,1.82-3.87,2.58-5.86,1.34-3.5,3.76-6.3,5.82-9.33,1.17-1.72,2.73-3.17,4.11-4.74.56-.64,1.21-1.15,1.19-2.2,0-.44.65-.98,1.11-1.33,1.11-.84,1.67-2.44,3.5-2.37.56.02,1.15-.75,1.73-1.15,2.11-1.47,4.22-2.95,6.35-4.39.26-.18.65-.17,1.02-.06-2.85,1.91-5.7,3.82-8.61,5.77.37.53.65.93.75,1.08-1.76,1.46-3.4,2.81-5.13,4.25-.02-.02-.24-.22-.4-.38-8.23,8.02-13.43,17.84-16.14,29.13ZM83.65,146.62c-.16,1.76.09,2.02,1.31,1.45-.43-.47-.85-.94-1.31-1.45ZM73.74,98.33c.69-.16,1.06-.25,1.53-.36-.33-.43-.53-.68-.71-.92-.2.31-.41.64-.81,1.28ZM84.63,146.29c.33.63.29,1.63,1.45,1.62-.55-.62-1-1.12-1.45-1.62ZM96.23,58.24c.04.13.08.26.13.39.44-.22.88-.44,1.32-.65-.06-.13-.13-.26-.19-.39-.42.22-.84.44-1.25.65ZM75.77,96.86s-.04.03-.07.05c-.06.51-.11,1.02-.17,1.53.08,0,.16.01.23.02v-1.59ZM75.39,93.22c.06,0,.12.02.18.03.1-.44.19-.89.29-1.33-.1-.02-.19-.03-.29-.05-.06.45-.12.91-.19,1.36ZM75.6,94.24s-.08-.03-.11-.04v.94s.08,0,.11,0v-.9ZM76.36,91.78c.07.07.14.13.2.2.03-.13.06-.27.09-.4-.1.07-.2.14-.29.21ZM93.04,60.81c.09-.09.17-.17.24-.26,0,0-.11-.12-.12-.12-.08.05-.17.12-.22.2-.02.02.06.11.1.18Z"/>
  <path d="M130.14,57.09c-1.42,1.33-2.78,2.42-3.92,3.72-1.13,1.29-2.11,2.73-3,4.2-.97,1.59-1.81,3.27-2.61,4.95-1.97,4.15-4.07,8.32-4.79,12.87-.46,2.9-.6,6,.49,9.08-.22-.22-.58-.41-.63-.66-.22-1.15-.43-2.32-.48-3.49-.12-2.65-.12-5.3.71-7.86.4-1.22.78-2.46,1.29-3.63,1.29-3,2.51-6.04,4.02-8.93,1.43-2.73,2.97-5.45,5.15-7.69.82-.84,1.77-1.57,2.76-2.44-3.58-1.62-7.16-2.05-10.79-1.34-3.52.68-6.97,1.67-10.57,2.55.03.07-.07-.16-.21-.49-1,.72-2,1.34-2.88,2.1-3.75,3.19-6.84,6.92-9.16,11.3-1.22,2.31-2.84,4.41-4.04,6.73-1.2,2.31-2.15,4.76-3.14,7.18-.85,2.09-1.61,4.22-2.4,6.33-.13.35-.25.71-.43,1.22,1.5-.72,2.86-1.41,4.25-2.03,2.79-1.25,5.65-1.89,8.77-1.43,3.69.54,7.11,1.77,10.44,3.35.38.18.79.29,1.19.43-.03.12-.05.25-.08.37-.4-.08-.85-.05-1.18-.25-3.34-1.93-6.98-2.97-10.75-3.51-2.27-.32-4.55-.04-6.68.98-1.78.85-3.59,1.64-5.36,2.49-.43.21-.79.56-1.18.84-.1-.07-.2-.15-.3-.22.35-.97.66-1.95,1.04-2.91,1.68-4.24,3.23-8.54,5.11-12.69,1.07-2.36,2.7-4.47,4.06-6.71.34-.57.54-1.24.93-1.76,2.04-2.68,4.02-5.43,6.24-7.96,1.31-1.49,3.02-2.63,4.58-3.91.23-.19.6-.35.87-.31,1.99.3,3.7-.68,5.54-1.09,3.06-.68,6.08-1.59,9.3-1.35,2.6.19,5.08.74,7.82,2Z"/>
  <path d="M146.97,53.84c-2.2.23-4.43.33-6.6.72-1.98.36-3.89,1.03-5.84,1.57-.04-.11-.08-.22-.12-.33.52-.22,1.02-.51,1.56-.65,2.19-.57,4.37-1.18,6.59-1.59,1.42-.27,2.92-.39,4.35-.28,1.84.15,2.82,1.76,3.99,2.94,1.03,1.04,1.96,2.17,2.9,3.29,1.67,2,3.37,3.97,4.96,6.04,2.44,3.17,3.96,6.79,4.95,10.64.48,1.85.97,3.7,1.3,5.58.18,1.04.03,2.14.03,3.44-1.06-.27-1.97-.63-2.9-.7-1.5-.12-3.04-.26-4.5,0-2.49.44-5.01.94-7.36,1.85-2.23.86-4.32,2.16-6.34,3.48-1.18.77-2.08,1.96-3.12,2.95-.18.18-.51.46-.62.4-.24-.12-.45-.41-.53-.67-.09-.29-.04-.63-.04-.95,0-2.72-.02-5.43,0-8.15.04-4.87-.7-9.64-1.79-14.36-.52-2.24-.94-4.51-1.63-6.69-.39-1.25-1.22-2.35-1.86-3.52-.37-.69-.75-1.37-1.13-2.05.12-.07.24-.15.36-.22.5.81,1,1.61,1.5,2.42,1.78,2.87,2.64,6.04,3.13,9.36.33,2.2.88,4.37,1.22,6.57.31,1.98.59,3.98.64,5.98.1,3.86.03,7.72.03,11.67,5.46-6.7,18-10.11,24.59-7.92-.23-1.71-.37-3.3-.68-4.85-.34-1.68-.78-3.34-1.28-4.98-1.01-3.3-2.47-6.4-4.59-9.16-1.88-2.45-3.59-5.02-6.01-7.05-1.25-1.05-2.16-2.51-3.33-3.68-.49-.5-1.25-.73-1.89-1.09l.02.02Z"/>
  <path d="M136.35,142.06c-.65.13-1.26,1.03-2.16-.15.49-.5,1.12-.97,1.52-1.59.58-.91,1.04-1.9,1.48-2.9,1.45-3.33,2.02-6.83,1.96-10.44-.05-2.9-.03-5.81-.26-8.7-.32-3.99-1.25-7.87-2.83-11.57-.15-.36-.31-.72-.42-1.09-.37-1.28-.13-1.86,1.09-2.43,1.94-.92,3.84-1.93,5.86-2.65,1.13-.4,2.45-.28,3.68-.37,2.32-.17,4.65-.46,6.97-.45,3.39,0,6.69.7,9.85,1.98,1.58.64,3.24,1.13,4.74,1.93,1.24.67,2.3,1.69,3.44,2.55-.08.11-.15.22-.23.33-.53-.36-1.13-.66-1.58-1.11-1.49-1.45-3.27-2.31-5.26-2.85-1.95-.53-3.85-1.28-5.82-1.72-2.41-.54-4.85-.91-7.37-.46-2.01.36-4.08.36-6.13.53-1.73.14-3.45.23-4.97,1.27-.77.53-1.67.88-2.51,1.3-1.53.77-1.68,1.05-1.04,2.58,1.47,3.52,2.62,7.12,2.81,10.96.2,4.08.6,8.18.4,12.24-.19,3.96-.2,5.29-3.69,12.01,1.54-.48,3.28-2.52,3.76-4.33.82-3.09,1.71-6.16,2.52-9.25.2-.75.34-1.54.33-2.32-.03-2.94.05-5.9-.28-8.81-.27-2.34-1.1-4.62-1.65-6.93-.13-.56-.15-1.15-.21-1.72.13-.02.27-.04.4-.05.67,2.77,1.63,5.51,1.94,8.32.38,3.42.43,6.92.24,10.36-.12,2.1-.94,4.17-1.49,6.24-.41,1.54-.89,3.07-1.33,4.6-.47,1.64-1.59,2.78-2.88,3.8-.33.26-.6.61-.9.92l.03-.03Z"/>
  <path d="M146.95,53.82c.12.24.38.51.34.73-.24,1.33.7,2.01,1.53,2.61,2.71,1.96,4.95,4.24,6.27,7.41.77,1.86,2.13,3.47,2.99,5.31,1.32,2.82,2.65,5.67,2.65,8.89,0,.25-.07.5-.27.76-.23-1.1-.48-2.2-.67-3.32-.54-3.13-2.07-5.86-3.51-8.62-.83-1.59-1.87-3.06-2.66-4.67-1.13-2.3-3.16-3.71-4.96-5.36-.65-.6-1.21-1.3-1.85-1.91-.19-.18-.52-.28-.78-.29-2.84-.06-5.53.44-7.83,2.11,2.8,8.55,4.1,17.36,4.63,26.56.62-.43,1.1-.77,1.58-1.11.1-.1.19-.19.29-.29.5-.1,1-.21,1.5-.31.04.08.07.16.11.23-.71.44-1.37,1.05-2.15,1.28-1.48.45-1.33,1.66-1.61,2.75-.3,1.14-.8,2.22-1.25,3.31-.04.1-.39.07-.59.09,0-.18-.08-.42,0-.54,1.72-2.31,1.75-4.9,1.36-7.61-.21-1.48-.1-3.01-.29-4.5-.38-2.87-.8-5.74-1.32-8.59-.51-2.76-1.16-5.5-1.79-8.24-.13-.56-.39-1.1-.63-1.63-.27-.59-.51-1.3-1.4-.64-.03-1.09-.07-1.12-2.11-1.3.58-.56,1.14-.53,1.99-.12.38.18,1.03.29,1.34.09,2.71-1.71,5.67-2.21,8.78-2.05.13-.38.24-.72.34-1.05,0,0-.02-.02-.02-.02Z"/>
  <path d="M94.32,153.21c-.26-.32-.52-.63-.77-.95-.59-.75-1.24-1.47-1.74-2.28-3.14-5.03-4.7-10.7-6.24-16.31-1.14-4.15-2.6-8.28-2.74-12.68-.08-2.49-.36-4.97-.45-7.45-.07-2.16.29-2.44,2.26-3.39,1.4-.67,2.61-1.72,4-2.44,2.99-1.56,5.85-3.4,9.28-3.95,2.62-.42,5.22-1.05,7.85-1.34,2.01-.22,4.06-.11,6.09-.03.43.02.84.54,1.08.96-.68-.18-1.35-.48-2.03-.51-4.2-.16-8.29.49-12.41,1.32-3.8.77-7.03,2.58-10.28,4.48-1.7.99-3.39,2.01-5.04,2.99,1.11,1.28,2.23,2.57,3.54,4.08-1.89-.51-2.33-2.35-3.86-3.27,0,1.09-.05,2.06.01,3.03.12,1.81.34,3.61.46,5.42.19,3.07.99,6,1.87,8.93,1.29,4.25,2.24,8.61,3.74,12.78,1.07,2.97,2.08,6.08,4.39,8.46.53.55.88,1.27,1.32,1.91-.11.08-.21.16-.32.24Z"/>
  <path d="M156.78,145.59c2.47-.95,3.45-3.05,4.66-4.86,1.14-1.7,2.18-3.54,2.87-5.46,1.17-3.25,2.17-6.59,2.97-9.95.48-2.01.61-4.14.6-6.22-.01-2.96.34-5.93-.36-8.9-.25-1.07-.96-1.2-1.6-1.59-2.62-1.61-5.23-3.25-8.29-4-3.16-.77-6.37-.91-9.52-.26-1.62.33-3.08,1.45-4.63,2.18-.57.27-1.19.46-1.78.69-.05-.12-.11-.25-.16-.37.59-.28,1.21-.5,1.75-.86,4.11-2.72,8.56-2.89,13.25-2.07,3.29.58,6.12,2.05,8.85,3.85.65.43,1.39.7,2.12,1.06.69-.63,1.37-1.25,2.04-1.87.07.06.15.13.22.19-.2.34-.31.85-.61.99-1.34.64-1.19,1.61-1.05,2.86.26,2.28.34,4.6.26,6.89-.1,2.83-.27,5.68-.75,8.47-.36,2.09-1.28,4.08-1.93,6.13-.5,1.6-.7,3.36-1.51,4.77-1.48,2.61-3.29,5.03-5.02,7.5-.49.7-1.19,1.18-2.39.85Z"/>
  <path d="M91.6,83.76c-.14.26-.29.52-.56,1.01h3.2c-1.21.75-3.32-.63-3.6,1.87h0c-1.16,1.33-1.83,3.13-3.38,4.1l-.26-.24c.61-.77,1.12-1.64,1.84-2.28,1.37-1.22,1.38-3.01,2.12-4.48,1.6-3.15,3.28-6.27,4.89-9.41,2.17-4.24,5.31-7.76,8.44-11.28.56-.63,1.41-1.01,2.33-1.65v-1.94c.11,0,.21-.01.32-.02.06.69.11,1.38.18,2.18,5.02-2.54,10.1-3.27,15.36-1.38,0,.11,0,.21,0,.32-.92-.15-1.85-.21-2.74-.45-3.98-1.08-7.67-.03-11.31,1.47-.65.27-1.39.31-2.02.61-.62.3-1.25.71-1.71,1.22-3.67,4.03-7.02,8.29-9.48,13.2-1.08,2.15-2.29,4.23-3.42,6.36-.13.24-.14.53-.21.8h0Z"/>
  <path d="M171.52,107.1c.16.28.46.56.46.83-.05,3.78-.04,7.56-.25,11.33-.12,2.22-.45,4.46-.97,6.62-.61,2.48-1.48,4.91-2.35,7.32-1.05,2.92-2.18,5.82-3.35,8.7-1.24,3.04-2.71,5.93-5.68,7.7-.18.11-.41.15-.74.05.73-.66,1.39-1.44,2.22-1.96,1.5-.95,2.09-2.5,2.72-3.97,1.17-2.7,2.16-5.49,3.23-8.23.76-1.95,1.67-3.85,2.29-5.85,1.03-3.31,2.1-6.63,2.18-10.16.08-3.58.17-7.16.23-10.74,0-.45-.14-.91-.22-1.37.08-.09.16-.18.24-.27Z"/>
  <path d="M114.19,105.99c-.14.97-.4,1.95-.41,2.92-.03,3.8-.17,7.59.67,11.35.68,3.04.82,6.25,1.82,9.17,1.22,3.55,3,6.92,4.72,10.27.85,1.66,2.11,3.12,3.2,4.7-1.23.19-2.54.39-3.84.59-.03-.11-.05-.22-.08-.33.95-.25,1.89-.5,2.81-.74-.73-1.12-1.58-2.28-2.29-3.52-1.06-1.85-2.14-3.71-3.01-5.66-.87-1.95-1.64-3.96-2.17-6.02-.69-2.68-1.02-5.44-1.63-8.14-.9-3.95-.7-7.96-.68-11.95,0-.91.31-1.82.48-2.73.14.03.28.06.42.09Z"/>
  <path d="M94.09,144.74c.31.05.72.26.92.13.73-.45,1.38-1.02,2.07-1.54.09.11.18.21.27.32-.85.74-1.71,1.49-2.63,2.29.07.1.21.31.35.52,0,0-.02-.03-.02-.03l.24,1.23.03-.03c-.16-.07-.42-.1-.47-.22-1.63-3.83-3.44-7.6-4.78-11.52-1.37-4-2.49-8.11-3.3-12.26-.46-2.34-.1-4.85-.08-7.29,0-.17.2-.34.47-.76,0,1.27.05,2.23,0,3.18-.19,2.95.22,5.81,1.02,8.64.62,2.21.99,4.5,1.71,6.68.93,2.8,2.08,5.53,3.16,8.28.32.82.72,1.61,1.08,2.42l-.03-.03Z"/>
  <path d="M160.17,97.99c-.54,0-.99.06-1.41,0-3.55-.55-2.99-3.7-1.48-5.98,1.36-2.06,5.53-1.78,6.97-.41.69.65.82,2.74.17,3.79-.99,1.6-2.13,3.04-4.25,2.61ZM161.59,96.22c-.07-.11-.14-.22-.21-.33.45-.48,1.09-.89,1.31-1.46.26-.7.17-1.53.22-2.3.11,0,.22-.01.33-.02.07.69.13,1.38.2,2.14.13-.31.24-.56.39-.89.19.28.29.44.44.66.09-2.44-.85-3.06-4.27-2.91-.03.3-.07.6-.12,1.06-.34-.39-.56-.63-.98-1.11-.69.88-1.54,1.58-1.84,2.46-.31.91-.36,2.12-.02,3,.48,1.23,4.67,1.47,5.49.29.31-.43.71-.8,1.05-1.16-.73.21-1.36.39-2,.58Z"/>
  <path d="M115.22,139.82c-4.76-2.87-8.74-29.67-4.87-32.22-1.53,5.58-1.03,11.16-.37,16.69.66,5.49,2.42,10.69,5.24,15.53Z"/>
  <path d="M121.87,61.45c-7.13,7.86-10.66,17-9.93,27.72-3.19-4.69,3.69-24.05,9.93-27.72Z"/>
  <path d="M143.13,86.64c.04-2.66,2.11-2.74,3.69-3.2,4.07-1.19,8.17-2.24,12.28-3.27.51-.13,1.26.09,1.69.42.67.5,1.15,1.24,1.71,1.88l-.4.3c-.33-.41-.66-.82-.99-1.23-.61-.77-1.27-1.11-2.34-.78-2.83.87-5.74,1.47-8.52,2.47-2,.71-3.83,1.89-5.75,2.85-.43.21-.89.37-1.38.57ZM143.68,85.43c.09.12.17.24.26.36.68-.43,1.36-.86,2.04-1.28-.06-.11-.13-.22-.19-.32-.7.42-1.4.83-2.1,1.25Z"/>
  <path d="M143.59,34.88c.04.23.15.65.1.67-1.59.61-.97,1.94-.82,2.93.31,1.99.72,4,1.4,5.89.56,1.54,1.57,2.91,2.38,4.36l-.03-.03c-.34-.1-.88-.1-.98-.31-.85-1.81-1.72-3.63-2.36-5.52-.25-.74-.49-.94-1.19-.93-3.52.03-7.04-.17-10.5.71-.09.02-.21-.07-.69-.23,2.14-.77,4.04-.89,5.95-.94,1.99-.05,3.99-.01,5.93-.01-.18-1.38-.35-2.72-.53-4.05-.16-1.17.18-2.06,1.35-2.5,0,0-.02-.02-.02-.02Z"/>
  <path d="M87.45,115.19c1.42-1.71,3.27-2.93,5.16-3.92,7.6-3.96,15.54-5.22,16.95-3.98-8.27.1-15.52,3.03-22.12,7.9Z"/>
  <path d="M90.64,86.65c.42-.18.85-.35,1.29-.54-.25-.04-.53-.09-.81-.14-.02-.08-.03-.17-.05-.25.79-.14,1.58-.4,2.36-.38,1.03.03,2.06.31,3.09.42,1.14.12,2.28.2,3.42.25,2.28.1,4.19,1.11,6.02,2.36,1,.68,2.06,1.26,3.08,1.92.2.13.31.39.27.76-1.02-.61-2.1-1.14-3.03-1.86-2.58-1.97-5.46-3.03-8.71-2.9-1.84.07-3.68.32-5.52.45-.47.03-.94-.07-1.41-.11,0,0,0,.01,0,.01Z"/>
  <path d="M117.28,144.83c-.9.14-1.8.39-2.7.39-2.53,0-5.05.03-7.36,1.23-1.14.59-2.26,1.22-3.32,1.94-1.67,1.13-3.29,2.34-4.9,3.55-.64.48-1.22,1.07-2.08,1.83.2-.53.22-.92.42-1.08,1.42-1.17,2.85-2.34,4.34-3.41,1.39-1.01,2.82-1.97,4.31-2.82,1.04-.59,2.17-1.19,3.33-1.35,2.61-.36,5.26-.45,7.9-.64.02.12.04.25.07.37Z"/>
  <path d="M142.51,139.23c3.77,1.44,7.54,2.86,11.3,4.31,2.24.86,3.5,2.45,3.58,4.91.02.58.16,1.16.24,1.74-.12.02-.23.05-.35.07-.13-.5-.36-.99-.37-1.49-.06-2.17-.96-3.83-2.99-4.65-3.49-1.42-7-2.78-10.55-4.06-1.13-.41-2.37-.48-3.69-.73.98-.78,1.94-.01,2.85-.08l-.03-.03Z"/>
  <path d="M136.32,142.1c3.45-.03,6.84.26,10.04,1.69,3.28,1.47,6.61,2.85,9.39,5.2.19.16.3.43.25.79-.94-.7-1.81-1.52-2.83-2.06-2.02-1.08-4.09-2.05-6.19-2.97-1.45-.64-2.94-1.31-4.47-1.61-1.84-.37-3.76-.36-5.64-.54-.26-.03-.99.28-.52-.53,0,0-.03.03-.03.03Z"/>
  <path d="M98.43,144.72c1.36-.67,2.71-1.35,4.07-2.02,3.62-1.79,7.5-1.93,11.42-1.77.16,0,.31.18.76.47-1.47,0-2.6,0-3.73,0-4.85,0-9.11,1.67-12.92,4.59-.48.37-.85.89-1.33,1.27-.25.2-.62.24-.93.35l.03.03c.38-.56.77-1.12,1.15-1.68.5-.42.99-.83,1.49-1.25Z"/>
  <path d="M119.65,153.02c-2.54.66-5.09,1.32-7.63,1.97l-.1-.43c2.55-.6,4.97-1.73,7.64-1.86.03.11.07.21.1.32Z"/>
  <path d="M96.03,162.16c-1.77.32-2.98,1.52-4.2,2.72.49-1.76,1.99-2.35,3.51-3.23-.34-.27-.63-.51-.93-.75.08-.1.15-.2.23-.3.51.39,1.02.78,1.53,1.16-.05.13-.09.25-.14.38Z"/>
  <path d="M159.71,108.98c1.03,2.12,1.93,3.97,2.87,5.91-.99-.35-3-4.35-2.87-5.91Z"/>
  <path d="M128.01,51.61h-6.71c0-.08,0-.17,0-.25h6.72v.25Z"/>
  <path d="M187.6,61.28c.58,1.9,1.16,3.79,1.74,5.69-.16.05-.32.1-.47.15-.58-1.88-1.17-3.76-1.75-5.64.16-.07.32-.13.48-.2Z"/>
  <path d="M146.66,48.73c.13-.49.26-.99.39-1.47-.31-.03-.73-.07-1.5-.15.52-.36.77-.69,1.03-.69.88,0,1.76.12,2.66.19-.92.73-1.77,1.41-2.61,2.09,0,0,.03.03.03.03Z"/>
  <path d="M93.31,165.05c.85-.1,1.66-.23,2.48-.28.84-.06,1.21-1.41,2.4-.85-4.37,2.18-4.5,2.2-4.88,1.13Z"/>
  <path d="M162.13,109.73c.59,1.65,1.17,3.29,1.76,4.94-.15.06-.3.11-.45.17l-1.81-4.96c.17-.05.34-.1.51-.15Z"/>
  <path d="M95.76,147.62c.03,1.67.06,3.34.08,5,0,0-.22.02-.52.04,0-1.7,0-3.37,0-5.05,0,0-.03.03-.03.03.17,0,.34,0,.51,0,0,0-.03-.03-.03-.03Z"/>
  <path d="M98.43,144.72c-.5.42-.99.83-1.49,1.25-.63.15-1.27.3-1.9.45,0,0,.02.03.02.03.2-.23.35-.53.6-.68.52-.31,1.12-.49,1.62-.82.47-.31.85-.74,1.28-1.12.08.06.17.11.25.17-.13.24-.25.48-.38.72Z"/>
  <path d="M127.18,57.49c-1.28.83-2.56,1.66-3.94,2.55.12-.91,1.91-2.2,3.73-2.83.07.09.14.19.2.28Z"/>
  <path d="M136.59,104.3c1.24,1.15,3.15,1.45,3.9,3.23-1.39-.96-2.78-1.93-4.17-2.89.09-.11.18-.23.28-.34Z"/>
  <path d="M115.36,140.53c1.55.56,3.09,1.12,4.64,1.68-.05.15-.1.29-.16.44-1.53-.56-3.07-1.11-4.6-1.67.04-.15.08-.3.12-.44Z"/>
  <path d="M79.31,93.57l2.91,3.65c.26-.25.51-.5.77-.76-1.45,0-3.07-1.52-3.38-3.18-.1.09-.19.19-.29.28Z"/>
  <path d="M127.67,50.93h-4.62c.61-.55,4.11-.63,4.62,0Z"/>
  <path d="M171.58,84.45c.41.96-.67,3.16-1.76,3.8.6-1.3,1.14-2.45,1.76-3.8Z"/>
  <path d="M128.26,50.05h-3.83c.89-.85,2.21-.9,3.83,0Z"/>
  <path d="M170.7,45.17c.2-.07.52-.26.57-.2.84.9,1.64,1.83,2.44,2.76-.1.1-.21.2-.31.3-.89-.96-1.79-1.93-2.68-2.89,0,0-.02.03-.02.03Z"/>
  <path d="M140.42,137.48q1.72-1.05,3.31.31c-1.13-.1-2.16-.2-3.31-.31Z"/>
  <path d="M79.34,107.27c.06-1.4,1.57-2.99,2.4-2.76-.75.86-1.51,1.73-2.4,2.76Z"/>
  <path d="M112.05,104.49c-.54.94-1.08,1.88-1.64,2.85q-.32-.86,1.27-3.02c.12.06.24.12.36.17Z"/>
  <path d="M142.54,139.27c-.42-.24-.81-.57-1.26-.71-.39-.12-.85-.02-1.38-.02,1-.83,2.53-.53,3.53.66-.35.02-.63.03-.92.05,0,0,.03.03.03.03Z"/>
  <path d="M162.97,109.95c.42.82.85,1.63,1.27,2.45-.13.08-.26.15-.39.23-.43-.8-.86-1.6-1.3-2.4.14-.09.28-.18.41-.27Z"/>
  <path d="M172.99,48.69l-2.12-1.83c1.15.03,1.77.77,2.34,1.58-.07.08-.14.17-.22.25Z"/>
  <path d="M175.53,101.56c-.83-.71-1.49-1.28-2.13-1.83.79-.36,1.57.2,2.13,1.83Z"/>
  <path d="M144.69,82.65c-.1.1-.19.19-.29.29-.28.07-.56.13-.84.2-.06-.12-.11-.24-.17-.37.74-.4,1.48-.79,2.22-1.19.06.11.13.22.19.33-.37.24-.74.49-1.11.73Z"/>
  <path d="M174.34,92.39c-.83-.31-1.57-.59-2.27-.86.5-.83,1.16-.68,2.27.86Z"/>
  <path d="M154.46,48.42c.1-.1.19-.19.29-.29.63.59,1.26,1.18,1.89,1.77-.1.11-.19.22-.29.32-.63-.6-1.26-1.21-1.89-1.81Z"/>
  <path d="M112.32,92.33c-.49-.58-.99-1.17-1.48-1.75.08-.07.16-.14.24-.21.67.43,1.36.84,1.25,1.96Z"/>
  <path d="M115.29,49.41c.71-.1,1.41-.2,2.12-.3.02.14.04.27.06.41-.71.11-1.43.23-2.14.34-.01-.15-.03-.3-.04-.45Z"/>
  <path d="M94.12,144.77c.43-1.19.97-1.54,1.86-1.14-.65.38-1.27.75-1.89,1.11,0,0,.03.03.03.03Z"/>
  <path d="M91.6,83.77c.91-.51,1.3-.52,2.13.13-.71-.05-1.41-.09-2.12-.14,0,0,0,.01,0,.01Z"/>
  <path d="M78.95,102.79c.43-.33.86-.65,1.28-.98.09.11.18.23.27.34-.43.33-.86.65-1.28.98l-.27-.34Z"/>
  <path d="M176.9,82.47c-.37-1.01-.75-2.02-1.12-3.03.15-.05.3-.11.44-.16.37,1.01.75,2.02,1.12,3.03-.15.05-.3.11-.44.16Z"/>
  <path d="M180.59,97.24c-.27-1.65-.54-3.3-.79-4.95-.08-.54-.09-1.1-.14-1.65.12-.01.24-.02.36-.03.47,2.6.94,5.19,1.41,7.79-.12.03-.24.06-.36.08-.17-.43-.34-.85-.51-1.28,0,0,.03.03.03.03Z"/>
  <path d="M183.24,106.86v3.32c-.43-.12-.79-.21-1.11-.3v-2.7c.1-.01.19-.02.29-.03.07.7.14,1.4.21,2.1.05,0,.1,0,.15,0,0-.59-.04-1.18.02-1.75.02-.21.31-.39.47-.59,0,0-.03-.03-.03-.03Z"/>
  <path d="M182.31,95.57c-.73-.17-1.62-2.93-1.3-4.55.42,1.48.85,2.96,1.3,4.55Z"/>
  <path d="M184.2,107.58v2.86c-.13,0-.26,0-.4,0,0-.9,0-1.8.02-2.7,0-.04.27-.08.41-.12,0,0-.03-.03-.03-.03Z"/>
  <path d="M186.29,96.53c.19.52.38,1.04.57,1.56-.12.05-.24.1-.37.16-.21-.51-.43-1.02-.64-1.53.15-.06.29-.13.44-.19Z"/>
  <path d="M158.73,156.44c.85.87,1.91.51,2.9.45.52-.04,1.03-.18,1.58-.12-1,.74-2.23.94-3.31.64-1.95-.54-4.14-.27-5.86-1.52,1.58.19,3.15.39,4.73.58,0,0-.04-.03-.04-.03Z"/>
  <path d="M170.7,150.31c.55-1.45,1.09-2.91,1.64-4.36.15.06.3.11.45.17-.54,1.46-1.08,2.92-1.62,4.37-.16-.06-.31-.12-.47-.18Z"/>
  <path d="M167.49,153.24c-.24,1.17-.49,2.33-.77,3.69-.45-.42-.71-.66-.84-.79.48-1.06.91-2.01,1.34-2.96.09.02.18.04.27.06Z"/>
  <path d="M189.98,145.2c.15.09.42.17.43.28.1.64-1.04,2.23-1.87,2.59.4-.82.77-1.57,1.15-2.33.1-.18.19-.35.29-.53Z"/>
  <path d="M189.98,145.2c-.1.18-.19.35-.29.53-.47.4-.95.8-1.42,1.2.08-.33.16-.66.24-.99.54-.52,1.08-1.04,1.62-1.55.07.07.15.14.22.2-.13.2-.25.41-.38.61Z"/>
  <path d="M180.88,124.41v-2.38l.4.03c-.16.77.59,1.63-.43,2.32,0,0,.03.03.03.03Z"/>
  <path d="M175.54,140.75c.41-.67.82-1.34,1.23-2.01-.02,1.1-.09,2.16-1.3,2.8.05-.4.08-.61.11-.82,0,0-.03.04-.03.04Z"/>
  <path d="M182.14,143.75c-.3-.34-.39-.44-.48-.54.09-.03.18-.07.27-.1.04.12.08.24.21.65Z"/>
  <path d="M124.93,153.33c-.25.01-.5.03-.75.04,0-.08-.01-.17-.02-.25l.75-.07c0,.09.02.18.02.28Z"/>
  <path d="M167.41,55.08c.38,1.12.67,1.94.95,2.77-.88-.23-1.27-1.18-.95-2.77Z"/>
  <path d="M133.58,50.51c-.09.18-.18.51-.28.51-1.27.04-2.54.02-3.81.02,0-.14-.01-.28-.02-.41,1.38-.03,2.77-.06,4.15-.09,0,0-.04-.03-.04-.03Z"/>
  <path d="M129.45,49.79h1.89c0,.07,0,.14.01.21h-1.89c0-.07,0-.14,0-.21Z"/>
  <path d="M130.69,48.61h-1.02v-.24h1.02v.24Z"/>
</svg>