<?xml version="1.0" encoding="UTF-8"?>
<svg id="Layer_1" data-name="Layer 1" xmlns="http://www.w3.org/2000/svg" viewBox="0 0 236.43 238.1">
  <defs>
    <style>
      .cls-1 {
        fill: #fefefe;
      }
    </style>
  </defs>
  <path d="M126.41,183.63c-1.95,2.19-3.94.67-3-2,1.28-2.97,4.66-.94,3,2Z"/>
  <path d="M123.41,181.63c-1.35,1.5-1.96.85-1-1,1.39-1.44,1.97-.81,1,1Z"/>
  <path d="M127.41,186.63v1c-.91,2.47-2.88,5.06-4.76,2.26-1.81-2.68,3.42-7.4,4.76-3.26Z"/>
  <path d="M120.41,21.63c-.01.67,1.66,7.87,2.07,8.45,1,1.43,2.55,1.15,3.58,1.91.7.52.79,1.78,2.07,2.42,2.3,1.16,17.32.31,19.02-1.05,2-1.6,3.53-12.16,3.06-14.98-1.01-5.97-3.43-3.8-5.51-5.03-.89-.53-2.01-3.29-4.29-3.22l5.01.49c-3.64-1.84-1.37-10.41,1-7.98.38.39-5.02,6.03,1.99,8.99-3.18-6.56,7.13-10.07.01-3.49,4.18.13-.61,3.92,0,4.48.13.13,2.28-.01,3.56.95,5.56,4.17.74,13.55-1.55,18.07-.73.02-.73-.64,0-2q2.63-10.34,0,0c-1.48,2.21-1.48,2.88,0,2-.43.86-2.1,3.79-1.99,3.98.05.09,1.11-.22,1.97.76,1.29,1.47,5.45,8.78,6.01,8.25,0-5.14,10.24-3.64,7.01,0-.92,1.04-3.02-1.83-3.49-1.82-1.72.05-2.42,5.54-4.48,3.82-1.14-.95-1.2-5.33-5.44-7.07-1.16-.47-6.31-2.15-6.58.07,2.67-.05,7.08.41,6.98,4.01-3.8-2.95-8.12-4.49-12.99-4.01.4-1.44,2.91-1.05,5-1.99q1.58-.82,0,0c-.97.09-3.3.59-3-.99l1.99-1h-8.99s3.99,2.99,3.99,2.99c-5.04-2.29-11.74-.47-16.39,2.13-1.12.63-1.4,2.4-1.78,2.63-.32.19-3.78-.04-6.82,2.24-.43-.33-.43-.67,0-1q.3-.39,0,0c-.45.23-.45.77,0,1-1.02.76-2.09,3.7-3.99,4l1.99-5.99c-3.42.18-4.59.79-4.01-3.01-.25-.32-5.95,5.38-.99-1.99l-2.99.99c2.05-3.82-.79-2.67-1.01-3.65-.57-2.55.75-5.52-.52-8.33-1.98-4.36-9.22-6.8-13.48-8.02q-.37-.31,0,0c-4.91,2.65-10.48,2.93-15.33,6.17-4.39,2.93-11.47,9.77-13.16,14.84,6.42-2.36,11.53-8.27,18.49-9,.12,1.19-1.65,1.47-2,1.99q-.39-.3,0,0c-5.13,7.68-9.06,17.11-13.01,25.49,1.36.73,2.88-2.67,3.42-3.58,2.92-4.83,5.59-9.58,8.83-14.23.6-.86.82-4.41,2.76-2.68.29.26-1.8,4.15-2,4.99q-.39-.3,0,0c-1.62,6.9-2.99,13.97-3.99,21,5.88-5.02,4.8-15.97,9.49-21.99l2.51,14.99,2.75-9.73,1.74-2.24c.59,1.92,10.77,9.91,8.53,3.47-.29-.84-2.47.14-2.02-1.48l11.99.98c-8.88,2.81-8.44,10.8-11.51,18-2.51,5.9-9.13,12.66-5.81,19.82.75,1.61,5.44.99,3.32,4.19-.17.25-5.47-2.81-5.99,0,2.58-.21,5.31,1.74,7.52.04-.73,2.9,1.47,1.76,2.47,3.96-8.68-3.86-13.87-5.94-22.68-1.18-4.72,2.55-8.24,7.85-12.38,10.63-6.36,4.26-13.5,5.52-19.43,11.57-2.19,2.23-11.85,15.25-3.52,11.99l-3.01,2.5c.77,11.86,10.8,19.54,22.02,21.49-1.92-1.85-.19-8.82,1.02-9.99,2.56-2.47,1.42.86.98,2,.86-.18,2.04.1,2.99.01-.81,1.67-3.06,2.09-3.99,4.99-.72-.77-.72-1.77,0-3l1-2c-.58.41-.91,1.08-1,2-.65,1.17-.65,2.17,0,3-1.98,6.14-4.01,19.18,2.75,22.8,8.14,4.36,10.98-13.47,12.26-18.29l-4.01-.52c5.81-6.3,10.49,5.56,14.03,9.48,10.21,11.31,17.51,3.12,14.48-9.5-.97-4.04-7.74-8.36-8-12.94l-5.5,4.97,1-7c.66-.67,3.85-.47,2.46,1.99,3.64-2.82,17.59,7.12,20.07,3.11,3.77-6.11-6.6-13.88-12.27-14.84-7.06-1.2-10.84,1.14-17.26,2.75,1.82-1.68,10.82-12.91,5.47-13.99-3.84-.78-12.41,9.77-15.46,12,.78-3,5.08-7.12,7.52-8.97,11.24-8.57,13.96-1.23,6.47,7.97q-.3.39,0,0c8.82-1.85,16.63-1.52,23.98,4,.37-2.35,7.45-11.32,8.81-11.96,4.39-2.07,11.25.14,15.78-1.94.82,3.09,1.93,1.8,4.41.91.41,2.58-.39,2.11-2.47,2-4.81-.25-12.53-2.46-17.21.32-.94.56-8.66,9.64-8.93,10.66-1.23,4.68,4.34,4.77,4.63,5.03.32.28-4.66,4.89-.02,7.49-.91,1.9-3.1,1.08-3.98,1.5q-1-.53,0,0c-1.27.59-2.52,1.25-1.99,3l5.44-.74-5.45,1.75c2.06,2.08,1.82,4.37,2.49,6.98,6.63-4.89,18.37-5.06,16.51-15.99,4.01.17,2.76,6.09,7.99,2.98l-2.99-1.98c6.65.73,2.82-1.34,2.9-5.5.14-6.59,4.37-11.94,9.09-16.02l-4.99.5c.04-.82-.45-1.89.5-2,13.72-1.67.97,5.27-1.55,10.46-2.78,5.73-1.77,10.2.05,16.04-.1.66-.66.41-1,.51q-2.34-.6,0,0c4.5,2.44,12.96-.19,14,0q1.86,1.88,0,0c-.08-.08,1.19-1.87,1.01-1.99-1.4-.61-5.56,1.34-5.96.99-.12-.1-1.12-2.84-1.02-2.95.27-.31,1.66.17,1.98-.04,2.38.71,6.45.1,3.15-1.76-.44-.25,5.2,2.77-3.15,1.76.09-.06,1.11-1.92,1.01-1.99l-3.01-1c1.6-.29,6.94-.5,7.78-1.23.48-.42.4-2.34,1.18-3.27,1.33-1.58,5.12-3.76,3.54-5.5-3.77,2.58-7.6,5.7-12.51,5-1.93-11.88,12.35-20.56,23-19l-.48,1.98c-9.23-3.53-22.57,5.9-21.51,16.01,2.61,2.67,14.9-8.74,17.99-7.5-.91,1.52-3,2.43-4,3.5q-.39-.3,0,0c-3.68,3.95-9.88,11.99-5.93,17.45,1.1,1.52-.46,3.58,4.61,3.57,5.81,1.09,8.06-8.64,12.31-11.01.02,4.43-1.73,20.16,6.31,17.87,3.47-.99,2.17-6.21,5.7-5.86-1.33,1.51-2.12,4.72-3,5.99,2.31-.67,7.15-3.2,8.55-4.99.68-.87-4.4-5.51.45-5.01q1.35,2.81,0,0c-3.61-1.92-3,.3-5.99,2,4.27-10.77,9.42,1.02,11.67,1.82,1.32.47,3.19-.03,4.57.43,7.61,2.59,14.58,9.23,22.44,3.44l5.33-10.17c-1.25,5.22-2.76,12.18-8.75,13.24-10.55,1.88-17.72-8.71-28.33-5.31-.4.13-6.66,4.26-6.93,4.57-3.16,3.6,7.29.13,8.23-.28,1.53-.65,4.54-3.41,5.25-3.41,4.63.01,3.03,5.54,3.58,8.09,1.58,7.36,2.88,11.63,1.48,19.63-.23,1.29-3.66,11.46-4.04,11.96-1.06,1.41-4.81,1.28-6.52,1.99-.48-.64-.92-1.65-.47-2.02,6.93-5.63,8.95-10.86,8.5-20.18-.09-1.88-1.57-14.85-2.09-15.42-4.84,2.56-9.72,4.08-14.65,4.55,0,8.01-.93,16.26-5.59,23.03,1.14,1.61,1.61,3.72.93,5.57,3.72.35,9.14,2.93,3.37,4.48,1.03-2.79,8.69-2.78,10,0,.52,1.21,2.62.6,1.99,2.48-2.09,2.06-4.23,4.2-6.38,6.16-.51.47-1.47.23-1.62.36-1.24-.73-.9-1.4,1-2q1.55-2.79,0,0c-.81.94-1.73,1.8-3,2,.49-2.28,1.15-2.28,2,0-1.63,1.54-4.04,3.65-5.4,5.1-2.48,2.65-4.57,7.08-6.52,9.27-.68.76-1.49,1.09-2.06.62-2.42-5.7-9.85-12.18-11.55-17.96-1.44-4.88-1.98-15.44-1.47-20.54.1-1.01,1.81-9.7,4.01-7.49.22.23-3,4.32-3,5.49v15c0,1.22,1.51,7.34,2.1,8.9s8.64,13.53,9.46,13.64c1.55.19,1.88-.14,2.92-1.06,1.53-1.36,8.46-9.26,9.52-10.97-.76.23-2.88,1.11-2.99,1-1.89-1.8,1.65-2.03,1.73-2.15.2-.31-1.26-3.39,1.26-4.36l-3.01-.5c.58-.93.66-2.01,1.01-2.99-5.43-.53-7.55-2.07-12-4q.98-.55,0,0c-.88-.38-3.27.92-2.99-.99,6.72-.76,9.71-9.42,11.99-15.01h-15v-1h15c1-1.97,1.5-13.51,1-14-1.76-1.7-3.26,1.82-3.65,1.92-.79.2-3.04-.64-4.35.07,1.63-2.16-.15-2.03-1.99-3.99l1.21-.74c3.36,1.83,6.59,2.04,9.79-.26-3.37,2.79-8.68,1.61-10.22-.22l-.78,1.22c-2.25-2.39-5.42-3.5-5.01-8-2.16,2.49-6.75.21-8.39,1.45-3.23,2.43-5.03,15-5.5,19.16-.88,7.73-3.11,15.56-2.19,23.3-2.93.28-6.45-4.19-9.87-2.46-1.07.54-1.75.96-2.71,1.19-.72.18-1.27-.67-1.34-.65q.3-.39,0,0c-.24.08-2.62,2.14-4,3-2.31-3.07-1.85-4.64,1-7v-1c-2.67-.34-2.92-1.16-1-3,3.36-.34,6.52,1.17,9.48,4.53.33.16,7.54.73,6.27.1-11.16-5.49-1.15-7.56,1.15-5.1.66.71.91,1.37,1.1,2.47-3.17-2.11-3.2-13.6,0-15.5-.48-.07-.93-.17-1.32-.39-2.09-1.22,4.42-16.97,6.64-19.24-8.32-.02-16.07-1.23-23.24-3.64-.22,2.52-1.24,3.78-3.08,3.77-.68-.48-1.32-.28-2,0q-.3.39,0,0c1.04-.81,1.7-.81,2,0,2.39,1.52,1.76,2.55-1,3h-1c-.28,1.08-.92,1.73-2,2q-2.94,2.29,0,0c1.02-.39,1.6-.99,2-2,.33-.64.67-.64,1,0,2.11.25,2,2.45,1.31,4.18-3.56,5.82-7.01,11.67-10.34,17.53,5.33.26,8.34,2.02,9.03,5.29-1.25,1.68-3.69,1.79-7.31.31,1.35,4.82,2.49,9.91,3.39,15.29,2.9-1.9,5.54-2.43,7.92-1.6-.41.26-1.17,1.94-2.63,2.84-1.24.76-7.53,4.08-8.36,3.16l-1.47-13.03-6.52-12.96,2,1.51c1.66-4.14,6.55-9.23,7.98-13.03.94-2.5-1.8-.05-1.97-.97,4.25-3.61.06-2.49-3.01-3l7.99-7.5c-3.93,1.04-7.47,3.91-10.99,6-.82-.33-.82-.67,0-1q.3-.39,0,0c-1.06.14-1.06.48,0,1-.36.21-.9,1.47-2.25,2.21-2,1.08-5.46,2.12-7.75,2.79-1.19-.83,0-3.13,1.22-3.86-1.48,2.03-1.89,3.32-1.22,3.86.1.11-.11,1.87.56,2.89,1.61,2.47,4.11,4.43,5.66,7.4.45.86,1.77,2.87-.2,2.7-.2-2.36-5.98-9.6-7.65-9.89-1.31-.23-3.43,2.63-5.94,2.9-9.49,1.02-12.11-11.5-18.41-15.99-1.35,5.93-3.96,24.21-13.24,19.8-9.9-4.71-3.61-18.29-4.85-19.73-.22-.26-4.86-1-6.6-1.89-10.04-5.15-20.28-17.88-13.73-29.08,7.12-12.19,16.78-13.11,26.73-20.26,4.95-3.55,9.8-10.58,16.23-11.77,2.79-.51,6.43.99,8.56-1.51.94-1.11-.37-4.88-.14-7.01.56-5.25,7.76-20.66,10.29-26.77.63-1.52,2.38-3.17,2.72-4.29.83-2.76-4.77-2.32-2.99,2.53-4.76.96-6.6-2.03-9.5-4.99l-4,11.96-4.49-13.97c.58,2.46-5.77,22.77-8,20.99-2.35-7.68,2.92-15.24,2.49-22.99-3.57,5.17-6.17,11.05-9.93,16.1-.83,1.12.02,2.49-2.57,1.89-2.21-2.85,11.46-23.95,12.99-27.99-1.69-1.68-14.48,10.34-17.99,7.5,6.57-8.91,15.4-18.96,26.99-20.52l-11.97-4.51-3.02-2.47c11.33,0,23.81,4.93,32.5,11.97,1.74-1.6,1.78-3.88,3.07-5.92.43-.68,3.21-5.34,4.43-4.05.42.44-5.36,8.68-5.78,10.72-.5,2.46-.28,6.03.78,8.27q-.3.39,0,0c.1.21,1.81,1.52,2.56,2.91s1.35,4.8,1.55,4.97c.27.22,6.32.75,7.01.6,1.72-.36,11.48-6.55,11.87-7.99-2.03-3.74-4.35-2.93-6-7.49q.78-1.69,0,0c-1.05-2.9-1.5-3.84-.77-7.28,1.38-6.49,8.28-8.01,3.77-15.71,1.95-.57,2.71,2.12,4.32,1.87,1.36-.21,3.38-3.41,5.67-2.86.25,1.26-5.01,2.94-3.99,3.99q-.3.39,0,0c.19.2,1.81-.45,2.01.48l-2.02,3.51,3,1c-4.63.8-3.31-.61-5-2.99q-1.41-1.96,0,0c.29,2.19-3.42,3.66-4.44,6.05-.23.54-1.55,5.64-1.56,5.95q-.55-.98,0,0Z"/>
  <path d="M126.41,94.63c-.31.47-.64.46-1,0-1.28-1.4-.68-1.94,1-1,.83.24.81.58,0,1Z"/>
  <path d="M129.41,92.63c-.63-.31-.62-.65,0-1,.28-.66.61-.64,1,0,.28.95-.05,1.28-1,1Z"/>
  <path d="M126.41,87.63q-1.65.39,0,0c7.01-2.52,25.45,6.98,13,12l-.33-1.05c2.88-2.33,2.81-6.38-1.43-5.97-.15.01-.29.08-.4.19l-.84.84q-.3.39,0,0l.89-.89c.07-.07.16-.12.25-.16,1.38-.47,2.64-.43,1.86,1.05q-.3.39,0,0c3.41.31,1.02,3.81-.74,5.34-.08.07.27-1.52.74.66-2.9,1.17-7.93,1.77-10.53-.85-.03-.03,0-.07.04-.06,4.84,1.28,8.42,1.03,9.48-4.09l-2.16,1.84c-.45.39-1.14,0-1.04-.59h0c.09-.52-.45-.91-.92-.68l-1.86.94,3.98-5.51c-.31-.34-6.27,5.28-6.99,6l-.43-.69c-.17-.26-.11-.61.12-.82,2.16-1.97,2.6-3.13,1.31-3.5h-1v1c2.53,1.59-2.53,5.43-3,1-1.67-.67,1.28-4.01,2.34-4.83.28-.22-3.43,4.46-4.49,5.03l1.15.8c.56.5.89.5,1,0,2.18-.64,3.24.39,1.7,1.96-.68.69-2.21-2.4,1.02-.16.14.1.24.26.26.43.06.49.33,1.58-.62,1.82-2.54.63-5.9-1.03-8.68-1.08-.37,0-.65-.35-.6-.72.39-2.71,1.29-4.92,2.88-7.01.33-.43.02-1.04-.52-1.02-5.3.18-7.91-5.57-3.46-9.22-.67,3.01-2.26,6.45,1.71,7.8,4.91,1.66,2.05-1.64,3.21-2.31,1.56-.91,4.51-.19,5.57-2.51l3.52-8.97c.6,4.13-2.9,11.4-5.99,14Z"/>
  <path d="M168.41,93.63c-3.34.49-6.6,3.21-8.99,5.51l4.99.5c.42,2.67-8.28,8.33-7.98,4.49.03-.45,1.97-1.45,2.37-2.48.47-1.22-.68-2.11,1-4.07,2.33-2.73,10.95-6.17,11.45-7.61,1.61-4.62-1.82-9.39-1.92-13.85-.09-3.7,1.51-6.97,1.12-11.01-.21-2.16-2.24-5.27-2.03-5.48,2.37-2.45,3.73,7.6,3.88,8.61.63,4.24-.16,10.54.12,13.38q-1.06-2.33,0,0c.13,1.31.75,2.68,1,4h0c.19,1.01,1.63,1.96,1.04,4.37-.28,1.15-2.47-.03-2.04,1.62,13.43-2.36,31.81,4.29,40.52,14.98,1.6,1.96,5.14,9.57,5.63,9.87,1.91,1.16,8.87-.81,12.88,3.63s3.35,22.01,1.87,27.93c-.29,1.18-.37,2.4-1.89,2.6.03-7.15-12.13-9.33-17.64-8.92-2.96.22-14.07,5.19-16.24,3.81-.29-.18-1.35-4.07-2.26-5.25-1.87-2.44-6.08-1.99-4.37-4.63,4,.24,7.08,8.61,7.56,8.98.7.53,12.78-3.76,15.41-3.99,5.85-.52,14.31,1.71,18.53,6.01,1.47-6.73,2.42-23.58-4.07-27.42-7.9-4.68-25.75,1.95-31.01,8.92-.78,1.03.19,2.41.09,2.49-2.62,2.29-1.31-3.57-2.99-2.99-1.63,2.43,3.31,7.68,2.99,7.99-1.72,1.64-3.95-4.1-4.02-4.99l-3.97,3.99c.39-5.5,5.07-6.6,8.49-8.99,1.52-1.06,2.26-2.69,4.23-3.77,3.7-2.04,11.03-4.14,15.28-4.23-2.38-14.16-25.23-26.32-38.46-25.92-3.54.11-3.01,2.1-4.58,3.34-1.06.84-3.23-.16-2.95,1.57,2.89.27,8.31-1.04,9.99,2-3.35-1.41-6.7-.66-9.99-.99q-1.44-.67,0,0c-1.01,1.42-3.27.68-4,1q-.39-.3,0,0c-.42.19-.83,2.16-1.99,2-1.26-3.87,1.93-4.9,4.99-6q2.39-.72,0,0c-1.04-.01-1.89-1.02-2-1q.3-.39,0,0Z"/>
  <path d="M88.41,215.63c-.27-.07-2.43,1.43-2.98,1.01-.59-.45-4.53-11.3-5.85-13.68-5-8.99-10.65-16.15-22.17-14.34,6.69-6.55,15.33-11.6,20.01-19.98l.95,4.48c9.29,6.16,32.98,14.6,35.83,26.22.68,2.76-.08,6.32,1.21,9.29-3.15.33-6.94.48-10,1.01q-4.91-1.72,0,0c-2.86.49-8,1.12-10.27,2.23-2.42,1.18-4.72,5.71-5.24,5.75s-1.3-1.93-1.49-1.98q.25-1.92,0,0Z"/>
  <path d="M221.41,216.63h-1c-1.41-1.8-.86-2.38,1-1v1Z"/>
  <path d="M208.41,219.63c-10.73-2.56-15.1-14.05-13.02-24.52.58-2.93,3.17-2.18,5.09-3.91,3.27-2.94,4.99-8.7,9.92-10.57.72,8.15,1.39,21.38,10.28,25.26,3.16,1.38,6.12-1.29,5.74,1.24-1.75,11.81-6.15,15.33-18.01,12.5l3-2,1-1c2.39-3.8,4.95-2.18,8,0-.94,1.73-.61,1.73,1,0v-1c-3.43-1.24-2.28-3.06.9-4.44l.24-1.54c-10.69-2.35-14.5-12.91-14.39-22.9-2.72,4.39-5.99,7.43-9.8,9.11-2.84,3.21,4.83,28.09,12.45,17.73,3.19-.09,5.1,2.24,1.6,3.04l-1,1-3,2Z"/>
  <path d="M134.43,52.63c2.61,1.92,2.82-6.19,7.99-3.5l5.99,10.5c-4.39-.98-4.02-10.09-8.31-8.89-2.89.81-4.18,6.84-8.24-1.18-4.88,3.8-17.02,5.53-20.29,9.71l-4.14,7.35c.52-4.75,2.5-9.46,7.07-11.42,1.79-.77,3.86-.54,5.64-1.36,2.04-.93,10.33-6.02,10.94-6.11,2.67-.42,3.06,4.68,3.35,4.89Z"/>
  <path d="M11.41,200.63c.07-3.66,1.15-9.17,3.84-3.69-1.67,3.13-1.4,3.93.16,7.69-5.66-12.67,5.46-3.76,4.68,1.57-.37,2.52-5.13,1.6-4.68-1.57,2.38,3.06,1.71,3.72-2,2-2.83-.87-2.71-3.49-2-6Z"/>
  <path d="M30.41,208.63c-2.92,1.19-3.48,2.23-7.46,2.03-1.9-.1-11.55-2.47-12.58-3.49-2.52-2.52-.88-20.94-6.96-24.53,8.7.39,18.56-1.85,25.94-6.57,3.42-2.19,5.71-6.95,10.97-6.39-.03,1.91,3.04,6.61,4.37,7.66,2.49,1.96,6.88-.1,5.74,3.8-.07.25-1.62.34-2.19,1.86-.89,2.37-.59,5.27-1.29,7.68-1.99,6.82-10,15.29-16.54,17.96l-.24-2.1c6.01-2.5,17.56-19.81,15.37-25.43-.2-.51-7.61-7.51-8.15-7.41-7.64,6.52-16.95,11.11-27.08,11.82-1.9,1.03,1.32,7.78,3.15,9.37-1.76,1.59-1.91,3.13-2.04,5.75-.6,2.57-.88,4.9,2,6,4.7.63,9.81.77,15.32.44l1.68,1.56Z"/>
  <path d="M138.41,72.64c-2.45,4.31.26,8.46,0,12.99,4.81-3.78,6.37,7.63,10.89.4,1.22-1.96.26-4.95,2.09-5.4,1.75,7.73-9.65,13.65-13.44,5.95-1.21-2.46-1.74-8.61-1.56-11.46.12-2.01-.76-2.9,2.01-2.48Z"/>
  <path d="M97.41,79.63c-.1-.32-2.8-.98-2-2.99,2.91.08,5.29-1.65,7.99,0-.19-2.99.09-5.94,2.51-7.99l-1.66,8.84c-.91.84-3.16.65-3.84,1.16q-.39-.3,0,0c-3.85,2.85-4.8,6.54-3.01,11-5.25-2.35.17-9.47,0-10q.3-.39,0,0Z"/>
  <path d="M154.41,103.64l-13.97,6.51c-11.26,3.32-18.38,1.14-28.01-4.53-.24-1.82,2.15-.92,3.04-.54,2.56,1.07,4.7,3.65,7.4,4.61,11.36,4.03,20.92-4.27,31.54-6.04Z"/>
  <path d="M205.41,52.63c-3.67-12.13-5.34-24.09-19-28.5l9.99-3.51c-3.06-4.47-12.18-1.04-15.99,1.54-.33.22-5.66,4.74-5.91,5.05-1.7,2.06-1.45,5.54-3.6,7.41-1.45-3.05,1.02-8.96-2.48-10.99-.27,3.02-2.45,7.15-2.57,9.93-.07,1.64,1.91,2.53,1.54,3.03-.07.09-1.96-.18-2.07.62-.26,1.9,3.03,5.07-.91,4.4-1.55-5.53,4.73-24.88,9.51-26.99.54-.24,1.69-.19,1.48.48-3.54,4.62-4.35,9.78-3.98,15.5,1.86-.84,1.17-3.54,2.95-5.53,4.08-4.54,15.22-8.51,21.31-7.24.83.17,8.4,3.13,6.71,4.77-.25.24-2.57-1.81-4.31-1.75-2.07.07-6.46,2.42-8.67,3.25,12.84,5.22,13.95,18.65,18,30.5-.85-.02-1.52-.69-2-2,.77,1.64,1.44,2.3,2,2,.59,1.74,3.34,4.58,1.5,7-4.37-6.73-8.26-15.33-16.5-17.99,2.04,6.16,5.29,13.11,5.87,19.61,1.4,15.71-6.25,4.33-6.88-3.61l-3.97,2.99c.08-1.54-3.85-7.02-4.52-6.97-1.14.07-.85,3.23-2.49,2.97-.27-3.72-4.35-4.26-6.01-6.98,2.63-.65,4.49,2.89,5.96,3.41,1.22.43,2.67-.78,4,.03,1.17.71,2.59,4.66,4.54,5.55l1.48-5.99c1.42,4.29,2.33,9.03,4.51,13.04.76,1.39-.09,2.46,2.5,1.95,1-9.93-4.25-18.58-5.99-27.99,1.24-1.35,12.69,9.59,13.99,10.99Z"/>
  <path d="M142.41,74.63c-2.4-1.42-4.14-1.96-3.99-6,1.69-.46.48,2.08,1.54,2.06s2.45-1.1,3.97-1.11c4.37-.01,8.49,4.97,9.47,9.05-4.24-1.41-7.13-1.72-10.99-4q2.41-2.58,0,0Z"/>
  <path d="M187.41,120.63l-.98,1.99-3.02-3,1.99-1.48c-3.28-3.08-6.99-3.98-11.41-3.43-1.99.25-6.61,3.3-7.58.94,4.71-1.24,9.3-2.81,14.27-1.79,1.84.38,3.33,2.14,5.18,2.31,3.6.34,9.47-1.36,13.54-.53.23,1.75-2.27.94-3.48.99-2.83.12-5.69-.09-8.51,0l1.99,3.5-2,.5h0Z"/>
  <path d="M157.15,61.88c2.01,2.07.94,9.67,2.27,12.74l2.99-3.98c-1.36,1.58.99,3.3.98,3.49-.04.99-4.61,1.38-2.97,3.48.1.13,2.07.27,3.02,1.46,2.43,3.04,3.45,6.65,2.97,10.56l-2.56-7.92c-.77-1.97-3.56-2.35-4.41-3.85-4.08-7.22,1.9-16.17-10.02-18.23.13-2.64,7.44,1.96,7.74,2.26Z"/>
  <path d="M202.41,114.63c-2.96-.41-6.05-.38-9-.5,3.96-3.09,10.29-.87,15-1.5.87,5.53-3.1,2.4-6.01,2q1.13-.64,0,0Z"/>
  <path d="M99.4,121.65c1.73,1.97-3.52,3.3-4.99,2.98v-10.99c2.36.36,1,4.99,1.58,6.04.95,1.74,3.18,1.7,3.41,1.97Z"/>
  <path d="M139.41,234.63c-3.9.42-6.61,1.47-11.39.89-1.87-.22-12.39-3.17-12.68-4.51-.75-3.44,2.83-5.11,4.32-7.63,4.8-8.12,10.75-16.09,11.76-25.74,2.26.54,2.67,4.53,4.22,5.3,2.39,1.18,13.7,2.67,15.75-.31-3.14,10.34-2.49,20.94-3.88,31.42-.93,1.31-6.18.37-8.11.58.21-1.89,1.97-2.97,5.27-3.22l2.52-23.9c-5.59.59-10.2-.31-13.83-2.68-4.24,8.68-9.14,16.98-14.71,24.91-.13,1.59,17.23,3.43,19.26,2.95l1.48,1.94Z"/>
  <path d="M92.4,34.63c1.72,2.5-6.34,3.84-7.5,4.01-.78.11-3.62.32-1.98-1l6.49-1.02c-3.2-4.87-8.66-3.08-13-1,3.9-5.36,8.87-2.82,13.5-.92,1.37.56,2.42-.18,2.49-.07Z"/>
  <path d="M161.38,88.71c-.24,3.24-3.27,2.62-4.43,3.98-.6.7-.26,2.41-1.17,3.05-1.26.88-4.04.5-5.92,1.85-1.68,1.21-2.96,5.71-4.18,6.05-1.01.28-2.56-.28-3.68.05-4.96,1.42-9.58,1.6-14.9.6-1.52-.29-3.36-2.39-5.69-1.66-.23-1.79,2.24-.97,3.36-.87,7.46.7,12.19,3.8,19.93.66,2.39-.97,2.31-4.61,4.12-5.87s4.36-.52,5.62-1.38c1.4-.96.63-5.49,4.97-4.55l-4-4.98,5.97,3.06Z"/>
  <path d="M89.02,94.05c.28.13.5,1.08,1.2,1.49,1.89,1.11,5.3,1,6.19,4.09-3.19-.46-5.18-3.56-8.6-3.97-3.09-.36-5.71.72-8.39,1.97l5.98-3.01-4.99-1c1.25-3.69,5.97-.82,8.61.42Z"/>
  <path d="M78.41,114.62c-8.56-3.74-16.34-1.29-24.99.02l10.03,1.46,7.96,4.52c-7.7-2.34-13.63-3-20.99,1.01-.52-2.85.7-1.63,2.2-2.25,3.57-1.46,7.04-1.74,10.81-2.25,0-1.03-9.92-.29-11.53-.5-1.38-.18-2.98-.6-1.48-1.99,1.63-1.52,25.96-5.92,28-.02Z"/>
  <path d="M108.41,89.63v4.01c4.57-3.09,5.45,3.09,8,5.99-1.92,1.83-4.62-5.29-4.93-5.57-1.27-1.11-4.09,3.65-5.05-3.94l1.98-.49Z"/>
  <path d="M165.41,51.63c2.31,1.93,4,4.06,5,6.99-3.11.27-1.71-2.94-4.47-5.02s-8.22-1.16-4.02-4.95c.63,2.56,3.07,2.63,3.5,2.98-.49-3.39,6.95-3.77,7.99-1.48,1.31,2.89-2-.18-3.48-.52l.5,2h-5.01Z"/>
  <polygon points="173.41 107.65 169.42 108.64 170.92 111.63 166.43 106.12 173.41 107.65"/>
  <path d="M123.41,76.63q0-2.67,0,0c-2.12.89-6.88,4-9,1.01,5.98,1.26,6.2-6.22,10.97-7.61,3.95-1.15,4.04,2.3,7.02-2.4-1.07,5-4.7,7.19-8.99,9Z"/>
  <path d="M103.41,102.63c.61,5.95-4.25-3.45-6-3.51l2.99-.99-3.51-3.48c5.38,1.47,6.62,6.12,10.51,9.48-.92,1.44-3.16-.85-4-1.5q-2.03-3.03,0,0Z"/>
  <path d="M104.4,84.64l1,2.99c-3.26-1.42-3.56.43-5.99,2.01-1.04-1.17,3.79-6.02,4.98-4.99Z"/>
  <path d="M92.41,32.62c-2.92-.31-4.73-3.13-7.73-3.76-3.36-.7-4.97-.01-8.01.55-1.93.36-1.21-.09-1.26-1.78,6.1-.46,12.74-.14,16.99,4.98Z"/>
  <path d="M205.41,109.64c.83,3.72-5.57-.17-7.99,1.99,1.26-3.12,5.41-1.78,7.99-1.99Z"/>
  <path d="M148.4,67.65c.27,1.79-2.23.92-3.06.56-2.8-1.24-4.08-3.42-3.92-6.56,1.76.14.84,2.46,2.41,4.07,1.03,1.05,3.1,1.71,4.57,1.94Z"/>
  <path d="M186.41,30.64c.07.08.36,2.11-.49,1.98-2.19-2.23-5.08-2.23-7.78-.95-1.11.53-.11,2.78-2.73,1.95.73-4,9.41-4.69,11-2.98Z"/>
  <path d="M185.34,36.71c.25.4.68,3.33-.91,2.91-.03-1.12-.5-2.46-1.63-2.87-1.84-.66-5.87,1.03-6.38-1.11,1.62-.21,8.3.08,8.92,1.07Z"/>
  <path d="M118.42,69.62l4.07-2.42,4.92-6.57c-.86,4.57-3.76,9.26-8.99,8.98Z"/>
  <path d="M91.41,125.62c-1.3.41-5.03-1.5-3.99-1.98,1.78-.27,3.51.06,3.99,1.98Z"/>
  <path d="M181.4,45.63c-.59-.77-6.45-3.47-4.98-5,.25-.26,6.24,3.66,4.98,5Z"/>
  <path d="M160.81,64.26c.64.67,2.01-.15,1.6,1.36-3.5.74-3.18-.89-3.5-3.97,1.01.62,1.15,1.82,1.91,2.61Z"/>
  <path d="M180.4,51.63c-.22.44-3.14-3.19-3.99-3.99,1.12-.87,4.78,2.35,3.99,3.99Z"/>
  <path d="M166.41,75.64c.49.38-1.75,2.65-3,1.98-.49-.38,1.75-2.65,3-1.98Z"/>
  <path d="M92.4,39.62c-.19.22-4.77,3.22-4.98,3.02-1.69-1.62,4.54-3.84,4.49-4.99.86-.13.59,1.86.49,1.98Z"/>
  <path d="M152.91,81.63c.65.33.65.67,0,1v-1Z"/>
  <path class="cls-1" d="M119.41,155.63c-1.21,1.26-1.66,3.53-4,2.99.39-2.25,2.8-2.27,4-2.99Z"/>
  <path class="cls-1" d="M122.41,153.63c-.07.13-.94-.13-1,0,.05-.03-.13-.97.5-.98l.5.98Z"/>
  <path class="cls-1" d="M121.41,153.63c-.14.29.28,1.37-.27,1.72-.71.45-1.52.15-1.73.28.74-.77.86-1.2,2-2Z"/>
  <path class="cls-1" d="M123.41,150.63c-.13.13-1.37-.08-2,0l1.99-2c-.05.63.14,1.87,0,2Z"/>
  <path class="cls-1" d="M121.41,150.63c.47.47-.93,1.59-1,.5-.02-.35.78-.72,1-.5Z"/>
  <path class="cls-1" d="M122.41,180.63c.26.1.57.8,1,1,.16.08,2.23,1.51,3,2,.63.81.82,2,1,3-1.9-.38-2.7,1.27-3.98,2.51.67.35,3.85-1.34,3.98-1.51-.01,2.9-2.17,3.7,1,4.49-.93.47-1.47,2.09-2,2.51-2.11,1.67-7.51,3.21-9.99,5,.04-7.38-1.9-14.41-5.01-20.99.77-.57,9.6,1.43,11,1.99Z"/>
  <path class="cls-1" d="M127.41,187.63c.13-.17-.08-.67,0-1,.2,1.11,0,.74,0,1Z"/>
  <path class="cls-1" d="M165.41,157.63c-.36-.32-4.67-8-4.64-8.5.11-1.75,4.64-5.01,4.66-7.5,3.08,1.23-3.17,5.6-2,6.99l2.97-1.51c-3.17,1.18.55,7.73,1.96,9.06,2.64,2.48,4.96,1.35,8.06.45-2.14,3.08-8.56,3.17-11,1Z"/>
  <path class="cls-1" d="M143.41,141.63c3.27,1.08,6.79-1.97,2.02-1.49l2.97-1.5v3.99s-4.99-1-4.99-1Z"/>
  <path class="cls-1" d="M147.41,145.63c.14.15,4.11-.12,1.99,1.99s-1.84-1.87-1.99-1.99Z"/>
  <path class="cls-1" d="M133.41,145.63c-.75.23-2.07-.13-3-.01.04-2.48,2.08-.3,3,.01Z"/>
  <path class="cls-1" d="M129.41,92.63c-.39.18.21-.08,0-.47,0-.62-.06-.47,0-.53-.15.15.15.93,0,1Z"/>
  <path class="cls-1" d="M125.41,94.63c-.91.28-2.26,1.98-2.5,1.98-.94,0-1.55-3.33-1.46-3.49.06-.11,1.53.1,2.44-.53.96-.67,4.68-4.77,5.52-3.95.21.2-2.27,3.32-3,4.99-.1.23-.85.54-1,1Z"/>
  <path class="cls-1" d="M128.94,96.31c.03,1.12-1.35,1.53-2.53,1.32,1.24-1.43-.01-2.72,0-2.99.02-.33-.07-.96,0-1,.31-.18,1.43.73,2.03.44.71-.34.72-1.25.97-1.44.37-.28.64-.71,1-1,1.2-.97,2.56-1.72,3.5-3,1.1,1.27-5.02,6.17-4.97,7.67Z"/>
  <path class="cls-1" d="M129.55,90.83c-.07.15.01.65-.14.81.06-.06-.12-.99.5-.98.39.21-.18-.22-.36.17Z"/>
  <path class="cls-1" d="M125.41,94.63c.32.03.99-.05,1,0,.29,2.31-.89-.03-1,0Z"/>
  <path class="cls-1" d="M136.41,93.63c.47.47.27,1.53.19.44-.02-.35-.42-.67-.19-.44Z"/>
  <path class="cls-1" d="M139.41,93.63c.47.47-.93,1.59-1,.5-.02-.35.78-.72,1-.5Z"/>
  <path class="cls-1" d="M136.41,93.63c.98.05.78-.3,1-1,.02-.07-.02,1.21-1,1Z"/>
  <path class="cls-1" d="M139.41,99.63c-.34.17-1.38-.08-2,0,.59-2.44,4.02-3.96,2-5.99-.65-.65-.4-1.17-2-1,5.02-3.31,6.56,4.78,2,7Z"/>
  <path class="cls-1" d="M126.41,87.63l-1.99.99c-.46-1.79,1.54-.61,1.99-.99Z"/>
  <path class="cls-1" d="M124.91,96.63c.65.33.65.67,0,1v-1Z"/>
  <path class="cls-1" d="M99.41,162.63c-.07-.08-1.28,1.14-1.98.53,3.97-9.14-2.32-15.55-7.02-22.52l12.94,4.04c-1.96,3.88,3.2,11.5,2.82,13.5-.35,1.84-6.27,1.67-6.76,4.45Z"/>
  <path class="cls-1" d="M109.41,156.63c-.47-.47.93-1.59,1-.5.02.35-.78.72-1,.5Z"/>
  <path class="cls-1" d="M109.41,156.63s.04.98,0,1c-2.59,1.37-2.59-2.37,0-1Z"/>
  <path class="cls-1" d="M106.41,145.63c-.78.72-2.92-.54-1.99-.99,1.05-.51,2.51.51,1.99.99Z"/>
  <path class="cls-1" d="M177.41,194.63c.21-.6,1.3-1.8,1-1.99-3.87.65-7.04-1.41-10.01-3.51l5,.49-2-1.49,2.01-1.49-4.98.5c7.6-7.7,8.72-18.09,7.99-28.51,5.79,3.59,12.51-3.29,16.47-3.59s2.05,3.58,2.59,5.99c1.9,8.44,3.4,15.69.17,24.33-.8,2.13-3.87,2.93-2.75,6.32-1.28.23-5.19,2.88-5.5,2.95-1.97.4-7.75.22-10,0Z"/>
  <path class="cls-1" d="M111.41,44.63c-.47-.47.93-1.59,1-.5.02.35-.78.72-1,.5Z"/>
  <path class="cls-1" d="M111.41,45.63c-.93.42-.93-1.42,0-1,.05.02.05.98,0,1Z"/>
  <path class="cls-1" d="M102.41,34.63c.47.47-.93,1.59-1,.5-.02-.35.78-.72,1-.5Z"/>
  <path class="cls-1" d="M172.41,81.63c-2.5-2.34-1.96-6.89-1.99-10l1.99,10Z"/>
  <path class="cls-1" d="M173.41,85.63v3c-2.16.43-.68-3.87,0-3Z"/>
  <path class="cls-1" d="M170.41,94.63c.16,0,1.78-1.61,2.99-.99v.98c-.9.18-2.31-.24-2.99.01Z"/>
  <path class="cls-1" d="M171.41,97.63h-3s0-.99,0-.99c2.47-.77,2.82.97,3,.99Z"/>
  <path class="cls-1" d="M167.41,98.63c-.47.47-1.59-.93-.5-1,.35-.02.72.78.5,1Z"/>
  <path class="cls-1" d="M168.41,93.63c-.47-.47.93-1.59,1-.5.02.35-.78.72-1,.5Z"/>
  <path class="cls-1" d="M142.41,37.63c.27-.12.15-1.55,1.99-.99v.98c-.66.06-1.34-.05-1.99.01Z"/>
  <path class="cls-1" d="M150.41,31.63c-.04.09-1.75,1.25-1.98.51.63-.82,1.47-1.62,1.98-2.51-.07.63.17,1.64,0,2Z"/>
  <path class="cls-1" d="M150.41,29.63c.65-5.6,1.57-10.62-.51-15.98,5.89,3.03,3.12,11.4.51,15.98Z"/>
  <path class="cls-1" d="M147.91,36.63c.65.33.65.67,0,1v-1Z"/>
  <path class="cls-1" d="M187.41,197.62c-2.28-1.08-6.8.66-8-1.98,2.58.2,6.74-1.14,8,1.98Z"/>
  <path class="cls-1" d="M182.41,201.63c.82-.42.04-2.37.49-2.98l1.49,1.48c-.25.8-1.88,1.39-1.98,1.5Z"/>
  <path class="cls-1" d="M179.41,203.63c.76-1.22-.16-3.08,1.51-3.98.25,1.38-1.16,3.35,1.49,1.98-.41.48-.74,1.88-1,2-.41.2-1.43-.17-2,0Z"/>
  <path class="cls-1" d="M119.41,27.63v-4.99s.99,0,.99,0c-.2,1.74.81,4.69-.99,4.99Z"/>
  <path class="cls-1" d="M128.41,35.64c.68.35-.59,1.7-1.99.98-.68-.35.59-1.7,1.99-.98Z"/>
  <path class="cls-1" d="M88.41,215.63c-4.85-1.64-13.66-32.61-27.98-28.49,3.46-1.52,13.3-12.77,15.69-13.38,3.12-.8,13.33,7.1,16.61,9.05,2.42,1.44,5.2,1.9,7.62,3.38,6.19,3.79,14.42,11.52,13.07,19.44h-7s5.99-1.99,5.99-1.99c-2.91-.39-11.7.76-8.99,3.96-2.91.75-7.25,2.25-9.72,3.81s-3.31,4.89-5.28,4.22Z"/>
  <polygon class="cls-1" points="105.41 209.63 101.42 208.65 113.41 206.64 105.41 209.63"/>
  <path class="cls-1" d="M208.41,219.63c.17-1.33,1.97-1.41,3-2-.91,1.16-.96,2.46-3,2Z"/>
  <path class="cls-1" d="M211.41,217.63c.06-.04-.13-1.17,1-1,.17,1.12-.96.94-1,1Z"/>
  <path class="cls-1" d="M212.41,216.63c-.2-.32.14-1.4,0-2-10.28,13.25-19.43-14.42-15.53-20.04.66-.96,2.99-.98,4.07-1.93,1.97-1.75,4.84-8.82,7.91-8.01,2.25.59,1.48,7.51,2.01,10.04,1.3,6.2,7.51,14.12,14.56,12.95l-2.01,6.98-1.98-1.99c-.14.96.17,2.13-.01,2.99-1.12-.15-.84.75-1,1-5.4,2.24-3.73-1.25-4.49-1-1.65.55-.31,3.22-2.01,3.98.41-2.36-1.02-2.2-1.49-2.98Z"/>
  <path class="cls-1" d="M220.41,216.63c.31-.13.82.15,1,0l-1.51,1.98c-.74-.39.13-1.37.51-1.98Z"/>
  <path class="cls-1" d="M221.41,216.63c.12-.1-.07-.67,0-1-.01.05,1.18.54,0,1Z"/>
  <path class="cls-1" d="M30.41,208.63c-4.93,1.86-12.35.36-17-2,2.05,1,1.99-.51,2-2,.62.89,1.69,3.24,2.99,1.51l-3.98-7.51c.25,2.18,1.01,3.66.99,6-.31-.45-1.7-.65-1.01-2.99l-1.98,1.99.98-7.99c-1.06.14-1.66,3.76-1.99,5-.24-2.25.19-4.72-.01-7l-1.98,4.99c.05-5.08-.95-10.33-3.01-14.99,12.32.1,21.99-4.74,31.05-12.62,1.38,1.34,9.65,8.64,9.85,9.28,1.06,3.34-2.75,13.58-4.9,16.82-1.81,2.72-9.18,10.44-12,11.5Z"/>
  <path class="cls-1" d="M13.41,206.63c-.83-.42-2.3.17-2.9-1.63-.81-2.45.55-3.08.9-4.37.18,1.64.21,5.13,2,6Z"/>
  <path class="cls-1" d="M97.41,79.63c-.47-.47.93-1.59,1-.5.02.35-.78.72-1,.5Z"/>
  <path class="cls-1" d="M100.41,78.63c-.47.47-1.59-.93-.5-1,.35-.02.72.78.5,1Z"/>
  <path class="cls-1" d="M185.41,146.63c5.11,2.72,2.86,6.21-.09,2.5-.63-.79-.26-1.71.09-2.5Z"/>
  <path class="cls-1" d="M130.4,189.63c-.35.68-1.7-.59-.98-1.99.35-.68,1.7.59.98,1.99Z"/>
  <path class="cls-1" d="M130.41,191.63c-.47-.47.93-1.59,1-.5.02.35-.78.72-1,.5Z"/>
  <path class="cls-1" d="M165.41,190.63c-.52-.48.95-1.5,1.99-.99.92.45-1.22,1.71-1.99.99Z"/>
  <path class="cls-1" d="M168.91,190.63c.65.33.65.67,0,1v-1Z"/>
  <path class="cls-1" d="M142.41,74.63c-.16-.08-2.12-2.84-2-2.99,2.1-2.65,10.27.9,9.99,4.99-1.98-1.55-6.4-1.19-7.99-2Z"/>
  <path class="cls-1" d="M187.41,120.63l-1.98-1.51c-.02-1.24,2.44,1.05,1.98,1.51Z"/>
  <path class="cls-1" d="M202.41,114.63c.3-1.8,3.26-.79,4.99-.99v.98s-4.99.01-4.99.01Z"/>
  <path class="cls-1" d="M57.41,145.63c.45-1.44-.85-1.61,1-2-.35.92-.89,1.67-1,2Z"/>
  <path class="cls-1" d="M57.41,148.63c-2.44-.68-.25-2.21,0-3-.24.7.16,2.1,0,3Z"/>
  <path class="cls-1" d="M139.41,234.63c-3.69.34-22.13-.55-22.99-4.56-.35-1.64,16.53-23.05,15-28.43,2.59-.27,3.58,3,5.86,3.49,1.52.32,11.39-.2,12.14.51l-2.89,27.42c-.21.29-6.28,1.5-7.11,1.58Z"/>
  <path class="cls-1" d="M160.91,101.63c.65.33.65.67,0,1v-1Z"/>
  <path class="cls-1" d="M126.41,9.63c-.27-.38-1.7-.76-1.99-1.5-.86-2.2,1.53-2.06,1.99,1.5Z"/>
  <path class="cls-1" d="M128.41,7.63c.47.47-.93,1.59-1,.5-.02-.35.78-.72,1-.5Z"/>
  <path class="cls-1" d="M207.41,54.63c.15.94-.36,1.37-1.02.52-.87-.85-.77-2.29-.98-2.52.45.25,1.98,1.86,2,2Z"/>
  <path class="cls-1" d="M123.41,76.63c-.72.23-2.09-.14-3,0,1.97-3.04,5.03-6.23,9-5.98-.84,1.49-4.76,5.59-6,5.99Z"/>
  <path class="cls-1" d="M103.41,102.63c-1.92-1.5-4.2-2.09-1.5-4,.85.73,1.38,2.91,1.5,4Z"/>
  <path class="cls-1" d="M81.41,127.63c.47.47-.93,1.59-1,.5-.02-.35.78-.72,1-.5Z"/>
  <path class="cls-1" d="M156.41,128.63c-.47.47-1.59-.93-.5-1,.35-.02.72.78.5,1Z"/>
  <path class="cls-1" d="M86.41,19.63c-3.03-.87-6.82-1.18-10.2-2.29-1.51-.5-5.21-1.3-5.79-2.7,2.43-.31,16,3.26,16,4.99Z"/>
  <path class="cls-1" d="M120.41,21.63c-.48.52-1.5-.95-.99-1.99.45-.92,1.71,1.22.99,1.99Z"/>
  <path class="cls-1" d="M74.41,43.63c-.47.47-1.59-.93-.5-1,.35-.02.72.78.5,1Z"/>
  <path class="cls-1" d="M74.41,33.63c-.47.47-1.59-.93-.5-1,.35-.02.72.78.5,1Z"/>
  <path d="M141.41,188.64c.68.35-.59,1.7-1.99.98-.68-.35.59-1.7,1.99-.98Z"/>
  <path d="M111.41,202.62c-2.43-.28-4.54-.98-6.98-.48,1.65-2.24,5.87-2.39,6.98.48Z"/>
  <rect x="105.42" y="198.64" width="4.99" height=".98"/>
  <path class="cls-1" d="M132.92,188.06c-3.08-3.08-20.36-9.35-21.23-13.37-.35-1.64,16.53-23.05,15-28.43,2.59-.27,5.53.4,7.81.88,1.52.32,13.91-.19,15.02,1l-7.14,43.06c-.32-.21-8.15-1.82-9.46-3.13Z"/>
</svg>