<?xml version="1.0" encoding="UTF-8"?>
<svg id="Layer_1" data-name="Layer 1" xmlns="http://www.w3.org/2000/svg" viewBox="0 0 222.99 186.17">
  <defs>
    <style>
      .cls-1 {
        fill: #fefefe;
      }
    </style>
  </defs>
  <path d="M148.99,89.12c1.85.49,2.28,5.35,1.58,6.66-1.64,3.09-1.2-.5-.75,1.1,1.27,4.51-2.6,1.88-4.83.24-2.79-2.36.48-9.51,4-8Z"/>
  <path d="M38.99,116.12c.26,3.22-6.73,4.91-8,2,.6-1.98,6.69-3.65,8-2Z"/>
  <path d="M193.99,120.12c-.65.52-1.29.43-2,0-.61-1.58,6.59-6.28,7.06-6.17,2.83.67-2.41,6.32-5.06,6.17Z"/>
  <path d="M153.99,116.12c-1.53,2.8-5.89,1.19-5-2,2.47-2.02,5.31-1.53,5,2Z"/>
  <path d="M38.99,113.12c.74,1.89-.71,2.51-2,1-.87-2.61-.06-2.8,2-1Z"/>
  <path d="M36.99,114.12c0,.52-.03,1-.26,1.37-.29.48-9.78,2.82-10.74,1.63-1.9-3.97,9.98-8.62,11-3Z"/>
  <path d="M46.99,134.12c-1.34,7.88.61,15.52,9.06,18.23,3.1,3.66-4.72,1.58-7.16.36-5.87-2.93-8.42-13.58-3.89-18.59.73-.55,1.5-.81,2,0Z"/>
  <path d="M127.99,117.12c-.32.64-.65.64-1,0-.44-.87-.06-1.17,1-1,.6.27.58.61,0,1Z"/>
  <path d="M46.99,112.12c2.78,3.33-6.19,7.7-8,4,.13-2.37,5.99-5.22,8-4Z"/>
  <path d="M71.99,141.12c.66,4.6-8.32,3.9-11.12,2.4-3.58-1.93-6.36-6.2-3.88-9.4l1.36-.08c3.65,6.3,7.3,7.38,13.64,7.08Z"/>
  <path d="M40.99,112.12c.86,1.86-.66,2.48-2,1-.73-2.6.02-2.82,2-1Z"/>
  <path d="M157.99,118.12c-1.77,2.43-4.33.93-4-2,1.72-2.48,4.73-.89,4,2Z"/>
  <path d="M78.99,136.12c-.34,1.78-.81,2.59-2,1-1.95.16-1.3-.88,0-2,.75-1.82,1.41-2.15,2-1,.77.57.48,1.22,0,2Z"/>
  <path d="M145.99,111.12c-.3.61-.63.59-1,0-.62-.33-.62-.66,0-1,1.62-1.16,2.17-.67,1,1Z"/>
  <path d="M127.99,116.12c-2.61-5.49,10.21-9.47,11.08-5.94.51,2.07-7.48,8.45-10.08,6.94l-1-1Z"/>
  <path d="M142.99,110.12c1.13.02,1.79.35,2,1,.4.54.74.54,1,0-.35-1.71,5.33-1.53,5.71-.55,1.64,4.29-1.42,3.66-4.44,2.14-.12-.06,1.9.14,1.73,1.42-2.8,2.84-11.71-1.16-10-5,.39-2.02,1.72-1.69,4,1Z"/>
  <path d="M54.99,140.12c-.28.86-.61.84-1,0-1.17-2.1-1.9-7.72,1-7,1.31,1.6,2.55,6.68,0,7Z"/>
  <path d="M51.99,109.12c1.46,2.61-3.18,5.56-5,3-1.32-1.93,3.52-4.76,5-3Z"/>
  <path d="M25.99,117.12c1.51.36,1.18,1.03-1,2-.84.93-1.7,1.79-3,2l-7,7c-.39,1.57-.85,2.38-2,1-1.12-.05-.82-1.25,0-2,.51-.46.51-.8,0-1-.11-4.3,8.62-12.98,13-9Z"/>
  <path d="M53.99,108.12c.55,2.68-.16,2.96-2,1-.54-1.79.9-2.45,2-1Z"/>
  <path d="M194.99,109.12c6.38-1.99,5.51,3.82-.31,3.87-.23,0-.46-.38-.69-.87l-1-2c-2.39-1.67-1.9-2.92,1-3l1,2Z"/>
  <path d="M49.99,107.12c-.59,2.6-6.54,6.47-9,5-1.17-3.23,7.01-8.04,9-5Z"/>
  <path d="M58.99,106.12c1.41,2.65-3.48,4.48-5,2-.32-1.98,3.89-3.82,5-2Z"/>
  <path d="M127.99,118.12c-.6-.27-.58-.61,0-1,.32-.64.65-.64,1,0,.42.86.04,1.16-1,1Z"/>
  <path d="M38.99,133.12c.78,1.22-4.05,8.13-4.87,8.22-5.64.64-4.23-3.13-.13-5.22l1-1v-1c-.27-1.52,3.34-2.73,4-1Z"/>
  <path d="M54.99,105.12c0,1.83-3.84,3.74-5,2,.21-3.14,2.92-4.37,5-2Z"/>
  <path d="M61.99,137.12c-1.07,1.12-1.55.49-1-1,1.16-.81,1.62-.29,1,1Z"/>
  <path d="M11.99,119.12c5.33-7.65,9.62,1.58,1,3l-1-1c-1.25-.23-1.32-1.53,0-2Z"/>
  <path d="M30.99,118.12c-.53,3.32-4.23,4.92-7,3-.58-.63-.25-1.3,1-2,1.36-1.62,4.48-2.46,6-1Z"/>
  <path d="M77.99,109.12c-1.66.71-15.73.62-16.24-.34-.32-.59-.07-1.33.26-1.89-.89,1.73-2.03.87-3.01-.77,3.64-4.4,16.85-2.85,19,3Z"/>
  <path d="M56.99,104.12c.84,1.59-.72,2.19-2,1-.59-2.7.14-2.98,2-1Z"/>
  <path d="M180.99,123.12l-1.6,1.65c-3.96-1.42-11.85-3.67-10.55,2.71-1.46,5.11-2.6,10.29-1.74,15.82,1.36,2.09.96,6.99-1.49,7.67,3.05.01,1.78,8.05-1.63,8.15-1.79,1.78-3.79,3.12-6,4-.27.65-.61.63-1,0l-1.21-1.73c5.08-6.94,5.91-13.74,6.36-22.08.14-2.62.74-16.82.43-17.66-2.2.56-4.64-1.04-4.58-3.54l2-1.62c5.23.03,21.37.48,21,6.62Z"/>
  <path d="M70.99,137.12l2,1c-.68,4.27-11.02,4.27-11-1,2.57-1.95,2.12,1.38,1.65-.13-.07-.23.1-.54.35-.87.34-1.01,4.53-.17,6.07.26.35.1.65.39.93.74Z"/>
  <path d="M195.99,105.12h1c6.25-3.09,3.13,5.9-2,4l-1-2c-2.89-.92-1.83-3.81,1-4l1,2Z"/>
  <path d="M13.99,132.12c3.8,2.35-1.13,8.82-3,4-.74-1.11-1.49-2.65,0-3,1.1-1.44,2.1-1.78,3-1Z"/>
  <path d="M138.99,109.12c-.69,1.15-4.62.26-4-2l-1-1-1-1c-.7-.98-.7-1.65,0-2,2.62-1.6,7.57,3.41,6,6Z"/>
  <path d="M184.99,21.12c2.2,3.42-3.06,4.52-4,1-.77-2.42.56-2.75,4-1Z"/>
  <path d="M83.99,129.12c-.55,1.76-3.57-1.9-3.34-1.9,3.25-.04,5.42,15.71.34,15.9l-1.62-1.18c.93-2.13.8-3.07-.38-2.82-1.84,0-1.3-1.99,0-3,.6-.88.6-1.55,0-2-.68-.51-1.35-.17-2,1-.25,1.45-.88,1.99-2,1h-1c-.09.64-.28,1.02-1,1-.58.85-1.3.77-2,0,.98-1.24-4.38-1.11-7-1-3.16.94-3.29-3.72-3.01-6.32l-.99-1.68c-.82-.93-1.82-1.6-3-2-2.34-1.24,1.64-2.78,1.5-2.62-.81.9-3.06,2.33-3.5.62-.62-.62-1.29-.62-2,0-1.16,1-2.86,1.82-3,0-.24-.88-.26-1.98.46-2.38,4.73-2.6,14.69-5.2,19.69-4.5,5.4.76,15.9,5.82,13.85,11.88Z"/>
  <path d="M73.99,137.12v-1h1c1.15,1.17.58,1.66-1,1Z"/>
  <path d="M56.99,104.12c-1.78-5.85,11.59-4.52,15.74-3.44,9.83,2.56,26.62,18.59,32.5,27.03,7.82-6.63,10.91,9.01,1.15,6.88-1.67,10.02-12.57,2.4-5.39-2.47,1.06-2.17.06-4.83-3-8l-1-1c-.38-.47-.72-.47-1,0l-2.3.62-12.86-8.92c.57-1.29.15-2.05-.84-2.7,5.76,4.53-4.46,5.8-3.5,0-1.47,3.27-13.75,3.13-15.5,0-3.91-.44-1.28-4.99,2.06-2.78,6.61-.84,12.26.08,16.94,2.78-2.24-1.17-2.91-2.17-2-3,.11-1.68,3.52,1.18,3.35,1.05-7.15-5.59-14.1-8.51-23.22-5.09l-1.14-.96Z"/>
  <path d="M61.99,179.12l-2,1c-1.92.88-3.26.88-4,0,.3-5.83,11.41-5.75,6-1Z"/>
  <path d="M55.99,180.12c-3.13,5.56-15.45,2.15-21,0-3.83-2.56-7.13-5.88-10.36-9.16-.47-.48-.2-1.18.36-1.84.99-1.27,1.81-1.77,2.97-.75,7.8,8.62,13.73,11.68,26.04,9.96l1.99,1.79Z"/>
  <path d="M24.99,169.12c.05,4.02-5.75-1.12-2-2,2.49-1.22,2.94-.59,2,2Z"/>
  <path d="M132.99,103.12c-.57.48-1.24.14-2-1-.53-.93-.53-1.59,0-2,2.66-1.52,3.77.65,2,3Z"/>
  <path d="M11.99,122.12c-.29.78-.62.76-1,0-.57-1.92-.56-2.38,1-1,.62.27.6.6,0,1Z"/>
  <path d="M123.99,166.12c-1.34,1.25-4.19-.43-3-2,2.31-2.94,5.52-.76,3,2Z"/>
  <path d="M178.99,25.12c5.42-3.24,3.27,5.27,0,1v-1Z"/>
  <path d="M23.99,121.12c1.23,2.94-.97,4.59-3,2-.36-.65-.03-1.31,1-2,1.01-.79,1.67-.79,2,0Z"/>
  <path d="M163.99,159.12c3.56-4.76,5.58,4.44,0,3l-1,1c-1.07.85-1.73.85-2,0-1.15-1.28,1.44-3.5,3-4Z"/>
  <path d="M50.99,184.12c-8.41.81-17.01-.49-23.94-6.56-3.04-2.67-13.44-14.51-15.11-17.9-.64-1.31-.65-3.9-1.06-4.43-.16-.21-2.51,1.56-4.13-2.37-3.19-7.76.87-17.87,2.16-25.32,1.86-10.67-.47-11.69,7.12-21.65,5.42-7.12,27.24-24.99,35.28-28.95,12.26-6.04,27.09-9.28,40.73-7.29,4.49-7.54,7.49-17.49,17.76-17.71.8-7.09,7.6-9.72,12.12-13.39,1.46-1.19,2.26-4.09,4.08-4.92,3.69-1.68,13.22-.6,16.97,1.49,4.37-13.61,18.08-13.5,30.01-10-1.07-10.32,4.52-10.42,11.99-6.01.18-2.8,1.77-8.97,4.72-9.84,3.62-1.07,6.1,2.97,10.3.85l-1.02,1.98c2.99-.84,2.31,1.28,4,2l-4-8.99c-5.74,6.99-4.18.31.52-2,.7,5.1,7.63,8.06,2.5,12.98,5.26.42,7.94,3.77,8.82,8.79.35,1.98-.66,4.14-.26,5.27.28.79,2.11,1.88,2.7,3.21,2.35,5.27-1.04,12-7.26,11.76,6.05,10.21,9.49,25.43-3.99,30.48,6.69,2.6,10.33,2.63,12.71,10.29,3.41,10.98-.47,17.18-6.71,25.72-1.17,1.6-4.45,3.61-4.87,5.21-.67,2.57,2.36,4.4,2.82,6.84.35,1.83.38,8.12-.14,9.78-.63,2.05-2.78,2-3.52,2.98-2.21,2.97-4.41,12.14-7.45,16.06-1.2,1.54-5.68,4.51-7.53,5.47-12.18,6.29-44.32,16.24-57.59,13.94-3.78-.66-9.7-4.82-10.29-4.82-1.35,0-2.54,1.54-3.9,1.61-2.16.1-5.08-1.15-7.54-.54l5.99,1.98-7.99.02.53,1.97c-5.37-.97-12.71-2.63-18.06-2-4.2.5-5.82,3.04-9.47,4.01,3.64-5.83,10.43-5.18,16.5-4.99,6.84.21,3.08-.46,5.18-.98,3.09-.77,8.89-.5,12.32-1.02-2.14-3.73-8.45,1.21-12,0-.17-1.9,2.41-.59,3.88-1.13.23-.08.07-.84.11-.86-1.14-.01-4.21.74-3.99-.99l6.99-1.51c-2.43-2.2-3.38-5.16-6.99-3.49v-4.02s-2.01.5-2.01.5c1.08-3.25,4.47-4.27-.5-4.37-1.07,3.89-5.92,9.72-9.47,12.4-3.96,3-8.66,4.11-12.76,7.18-2.01,1.5-4.18,5.07-5.88,6.18-4.06,2.66-14.6,6.66-19.38,7.12,1.41-1.99,5.96-3.3,9-4l2-1,.36-2.31c4.25-.56,6.44-2.26,6.57-5.11,9.68-5.67,18-12.53,24.94-20.59.51-3.12,1.55-5.45,3.13-6.99l-.09-1.68c-1.16-8.13,6.17-6.02,3.09,1.68v2c1.98-.24-1.07,3.19-.99,3,.56-1.38,1.75-3.16,2.99-2q.71,5.38,0,0c-.62-.18-1.09-.34-1.08-.4.54-2.72,3.1-1.83.16-.18-.21.12-.62-.1-1.08-.42v-2l.89-2.85c-.97-3.11-.68-3.82.89-2.14,2.72-2.65,3.43-.51,3.85,2.67-.16,6.11.3,11.89,1.37,17.33.33,1.18.84,1.65,2,2l1,1,1,1c.64.33.64.66,0,1l-6,1c1.92-.49,3.92-.82,6-1,.52-.37.52-.71,0-1l-1-1-1-1c-1.11-.24-1.79-.86-2-2-1.93-1.82-1.44-2.92,1-2l1,1h1l1.37-.66c-5.67-4.9-5.86-8.16-.57-9.76,1.48-8.61,3.81-17.32,8.34-24.87,1.73-2.88,4.34-7.23,7.86-5.71l1,1,.7,2.13c-7.05,6-8.77,13.08-9.06,20.96l-1.64-.09c-.41-.47-.74-.47-1,0-2.71-.63-.09,2.27,1.96,3.71,4.12,2.92,2.7,5-1.84,3.7l-1.12,1.58-1,1c-.37,4.71,2.6,8.99,6.46,11.74l-.46,1.26c-1.74,1.09,1.67,3.37,3,2-.84-4.78,5.23-2.52,3.19,1.83,8.77,3.08,20.26.95,27.39-5.15l2.42.32h1c1.75-1.34,2.75-1.34,3,0-2.52,2.51-1.85,2.51,2,0l1-1c1-1.45,2.12-1.12,3.36.99l4.89-1.87c3.05-2.06,5.97-3.1,8.75-3.13l7-3c1.94-1.03,3.61-2.36,5-4,.6-.79.27-1.56-.62-2.32,3.69-3.92,4.82-6.53,4.33-11.47,2.46-.95,3.28-2.77,2.47-5.44,2.15-.33,3.75-1.58,4.82-3.76-.99,1.97-3.65,5.53-5.23,3.23-3.96-5.76,8.22-11.8,5.23-3.23,2.33-5.79-4.37-4.98-5.44-.62-3.16-2.69-5.41-4.12-9.61-2.66l-1.95-1.72c-1.97-.75-3.71-1.62-5.24-2.61l7.54-6.57c.58-3.13,1.81-4.4,3.7-3.81l1,2c8.61-.53,4.33,2.48-.6,5.66l-1.4,2.34c.76.43,1.26.46,2,0,3.58-1.02,5.9-2.66,5.25-6.5,6.34-4.73,11.32-9.04,11.74-17.62,4.16-1.76.43-12.38-2.51-14.33-.85-.57-7.18-2.72-7.35-2.37-2.94,5.82-4.19,5.02-6.22-1.03-1.58-.67-2.93-1.67-3.92-3.15l-1.25-2.13c2.51-7.18,5.42-16.41,1.75-23.5-1.25-2.69,6.78-2.76,7.77-2.12,2.22,1.44,3.01,12.01-1.27,12.75q-.3.39,0,0c5.26-1.94,1.48,9.1-2,4q-.39-.3,0,0c2.56-.4,3.56,2.03,3.02,7.3,13.84,3.07,10.99-26.84-.91-23.03-.77-1.65-1.7-1.65-2.32.08l-1.57-1.19c-2.39,2.23-12.12,1.42-9.22-3.16-.36-2.08-.22-2.54.44-1.4-2.26-2.17-3.75-5.88.56-4.6.32.49.66.48,1,0,6.46-.6,8.79,6.28,0,7,4.04-1.55,11.47-4.16,14,0l-1.87-1.38,1-7.94c-1.42-4.59.21-6.81,4.88-6.68q3.05,3.75,0,0c-1.84.92-4.34.56-7.49-1.09-2.62.68-4.8.71-6.51.09-2.94.43-3.51-2.61-1-4,1.54-2.44,6.07-1.61,7.57.1l1.88-1.05c12.48,6.04,10.43-.13,1.19-4.46l-.64-2.6c5.03,2.9-.67,11.36-4.41,7.57-.4-.41,1.79-11.23,4.41-7.57-1.86.6-3.34.44-4.45-.49-2.51,2.06-3.73,4.48-3.66,7.28l-1.89,1.22c-1.73,2.89-6.1-.02-5-3-1.25-.44-2.57-.53-3.96-.26-4.16-2.48-5.47.23-.04,1.26,4.48,2.23,1.34,3.08-2,3v1c1.52,1.23,1.75,3.42.69,6.56.94,2.46.71,4.28-.69,5.44-1.36,3.83-4.68,1.79-4.92-1.86l-10.56-.31-1.52-1.83c-.74-1.67-.44-2.49,1.27-2.83,21.61,1.58-2.64-9.86-9.51-2.98-1.33,1.13-2.95,2.2-4.76,1.81-.28-.74-.61-.72-1,0,1.09,2.15.51,4.45-1.75,6.9.68,2.53.86,4.86-2.25,5.1-1.97.27-2.33-.52-2.4-2.23-8.67-6.85-25.14,5.83-29.09,14.71l-2.51.52c-3.8-1.56-9.19,3.69-13,9q-1.02,1.81,0,0c2.24-3.09,4.83-5.84,7.76-8.26,2.83-.14,1.89,4.49-1.76,5.26-.67-.82,2.29-3.25,3.12-1.01,2.21,5.88-6.79,8.1-3.12,1.01l-.99,2.7c1.71,1.91,1.61,5.66-1.47,5.84.27,5.71-2,10.06-7.55,7.45-.33-.66-.66-.66-1,0l-.53,4.97c2.82,2.83,7.56,13.7-.47,9.03l-2-2c-.79-.46-1.45-.46-2,0-.28.66-.62.64-1,0l-1-1c-1.57-.31-2.54-1.07-1-2v-1c-.64-.33-.64-.66,0-1,1.49,0,1.16-.67-1-2l-2.28-1.66c-13.62-.4-3.59-6.58,4.27-4.63.13-.1-.39-3.09-.47-3.23-2.14-3.7-32.46,5.52-36.19,9.94,1.18-.15,2.05.6,2.67,1.59l1,1-.36,2.18c-15.08,5.64-33.26,12.85-37.37,30.36l-2.27,1.46c-.85.4-1.18,1.4-1,3l1,1c.98.37.98,1.7,0,4,.19.91.52,1.58,1,2,1.58,1.16-.35,3.33-2,4-1.16.6-1.37.05-1.46-1.14l1.46,4.14,1.69,2.04c-4.31,17.96,9.16,32.15,22.31,41.96,4.82,1.97,10.01,2.98,15.55,3.04l.45.96Z"/>
  <path d="M22.99,167.12c-3.12.81-7.86-6.93-7.75-9.52l1.75-1.48c2.87.56,8.47,8.2,6,11Z"/>
  <path d="M130.99,100.12c-.96.1-1.47-1.1-1-2,2.62-.7,2.95.13,1,2Z"/>
  <path d="M109.99,158.12c-.31.63-.64.62-1,0l-1-1c-5.24-4.42,5.18-3.98,2,1Z"/>
  <path d="M11.99,123.12c-.86-.25-.84-.58,0-1,.32-.61.66-.61,1,0,1.07,1.36.54,1.88-1,1Z"/>
  <path d="M188.99,153.12c1.07.51.74,1.18-1,2-1.07.66-1.74.66-2,0-1.1-.38-.77-1.05,1-2,.1-.84,1.35-.66,2,0Z"/>
  <path d="M190.99,28.12c5.15.5,2.28,7.06-2,3-2.82-1.65-.83-4.72,2-3Z"/>
  <path d="M144.99,97.12l3.36,2.14c2.47-2.14,3.76,1.71,1.46,3.44,2.15,4.72,2.2,9.81-3.83,6.67l-.99.75c-.41.42-1.07.42-2,0-6.68-1.66-2.95-12.4,2-13Z"/>
  <path d="M116.99,153.12c2.21,2.41,4.78,4.37,7.72,5.88.75,9.97-11.04-.73-8.72-5.88.33-.63.67-.63,1,0Z"/>
  <path d="M189.99,150.12c.4.31.39.64,0,1l-1,1c-.39.89-1.44.7-2,0-1.09-1.77,1.83-3.33,3-2Z"/>
  <path d="M147.99,30.12c.34-.87.67-.87,1,0,3.68,2.21-2.73,4.31-1,0Z"/>
  <path d="M129.99,98.12c-.97,0-1.36-1.14-1-2,2.73-.28,3.03.16,1,2Z"/>
  <path d="M19.99,124.12c-.28-.95.05-1.29,1-1,1.31,1.44.73,2-1,1Z"/>
  <path d="M188.99,31.12c4.77-.52,3.67,5.64.54,7.14-.31.15-2.74-2.09-2.54-3.14-2.85-1.4-.81-5.1,2-4Z"/>
  <path d="M186.99,152.12c.91.24.89.58,0,1-1.14.77-1.48,1.44-1,2-.9,1.72-2.56,2.72-5,3-7.49,3.73,1.16-10.59,5-8,2.46-.33,2.79.34,1,2Z"/>
  <path d="M127.99,96.12c1.43,1.61,2.43,3.61,3,6,1.1.78,1.74,1.64,2,3l1,1,1,1c2.09,1.43.37,2.29-1.72,2.58-2.86.4-11.3-12.02-7.28-14.58h1l1,1Z"/>
  <path d="M13.99,132.12c-1.35-1.03-.69-2.29,1-2,2.37,1.58,1.84,2.4-1,2Z"/>
  <path d="M115.99,150.12c8.34-2.05,7.82,12.64,1,3-.33-.48-.66-.48-1,0-1.55.73-2.14-.84-1-2l1-1Z"/>
  <path d="M125.99,95.12c-1.46,1.29-2,.7-1-1,.34-.63.67-.63,1,0v1Z"/>
  <path d="M76.99,150.12l7.69-.5c3.17-3.92,6.88,3.36,1.13,4.56l-8.07-.03c-8.46,6.16-19.36,4.87-28.99,2.37l-.76-2.41,1.01-1.21c3.58,1.49,6.14,1.59,7.68.29,6.48.75,14.04,1.42,19.31-3.09h1Z"/>
  <path d="M95.99,142.12c-.01,4.14-1.79,3.27-5.35-2.63-4.19-1.55-9.21-5.55-6.65-10.37,4.36-1.43,15.07,8.65,12,13Z"/>
  <path d="M97.99,124.12c1.06,1.26,1.06,1.93,0,2-2.65,1.09-3.93-.83-2-3,.31-.59.64-.58,1,0l1,1Z"/>
  <path d="M53.99,140.12c.88.44.66,1.22,0,2-3.02,3.32-6.23-4.12-2-5,.99-.37,1.66.63,2,3Z"/>
  <path d="M192.99,151.12c-.65,1.59-2.58,3.3-4,2-.86-.26-.84-.59,0-1l1-1,1-1,1-1c2.27-2.38,2.77-.52,1,2Z"/>
  <path d="M72.99,138.12c-.87-.32-.87-.65,0-1h1c.99,1.24.45,1.73-1,1Z"/>
  <path d="M161.99,34.12c.83,2.75-1.32,3.19-3,1,.15-2.98,1.28-3.47,3-1Z"/>
  <path d="M87.99,92.12c-.93.26-1.26-.07-1-1,.32-.4.65-.39,1,0,.55.28.52.62,0,1Z"/>
  <path d="M86.99,91.12c-.95.28-1.28-.05-1-1,.29-.66.62-.64,1,0v1Z"/>
  <path d="M186.99,123.12c-.33,3.58-5.6,3.62-6,0,.65-1.47,5.5-1.94,6,0Z"/>
  <path d="M88.99,89.12l2,2,3.17.65c2.66,3.7,5.52,6.68,8.57,8.93,1.09-4.94,3.18-7.47,6.26-7.58,3.43,1.58,2.13,7.35.22,9.93,1.47,2.95,2.27,6.22,2.21,9.51,4.75,2.21,3.44,12.14-.56,12.36-2.57.14-4.91-5.48-2.82-7.55-4.42-8.84-12.16-17.37-20.47-22.82l.43-2.43c.49-.31.49-.65,0-1l-1-1c-.67-.27-.65-.6,0-1-.43-1.52.23-1.52,2,0Z"/>
  <path d="M158.99,35.12c5.96,2.02-2.46,8.51-4,2-.67-3.01,1.98-4.31,4-2Z"/>
  <path d="M186.99,38.12c-.27.86-.6.84-1,0-2.4-1.71-1.89-3.25,1-3,1.62,1.27,2.09,2.24,0,3Z"/>
  <path d="M76.99,137.12c2.4,1.25-.99,5.23-2,2-.84-1.35.62-2.76,2-2Z"/>
  <path d="M46.99,129.12c2.06,1.98-1.21,3.34-3,2-1.7-1.71,1.53-3.49,3-2Z"/>
  <path d="M85.99,90.12c-.93.25-1.27-.08-1-1h1c.66.29.64.62,0,1Z"/>
  <path d="M40.99,129.12c-.6,2.12-2.76,3.55-6.48,4.27l.48.73c.63.31.62.65,0,1l-1,1c-2.02,3.37-4.03,4.4-6.02,3.11-2.99,3.35-6.31,5.31-9.98,5.89-3.23-6.31,5.46-11.56,10.74-13.99,2.95-1.35,10.06-4.17,12.26-2.01Z"/>
  <path d="M128.99,96.12c-.27.86-.61.84-1,0l-1-1-1-1c-.38-.47-.71-.47-1,0-3.27,1.13-12.29-4.62-5-6,3.53-1.67,11.7,4.49,9,8Z"/>
  <path d="M84.99,88.12v1c-1.86,2.01-2.49,1.65-2-1,0-1.78,1-1.26,2,0Z"/>
  <path d="M154.99,37.12c4.17,2.43-1.38,9.33-3,2-1.01-2.83.66-3.86,3-2Z"/>
  <path d="M184.99,44.12c-.34,2.62-1,2.35-2,0l-1-1c-3.36.45-5.36-2.4-3-5,2.74-3.43,6.71,3.4,6,6Z"/>
  <path d="M82.99,88.12c-1.5,2.31-2.25,1.73-2-1,1.01-1.26,2.3-.64,2,1Z"/>
  <path d="M80.99,87.12c-1.53,2.24-2.18,1.66-2-1,.74-1.26,2.39-.46,2,1Z"/>
  <path d="M18.99,125.12c-.85-1.08-.31-1.5,1-1,1.31,1.44.73,2-1,1Z"/>
  <path d="M49.99,124.12c.5,1.92-5.56,5.89-7,4-.52-3.12,4.87-6.75,7-4Z"/>
  <path d="M151.99,39.12c7.15,7.55-2.35,11.43-2,1-.8-2.67-.06-2.75,2-1Z"/>
  <path d="M78.99,86.12c-1.64,2.18-2.44,1.7-2-1,.76-1.13,2.26-.34,2,1Z"/>
  <path d="M148.99,41.12c-1.43-1.41-.85-1.97,1-1,.68,1.76.59,2.1-1,1Z"/>
  <path d="M151.99,84.12c6.45,1.98,4.15,8.16-3,5-3.17-1.68-.12-6.64,3-5Z"/>
  <path d="M151.99,84.12c-1.25-1.53-.68-2.06,1-1,1.32,1.49.69,2.09-1,1Z"/>
  <path d="M191.99,149.12l-1,1h-1c-1.85-.36-1.48-.98,0-2,1.8-2.53,3.19-1.83,2,1Z"/>
  <path d="M148.99,41.12c1.65,2.53,4.22,8.03,3.86,11.32-.09.85-.92,1.45-1.7,1.81,1.11,2.54.72,4.17-1.16,4.87-2.14,1.63-3.08-.51-3.88-2.56-1.8-10.47-11.04-9.04-19.18-5.65-.46,5.44-4.7,8.83-10.1,10.17l-.85-3.95-1-1c-.11-4.61,7.82-8.9,11.99-10.7,5.81-2.51,12.01-3.76,17.38-1.25.12.05-2.29.6-.37-1.05,1.16-2.63,2.49-4.52,5-2Z"/>
  <path d="M57.99,83.12c-1.06.14-1.06.48,0,1-.06,2.97-4.86,3.65-6,1l-1-1c-.89-4.2,7.56-5.99,7-1Z"/>
  <path d="M54.99,124.12c.54,1.75-.86,2.41-2,1-.86-.28-.85-.62,0-1,.72-.63,1.36-.83,2,0Z"/>
  <path d="M46.99,129.12c-1.28-1.44-.72-1.99,1-1,.28.95-.05,1.28-1,1Z"/>
  <path d="M143.99,42.12c.79.32.78.66,0,1-5.02,3.49-3.81-5.95,0-1Z"/>
  <path d="M82.99,82.12c1.6.65,1.93,1.31,1,2v1c.64.33.64.66,0,1-1.69.59-4.01-.02-6.96-1.81l-.04.81c-2.17,1.6-5.35,1.87-9.53.81-4.37.68-7.52.08-9.47-1.81-.82-.33-.82-.67,0-1,1.94-2.6,6.65-2.57,9.11-.98-.96-1.34-.62-2.16.83-3.02,1.62-.97,13.7,1.11,15.06,3.01Z"/>
  <path d="M16.99,156.12c-4.11-.58-4.27-9.12,0-9,2.87.92,2.63,7.75,0,9Z"/>
  <path d="M181.99,43.12l1,1,.57,1.18c-4.88,5.48-7.87,9.15-9.42,16.41l-1.59.49c-.74,7.45-4.75,12.35-8.27,4.58,3.76-6.79,7.66-13.34,11.7-19.66-2.25-3.13,3.59-7.63,6-4Z"/>
  <path d="M16.99,147.12c-2.36-1.42-1.71-2.56,1-2,2.2,1.71,1.71,2.36-1,2Z"/>
  <path d="M194.99,89.12v2c-2.12,1.78-8.8-9.39-8.44-9.99,3.3-5.52,7.65,4.54,8.44,7.99Z"/>
  <path d="M73.99,145.12c1.53,5.75-16.75,5.73-16,0l1-1c1.44-.6,3.52-.47,6.25.41,3.46-.61,6.38-.41,8.75.59Z"/>
  <path d="M194.99,89.12l-2.62-6.29c-3.48-3.63-3.34-5.81.43-6.53,3.05,1.99,4.64,5.69,5.75,9.51.76,2.63,2.25,16.77,1.99,17.97-.27,1.05-1.45,1.49-3.55,1.33-.29.63-.63.62-1,0l-1-2c-2.75-1.57-2.96-10.59,0-12v-2Z"/>
  <path d="M17.99,126.12c-.28-.95.05-1.28,1-1,1.29,1.44.72,1.99-1,1Z"/>
  <path d="M92.99,77.12c8,4.78-3.93,12.43-1,0,.33-.87.67-.87,1,0Z"/>
  <path d="M42.99,128.12c.73,2.03-.65,2.71-2,1-.28-2.01.55-2.42,2-1Z"/>
  <path d="M190.99,75.12c2.41,1.74-1.37,5.33-3,2-2.44-2.48.96-4.78,3-2Z"/>
  <path d="M174.99,48.12c-.43-.87-.05-1.17,1-1,.85,1.31.34,1.82-1,1Z"/>
  <path d="M173.99,49.12c-1.34-1.46-.75-2.03,1-1,.27.94-.06,1.27-1,1Z"/>
  <path d="M73.99,140.12c-1.29-1.08-.64-1.58,1-1,.29.95-.05,1.29-1,1Z"/>
  <path d="M172.99,51.12c-2.14-1.77-1.75-2.61,1-2,1.51.74.68,2.1-1,2Z"/>
  <path d="M160.99,75.12c.89.28.88.61,0,1,.54,3.17-4.92,7.36-8,7-2.5-4.29,3.3-11.48,8-8Z"/>
  <path d="M75.99,143.12c-2.53-1.53.69-4.13,3-4,2.34,1.85-.17,6.25-3,4Z"/>
  <path d="M59.99,128.12c1.62,1.1,1.22,5.97,1,8-1.42-.9-2.75-1.57-4-2-1.17,1.51-1.56.6-2-1-1.11-.63-1.11-1.96,0-4l2-2c1.47-1.2,3.57-1.14,3,1Z"/>
  <path d="M162.99,74.12c.64.31.63.65,0,1-.62.54-1.43.59-2,0-.89-.29-.87-.62,0-1,.06-2.56.72-2.56,2,0Z"/>
  <path d="M52.99,125.12c.38,1.89-.36,1.73-2,1-.6-1.52.76-1.7,2-1Z"/>
  <path d="M52.99,128.12c-2.37,3.82-3.07,7.24-3.11,11.64l-1.89,1.36c-1.14,1.22-1.23.84-1.51-.59l.51-6.41c-.75-.51-1.24-.49-2,0-4.5,6.95-5.34,13.07,2.66,17.79l.34,2.21c-1.48,4.11-7.84,1.55-10.26-1.31-5.72-6.76-2.32-13.43,1.96-19.52.05-.07.62,1.07-.7-.18-.37-2.13,3.4-3.53,5-2,2.21.45,4.21-.55,6-3l1-1c1.93-2,3.83-1.62,2,1Z"/>
  <path d="M80.99,143.12c11.47,5.43,3.69,7.36-4,7h-1c-5.21,4.24-14.02,4.63-19.75,2.38-2.35-.92-8.75-3.61-5.25-5.38l2.17-.73c8.78,3.67,19.07,5.1,25.79-3.33l2.05.05Z"/>
  <path d="M171.99,52.12c-.28-.95.05-1.28,1-1,.27.94-.06,1.28-1,1Z"/>
  <path d="M75.99,143.12c1.41,2.34.27,3.5-2,2-4.57-.48.56-5.94,2-2Z"/>
  <path d="M170.99,53.12c-.28-.95.05-1.29,1-1,.27.95-.06,1.28-1,1Z"/>
  <path d="M96.99,144.12c-2.73,1.76-4.28-.28-1-2,1.29-2.13,2.51.47,1,2Z"/>
  <path d="M162.99,68.12c1.76.45,5.21,2.25,3.78,4.79,4.91.36,9.57,1.64,13.97,3.84,3.24-1.1,5.65-.98,7.25.38,1.72,1.48,2.03,2.68-.37,2.54.74,1.4.46,1.78-.85,2-3.26.55-26.96-.31-26.33-4.12.08-.49.3-.96.55-1.42.36-.47,1.03-.81,2-1,.52-.45.52-.78,0-1-3.17-1.28-4.27-5.94,0-6Z"/>
  <path d="M169.99,55.12c-2.08-1.85-1.71-2.44,1-2,1.48.97.62,2.27-1,2Z"/>
  <path d="M185.99,150.12c-3.31-.91-1.24-6.79,2-6.5-.77-.1-1.91-.31-2-.88-.21-1.26-.25-15.4,0-16.2l2-1.42c2.16.73,3.08,3.13,2.74,7.21,3.16,2.22,3.2,7.54,1.46,10.63,1.23,2.84,1.18,5.48-2.19,5.16-.31,1.52-2.6,2.5-4,2Z"/>
  <path d="M162.99,68.12c-2.4-1.71-1.9-3.24,1-3,.79,1.32.8,3.55-1,3Z"/>
  <path d="M108.99,59.12c-2.45-2.49-2.81-4.43,1-4,3.57.7,1.63,4.96-1,4Z"/>
  <path d="M168.99,56.12c-1.41-1.4-.78-1.99,1-1,1.08,1.18.48,1.72-1,1Z"/>
  <path d="M12.99,127.12c-.31.88-.64.87-1,0-.65-1.19-.22-1.68,1-1,.65.27.62.6,0,1Z"/>
  <path d="M114.99,57.12h-1c-.28-.95.05-1.28,1-1,.59.33.59.66,0,1Z"/>
  <path d="M117.99,141.12c2.55-3.25,5.62,2.26,2.72,4.23-1.3.88-6.36-3.3-3.72-4.23.28-.57.61-.54,1,0Z"/>
  <path d="M167.99,58.12c-2.07-1.79-1.72-2.22,1-2,1.31.92.55,2.12-1,2Z"/>
  <path d="M163.99,65.12c-2.18-1.65-1.69-2.39,1-2,1.12.61.24,1.95-1,2Z"/>
  <path d="M108.99,59.12c1.31-.38,2.65-.71,4-1l1,2c.6,3.24,1.15,6.67,1.63,10.31-4.29,4.51.45,11.46,4.45,15.13l-.08,2.56c-2.36.84-3.75,2.54-1.78,3.37-.38,1.86-2.01,3.61-3.54,2.57-.67,4.87-3.81,1.83-5.68-.95-2.53-1.9-1.24-4.31,3.88-7.25-5.17-7.1-7.87-12.56-7.51-21.34.04-.87.19-4.53.23-4.94.56-4.86,3.34-6.06,3.4-.47Z"/>
  <path d="M113.99,58.12c-.29.89-.62.87-1,0-.43-.87-.05-1.17,1-1v1Z"/>
  <path d="M14.99,130.12c-1.81.07-1.3-1.02,0-2,.94-1.71,1.94-2.38,3-2,2.36,1.81-.5,5.24-3,4Z"/>
  <path d="M115.99,57.12c.1,1.91.8,3.02,2.11,3.34.01,7.59-4.61,7.13-4.11-.34-1.2-.52-1.08-1.27,0-2,.12-.61.35-1.01,1-1,.32-.63.66-.63,1,0Z"/>
  <path d="M164.99,63.12c-1.44-1.47-1.02-2.3,1-2,1.09.96.45,1.7-1,2Z"/>
  <path d="M50.99,127.12h-1c-1.39-1.31-.76-1.85,1-1,.87.33.87.67,0,1Z"/>
  <path d="M56.99,126.12c.86.28.85.62,0,1l-2,2c-.67,3.11-1.67,5.77-3,8-.62.58-1.61,1.03-2.09.52-1.13-1.21,2.23-7.87,3.09-9.52-.63-2.11,2.7-3.73,4-2Z"/>
  <path d="M49.99,127.12v1c-.78,2.02-1.32,2.05-2,0-.46-1.78.93-2.61,2-1Z"/>
  <path d="M166.99,59.12c-1.23-1.54-.66-2.07,1-1,.84,1.25.33,1.74-1,1Z"/>
  <path d="M58.99,144.12l-1,1c-1.66,3.05-6.21-.33-4-3l1-2c1.6-1.79,4.91,2.2,4,4Z"/>
  <path d="M100.99,132.12c-3.53,1.27-5.76-3.81-3-6,2.37.06,5.07,4.1,3,6Z"/>
  <path d="M50.99,147.12c-3.03,1.22-5.08-4.29-3-6,2.5-1.62,5.27,4.26,3,6Z"/>
  <path d="M73.99,140.12c.66,2.04-.8,2.76-2,1-.43-1.51.86-2.14,2-1Z"/>
  <path d="M160.99,74.12c-.7.47-2.55.91-3.28.71-3.2-.89-10.98-12.81-7.72-15.71,4.49,1.97,11.07,9.83,11,15Z"/>
  <path d="M165.99,61.12c-2.22-1.6-1.67-2.24,1-2,1.29,1,.64,1.77-1,2Z"/>
  <path d="M104.99,161.13c-.34,1.45-1.61,2.29-2.99,1.98v-1.99s2.99,0,2.99,0Z"/>
  <path class="cls-1" d="M34.99,135.12c.15-.14-.15-.93,0-1,.4-.17.77.12.98.5,0,.62-.95.46-.98.5Z"/>
  <path class="cls-1" d="M44.99,134.12c-1.12,10.61.41,17.24,11.48,20.02l-7.44-4.56c-4.33-3.45-3.66-10.69-2.04-15.46,1.95,2.1-.24,3.14.03,5.45.1.9.93,1.34.97,1.55.86,4.26.7,3.07,3,6,.14.18-.35,1.28.66,2.05,3.79,2.9,14.11,3.45,18.78,2.89,1.75-.21,3.56-1.49,5.56-1.94-.25.15-.85,1.79-2.02,2.44-7.65,4.23-17.46,2.74-25.98,1.56-9.39-3.84-11.96-15.01-3-20Z"/>
  <path class="cls-1" d="M96.99,64.12c-.38.43,1.01,2.81-2,1.99-.12-1.19,1.65-1.47,2-1.99Z"/>
  <path class="cls-1" d="M113.99,60.12c-1.82-.06-1.42,3.47-2.99,2.99-.18-.39,1.62-4.47,1.99-4.99.11-.16.86.16,1,0-.15.56.12,1.38,0,2Z"/>
  <path class="cls-1" d="M56.99,134.12c.25,8.9,7.87,10.7,15,7,.68-.35,1.03-.32,2-1,.38-.26.64-.72,1-1,1.39-.88,1.38,1.43,2-2,.52-.43,1.57-.6,2-1-.09.97.17,2.13,0,3-1.77,1.76-2.54,3.53-3,4-.12.12-1.19-.3-1.76.24-.47.45-.11,1.65-.24,1.76-2.55,2.07-12.04,1.4-15-1-.8-.65-2.93-2.94-4-4,.25-2.2-.13-4.72,0-7,.51-.04,1.59.64,2,1Z"/>
  <path class="cls-1" d="M78.99,136.12c.06-.66-.04-1.34,0-2,1.94.02.8,1.24,0,2Z"/>
  <path class="cls-1" d="M46.99,134.12h-2c.24-.13.39-1.14,1.47-1.01.69.16.43.9.53,1.01Z"/>
  <path class="cls-1" d="M50.99,84.12c-2.13.56-6.48,1.25-8.19,2.1-1.28.63-3.5,5.03-5.8,3.41,8.89-10.98,28.43-18.69,42.48-19.58,3.76-.24,6.87,1.71,10.5.08l-1.99,1.98,3.97-.5-6.97,2.52,5.99,1-1.01,6.99-3.97-.48c.09-4.32,1.54-1.05,2.97-3.52-4.97-1.37-9.02-.13-13.99,0,1.11,2.16,6.88,1.06,8.51.01.38,1.2-.66,2.49-.51,3.98-5.51-1.07-10.34-1.28-15.99-.99l6.99,1.98c-5.26-.28-10.76.42-15.99.01-1.52-.12-4.54-3.36-3.46.97-1.63-1.78-2.65-.21-3.54.03Z"/>
  <path class="cls-1" d="M33.99,136.12c.28-.38.73-.65,1-1-.17.5-.59.73-1,1Z"/>
  <path class="cls-1" d="M74.99,136.12c-.33.08-.82-.13-1,0,.5-.53.39-.8,1,0Z"/>
  <path class="cls-1" d="M92.99,77.12c-.04.11-.96-.11-1,0,.21-1.17-.61-3.36.5-4.01,1.01,0,.34,2.96.5,4.01Z"/>
  <path class="cls-1" d="M204.99,29.12l-1.01,4.99-2.99-3.99c2.33,4.84.38,10.03,0,14.99h-14l5.01-3.5c-2.12.18-4.07-3.22-5.01-3.5.09-.98-.06-2.01,0-3l4,1.99-3-2.01,2.99-2-1.99-1.99h3.01c-.41-1.01-.78-1.92-1.01-3,5.23-4.26,8.98-1.43,14,1Z"/>
  <path class="cls-1" d="M73.99,137.12c-.33.03-.67-.04-1,0,.28-.21.72-.7,1-1-.13.1.13.97,0,1Z"/>
  <path class="cls-1" d="M113.99,58.12c.09-.35-.13-.84,0-1,.04-.04.71-.03,1,0-.3.2-.73.69-1,1Z"/>
  <path class="cls-1" d="M184.99,21.12c-1.85-.54-2.74.5-4,1-3.31,1.31-3.96,3.34-7,3.99v-5.98s1.99,2.99,1.99,2.99l-.99-4.99c5.36-1.1,6.44.76,10,2.99Z"/>
  <path class="cls-1" d="M162.99,75.12c.11-.07-.07-.67,0-1,.35.1.93-.12.98.5l-.98.5Z"/>
  <path class="cls-1" d="M10.99,133.12c-.2.85.16,2.08,0,3-1.96-.67-2.12-4.33-1.99-6h.98c.1.96-.22,2.7,1.01,3Z"/>
  <path class="cls-1" d="M190.99,75.12c1.21-.49,2.7-.77,3.99-.99l-1.99,1.98,3.97-.51-.97,2.52,1.97-.53-.98,3.52c3.81.91,1.24-4.29,2-4.99,1.8-1.66,3.17,1.75,3.72,1.94,1.61.57,3.27,0,5.65,1.18,5.61,2.8,6.89,12.24,6.61,17.87l-2.98-1,1.97,3.51c-3.35-.94-1.36,1.22-2.73,4.23-2.9,6.38-7.53,8.03-10.96,11.55-2.45,2.51.82,3.36-6.29,4.71.88-.29,5.62-3.16,4.99-5l-6.99,5c-2.65-2.87,4.95-4.99,5.98-7.51l-3.97,1.51c-.14-.62.17-1.56,0-2,1.89.37,2.71-1.28,3.98-2.51-1-1.02-2.32,2.1-2.97,1.51-.22-.2.2-1.51-.01-2,.43.47,3.32-2.94,4-3.5.04-1.01-1.47-.26-2-.5,4.85-5.27-.04-3.24,0-3.51l1.99-4h-1.99c1.55-4.22-.35-13.57-2.55-17.42-.55-.95-2.33-3.15-3.43-1.57,3.88,2.84,3.65,6.29,4,10.5l-7.02-9.48,7.02,11.48c.08,3.65.41,8.54,0,12-.07.56-.75,2.6-1,4-.08.45-.73,1.76-1,3-.22,1.01-2.16,2.46-.03,4.52-2.84-.5-3.11,2.89-6.06,4.89-1.31.89-3.34,1.28-4.91,1.6l6.5-.99c.64.48-1.35,2.92-1.51,2.98-.48.17-5.35.17-6,0s-2.6-2.27-4.73-2.77c-5.34-1.26-12.7-.85-18.27-2.23-.22-.05-2.49-1.46-4-2-2.53-1.37-2.49-1.17-5-2-.82-.55-2.22-.88-1.99-1.99.32-.2,5.74,2.55,3-.52-1.23-.81-2.93-.23-4.01-.48.05-.96-.78-.67-1-1-.95-1.42-2.21-2.51-3-3.99,1.2-1.06,5.82,4.79,8.01,2.49l-6.01-4c.2-1.88,6.72,3.34,5,.02-.63-1.22-12.46-5.28.99-3.52l-5-3.99,4,1.99c.31-.27-5.29-4.66-1.01-5.98l2.01,2.98c-1.78-2.55-1.67-4.08-1-6.99,1.11-1.3,1.62-2.53,2.01-2.99.96-1.13.96,3.93,2.99,1.98.4-.38-2.25-2.16-2-3.99.02-.13.73-.63,1-1,1.69-2.32,5.55-5.34,8-7,1.95,3.52,19.45,3.73,23.55,3.22.84-.1,2.24.86,2.4.75.13-.09.43-2.15,1.04-2.97,1.61-.55,2.05.05,3-2Z"/>
  <path class="cls-1" d="M72.99,137.12c-.14.1.14.95,0,1-.9.34-2.07.08-2-1,.64.02,1.38.08,2,0Z"/>
  <path class="cls-1" d="M60.99,136.12c.23.33.68.74,1,1,3.67,2.91,3.02,1.33,8,1.01l-3.99,1v.98c3.54.78,4.63-.61,7-1.99.38-.22.66-.79,1-1,1.11-.69.94-.96,1-1,.58-.39,1.35-.69,2-1-.11.63.11,1.38,0,2-.84.7-1.59,1.69-2,2-.39.25-.7.86-1,1-.57.26-1.82.95-2,1-12.35,3.29-9.05-1.75-15-7-.05-1.94-.26-4.42,1.99-5-.82,4.25.34,4.6,2.01,7Z"/>
  <path class="cls-1" d="M54.99,133.12l-.99.5c.09,2.15-.19,4.37,0,6.5-.43-.39-1.98-2.76-2-3-.21-2.17,1.6-6.23,3-8-.25.5.06,2.95,0,4Z"/>
  <path class="cls-1" d="M162.99,75.12c-.3,1.02-1.58.72-2,1-.14-.26.14-.75,0-1,.62-.12,1.73.18,2,0Z"/>
  <path class="cls-1" d="M83.99,84.12c-.1-.05-.97-1.73-1-2,3.75.73,7.93,1.37,7.51,5.98-1.55-3.29-4.92-3.08-6.51-3.98Z"/>
  <path class="cls-1" d="M57.99,83.12s.04.98,0,1c-2.59,1.37-2.59-2.37,0-1Z"/>
  <path class="cls-1" d="M83.99,86.12c.37.25.59,1.63,1,2-.52-.18-1.48.18-2,0-.77-.49-1.44-.67-2-1-.43-.14-1.11-.71-2-1-.37-.12-.87-.71-2-1-.95-.65-3.01-1.43-1.49-2.01.69.03,7.9,2.62,8.49,3.01Z"/>
  <path class="cls-1" d="M51.99,137.12c.15.98-.26,2.25.2,3.3.58,1.31,1.51,1.33,1.8,1.7,1.97,2.54,1.57,1.74,4,3,4.33,2.25,6.3,2.55,11.56,2.06,3.92-.37,2.59-.76,4.44-2.06,1.13-.8,1.23-1.11,2-2,1.26-1.45,2.36-.71,3-4,.48-.48,1.03-1.28,1.01-1.99h.98c-.3,1.69.45,4.61.01,5.99-.88,2.74-8.47,7.44-11.56,7.94-3.95.63-15.94-.76-18.44-3.94-.21-.26-2.93-5.67-3-6-.7-3.16,2.18-10.73,5-13,.19,1.82-1.68,4.82-1.82,6.83-.1,1.52.78,1.91.82,2.17Z"/>
  <path class="cls-1" d="M49.99,128.12c-1.48,3.4.26,4.79-5.5,3.99l-.5-.99c1.98.37,2.4-1.58,3-2,.37-.26.64-.74,1-1,.32-.24,1.66.24,2,0Z"/>
  <path class="cls-1" d="M14.99,130.12c-.5.79-.66,1.39-1,2-.68.64-2.09,1.22-3,1,.05-.22,1.85-3.83,2-4,.34-.39,1.53-.57,2-1-.2.46.19,1.47,0,2Z"/>
  <path class="cls-1" d="M51.99,85.12c-.05.05-.72-.74-1-1,.26.28,1.05.95,1,1Z"/>
  <path class="cls-1" d="M76.99,85.12c.84.57,1.41.67,2,1,.71.4,1.47.69,2,1,.36.12,1.11.69,2,1,.7.45,1.66.75,2,1s.66.69,1,1,.65.69,1,1,.7.67,1,1c2.56,2.81,2.42,1.74,5.52,3.99,2.92,2.12,13.88,14.95,15.69,18.31.72,1.33.69,3.06,1.78,4.23-4.17-1.42-.62,4.11.53,5.47-.54-2.02,1.61-6.36,1.31-7.48-.09-.36-2.81-1.68-3.31-3.55-.88-3.27,2.09-3.15-3.5-6.47.62-4.14.8,2.35,2.99.5.3-.26-4.88-6.93.01-5.5-.5-2.7-5.07-5.71.99-3.5-.53-1.35-1.52-3.63-1-4.99.04-.1,1.91-1.09,1.99-1.01l2,4.01-.99-5.99,4.99,2.98-2.99-3.98,6-1.01c-.11,1.73-2.42.25-1.99,1.99,3-.17,4.85,2.3,6.99,4.01.36.28.66.68,1,1,1.39,4.42,2.43,8.14,5.97,11.53.92.88,2.31,2.76,3.03.47,1.58,1.01,2.43,1.28,4,2,4.18,3.73,5.05,3.36,10,5,2.66,1.79,2.73,1.19,5,2,1.65.89,2.38,1.22,4,2,2.04.99,3.97,1.79,6.06,2.61-.83,11.03,1.82,23.18-2.29,33.66-.74,1.89-3.62,7.34-4.77,8.73-5.69,6.86-18.77,9.3-27.27,7.77-7.65-1.38-3.08-4.79-3.74-5.77-.77-.04-1.29.73-1.99,1-.24-1.56-1.67-1.83-3-2-.74-.75-1.59-2.03-2.48-3.03-.52-.57-2.02-.17-2.21-.47-.22-.35-2.22-6.65-2.56-7.78-.86-2.85-1.08-1.08,1.26-1.73-.1,1.3.89,1.68,1,2,.87,2.46,3.48,8.96,6.49,9.01,2.1-4.31-.73-1.91-2.01-2.91-1.86-1.46-2.49-4.25-3.48-6.1,1.15.77,3.16,3.03,4,1.5-.88-1.69-4.22-3.42-5-4.5-.51-.72-2.46-5.4-1.99-6l5.99,3.99c.3-.28-4.41-4.9-4.99-6.51-.99-2.8,1.5-.53,1.99-.48-.68,2.39,1.11,2,2.99,3,.48-1.76-.67-2.2-1.99-3,2-.85-1.86-4.41-.99-5.99l1.98,1.99c-2.52-6.86,4.41-14.4,9.01-18.99.33-.33.66-.68,1-1,2.8-2.62,6.07-4.56,9-6.99-5.55-.52-7,3.24-10,5.99-.35.32-.67.66-1,1-1.56,1.63-3.25,2.33-4.83,4.67-6.11,9.02-9.15,21.63-10.18,32.33l-2.98-5c-.77,4.54,2.45,5.45,3.74,7.71.45.8.27,2.28.82,3.22,1.36,2.32,4.46,3.1,3.42,7.07-4.28-.84-1.73-2.83-3.54-5.92-1.02-1.74-2.6-2.12-3.44-3.08-.33-.38-.23-2.48-1.5-3-1.01-.04-.27,1.46-.5,2-.19.45-.86.54-1,2-.42-.44-1.58-.68-2.06-1.4-2.3-3.48-.07-13.75-1.95-18.6l-1.97.49c1.97,2.45-.54,3.37-1.03,4.51.1-1.65-.06-3.34,0-5-4.1-1.16.87,4.7-2.99,5-.25-2.2-.96-1.88-1-2-1.86-5.63-7.34-9.32-12-13-4.2-7.65-12.16-11.09-21-9.99l.53,1.97c-4.26-1.66-9.75,1.44-13.53,3.02-3.43,1.44-4.94,2.97-7,4-.73.34-1.3.64-2,1-9.74,3.96-19.17,3.53-23,16-.5.72-.69,1.2-1,2-1.85,4.85-.81,4.84,0,9,1.5,7.66,1.45,5.77,6,11,.16.45-.3,1.59.06,1.94s1.49-.11,1.94.06c1.43,1.56,9.3,10.75,10,11-10.29-4.7-23.39-18.95-24.91-30.58-.56-4.29.18-9.18.91-13.42,2.92,1,2.11-2.38,3-4,.71-.67.72-1.21,1-2,.14-.22,2.83-3.8,3-4,.35-.31.64-.71,1-1s.64-.7,1-1,.65-.69,1-1c.12-.14,1.53-.21,3-2,2.25-.99,5.14-1.1,7.4-2,2.98-.73,4.61-.99,7.8-2,1.7-.54,2.76-1.33,4.87-2.44,1.76-.93,2.7-1.49,3.46-2.01,2.2-1.07,3.83-2.59,4.83-3.08.81-.33,1.65-.9,1.99-1.02,1.34-.47,4.56-1.92,4.83-1.98,3.84-.87,8.92-1.05,12.81-.46l-9.99,1.98c5.76.55,10.1-.55,15.99,1.01.64.67,1.5,2.12,2,3-6.56-2.85-11.8-.72-17.72-1.73-1.97-.33-1.2-.14-1.28,1.73h15.5c.72,0,2.55,2.43,3.99,2.01,1.11,0-.21-1.52-.49-2.01,2.94,1.28,13.49,8.51,16,11,.13.13,1.3,2.06,2,3,.81,2.24.89,4.26,3,6,.02.52-1.42,9.29,1.99,6,.72-.7,1.16-8.96,6-4,1.07-1.3-3.76-3.9-.49-5,.51-.17.57,3.92,2.49,1.99.14-.14-1.45-3.12-1.99-3.51-1.64-1.2-3.32,4.45-5,4.52-.02-2.79-.89-4.79-2.47-7.04s-20.1-17.72-23.21-19.79c-5.13-3.43-11.78-4.01-17.81-3.12-2.27.33-3.29.86-3.91,1.06-.88.28-1.7.95-2.07,1.06-1.56.7-2.69,1.21-4.86,2.3-5.75,2.21-4.9,1.74-9.16,4.4-.7.29-1.52.76-1.8.85-.88.25-1.98.75-2.27.82-1.12.25-2.41.56-3.77.78-1.05.17-5.75,2.74-6.68,3.69-6.84,1.99-9.84,3.6-13,9-.04.06-.6-.12-1,1-.69.2-1.35,1.48-1.98.51,1.19-1.26,1.69-2.85,1.98-4.51.4-.22.65-.74,1-1,1.47-1.09,3.33-2.15,4-3.99-1-.37-4.59,1.14-5,.99,2.12-10.16,6.12-15.75,14.53-21.98,4.96-3.68,19.45-10.45,25.47-12.02.62-.16,5.17-.91,6-1,5.23-.55,13.93-.29,19,1Z"/>
  <path class="cls-1" d="M115.99,57.12c-.04-.08-.66.03-1,0,.15-.1-.15-.92,0-1,1.12-.15.85.75,1,1Z"/>
  <path class="cls-1" d="M56.99,127.12c-1.41,2.21-1.93,1.85-2,2,.52-.66,1.09-1.85,2-2Z"/>
  <path class="cls-1" d="M49.99,128.12c.13-.3-.16-.84,0-1,.13-.13.67.08,1,0-.24.15-.55.68-1,1Z"/>
  <path class="cls-1" d="M53.99,142.12c-.03-.66.06-1.35,0-2,.19.17.83-.17,1,0-.11.95.38,2.06-1,2Z"/>
  <path class="cls-1" d="M12.99,129.12c-.04.09-1.74,1.24-1.97.52.73-.71.7-1.76.97-2.52.33-.1.75.12,1,0-.17.57.2,1.59,0,2Z"/>
  <path class="cls-1" d="M83.99,129.12c.68,1.23,1.71,5.31,2.16,5.81.18.2,3.38-1.59,2.85,3.19l1.98-1.99c.84,3.2,4.27,2.89,3.02,7,.09.16,1.92-1.09,1.99-1.01.27.32-.58,2.12,1,2,1.4,12.13-12.4,18.8-20.91,24.58-2.19,1.49-3.25,4.83-6.08,3.42,2.41,4.75-4.84,5.49-8.01,7,.15-.31.32-2.11-.49-1.99-1.75,1.03-3.68,2.14-5.51,2.99-5.85.77-13.54.57-19.29-1.21-3.2-.99-6.58-7.94-11.71-9.79-.69-.76-1.54-1.47-2-2-1.24-3.41-5.41-7.87-6-11-.32-1.68-.27-7.22,0-9,.02-.11.73-1.13,1-2,1.8-2.58,4.88-3.96,6-7.51l-1,2.5c1.99,1.48,5.5-5.99,7.51-6.97l-1.51,4.97c.38.27,4.39-1.6,5-1.99-.66.88-2.95,3.05-1.5,4,1.91-.98,5.39-6.38,6.5-7,4.84-2.69-.77,4.37-.85,4.69-.48,1.97,1.91,7.46.84,10.3l-1.98-7.99c-.7,4.8.02,11.28,5.01,13.48,2.22.98,4.01.25,5.98.52,5.73,2.34,15.31,2.89,21.44,1.94,3.38-.53,5.48-3.4,8.11-3.89,2.89-.54,6.45.27,9.45-.05.83-3.76-4.21-.93-6.56-.88-2.01.04-2.91-1.04-3.43-1.11,2.26-.53,4.03-2.44,8-1.01.16-5.38-4.71-.66-4.99-1,.21-1.7.7-3.3.99-5,.89-5.29,2.42-11.39-.98-16.51,1.19-.19,2.96,1.71,3.98,2.51Z"/>
  <path class="cls-1" d="M117.99,141.12c-.18.07-.7.03-1,0,.11-.38.04-.77.49-.98.62-.05.46.95.51.98Z"/>
  <path class="cls-1" d="M63.99,136.12c-1.7-6.95-1.05-9.69,7-9.99-.3,1.93-3.53.98-5.02,2.46-3.69,3.64,1.26,8.97,5.54,6.57,1.03.64-.48,1.42-.51,1.97-2.12-.07-5.09-.18-7-1Z"/>
  <path class="cls-1" d="M83.99,85.12s-.98.12-.98-.5c.21-.38.58-.68.98-.5.16.07-.15.78,0,1Z"/>
  <path class="cls-1" d="M12.99,127.12c.1-.32-.13-.93,0-1,1.54.23,1.11.49,0,1Z"/>
  <path class="cls-1" d="M83.99,86.12c-.16-.07.15-.78,0-1,.03.05.98-.12.98.5-.21.38-.58.68-.98.5Z"/>
  <path class="cls-1" d="M88.99,89.12c-.54-.17-1.45.17-2,0-.19-1.01-.99-2.24-.51-2.98,1.17.64,1.73,2.25,2.51,2.98Z"/>
  <path class="cls-1" d="M59.99,128.12c1.59-.12,2.72-3.61,5-2.99-2.88,2.29-5.1,9.23-1,10.99.14.56,1.13,1.2.53,1.98-.53-.98-2.09-.69-2.53-.98-.15-.1-.93-.88-1-1-.93-1.59-1.23-6.07-1-8Z"/>
  <path class="cls-1" d="M85.99,89.12c-.3-.1-.71.11-1,0-.11-.04.11-.96,0-1,.35.31.67.66,1,1Z"/>
  <path class="cls-1" d="M57.99,145.12l1-1-1,1Z"/>
  <path class="cls-1" d="M96.99,64.12c3.08-4.62,5.66-11.02,12.49-11.02.91-.02.49,1.32.51,2.02-.64,1.33-1.52,2.02-1,4-.16-.46-1.14-2.31-1.99-2,1.56,4.23-.3,8.49.18,12.22.68,5.36,5.36,13.07,8.79,17.27-1.36,1.81-4.03,2.04-5.56,3.46-1.24,1.15-1.05,2.54-1.42,3.03-3.29,4.34-2.99,4.75-4.9,9.62-.27.69.16,2.11-1.58,1.37-1.36-.58-9.61-10.84-11.51-12.99.8.21,2.06-.13,3,0-.21-2.7-2.44-3.57-2.93-6.54-.61-3.66.46-4.77.94-7.45-.39,1.08.27,3.6,0,5,3.29.88,1.34-2.65.99-5,.59-1.6,1.71-2.65,1.01-5h.98s1,5.99,1,5.99l.02-9.99,1.98,7.99,1.02-11.99,1.98,4.99c.13-2.05-.38-4.36.21-6.34.36-1.21,1.69-1.45,1.8-1.66-.25.58.15,2.12.01,3,3.27-.81,1.43-6.36-.01-3,.85-1.62,1.74-3.33,2.51-4.98-2.22,2.92-6.25,5.44-8.51,7.98Z"/>
  <path class="cls-1" d="M148.99,30.12c-.04.12-.94-.12-1,0,.3-.56-.55-2.02.5-2.01.79-.08.63,1.6.5,2.01Z"/>
  <path class="cls-1" d="M99.99,146.12c-1.18-1.02-.32-1.25,0-2-.04.66.06,1.35,0,2Z"/>
  <path class="cls-1" d="M101.99,147.12l-2.99,2c-.4-1.19.94-2.38.99-3l2.51-1.98c.68.77-.64,1.92-.51,2.98Z"/>
  <path class="cls-1" d="M97.99,124.12c3.17,2.65,5.12,4.34,4.99,9-.11.15-1.69-.75-1.99-1-.15-4.27-1.27-3.67-3-6-.17-.48.12-1.38,0-2Z"/>
  <path class="cls-1" d="M86.99,90.12c-.16-.17-.86.17-1,0-.16-.19.17-.83,0-1,.3.1.7-.09,1,0,.06.34-.09.72,0,1Z"/>
  <path class="cls-1" d="M88.99,89.12c1.14,1.06.76.6,2,2-1.22-.32-1.87-1.96-2-2Z"/>
  <path class="cls-1" d="M59.99,128.12c-.38.03-1.79-1.2-3-1,.15-.24-.15-.75,0-1,1.46-.57,3.32-.51,4.51-1.98.22,1.4-1.29,2.12-1.51,3.98Z"/>
  <path class="cls-1" d="M101.99,147.12c0,.06.95-.15.99.5.22,3.14-.12,6.35,0,9.49-3.08-1.64-.9-7.22-.99-9.99Z"/>
  <path class="cls-1" d="M189.99,150.12c-.42.18-4.06,1.11-3,2-.01-.19-1.01-1.03-1-2,.59-.44,3.46-1.93,4-2-.11.63.14,1.43,0,2Z"/>
  <path class="cls-1" d="M52.99,124.12c-.17.15.17.85,0,1-.1.09-1.2.4-2,1-.37.27-.64.75-1,1s-1.24.51-2,1c-.4.26-.69.82-1,1-1.08.63-2.84,1.92-3,2-1.4.66-3.5,1.46-5,2-.32.12-3.33.86-4,1s-1.4.08-2.01.49c-2.05.71.79-1.82,1.04-1.95,2.36-1.25,4.9-2.48,6.96-3.54.95-.38,1.31-.66,2-1,2.02-.95,6.62-3.85,7-4,.63-.24,2.09.13,3,0Z"/>
  <path class="cls-1" d="M76.99,150.12c-.27-.04-.89-.07-1,0,.79-.18.95.01,1,0Z"/>
  <path class="cls-1" d="M190.99,150.12c.07-.02-.13-1.17,1-1,.18,1.11-.95.95-1,1Z"/>
  <path class="cls-1" d="M97.99,124.12c-.37-.31-.65-.69-1-1,.34.33.7.64,1,1Z"/>
  <path class="cls-1" d="M76.99,135.12c.43-2.51,1.5-4.69,1-7.46-.41-2.29-2.62-2.68-2.51-4.52,3.11,2.19,4,5.23,5.49,8.5-2.94-.55-1.82-.3-1.98,2.48-.36,0-1.45.74-2,1Z"/>
  <path class="cls-1" d="M114.99,151.12c.06-.76.16-1.09,1-1,.13.84-.4.83-1,1Z"/>
  <path class="cls-1" d="M194.99,91.12v-2c.13,1.55,0,1.75,0,2Z"/>
  <path class="cls-1" d="M54.99,124.12c-.65.06-1.36-.09-2,0,.61-.55,1.03-2.43,2,0Z"/>
  <path class="cls-1" d="M87.99,91.12c-.18-.15-.93.15-1,0-.07-.32.09-.7,0-1,.33.33.78.56,1,1Z"/>
  <path class="cls-1" d="M189.99,151.12c.09-.29-.08-.67,0-1,.26-.12.68.1,1,0-.29.32-.68.8-1,1Z"/>
  <path class="cls-1" d="M188.99,152.12c.18-.42.92-.75,1-1-.09.06.12.74-1,1Z"/>
  <path class="cls-1" d="M187.99,155.12c.26-.18.66-1.46,1-2,.98-.32,3.68-1.28,4-2-.22.24-.06,1.64-.99,2.49-1.34,1.22-3.1.97-4.01,1.51Z"/>
  <path class="cls-1" d="M87.99,92.12c-.15-.07.15-.88,0-1l.98.5c-.21.39-.59.68-.98.5Z"/>
  <path class="cls-1" d="M116.99,153.12c-.07-.14-.93.14-1,0l.5-.98c.63.01.45.95.5.98Z"/>
  <path class="cls-1" d="M188.99,152.12c-.13.3.14.77,0,1-.53.17-1.44-.17-2,0,.05-.3.02-.69,0-1,.08.06,1.54.11,2,0Z"/>
  <path class="cls-1" d="M96.99,123.12c-.17-.15-.93.15-1,0l.5-.98c.62,0,.45.93.5.98Z"/>
  <path class="cls-1" d="M115.99,57.12c.66,1.07.97,3.01,1.5,3.01l.51-5.01c1.63-.43.49,1.74,1.62,2.02,4.91,1.19,2.48-2.22,3.38-6.02l1.98,2.99c.35-1.06-1.11-3.79-.99-3.96.9-1.18,12.27-4.24,14.41-4.03,2.44.24,3.64,2.01,5.58,2.99.17-.19-2.22-5.34.99-3,.44.32,2.5,8.59,3.23,10.33.54,1.27,1.51,2.07,1.78,2.67,2.55,5.64,4.16,12.78,11,15,.15.23-.15.75,0,1-6.87,1.38-5.33,3.9-8,8-.23.36-.79.63-1,1-.9,1.59-2.14,1.28-3,5-3.53,4.14-2.32,4.12-4,8s-6.3,9.23-2,13c-1.24-.42-2.92-.51-4-1-1.78-1.59-4.02-4.11-6-6-.89-1.81-1.7-2.43-2-3-.32-.55-.53-1.22-1-2-.34-.61-.51-1.26-1-2-3.97-5.99-4.49-4.36-9-8-8.59-6.94-8.48-13.3-8.99-24,2.88.64-1.4,7.94,2.99,6.99-1.7-4.22-.8-6.93,0-10.99,1.93.09.53,2.92,1.01,4h.98c.14-.32.16-6.67.01-7Z"/>
  <path class="cls-1" d="M186.99,153.12c-.05.35-.9,1.94-1,2-.24.14-2.12.33-2-.5.79-1.32,1.83-1.16,3-1.5Z"/>
  <path class="cls-1" d="M125.99,94.12c-.04-.12-.95.12-1,0l.5-.98c.62,0,.46.95.5.98Z"/>
  <path class="cls-1" d="M54.99,124.12c2.44-1.03,5.28-2.17,8-1.99-.1,1.68-2.86,1.19-4.43,2.1-.83.48-1.12,1.12-1.57,1.89-1.63.63-2.52.8-4,2-.14-1.32-.84-1-2-1,.15-.09-.15-.91,0-1,.57-.33,1.36-.67,2-1,.6-.31,1.43-.76,2-1Z"/>
  <path class="cls-1" d="M11.99,123.12c-.39.22-1.18.32-1.51.98-1.03-.59.6-1.44.51-1.98h1c-.05.33.06.68,0,1Z"/>
  <path class="cls-1" d="M187.99,155.12c-2.61,1.55-1.82,3.19-7,3,1.45-.86,3.12-2.03,5-3,.44-.23,1.67.23,2,0Z"/>
  <path class="cls-1" d="M126.99,95.12c-.17-.17-.82.17-1,0-.1-.31.11-.71,0-1,.41.32.68.73,1,1Z"/>
  <path class="cls-1" d="M157.99,163.12c2.51-3.01,4.31-2.69,4.01-6.99v2.98c.65.06,1.33-.06,1.99,0-.28.68-2.44,3.51-3,4-.96.13-2.04-.13-3,0Z"/>
  <path class="cls-1" d="M108.99,158.12c-.16-.12-1.16.13-1-1,1.11-.18.95.95,1,1Z"/>
  <path class="cls-1" d="M108.99,158.12c.16.15.94-.15,1,0,.17.42-.12.78-.5.98-.61.03-.46-.95-.5-.98Z"/>
  <path class="cls-1" d="M108.99,161.12c-.32-.29-2.29.92-2-2,.61.65,1.35,1.33,2,2Z"/>
  <path class="cls-1" d="M127.99,96.12c-.32-.33-.65-.71-1-1,.31.31.85.64,1,1Z"/>
  <path class="cls-1" d="M21.99,121.12c-.31.16-.58,1.63-1,2-.31.35-.69.64-1,1s-.69.65-1,1-.69.64-1,1c-.84.76-2.18,1.24-3,2,2.07-4.7,2.93-4.58,7-7Z"/>
  <path class="cls-1" d="M109.99,162.12c-.38-.29-.65-.69-1-1,.31.33.8.67,1,1Z"/>
  <path class="cls-1" d="M110.99,163.12c-.07-.08-.94-.96-1-1,.2.33.92.66,1,1Z"/>
  <path class="cls-1" d="M162.99,163.12c.12,0,.13-1.01,1-1-.26.36-.68.68-1,1Z"/>
  <path class="cls-1" d="M110.99,164.12c-.99,1.63-4.24,1.02-6,1,.12-.05-.07-.99,2.14-1.33,1.61-.25,2.95.46,3.86.33Z"/>
  <path class="cls-1" d="M110.99,164.12c-.05-.32.07-.68,0-1,.11.13.99.04.98.49-.18.59-.54.44-.98.51Z"/>
  <path class="cls-1" d="M156.99,163.12c.07-.15.87.15,1,0-.05,0,.15.93-.5.98l-.5-.98Z"/>
  <path class="cls-1" d="M162.99,163.12c-2.06,2.04-2.84,3.65-6.5,4.01-3.93-.25,3.53-3.17,4.5-4.01.64-.09,1.35.05,2,0Z"/>
  <path class="cls-1" d="M120.99,164.12c.82.83.91,2.4,3,2-.05.02.17.85-.51.99-2.48.51-6.83-3.54-2.49-2.99Z"/>
  <path class="cls-1" d="M12.99,122.12c-.03.05-.68,0-1,0,.05-.33-.05-.67,0-1,.76,0,1.09.2,1,1Z"/>
  <path class="cls-1" d="M186.99,123.12c2.41-.31,6.49-1.32,8.5-1.01.99.15-.76,1.28-.02,1.99,1.61-1.52,2.72-.26,1.99-2.95,2.29,1.91,3.17-1.22,5.53-1.03l-6,5.98,6.51-3.97c2.82,2.3,1.4,3.82.49,5.98,1.74-4.33-3.06-4.44-5-.5l3.97-1.01c-6.69,6.35-.07,4.22,1.02,1.51-1.04,2.47-1.68,3.76-4,5.5l1.95.54c-1.02,3.59-2.37,3.32-4.95,5.46l2.97-.02c-1.77,5.19-3.55,7.67-6.98,11.51.66-1.48-.55-1.56-1-2-.65-.63-.54-1.18-2-1,.17-.97,1.39-2.18,1.01-3.49h-1.99s2.97-5.51,2.97-5.51l-2.98.99c-.44-1.64,1.74-.46,2.01-1.64.3-1.3-.16-2.96-.03-4.36l-1.98,1.01-1.01-10.01v18.5c0,.74-1.96,3.73-2,6.5-2.63,1.96-4.21,5.48-7,7.5-.04.89,1.31.47,2,.5-.19.11-.35,1.05-1.04,1.44-2.8,1.57-13.47,7.35-15.97,5.55-.27-.2,2.07-2.97,0-2.99.46-.64,2.21-2.75,2-2.99-.66-.07-1.34.06-2-.01,1.13-2.69.68-5.1,1.98-7.53-1.87,1.11-3.09-.86-1.97-2.48l1.99,1.02c-.54-2.01-.99-3.2.99-4.52l-1.98-.48c.62-4.74-1.78-11.08,1.99-14.52-4.24-1.07.24-1.35,0-4.5l-1.99-.48c5.98-6.83,8.48-4.34,16-2.51,4.32,1.05,2.67.43,6,0Z"/>
  <path class="cls-1" d="M193.99,120.12c-.66.13-.45,1.68-2,0,.63-.08,1.53.16,2,0Z"/>
  <path class="cls-1" d="M129.99,98.12c.3.53.62,1.3,1,2,.23.39-.22,1.59,0,2-2.08-3.21-1.62-2.77-3-6,.16.16.87-.17,1,0,.17.22.6,1.33,1,2Z"/>
  <path class="cls-1" d="M184.99,44.12c.2.09.43,1.62,2.47,1.99,4.14.75,11.54.24,16.03,0,2.39.18,6.04,8.98,6.4,11.61.5,3.61.43,9.96-2,12.82-1.63,1.92-2.79,1.18-4.58,1.96-.34.15-.36,1.58-.98,1.66-1.79.24-5.02-1.76-7.35-1.04l2.99-2h-3.99c-.82-2.62,2.95-2.46,3.09-3.62.12-1.02-1.21-3.13-1.09-3.36.06-.12,1.52.49,2.35-1.29s-.36-2.57-.35-2.71c.34-3.05.74-5.18,1.99-8.01l-2,.5c-.31-1.86,1.38-5.21-1.99-4.49.71,1.51,1.02,2.72,1.06,4.43s.75,6.8-1.05,7.56c-.09-3.09.28-6.18-.29-9.26-.32-1.74-.42-3.31-2.72-2.72.71,1.57,1.7,2.69,1.94,4.54.96,7.27-1.21,16.56-3.94,22.45-1.89.76-1.54.05-3,2-10.48,3.61-7.89.33-14.98-1.37-3.49-.84-7.49,1.16-10.02-4.62h5.99c-2.04.43-5.9-.79-6-3.01,0-.16.74-2.09,1-3,.1-.36.71-1.28,1-2,.29-.64.67-1.35,1-2,.32-.65.66-1.38,1-2,.19-.34.78-.63,1-1,.41-.72.72-1.55,1-2,.22-.35.74-.62,1-1,.53-.77.76-1.67,1-2,.26-.36.72-.63,1-1,.28-.35.7-.64,1-1,.64-.78.81-1.78,1-2,.3-.35.68-.66,1-1,.42-.3,1.19-.18,1-1,2.16.54.44,2.27-.19,3.31-2.02,3.33-10.39,13.37-10.67,16.37-.24,2.66,3.27,2.51,4.85,2.31l-3.99-2.98,4.99-.02-3.99-1.48,3.99-1.52c.36-1.68-.9-.68-1.36-.98-1.97-1.29,3.37-2.47,4.36-2.02.36-2.12-3.97.28-2.99-2.47.68-1.9,2.75-.75,3.98-.52.49-1.79-2.29-.44-1.99-1.49.53-1.87,8.17-10.92,9.99-11.51.28-.09,1.79-.09,2,0Z"/>
  <path class="cls-1" d="M61.99,179.12c-.21.43-1.43.89-2,1,.46-.19,1.32-.68,2-1Z"/>
  <path class="cls-1" d="M55.99,180.12c1.26-.17,2.82.22,4,0-2.02.86-6.85,3.86-9,4-1.34.08-10.42-1.05-12.08-1.43-2.67-.6-3.23-2.25-3.92-2.57.74.26,14.32,2.12,15.5,2.09,3.68-.1,3.45-1.14,5.5-2.09Z"/>
  <path class="cls-1" d="M182.99,44.12c-1.14.18-.93-1-1-1,.04.05,1.17-.11,1,1Z"/>
  <path class="cls-1" d="M189.99,24.12c.1.8.74,2.76,1,4-2.06,1.68-1.25,1.85-2,3-1.19,1.83-1.23,1.91-2,4-.42,1.16-.67,1.58-1,3-.07.3-1.33.7-.86,2.2.6,1.89,3.41,2.3-.14,3.8-1.21-1.77-4.1-5.35-6-6-1.97-5.08-1.51-6.93,0-12l2.01-.5c0-.83-1.22-.59-2.01-.5.58-2.39,3.79-.19,2-3,.71-.46,3.98.94,4-1,1.97,1.24,2.4,2.18,5,3Z"/>
  <path class="cls-1" d="M204.99,29.12c.88.43,2.16.33,3.34,1.11,9.33,6.21,3.15,14.81-6.33,14.88-.31-.34.8-4.85,1-5,.29-.21,6.77,3.17,4.51-.98l-3.52.97,1.99-2.5-1.97-.98c3.05-2.09.83-4.47.98-7.51Z"/>
  <path class="cls-1" d="M189.99,24.12c-.73-5.87,1.63-6.63,5-10.99-2.17-1.99-6.06,7.68-7.99,7.99-.24-16.67,5.02-10.26,12.99-5l-1.98.48c2.46,2.02-1.26,6.28-1.02,6.51,2.34,2.29,3.58-5.97,3-6.99,5.86,3.86,10.48,2.72,9.99,13-.58.63-8.03-3.39-9.72-3.77-3.32-.74-6.46-.03-10.27-1.23Z"/>
  <path class="cls-1" d="M148.99,30.12c.97-1.29.95-2.79,1.09-2.94.13-.14,1.32.88,1.71.69.23-.11.23-1.57,1.45-2.05,5.45-2.13,11.96-2.36,17.37.18,2.21,1.04,2.1,2.61,2.56,2.92.68.45,1.36-2.3,2.8,1.72l-1.9-.4c.98,4.99-5.71,2.32-9.67,2.83-1.37.17-2.05.96-2.42,1.04-1.48.31-1.85.58-3,1-2.08.76-2.45,1.21-4,2-1.72.88-2.15,1.5-3,2-.56.33-1.22.49-2,1s-.94.96-1,1c-.8.53-4.85,1.78-5,2,.17-.11-.15-.77,0-1,1.82-2.72-.83-5.84.01-9l1.98,2.99c-.72-3.06,1.01-4.08,2.01-5.99-.19.37.11.76.5.98.64.01.41-.86.5-.98Z"/>
  <path class="cls-1" d="M24.99,119.12c-.42.52-.58,1.49-1,2-.48.21-1.58-.22-2,0,.86-.51.46-1.19,3-2Z"/>
  <path class="cls-1" d="M132.99,103.12c.21.42-.19,1.48,0,2-1.62-1.68-1.19-1.75-2-3,.15.27,1.54.56,2,1Z"/>
  <path class="cls-1" d="M77.99,109.12c-5.93-6.23-11.65-5.15-19-3-2.71.79-2.5.61-5,2-.52.29-1.41.71-2,1-3.25,1.3-2.75,1.43-5,3-2.27,1.11-6.16,3.27-8,4-1.57.63-4.69.68-8,2-1.79.44-3.83.3-6,1,.43-.52.6-1.59,1-2,3.88-1.13,6.89-1.27,11-3,.87-.37,1.16-.49,2-1,.46-.28,1.19-.5,2-1,3.33-1.38,5.91-3.46,9-5,1.16-.45,4.53-1.87,5-2,.67-.3,1.6-.87,2-1,8.97-2.82,19.05-1.09,24.98,6.51-1.32.05-2.35-1.08-3.98-1.51Z"/>
  <path class="cls-1" d="M195.99,105.12c-.22-.24-1.55-.07-1-2,1.55-.13.77,1.75,1,2Z"/>
  <path class="cls-1" d="M133.99,106.12c-.36-.3-.67-.66-1-1,.08.22.76.56,1,1Z"/>
  <path class="cls-1" d="M195.99,105.12c.15.16.7-.13,1,0-.1.11.07.96-.49.98-.63.03-.44-.9-.51-.98Z"/>
  <path class="cls-1" d="M186.99,38.12c-.29,3.02-1.08,2.99-1,0,.32.07.7-.09,1,0Z"/>
  <path class="cls-1" d="M127.99,118.12c-.5.27-1.27-.5-1-1,.09-.16.8.15,1,0-.15.2.16.91,0,1Z"/>
  <path class="cls-1" d="M134.99,107.12c-.38-.24-.66-.71-1-1,.03.06,1.2-.03,1,1Z"/>
  <path class="cls-1" d="M11.99,119.12c-.12.59.1,1.37,0,2-.76,0-1.09.2-1,1-.17-1.04-1.92-3.03-.99-5,1.43-.47.87,1.59,1.99,2Z"/>
  <path class="cls-1" d="M194.99,109.12c-.11-.25-1.53-.15-1-2,1.52-.1.77,1.74,1,2Z"/>
  <path class="cls-1" d="M109.99,55.12c5.2-10.83,16.75-20.31,29.55-19.11,2.41.23.64,2.29,2.44,2.11l1-2,1.01,5.99c-3.64-.52-1.65,2.07,0,1-.06.09,1.18,1.89,1.01,1.99-13.05-1.7-20.74,2.83-30.01,11.01-.35.31-.66.68-1,1s-.67.66-1,1c-.91.94-3.84,4.26-3.99,3.99-.18-.9.23-2.3-.01-2.99,1.5-.06,1.05-2.53,1-4Z"/>
  <path class="cls-1" d="M178.99,26.12v-1s.03.68,0,1Z"/>
  <path class="cls-1" d="M128.99,117.12c-.09.16-.8-.15-1,0,.15-.2-.16-.91,0-1,.5-.27,1.27.5,1,1Z"/>
  <path class="cls-1" d="M144.99,110.12c.11.05-.11.97,0,1-.57-.28-1.64-.88-2-1,.26.23,1.5-.21,2,0Z"/>
  <path class="cls-1" d="M193.99,112.12c-.05-.12-2.01-.76-1-2,.48-.59,1.39,1.05,1,2Z"/>
  <path class="cls-1" d="M144.99,111.12c.29.09.67-.08,1,0-.02.46.04.79-.5.98-.64-.05-.45-.96-.5-.98Z"/>
  <path class="cls-1" d="M161.99,34.12c4.36-.74,10.4.53,15,0l-1,3.99c.9.19,2.3-.24,3,0,.89,2.3,1.46,3.13,3,5-3.31-.12-4.27,2.3-6,4-.34.33-.67.66-1,1-.36.26-.69.67-1,1-.72.78-.75,1.69-1,2-.29.36-.72.63-1,1-.28.36-.72.62-1,1-.6.82-.71,1.58-1,2-.24.36-.76.62-1,1-.51.8-.69,1.48-1,2-.21.35-.79.62-1,1-.42.73-.65,1.3-1,2-.35.69-.69,1.24-1,2-.3.65-.69,1.17-1,2-.45,1.19-.66,1.56-1,3-.44,1.89-2.08,3.29,0,6-.57-.16-1.47.17-2,0-3.24-4.83-8.1-9.42-11-15-.32-4.66-3.18-10.89-2.66-15.54.07-.64.92-1.5,1.65-1.46.57,3.36-1.65,9.04,2,11-.16-3.08-2.08-9.43-1.99-12,0-.09,1.16-.3,1-1l3,5.99-1-6.99c1.73.11.25,2.42,1.99,1.99.29-.75.85-3.87,1.01-3.99.55-.4,3.55,1.45,3.99,1,.32-.31-.27-2.67,0-3,.1-.12,2.84-.97,3-1Z"/>
  <path class="cls-1" d="M103.98,169.13v.98c-4.16.5-4.16-1.48,0-.98Z"/>
  <path class="cls-1" d="M203,134.12c-.67-1.25,1.6-3.49,1.98-3,.67,1.25-1.6,3.49-1.98,3Z"/>
  <path class="cls-1" d="M94.49,68.12c.65.33.65.67,0,1v-1Z"/>
  <path class="cls-1" d="M84.49,80.12c.65.33.65.67,0,1v-1Z"/>
  <path class="cls-1" d="M137.98,34.13l-12.99,2.98c2.24-4.92,8.56-2.48,12.99-2.98Z"/>
  <path class="cls-1" d="M188.49,41.12c.65.33.65.67,0,1v-1Z"/>
  <path class="cls-1" d="M8.98,151.12l-1.5-12.97c3.01,3.31.95,8.9,1.5,12.97Z"/>
  <path class="cls-1" d="M9.98,154.12c-.35.68-1.7-.59-.98-1.99.35-.68,1.7.59.98,1.99Z"/>
  <path class="cls-1" d="M177.49,36.12c.65.33.65.67,0,1v-1Z"/>
  <path class="cls-1" d="M176.49,28.12c.65.33.65.67,0,1v-1Z"/>
  <path class="cls-1" d="M195.99,64.12c-.47.47-1.59-.93-.5-1,.35-.02.72.78.5,1Z"/>
  <polygon points="153.99 134.12 154 132.12 155.99 133.63 153.99 134.12 155.98 138.12 152 134.61 153.99 134.12"/>
  <polygon points="121.99 134.11 119.99 134.12 120 130.13 120.98 130.13 121.99 134.11"/>
  <polygon points="110.98 148.12 109 145.12 111.98 143.13 110.98 148.12"/>
  <path d="M123.99,129.11c-2.09.29-2.28.1-1.99-1.99l1.99,1.99Z"/>
  <path d="M125.98,125.13c.68.35-.59,1.7-1.99.98-.68-.35.59-1.7,1.99-.98Z"/>
  <path d="M109,124.13c.47-.97,1.93,1.98,1.5,2.97-1.08-.89-1.83-1.51-1.5-2.97Z"/>
  <path d="M174.99,104.11c-1.98,1.67-2.84-3.17-2.99-4.99.73-.93,3.22,4.79,2.99,4.99Z"/>
  <rect x="175" y="98.13" width=".98" height="3.99"/>
  <path d="M150.98,93.12c-.35.68-1.7-.59-.98-1.99.35-.68,1.7.59.98,1.99Z"/>
  <path d="M84.98,144.13v.98c-4.16.5-4.16-1.48,0-.98Z"/>
  <path d="M83.98,143.12c-.35.68-1.7-.59-.98-1.99.35-.68,1.7.59.98,1.99Z"/>
  <path d="M83.49,138.12c.65.33.65.67,0,1v-1Z"/>
  <path d="M207.98,42.13c.68.35-.59,1.7-1.99.98-.68-.35.59-1.7,1.99-.98Z"/>
  <path d="M203,23.12c-.41-1.3,1.5-5.03,1.98-3.99.27,1.78-.06,3.51-1.98,3.99Z"/>
  <path class="cls-1" d="M74.92,126.2c.21.22.83,6.09-.92,5.91l-1.99-6.5c.48-.29,2.81.48,2.91.59Z"/>
  <rect class="cls-1" x="76" y="127.13" width=".98" height="4.99"/>
  <rect class="cls-1" x="64.99" y="121.13" width="4.99" height=".98"/>
  <rect class="cls-1" x="65.99" y="124.13" width="3.99" height=".98"/>
  <path class="cls-1" d="M73.98,122.13v.98c-4.16.5-4.16-1.48,0-.98Z"/>
  <path class="cls-1" d="M70.98,130.13c2.46,2.82-4.06.8-3.97.5.45-1.65,3.42-1.14,3.97-.5Z"/>
  <path class="cls-1" d="M67.98,132.13c.07.07.38,2.12-.49,1.99-2.73-1.56-.67-3.13.49-1.99Z"/>
  <path class="cls-1" d="M69.99,129.11c-.18-1.97,1.96-1.01,2.97.52l-2.97-.52Z"/>
  <path class="cls-1" d="M75.49,133.12c.65.33.65.67,0,1v-1Z"/>
  <path class="cls-1" d="M73.49,133.12c.65.33.65.67,0,1v-1Z"/>
  <path class="cls-1" d="M64.49,123.12c.65.33.65.67,0,1v-1Z"/>
  <rect class="cls-1" x="86.16" y="112.86" width=".66" height="3.52" transform="translate(-55.72 94.73) rotate(-45)"/>
  <path class="cls-1" d="M167.98,120.13v.98c-4.16.5-4.16-1.48,0-.98Z"/>
  <path class="cls-1" d="M163.98,155.12c-.35.68-1.7-.59-.98-1.99.35-.68,1.7.59.98,1.99Z"/>
  <path class="cls-1" d="M166.98,122.13c.68.35-.59,1.7-1.99.98-.68-.35.59-1.7,1.99-.98Z"/>
  <polygon class="cls-1" points="110.98 75.12 109.27 71.34 109 65.13 110.98 75.12"/>
  <path class="cls-1" d="M105.98,104.12c-.35.68-1.7-.59-.98-1.99.35-.68,1.7.59.98,1.99Z"/>
  <path class="cls-1" d="M78.49,82.12c.65.33.65.67,0,1v-1Z"/>
  <path class="cls-1" d="M81.49,83.12c.65.33.65.67,0,1v-1Z"/>
  <path class="cls-1" d="M189.98,138.12c-.35.68-1.7-.59-.98-1.99.35-.68,1.7.59.98,1.99Z"/>
  <path class="cls-1" d="M188.49,146.12c.65.33.65.67,0,1v-1Z"/>
  <path class="cls-1" d="M120.98,56.12c-.14.14-.65-.05-.98,0-.27-1.78.06-3.51,1.98-3.99.11.79-.77,3.77-1,3.99Z"/>
  <path class="cls-1" d="M146.98,47.12c-.35.68-1.7-.59-.98-1.99.35-.68,1.7.59.98,1.99Z"/>
  <path class="cls-1" d="M42.49,133.12c.65.33.65.67,0,1v-1Z"/>
  <path class="cls-1" d="M197.99,60.12c.47.47-.93,1.59-1,.5-.02-.35.78-.72,1-.5Z"/>
  <path d="M144,74.12l.49-5.99c2.21,1.65,2.26,5.02-.49,5.99Z"/>
  <path d="M127.98,53.12h-.98c-.5-4.16,1.48-4.16.98,0Z"/>
</svg>