<?xml version="1.0" encoding="UTF-8"?>
<svg id="a" data-name="Layer_1" xmlns="http://www.w3.org/2000/svg" viewBox="0 0 107.33 240.15">
  <path d="M73.99,89.95c-.89.23-1.78.46-2.67.69-.03-.1-.07-.19-.1-.29.25-.1.49-.27.74-.29,1.76-.14,2.81-1.17,3.48-2.71,1.25-2.86,2.46-5.75,3.83-8.56.62-1.28.75-2.43-.02-3.6-.19-.29-.65-.51-1.01-.55-.68-.09-1.38-.03-2.07-.03,0-.1,0-.2-.01-.29.99-.08,1.98-.17,3.07-.26.22.51.54,1.25.95,2.19.71-1.67,1.34-3.15,1.97-4.64-1.87,7.42-6.28,13.83-8.37,21.15.1.05.2.11.3.16,1.27-2.12,2.5-4.26,3.82-6.35.54-.86,1.26-1.61,1.92-2.39.37-.44.8-.85,1.44-1.52-.16.51-.17.78-.3.94-.3.37-.66.69-1,1.03-.7.7-1.56,1.31-1.36,2.51l.03-.02c-.09.09-.18.18-.27.27,0,0,.03-.03.03-.03-.25.41-.49.82-.74,1.23,0,0,.02-.03.02-.03l-1.22,1.31c.06.07.13.13.19.2.27-.17.53-.35.8-.52,0,0-.03-.02-.03-.02-1.26,2.06-1.42,4.33-1.51,6.68-.06,1.39-.5,2.77-.83,4.13-.84,3.5-1.2,6.96-.05,10.49.45,1.39.48,2.92.72,4.39.04.23.16.44.28.65,1.7,3.01,3.51,5.97,5.09,9.04,1.14,2.23,2.02,4.59,2.96,6.92.42,1.05.78,2.14,1.06,3.24.47,1.86.85,3.75,1.01,5.71-.41-1.41-.81-2.82-1.24-4.22-.38-1.25-.76-2.51-1.18-3.75-.46-1.37-.92-2.75-1.46-4.09-1.24-3.07-2.72-6.02-4.61-8.75-1.23-1.78-2.36-3.63-3.37-5.54-.42-.8-.33-1.86-.62-2.75-.36-1.11-.88-2.16-1.5-3.2-.22.74-.49,1.33.16,2.15.64.81.89,1.96,1.2,3,.56,1.87,1.24,3.75,1.49,5.67.12.94-.09,1.97.26,2.9.79,2.09,1.85,4.1,2.44,6.24.88,3.2,3.17,5.41,4.93,8.01.98,1.45,1.85,2.98,2.79,4.46.25.4.55.76.71,1.22-2.84-2.2-3.78-5.81-6.42-8.35.11,1.36.22,2.72.34,4.29-1.26-1.86-.12-4.29-1.54-5.89-.18.04-.37.08-.55.12.33,2.17.65,4.34.98,6.51-1.12-1.95-.92-4.23-1.4-6.35-.14.01-.29.03-.43.04.15,1.94.29,3.89.45,6.02-.24-.36-.4-.6-.57-.84-.1-1.74-.2-3.48-.3-5.21l-.56.05c.25,1.75.5,3.51.75,5.26.18.84.36,1.68.61,2.81,1.44-.93,2.75-1.77,4.06-2.62l.19.25c-.75.54-1.44,1.18-2.25,1.61-1.56.83-3.19,1.53-4.77,2.32-.34.17-.61.5-.93.78-.16-.04-.52-.24-.79-.17-2.2.61-4.38,1.32-6.72.69-.42-.11-.9.04-1.34-.02-.73-.1-1.43-.03-1.66.73-.26.88-.32,1.82-.47,2.74-.02.14-.07.27-.12.4-.16.41-.33.82-.57,1.39.75-.12,1.26-.2,1.76-.28.02.09.04.19.06.28-.49.12-.97.24-1.58.38-.1.5-.22,1.1-.38,1.89h2.9v.35h-2.6c0,.1,0,.2,0,.31h3.52c.07.11.13.22.2.33-.2.04-.4.08-.58.12.13.17.17.27.21.27,2.85.18,5.69.42,8.54.48.87.02,1.76-.39,2.62-.69,1.5-.52,3-1.08,4.47-1.67.3-.12.57-.45.75-.75,1.32-2.18,1.61-4.58,1.44-7.07-.04-.53,0-1.07.07-1.6.65,1.75,0,5.71-.46,7.47-.64,2.45-2.59,2.79-4.41,3.5-.07.03-.16.02-.23.04-2.43.45-2.9,1.5-1.35,3.45,1.76,2.24,2.65,4.66,2.48,7.55-.11,1.93.08,3.88.24,5.81.05.55.45,1.07.67,1.61.73,1.79,1.01,5.87.5,8.35-.17-1.99-1.99-.5-2.72-1.62.94.05,1.66.09,2.52.13-.04-2.57.43-5.04-1.02-7.36-.45-.72-.52-1.72-.6-2.61-.1-1.07-.11-2.16,0-3.23.32-3.45-.51-6.5-3.01-9.04-.65.04-1.4.08-2.5.14.61.2.9.29,1.25.41-.1.09-.17.22-.23.21-1.17-.06-2.29.17-3.48-.56-.62-.38-1.86.26-2.82.43-.76.13-1.53.24-2.29.37-.03-.11-.05-.22-.08-.33.71-.16,1.42-.33,2.13-.49,1.52-.32,3.03-.64,4.55-.96.69-.03,1.37-.07,2.06-.1-.03.1-.06.2-.09.3.32.1.64.19.93.28-.1-.49-.18-.85-.25-1.2.12-.05.25-.11.37-.16-.04-.05-.1-.14-.12-.13-.12.05-.23.12-.35.18-.88.24-1.76.48-2.64.72-1.63-.2-3.12.24-4.55.96h-6.37c-.18,2.4-.36,4.67-.53,6.95-.05,0-.1,0-.15,0,0-1.41-.07-2.83.02-4.24.13-2.19.32-4.38.57-6.57.26-2.22.65-4.43.96-6.64.37-2.65.7-5.31,1.06-7.96.37-2.73.72-5.46,1.14-8.18.27-1.71.58-3.41,1.03-5.08.38-1.36,1-2.66,1.51-3.98.03-.07.11-.13.11-.2.06-2.32,1.48-4.24,1.92-6.44.04-.19,0-.39-.17-.63-.2.5-.37,1.01-.6,1.5-.86,1.82-1.73,3.64-2.81,5.4.32-1.04.61-2.09.96-3.13.63-1.85,1.27-3.7,1.96-5.53.25-.67.63-1.3,1.01-1.92.52-.83.45-2.6-.01-3.49-.27-.51-.19-1.19-.39-1.75-1.26-3.37-2.54-6.73-3.85-10.07-.21-.54-.63-1-.75-1.61,1.84,2.71,2.91,5.78,3.99,8.84.39-.56.36-.55-.02-1.99-.43-1.63-.74-3.3-1.21-4.91-1.03-3.5-2.14-6.97-3.21-10.46-1.64-5.34-3.38-10.66-4.83-16.05-.59-2.18-.52-4.53-.77-7.02-.68,1.6-1.22,3.09-1.93,4.5-1.26,2.48-2.64,4.89-3.94,7.35-1.19,2.27-2.35,4.55-3.48,6.84-.46.94.4,1.49.85,2.09.48.64,1.11,1.17,1.68,1.75-.09.08-.18.16-.26.24-.97-.98-1.94-1.95-2.91-2.93-.07.08-.15.15-.22.23.67.99,1.34,1.97,1.98,2.98.04.07-.13.28-.21.43-.08-.08-.16-.16-.24-.24-.08-.08-.16-.16-.24-.24-.08-.08-.16-.16-.24-.24-.08-.16-.16-.32-.24-.48-.2-.37-.4-.73-.6-1.1-.11.08-.21.16-.32.24.27.32.54.64.81.96.08.16.16.32.24.48.08.08.16.16.24.24.08.08.16.16.24.24.08.08.16.16.24.24.07.16.13.33.2.49-.19-.04-.38-.08-.57-.12-.16-.16-.32-.32-.48-.48-.08-.08-.16-.16-.24-.24-.33-.37-.35-1.2-1.3-.69.4.27.8.53,1.19.8.08.08.16.16.24.24.16.16.32.32.48.48.91.96,1.75,2.01,2.75,2.87,1.51,1.31,3.3,2.33,4.67,3.76,1.86,1.95,3.4,4.19,5.14,6.26,2.27,2.72,4.6,5.4,6.9,8.1.15.17.29.34.44.52l-.18.24c-.37-.24-.74-.48-1.24-.8v2.53c-.1,0-.2,0-.31,0-.35-1.16.23-2.49-.55-3.55v5.78c.08,0,.16,0,.24,0,.48-.99.96-1.98,1.44-2.97.1.05.2.09.3.14-.44,1.07-.85,2.16-1.32,3.21-1.54,3.46-3.09,6.91-4.66,10.35-.91,1.99-1.9,3.93-2.82,5.92-.9,1.96-1.76,3.93-2.61,5.91-1.4,3.27-2.87,6.51-4.13,9.83-.73,1.93-1.33,3.96-1.56,6-.12,1.05.62,2.24,1.11,3.3,1.64,3.6,3.34,7.17,5.02,10.76.05.12.11.25.16.37.05-.04.14-.1.13-.12-.05-.12-.12-.23-.18-.35-.16-.8-.35-1.6-.47-2.4-.06-.39-.01-.8.14-1.18.39,1.47.79,2.93,1.18,4.4.32.96.64,1.92.96,2.88.08.04.15.08.23.12l-.12-.23c0-.67-.06-1.34,0-2,.08-.79-.32-.95-.97-.88-.09-1.11-.18-2.23-.29-3.63,2.3,2.89,1.31,6.13,1.94,9.04-.78-1.45-1.61-2.88-2.34-4.36-1.08-2.18-2.1-4.39-3.13-6.6-.56-1.2-1.04-2.45-1.67-3.62-.17-.32-.71-.59-1.1-.62-1.07-.08-2.15,0-3.23-.04-.33-.01-.66-.19-.92-.48h4.62c-.24-.45-.43-.79-.61-1.13l.02.02c-.46-1.25-.92-2.5-1.34-3.66.22-.43.48-.81.61-1.23.98-3.13,1.86-6.29,3.33-9.26,1.21-2.46,2.23-5.01,3.43-7.75-.93,0-1.74.03-2.54,0-.73-.03-1.64-.19-1.53-1.07.21-1.61-.11-3.31.88-4.82.95-1.45,3.35-2.61,5.1-2.18-.86.24-1.59.41-2.3.64-2.04.66-3.1,2.12-3.11,4.22,0,.32.03.64-.02.96-.23,1.63.34,2.22,1.95,2.03.52-.06,1.06-.06,1.79-.1.27-.71.6-1.58.93-2.45.04-.08.08-.15.12-.23-.08.04-.15.08-.23.12-.63.35-1.26.7-1.88,1.04-.06-.09-.12-.17-.19-.26.57-.39,1.13-.78,1.7-1.16.04-.08.08-.15.12-.23-.08.04-.15.08-.23.12-.05-.17-.19-.44-.13-.49.56-.47,1.25-.83,1.7-1.38.44-.54.63-1.27.93-1.92l-.02.03c.63-1.16,1.26-2.32,1.9-3.48-1.69-.51-3.28-.99-4.87-1.48-.01-.15-.03-.29-.04-.44.75-.45,1.5-.9,2.16-1.3-.2-.09-.63-.27-1.37-.59.69-.44,1.14-.74,1.78-1.15-.25-.12-.52-.26-.8-.39.08-.1.17-.2.25-.3l.86.67c-.31.38-.62.75-1.03,1.26.92.11,1.84.21,2.8.33-.46-3.92-.2-7.55,1.02-11.09.09-.26.09-.6.27-.77,1.46-1.41.46-2.51-.43-3.62-2.33-2.91-4.57-5.9-7.06-8.66-1.36-1.52-3.16-2.65-4.98-4.13-.1.88-.15,1.37-.2,1.86h-.27c0-.53.07-1.08-.02-1.61-.05-.32-.35-.59-.54-.88l.03.03c-1.01-1.08-1.95-2.24-3.06-3.19-.65-.56-.89-.98-.52-1.76,1.27-2.66,2.45-5.35,3.76-7.99,1.98-3.96,4.06-7.86,6.06-11.81.49-.96.83-2,1.23-3,.12.01.23.02.35.04.08.51.23,1.02.23,1.53.01,4.95,1.16,9.66,2.78,14.3.78,2.25,1.28,4.6,2.05,6.86.63,1.86,1.37,3.72,2.72,5.21.27.29.84.31,1.31.42.3.13.63.4.89.34.45-.1.84-.44,1.28-.61.4-.15.85-.31,1.25-.25,1.02.15,2.02.43,3.14.68-.37.1-.67.19-1.16.33.32.2.49.31.98.61-1.03.44-1.87.8-2.71,1.16-.05-.11-.11-.22-.16-.33.3-.16.61-.33.87-.46-1.32-.46-1.8-.33-4.29,1.29.15-.71.26-1.29.47-2.27-.67.52-1.08.84-1.72,1.33.2-.52.33-.84.49-1.25-.31-.21-.66-.45-1.28-.88.64,2.31,1.22,4.32,1.76,6.34.5,1.9.92,3.81,1.45,5.7.14.51.57.95.82,1.33-.21.76-.45,1.65-.74,2.73,1.11-.53,4.13-9.15,4.8-12.99.04-.08.08-.15.12-.23-.08.04-.15.08-.23.12ZM74.33,141.13c.04-.08.08-.15.12-.23-.08.04-.15.08-.23.12-.04.08-.08.15-.12.23.08-.04.15-.08.23-.12ZM73.86,97.97c.08-.08.16-.16.24-.24l.24-.24.24-.24.24-.24c.27-.31.53-.63.8-.94-.11-.08-.23-.16-.34-.24-.19.36-.38.72-.56,1.08-.08.08-.16.16-.24.24-.08.08-.16.16-.24.24-.08.08-.16.16-.24.24-.08.08-.16.16-.24.24-.04.08-.08.15-.12.23.08-.04.15-.08.23-.12ZM74.09,96.77c.04-.08.08-.15.12-.23-.08.04-.15.08-.23.12-.04.08-.08.15-.12.23.08-.04.15-.08.23-.12ZM73.62,95.09c.06-.12.14-.23.19-.35,0-.02-.08-.08-.13-.12-.05.12-.11.25-.16.37-.04.08-.08.15-.12.23.08-.04.15-.08.23-.12ZM70.98,102.28c.06-.12.14-.23.19-.35,0-.02-.08-.08-.13-.12-.05.12-.11.25-.16.37-.04.08-.08.15-.12.23.08-.04.15-.08.23-.12ZM74.47,93.07l-.36.43c.06.04.17.11.17.1.1-.14.19-.28.29-.43.04-.08.08-.15.12-.23-.08.04-.15.08-.23.12ZM71.46,101.08c.08-.24.16-.48.24-.72.33-1.07,1.43-1.97.79-3.52-.34,1.3-.62,2.36-.9,3.42-.08.24-.16.48-.24.72-.06.12-.13.23-.18.35,0,.02.08.08.13.12.05-.12.11-.25.16-.37ZM75.19,91.87c-.17.19-.33.38-.5.57.09.06.18.12.27.19.11-.22.22-.44.33-.65.04-.08.08-.15.12-.23-.08.04-.15.08-.23.12ZM73.99,118.1c.04.2.09.41.13.61l.21-.05c-.08-.22-.15-.44-.23-.66-.03-.27-.07-.55-.1-.82-.09.02-.17.04-.26.05.08.29.16.58.24.86ZM75.19,128.07c-.24.16-.48.32-.72.48-.04.08-.08.15-.12.23.08-.04.15-.08.23-.12.24-.16.48-.32.72-.48.04-.08.08-.15.12-.23-.08.04-.15.08-.23.12ZM60.33,125.2l-.62.77c.13.07.25.15.38.22.11-.3.23-.59.34-.89l.12-.23c-.08.04-.15.08-.23.12ZM74.81,127.7c.19-.03.45.01.55-.1.11-.12.08-.37.11-.57-.09-.06-.17-.12-.26-.18-.17.25-.34.49-.51.74-.04.08-.08.15-.12.23.08-.04.15-.08.23-.12ZM75.42,137.53c.03.33.05.67.08,1,.1-.02.2-.04.3-.07-.09-.34-.18-.69-.27-1.03-.08-.56-.16-1.12-.24-1.68-.08-.64-.16-1.28-.24-1.92v-1.46c-.13.01-.26.02-.39.03l.28,1.52c.08.64.16,1.28.24,1.92.08.56.16,1.12.24,1.68ZM73.03,114.75c.11.43.22.86.33,1.29.12-.05.23-.09.35-.14-.19-.42-.38-.83-.57-1.25-.16-.56-.32-1.12-.48-1.68-.13-.69-.26-1.39-.39-2.08-.17.05-.34.09-.51.14.27.68.53,1.36.8,2.04.16.56.32,1.12.48,1.68ZM74.95,130.23c-.04.24-.08.47-.12.71.41.02.83.05,1.57.09-.68-.35-1.01-.52-1.34-.69.08-.08.16-.16.24-.24.9.31,1.79.62,2.95,1.03-.76-2-1.43-3.75-2.06-5.41-.33,1.43-.66,2.86-.99,4.28-.08.08-.16.16-.24.24ZM75.05,141.37c2.28-.82,2.33-.95,1.05-3.18.14.67.28,1.33.43,2.04-.34-.05-.67-.11-1-.16l-.98-2.35.02.03c0-.12.03-.26-.02-.36-.8-1.75-1.32-3.54-.76-5.49.03-.1-.39-.32-.46-.37.52-.66,1.04-1.32,1.56-1.99l-.25-.24c-.32.15-.64.3-1.33.62.36-.79.57-1.26.78-1.73.04-.08.08-.15.12-.23-.08.04-.15.08-.23.12-.28.08-.56.15-.84.23.56-.65,1.29-1.05,1.79-1.66.45-.55,1.1-1.17.84-2.01-1.29.67-2.47,1.29-3.64,1.9-.07-.11-.13-.23-.2-.34,1.22-.85,3.06-.98,3.63-2.88-.99.35-1.81.65-2.62.94l-.11-.34c.42-.14.88-.21,1.24-.44.32-.21.52-.59.77-.9-.09-.06-.17-.12-.26-.19-.62.24-1.23.47-1.85.71l-.12-.29c.7-.31,1.41-.62,2.15-.94-.19-.52-.39-1.09-.59-1.66-.47.18-.86.33-1.25.48-.03-.07-.06-.13-.1-.2.37-.27.75-.54,1.39-1-.59-.23-1.02-.4-1.51-.59.83-.52,1.16-1.21.31-1.63-.17-.94-.3-1.6-.42-2.27h-.31c-.08.27-.15.56-.23.84-.5,1.72-1.34,2.63-2.44,2.66q-2,.06-2.55,1.93c-.12.41-.3.81-.38,1.23-.08.44-.28,1.12-.08,1.3,1.35,1.22,1.16,2.78,1.16,4.32,0,1.64-.5,2.08-2.27,2.01.08-.1.15-.26.22-.27,1.7-.15,1.8-1.3,1.67-2.62-.04-.36.09-.75-.03-1.07-.25-.69-.6-1.35-.91-2.02-.9,3.27-1.75,6.36-2.06,9.58-.32,3.36-.78,6.71-1.2,10.25.66-.15,1.32-.3,2.03-.46.5.8,4.22.9,5.57-.07-.64-.08-1.18-.16-1.71-.23,0-.05.01-.11.02-.16.95-.12,1.89-.24,2.84-.36l.82-.1c-.02-.09-.04-.17-.06-.26-.29.08-.58.17-.86.25h-4.85c.32-.25.67-.36,1.03-.37,2.35-.04,4.74.23,6.85-1.21.13-.09.36,0,.55,0-.16.37-.31.74-.47,1.11-.04.08-.08.15-.12.23.08-.04.15-.08.23-.12ZM75.19,97.38c-.47.52-.93,1.05-1.42,1.56-.2.21-.43.4-.66.58-.25.19-.63.3-.76.55-.35.66-.33,1.28.17,1.95.49.65.78,1.44,1.16,2.17.14-.05.27-.11.41-.16v-3.37c-.14.06-.39.16-.96.39.58-.74.92-1.21,1.29-1.65.47-.56,1.06-1.06.87-1.92.04-.08.08-.15.12-.23-.08.04-.15.08-.23.12ZM64.41,152.53c-.84.13-1.69.26-2.54.39-.09.64-.19,1.28-.29,1.99,2.71-.49,5.52.56,8.23-1.05h-6.69c0-.05-.01-.11-.02-.16,2.57-.13,5.14-.25,7.89-.38-.24-.29-.32-.45-.39-.45-1.96.03-3.92-.43-5.87.11-.04,0-.14-.22-.21-.34l.12-.23c-.08.04-.15.08-.23.12ZM65.63,102.44c-2.09,4.6-3.05,9.25-1.17,14.18.27-.47.51-.97.48-1.46-.1-1.73-.38-3.45-.41-5.18-.04-1.96.64-3.79,1.65-5.44.56-.92.55-1.5-.55-2.09ZM68.89,115.52c-.26.74-.47,1.34-.68,1.93.11.11.22.21.32.32.47-.32,1.02-.56,1.39-.96,2.11-2.26,2.32-4.89,1.34-7.65-.43.79-.89,1.62-1.35,2.46,1.13.46,1.34,1.6.26,2.2-1,.56-.75,1.12-.52,1.85.03.09-.04.22-.09.4-.2-.17-.37-.3-.67-.55ZM63.19,117.28l-.02.31c-1.22-.23-2.43-.46-3.65-.68,1.09,1.11,2.52,1.14,3.88,1.41.11.02.29-.2.42-.33.63-.59.16-1.2-.11-1.67-.13-.23-.77-.25-1.17-.23-.76.05-1.51.2-2.26.31,0,.07,0,.15,0,.22l2.92.66ZM65.67,113.33c.07.02.13.05.2.07.46-1.01.92-2.02,1.36-3.04.03-.06-.1-.17-.12-.26-.15-.79-.32-1.58-.43-2.38-.06-.47,0-.96-.01-1.44-.01-.43-.04-.86-.06-1.3-.11,0-.22,0-.33.01v6.49c-.2-.1-.37-.18-.59-.29v2.14ZM73.71,107.16c-.62,2.26-.08,4.53,1.26,5.94.02-.08.07-.16.06-.23-.41-1.82-.83-3.64-1.31-5.72ZM73.01,88.03c.05-.06.09-.12.14-.18-.71-.26-1.41-.68-2.14-.72-.93-.06-1.96.93-1.99,1.32,1.29-.13,2.64-.28,3.99-.42ZM70.95,104.4c2.03-.9,2.08-1.16.7-2.72-.23.92-.44,1.73-.7,2.72ZM65.72,107.21c-.17,0-.34,0-.51,0-.14,2.1-.28,4.2-.41,6.29.09,0,.18,0,.27.01.22-2.1.43-4.2.65-6.3ZM69.56,117.97c1.05-.01,1.73-.85,2.03-2.65-.74.96-1.38,1.81-2.03,2.65ZM71.35,152.98c-.05,1.07.31,1.12,2.23.18-.97-.08-1.59-.13-2.23-.18ZM74.19,95.09c1.5-1.29,1.63-1.6,1.36-2.61-.47.9-.91,1.76-1.36,2.61ZM71.18,108.07c.09,0,.18,0,.27,0v-2.32c-.09,0-.18,0-.27,0v2.32ZM74.23,135.64c.12-.01.25-.03.37-.04l-.35-2.94c-.11.01-.21.02-.32.03.1.98.19,1.97.29,2.95ZM69.9,109.22c.17.06.35.12.52.18.13-.8.26-1.61.4-2.41-.1-.02-.21-.04-.31-.06l-.61,2.3ZM69.43,109.76c-.09.46-1.01,1.2.31,1.2-.11-.41-.21-.8-.31-1.2ZM69.52,113.68c.14.02.28.03.42.05.02-.5.05-1,.07-1.51-.07,0-.14-.01-.21-.02-.09.49-.18.99-.28,1.48ZM63.75,152.32c0-.06.02-.11.02-.17h-1.51c0,.06,0,.11,0,.17h1.48ZM72.82,104.75l-.46-.48c-.22.15-.44.3-.66.44.12.13.26.39.35.38.27-.06.52-.22.77-.34ZM75.76,135.39s.09,0,.13,0v-1.29h-.13v1.3ZM72.37,107.04c.06.01.11.03.17.04v-1.28c-.06,0-.11,0-.17,0v1.23ZM70.68,104.18h-.37v.81c.1,0,.19,0,.29,0l.08-.82ZM75.45,133.42c.08.03.15.06.23.09v-.96c-.05,0-.1,0-.16,0-.03.29-.05.58-.08.87ZM76.23,136.26c-.08-.03-.15-.06-.23-.09v.96c.05,0,.1,0,.16,0,.03-.29.05-.58.08-.87ZM73.1,95.88c-.09-.03-.17-.06-.26-.09-.08.24-.17.48-.24.72,0,.02.09.07.2.16.1-.28.2-.53.29-.79ZM73.05,105.13c.08.03.15.06.23.09v-.96c-.05,0-.1,0-.16,0-.03.29-.05.58-.08.87ZM59.71,162.33s.09,0,.14,0v-.73c-.06,0-.12,0-.19,0,.01.24.03.49.04.73ZM65.15,114.58c.06.02.12.04.18.07.1-.2.19-.4.29-.59-.09-.03-.19-.07-.28-.1-.06.21-.12.42-.18.63ZM69.39,111.79c.04-.1.09-.2.13-.3-.21-.06-.42-.12-.63-.18-.02.06-.04.11-.07.17.19.1.38.2.57.31ZM73.45,154.95c0-.08-.01-.15-.02-.23l-.5.1s.01.08.02.13h.5ZM69.49,100.97c-.22-.09-.32-.16-.41-.16-.08,0-.15.09-.23.14.07.08.13.18.21.23.04.02.14-.06.43-.2ZM76.6,131.88c-.03-.05-.05-.13-.09-.14-.06-.02-.13.02-.2.03.03.06.05.15.1.18.03.02.11-.04.18-.07ZM75.36,94.84c-.04.06-.1.11-.11.17,0,.06.04.12.07.18.05-.06.13-.11.15-.18.01-.04-.06-.11-.1-.17ZM72.05,155.07c-.07-.03-.15-.09-.18-.07-.05.03-.07.12-.1.18.07.01.14.05.19.03.04,0,.06-.09.09-.14ZM73.8,116.65c-.02-.06-.05-.12-.07-.18-.05.06-.13.11-.15.18-.01.04.06.11.1.17.04-.05.08-.11.12-.16ZM71.21,142.63c.06.04.11.1.17.11.06,0,.12-.04.18-.07-.06-.05-.11-.13-.18-.15-.04-.01-.11.06-.17.1ZM74.71,119.6s-.05-.05-.07-.07c-.02.02-.05.05-.07.07.03.03.07.05.1.08.01-.02.03-.05.04-.07ZM74.47,119.12s-.05-.05-.07-.07c-.02.02-.05.05-.07.07.03.03.07.05.1.08.01-.02.03-.05.04-.07ZM75.85,91.15s.05-.05.07-.07c-.02-.02-.05-.05-.07-.07-.03.03-.05.07-.08.1.02.01.05.03.07.04ZM73.99,93.94s-.05-.05-.07-.07c-.02.02-.05.05-.07.07.03.03.07.05.1.08.01-.02.03-.05.04-.07ZM73.46,98.59s.05-.05.07-.07c-.02-.02-.05-.05-.07-.07-.03.03-.05.07-.08.1.02.01.05.03.07.04ZM74.47,100.18s-.05-.05-.07-.07c-.02.02-.05.05-.07.07.03.03.07.05.1.08.01-.02.03-.05.04-.07ZM63.21,143.58s-.05-.05-.07-.07c-.02.02-.05.05-.07.07.03.03.07.05.1.08.01-.02.03-.05.04-.07ZM75.91,153.89s-.05-.05-.07-.07c-.02.02-.05.05-.07.07.03.03.07.05.1.08.01-.02.03-.05.04-.07ZM74.7,136.13s-.05-.03-.07-.04c0,.05,0,.1,0,.14.02-.01.06-.02.07-.03.01-.01,0-.05,0-.07ZM71.73,114.76s-.03.05-.04.07c.05,0,.1,0,.14,0-.01-.02-.02-.06-.03-.07-.01-.01-.05,0-.07,0ZM74.9,114.65s.05-.05.07-.07c-.02-.02-.05-.05-.07-.07-.03.03-.05.07-.08.1.02.01.05.03.07.04ZM74.66,114.17s.05-.05.07-.07c-.02-.02-.05-.05-.07-.07-.03.03-.05.07-.08.1.02.01.05.03.07.04ZM74.46,113.59s-.05-.03-.07-.04c0,.05,0,.1,0,.14.02-.01.06-.02.07-.03.01-.01,0-.05,0-.07ZM70.64,103.05s-.05-.05-.07-.07c-.02.02-.05.05-.07.07.03.03.07.05.1.08.01-.02.03-.05.04-.07ZM66.03,86.84s.05-.05.07-.07c-.02-.02-.05-.05-.07-.07-.03.03-.05.07-.08.1.02.01.05.03.07.04Z"/>
  <path d="M75.78,231.04c.43.53.86,1.06,1.3,1.59.09-.06.18-.12.28-.18-.25-.38-.51-.77-.88-1.32.22-.06.5-.24.66-.16.7.31,1.37.69,2.06,1.04.09.05.2.07.31.09.29.06.82.09.83.16.03.37-.08.75-.19,1.36.15.17.47.55,1.05,1.24-.63-.16-1.13-.16-1.18-.32-.33-.89-1.03-.9-1.78-.98-.54-.06-1.05-.35-1.58-.43-.3-.05-.64.12-1.04.2-.06-.24-.16-.66-.26-1.09-.1,0-.2-.02-.29-.03-.16.43-.32.87-.51,1.38-.32-.26-.61-.5-.99-.8-.3.34-.58.65-.89,1.01-.99-1.31-1.19.38-1.86.5-.42-1.21-.88-.7-1.34.04-.62-.28-1.2-.55-1.63-.75-.48.2-.92.39-1.36.57-.08-.12-.16-.24-.23-.36-.16.38-.32.76-.5,1.19-.94-.23-1.94-.48-2.94-.69-.21-.04-.47.02-.68.12-.49.23-1.13.85-1.39.71-1.16-.62-2.21-1.46-3.3-2.22.07-.17.14-.33.22-.5.71.09,1.41.19,2.24.3,0-.02.12-.24.23-.47.34.3.63.55,1.12.98-.77.06-1.32.11-2.16.18.77.48,1.33.84,1.93,1.22.37-.84.7-1.58,1.06-2.39.12.21.23.39.53.9.03-.57.16-.92.04-1.08-.48-.64-1.07-1.21-1.57-1.83-.52-.64-1.23-1.25-1.44-1.99-.7-2.53-1.22-5.11-1.79-7.68-.05-.2.04-.44.22-.67.29,1.51.48,3.04.9,4.52.43,1.52,1.08,2.98,1.64,4.47.11.22.23.44.34.66.09-.06.18-.12.27-.18-.17-.19-.33-.38-.5-.57-.44-1.9-.86-3.81-1.31-5.71-.42-1.79-.93-3.56-1.28-5.36-.12-.6.15-1.27.27-2.08.99,3.53,1.95,6.84,2.84,10.18.08.31-.18.7-.28,1.06-.11-.66-.22-1.31-.33-1.97-.12.03-.24.06-.36.09.19.66.39,1.32.58,1.98.59,2.01,1.26,3.98,2.97,5.38.76-.95.89-1.47-.33-2.86-.83-.95-.73-2.02-1.06-3.01-1.03-3.12-1.9-6.3-2.82-9.46-.35-1.2-.65-2.41-1.01-3.78-.75,3.26-2.01,6.37-1.04,9.59.9,2.97,1.17,6.21,3.34,8.91-.32-.05-.64,0-.86-.14-2.13-1.31-3.07-3.35-3.12-5.72-.06-2.82-.18-5.7.29-8.45.51-2.97,1.11-5.99,3.11-8.55,1.85-2.37,3.25-5.09,4.98-7.56.61-.87,1.66-1.42,2.44-2.18,1.14-1.1,2.2-2.28,3.34-3.37,1.11-1.06,2.2-2.15,3.44-3.04,1.49-1.07,3.19-1.81,5.09-1.71.6.03,1.17.38,1.72.78-1.92-.95-3.59-.32-5.26.66,2.31,7.87,6.26,15.19,8.03,23.54-2.87-7.95-5.65-15.64-8.43-23.33-.09,0-.18,0-.28,0-.02.38-.15.8-.04,1.14,1.3,3.94,2.61,7.88,3.96,11.8.92,2.67,1.89,5.32,2.86,7.97.7,1.9,1.43,3.79,2.15,5.69.02.27.04.54.06.81.12-.02.25-.03.37-.05-.11-.29-.22-.58-.32-.87,1.39-2.08.47-4.1-.21-6.09-1.36-3.97-2.8-7.92-4.23-11.87-.83-2.29-1.71-4.56-2.55-6.84-.12-.32-.11-.68-.16-1.02l.31-.06c2.74,7.57,5.47,15.14,8.17,22.6.84-1.39.34-2.94-.18-4.41-1.69-4.73-3.45-9.44-5.22-14.15-.57-1.53-1.25-3.02-1.7-4.6,2.8,5.93,5.01,12.1,7.11,18.31.15-.02.31-.03.46-.05.03-.77.27-1.6.07-2.3-.82-2.82-1.76-5.6-2.68-8.39-.32-.96-.81-1.87-1.04-2.85-.35-1.51-1.19-2.65-2.3-3.65-.1-.09-.12-.27-.21-.47.63-.35.99-.38,1.44.32,1.16,1.81,2.44,3.53,3.75,5.38.57-1.39-1.73-5.95-3.18-6.68.06-.09.13-.18.19-.27.44.32,1.05.54,1.29.97.81,1.44,1.6,2.91,2.17,4.45.8,2.16,1.42,4.39,2.04,6.61.23.83.33,1.71.37,2.57.13,2.78.43,5.55-.68,8.29-.83,2.06-1.34,4.26-1.9,6.42-.63,2.44-2.03,4.3-4.07,5.69-1.91,1.31-3.86,2.56-5.79,3.84-.09.28-.18.57-.27.85.11.02.22.04.33.06.02-.27.04-.54.06-.81ZM65.85,232.72c.08.04.15.08.23.12l-.12-.23c-.08-.04-.15-.08-.23-.12.04.08.08.15.12.23ZM73.03,231.76c.08.04.15.08.23.12-.04-.08-.08-.15-.12-.23-.08-.04-.15-.08-.23-.12.04.08.08.15.12.23ZM80.7,193.64c.08.04.15.08.23.12l-.12-.23c-.08-.04-.15-.08-.23-.12.04.08.08.15.12.23ZM64.89,231.04c.08.04.15.08.23.12-.04-.08-.08-.15-.12-.23l-.23-.12c.04.08.08.15.12.23ZM81.52,226.49c.08-.08.16-.16.24-.24.16-.16.32-.32.48-.48.69-.15.95-.51.58-1.5-.31.63-.49,1.01-.68,1.39-.16.16-.32.32-.48.48-.08.08-.16.16-.24.24-.04.08-.08.15-.12.23.08-.04.15-.08.23-.12ZM85.49,218.95c-.08.22-.15.43-.23.65.07.02.14.04.21.06.04-.2.08-.41.13-.61.06-.12.13-.23.18-.35,0-.02-.08-.08-.13-.12-.05.12-.11.25-.16.37ZM73.03,211.38c.04.2.09.41.13.61l.21-.05c-.08-.22-.15-.44-.23-.66-.08-.24-.16-.48-.24-.72-.43-2.05-.99-4.04-2.04-5.85-.11.04-.21.08-.32.12.75,1.94,1.5,3.89,2.25,5.83.08.24.16.48.24.72ZM85.6,203.85c-.08-.16-.16-.32-.24-.48-.31-1.25-.59-2.5-.95-3.74-.16-.54-.48-1.02-.72-1.54-.16-.24-.32-.48-.48-.72-.05-.12-.11-.25-.16-.37-.05.04-.14.1-.13.12.05.12.12.23.18.35.16.24.32.48.48.72.56,1.76,1.12,3.51,1.67,5.27.08.16.16.32.24.48.08.32.16.64.24.96.11.43.22.86.33,1.29.12-.04.23-.09.35-.13-.19-.42-.38-.83-.57-1.25-.08-.32-.16-.64-.24-.96ZM78.41,232.14c-.08-.04-.15-.08-.23-.12l.12.23c.34.41.67.82,1.01,1.23.14-.17.27-.34.41-.51-.44-.27-.88-.55-1.32-.82ZM70.39,203.7c.05.12.11.25.16.37.05-.04.14-.1.13-.12-.05-.12-.12-.23-.18-.35-.32-1.16-.63-2.32-.95-3.49-.15.05-.3.1-.44.14.43,1.15.85,2.3,1.28,3.44ZM85.59,200.01c-.08-.04-.15-.08-.23-.12l.12.23c.36,1.23.71,2.46,1.07,3.71.6-.89.17-2.57-.97-3.82ZM87.04,213.54c.78-2.28.76-4.61.66-6.95-.13,0-.27-.02-.4-.03-.12,2.29-.25,4.59-.37,6.88-.06.29-.13.58-.19.86.08,0,.17,0,.25.01.02-.26.03-.52.05-.78ZM59.14,230.32c.08.04.15.08.23.12l-.12-.23c-.61-2.01-1.22-4.01-1.83-6.02-.18,2.27.04,4.42,1.72,6.12ZM65.95,229.26c-.08-.08-.16-.16-.24-.24-.29-.96-.5-1.89-.55-2.93-.07-1.46-.6-2.9-.95-4.34-.53-2.13-1.12-4.24-1.6-6.38-.46-2.06-.97-4.09-2.28-6.06-.48.99-.89,1.83-1.28,2.68-.13.28-.37.62-.31.87.31,1.22.71,2.43,1.07,3.64.98,3.31,1.94,6.62,2.95,9.92.27.87.69,1.7,1.04,2.54.18-.07.36-.14.54-.2-1.52-5.73-3.04-11.46-4.56-17.19.14-.05.28-.1.43-.15.12.23.29.44.34.69.37,1.73.65,3.47,1.08,5.18.37,1.48.92,2.91,1.33,4.38.44,1.59.74,3.22,1.25,4.78.31.95.92,1.8,1.39,2.7.08.08.16.16.24.24-.29.09-.57.18-.81.26.09,1.63,1.56,2.06,2.57,2.99.1-.38.14-.79-.03-1.06-.5-.79-1.08-1.54-1.63-2.3ZM64.88,202.65c-.64.96-1.28,1.92-1.92,2.88-.63.47-1.11,1-.84,1.89.31,1.02.57,2.06.85,3.08.48,1.74.96,3.47,1.46,5.21.95,3.28,1.92,6.56,2.88,9.84-.1.03-.2.06-.31.09-1.77-5.96-3.54-11.91-5.31-17.87h-.36c-.09.4-.34.85-.25,1.19.83,3.01,1.76,5.98,2.57,8.99.5,1.85.75,3.77,1.28,5.62.37,1.3.56,2.62.83,3.93.29,1.44,1.43,2.71,2.2,4.05.17-.07.33-.14.5-.21-.03-1.8-2.03-3.09-1.75-5.03.77,1.48,1.5,2.88,2.23,4.28.23.43.52.82.72,1.25.11.24.09.53.13.8.14-.03.38-.02.42-.1.12-.27.28-.6.22-.86-.09-.41-.37-.78-.54-1.18-.53-1.26-1.19-2.49-1.53-3.8-1.15-4.4-2.17-8.84-3.27-13.25-.65-2.62-1.35-5.22-2.03-7.83.27.43.67.83.79,1.3.74,2.84,1.42,5.69,2.13,8.54.83,3.35,1.57,6.72,2.55,10.02.7,2.36,1.37,4.81,3.34,6.82.07-.61.12-1.03.17-1.46.23.13.45.25.67.37-.14-.58-.43-.98-.73-1.37-.5-.66-1.19-1.26-1.45-2-.72-2.06-1.27-4.17-1.85-6.28-1.39-5.07-2.77-10.15-4.13-15.22-.16-.58-.19-1.2-.28-1.79.54.98.83,1.99,1.1,3,.8,3.11,1.59,6.23,2.39,9.34.56,2.2,1.07,4.42,1.72,6.59.59,1.97,1.35,3.88,2.04,5.82.14-.04.27-.08.41-.13-.04-.29-.06-.6-.14-.88-.74-2.64-1.51-5.28-2.23-7.93-.9-3.33-1.77-6.67-2.64-10.01-.66-2.54-1.29-5.08-1.94-7.62.21.37.5.72.61,1.12.28,1.05.44,2.14.74,3.2.59,2.11,1.26,4.19,1.85,6.3.91,3.28,1.75,6.58,2.66,9.86.74,2.68,1.55,5.34,2.33,8.03.53-.38.86-.62,1.4-1.01-2.2-9.68-6.61-19.06-8.59-29.37-.45.72-.77,1.25-1.09,1.77ZM78.84,224.79l-.03-.03c.24.64.48,1.27.86,2.28,1.04-1.06,1.9-1.86,2.67-2.75,1.45-1.68,2.15-3.41,1.15-5.75-1.51-3.53-2.66-7.21-3.98-10.82-.66-1.81-1.42-3.58-2.03-5.4-1-3.03-1.91-6.09-2.86-9.13l-.34-.05c-.09.68-.37,1.41-.22,2.04.58,2.52,1.21,5.04,1.99,7.49.81,2.54,1.86,5,2.77,7.51,1.12,3.09,2.21,6.2,3.31,9.3.35.98.68,1.96,1.02,2.93-.14.05-.29.1-.43.15-3.03-9.49-7.27-18.57-9.25-28.42-2.29,1.33-2.15,2.09-1.4,3.91.12.29.18.6.28.9,1.22,3.93,2.42,7.87,3.65,11.79.8,2.54,1.64,5.06,2.47,7.59.6,1.82,1.21,3.63,1.81,5.44l-.38.13c-2.96-9.18-5.92-18.37-8.81-27.34-.93.86-1.83,2-2.99,2.71-1.83,1.13-1.66,2.67-1.2,4.29,1.13,3.99,2.3,7.98,3.52,11.95.92,3,1.97,5.95,2.93,8.94.65,2.01,1.24,4.04,1.88,6.13.61-.39,1.21-.76,1.77-1.17.17-.12.36-.43.31-.59-.31-1.18-.7-2.33-1.03-3.51-.65-2.34-1.22-4.7-1.94-7.02-1.82-5.88-3.7-11.75-5.54-17.62-.12-.38-.16-.78-.27-1.35.36.23.51.32.66.42.09-.36.18-.69.3-1.16,1.53,4.75,3.01,9.3,4.46,13.85,1.43,4.5,2.84,9.01,4.3,13.63.28-.6.44-.93.59-1.26ZM77.53,228.58c.3-.38.43-.56.59-.73.32-.33.65-.64.98-.96-.35-.25-.71-.49-1.05-.74-.1-.07-.22-.15-.25-.25-.68-2.12-1.38-4.24-2.02-6.37-.57-1.91-1.08-3.84-1.62-5.75-.15.04-.3.09-.46.13,1.26,4.81,2.51,9.63,3.83,14.67ZM74.58,231.26c-.19,0-.38,0-.57.02-.03.43-.06.87-.09,1.3.18.01.37.03.55.04.04-.45.07-.9.11-1.36ZM59.43,220.75c-.11.03-.21.06-.32.1.2.64.4,1.28.61,1.91l.3-.09c-.2-.64-.39-1.28-.59-1.92ZM65.02,234.21c.16.04.32.08.48.11.09-.36.19-.72.28-1.07-.14-.03-.28-.07-.42-.1l-.34,1.06ZM72.2,233.02l.54.08v-1.08c-.12,0-.24,0-.36,0-.06.34-.12.67-.18,1.01ZM64.98,233.07c-.21-.13-.39-.32-.5-.29-.17.05-.41.26-.4.39.01.16.24.31.38.46.15-.16.3-.32.52-.56ZM68.78,233.63c.14.09.28.18.42.26.14-.25.28-.51.4-.77,0-.02-.34-.22-.35-.21-.17.23-.32.47-.47.72ZM65.09,231.43c-.15.03-.29.07-.44.1.08.29.15.59.23.88.12-.03.25-.06.37-.08-.05-.3-.11-.6-.16-.89ZM70.27,233.16c.48.05.72.07.96.09v-.98c-.37.35-.56.52-.96.89ZM63.33,233.3c-.1-.07-.21-.14-.31-.22-.14.22-.29.45-.43.67.09.07.19.13.28.2.15-.22.31-.44.46-.66ZM83.31,224.13c.08.03.17.07.25.1.17-.36.34-.72.51-1.08-.11-.05-.23-.09-.34-.14-.14.37-.28.74-.42,1.12ZM86.49,211.42c-.12.01-.25.02-.37.03.06.33.11.66.17,1,.07,0,.13-.01.2-.02v-1.01ZM64.4,230.49c.11-.05.22-.1.32-.15-.12-.31-.24-.62-.36-.94-.07.02-.15.05-.22.07.09.34.17.68.26,1.01ZM66.92,233.85c.13-.39.22-.56.19-.59-.12-.12-.28-.19-.42-.28.06.21.11.41.24.87ZM68.66,232.34c-.33.21-.51.28-.5.33.02.16.11.32.17.48.08-.2.16-.39.33-.81ZM87.26,206.2s.09,0,.13,0v-.73c-.06,0-.12,0-.19.01l.05.73ZM86.06,217.47s.09,0,.13,0v-.73c-.06,0-.12,0-.19.01.02.24.04.49.05.73ZM86.45,215.71s-.09,0-.14,0v.59s.09,0,.14,0v-.59ZM64.28,234.04c-.12-.07-.2-.16-.29-.16-.05,0-.16.15-.15.18.05.09.14.16.23.21.02.01.11-.12.2-.22ZM68.9,231.51c-.04.06-.1.11-.11.17,0,.06.04.12.07.18.05-.06.13-.11.15-.18.01-.04-.06-.11-.1-.17ZM60.23,224.11c-.03.07-.09.15-.07.18.03.05.12.07.18.1.01-.07.05-.14.03-.19,0-.04-.09-.06-.14-.09ZM58.49,233.15c.06-.04.11-.08.17-.11-.05-.04-.12-.12-.16-.11-.07.02-.13.09-.19.14.06.03.12.05.18.08ZM60.14,223.58c-.03-.06-.05-.12-.08-.18-.05.06-.13.12-.14.19-.01.04.07.11.11.16.04-.06.08-.11.11-.17ZM86.74,215.19c-.02-.06-.05-.12-.07-.18-.05.06-.13.11-.15.18-.01.04.06.11.1.17.04-.05.08-.11.12-.16ZM73.8,213.28c-.02-.06-.05-.12-.07-.18-.05.06-.13.11-.15.18-.01.04.06.11.1.17.04-.05.08-.11.12-.16ZM73.56,212.55c-.03-.06-.05-.12-.08-.18-.05.06-.13.12-.14.19-.01.04.07.11.11.16.04-.06.08-.11.11-.17ZM80.6,226.98s-.03.05-.04.07c.05,0,.1,0,.14,0-.01-.02-.02-.06-.03-.07-.01-.01-.05,0-.07,0ZM72.56,229.66s-.05-.05-.07-.07c-.02.02-.05.05-.07.07.03.03.07.05.1.08.01-.02.03-.05.04-.07ZM78.44,232.97s-.03.05-.04.07c.05,0,.1,0,.14,0-.01-.02-.02-.06-.03-.07-.01-.01-.05,0-.07,0ZM62.15,233.21s-.03.05-.04.07c.05,0,.1,0,.14,0-.01-.02-.02-.06-.03-.07-.01-.01-.05,0-.07,0Z"/>
  <path d="M11.74,215.62c-.69,1.83.54,4.74,2.35,5.54-.04.09-.08.18-.12.28-.56-.27-1.13-.54-1.69-.81-.08-.16-.16-.32-.24-.48-.3-.97-.6-1.93-.93-3-.39,1.29-.36,2.36.82,3.1.08.16.16.32.24.48.54.67,1.09,1.35,1.7,2.11-1.66-.44-1.99-2.23-3.45-3.23.21.62.34,1,.48,1.39-.54-.06-1.08-.12-1.85-.2,1.24-.6,1.45-1.52,1.21-2.74-.65.97-1.26,1.81-1.79,2.7-.09.15.08.6.26.72.64.42,1.34.76,2.02,1.12-.04.09-.07.19-.11.28-.64-.3-1.36-.51-1.91-.93-.64-.48-1.06-.42-1.91.66.64.61,1.29,1.23,1.93,1.84.05-.03.1-.06.15-.1-.7-.53-1.41-1.06-2.18-1.64.12-.04.07-.04.06-.02-1.16,1.88-.9,2.48,1.34,3.08.33.09.64.24.96.36-.03.1-.06.2-.09.31-.7-.25-1.49-.37-2.08-.78-1.44-.99-1.44-1.03-2.22.8,1.3.47,2.58.94,3.87,1.41-.02.08-.03.16-.05.24-.95-.28-1.91-.52-2.84-.84-1.3-.46-1.38-.43-1.78,1.17,2.67,1.02,5.36,2.04,8.04,3.07-.02.07-.04.15-.06.22-1.67-.52-3.35-1-5-1.57-.92-.32-1.78-.82-2.69-1.17-.21-.08-.52.1-.79.16.08.28.06.69.25.82,2.33,1.58,4.88,2.67,7.65,3.24,1.19.24,2.38.46,3.57.68h0c-2.85.06-5.56-.53-8.14-1.73-.96-.45-1.86-1.01-2.79-1.52-.29-.16-.58-.31-.87-.47-.11.1-.21.19-.32.29.21.32.35.79.64.95,2.93,1.5,5.86,3,9.23,3.26.09,0,.18.1.23.27-3.7.05-6.79-1.88-10.32-3.06.21.37.33.91.64,1.07,2.88,1.5,5.9,2.55,9.19,2.66,1.05.03,2.1.19,3.25.29-1.68,1.19-8.17.39-12.85-1.49-.25.37-.5.73-.75,1.1-.06-.03-.13-.06-.19-.09.14-.45.28-.9.42-1.35-.35-.21-.66-.39-.97-.58.02-.06.04-.13.07-.19.26.03.53.05,1.15.12-.45-.49-.69-.75-.97-1.05.9-.28.95-.79.54-1.17.42-.94.79-1.77,1.18-2.63-.47-.31-.86-.58-1.26-.85,1.61.88,1.79-.34,2.24-1.36.98-2.26,2.57-4.13,4.02-6.1,2.25-3.05,3.83-6.45,4.58-10.23.27-1.36.9-2.67,1.53-3.93,1.17-2.34,2.32-4.7,3.72-6.91,1.16-1.83,2.64-3.46,3.99-5.17,2.55-3.26,4.97-6.57,6.11-10.66.36-1.29,1.25-2.44,1.86-3.67.82-1.65,1.59-3.32,2.41-4.96,1.25-2.53,2.59-5.02,3.75-7.59.65-1.44,1.02-3.02,1.5-4.54.07-.22.06-.48.16-.69.77-1.75.89-3.59.82-5.47-.04-1.08.54-2.27,1.36-2.8-1.23,1.8-.61,3.91-1.07,5.78-.75,3.07-1.06,6.33-3.01,9.04-.63.87-.85,2.03-1.34,3.01-.96,1.93-2.06,3.8-2.97,5.75-1.61,3.48-3.07,7.02-4.69,10.5-.49,1.06-1.23,2.01-1.94,2.95-2.14,2.84-4.4,5.59-6.46,8.49-1.06,1.48-1.85,3.16-2.66,4.8-.89,1.79-1.79,3.58-2.45,5.46-.71,2.02-1.14,4.14-1.69,6.21l.03-.03ZM7.39,235.36c.22.08.43.15.65.23.02-.07.04-.14.06-.21-.2-.04-.41-.09-.61-.13-.56-.16-1.12-.32-1.68-.48-.24-.08-.48-.16-.72-.24-.76-.42-1.53-.84-2.29-1.26-.08.18-.16.35-.24.53.81.28,1.62.56,2.43.84.24.08.48.16.72.24.56.16,1.12.32,1.68.48ZM9.07,235.67c-.06-.04-.11-.1-.17-.11-.06,0-.12.04-.18.07.06.05.11.13.18.15.04.01.11-.06.17-.1ZM10.4,217.63s-.03.05-.04.07c.05,0,.1,0,.14,0-.01-.02-.02-.06-.03-.07-.01-.01-.05,0-.07,0Z"/>
  <path d="M36.22,77.31c1.96-.12,3.92-.25,5.88-.37,0,.1.02.2.02.3-1.58.16-3.16.31-4.74.49-1.08.12-2.19.48-3.23.34-.89-.12-1.32.1-1.63,1.14,2.55-.36,5.1-.72,7.65-1.08.02.14.04.28.06.42-2.93.41-5.86.81-8.79,1.22.02.13.03.27.05.4,3.24.8,6.53.24,10.06.15-.43.22-.65.42-.87.43-2,.08-4,.18-6.01.17-1.1,0-2.2-.25-3.3-.27-.42,0-.85.33-1.23.67,3.78,1.64,7.51.19,11.45-.08-2.41,1.2-8.21,1.59-12.02.91-.15,1,.18,1.17,2.92,1.73-.88-.1-1.77-.2-2.69-.31.7.66,1.37,1.29,2.05,1.92l-.03-.03c1.36.77,2.71,1.54,4.33,2.46-2.29-.27-7.37-3.56-7.78-4.96-.38.15-.75.3-1.12.45,2.84-4.14,7.45-6.59,10.45-10.57.71-.55,1.55-1.02,2.15-1.7,2.11-2.38,4.19-4.79,6.18-7.28,1.45-1.81,2.89-3.66,4.07-5.65,1.21-2.04,2.12-4.26,3.12-6.41.73-1.57,1.43-3.15,2.08-4.76,1.38-3.43,2.1-7.03,2.79-10.66.29-1.57.34-3.25,1.3-4.73.53-.82.49-2.01.73-3.13-.52-.13-.83-.2-1.16-.29.08-.12.14-.24.16-.24.4.16,1.15.39,1.13.48-.22,1.17.71,2.34-.36,3.57-1.04,1.18-1.28,2.8-1.11,4.47.07.71-.44,1.48-.62,2.23-.08.34-.01.72-.01,1.16-.38,1.13-.81,2.39-1.24,3.65.1.05.2.1.3.15.25-.45.49-.89.74-1.34.11.06.23.13.34.19-.34.56-.66,1.13-1.02,1.68-.46.7-.94,1.38-1.42,2.08.17.12.33.24.5.36.5-.67,1-1.34,1.5-2.01.06.02.13.04.19.06-.27.57-.38,1.33-.83,1.68-1.62,1.26-2.56,2.94-3.26,4.79-.35.91-.63,1.84-.98,2.88.54-.17,1.02-.31,1.77-.54-.9,1.11-2.65.76-2.66,2.5.38-.21.71-.4,1.05-.59.05.07.1.13.16.2-.79.65-1.58,1.3-2.36,1.95.06.09.12.17.18.26.66-.32,1.32-.63,2.16-1.04-.81,1.61-3.17.94-3.47,3.08.95-.37,1.76-.69,2.57-1,.04.1.08.2.12.3-.76.34-1.49.89-2.28.98-1.21.13-1.54.91-1.87,1.82l.02-.02c-.34.29-.68.59-1.02.88.05.1.11.19.16.29.91-.3,1.82-.59,2.74-.89.04.12.08.24.12.37-.98.32-1.98.61-2.94.98-.52.2-.99.53-1.48.8.06.16.12.32.18.48.96-.12,1.92-.23,2.87-.35.02.1.04.21.07.31-1.1.19-2.2.38-3.3.57,0,.06,0,.12,0,.18h3.75c0,.13,0,.27,0,.4-.83,0-1.68.11-2.49-.02-1.56-.25-2.63.37-3.47,1.61-.33.48-.7.94-1.15,1.55.84.05,1.59.09,2.33.13,0,.09,0,.17,0,.26-1.01.05-2.01.09-3.02.14,0,.13,0,.25-.01.38.77.07,1.54.13,2.3.2l.1.33c-2.02-.28-3.77.07-5.14,2.1,2.32-.15,4.42-.29,6.56-.44-2.38,1.41-5.18.13-7.6,1.04.01.17.03.34.04.51h5.24c0,.15,0,.3,0,.44-1.08,0-2.19.15-3.25-.03-1.96-.33-2.9-.1-4.05,1.54,2.48-.28,4.8-.55,7.12-.81.01.14.02.27.04.41-2.24.24-4.48.56-6.73.7-1.16.07-1.89.58-2.67,1.6,1.01.14,1.85.65,2.56-.33l-.02.03ZM29.29,81.66c.04-.08.08-.15.12-.23-.08.04-.15.08-.23.12-.08.08-.16.16-.24.24-.29.14-.58.27-.87.41.2.16.4.31.6.47.13-.26.25-.51.38-.77.08-.08.16-.16.24-.24ZM29.18,83.37l-.07-.04s0,.1,0,.14c.02-.01.06-.02.07-.03.01-.01,0-.05,0-.07ZM30.57,84.68s.05-.05.07-.07c-.02-.02-.05-.05-.07-.07-.03.03-.05.07-.08.1l.07.04Z"/>
  <path d="M54.16,232.17c.14.03.28.05.42.08.08.04.15.08.23.12l-.12-.23c-2.68-3.64-3.83-7.91-4.89-12.2-.84-3.4-.92-6.85-.29-10.38h-1.06c.69-.44,1.18-.76,1.94-1.25-.66-.12-.95-.17-1.23-.22,1.18-.35,1.56-1.23,1.68-2.29l-.02.03c.39-.73.81-1.45,1.16-2.2.92-1.91,1.81-3.84,2.71-5.75l-.02.02c.4-.58.81-1.17,1.21-1.75-.07-.1-.13-.2-.2-.3-1.21.16-2.43.33-3.64.49-.02-.1-.04-.2-.06-.3.85-.16,1.69-.32,2.54-.49.53-.11,1.38.4,1.4-.72,1.76-.36,1.72-2.41,3.07-3.23-2.13-.13-4.24-.67-6.21.52-.07-.08-.14-.16-.21-.23.26-.21.51-.59.79-.62,2.01-.16,4.02-.25,6.23-.38,1.25-1.38,2.68-2.96,4.12-4.55-3.98.05-7.91-.78-11.89.04.6-.22,1.2-.62,1.81-.63,2.79-.07,5.6-.2,8.38.03,1.85.15,2.96-.64,3.97-1.91.31-.39.65-.76,1.09-1.27-3.13-.35-6.09.39-9.1.87,2.21.13,4.42.26,6.62.39,0,.12,0,.24,0,.36-1.07-.08-2.14-.2-3.21-.24-1.2-.05-2.4-.09-3.59-.02-1.12.07-2.23.3-3.34.45-.08-.04-.15-.08-.23-.12.04.08.08.15.12.23-.45-.03-.89-.06-1.53-.11,1.07-1.37,2.44-1.11,3.6-1.31,2.24-.39,4.51-.67,6.77-.92.73-.08,1.48.17,2.22.16.92-.02,1.84-.15,2.85,0-.56.46-1.19.87-1.68,1.4-2.2,2.35-4.43,4.68-6.5,7.13-2.36,2.78-4.35,5.8-5.77,9.2-.54,1.29-1.28,2.49-1.92,3.73-2.08,4.02-3.46,8.24-2.77,12.81.4,2.64,1.31,5.21,2.04,7.8.38,1.35.7,2.75,1.32,3.99.74,1.48,1.76,2.83,2.68,4.27-.52.41-1.07.28-1.5-.5h0ZM53.77,184.06s-.03.05-.04.07c.05,0,.1,0,.14,0-.01-.02-.02-.06-.03-.07-.01-.01-.05,0-.07,0Z"/>
  <path d="M104.52,231.74c-.48-.53-.93-1.1-1.45-1.59-.36-.34-.83-.58-1.24-.86l.02.03c-.09-.09-.18-.18-.27-.27l.03.02c-.2-.54-.4-1.08-.55-1.48-1.59.31-3.03.59-4.47.87-.03-.14-.05-.27-.08-.41.7-.11,1.42-.18,2.11-.35.67-.16,1.32-.43,2.08-.69-.56-1.36-1.05-2.57-1.54-3.77-.06,0-.13,0-.19,0-.04.75-.08,1.5-.12,2.25-.04,0-.09,0-.13,0-.68-3.97-1.36-7.95-2.05-11.96-.3-.11-.68-.24-1.06-.38,0-.08.01-.15.02-.23.36-.07.72-.14,1.2-.24.1-.72.21-1.48.34-2.45-1.01.42-1.79.75-2.58,1.08-.05-.1-.09-.21-.14-.31.76-.37,1.53-.75,2.5-1.22-.18-.33-.39-.73-.6-1.13l.02.03c-.17-2-.19-4.03-.56-5.99-.18-.97-.92-1.88-1.54-2.72-1.23-1.67-2.69-3.19-3.8-4.93-.74-1.16-.89-2.69-1.58-3.9-.6-1.06-1.62-1.88-2.4-2.85-1.7-2.09-4.13-3.67-4.56-6.64-.04-.26-.2-.51-.24-.6h-4.08l.03.03c.42-.14.83-.34,1.26-.42.7-.14,1.42-.2,2.13-.3,0,0-.03.03-.03.03.15-.43.3-.85.54-1.53.3,1.02.54,1.91.83,2.78.27.81.42,1.76.94,2.37,1.31,1.53,2.45,3.19,4.06,4.5,1.15.93,2.01,2.22,2.49,3.79.71,2.32,1.92,4.45,3.6,6.26.43.47.92.89,1.35,1.36.93,1.02,1.54,2.16,1.47,3.62-.09,1.86.29,3.6.82,5.42.54,1.85.34,3.93.35,5.91,0,2.22.36,4.31,1.34,6.34,1.1,2.28,1.99,4.67,3.04,6.98.25.56.67,1.17,1.18,1.45,2.37,1.29,3.01,3.54,3.53,5.97h-.86c.26-1.57-.1-2.86-1.19-3.92l.02.02Z"/>
  <path d="M35.28,85.26c.48-.07.96-.14,1.53-.23-.01-.12.03,0,0,.11-.04.13-.14.25-.21.37.07.1.14.19.21.29.46-.29.93-.57,1.43-.88.38.56-1.01,1.4.16,2.05.32-.8.61-1.55.95-2.4-1.75-.14-3.44-.27-5.13-.41,0-.11,0-.21.01-.32,1.16.3,2.21-.28,3.51.11,1.53.46,3.29.22,4.82-.61.2-.11.42-.21.63-.3.05-.02.13.05.31.13-.47.35-.89.66-1.31.97.62,1.93,1.89,2.61,3.88,2.21.88-.18,1.82-.13,2.73-.18,0,.11.02.22.03.33-1.31.13-2.63.26-3.92.38-.15.75-.28,1.42-.41,2.09-.1,0-.21-.02-.31-.03.06-.48.25-.99.13-1.43-.12-.43-.54-.79-1-1.41-.19.61-.27.88-.45,1.47-.14-.81-.22-1.31-.31-1.8-.12-.01-.24-.02-.36-.03-.2.82-.41,1.63-.61,2.45-.08,0-.17,0-.25,0,.15-1.28.31-2.57.48-3.99-.78.14-1.34.24-2,.36.7,1.37-1.02,2.93.45,4.26-.92-.43-2.23-.19-2.43-1.83-.57,2,.86,2.39,1.85,3.23-.27-.1-.54-.19-.8-.31-.28-.12-.55-.27-1.02-.51.02,1.58.4,2.89.98,4.16.04.08.3.13.3.16-.33,1.48.89,1.73,1.77,2.23-.12.08-.24.17-.37.25-.08-.04-.15-.08-.23-.12.04.08.08.15.12.23,1.34,1.19,1.27,2.91,1.66,4.44.31,1.21.48,2.46.75,3.68.4,1.8.81,3.59,1.25,5.37.28,1.13.64,2.21,2.06,2.41.22.03.42.28.55.6-.67-.22-1.34-.43-2.08-.67-.06.33-.13.65-.21,1.07-.13-.14-.23-.2-.25-.28-.63-2.95-1.25-5.9-1.86-8.85-.28-1.34-.59-2.68-.79-4.04-.21-1.49-.7-2.75-1.81-3.86-1.53-1.52-1.89-3.62-2.29-5.67-.23-1.14-.61-2.26-1-3.36-.08-.22-.54-.31-.84-.46.1-.23.19-.46.34-.82-.82.11-1.51.2-2.2.29l-.13-.22c.46-.37.91-.74,1.37-1.1.07.11.15.23.22.34-.04.08-.08.15-.12.23.08-.04.15-.08.23-.12ZM39.35,86.32c-.07-.01-.15-.02-.22-.04-.09.43-.19.85-.28,1.28.12.02.25.04.37.06.04-.43.09-.87.13-1.3ZM36.85,87.45c.09.02.17.03.26.05.11-.41.22-.82.34-1.22-.12-.03-.24-.06-.36-.08-.08.42-.16.84-.23,1.25ZM39.5,85.79s-.05-.05-.07-.07l-.07.07s.07.05.1.08c.01-.02.03-.05.04-.07Z"/>
  <path d="M83.68,188.92c-.63-.23-1.24-.51-1.89-.67-.55-.13-1.19-.28-1.71-.13-6.12,1.74-10.98,5.28-14.79,10.36-1.9,2.53-4.02,4.91-5.86,7.49-1.91,2.68-3.45,5.49-4,8.9-.52,3.22-1.36,6.37-1.38,9.69,0,2.06.39,3.88,1.47,5.61.56.89,1.01,1.85,1.36,2.84-1.71-2.56-3.39-5.03-3.24-8.43.14-3.26.77-6.4,1.31-9.59.58-3.44,2.04-6.4,4.05-9.14,1.35-1.83,2.81-3.56,4.23-5.34,1.22-1.54,2.36-3.14,3.67-4.6,3.72-4.18,8.29-7.03,14.12-8.45-4.27-2.07-8.22-3.98-12.18-5.9,5.29,1.66,10,4.58,14.84,7.36Z"/>
  <path d="M81.41,229.5c-.57.2-1.13.4-1.7.6,3.16-2.13,5.37-5.03,6.68-8.63.11.05.22.11.33.16-.31.75-.6,1.51-.94,2.24-.36.76-.77,1.49-.94,2.42.29-.28.69-.5.87-.84,2.24-4.29,3.96-8.72,3.98-13.67,0-2.37.36-4.74.44-7.11.08-2.44-.95-4.59-2.13-6.64-1.54-2.65-3.19-5.22-4.79-7.83-.09-.15-.13-.34.03-.67.96,1.37,1.99,2.69,2.87,4.12,1.07,1.74,2.16,3.5,2.94,5.37.7,1.67,1.36,3.5,1.41,5.28.1,3.36.03,6.78-.49,10.09-.49,3.19-1.09,6.45-2.97,9.25-.14.21-.2.49-.37.95.74-.17,1.31-.3,1.89-.43.03.1.07.2.1.31-.54.16-1.09.3-1.63.47-.26.09-.5.23-.75.35.23.14.46.28.66.4-.84.6-1.72,1.23-2.59,1.85.05.08.09.16.14.24.9-.04,1.79-.09,2.69-.13.03.12.05.23.08.35-2.45-.05-4.57.68-6.16,2.7-.05-.11-.11-.22-.16-.33.21-.26.42-.53.64-.79.16-.16.32-.32.48-.48.08-.08.16-.16.24-.24.08-.08.16-.16.24-.24.71-.58,1.42-1.16,2.14-1.75-.14-.14-.27-.27-.41-.41-.61.68-1.22,1.37-1.83,2.05-.08.08-.16.16-.24.24-.08.08-.16.16-.24.24-.16.16-.32.32-.48.48Z"/>
  <path d="M36.91,151.35c-1.41-.53-2.07-1.58-2.62-2.99-.82-2.12-1.31-4.25-1.42-6.51-.14-2.69,1.15-4.78,2.76-6.7,1-1.19,2.09-2.36,3.86-2.69-1.09.9-2.1,1.73-3.11,2.57-.08.08-.16.16-.24.24-.4.56-.8,1.12-1.2,1.68l-.12.23c.08-.04.15-.08.23-.12.4-.56.8-1.12,1.2-1.68.08-.08.16-.16.24-.24.74.5,1.21.17,1.67-.47.17-.24.6-.39.92-.41.13,0,.39.45.4.71.12,1.5.15,3,.27,4.5.04.5.24,1,.2,1.53-1.13-1.86-.73-3.99-1.13-6.07-.1.28-.29.56-.27.83.08,1.38.22,2.75.31,4.12.01.22-.14.46-.22.69-.08-.16-.16-.32-.24-.48-.12-1.47-.24-2.93-.35-4.4-.37.16-.69.45-.65.66.25,1.29.59,2.56.89,3.83.08.16.16.32.24.48.05.11.1.21.16.32-.16,0-.45.05-.47,0-.28-.76-.57-1.52-.78-2.3-.23-.87-.39-1.77-.58-2.65-.18.02-.36.04-.54.06.1,1.41-.17,3,.4,4.18.54,1.12,1.96,1.82,2.96,2.67-.1,0-.33.05-.48-.04-.77-.44-1.32-1.25-2.48-1-.62.13-1.89-1.85-1.92-2.72-.02-.52,0-1.03,0-1.55-.13-.04-.25-.09-.38-.13-.38,1-1.02,1.98-1.09,3-.15,2.24-.04,4.5,1.01,6.59.18.35.28.73.43,1.1.42,1.03.65,2.19,1.87,2.68.13.05.16.33.24.51l.03-.03ZM35.92,137.02c-1.11.98-.99,2.62.27,3.65-.09-1.25-.17-2.39-.27-3.65Z"/>
  <path d="M63.5,28.11c-.31-.11-.63-.21-.93-.32-.39-.14-.77-.3-1.39-.53.02.06-.06-.19-.12-.43-.63.21-1.27.42-1.98.66.03-.28.01-.4.04-.41q2.03-.8,2.03-2.91c0-1.68-.04-3.36.01-5.03.05-1.66.19-3.31.3-4.97.16,0,.32-.02.47-.03.03.3.01.62.1.9.23.73.27,1.53,1.36,1.68,1,.14,1.86,0,2.31-.86.97-1.87,1.82-3.8,2.7-5.67.17.47.41,1.12.64,1.76l.3-.07c-.14-1.51-.27-3.02-.43-4.81-.4.47-.55.7-.75.86-1.39,1.12-1.64,2.75-1.8,4.33-.2,2.03-1.06,2.91-3.04,2.61-.31-.05-.57-.44-.89-.7.89.11,1.67.44,2.18.2.57-.27,1.03-1.01,1.27-1.65.26-.72.22-1.55.32-2.33,0-.08.09-.17.07-.22-.14-.31-.51-.78-.42-.88.24-.29.73-.36,1-.64.75-.79,1.44-1.64,2.3-2.63.14,1.32.29,2.47.38,3.63.1,1.14.14,2.28-.03,3.52-.43-.51-.85-1.01-1.23-1.47-.58,1.27-1.08,2.53-1.72,3.73-.85,1.6-1.74,2.03-3.46,1.6-.56-.14-1-.71-1.54-1.11.73,3.56.75,7.21,0,10.66.72.58,1.33,1.07,1.94,1.56l.03-.03Z"/>
  <path d="M73.38,64.05c-.35-.94-.7-1.88-1.02-2.73-.67-.17-1.23-.31-1.79-.45,0-.09.02-.18.02-.27.4.03.81.06,1.22.09.25-1.75-1.92-.76-2.31-1.97.61.16,1.09.29,1.79.49-.53-1.38-.96-2.5-1.39-3.62-.06.08-.11.16-.17.23-.36-.28-.73-.57-1.09-.85.04-.08.08-.16.12-.24.22.06.45.12.84.23-.52-.7-.17-1.83-1.44-1.85-.1,0-.23-.47-.3-.73-.36-1.28-.69-2.57-1.09-3.84-.07-.22-.37-.44-.61-.52-.97-.32-1.42-1.02-1.65-2.27.66.83,1.15,1.45,1.56,1.95-.17-2.73-.34-5.49-.52-8.26l.37-.06c.06.36.15.72.16,1.09.05,2.37-.25,4.77.72,7.04.73,1.71,1.45,3.44,2.19,5.15,1.1,2.55,2.14,5.13,3.33,7.64,1.06,2.25,1.78,4.69,3.54,6.59.37.4.37,1.16.51,1.76.18.76.33,1.52.47,2.18-.78-.22-1.8-.51-2.82-.8l.02-.14h1.78c.43-2.15-1.24-5.01-3.45-5.62.46-.06.67-.09.88-.12.08.04.15.08.23.12-.04-.08-.08-.15-.12-.23ZM68.38,52.42l-.04.07s.1,0,.14,0c-.01-.02-.02-.06-.03-.07-.01-.01-.05,0-.07,0Z"/>
  <path d="M42.13,135.85c1.27,2.42.75,1.97,3.36,2.86-.42.15-.83.29-1.52.53-.6-.24-1.53-.62-2.75-1.11.24-1.97.42-4.32.83-6.62.24-1.33.89-2.59,1.25-3.9.14-.51.04-1.09.02-1.63-.04-.97-.11-1.93.02-2.95.09,1.7.19,3.34,2.28,3.88-.06.08-.13.17-.19.25-.5-.19-1-.38-1.49-.56q-.37,2,1.47,3c-.66-.22-1.32-.45-2.06-.7-.14.26-.3.56-.48.9.71.4,1.34.77,1.97,1.13-.04.09-.08.18-.12.27-.66-.28-1.33-.56-1.98-.84-.78,1.99,1.02,2.25,2.05,3.02-.06.08-.12.16-.18.25-.76-.38-1.51-.76-2.27-1.14-.27.91-.07,1.25,1.01,1.84.68.37,1.33.78,2,1.17-.06.1-.12.2-.17.3-1.03-.61-2.07-1.23-3.15-1.86-.41.9.22,1.36.75,1.64,1.24.65,2.56,1.16,3.85,1.73.27.12.54.25.81.37-.07.15-.14.29-.21.44-1.67-.78-3.35-1.56-5.02-2.34-.08-.04-.15-.08-.23-.12.04.08.08.15.12.23ZM42.85,138.25c.08.04.15.08.23.12-.04-.08-.08-.15-.12-.23-.16-.08-.32-.16-.48-.24-.08-.08-.16-.16-.24-.24v-.84l-.43.06c.11.3.21.6.32.89.08.08.16.16.24.24.16.08.32.16.48.24ZM43.99,138.87s.05-.05.07-.07l-.07-.07s-.05.07-.08.1c.02.01.05.03.07.04ZM43.51,138.63s.05-.05.07-.07c-.02-.02-.05-.05-.07-.07-.03.03-.05.07-.08.1.02.01.05.03.07.04Z"/>
  <path d="M60.2,5.31c-.34-1.15.51-1.89.96-2.77.08-.08.16-.16.24-.24.04-.08.08-.15.12-.23-.08.04-.15.08-.23.12-.08.08-.16.16-.24.24-1.16.08-2.33.16-3.49.24-.08-.04-.15-.08-.23-.12.04.08.08.15.12.23,1.18.98,1.16,2.1.89,3.58-.52,2.79.02,5.5,1.84,7.81.2.25.57.35.86.53-.04.09-.08.18-.12.27-.41-.26-.92-.44-1.2-.8-1.94-2.47-2.27-5.32-1.68-8.29.21-1.09.15-1.92-.75-2.61-.27-.21-.47-.51-.85-.94,1.86-.49,4,.99,5.24-1.31.72,1.2,0,1.82-.51,2.38-.63.7-.75,1.25-.24,2.1.36.6.39,1.4.34,2.25-.39-.5-.78-1-1.41-1.82.24,2.4-.83,4.64,1.25,6.44-.14.07-.29.14-.43.21-.4-.67-1.06-1.31-1.15-2.02-.18-1.41-.09-2.87-.03-4.31.01-.28.38-.55.59-.83.08.08.16.16.24.24.08.04.15.08.23.12-.04-.08-.08-.15-.12-.23-.08-.08-.16-.16-.24-.24Z"/>
  <path d="M51.95,235.13c-.79.41-1.33.85-1.93.97-2.83.58-5.65,1.05-8.59.67-1.88-.24-3.86-.52-5.74.55-.56.32-1.53-.02-2.3-.14-1.23-.2-2.45-.63-3.68-.69-2.35-.11-4.71,0-7.06-.05-1.21-.03-2.41-.2-3.62-.31,0-.1-.01-.2-.02-.3.52,0,1.03-.01,1.55,0,3.18.08,6.36.14,9.53.25.82.03,1.72.03,2.43.37,1.56.73,2.94.5,4.52.02,1.33-.41,2.87-.17,4.31-.21,1.9-.04,3.82.05,5.71-.13,1.55-.15,3.07-.61,4.9-1Z"/>
  <path d="M78.58,87.13c.84-.83,1.67-1.66,2.51-2.5,1.72-1.73,3.43-3.45,5.14-5.18.13.13.25.25.38.38-.77.71-1.55,1.42-2.41,2.22,1.62,1.86,2.62,3.96,2.74,6.58-.21.02-.83.26-1.14.05-.62-.43-1-.09-1.43.18-2.6,1.59-3.4.78-4.49-1.1.24.2.5.38.72.59,1.19,1.15,1.93,1.27,3.29.34.73-.5,1.35-1.13,2.24-.21.55-1.72-.2-2.97-.89-4.17-.49-.84-3.05-.36-3.8.55-1.32,1.58-2.7,3.11-4.06,4.66,0,0,.03.02.03.02.08-.33.16-.66.24-.98,0,0-.02.03-.02.03.25-.41.49-.82.74-1.23,0,0-.03.03-.03.03.09-.09.18-.18.27-.27,0,0-.03.02-.03.02ZM82.76,83.53h1.87c-.25-.42-.43-.72-.66-1.11-.41.38-.71.65-1.21,1.11Z"/>
  <path d="M36.88,151.38c1.21.31,2.16,1.19,3.59,1.11,1.88-.11,3.79.14,5.66.41,2.25.33,4.47.84,6.6,1.25-2,.17-4.15.5-6.3.49-1.63,0-3.25-.49-4.88-.64-.8-.07-1-.42-.91-1.22-1.47.1-2.9.07-3.73-1.43,0,0-.03.03-.03.03ZM48.91,154.21c-2.43-.95-4.91-1.53-7.54-.96,2.38,1.28,4.99.84,7.54.96Z"/>
  <path d="M31.07,218c0,.41,0,.48,0,.49-1.43.4-2.84.92-4.3,1.13-.69.1-1.47-.36-2.18-.64-.69-.27-1.31-.73-2.01-.95-3.49-1.08-4.14-5.03-2.41-7.89.62-1.03,1.7-1.72,3.1-1.66,1.08.04,2.17-.1,3.26-.17,0,.1.02.21.03.31-.96.09-1.93.31-2.88.23-1.86-.16-3.51,1.3-3.82,3.27-.49,3.1.42,4.6,3.42,5.77.65.25,1.21.86,1.87.99.99.19,2.06.22,3.06.08.95-.14,1.85-.59,2.87-.94Z"/>
  <path d="M38.77,196.83c-1.34-.23-2.73-.31-4-.73-1.08-.35-1.22-1.54-1.4-2.55-.08-.42,0-.95-.22-1.25-.86-1.16-.14-1.98.56-2.74,1.46-1.58,3.42-2.27,5.44-2.6,1.37-.23,2.8-.06,4.21-.03.26,0,.51.23.74.46-3.2-.96-6.06.02-8.83,1.45-.58.3-1.13.77-1.52,1.3-.41.54-.81,1.2-.2,1.95.17.21.18.59.19.9.09,2.24.75,2.89,2.98,3.06.71.05,1.4.31,2.11.48l-.06.31Z"/>
  <path d="M41.95,97.33c.22-.11.45-.31.67-.3,1.93.09,3.69-.44,5.37-1.35.44-.24.92-.5,1.41-.57.83-.13.84-.73.69-1.24-.1-.33-.58-.73-.91-.76-.81-.05-1.37-.45-2.05-.77-.97-.46-2.32-.24-3.49-.1-.82.09-1.6.54-2.41.8-.19.06-.42-.02-.96-.05,2.35-1.33,4.65-1.61,6.81-1.1.92.22,1.91.72,2.93.97.26.06.47.86.47,1.32,0,.41-.22,1.05-.52,1.18-1.73.72-3.49,1.38-5.27,1.94-.84.26-1.76.26-2.65.38-.03-.11-.06-.22-.09-.34Z"/>
  <path d="M86.99,220.23c.65-2.9,1.56-5.78,1.87-8.72.33-3.01.07-6.09.14-9.14.61,3,.49,6.09.23,9.09-.25,2.98-1.19,5.89-1.83,8.84-.14-.02-.28-.04-.42-.06Z"/>
  <path d="M48.7,102.64c.21.07.43.11.62.21,2.37,1.32,4.96,1.22,7.52,1.03.66-.05,1.53-.78,1.81-1.41.29-.67.46-1.71-.57-2.27-.86-.46-1.68-.98-2.57-1.5.29,0,.7-.08,1.07.01,1.54.38,2.85,2,2.49,3.52-.19.79-1.11,1.94-1.78,2-2.78.24-5.63.41-8.22-1.04-.16-.09-.31-.19-.46-.28.03-.09.07-.18.1-.28Z"/>
  <path d="M37.21,225.22c1.32-.06,2.65-.2,3.97-.15,1.28.05,2.42,2,1.83,3.08-.17.31-.68.47-1.07.62-.68.26-1.42.39-2.08.7-1.21.59-3.37.45-4.11-2.01.35.41.51.57.65.76,1.04,1.43,2.29,1.4,3.47.73.52-.3,1.19-.34,1.76-.56.37-.14.97-.38.99-.6.03-.53-.06-1.22-.39-1.59-1.08-1.18-2.53-.79-3.89-.66-.38.04-.75.09-1.13.14,0-.15,0-.31,0-.46Z"/>
  <path d="M45.05,142.51c.22.12.43.32.67.36,1.64.31,3.28.59,4.92.88.18.03.37.06.67.1-1.62.63-8.74.27-10.06-.48,1.56.17,3.06.33,4.55.49.02-.12.04-.23.06-.35-1.23-.47-2.45-.93-3.68-1.4l.05-.18c.95.2,1.89.4,2.84.6l-.03-.02Z"/>
  <path d="M66.73,194.18c2.19-1.92,4.37-3.83,6.56-5.75-.06-.09-.12-.17-.18-.26-.85.5-1.7,1-2.56,1.51.64-1.34,1.7-1.88,2.92-1.55.2.05.45-.12.68-.19.41-.11.82-.22,1.25-.23-3.21,1.77-5.66,4.43-8.35,6.78-.11-.11-.21-.21-.32-.32Z"/>
  <path d="M77.61,181.09c.69.27,1.37.53,2.06.8,0,.08-.01.16-.02.24-.72-.18-1.45-.31-2.14-.56-1.42-.52-2.81-1.1-4.28-1.69-.4-2.54,2.71-4.53,5.86-3.51-1.04.13-2.02.14-2.93.4-.77.22-1.53.65-2.15,1.15-.32.26-.47.9-.43,1.35.03.26.57.53.92.67,1.03.42,2.09.78,3.14,1.17,0,0-.03-.03-.03-.03Z"/>
  <path d="M65.05,94.34c1.16,2.95,2.34,5.95,3.48,8.85-.54-.49-1.22-1.05-1.84-1.67-.21-.21-.36-.54-.42-.83-.44-2.07-.84-4.15-1.26-6.22-.01-.07.05-.15.04-.12ZM67.03,100.88s-.05-.03-.07-.04c0,.05,0,.1,0,.14.02-.01.06-.02.07-.03.01-.01,0-.05,0-.07ZM67.29,101.38s-.05-.05-.07-.07c-.02.02-.05.05-.07.07.03.03.07.05.1.08.01-.02.03-.05.04-.07Z"/>
  <path d="M36.52,235.47c4.49-.28,8.97-.57,13.46-.85,0,.13.01.25.02.38-4.49.29-8.98.57-13.47.86,0-.13-.01-.26-.02-.39Z"/>
  <path d="M92.98,239.58c-2.28-2.03-5.14-2.83-7.9-3.89-1.04-.4-1.83-1.47-2.67-2.3-.14-.14.04-.6.24-.9-.11,1.49,1.12,1.92,1.94,2.61.29.24.7.34,1.06.49,1.97.81,3.97,1.58,5.91,2.45.61.27,1.1.81,1.65,1.22-.08.11-.17.21-.25.32Z"/>
  <path d="M82.75,230c1.61-.29,3.21-.59,4.82-.87.17-.03.36.05.9.15-.94.24-1.53.39-2.41.62.57.15.84.22,1.12.3,0,.11.01.22.02.32-1.94.29-3.88.57-5.83.86-.02-.14-.05-.27-.07-.41,1.54-.19,3.08-.37,4.62-.56-.02-.14-.03-.28-.05-.41-1.04.09-2.08.18-3.12.27,0-.09,0-.17,0-.26Z"/>
  <path d="M43.29,122.47c.25-2.57.51-5.15.77-7.84.15.01.42.03.74.06v-1.18c.09-.01.18-.02.27-.03.07.47.14.94.21,1.4-1.35.56-1.38,1.44-.15,3.15-1.62.42-1.08,1.83-1.33,2.88-.12.52-.18,1.06-.26,1.59-.09-.01-.17-.03-.26-.04Z"/>
  <path d="M86.78,79.08c-1.1-.66-3.6-8.33-3.28-9.8,1.03,3.08,2.18,6.51,3.28,9.8Z"/>
  <path d="M47.43,124.66c.3-.11.59-.24.89-.32,1.41-.38,1.8-.89,1.81-2.35,0-.28-.01-.56,0-.84.13-2.15.42-2.98-2.71-2.91-.13,0-.26-.05-.55-.11,2-.63,3.52-.11,3.7,1.36.15,1.25.06,2.59-.23,3.82-.32,1.32-1.74,1.24-2.74,1.65-.05-.1-.11-.2-.16-.3Z"/>
  <path d="M55.3,171.64c-1.48,1.25-3.1,2.11-5.08,1.5-1.58-.49-3.16-.64-4.77-.23-.18.04-.38-.02-.57-.04,0-.11-.02-.23-.02-.34,1.17-.08,2.42-.45,3.5-.17,2.45.64,4.74.83,6.95-.72Z"/>
  <path d="M94.64,208.92c-1.41-.05-2.91,1.11-3.16,2.31-.24,1.17.7,1.81,1.27,2.4.48.5,1.59.4,2.41.68h-2.55c-.45-.55-.96-1.04-1.29-1.62-.21-.37-.21-.89-.21-1.34,0-1.01,1.53-2.74,2.52-2.81.32-.02.66.27.99.42,0,0,.03-.03.03-.03Z"/>
  <path d="M63.48,28.14c1.25-.07,1.38.82,1.4,1.71.04,1.59-.06,3.19.04,4.78.06.91.4,1.8.59,2.7.05.24.03.5.05.75l-.41.06c-.21-1.1-.5-2.19-.62-3.3-.11-1.03-.02-2.07-.02-3.11,0-1.3.27-2.68-1-3.63,0,0-.03.03-.03.03Z"/>
  <path d="M103.99,233.1c-3.24.58-6.47,1.65-9.78.2,3.31,1.04,6.52-.08,9.78-.2Z"/>
  <path d="M72.87,168.17c-.27-.17-.54-.48-.83-.5-.98-.06-1.97-.02-2.94-.02q-.18,1.4,3.65,2.15c-.78.31-3.4,0-3.9-.61-.26-.33-.26-.93-.22-1.41.01-.19.41-.5.65-.51,1.03-.05,2.06-.05,3.09.04.2.02,1.17.06.48.82l.03.03Z"/>
  <path d="M46.02,155.46c1.61.91,3.16,1.6,4.91,2.05,1.17.3,2.14.27,3.2-.21.03.14.07.29.1.43-.72.19-1.53.68-2.16.51-1.86-.5-3.66-1.24-5.47-1.95-.26-.1-.4-.54-.59-.82Z"/>
  <path d="M59.01,137.05c.13-.22.27-.44.4-.66.07.01.13.03.2.04-.26,1.18-.51,2.37-.77,3.55-.09,0-.18-.02-.27-.02.06-.68.13-1.37.19-2.05-.08-.02-.16-.05-.24-.07l-.73,2.38c-.12-.04-.24-.07-.36-.11.44-1.51.87-3.03,1.31-4.54.11.03.22.05.32.08-.06.43-.12.87-.17,1.3-.06.12-.13.23-.18.35,0,.02.08.08.13.12.05-.12.11-.25.16-.37Z"/>
  <path d="M60.12,188.83c-2.99.21-5.99.43-8.98.64-.01-.12-.02-.24-.03-.37,2.98-.22,5.96-.44,8.94-.66.02.13.05.26.07.39Z"/>
  <path d="M104.5,231.72c-1.42.22-2.84.54-4.27.63-1.67.11-3.35.03-5.02.03,0-.13,0-.26,0-.39.4,0,.81.02,1.21,0,2.44-.14,4.87-.3,7.31-.43.26-.01.53.12.79.18,0,0-.02-.02-.02-.02Z"/>
  <path d="M41.96,170.69c-.39-2.1,3.17-4.62,5.13-4.03-.87.38-2.01.72-2.96,1.34-.96.62-2.22,1.14-2.17,2.69Z"/>
  <path d="M52.57,239.1c.7-.41,1.41-.8,2.09-1.23.72-.45.95-1.54,2.01-1.55-.09-.27-.19-.54-.32-.93.21.07.71.11.77.29.1.29.02.82-.19,1-.86.71-1.78,1.34-2.71,1.96-.47.31-1,.51-1.5.76-.05-.1-.09-.2-.14-.3Z"/>
  <path d="M48.81,101.82c-.03-1.18,1.63-2.39,3.37-2.65,1.34-.2,1.73-.01,2.05.98-1.47-.95-4.43-.12-5.42,1.67Z"/>
  <path d="M42.29,192.38c.55-.45,1.1-.9,1.66-1.34-.05-.15-.1-.31-.15-.46-1.07.22-2.13.44-3.12.65.43-.68,2.68-1.33,3.33-.84.2.15.4.69.31.78-.54.57-1.16,1.07-1.75,1.59-.09-.12-.18-.24-.27-.37Z"/>
  <path d="M48.41,142.51c-2.23-.88-4.47-1.77-6.7-2.65.04-.1.08-.2.12-.3,2.25.87,4.5,1.74,6.75,2.61-.06.11-.11.23-.17.34Z"/>
  <path d="M101.83,229.29c-1.25.47-2.48,1.06-3.77,1.37-.9.21-1.89.04-2.86-.1,2.19-.3,4.48-.13,6.41-1.48,0,0-.03-.02-.03-.02.09.09.18.18.27.27,0,0-.02-.03-.02-.03Z"/>
  <path d="M70.05,96.29c-.5-.07-.78-1.01-.51-2.72.19-1.2,1.33-1.94,2.25-1.72-.54.51-1.47,1.02-1.77,1.77-.31.78,0,1.8.03,2.66Z"/>
  <path d="M45.08,142.54l-3.87-2.12c.02-.06.05-.12.07-.17,1.93.81,3.85,1.62,5.83,2.44-.68-.06-1.37-.12-2.06-.17,0,0,.03.03.03.03Z"/>
  <path d="M36.72,190.52c.18.84-.18,1.12-1.23.9.17-.39.34-.77.51-1.14.04-.08.08-.15.12-.23-.08.04-.15.08-.23.12-.33.23-.65.47-.98.7l-.21-.13c.3-.33.56-.73.92-.98.24-.16.62-.11.94-.15.01.27.02.53.04.8-.04.08-.08.15-.12.23.08-.04.15-.08.23-.12Z"/>
  <path d="M35.52,211.97c-.66-2.74-1.66-4.25-3.39-4.06.26-.11.55-.36.78-.31,1.61.32,2.87,2.3,2.61,4.37Z"/>
  <path d="M40.21,155.54c1.55-1.65,3.23.05,4.73-.6,0,.12.02.25.03.37-1.55.07-3.09.15-4.76.23Z"/>
  <path d="M54.69,197.87c-1.72.45-3.44.91-5.27,1.39.1-.19.14-.44.25-.47,1.54-.41,3.09-.8,4.64-1.17.1-.02.24.17.37.27,0,0,.02-.02.02-.02Z"/>
  <path d="M56.19,169.32c-1.64-.67-3.28-1.33-4.93-2,.04-.11.09-.21.13-.32,1.65.67,3.29,1.34,4.94,2.01-.05.1-.1.2-.14.31Z"/>
  <path d="M53.35,233.01c-2.32.29-4.43.15-4.91-.3h4.9c0,.1,0,.2,0,.3Z"/>
  <path d="M48.46,201.24c.53-.79,1.7-1.16,4.3-1.22-.41.15-.81.34-1.23.44-.53.13-1.08.16-1.6.29-.47.11-.92.3-1.46.49Z"/>
  <path d="M98.79,236.26h-4.3c1.17-.67,3.86-.51,4.3,0Z"/>
  <path d="M11.72,215.65c.65.1,1.7,1.55,1.81,2.65-1.35-.47-1.33-1.74-1.78-2.67,0,0-.03.03-.03.03Z"/>
  <path d="M46.79,188.32c1.08.97,2.37,1.86,2.02,3.5-.64-1.11-1.33-2.3-2.02-3.5Z"/>
  <path d="M50.18,156.41c1.01-1.19,1.42-1.19,2.83-.14-.6.13-1.13.25-1.87.41.28-.32.41-.47.77-.88-.76.27-1.24.44-1.72.61Z"/>
  <path d="M52.79,168.92c.07.49.12.84.2,1.33-.46.23-1.04.51-1.63.8-.08-.06-.15-.12-.23-.18.25-.31.48-.63.74-.93.27-.32.57-.63.93-1.02Z"/>
  <path d="M51.68,145.11h-3.81c1.22-.56,2.52-.32,3.79-.38,0,.13.01.26.02.38Z"/>
  <path d="M48.76,230.28c.66,1.64,2.38.94,3.33,1.67-.03.1-.06.2-.09.3-1.05-.37-2.11-.71-3.14-1.14-.13-.05-.07-.54-.1-.83Z"/>
  <path d="M29.77,211.47c-.75.47-1.51.94-2.26,1.4l-.26-.41c.74-.49,1.48-.98,2.22-1.47.1.16.2.32.3.48Z"/>
  <path d="M49.16,145.8c.91-.17,1.55-.3,2.22-.42q-.2,1.34-2.22.42ZM50.74,145.96s-.05-.03-.07-.04c0,.05,0,.1,0,.14.02-.01.06-.02.07-.03.01-.01,0-.05,0-.07Z"/>
  <path d="M46.64,234.46h-3.41c0-.06,0-.13,0-.19h3.41c0,.06,0,.13,0,.19Z"/>
  <path d="M51.42,230.53c-.48-.12-1.05-.12-1.4-.41-.19-.15-.06-.79.06-1.18.05-.16.43-.21.8-.07-.19.31-.39.61-.66,1.04.46.1.84.19,1.22.28,0,.11-.01.23-.02.34Z"/>
  <path d="M76.83,72.74c-.92-.46-1.73-.86-2.55-1.27.04-.07.07-.15.11-.22.85.29,1.69.59,2.64.92,0-.01-.08.23-.2.57Z"/>
  <path d="M47.14,67.82c-1.05.14-2.1.28-3.15.42-.02-.11-.04-.22-.06-.33,1.04-.17,2.08-.33,3.12-.5.03.14.06.28.09.41Z"/>
  <path d="M48.35,61.98c.87-.41,1.75-.82,2.61-1.22-.16.9-1.37,1.47-2.59,1.2,0,0-.02.02-.02.02Z"/>
  <path d="M40.48,87.63c.19-.93.38-1.86.57-2.79.12.02.24.04.36.06-.19.92-.38,1.85-.57,2.77-.12-.01-.24-.03-.37-.04Z"/>
  <path d="M40.54,135.37c.13.86.26,1.72.39,2.57-.12.02-.23.03-.35.05l-.34-2.58c.1-.01.21-.03.31-.04Z"/>
  <path d="M48.89,89.07c-.6-1.11.38-1.56,1.01-2.13-.32.66-.63,1.33-1.01,2.13Z"/>
  <path d="M51.02,203.14c-.75.33-1.5.66-2.26.99-.05-.11-.1-.21-.15-.32l2.24-1.02c.06.12.11.23.17.35Z"/>
  <path d="M41.87,156.85c-.79-.11-1.58-.21-2.38-.32.01-.11.02-.21.03-.32.79.1,1.59.19,2.38.29-.01.12-.03.23-.04.35Z"/>
  <path d="M51.05,86.61c-.3.78-.6,1.57-.9,2.35-.06-.93-.18-1.87.92-2.32,0,0-.03-.03-.03-.03Z"/>
  <path d="M95.21,222.32c.72-.27,1.45-.55,2.17-.82.04.12.09.25.13.37-.75.27-1.49.53-2.24.8-.02-.12-.04-.24-.07-.35Z"/>
  <path d="M43.19,93.82c.68-.32,1.36-.64,2.04-.97l.16.33c-.7.33-1.4.67-2.1,1-.03-.12-.07-.24-.1-.37Z"/>
  <path d="M61.64,122.36c-.79.23-1.59.46-2.38.69.74-.41,1.31-1.5,2.36-.67,0,0,.02-.03.02-.03Z"/>
  <path d="M72.87,68.19c.76.03,1.53.07,2.29.1,0,.07,0,.14-.01.21h-2.3c0-.11.01-.21.02-.32Z"/>
  <path d="M52.21,101.39c.71-.23,1.41-.47,2.12-.7.04.12.08.23.11.35-.71.23-1.41.46-2.12.69-.04-.11-.07-.22-.11-.34Z"/>
  <path d="M50.84,205.8c-.69.26-1.39.53-2.08.79-.04-.09-.08-.19-.12-.28.54-.25,1.08-.52,1.64-.73.13-.05.35.16.54.25,0,0,.03-.03.03-.03Z"/>
  <path d="M95.29,212.48c.43-.51.86-1.03,1.3-1.54.08.08.17.17.25.25-.47.48-.94.96-1.41,1.45-.05-.05-.09-.1-.14-.15Z"/>
  <path d="M78.19,178.88h1.99s0,.1.01.15h-1.99s0-.1,0-.15Z"/>
  <path d="M40.03,93.28c-.43-.48-.87-.95-1.3-1.43-.04.04-.08.08-.12.12.42.49.84.98,1.26,1.46.05-.05.1-.1.16-.15Z"/>
  <path d="M46.53,87.82c-.21.56-.42,1.11-.63,1.67-.11-.04-.22-.08-.33-.12.2-.56.4-1.12.6-1.68.12.04.24.08.37.12Z"/>
  <path d="M81.03,180.4h-2.1c0-.11.01-.22.02-.32.69,0,1.42-.54,2.05.35,0,0,.03-.03.03-.03Z"/>
  <path d="M52.51,151.39c-.26.14-.53.28-.53.28-.48-.33-.78-.55-1.11-.77.76-.73,1.06.48,1.66.52,0,0-.02-.02-.02-.02Z"/>
  <path d="M75.07,67.6c-.56-.14-1.12-.29-1.69-.43.03-.1.06-.2.09-.3.57.12,1.14.25,1.71.37-.04.12-.07.24-.11.37Z"/>
  <path d="M64.16,150.15c-.57.14-1.13.27-1.7.41-.03-.1-.07-.21-.1-.31.55-.15,1.1-.29,1.65-.44.05.12.1.23.15.35Z"/>
  <path d="M49.42,119.3c-.44.31-.88.62-1.31.94-.07-.09-.13-.19-.2-.28.44-.31.88-.62,1.31-.94.07.09.14.19.2.28Z"/>
  <path d="M46.82,94.22c-.36.34-.72.68-1.08,1.02-.08-.08-.16-.17-.24-.25.36-.35.71-.69,1.07-1.04l.26.27Z"/>
  <path d="M97,220.07c-.52.11-1.04.22-1.56.32-.02-.1-.05-.21-.07-.31.52-.12,1.04-.24,1.56-.36.02.12.05.23.07.35Z"/>
  <path d="M79.24,76.93h-1.66c0-.06,0-.11,0-.17h1.67c0,.06,0,.11,0,.17Z"/>
  <path d="M45.41,125.02c-.5-.18-1-.36-1.5-.54.04-.11.07-.21.11-.32.5.19,1,.38,1.5.57l-.11.3Z"/>
  <path d="M48.23,87.69c-.26.43-.51.86-.77,1.3-.09-.05-.19-.11-.28-.16.24-.45.48-.9.72-1.35.11.07.22.14.33.21Z"/>
  <path d="M72.84,168.14c-.51.2-1.01.4-1.52.61-.04-.15-.08-.3-.12-.44.55-.05,1.11-.09,1.66-.14,0,0-.03-.03-.03-.03Z"/>
  <path d="M39.15,227.29h1.52c0,.06,0,.11,0,.17h-1.52c0-.06,0-.11,0-.17Z"/>
  <path d="M96.35,208.68c-.76.59-1.4.68-1.71.23,0,0-.03.03-.03.03.59-.08,1.17-.16,1.76-.24,0,0-.02-.03-.02-.03Z"/>
  <path d="M59.66,123.84c.4-.31.8-.63,1.21-.94.07.09.14.19.21.28-.41.3-.82.61-1.23.91-.06-.08-.12-.16-.18-.25Z"/>
  <path d="M56.11,49.54c-.31.37-.61.74-.92,1.12-.08-.06-.16-.12-.24-.18.29-.39.58-.78.87-1.17.1.08.19.16.29.24Z"/>
  <path d="M48.6,121.21c-.09.44-.19.88-.28,1.33-.11-.02-.21-.04-.32-.06.08-.44.17-.89.25-1.33.11.02.23.04.34.07Z"/>
  <path d="M75.71,167.63c-.07.48-.15.95-.22,1.43-.11-.02-.22-.04-.33-.05.07-.47.15-.95.22-1.42.11.02.22.03.33.05Z"/>
  <path d="M89.84,220.96c.11.13.22.26.33.4-.38.2-.75.4-1.13.6-.04-.07-.08-.14-.12-.21.31-.27.62-.54.93-.81,0,0-.03.03-.03.03Z"/>
  <path d="M51.13,169.6c-.41.17-.82.33-1.22.5-.04-.1-.08-.2-.13-.3.4-.18.81-.35,1.21-.53.05.11.09.21.14.32Z"/>
  <path d="M31.87,85.48c.25-.38.51-.75.76-1.13l.35.38c-.38.24-.76.48-1.14.72,0,0,.03.03.03.03Z"/>
  <path d="M45.15,122.44l-1.09-.56c.06-.11.12-.23.18-.34.33.2.67.4,1,.6-.03.1-.07.21-.1.31Z"/>
  <path d="M30.89,212.55c-.38.25-.76.5-1.06.7.21-.26.5-.6.78-.95.09.08.18.17.28.25Z"/>
  <path d="M54.14,52.67l.8-.9c.08.07.17.14.25.21-.27.3-.54.6-.8.9-.08-.07-.17-.14-.25-.21Z"/>
  <path d="M54.37,101.72c.27-.13.54-.25.82-.38.04.09.09.18.13.26-.27.14-.54.27-.82.41-.04-.1-.09-.19-.13-.29Z"/>
  <path d="M69.71,57.61c-.13-.26-.26-.51-.4-.77.09-.05.17-.09.26-.14l.41.76c-.09.05-.18.1-.28.15Z"/>
  <path d="M36.24,77.28c-.4-.03-.8-.06-1.2-.1.03-.12.07-.23.1-.35.36.16.71.32,1.07.47,0,0,.03-.03.03-.03Z"/>
  <path d="M89.87,220.93c-.09-.27-.19-.54-.28-.8.14-.01.28-.03.42-.04-.06.29-.11.58-.16.87,0,0,.03-.02.03-.02Z"/>
  <path d="M96.12,217.13c.16.15.32.3.49.45-.05.06-.09.13-.14.19-.2-.12-.41-.24-.61-.37.09-.09.18-.18.27-.28Z"/>
  <path d="M43.5,88.21v-.74c.07,0,.13,0,.2-.01.02.25.04.49.06.74-.09,0-.17,0-.26,0Z"/>
  <path d="M45.23,120.44c-.23-.12-.45-.25-.68-.37.03-.06.06-.12.09-.18.24.11.48.21.72.32l-.13.23Z"/>
  <path d="M40.85,142.14v.73c-.06,0-.12.02-.18.03-.03-.25-.07-.5-.1-.75.09,0,.19,0,.28-.01Z"/>
  <path d="M72.07,94.54c-.14.15-.28.3-.42.45-.06-.05-.11-.11-.17-.16.14-.15.28-.3.42-.46.06.05.12.11.17.16Z"/>
  <path d="M71.44,93.82c.16-.13.32-.26.49-.39.05.05.09.1.14.15-.14.15-.28.3-.42.45-.07-.07-.14-.14-.2-.21Z"/>
  <path d="M82.9,87.87c-.24-.06-.47-.12-.71-.18.04-.09.09-.19.13-.28.2.15.39.29.59.44h0Z"/>
  <path d="M88.7,222.99c-.17.01-.34.03-.51.04,0-.07-.02-.14-.02-.21.17-.02.34-.04.51-.06l.02.22Z"/>
  <path d="M53.21,89.05c-.16.08-.25.15-.33.15-.05,0-.12-.12-.13-.19,0-.03.1-.13.15-.12.08.01.16.08.31.16Z"/>
  <path d="M36.58,76.63c-.06.03-.12.06-.18.1-.03-.08-.07-.16-.1-.25.07-.02.15-.06.19-.04.05.03.06.12.08.19Z"/>
  <path d="M60.54,25.8c-.06.03-.12.06-.18.1-.03-.08-.06-.16-.1-.25.07-.02.15-.06.19-.04.05.03.06.12.08.19Z"/>
  <path d="M90.01,218.79c-.05.04-.1.09-.15.13-.05-.08-.1-.15-.15-.23.06-.03.14-.08.19-.07.05.01.07.11.11.17Z"/>
  <path d="M54.16,232.18s0-.04,0-.07c0,.02.01.04.02.05,0,0,0,.01,0,.01Z"/>
  <path d="M14.87,233.88s0,.04,0,.07c0-.02-.01-.04-.02-.05,0,0,0-.01,0-.01Z"/>
  <path d="M82.91,87.85s0,.04,0,.07c0-.02-.01-.04-.02-.05,0,0,0-.01,0-.01Z"/>
  <path d="M74.55,137.71c-.3.7-.54,1.45-.93,2.1-.2.33-.65.67-1.01.7-.85.07-1.72-.04-2.63-.23.72-.19,1.46-.36,2.17-.58.66-.2,1.49-.21,1.67-1.2-1.43.45-2.78.87-4.13,1.28-.02,0-.1-.17-.1-.17,1.37-.6,2.71-1.2,4.07-1.76.27-.11.61-.07.91-.1,0,0-.02-.03-.02-.03Z"/>
  <path d="M66.37,127c-.3.05-.41.11-.5.08-.06-.02-.07-.16-.1-.24.06-.02.14-.08.19-.06.1.03.19.1.41.23Z"/>
  <path d="M75.72,229.45c-2.28-9.59-5.98-18.74-8.38-28.29,2.77,9.44,6.5,18.58,8.38,28.29Z"/>
  <path d="M81.5,223.67c-3.76-9.06-6.47-18.48-9.53-27.77.1-.04.21-.07.31-.11,3.07,9.29,6.14,18.59,9.21,27.88Z"/>
  <path d="M78.84,224.79c-.97-3.19-1.89-6.39-2.91-9.56-1.31-4.07-2.67-8.12-4.06-12.17-.36-1.07-.89-2.08-1.32-3.12-.08-.2-.01-.46-.01-.99.66,1.56,1.28,2.83,1.75,4.15,1.09,3.07,2.12,6.15,3.14,9.24.61,1.86,1.11,3.76,1.7,5.63.62,1.98,1.31,3.94,1.91,5.92.07.24-.15.58-.23.87,0,0,.03.03.03.03Z"/>
</svg>