<?xml version="1.0" encoding="UTF-8"?>
<svg id="a" data-name="Layer_1" xmlns="http://www.w3.org/2000/svg" viewBox="0 0 113.37 90.83">
  <defs>
    <style>
      .b {
        fill: none;
        stroke: #000;
        stroke-miterlimit: 10;
        stroke-width: .5px;
      }

      .c {
        fill: #fff;
      }
    </style>
  </defs>
  <g>
    <path class="c" d="M111.88,46.73c-.06.02-.12.04-.17.05-.37-.27-.73-.54-1.1-.81-.1.06-.2.11-.3.17.72,1.06-1.05,2.5.73,3.52-.5,1-1.04,2.09-1.58,3.19-.27-.99-.2-1.9-.29-2.8-.08-.77.43-1.72-.69-2.59.08,3.31-.05,6.28-1.52,8.99-.17-2.54-.17-5.05-.17-7.56,0-.67-.05-1.32-.94-1.82,0,.55-.02.86,0,1.17.3,3.35.56,6.71-.28,10.03-.09.38-.42.7-.63,1.04-.11-.05-.21-.1-.31-.15v-1.17c0-2.32.01-4.64,0-6.96-.01-.31-.18-.63-.27-.94-.15.03-.29.05-.44.08v1.16c0,2.24.06,4.48-.03,6.72-.04,1.03-.08,2.28-.65,3.03-1.48,1.96-3.09,3.88-4.93,5.49-3.75,3.27-7.58,6.46-11.58,9.43-2.65,1.96-5.54,3.68-8.5,5.15-3.76,1.85-7.67,3.43-11.59,4.95-4.4,1.71-8.84,3.35-13.7,3.32-.48-.14-1.01-.24-1.21-.27-1.19-4.45-2.51-8.88-3.44-13.39-1.02-4.94-1.04-10-.49-15.05-.19-.02-.38-.04-.58-.06-.1.65-.21,1.3-.31,1.97q-.36-2.24-1.39-2.34v9.49c-4.23,1.83-8.6,3.07-13.21,3.14-2.82.04-5.65-.12-8.47-.22-1.19-.05-2.38-.09-3.56-.26-4.35-.6-8.69-1.25-13.04-1.93-.25-.03-.55-.41-.64-.69-.21-.68-.32-1.4-.48-2.11-.28-1.29-.57-2.57-.86-3.86.4,1.07.79,2.15,1.2,3.21.08.21.22.41.39.56.33.3.69.59,1.07.83.31.21.68.34,1.02.5.07-.09.14-.18.2-.26-.34-.68-.78-1.32-1-2.03-.4-1.26-.64-2.57-.99-3.84-.05-.19-.31-.32-.48-.48-.08.06-.17.11-.25.17.07.61.13,1.21.2,1.82-2.07-5.34-2.55-10.91-2.49-16.61-.31.16-.54.37-.54.57.01,3.6-.23,7.22.67,10.76.18.68.18,1.4.26,2.11-.08-.12-.19-.23-.23-.36-1.14-3.96-1.52-8.03-1.66-12.12-.05-1.38.09-2.77.23-4.15.18-1.71.44-3.42.69-5.13.17-1.2.38-2.39.57-3.59-.2-.05-.4-.09-.6-.13-.72,1.77-.8,3.73-1.11,5.59-.33,1.98-.45,4.01-.49,6.02-.04,1.98.04,3.98.24,5.95.2,1.98.56,3.95.94,5.92.36,1.9.83,3.79,1.26,5.68-.18.04-.36.08-.53.12-.49-2.14-1.11-4.26-1.45-6.42-.44-2.88-.85-5.78-.92-8.68-.07-3.21.2-6.42.45-9.63.27-3.6,1.13-7.09,2.37-10.47.25-.68.5-1.4.93-1.96.3-.39.92-.54,1.51-.86-.52-.07-.88-.12-1.24-.16,5.72-1.38,11.42-2.91,17.22-3.62,5.9-.71,11.86-.03,17.67.87v2.05c.14.04.27.07.41.1.08-.38.12-.79.26-1.16.15-.38.4-.73.61-1.09.08.07.16.13.24.19l-.15,1.47c.08.04.17.09.26.14.21-.2.46-.38.61-.63.18-.28.26-.63.38-.95-.26,1.94-.18,2.59.56,2.93.13-1.02.27-2.02.4-3,1.85-.22,1.84-.1,1.69,1.57-.17,1.81-.04,3.65-.04,5.48.2.03.39.06.59.08.25-1.07-.02-2.23.13-3.33.16-1.12.47-2.23.72-3.34.22.51.22.98.22,1.46,0,1.77-.03,3.53.02,5.3.02,1.14.27,1.39,1.11,1.43l-.78-5.31c.49,1.2.78,2.42,1.09,3.63.29,1.14.06,2.41.71,3.48.24-.9.38-1.8.21-2.63-1.01-5.19-1.4-10.39-.96-15.68.29-3.58,1-7.04,2.06-10.45.36-1.17.65-2.36.97-3.54-.1-.02-.2-.04-.29-.06.08-.29.13-.62.26-.86.2.84.96.85,1.57,1.06,2.34.85,4.8,1.47,7,2.6,3.88,2.01,7.64,4.29,11.39,6.54,3.3,1.99,6.59,4,9.76,6.18,3.38,2.32,6.65,4.79,9.9,7.29,3.57,2.74,7.28,5.34,10.28,8.76,1.06,1.22,2.1,2.47,3.16,3.7,1.86,2.17,3.77,4.3,5.57,6.52.66.82,1.07,1.85,1.6,2.78ZM44.17,69.83v-8.62c-.12-.03-.24-.07-.36-.11-.13.2-.38.4-.38.6-.03,2.43-.03,4.86,0,7.29.01.24.39.46.73.84ZM42.61,69.02v-3.76c-.65.8-1.24,1.34-1.59,2.02-.33.65-.42,1.43-.61,2.16.18.07.36.13.54.2.28-.68.57-1.36.86-2.07.17.61.31,1.09.44,1.56.12-.03.24-.07.36-.11Z"/>
    <path d="M51.65,1.3c-.04-.12-.06-.27-.06-.44,2,.65,3.95,1.16,5.79,1.92,3.85,1.59,7.53,3.51,10.98,5.87,1.59,1.09,3.42,1.84,5.06,2.85,1.88,1.16,3.67,2.46,5.51,3.68,1.91,1.26,3.92,2.39,5.75,3.76,5.72,4.26,11.62,8.3,16.76,13.28,1.47,1.42,2.66,3.12,4.01,4.66,1.03,1.18,2.17,2.26,3.17,3.47,1.03,1.23,1.83,2.67,2.93,3.83,2.24,2.35.73,4.63-.2,6.69-2.08,4.61-5.11,8.6-8.7,12.17-1.9,1.9-3.65,3.95-5.6,5.79-2.25,2.1-4.54,4.18-7.01,6.02-2.78,2.07-5.7,3.99-8.71,5.71-2.19,1.25-4.61,2.08-6.96,3.05-3.88,1.6-7.75,3.22-11.67,4.73-1.82.7-3.72,1.18-5.59,1.69-1.09.3-2.26.03-3.37.02.49-.19-.12-.44-.81-.63,4.86.03,9.3-1.61,13.7-3.32,3.92-1.52,7.83-3.1,11.59-4.95,2.96-1.47,5.85-3.19,8.5-5.15,4-2.97,7.83-6.16,11.58-9.43,1.84-1.61,3.45-3.53,4.93-5.49.57-.75.61-2,.65-3.03.09-2.24.03-4.48.03-6.72v-1.16c.15-.03.29-.05.44-.08.09.31.26.63.27.94.02,2.32,0,4.64,0,6.96v1.17c.1.05.2.1.31.15.21-.34.54-.66.63-1.04.84-3.32.58-6.68.28-10.03-.02-.31,0-.62,0-1.17.89.5.94,1.15.94,1.82,0,2.51,0,5.02.17,7.56,1.47-2.71,1.6-5.68,1.52-8.99,1.12.87.61,1.82.69,2.59.09.9.02,1.81.29,2.8.54-1.1,1.08-2.19,1.58-3.19-1.78-1.02-.01-2.46-.73-3.52.1-.06.2-.11.3-.17.37.27.73.54,1.1.81.05,0,.11-.03.17-.05-.53-.93-.94-1.96-1.6-2.78-1.8-2.22-3.71-4.35-5.57-6.52-1.06-1.23-2.1-2.48-3.16-3.7-3-3.42-6.71-6.02-10.28-8.76-3.25-2.5-6.52-4.97-9.9-7.29-3.17-2.18-6.46-4.19-9.76-6.18-3.75-2.25-7.51-4.53-11.39-6.54-2.2-1.13-4.66-1.75-7-2.6-.61-.21-1.37-.22-1.57-1.06Z"/>
    <path d="M52.93,89.42c.69.19,1.3.44.81.63-.32,0-.62.02-.92.07-.1.01-.21-.15-.38-.39.07-.1.14-.21.2-.32.1,0,.2,0,.29,0Z"/>
    <path d="M51.64,89.14s0,.01,0,.01l.31,1.09s.03-.01.05-.01c-.09-.36-.19-.72-.29-1.08.2.03.73.13,1.21.27-.09,0-.19,0-.29,0-.06.11-.13.22-.2.32.17.24.28.4.38.39.3-.05.6-.07.92-.07-.24.09-.75.16-1.64.21-.23.01-.44.1-.67.11-.38.03-.48-.3-.55-.62-1.22-5.01-2.46-10.01-3.59-15.04-.33-1.48-.32-3.03-.44-4.29-3.05.9-6,1.92-9.02,2.62-2.37.55-4.79.91-7.28.42-1.27-.24-2.63-.06-3.95-.05-3.49.04-6.93-.29-10.38-.91-3.51-.62-7.09-.94-10.48-1.38-.37-.91-.74-1.8-1.08-2.71-1.01-2.72-2.21-5.39-2.93-8.18-.58-2.26-.61-4.68-.79-7.03-.16-2.02-.28-4.05-.24-6.07.08-3.83.16-7.66,1.15-11.4.49-1.8.83-3.64,1.33-5.44.19-.7.69-1.3.93-1.99.26-.73.39-1.51.59-2.34,4.34-.93,8.8-1.95,13.29-2.82,2.2-.43,4.44-.76,6.67-.81,3.3-.09,6.61.05,9.91.22,2.6.13,5.18.47,7.78.67.37.03.76-.22,1.14-.33.14-.04.3-.12.43-.09,1.23.26,2.46.54,3.87.86-.39-7.61.55-14.74,3.31-21.56.1.02.19.04.29.06.09.02.19.04.29.06-.32,1.18-.61,2.37-.97,3.54-1.06,3.41-1.77,6.87-2.06,10.45-.44,5.29-.05,10.49.96,15.68.17.83.03,1.73-.21,2.63-.65-1.07-.42-2.34-.71-3.48-.31-1.21-.6-2.43-1.09-3.63l.78,5.31c-.84-.04-1.09-.29-1.11-1.43-.05-1.77-.02-3.53-.02-5.3,0-.48,0-.95-.22-1.46-.25,1.11-.56,2.22-.72,3.34-.15,1.1.12,2.26-.13,3.33-.2-.02-.39-.05-.59-.08,0-1.83-.13-3.67.04-5.48.15-1.67.16-1.79-1.69-1.57-.13.98-.27,1.98-.4,3-.74-.34-.82-.99-.56-2.93-.12.32-.2.67-.38.95-.15.25-.4.43-.61.63-.09-.05-.18-.1-.26-.14l.15-1.47c-.08-.06-.16-.12-.24-.19-.21.36-.46.71-.61,1.09-.14.37-.18.78-.26,1.16-.14-.03-.27-.06-.41-.1v-2.05c-5.81-.9-11.77-1.58-17.67-.87-5.8.71-11.5,2.24-17.22,3.62.36.04.72.09,1.24.16-.59.32-1.21.47-1.51.86-.43.56-.68,1.28-.93,1.96-1.24,3.38-2.1,6.87-2.37,10.47-.25,3.21-.52,6.42-.45,9.63.07,2.9.48,5.8.92,8.68.34,2.16.96,4.28,1.45,6.42.17-.04.35-.08.53-.12-.43-1.89-.9-3.78-1.26-5.68-.38-1.97-.74-3.94-.94-5.92-.2-1.97-.28-3.97-.24-5.95.04-2.01.16-4.04.49-6.02.31-1.86.39-3.82,1.11-5.59.2.04.4.08.6.13-.19,1.2-.4,2.39-.57,3.59-.25,1.71-.51,3.42-.69,5.13-.14,1.38-.28,2.77-.23,4.15.14,4.09.52,8.16,1.66,12.12.04.13.15.24.23.36.25.89.49,1.79.74,2.69.29,1.29.58,2.57.86,3.86.16.71.27,1.43.48,2.11.09.28.39.66.64.69,4.35.68,8.69,1.33,13.04,1.93,1.18.17,2.37.21,3.56.26,2.82.1,5.65.26,8.47.22,4.61-.07,8.98-1.31,13.21-3.14v-9.49q1.03.1,1.39,2.34c.1-.67.21-1.32.31-1.97.2.02.39.04.58.06-.55,5.05-.53,10.11.49,15.05.93,4.51,2.25,8.94,3.44,13.39-.04-.01-.07-.01-.08-.01ZM46.62,68.72v-3.68c-.12,0-.24-.01-.36-.01-.46,1.21-.2,2.45.36,3.69Z"/>
    <path d="M51.72,89.15c.1.36.2.72.29,1.08-.02,0-.04.01-.05.01l-.31-1.09s0,0,0-.01c0,0,.04,0,.08.01Z"/>
    <path class="c" d="M46.62,65.04v3.68c-.56-1.24-.82-2.48-.36-3.69.12,0,.24.01.36.01Z"/>
    <path d="M44.17,61.21v8.62c-.34-.38-.72-.6-.73-.84-.04-2.43-.04-4.86,0-7.29,0-.2.25-.4.38-.6.12.04.24.08.36.11Z"/>
    <path d="M42.61,65.26v3.76c-.12.04-.24.08-.36.11-.13-.47-.27-.95-.44-1.56-.29.71-.58,1.39-.86,2.07-.18-.07-.36-.13-.54-.2.19-.73.28-1.51.61-2.16.35-.68.94-1.22,1.59-2.02Z"/>
    <path d="M9.13,68.68c-.06.08-.13.17-.2.26-.34-.16-.71-.29-1.02-.5-.38-.24-.74-.53-1.07-.83-.17-.15-.31-.35-.39-.56-.41-1.06-.8-2.14-1.2-3.21-.25-.9-.49-1.8-.74-2.69-.08-.71-.08-1.43-.26-2.11-.9-3.54-.66-7.16-.67-10.76,0-.2.23-.41.54-.57-.06,5.7.42,11.27,2.49,16.61-.07-.61-.13-1.21-.2-1.82.08-.06.17-.11.25-.17.17.16.43.29.48.48.35,1.27.59,2.58.99,3.84.22.71.66,1.35,1,2.03Z"/>
  </g>
  <path class="b" d="M51.2,2.61c.09-.12.15-.28.19-.45.08-.29.13-.62.26-.86.03-.08.08-.15.14-.21"/>
</svg>