<?xml version="1.0" encoding="UTF-8"?>
<svg id="Layer_1" data-name="Layer 1" xmlns="http://www.w3.org/2000/svg" viewBox="0 0 235.24 238.55">
  <defs>
    <style>
      .cls-1 {
        fill: #fefefe;
      }
    </style>
  </defs>
  <path d="M80.13,114.82c5.57-2.46-.17-4.06-3.99-2-.69-5.01,1.5-2.38,4.99-2.01.55-.43-2.32-2.06-2.01-3.46.67-2.96,20.45-8.25,24-6.53-1.23-4.23-4.14-7.64-5.51-11.98-.75-2.37-.2-4.8-.92-7.08-.61-1.93-2.82-3-3.34-4.65-.37-1.19-1.01-7.08-.81-8.34.3-1.9,3.54-8.78,5.57-4.95-2.44.25-4.12,2.63-3.98,5.01,2.67-4.12,7.61-2.07,10.01-3.47,3.17-1.85,3.36-15.12,14.56-16.44,7.89-.93,10.82,3.54,13.91,3.54,1.77,0,5.26-3.12,8.06-3.57s8.97-.4,11.49.39c6.85,2.14,6.42,18.44,7.96,19.56.45.33,7.48-2.35,10.99,0q1.83,2.26,0,0c-.79-.76-2.24-.74-2-1.99,3.24-.76,5.41,2.83,5.97,5.52s-1.21.81-1.97.46c-.08,2.68.36,5.42-.45,8.07-1.12,3.62-14.34,19.91-17.56,23.94.26-.27,4.75-.94,6.98-2.54,1.45-1.04,4.23-4.78,6.02-6.46,1.34-.36,2.68-1.7,4-4-1.26,2.22-2.59,3.56-4,4,.63-6.19,9.52-11.63,10.05-17.5.59-6.57-3.35-15.01-8.05-19.49,7.47,1.83,10.43,17,8.55,23.05-.34,1.1-5.13,7.51-6.55,9.94,2.59-.76,2.54,2.72,4,4q-2.45.13,0,0c.28.25,1.72.2,2.5.96,11.7,11.41,22.37,45.24,20.5,61.54-1.31,11.41-13.78,14.4-23.67,15.43-4.07.42-12.35-2.94-8.81,5.05.37.83,2.64,2.88,3.52,3.48,1.06.72,7.64,2.23,4.98,4.06-1.03.71-14.84,5.14-17.22,5.78s-14.58,3.57-15.8,2.69l2-2.98-8-2c2.09,4.48,1.03,5.49-3,6.99-.81-.16-1.37-.59-1.61-1.35,4.68-4.93.83-7.88-11.53-8.85l-.43-1.82c2.02-2.51,3.21-5.51,3.57-8.98,2.38.29,3.36,2.41,2.94,6.36,4.48,1.39,8.97,2.56,13.18,3.46,1.44,4.39,8.87,2.85,11.88.19,1.32-2.77,4.74.27,4.74,3.05,4.68-1.25,9.3-2.6,13.89-4.05l-5.62-5-1,1-1,1c-2.12,2.28-6.16,4.03-8.84,3.54l-2.16.46c.11,1.91-1.53,1.87-2,0-2.28-2.11.95-5.23,2.81-7,1.32-1.26,16.67-9.77,17.68-9.74,4.64,3.62,18.24-.27,23.12-3.51,11.36-7.54-4.79-49.72-9.74-59-3.22-6.04-5.92-9.19-13.19-5.38l-10.19,5.93c-3.17.93-7.18.91-4.5-2.29l.24,2.19c3.75-.37,8.43-.41,14.03-.12,3.29,4.12,1.12,4.09-2.27,3.94,3.26-2.61,5.79,3.07,2.91,4.19-.6.23-6.26-1.21-4.91-3.19l2-1-2,1c.53,1.93,2.09,2.98,4.7,3.17,5.54-.34,21.71,4.48,12.46,11.33-7.85,1.19-8.42,3.27-9.13,10.61,4.38-.07,20.47,12.53,12.66,14.28-1.46.33-9.94-5.89-8.69-8.38q.3-.39,0,0c-3.64,1.35-11.66-3.63-13-7l.65-1.53c-2.18-1.05-2.12-3.04-.52-4.84,1.89-.08,13.08-6.92,12.96-7.68-.24-1.53-18.44-4.95-21.03-1.22,10.21-1.88,13.32,1.55,5.43,9.51-1.43,2.4-.99,3.58,1.33,3.54l1.17,2.22-2.21,1.55c-5.91-.73-11.84-.62-17.78.33-5.46-7.67,6.32-9.51,12.58-9.11.15-.12,1.45-2.44,1.47-2.62.12-.9-16.06-1.26-17.9-.99,1.11,1.42,1.36,2.66-.17,3.84-1.08,2.74-10.17-4.97-8-7l1.12-2c2.93-.67,14.63-.84,15.88,2l-1.48-1.5c3.52-4.56.63-5.49-8.65-2.8-.49-2.15-2.68-2.8-6.59-1.95-1.55-1.74,4.16-9.89,6.71-5.75,2.24,2.89,3.78,3.04,4.62.43,1.76-5.45,3.54-7.92,9.5-8.79,2.83-1.65,14.58-17.91,16.05-21.33,4.47-10.39-4.85-8.71-11.53-6.75-1.69-.34-2.26-1.57-2.08-3.28,2.55-6.84-1.47-15.68-9.65-14.42-.56-3.8-2.28-5-5.16-3.58-6.64,4.5-9.9,4.48-16.57-.02-3.82,1.62-6.88,1.87-9.18.74-.47-.51-1.14-.51-2,0l-1,1c-.56.87-.24,1.61.78,2.32-.26,1.81-8.04,14.41-10.5,14.34-7.93-3.92-7.67,5.12-2.97,9.42,1.1,6.7,3.17,13.06,6.19,19.09,8.46-1.33,9.17,1.61,7.69,9.15.96,1.42,13.94-1.43,16.23-1.95l1.57,1.65c-3.73,3.57-8.78,5.85-15.17,6.83,2.34,2.58,7.51,7.65,6.84,1.57,1.86-2.88,16.15-1.4,16.35-.56.14.61-.19,1.67-.53,2.28l-9.28,1.63c-1.79,1.26,8.73,11.73,10.79,9.24,7.08-.49,2.01,12.95,0,4q-1.09-.72,0,0c2.93,4.5.13,6.03-3.52,2.31-4.97-1.05-17.03-2.9-14.85,5.13,11.1.6,11.88,5.29,2.35,14.07-7.69,17.69,10.41,12.09,19.34,7.23,3.36-1.37,5.75,0,3.58,3.54-14.6,3.26-13.9,16.36.27,19.15l1.83,1.57c-.13,4.06-10.04,3.13-10.78-.62-3.52.14-8.85-6.9-10.33-9.62-.62-5.93-1.44-6.03-2.69-.55l-2.2.78c-.78,6.02-1.5,10.3-8.44,8.17-.77.08-4.26.55-4.45.68-.34.23-5.3,5.93-5.26,6.35.31,3.66,22.92,4.9,26.76,4l1.39,1.81c-8.13,3.02-27.66,1.79-33-6.48,2.92-2.11,9.38-6.54,7.92-10.89-.74-2.2-10.57-2.96-12.93-2.63q-.39-.3,0,0c-.11.02-.68,1.45-1.99,1l1.5-5.99c-4.34,3.08-3.39,8.41-7.5,11.99h16.99c-6.44,1.61-13.37,1.34-19.99,1l2-2.5-1.99-.5c-.16-.16.69-1.56,1-1.99q1.34-1.32,0,0c-3.15,1.84-7.79,2.22-9,6.99,1.9-.17,3.43-.91,5.44-1.05,1.12-.08,5.57-.67,5.56,1.05l-12.99,1,1-2.99q.3-.39,0,0c-7.01,1.03-11.34,2.18-18-1-.42-1.16-1.42-2.16-3-3,1.7.86,2.7,1.86,3,3-6.45-3.08-9.9-6.7-11.57-13.93-3.49-15.08.94-32.61,8.05-46.09l5.03-7.96c-3.54,8.29-8.73,16.15-10.97,25.02-2.94,11.64-5.1,32.95,6.46,39.96-1.45-1.85-3.04-5.99-5-7.99l8.29,8.27c1.91,1.26,3.73-.02,5.71-.28l-2.99,3.99c10.02,1.19,19.81-2.52,27.99-7.99q.39.3,0,0c2.84-1.9,6.29-5.34,8.5-8.01,1.74.21-.61,5.94-1.5,7l11,1-1.01-9.99c-1.96-.32-.53,2.47-.99,3-.39.45-3.73.39-3-2.01q1.34-.58,0,0c-.84.35-3.65,1.95-2.99-.48,2.02-2.61,2.04-4.36,5.99-3.53.2-1.87-2.9-3.09-3.01-3.5-.57-2.15,2.4-1.85,3-1.48.09.05-.73,1.12-.32,1.97,3.14,6.58,1.3,6.76,2.35,12.5s11.57,7.45,14.74,4.29c1.07-1.07,2.66-7.47,2.29-9.07-.27-1.15-3.15-1.1-3.86-3.38-1.22-3.87,1.37-8.13.69-10.61s-3.59-1.78-3.87-3.7c1.89-.92,4.99,2.74,5.98,1.99.17-.13.58-2.67,1.55-3.96,1.54-2.03,3.53-2.24,4.46-4.03l-7.01-1.49-6.98-3.51c5.49,1.01,3.33-1.47,5.12-4.37,3.05-4.94,6.56-4.03,11.37-4.66.94-.13,3.21.8,2.52-1.46-.16-.51-7.77-6.55-8.26-6.76-4.2-1.7-9.62-.97-13.66.88-5.33,2.44-3.28,6.67-11.09,7.37.43,2.71.98,5.21,1,7.99-4.81.95,1.18-5.86-1.99-6.98-1.56,3.67-3.31,7.34-3.02,11.49l1.52-.39-1.03,2.89c-2.45.57-1.58-3.17-1.47-4.47.28-3.34,1.38-6.59,2.99-9.51-.83-.58-8.49.46-10,.99,0-4.82,8.36-5.18,12-2-6.45-1.96-1.91-6.49,2-7v-1c-.49-2.72.73-3.35,3-2,1.35-2.35,2.4-1.65,2,1,1.37.85,2.62.62,4,0,.68-.77.68-1.1,0-1-.47-1.39-.24-2.16,1.01-2.66-5.5.73-5.6-.95-3.29-5.43-1.27-5.62-.51-9.25,2.28-10.9l-.88,2c-1.58.59-15.22.82-15.62-2l-.25,2.14-11.12,4.47c.32,3.58,3.32,3.88,9,.88l1.88,1.51c.28.4.52.81.6,1.25.44,2.37-12.11,7.4-14.85,7.06-2.34,2.01-4.89,3.03-7.81,3.84,6.64,1.62,9.66,4.23,9.06,7.85.99.08,1.65.42,2,1-.92,1.44-.25,1.44,2,0,2.52-.73,3.52-.39,3,1-2.41.85-6.73,3.93-5.49,6.98-.77-.71-1.29-1.72-2.55-1.55-.72.1-10.66,5.65-11.96,6.57q-.39-.3,0,0c-.99.7-4.23,3.25-5,4-.63-.31-.62-.64,0-1l1-1q.3-.39,0,0l-1,1v1c-.78.76-.36,3.24-1.99,3-1.41-5.62,5.99-9.44,9.99-12q1.72.71,0,0c1.88-1.2,4.28-1.51,5-2q.39.3,0,0c1.35-.92,3.06-6.71,2.47-8.06-.95-2.16-8.77-4.29-11.46-3.94-2.17-4.48,5.6-6.5,9-7.01l-1.02-2.99c1.55-.19,3.62-.39,5.01-1.01q.99.97,0,0Z"/>
  <path d="M115.13,52.82c2.84,3.85-5.89,5.89-3,1l1-1c1.09-.7,1.75-.7,2,0Z"/>
  <path d="M111.13,120.82c.87.29.85.62,0,1-2.31,1.52-3.64,1.52-4,0-3.03-3.31,3.66-5.54,4-1Z"/>
  <path d="M105.13,120.82c-2.9.96-3.61-1.5-1-3,2.81-1.59,4.06,1.57,1,3Z"/>
  <path d="M81.13,130.82c-1.57-6.66,10.33-4.89,2,0-.5.46-1.17.46-2,0Z"/>
  <path d="M83.13,130.82c5.19-8.15,11.68.61,2,1-1.12.69-1.78.69-2,0-.64-.26-.61-.6,0-1Z"/>
  <path d="M104.13,117.82c-3.31-.22-4.01-4.72-1-6,3.34-.56,4.12,4.96,1,6Z"/>
  <path d="M100.13,108.82c.21,2.93-4.36,4.52-6,2-5.71-1.84,3.74-7.2,6-2Z"/>
  <path d="M164.13,180.82c5.2,4.71-6.47,5.98-2,1l1-1h1Z"/>
  <path d="M100.13,108.82c-.87-6.65,9.13-.76,3,3-2.42,1.38-2.97-.68-3-3Z"/>
  <path d="M164.13,180.82v-1c2.84-.75,2.63,3.36,0,1Z"/>
  <path d="M131.13,107.82c-1.23-3.19,6.57-6.02,8.73-5.06,3.33,1.49,3.55,8.3-.73,7.06-2.36-1.37-3.94-1.14-6.39-.38l-1.61-1.62Z"/>
  <path d="M102.13,122.82c.87.28.86.62,0,1-5.84,3.97-3.34-6.46,0-1Z"/>
  <path d="M120.13,20.82c-.01.67,1.66,7.87,2.07,8.45,1,1.43,2.55,1.15,3.58,1.91.7.52.79,1.78,2.07,2.42,2.3,1.16,17.32.31,19.02-1.05,2-1.6,3.53-12.16,3.06-14.98-1.01-5.97-3.43-3.8-5.51-5.03-.89-.53-2.01-3.29-4.29-3.22l5.01.49c-3.64-1.84-1.37-10.41,1-7.98.38.39-5.02,6.03,1.99,8.99-3.18-6.56,7.13-10.07.01-3.49,4.18.13-.61,3.92,0,4.48.13.13,2.28-.01,3.56.95,5.56,4.17.74,13.55-1.55,18.07-.73.02-.73-.64,0-2q2.63-10.34,0,0c-1.48,2.21-1.48,2.88,0,2-.43.86-2.1,3.79-1.99,3.98.05.09,1.11-.22,1.97.76,1.54,1.75,5.05,8.36,6.02,8.26,2.99-6.45,9.27-2.58,6.99,0-.87.98-2.78-1.66-3.48-1.66-.57,0-1.83,1.5-3.51,1.67-.32.69.78,2.36-.99,1.99-1.22-3.95-2.93-6.34-6.95-7.56-.97-.29-5.12-1.43-5.06.55,2.67-.05,7.08.41,6.98,4.01-3.8-2.95-8.12-4.49-12.99-4.01.4-1.44,2.91-1.05,5-1.99q1.58-.82,0,0c-.97.09-3.3.59-3-.99l1.99-1h-8.99s3.99,2.99,3.99,2.99c-5.04-2.29-12.47-1.1-17.12,1.5-1.12.63-.67,3.03-1.05,3.26-.32.19-3.78-.04-6.82,2.24-.43-.33-.43-.67,0-1q.3-.39,0,0c-.45.23-.45.77,0,1-1.02.76-2.09,3.7-3.99,4l1.99-5.99c-3.42.18-4.59.79-4.01-3.01-.25-.32-5.95,5.38-.99-1.99l-2.99.99c2.05-3.82-.79-2.67-1.01-3.65-.57-2.55.75-5.52-.52-8.33-1.98-4.36-9.22-6.8-13.48-8.02q-.37-.31,0,0c-4.91,2.65-10.48,2.93-15.33,6.17-4.39,2.93-11.47,9.77-13.16,14.84,6.42-2.36,11.53-8.27,18.49-9,.12,1.19-1.65,1.47-2,1.99q-.39-.3,0,0c-5.13,7.68-9.06,17.11-13.01,25.49,1.36.73,2.88-2.67,3.42-3.58,2.92-4.83,5.59-9.58,8.83-14.23.6-.86.82-4.41,2.76-2.68.29.26-1.8,4.15-2,4.99q-.39-.3,0,0c-1.62,6.9-2.99,13.97-3.99,21,5.88-5.02,4.8-15.97,9.49-21.99l2.51,14.99,2.75-9.73,1.74-2.24c.59,1.92,10.77,9.91,8.53,3.47-.29-.84-2.47.14-2.02-1.48l9,1-6.9,7.69c-6.83,12.39-8.34,22.86-2.1,36.3q-.3.39,0,0c.5,1.07,2.48,4.99,2.94,5.57,1,1.25,3.17.83,3.06,2.42-3.7,1.05-3.03-2.81-5.46-3.07-4.1-.44-10.34-.57-13.52,2.08l5-3.5c-7.56-3.2-16.85,7.36-20.83,13.18-.22.32-3.73,8.94-4.16,4.84,6.64-11.19,17.67-24.03,31.98-21.52-3.05-6.85-5.11-14.76-3.93-22.44.89-5.77,6.7-12.79,7.94-17.56q1.92-3.74,0,0c-4.69,1.11-6.64-2.11-9.5-4.98l-4,11.96-4.49-13.97c.58,2.46-5.77,22.77-8,20.99-2.07-7.64,2.34-15.35,2.98-23l-11.01,17.99c-.82-.04-1.89.44-1.99-.5-.68-6.39,10.64-20.94,13.01-27.49-1.69-1.68-14.48,10.34-17.99,7.5,6.57-8.91,15.4-18.96,26.99-20.52l-11.97-4.51-3.02-2.47c11.33,0,23.81,4.93,32.5,11.97,1.74-1.6,1.78-3.88,3.07-5.92.43-.68,3.21-5.34,4.43-4.05.42.44-5.36,8.68-5.78,10.72-.5,2.46-.28,6.03.78,8.27q-.3.39,0,0c.1.21,1.81,1.52,2.56,2.91s1.35,4.8,1.55,4.97c.27.22,6.87,1.3,7.01.6.47-2.25,10.77-7.62,11.87-7.99-2.03-3.74-4.35-2.93-6-7.49q.78-1.69,0,0c-1.05-2.9-1.5-3.84-.77-7.28,1.38-6.49,8.28-8.01,3.77-15.71,1.95-.57,2.71,2.12,4.32,1.87,1.36-.21,3.38-3.41,5.67-2.86.25,1.26-5.01,2.94-3.99,3.99q-.3.39,0,0c.19.2,1.81-.45,2.01.48l-2.02,3.51,3,1c-4.63.8-3.31-.61-5-2.99q-1.41-1.96,0,0c.29,2.19-3.42,3.66-4.44,6.05-.23.54-1.55,5.64-1.56,5.95q-.55-.98,0,0Z"/>
  <path d="M205.13,51.82c-3.67-12.13-5.34-24.09-19-28.5l9.99-3.51c-3.06-4.47-12.18-1.04-15.99,1.54-.33.22-5.66,4.74-5.91,5.05-1.7,2.06-1.45,5.54-3.6,7.41-1.45-3.05,1.02-8.96-2.48-10.99-.27,3.02-2.45,7.15-2.57,9.93-.07,1.64,1.91,2.53,1.54,3.03-.07.09-1.96-.18-2.07.62-.26,1.9,3.03,5.07-.91,4.4-1.55-5.54,4.73-24.88,9.51-26.99.54-.24,1.69-.19,1.48.48-3.54,4.62-4.35,9.78-3.98,15.5,1.86-.84,1.17-3.54,2.95-5.53,4.08-4.54,15.22-8.51,21.31-7.24.83.17,8.4,3.13,6.71,4.77-.25.24-2.57-1.81-4.31-1.75-2.07.07-6.46,2.42-8.67,3.25,12.84,5.22,13.95,18.65,18,30.5-.85-.02-1.52-.69-2-2,.77,1.64,1.44,2.3,2,2,.59,1.74,3.34,4.58,1.5,7-4.37-6.73-8.26-15.33-16.5-17.99,2.04,6.16,5.29,13.11,5.87,19.61,1.4,15.71-6.25,4.33-6.88-3.61l-3.97,2.99c.08-1.54-3.85-7.02-4.52-6.97-1.14.07-.85,3.23-2.49,2.97-.6-4.02-4.65-5.07-7.52-6.99l-1.48,5.99v-6.99c3.61-1.05,7,3.72,8.95,4.42,1.22.43,2.67-.79,4,.03,1.17.71,2.59,4.66,4.54,5.55l1.48-5.99c1.42,4.29,2.33,9.03,4.51,13.04.76,1.39-.09,2.46,2.5,1.95,1-9.93-4.25-18.58-5.99-27.99,1.24-1.35,12.69,9.59,13.99,10.99Z"/>
  <path d="M92.12,33.82c1.72,2.5-6.34,3.84-7.5,4.01-.78.11-3.62.32-1.98-1l6.49-1.02c-3.2-4.87-8.66-3.08-13-1,3.9-5.36,8.87-2.82,13.5-.92,1.37.56,2.42-.18,2.49-.07Z"/>
  <path d="M92.13,31.81c-2.92-.31-4.73-3.13-7.73-3.76-3.36-.7-4.97-.01-8.01.55-1.93.36-1.21-.09-1.26-1.78,6.1-.46,12.74-.14,16.99,4.98Z"/>
  <path d="M63.13,141.82c-.3.89-1.36,4.5-3,2.99-.77-.71,4.41-2.73,0-3.49l4.5-3.5,2.48,2.02-3.99,1.98q-.2-.55,0,0Z"/>
  <path d="M186.13,29.83c.07.08.36,2.11-.49,1.98-2.19-2.23-5.08-2.23-7.78-.95-1.11.53-.11,2.78-2.73,1.95.73-4,9.41-4.69,11-2.98Z"/>
  <path d="M185.05,35.89c.25.4.68,3.33-.91,2.91-.03-1.12-.5-2.46-1.63-2.87-1.84-.66-5.87,1.03-6.38-1.11,1.62-.21,8.3.08,8.92,1.07Z"/>
  <path d="M181.12,44.82c-.59-.77-6.45-3.47-4.98-5,.25-.26,6.24,3.66,4.98,5Z"/>
  <path d="M170.13,57.81l-6.99-6.98c4.23.08,5.51,3.7,6.99,6.98Z"/>
  <path d="M180.12,50.81c-.22.44-3.14-3.19-3.99-3.99,1.12-.87,4.78,2.35,3.99,3.99Z"/>
  <path d="M119.12,131.83v.98c-4.16.5-4.16-1.48,0-.98Z"/>
  <path d="M92.12,38.8c-.19.22-4.77,3.22-4.98,3.02-1.69-1.62,4.54-3.84,4.49-4.99.86-.13.59,1.86.49,1.98Z"/>
  <path class="cls-1" d="M155.13,104.82c-.07.07-.36,2.12.49,1.99,8.99-3.16,19.81-16.38,27.47-4.22,3.91,6.21,10.85,24.64,12.76,32.03s5.1,27-1.46,32.24c-3.39,2.71-17.53,6.45-21.8,6.09-1.98-.17-1.34-2.25-1.93-2.13-1.7.35-15.39,8.09-17.47,9.56-1.64,1.15-3.68,5.3-4.05,5.45-7.67,3-19.62-9.17-12.72-17.73l10.71-5.27c-8.27.85-16.22,9.76-24.33,3.84-4.49-3.27-2.82-8.14-.83-12.51,1.62-3.57,6.4-7.07,7.16-8.84,1.27-2.94-7.24-1.66-9.09-3.89-3.08-3.71,2.08-9.15,6.39-9.29,1.83-.06,9.09.64,10.81,1.12,2.38.66,1.14,2.52,2.89,2.57-.13-.91.24-2.29.01-3,.91.7,1.13,3.15,2.02,1.49.12-2.48-1.06-3.64-2.02-5.49-1.29-2.49-2.03-3.88-4-5.99,9.08-1.13,18.19,2.06,27,0-2.43,3.46-5.93,6.2-5.01,10.99-2.04.34-.12-2.81-1.54-3.06-2.65-.48-6.58.47-9.45.08l8.99,1.98-12.99.02,4.01,1.49-4.01,1.49c6.71-.73,14.35-1.75,21,.01,3.09.82,9.94,5.11,13,7,2.67,1.65,5.73,4.27,8,6.51,2.34.94.74-1.3.04-2.05-1.34-1.43-6.58-6.08-8.13-6.88-2.27-1.18-9.82-1.12-8.9-6.58l2.49,3c2.2-2.09,2.53-4.74-.49-5.49,1.92-1.85,4.02-4.39,6.42-5.58,3.14-1.56,7.4.02,6.58-4.91-9.49-4.08-23.73-9.34-31.99-1.01-.8-1,5.78-8.8-4.01-7-.29-2.06.6-6.02,2.52-6.99.99-.5,3.97,4.27,6.22,3.76l9.27.25c-.05,1.21-4.59,4.42-4,4.98,1.34,1.26,2.82-2.13,4-2.99l4.99,1.99c-.32-2.01-3.1.06-.99-2.98-.66,0-1.35-.07-2.01,0,.48-.34.69-1.42,1.99-1.02,1.47-2.53-8.19-.89-9.53-.92-2.3-.06-4.29-.42-6.46-1.07-.64-2.16,1.35-2.18,2-2.99Z"/>
  <path class="cls-1" d="M138.13,93.82c-1.01-1.43-.49-1.92,1-1,.76,1.26.3,1.8-1,1Z"/>
  <path class="cls-1" d="M135.13,93.82c-.57-.29-.56-.63,0-1,.33-.61.66-.61,1,0,1.07,1.05.46,1.51-1,1Z"/>
  <path class="cls-1" d="M125.13,93.82c1.64,4-5.29,4.16-4.55-.8s16.93-9.78,5.55-.2l-1,1Z"/>
  <path class="cls-1" d="M123.13,72.82c-1.11-1.61,2.58-3.54,4.36-3.31,5.89.76,3.56,3.21-1.36,3.31-1.15.43-2.15.43-3,0Z"/>
  <path class="cls-1" d="M115.13,52.82c1.72-.85,7.72-2.88,9.37-2.71,2.41.25,5.59,3.66,8.14,3.65,3.11,0,6.92-5.34,12.8-3.93.74.18.56,1.69,1.41,1.97,1.29.42,3.51-.87,3.28,1.01l-4.99,1c10.63-2.17,15.99,9.58,12,18l8.48-3.03-1.47,2.03c7.64-2.78,9.73,3.13,7.21,9.73-.56,1.47-13.89,20.45-15.19,21.54-2.38,1.99-6.56,2.11-7.78,2.98-1.67,1.19-2.05,9.25-7.75,9.73-1.6-1.15-1.25-3.16-1.49-4.98,1.58-1.5,1-2.95.99-4.99-3.47-1.18-7,2.42-8.99,2.99-3.22.93-18.13,4.05-20,1.99l1-8.99c-1.73-.36-6.99.61-7.86-.15-.38-.34-3.77-8.12-4.18-9.31-1.24-3.58-1.4-8.23-2.73-11.27-1.49-3.42-5.54-4.12-2.29-9.81s6.01-1.58,7.56-1.66,7.25-12.22,9.49-14.78c-.87,3.38,2.81-.9,3-1Z"/>
  <path class="cls-1" d="M125.13,93.82h1c.77,2.86-2.08,2.89-1,0Z"/>
  <path class="cls-1" d="M112.13,53.82c.3-.35.64-.71,1-1-.06.04-.98.93-1,1Z"/>
  <path class="cls-1" d="M131.13,107.82c2.29-.73,5.54-1.09,7.99-2,.13,1.3-.17,2.72,0,4-.67.64-2.71.78-2.99,1.01-1.09.88,4.21,1.25,1.99,2.98-.75.59-5.03-1.19-4.99,1,2.52-.71,5.47.95,7.55.87,1.88-.07,10.59-4.17,10.29.43-.02.3-1.55,5.7-1.85,5.7h-17c.86,2.15,3.83,2.61,5.1,4.49,1.03,1.52-1.65,3.13,2.9,2.51.51,5.01-3.78-1.08-4.99,0-2.18,1.95,2.56,1.67,1.99,2.99-4.68.9-2.07-1.57-3.5-3.96-.6-1-2.61-1.41-3.5-2.53s-6.28-7.95-2.49-7.48l11.49-2.01-14.99.99,1.51,4.97c-7.53-.75-8.87-3.25-13.51-8.48,6.56-1.29,12.76-3.5,19-5.5Z"/>
  <path class="cls-1" d="M132.46,93.06l-1,1-1,1-1,1c-2.31,3.73-6.48.62-3-2-.41-.33-.4-.66,0-1,.72-.96,1.72-1.29,3-1,.01-.66.34-.99,1-1-1.75-4.99,7.91-2.93,4.58-1.3l-2.58,3.3Z"/>
  <path class="cls-1" d="M147.13,70.82l1,1,1,1c1.38,3.32.54,2.76-2,1l-3-1-4-1c-4.87-2.26,4.39-4.18,7-1Z"/>
  <path class="cls-1" d="M118.13,77.82c-.33.86-.66.86-1,0-.86-.3-.85-.64,0-1,1.41-1.33,1.92-.77,1,1Z"/>
  <path class="cls-1" d="M136.13,92.82c-.6-.31-.59-.64,0-1,.18-.9.52-.87,1,0,1,1.13.46,1.65-1,1Z"/>
  <path class="cls-1" d="M130.13,90.82h-1c-1.7-3.36,3.61-3.21,1,0Z"/>
  <path class="cls-1" d="M142.13,95.82c-.56,1.5-1.45,2.52-3,3-3.07,1.32-3.4.32-1-3,.58-.94.91-1.94,1-3-1.25,1.36-1.92,1.02-2-1-2.04-4.89,7.74-.22,5,4Z"/>
  <path class="cls-1" d="M129.13,91.82c-2.07,1.92-2.29-2.08,0-1v1Z"/>
  <path class="cls-1" d="M126.13,72.82c6.31-2.35,6.28-1.23,5,5l-1,2-1,2c-5.76,7.94-16.22,7.48-11-4,.03-1.83,3.34-5.42,5-4,.47-.64,1.47-.97,3-1Z"/>
  <path class="cls-1" d="M123.13,73.82c-3.58,1.04-2.25-2.16,0-1,.87.28.86.62,0,1Z"/>
  <path class="cls-1" d="M140.13,71.82l4,1,3,1c5.13,1.68,5.02,8.32,2,12l-1,1c-1.19,3.22-9.61-.98-10.16-1.79-1.4-2.05-2.82-17.82,2.16-13.21Z"/>
  <path class="cls-1" d="M115.13,52.82c-.35.24-1.67-.24-2,0,.82-.68,1.67-1.32,2.51-1.98.75.23-.43,1.92-.51,1.98Z"/>
  <path class="cls-1" d="M83.13,130.82c-.11.27.09.67,0,1-.94-.35-1.15-.43-2-1,.66-.04,1.35.07,2,0Z"/>
  <polygon class="cls-1" points="102.13 122.82 105.14 123.32 102.13 123.82 102.13 122.82"/>
  <path class="cls-1" d="M111.13,121.82c-.73.47-3.59,3.42-3.99,3-.28-.3.26-2.32-.01-3,1.28-.14,2.77.2,4,0Z"/>
  <path class="cls-1" d="M111.13,120.82c.49-.12,2.08-.3,2.01.5.02,1.06-1.53.19-2.01.5.06-.01-.07-.98,0-1Z"/>
  <path class="cls-1" d="M85.13,131.82c-.85.51-1.66,1.41-2.51,1.98-.98-.63.32-1.3.51-1.98.45.17,1.36-.1,2,0Z"/>
  <path class="cls-1" d="M100.13,108.82c.61-.1,1.33-.05,1.95.06-.26,1.32.74,2.11,1.05,2.94.25,2.79.13,3.16,1,6,.39,1.26.12,1.38,1,3-.21.64-2.2,1.6-3,2-.49.25-2.02-.53-2.01.5,0,1.03,1.36.24,2.01.5.96.38,3.21.88,2.99,1.99l-5-.98c2.05,2.94-.94,1.53-1.99,3.98h2.5c-.1.63-.58,1.49-.5,2.01-2.67.24-5.45-.02-8.3.23-1.69.15-3.4,1.74-3.7,1.77-.2.02-2.09-.86-3-1,1.4-.83,4.46-1.26,2.99-3-.17-.21-3.2,1.81-4.99,2,.44-1.08,1.16-1.74,2-2.5l-.51-.5-3.49,3.01c-1.03-.69-1.65-2.35-3.27-3.23-3.1-1.68-6.76-2.34-9.73-4.27,2.24-3.48,10.37-2.67,9.46-6.48,3.8,1.56,13.68-3.32,16.53-6.03,1.66-.48,4.65-1.77,6-2Z"/>
  <path class="cls-1" d="M94.13,110.82c-2.07.59-9.43,3.24-10.38,3.08-.71-.12-2.86-5.44-2.7-6.48.11-.73,12.84-5.6,13.58-5.6h16.5c-2.4,5.95,2.56,11.76-3,14.99,3.92-1.54,6.55-.77,8.01,3.5-2.51-1.15-4.13.43-5.01.51-1.25.11-3.34-1.9-4,1-.1-.26-1.79-.62-2-1,.5-1.48-.96-2.61-1-3-.28-2.69.14-3.04-1-6-.12-1.32.1-2.68,0-4-1.48-.64-2.67.97-3,1-1.66.19-3.87-.41-5.33-.02-1.12.31-.56,1.91-.67,2.02Z"/>
  <path class="cls-1" d="M140.13,132.82c-.25-.19-1.4.13-1.99-.01-.24-1.25.19-1.08,1.48-.98.67.18.4.66.51.99Z"/>
  <path class="cls-1" d="M151.13,185.82c.39-4.04,8.05-7.96,3-2.01,1.99,1.54,8.64-8.09,10.51-8.98l.48,2.99c-4.85-2.55-.87,1.16-4.99,3.51l1.99.49.5,2c1.34-.75,1.12-2,1.5-3,.02-.05.95.14.98-.5l-.98-.5c.22-.16.21-.93.54-.99l1.45.46,8,6.53-28.48,8.02c-1.29-5.3,8.57-3.34,8.47-5.51-.02-.37-2.25-2.31-2.98-2.5Z"/>
  <path class="cls-1" d="M164.13,180.82c-.3.13-.81-.15-1,0,.32-.34.61-.72,1-1-.12.06.12.94,0,1Z"/>
  <path class="cls-1" d="M123.13,175.82c.79,3.94-1.09,6.49-2,9.99,5.22-.8,15.33.45,15.03,7.42-.02.57-1.47.66-2.06,1.33s-.78,2.11-.98,2.25c-.8.55-17.22.21-19.41-.09-4.6-.63-8.15-3.92-12.59-4.92,3.07-3.6,7.53-5.59,8.01-10.98,1.64-.54.45,1.99,1.58,2.08s2.56-.92,3.9-.91c3.08.04,6.75,2.56,7.5-3.18-1.34.52-1.86,1.64-3.51,1.98-.89.19-5.57.8-5.47-.97,5.02.43,7.25.34,10-4.01Z"/>
  <path class="cls-1" d="M162.13,181.82c-.16-1.13.85-.88,1-1-.08.08.12,1.17-1,1Z"/>
  <path class="cls-1" d="M123.13,175.82c.08-1.64,1.88-4.61,1.01-7l7.99,1.01-3.99,3.99c1-.21,5.74-3.23,5.98-3,2.59,2.54-5.57,2.33-4.99,3.99l4.01.51c-2.94.7-3.29,2.85-.29,1.99,1.03,4.54,7.63,9.08,12.95,9.51,2.16.17,2.97-.97,3.32-1,.56-.05,1.56-.12,2,0-.09.92,1.25,2.82,1,2.99-3.01-1.24-6.63,1.54-8.49,1.61-.34.01-6.28-1.37-6.52-1.61s1.43-2.49,1-2.99c-4.01,3.55-8.95-3.17-14.99-1.01,2.21-3.1-.07-7.64,0-8.99Z"/>
  <path class="cls-1" d="M71.13,139.82l3.98-.51c-.99,1.6-3.5,2.49-3.98.51Z"/>
  <path class="cls-1" d="M80.63,133.82c.65.33.65.67,0,1v-1Z"/>
  <path class="cls-1" d="M80.63,135.82c.65.33.65.67,0,1v-1Z"/>
  <path class="cls-1" d="M78.63,136.82c.65.33.65.67,0,1v-1Z"/>
  <path class="cls-1" d="M76.13,137.82c.47-.47,1.59.93.5,1-.35.02-.72-.78-.5-1Z"/>
  <path class="cls-1" d="M68.13,144.82c-.47.47-1.59-.93-.5-1,.35-.02.72.78.5,1Z"/>
  <path class="cls-1" d="M63.13,147.82c.12-.16-.13-1.16,1-1,.18,1.11-.95.95-1,1Z"/>
  <path class="cls-1" d="M64.13,146.82c-.47-.47.93-1.59,1-.5.02.35-.78.72-1,.5Z"/>
  <path class="cls-1" d="M63.13,148.82c-.42.17-.78-.12-.98-.5-.03-.61.95-.46.98-.5-.15.16.15.94,0,1Z"/>
  <path class="cls-1" d="M111.13,44.82c-.93.42-.93-1.42,0-1,.05.02.05.98,0,1Z"/>
  <path class="cls-1" d="M111.13,43.82c-.47-.47.93-1.59,1-.5.02.35-.78.72-1,.5Z"/>
  <path class="cls-1" d="M102.13,33.82c.47.47-.93,1.59-1,.5-.02-.35.78-.72,1-.5Z"/>
  <path class="cls-1" d="M133.63,168.82c.65.33.65.67,0,1v-1Z"/>
  <path class="cls-1" d="M171.13,68.82c.93.89,2.56.87,1.99,2.99-1.54.54-1.18-2.46-1.99-2.99Z"/>
  <path class="cls-1" d="M142.13,36.82c.27-.12.15-1.55,1.99-.99v.98c-.66.06-1.34-.05-1.99.01Z"/>
  <path class="cls-1" d="M150.13,28.82c.65-5.6,1.57-10.62-.51-15.98,5.89,3.03,3.12,11.4.51,15.98Z"/>
  <path class="cls-1" d="M150.13,30.82c-.04.09-1.75,1.25-1.98.51.63-.82,1.47-1.62,1.98-2.51-.07.63.17,1.64,0,2Z"/>
  <path class="cls-1" d="M147.63,35.82c.65.33.65.67,0,1v-1Z"/>
  <path class="cls-1" d="M95.13,176.82c-.47.47-1.59-.93-.5-1,.35-.02.72.78.5,1Z"/>
  <path class="cls-1" d="M111.63,180.82c.65.33.65.67,0,1v-1Z"/>
  <path class="cls-1" d="M119.13,26.82v-4.99s.99,0,.99,0c-.2,1.74.81,4.69-.99,4.99Z"/>
  <path class="cls-1" d="M128.12,34.83c.68.35-.59,1.7-1.99.98-.68-.35.59-1.7,1.99-.98Z"/>
  <path class="cls-1" d="M172.13,91.82c-.53.91-3.34,7.23-3.99,5.99,0-.65-.08-1.34-.01-1.99,1.24-1.16,2.95-3.69,4-4Z"/>
  <path class="cls-1" d="M176.13,95.82c.49,1.5-3.6.96-5,.99.16-2.48,4.58-2.29,5-.99Z"/>
  <path class="cls-1" d="M151.58,52.35c-.83-.71-2.38-1.58-2.45-2.52,3.57.1,5.32,2.76,6.97,5.5-1.47.04-3.4-2.01-4.52-2.98Z"/>
  <path class="cls-1" d="M88.13,176.82c.47-.47,1.59.93.5,1-.35.02-.72-.78-.5-1Z"/>
  <path class="cls-1" d="M85.13,179.82c.31-.18.73-1.7,1.51-1.98l.47.47c-.3.83-1.75,1.2-1.98,1.51Z"/>
  <path class="cls-1" d="M88.63,178.82c.65.33.65.67,0,1v-1Z"/>
  <path class="cls-1" d="M91.12,95.81l-4.01-.49,2.01-1.49-5.99-1c2.8.16,8.02-1.36,7.99,2.98Z"/>
  <path class="cls-1" d="M93.63,94.82c.65.33.65.67,0,1v-1Z"/>
  <path class="cls-1" d="M93.13,91.82c.47.47-.93,1.59-1,.5-.02-.35.78-.72,1-.5Z"/>
  <path class="cls-1" d="M102.63,126.82c.65.33.65.67,0,1v-1Z"/>
  <path class="cls-1" d="M80.13,114.82c.34-.17,1.38.08,1.99.01v.98s-2.5.99-2.5.99c-.74-.23.42-1.94.51-1.98Z"/>
  <rect class="cls-1" x="101.13" y="164.83" width="3.99" height=".98"/>
  <path class="cls-1" d="M101.13,167.82c.17-.07,1.87-2.55,1.99-.01h-1.99Z"/>
  <path class="cls-1" d="M96.13,51.82c.69-2.66-1.78-4.76,3-3.99.92.85-1.74,3.7-3,3.99Z"/>
  <path class="cls-1" d="M75.13,184.82c-.47-.47.93-1.59,1-.5.02.35-.78.72-1,.5Z"/>
  <path class="cls-1" d="M126.13,8.82c-.27-.38-1.7-.76-1.99-1.5-.86-2.2,1.53-2.06,1.99,1.5Z"/>
  <path class="cls-1" d="M128.13,6.82c.47.47-.93,1.59-1,.5-.02-.35.78-.72,1-.5Z"/>
  <path class="cls-1" d="M54.13,180.82c.71.43,6.35,2.21,4.99,2.99-.62-.07-1.51.17-1.99.01-.83-.28-2.35-2.17-3-3Z"/>
  <path class="cls-1" d="M207.13,53.82c.15.94-.36,1.37-1.02.52-.87-.85-.77-2.29-.98-2.52.45.25,1.98,1.86,2,2Z"/>
  <path class="cls-1" d="M120.13,20.82c-.48.52-1.5-.95-.99-1.99.45-.92,1.71,1.22.99,1.99Z"/>
  <path class="cls-1" d="M86.13,18.82c-3.03-.87-6.82-1.18-10.2-2.29-1.51-.5-5.21-1.3-5.79-2.7,2.42-.31,16,3.26,16,4.99Z"/>
  <path class="cls-1" d="M74.13,42.82c-.47.47-1.59-.93-.5-1,.35-.02.72.78.5,1Z"/>
  <path class="cls-1" d="M63.13,141.82c.04-.12-1.53-.73.51-1.98l-.51,1.98Z"/>
  <path class="cls-1" d="M74.13,32.82c-.47.47-1.59-.93-.5-1,.35-.02.72.78.5,1Z"/>
  <path d="M150.13,138.83c3.29-2.75,3,4,2.98,6.98-1.76-.99-3.03-5.07-3.56-6.93-.27-.96-1.27-3.3.56-3.06l.02,3.01Z"/>
  <polygon points="137.12 144.82 137.12 146.82 132.13 145.81 132.13 144.83 137.12 144.82"/>
  <path d="M151.12,153.81l-5.5-14.98c2.71,4.27,5.76,9.88,5.5,14.98Z"/>
  <path d="M184.12,143.82l-6.97-5.51c1.35-.35,8.39,3.99,6.97,5.51Z"/>
  <path d="M178.13,101.81c-1.76.37-2.3-1.16-3.76-1.74-1.28-.51-3.47.54-3.24-1.24,2.56-.19,5.87.33,6.99,2.98Z"/>
  <path d="M129.13,95.82c.32-.18.62-.73,1-1-.3.37-.69.65-1,1Z"/>
  <path d="M130.13,94.82c-.14-.42.63-.72,1-1-.24.37-1.31.08-1,1Z"/>
  <path d="M139.13,98.82c.19-.1,2.92-2.8,3-3-.31.77.05,1.54-.98,2.48-.58.53-1.5.31-2.02.52Z"/>
  <path d="M138.13,95.82c-.41.81-.35,2.16-1,2.99.62-.07,1.68.18,2,0-2.93,1.19-8.25,1.44-10.82-1.28,3.59.52,7.81,1.99,9.82-1.72Z"/>
  <path d="M138.13,95.82c.21-.39-.19-1.45,0-2,.14-.11,1.16.13,1-1,2.21,2.29-.6,2.23-1,3Z"/>
  <path d="M131.13,77.82c.24-1.51-.15-3.41,0-5.01-1.66.04-3.34-.06-5.01,0,1.32-.59,2.15-1.46,4-1.01-2.19-2.93-4.89-.99-6.66,1.49-.03.04-.33-.62-.33,0v.52c-1.21.65-4.51,2.81-5.47,4.53l-1-1c3.35-3.06,6.05-8.85,10.9-8.52,6.63.44,5.04,4.85,3.57,8.99Z"/>
  <path d="M126.13,72.82c-1.13.43-2.72.85-3,1v-1c1-.03,1.97-.03,3,0Z"/>
  <path d="M117.13,76.82c-.15.09.12.68,0,1-1.02.57-1.59,1.34-3,.99-.02-1.82,2.56-1.6,3-1.99Z"/>
  <path d="M118.13,77.82c-1.13,2.73-1.88,7.58,1.7,8.8,4.89,1.67,2.05-1.62,3.21-2.31,1.59-.95,4.13-.52,6.09-2.5-.31.5-.21,1.63-.93,2.53-.51.63-1.12,1.03-1.72,1.37s-.29,1.25.38,1.16c5.79-.82,15.91,2.55,16.32,6.54.16,1.53-.82,1.83-1.06,2.4.78-1.91-1.36-4.97-3.48-4.98-.79,0-1.3.93-1.52.98-.32.07-.68-.05-1,0l-.5-2c-.93,1.29-2.33,2.02-3.5,3,.26-.42,1.04-2.03,1.55-3.32.23-.58-.44-1.11-.94-.74-.9.66-1.77,1.38-2.61,2.06.18-.39-.08.21-.47,0-.62,0-.47-.06-.53,0s-.05-.15-.04.48c.21.39-.35.7.04.52-.24.19-.25,1.1-.97,1.44-.37.18-.92-.09-1.37-.28-.34-.15-.48-.55-.3-.87.96-1.72,2.82-4.1,2.64-4.28-.84-.82-4.57,3.28-5.52,3.95-.91.63-2.37.42-2.44.53-.1.16.52,3.49,1.46,3.49.24,0,1.59-1.7,2.5-1.98.07-.02.59.96.87,1.02.36.07.67.27.67.63,0,.17-.02.34-.08.53-.15.48.27.95.75.81.63-.18,1.12-.61,1.78-.99-.19.22.61,1.76-.62,2.06-2.55.62-5.92-1.03-8.71-1.08-.36,0-.64-.34-.59-.7.39-2.77,1.33-5.02,2.98-7.15.32-.42.01-1.01-.52-1-6.13.14-6.63-4.48-4.55-10.12.26-.14.91.16,1,0Z"/>
  <path d="M130.13,79.82c-.27.63,1.09-2.07,1-2-.98.7-.8,1.55-1,2Z"/>
  <path d="M129.13,81.82c.11-.04,1-1.59,1-2,0,.81-.22,1.72-1,2Z"/>
  <path d="M129.13,91.82c.15-.07-.15-.85,0-1s.93.15,1,0c-.36.29-.63.71-1,1Z"/>
  <path d="M136.13,92.82c-.08.13-.96-.12-1,0,.06-.04-.12-1.17,1-1-.08.33.12.79,0,1Z"/>
  <path d="M139.13,92.82c-1.02-.12-.82.46-1,1-1.2.96-2.53,1.74-3.51,2.98-.39-.67.26-2.14.51-2.98.34-.31.68-.81,1-1,.46-.28.93-.99,1-1,1.55-.32,1.42.4,2,1Z"/>
  <path d="M126.13,93.82s-.68.03-1,0c.15-.46.9-.77,1-1-.07.04.02.67,0,1Z"/>
  <path d="M131.13,93.82c.35-.26.64-.7,1-1-.23.37-.77.64-1,1Z"/>
  <path d="M135.13,93.82c-1.41,1.31-2.48,3.95-3.01,2.49-.08-1.86,1.77-2.62,3.01-3.49-.1.29.09.69,0,1Z"/>
  <path d="M148.13,86.82c.13-.08.94-.89,1-1-.24.34-.67.71-1,1Z"/>
  <path d="M149.13,72.82c-.01-.07-.53-.47-1-1,.32.32.77.65,1,1Z"/>
  <path d="M149.13,72.82c1.8,2.67,3.01,5.04,4.01,8.49l-2-.5c.85,3.3-1.06,3.67-2.01,5.01,2.08-3.62,1.33-9.33-2-12,.49-.01.99.05,1.48,0,.47-.16.59-.53.52-.99Z"/>
  <path d="M147.13,73.82c-1.86.05-2.29-.84-3-1,1.09.35,1.44-.25,3,1Z"/>
  <path d="M147.13,70.82c-1.37-.6-5.01-1.38-6.35-1.05-1.11.27-.54,1.96-.65,2.05-.64.55-2.52-.39-3.04,2.49-.62,3.4,1.49,7.04,1.05,10.51,5.51-3.59,4.37,5.46,9.99,2-7.86,7.05-11.78-1.82-12.04-9.47-.23-6.81.67-9.93,8.55-8.52,2.2.4,1.96,1.61,2.49,1.98Z"/>
  <path d="M144.13,72.82c-.93-.63-3.85.82-4-1,1.79-.58,2.84.63,4,1Z"/>
  <path d="M148.13,71.82c-.24-.27-.83-.93-1-1,.36.25.68.68,1,1Z"/>
  <path d="M156.13,92.83l-5.31,8.68-9.69,6.3c.78-4.01,6.38-4.54,8.68-7.3,1.86-2.22,2.12-7.74,6.31-7.68Z"/>
  <path d="M107.11,76.82c2.07,1.75.29,10.17.51,12.5.18,1.86,2.35,6.93,2.5,9.48-3.47.77-1.55-3.32-2.04-5.44-1.41-6.07-.49-5.58-.91-11.04-.11-1.45-3.49-8.39-.07-5.5Z"/>
  <path d="M108.13,70.83c.21.2-2.42,4.74-3.48,4.77-.36.01-5.48-2.69-6.52-3.29,2.34-.8,4.57,1.16,7.35.53.62-.14.84-3.74,2.65-2.01Z"/>
  <path d="M164.52,78.5c.39.55,2.02-.22,1.6,1.31-1.58-.02-2.89.3-4.07,1.44-1.82,1.76-.98,4.88-2.92,5.57.65-5.11,3.96-7.44,2-12.99,2.05.69,2.21,3.04,3.38,4.68Z"/>
  <path d="M115.12,101.81v4.01c3.54-.95,8.76-1.68,11,1.99-2.8.65-5.25-1.4-7.63-1.68-4.08-.48-3.62,3.47-5.35-3.83l1.98-.49Z"/>
  <path d="M127.12,60.82c.75,3.02-1.5,1.54-2.27,2.2-1.51,1.27-1.32,2.68-2.71,2.79-.63-3.2,2.12-4.86,4.98-4.99Z"/>
  <path d="M145.12,59.82c.1.09.35,2.14-.48,1.97-1.82-2.56-5.3,1.22-5.51,1.02-2.13-2.1,5.17-3.71,5.98-2.99Z"/>
  <rect x="108.13" y="117.83" width="4.99" height=".98"/>
  <path d="M89.12,109.82c.97.41-4.78,3.24-4.98,2.99-1.76-2.13,3.21-2.58,4.98-2.99Z"/>
  <path class="cls-1" d="M164.13,135.82c-4.25-.68-6.46-.94-4.55-6.05,1.18-3.17,5.15-4.21,4.55-7.94-.45-.44-13.49,3.01-11.51-1.01,4.59-3.9,6.13-4.07,12.05-3.93,6.82.17,11.43,2.01,17.46,4.94l-8.33,4.15c-3.07,1.86-4.16,5.75-8.67,4.84-.73,2.43,1.14,1.94,1.22,2.07,1.73,2.93.84,3.41-2.22,2.92Z"/>
  <path class="cls-1" d="M167.13,110.82c-1.01.72-1.91.93-2,1,.48-.76,1.16-.92,2-1Z"/>
  <path class="cls-1" d="M177.13,142.82c-.47-.47.93-1.59,1-.5.02.35-.78.72-1,.5Z"/>
  <path class="cls-1" d="M124.63,95.82c.65.33.65.67,0,1v-1Z"/>
</svg>