<?xml version="1.0" encoding="UTF-8"?>
<svg id="Layer_1" data-name="Layer 1" xmlns="http://www.w3.org/2000/svg" viewBox="0 0 223.2 186.48">
  <defs>
    <style>
      .cls-1 {
        fill: #fefefe;
      }
    </style>
  </defs>
  <path d="M152.29,84.41c-.28-.95.05-1.28,1-1,1.4,1.42.81,1.96-1,1Z"/>
  <path d="M70.29,28.41c-1.25.86-1.79.39-1-1,1.28-1.19,1.75-.6,1,1Z"/>
  <path d="M124.29,166.41c-1.36,1.22-4.12-.5-3-2,1.62-2.87,5.66-1.05,3,2Z"/>
  <path d="M152.29,84.41c6.26,1.49,4.34,8.29-3,5-3.11-2.07-.13-6.75,3-5Z"/>
  <path d="M59.29,144.41l-1,1c-1.66,3.05-6.21-.33-4-3l1-2c1.61-1.79,4.92,2.19,4,4Z"/>
  <path d="M79.29,86.41c-1.68,2.16-2.46,1.7-2-1,.98-.94,2.34-.34,2,1Z"/>
  <path d="M148.29,30.41c.34-.87.67-.87,1,0,3.68,2.21-2.73,4.31-1,0Z"/>
  <path d="M58.29,83.41c-1.06.14-1.06.48,0,1-.06,2.97-4.86,3.65-6,1l-1-1c-.89-4.2,7.56-5.99,7-1Z"/>
  <path d="M81.29,87.41c-1.15,1.7-2.07,1.11-2-1,1.05-1.04,2.42-.51,2,1Z"/>
  <path d="M189.29,31.41c4.73-.5,3.74,5.5.49,7.23-.52.28-2.63-2.15-2.49-3.23-2.85-1.4-.81-5.1,2-4Z"/>
  <path d="M83.29,88.41c-1.38,1.48-2.21,1.03-2-1,.79-1.42,2.41-.63,2,1Z"/>
  <path d="M83.29,82.41c1.6.65,1.93,1.31,1,2v1c.64.33.64.66,0,1-1.69.58-4.01-.02-6.96-1.81l-.04.81c-2.06,1.62-5.1,1.9-9.11.84-4.45.65-7.75.04-9.89-1.84-.82-.33-.82-.67,0-1,1.94-2.6,6.65-2.57,9.11-.98-1.04-1.43-.6-1.93.87-2.74,1.56-.86,11.8.53,14.07,1.19.43.13.71.76.95,1.53Z"/>
  <path d="M76.29,143.41c-2.19-1.95.87-4.21,3-4,2.3,1.44-.42,6.24-3,4Z"/>
  <path d="M85.29,88.41v1c-1.5,2.33-2.53,1.7-2-1,.06-1.73,1.07-1.27,2,0Z"/>
  <path d="M74.29,140.41c-1.19-1.13-.58-1.62,1-1,1.27,1.46.73,1.98-1,1Z"/>
  <path d="M129.29,96.41c-.27.86-.61.84-1,0l-1-1-1-1c-.38-.47-.71-.47-1,0-3.27,1.13-12.29-4.62-5-6,3.48-1.61,11.56,4.53,9,8Z"/>
  <path d="M162.29,34.41c.83,2.75-1.32,3.19-3,1,.15-2.98,1.28-3.47,3-1Z"/>
  <path d="M86.29,90.41c-1.39,1.38-1.98.74-1-1h1c.66.29.64.62,0,1Z"/>
  <path d="M77.29,137.41c2.16,1.78-1.19,5.26-2,2-1.04-1.15.67-2.51,2-2Z"/>
  <path d="M89.29,89.41c.9.41,1.68,1.03,2,2l3.03.59c2.71,3.65,5.61,6.64,8.71,8.99,1.09-4.94,3.18-7.47,6.26-7.58,3.43,1.58,2.13,7.35.22,9.93,1.47,2.95,2.27,6.22,2.21,9.51,4.75,2.21,3.44,12.14-.56,12.36-2.57.14-4.91-5.48-2.82-7.55-4.42-8.84-12.16-17.37-20.47-22.82l.43-2.43c.49-.31.49-.65,0-1l-1-1c-.67-.27-.65-.6,0-1-.32-1.45.35-1.45,2,0Z"/>
  <path d="M190.29,150.41c.4.31.39.64,0,1l-1,1c-.39.89-1.44.7-2,0-1.09-1.77,1.83-3.33,3-2Z"/>
  <path d="M149.29,89.41c1.85.49,2.28,5.35,1.58,6.66-1.64,3.09-1.2-.5-.75,1.1,1.27,4.51-2.6,1.88-4.83.24-2.79-2.36.48-9.51,4-8Z"/>
  <path d="M187.29,152.41c.91.24.89.58,0,1-1.14.77-1.48,1.44-1,2-.9,1.72-2.56,2.72-5,3-7.49,3.73,1.16-10.59,5-8,2.46-.33,2.79.34,1,2Z"/>
  <path d="M73.29,138.41c-.87-.32-.87-.65,0-1h1c1.17,1.15.55,1.7-1,1Z"/>
  <path d="M195.29,89.41c.68.66.72,1.37,0,2-2.12,1.78-8.8-9.39-8.44-9.99,3.3-5.52,7.65,4.54,8.44,7.99Z"/>
  <path d="M87.29,91.41c-.94.28-1.28-.06-1-1,.29-.65.62-.64,1,0v1Z"/>
  <path d="M116.29,150.41c8.34-2.05,7.82,12.64,1,3-.33-.48-.66-.48-1,0-1.54.74-2.1-.81-1-2l1-1Z"/>
  <path d="M88.29,92.41c-.95.28-1.28-.05-1-1,.32-.4.65-.39,1,0,.55.28.52.62,0,1Z"/>
  <path d="M195.29,89.41l-2.72-6.47c-3.39-3.49-3.21-5.61.54-6.34,3.05,1.99,4.64,5.69,5.75,9.51.75,2.58,2.25,17.04,2.01,18.03-.28,1.04-1.47,1.47-3.58,1.27-.32.65-.65.64-1,0l-1-2c-3.41-1.23-2.94-10.35,0-12,.7-.74.56-1.18,0-2Z"/>
  <path d="M54.29,140.41c.88.44.66,1.22,0,2-3.02,3.32-6.23-4.12-2-5,.99-.37,1.66.63,2,3Z"/>
  <path d="M159.29,35.41c5.96,2.02-2.46,8.51-4,2-.72-2.99,2.03-4.39,4-2Z"/>
  <path d="M74.29,137.41v-1h1c.99,1.53.48,2.04-1,1Z"/>
  <path d="M71.29,137.41l2,1c-1.06,4.4-10.99,4.13-11-1,2.78-2.13,1.93,1.32,1.57-.18-.05-.23.15-.51.43-.82-1.17-2.09,4.56-.37,6.37.2.27.08.46.41.63.8Z"/>
  <path d="M93.29,77.41c8,4.79-3.93,12.42-1,0,.33-.87.66-.87,1,0Z"/>
  <path d="M126.29,95.41c-1.46,1.29-2,.7-1-1,.34-.63.67-.63,1,0v1Z"/>
  <path d="M62.29,137.41c-1.07,1.11-1.55.48-1-1,1.23-.9,1.7-.37,1,1Z"/>
  <path d="M187.29,38.41c-.33.82-.67.82-1,0-2.4-1.71-1.89-3.25,1-3,2.17,1.4,2.17,2.4,0,3Z"/>
  <path d="M128.29,96.41c1.48,1.31,2.35,3.92,3,6,1.13.79,1.76,1.63,2,3l1,1,1,1c3.42,1.02-.57,3.01-2.53,2.72-2.63-.39-10.04-12.54-6.47-14.72h1l1,1Z"/>
  <path d="M191.29,75.41c2.41,1.74-1.37,5.33-3,2-2.44-2.48.96-4.78,3-2Z"/>
  <path d="M161.29,75.41c.89.28.88.61,0,1-.22,3.59-4.41,7.32-8,7-3.78-3.52,3.62-11.56,8-8Z"/>
  <path d="M130.29,98.41c-.96.24-1.31-1.08-1-2,2.74-.28,3.05.17,1,2Z"/>
  <path d="M145.29,97.41l3.36,2.14c2.47-2.14,3.76,1.71,1.46,3.44,2.61,7.11,1.74,7.8-4.82,7.42-.61.59-1.29.37-2,0-6.53-2-3.12-12.06,2-13Z"/>
  <path d="M51.29,147.41c-3.03,1.22-5.08-4.29-3-6,2.5-1.62,5.27,4.26,3,6Z"/>
  <path d="M131.29,100.41c-.97.02-1.51-1.09-1-2,2.03-.23,2.46.6,1,2Z"/>
  <path d="M155.29,37.41c4.17,2.43-1.38,9.33-3,2-1.16-2.78.82-4.08,3-2Z"/>
  <path d="M76.29,26.41c-1.98.31-3.31.64-4,1-2.9.62-3.31-4.1-1.53-6.19,4.62-5.41,12.18,2.02,5.53,5.19Z"/>
  <path d="M79.29,136.41c-.33,1.8-.83,2.64-2,1-1.74.09-1.19-.98,0-2,.75-1.79,1.42-2.13,2-1,.72.63.73,1.34,0,2Z"/>
  <path d="M72.29,141.41c.79,4.51-8.21,3.97-10.89,2.5-3.71-2.03-6.64-6.07-4.11-9.5l1.37-.08c3.65,6.3,7.27,7.34,13.63,7.08Z"/>
  <path d="M47.29,134.41c-1.35,7.9.63,15.46,9.02,18.29,3.18,4.28-7.17.62-9.38-1.24-3.97-3.35-5.54-13.07-1.64-17.04.73-.55,1.5-.81,2,0Z"/>
  <path d="M163.29,74.41v1c-.68.31-1.38.56-2,0-.89-.29-.87-.62,0-1,.22-2.69.93-2.37,2,0Z"/>
  <path d="M118.29,141.41c3.94-3.3,5.46,4.58,2,4.53-1.2-.02-5.49-3.88-3-4.53.29-.64.62-.63,1,0Z"/>
  <path d="M185.29,44.41c-.34,2.62-1,2.35-2,0l-1-1c-3.45.34-5.32-2.18-3-5,2.74-3.43,6.71,3.4,6,6Z"/>
  <path d="M133.29,103.41c-.58.44-1.24.11-2-1-.54-.95-.54-1.61,0-2,2.74-1.34,3.83.65,2,3Z"/>
  <path d="M152.29,39.41c1.76,1.61,5.26,8.08.44,8.82-2.45.38-2.47-5.7-2.44-7.82-.6-2.8.21-3.2,2-1Z"/>
  <path d="M57.29,104.41c-1.78-5.85,11.59-4.52,15.74-3.44,9.83,2.56,26.62,18.59,32.5,27.03,7.82-6.63,10.91,9.01,1.15,6.88-1.69,10.03-12.57,2.43-5.39-2.47,1.06-2.17.06-4.83-3-8l-1-1c-.38-.47-.72-.47-1,0l-2.3.62-12.86-8.92c.57-1.29.15-2.05-.84-2.7,5.76,4.53-4.46,5.8-3.5,0-1.47,3.27-13.75,3.13-15.5,0-3.91-.44-1.28-4.99,2.06-2.78,6.61-.84,12.26.08,16.94,2.78-2.24-1.17-2.91-2.17-2-3,.11-1.68,3.52,1.18,3.35,1.05-7.15-5.59-14.1-8.51-23.22-5.09l-1.14-.96Z"/>
  <path d="M55.29,140.41c-.28.86-.61.84-1,0-1.17-2.1-1.9-7.72,1-7,1.31,1.61,2.57,6.69,0,7Z"/>
  <path d="M149.29,41.41c-1.33-1.41-.77-1.92,1-1,.86,1.4.43,1.89-1,1Z"/>
  <path d="M163.29,68.41c1.76.45,5.21,2.25,3.78,4.79,4.91.36,9.57,1.64,13.97,3.84,3.24-1.1,5.65-.98,7.25.38,1.72,1.48,2.03,2.68-.37,2.54.74,1.4.46,1.78-.85,2-3.26.55-26.96-.31-26.33-4.12.08-.49.3-.96.55-1.42.29-.58.96-.91,2-1,.41-.54.41-.88,0-1-2.88-1.38-4.14-5.95,0-6Z"/>
  <path d="M193.29,151.41c-.65,1.59-2.58,3.3-4,2-.86-.26-.84-.59,0-1l1-1,1-1,1-1c2.27-2.38,2.77-.52,1,2Z"/>
  <path d="M139.29,109.41c-1.96.48-4.91.52-4-2l-1-1-1-1c-.67-.97-.67-1.63,0-2,2.63-1.76,7.13,3.26,6,6Z"/>
  <path d="M196.29,105.41h1c6.27-3.06,3.11,5.89-2,4l-1-2c-3.22-.81-2.35-5.16,1-4l1,2Z"/>
  <path d="M14.29,132.41c3.8,2.35-1.13,8.82-3,4-.74-1.11-1.49-2.65,0-3,1.1-1.44,2.1-1.78,3-1Z"/>
  <path d="M57.29,71.41c-2.26-1.97-.62-3.91,2-3,.97,2.35,1.12,3.9-2,3Z"/>
  <path d="M57.29,104.41c.84,1.59-.72,2.19-2,1-.59-2.7.14-2.98,2-1Z"/>
  <path d="M78.29,109.41c-1.66.71-15.73.62-16.24-.34-.32-.59-.07-1.33.26-1.89-.89,1.73-2.03.87-3.01-.77,3.64-4.4,16.85-2.85,19,3Z"/>
  <path d="M164.29,159.41c3.56-4.76,5.58,4.44,0,3l-1,1c-1.07.85-1.73.85-2,0-1.15-1.28,1.44-3.5,3-4Z"/>
  <path d="M55.29,105.41c0,1.83-3.84,3.74-5,2,.21-3.14,2.92-4.37,5-2Z"/>
  <path d="M149.29,41.41c.34.58,2.92,5.52,3,5.88.32,1.31.95,4.37.8,5.55-.11.85-1.08,1.44-1.92,1.85.98,2.17.69,3.75-.88,4.73-2.61-.23-4.4-3.06-5.37-8.5-6.43-3.53-10.79-2.31-17.69.29-.46,5.44-4.7,8.83-10.1,10.17l-.85-3.95-1-1c-.11-4.6,7.82-8.9,11.99-10.7,5.44-2.35,12.49-3.91,17.49-1.3.12.07-2.35.99-.48-1,1.29-3.23,2.95-3.9,5-2Z"/>
  <path d="M59.29,68.41c-.29-.96.04-1.29,1-1,1.11,1.14.5,1.65-1,1Z"/>
  <path d="M14.29,132.41c-1.35-1.03-.69-2.29,1-2,2.37,1.58,1.84,2.4-1,2Z"/>
  <path d="M59.29,106.41c1.41,2.65-3.48,4.48-5,2-.32-1.98,3.89-3.82,5-2Z"/>
  <path d="M60.29,67.41c-.29-.96.04-1.29,1-1,1.24,1.34.66,1.82-1,1Z"/>
  <path d="M185.29,21.41c2.2,3.42-3.06,4.52-4,1-.77-2.42.56-2.75,4-1Z"/>
  <path d="M62.29,36.41c5.04-8.56,2.01-3.45,1.89-10.48-.05-2.98,1.19-10.77,4.13-12,9.97-4.17,26.06,7.52,15.98,16.98,4.73,2.15,4.8,4.14,2.48,8.5,4.17,5.17,15.59-1.49,17.92-.9,1.28.33,2.07,4.16,4.59,3.9-1.5,2.98-4.41-3.66-6.99-2l1.51,3.97c-1.16-1.84-3.2-5.71-3.52-.98-4.22-3.56-2.5-.86-4.01,1-.94,1.15-.95-3.91-2.97-1.99-.23.22-2.25,5.78-2.01,5.99l7.99-.99c.15,3.35-2.75,4.76-4.99,6.5.23,1.16,2.58.12,3,.5.93.83-3.99,6.88.48,5.99,1.75-.35,2.32-4.39,3.55-5.46,1.85-1.59,8.2-2.22,8.78-2.72.22-.19.91-3.59,2.18-5.33,2.92-4.01,6.65-5.39,9.94-8.06,1.64-1.33,2.34-4.51,4.78-5.23,4.18-1.22,12.31-.28,16.28,1.8,4.37-13.61,18.08-13.5,30.01-10-1.07-10.32,4.52-10.42,11.99-6.01.18-2.8,1.77-8.97,4.72-9.84,3.62-1.07,6.1,2.97,10.3.85l-1.02,1.98c2.99-.84,2.31,1.28,4,2l-4-8.99c-5.74,6.99-4.18.31.52-2,.7,5.1,7.63,8.06,2.5,12.98,4.91.46,7.63,3.19,8.59,7.97.52,2.58-.37,4.26-.18,5.58.17,1.18,2.57,2.58,3.17,4.42,1.7,5.21-1.69,11.31-7.58,11.06,6.04,10.19,9.5,25.42-3.99,30.48,6.69,2.6,10.33,2.63,12.71,10.29,2.25,7.27,1.64,11.98-1.88,18.54-1.48,2.76-9.5,11.62-9.7,12.38-.67,2.57,2.36,4.39,2.82,6.84.35,1.83.38,8.12-.14,9.78-.63,2.05-2.78,2-3.52,2.98-2.38,3.19-4.47,12.71-7.87,16.63-1.09,1.25-6.07,4.4-7.76,5.24-12.18,6.09-43.74,15.88-56.94,13.59-3.78-.66-9.7-4.82-10.29-4.82-1.35,0-2.54,1.54-3.9,1.61-2.16.1-5.08-1.15-7.54-.54l5.99,1.98-7.99.02.53,1.97c-5.37-.97-12.71-2.63-18.06-2-4.2.5-5.82,3.04-9.47,4.01,3.64-5.83,10.43-5.18,16.5-4.99,6.84.21,3.08-.46,5.18-.98,3.09-.77,8.89-.5,12.32-1.02-2.14-3.73-8.45,1.21-12,0-.17-1.9,2.41-.59,3.88-1.13.23-.08.07-.84.11-.86-1.14-.01-4.21.74-3.99-.99l6.99-1.51c-2.43-2.2-3.38-5.16-6.99-3.49v-4.02s-2.01.5-2.01.5c1.08-3.25,4.47-4.27-.5-4.37-1.07,3.89-5.92,9.72-9.47,12.4-3.96,3-8.66,4.11-12.76,7.18-2.01,1.5-4.18,5.07-5.88,6.18-4.06,2.66-14.6,6.66-19.38,7.12,1.19-1.87,6.04-3.23,9-4l2-1-2,1c-1.97.88-3.31.88-4,0-.26-5.44,11.1-5.96,6-1,.37-2.11,2.35-3.61,5.94-4.5,1.13-2.39,3.86-5.12,6.41-7.1,10.17-4.78,17.02-11.43,20.56-19.96-.26-2.88-3-8.53-6.6-8.55-3.24-5.43-4.93-3.69-5.06,5.23,8.85,6.51,6.18,9.92-3.01,9.66-7.86,6-37.06,6.18-42.73-1.14-2.61-3.37-4.12-11,.49-12.63q.98,4.45,0,0l-1.36-1.45c-1.67,2.39-3.81,4.12-5.29.66-3.45,1.15-3.72-1.57-2.35-4.21h0c-.05,3.65-3.03,9.04-6,5q0-1.52,0,0c.22,2.27-.83,4.64-3.17,7.11-5.15,10.79,14.45,32.23,25.98,31.26,4.19-.45,7.59.1,10.19,1.63-1.66,5.29-16.91,2.09-21.24,0-3.92-1.89-15.77-13.76-17.87-17.59-7.42-13.5.27-26.8,13.45-32.58,2.52-1.11,8.98-3.11,10.66-.84-.71,2.07-2.87,3.49-6.48,4.27l.48.73c.43.33.43.67,0,1q-.3.39,0,0c.45-.23.45-.77,0-1,1.15-1.9,6.78-4.64,9-3,2.26.46,4.26-.54,6-3,.15-.57.34-.99,1-1,1.54-1.9,3.65-1.42,2,1-2.37,3.82-3.07,7.24-3.11,11.64l-1.89,1.36c-1.14,1.22-1.23.84-1.51-.59l.51-6.41c-.75-.51-1.24-.49-2,0-4.17,8.38-6.07,13.99,3.98,18.25,6.52,2.76,20.31,2.46,27.02-2.25q.3-.39,0,0c-4.04,3.51-13.28,4.62-18.31,3.35-1.75-.44-10.51-5.01-6.69-6.35l2.42-.4c4.68,2.96,13.68,3.38,18.78,1.55,2.69-.96,9.85-6.86,6.8-9.16-1.72-.43-1.29-2.15,0-3,.6-.91.67-1.13,0-2-.53-.61-1.2-.27-2,1-.32,1.51-.84,2.18-2,1h-1l-1,1c-.58.85-1.3.77-2,0,1.04-.93-5.05-1.87-7-1-3.12.86-3.4-4.14-2.98-6.81l-1.02-1.19c-.82-.93-1.82-1.6-3-2-2.34-1.23,1.64-2.77,1.5-2.62-.8.9-3.06,2.33-3.5.62-.87-.67-1.09-.61-2,0-.68,1.09-2.76,1.63-3,0-.24-.88-.26-2.01.46-2.38,9.54-4.88,22.14-7.72,30.6.76,4.87,5.21,9.98,10.2,15.31,14.96,4.78-1.27,5.26,3.07,3.63,6.66v2c1.98-.24-1.07,3.19-.99,3,.56-1.38,1.75-3.16,2.99-2q.71,5.38,0,0c-.62-.18-1.09-.34-1.08-.4.54-2.72,3.1-1.83.16-.18-.21.12-.62-.1-1.08-.42v-2l.89-2.85c-.97-3.11-.68-3.82.89-2.14,2.72-2.65,3.43-.51,3.85,2.67-.16,6.11.3,11.89,1.37,17.33.33,1.18.83,1.67,2,2l1,1,1,1c.61.3.59.63,0,1l-6,1,6-1c.51-.44.51-.77,0-1l-1-1-1-1c-1.11-.23-1.79-.88-2-2-1.93-1.82-1.44-2.92,1-2l1,1h1l1.37-.66c-5.67-4.9-5.86-8.16-.57-9.76,1.48-8.61,3.81-17.32,8.34-24.87,1.73-2.88,4.34-7.23,7.86-5.71l1,1,.7,2.13c-3.05,3.2-6.4,6.74-7.79,11.04-.7,2.16-1,6.55-.35,8.27.23,1.64-.93,2.02-2.56,1.56h-1c-2.47-.4-.04,2.2,1.52,3.39,3.51,2.66,4.97,4.56-1.4,4.03l-1.12,1.58-1,1c.07,4.56,1.96,9.28,6.06,11.64l-.06,1.36c-1.69.53,1.22,3.34,3,2-.9-4.75,5.18-2.52,3.19,1.83,8.77,3.08,20.26.95,27.39-5.15l2.42.32h1c1.75-1.34,2.75-1.34,3,0-2.52,2.51-1.85,2.51,2,0l1-1c1-1.45,2.12-1.12,3.36.99l4.89-1.87c3.05-2.06,5.97-3.1,8.75-3.13l7-3c1.94-1.03,3.61-2.36,5-4,.6-.79.27-1.56-.62-2.32,3.69-3.92,4.82-6.53,4.33-11.47,2.46-.95,3.28-2.77,2.47-5.44,2.15-.33,3.75-1.58,4.82-3.76-.99,1.97-3.65,5.53-5.23,3.23-3.96-5.76,8.22-11.8,5.23-3.23,2.33-5.79-4.37-4.98-5.44-.62-3.16-2.69-5.41-4.12-9.61-2.66l-1.95-1.72c-1.97-.75-3.71-1.62-5.24-2.61l7.54-6.57c.58-3.13,1.81-4.4,3.7-3.81l1,2c8.61-.53,4.33,2.48-.6,5.66l-1.4,2.34c.76.43,1.26.46,2,0,3.58-1.02,5.9-2.66,5.25-6.5,6.34-4.73,11.32-9.04,11.74-17.62,4.16-1.76.43-12.38-2.51-14.33-.85-.57-7.18-2.72-7.35-2.37-2.94,5.82-4.19,5.02-6.22-1.03-1.58-.67-2.93-1.67-3.92-3.15l-1.25-2.13c2.51-7.18,5.42-16.41,1.75-23.5-1.25-2.69,6.78-2.76,7.77-2.12,2.22,1.44,3.01,12.01-1.27,12.75q-.3.39,0,0c5.26-1.94,1.48,9.1-2,4q-.39-.3,0,0c2.56-.4,3.56,2.03,3.02,7.3,13.84,3.07,10.99-26.84-.91-23.03-.77-1.65-1.7-1.65-2.32.08l-1.57-1.19c-2.39,2.23-12.12,1.42-9.22-3.16-.36-2.08-.22-2.54.44-1.4-2.26-2.17-3.75-5.88.56-4.6.15,1.04.48,1.04,1,0,7.98,0,8.77,5.95,0,7,4.04-1.55,11.47-4.16,14,0l-1.87-1.38,1-7.94c-1.42-4.59.21-6.81,4.88-6.68q3.05,3.75,0,0c-1.84.92-4.34.56-7.49-1.09-2.62.68-4.8.71-6.51.09-2.94.43-3.51-2.61-1-4,1.54-2.44,6.07-1.61,7.57.1l1.88-1.05c12.48,6.04,10.43-.13,1.19-4.46l-.64-2.6c5.03,2.9-.67,11.36-4.41,7.57-.4-.41,1.79-11.23,4.41-7.57-1.86.6-3.34.44-4.45-.49-2.51,2.06-3.73,4.48-3.66,7.28l-1.89,1.22c-1.73,2.89-6.1-.02-5-3-1.25-.44-2.57-.53-3.96-.26-4.16-2.48-5.47.23-.04,1.26,4.48,2.23,1.34,3.08-2,3v1c1.55,1.13,1.78,3.09.7,5.87.92,2.8.69,4.84-.7,6.13-1.36,3.83-4.68,1.79-4.92-1.86l-10.56-.31-1.52-1.83c-.74-1.67-.44-2.49,1.27-2.83,21.61,1.58-2.64-9.86-9.51-2.98-1.33,1.13-2.95,2.2-4.76,1.81-.28-.74-.61-.72-1,0,1.1,2.17.51,4.47-1.79,6.91.94,2.82,1.19,5.17-2.21,5.09-1.64.19-2.51-.67-2.62-2.57-8.88-6.1-24.91,6.17-28.88,15.05l-2.51.52c-.7-.85-2.02-.68-3.96.5l-7.84,8.65-2.2-1.15-2.11-.77c-3.82-.88-9.7-2.29-2.28-5.22-3.03-1.64-3.23-4.32-.21-5.96-4.17.44-7.6-1.08-5.54-5.59-3.53-1.44-3.78-5.79.14-4.46,1.51.34,2.51,1.01,3,2,1.43-.28,1.77-.61,1-1-1.19.29-2.53-.04-4-1-1.88-.7-3.85-1.89-5.92-3.58-.54.6-1.2,1.31-2.02,1.37-5.47.42-9.7,1.3-14.63,3.94-.74-1.19-1.88-1.44-3.43-.73l-2,1,2-1c7.51-2.14,4.07,3.01.59,6.39,1.33,2.15,2.16,6.29-.3,7.77l1.35.84c.4,2.5,1.18,4.84,2.35,7-4.2,1.45-11.02,5.43-11.04,10.35.98-2.53,2.33-3.64,4.04-3.35,7.29.35,9.29,2.02,6,5l-1.72,1.55c-4.78.41-9.25,2.09-13.39,5.04,1.41-.46,2.31.06,3.11,1.4l1,1-.36,2.18c-15.08,5.64-33.26,12.85-37.37,30.36l-2.27,1.46c-.85.4-1.18,1.4-1,3l1,1c.98.37.98,1.7,0,4,.19.91.52,1.58,1,2,1.58,1.16-.35,3.33-2,4-1.16.6-1.37.05-1.46-1.14l1.46,4.14,1.7,2.08c-4.58,21.41,16.05,45.54,37.66,44.86l.65,1.06c-8.41.81-17.01-.49-23.94-6.56-3.05-2.67-13.44-14.51-15.11-17.9-.64-1.31-.65-3.9-1.06-4.43-.23-.3-3.8,1.67-4.83-4.67-1.45-8.9,1.47-15.03,2.86-23.02.66-3.77-.47-6.86.86-11.14,3.45-11.11,17.42-20.1,25.22-28.28q1.85-5.59,0,0c-3.26-2.75-1.55-7.69-2.09-11.41-1.36-9.47-13.39-13.93-20.91-8.08l7.99,3-4.4,7.6c-2.14,1.96-4.71-.55-5.46-.04-.66.45-2.52,6.81-7.2,3.5s1.74-8.94,2.53-10.6c.92-1.92.38-4.31,1.64-6.36.71-1.16,6.16-5.05,7.61-5.39,14.24-3.31,25.36,9.75,26.79,22.78,1.34-2.37,7.06-3.36,8.02-4.98s.4-5.6.92-8.08,1.91-3.46,2.56-4.94q1.08.33,0,0c.59-1.34,1.35-2.34,1-4h-4.49c-2.6-5.67,5.67-2.68,7.49-5.99l-7-2c2.08-.23,6.91.26,7.99-2-1.98-.6-7.1,1.28-7.99-1,3.45-.59,6.82-1.65,9.5-4.01l-2.52-1.01c-.16-.1.72-1.57,1.01-1.99-1.28.52-3.8.2-5.27,1.03-.99.56-.67,1.88-.75,1.94-1.68,1.12-2.47-.41-.97-1.96-2.39-1.67-5.34.67-4.02,3.99l-1.49-1.99-3.01,3.99-.98-3.99-6.5,5.99c.73-4.09,5.34-6.49,5-11,1.91-.73,3.21,1.8,3.99,2q-2.45.67,0,0c3.02.79,14.82-.74,16.76-3.27.36-.47.43-2.35,1.24-3.73,4.47-2.7,9.18-4.41,14.12-5.14l-1.12-1.86c-1.07-.34-2.07-.67-3-1-.91-.24-.89-.57,0-1,.53-.51,1.86-.84,4-1,6.78-5.65-2.3-10.35-6.69-3.67l-1.31-.33c-2.25-.44.74-5.07.67-4.8-2.44,4.97-4.67,9.57,1.33,11.8,4.48,1.65,2.44,3.29-1.64,3.93l-6.36,3.07Z"/>
  <path d="M89.29,43.41c-1.33-1.31-.79-1.44,1-1,1.3,1.28.75,1.5-1,1Z"/>
  <path d="M50.29,107.41c-.59,2.6-6.54,6.47-9,5-1.17-3.23,7.01-8.04,9-5Z"/>
  <path d="M195.29,109.41c6.38-1.99,5.51,3.82-.31,3.87-.23,0-.46-.38-.69-.87l-1-2c-2.4-1.73-1.9-3.28,1-3l1,2Z"/>
  <path d="M163.29,68.41c-2.39-1.71-1.89-3.24,1-3,1.03.69.66,3.65-1,3Z"/>
  <path d="M144.29,42.41c.9.18.86.52,0,1-5.49,3.33-3.5-6.34,0-1Z"/>
  <path d="M47.29,129.41c1.95,2.07-1.12,3.3-3,2-1.47-1.8,1.63-3.63,3-2Z"/>
  <path d="M182.29,43.41l1,1,.57,1.18c-4.88,5.48-7.87,9.15-9.42,16.41l-1.59.49c-.74,7.45-4.74,12.35-8.28,4.58,3.76-6.79,7.66-13.34,11.71-19.66-1.93-3.36,3.37-7.45,6-4Z"/>
  <path d="M117.29,153.41c2.21,2.41,4.78,4.37,7.72,5.88.44,10.09-11.07-.64-8.72-5.88.33-.63.67-.63,1,0Z"/>
  <path d="M54.29,108.41c.55,2.68-.16,2.96-2,1-.54-1.79.9-2.45,2-1Z"/>
  <path d="M76.29,143.41c1.8,2.09.33,3.44-2,2-1.57-2.42-.54-3.28,2-2Z"/>
  <path d="M47.29,129.41c-.3-.96.04-1.29,1-1,1.05,1.45.56,2-1,1Z"/>
  <path d="M43.29,128.41c.87,1.98-.5,2.56-2,1-.37-2.69.07-2.92,2-1Z"/>
  <path d="M82.29,67.41c-3.38-.89-1.86-3.97,1-2,3.42.57,2.03,3.91-1,2Z"/>
  <path d="M52.29,109.41c1.46,2.61-3.18,5.56-5,3-1.32-1.93,3.52-4.76,5-3Z"/>
  <path d="M143.29,110.41c1,.12,1.66.45,2,1,1,.44,1.34.44,1,0,6.82-5.03,9.22,5.81,1.27,1.58-.12-.07,1.9.14,1.73,1.42-2.23,2.96-11.84-1.24-10-5,.92-1.44,2.26-1.11,4,1Z"/>
  <path d="M75.29,29.41c-.71,2.97-2.8,3.2-3,0,.58-.78,2.18-.75,3,0Z"/>
  <path d="M191.29,28.41c5.15.5,2.28,7.06-2,3-2.82-1.65-.83-4.72,2-3Z"/>
  <path d="M128.29,116.41c-2.56-5.56,10.2-9.41,11.08-5.94.52,2.06-7.49,8.46-10.08,6.94l-1-1Z"/>
  <path d="M60.29,128.41c1.48,1.13,1.38,6.13,1,8-1.42-.91-2.75-1.57-4-2-1.17,1.51-1.56.6-2-1-1.11-.63-1.11-1.96,0-4l2-2c1.47-1.2,3.57-1.14,3,1Z"/>
  <path d="M146.29,111.41h-1c-.8-.29-.78-.62,0-1,1.7-1.12,2.26-.64,1,1Z"/>
  <path d="M164.29,65.41c-2.18-1.65-1.69-2.4,1-2,1.12.61.24,1.93-1,2Z"/>
  <path d="M189.29,153.41c1.07.51.74,1.18-1,2-1.07.66-1.74.66-2,0-1.1-.38-.77-1.05,1-2,.1-.84,1.35-.66,2,0Z"/>
  <path d="M74.29,145.41c1.8,5.26-16.78,5.98-16,0l1-1c1.43-.61,3.52-.47,6.25.42,3.47-.61,6.39-.42,8.75.58Z"/>
  <path d="M192.29,149.41l-1,1h-1c-1.85-.36-1.48-.98,0-2,1.8-2.53,3.19-1.83,2,1Z"/>
  <path d="M50.29,127.41v1c-1.07,2.11-1.32,2.43-2,0-.75-1.79.99-2.74,2-1Z"/>
  <path d="M41.29,112.41c.86,1.86-.66,2.48-2,1-.73-2.6.02-2.82,2-1Z"/>
  <path d="M47.29,112.41c2.78,3.33-6.19,7.7-8,4,.13-2.37,5.99-5.22,8-4Z"/>
  <path d="M165.29,63.41c-1.91-1.94-1.69-2.39,1-2,.92.96.29,2.11-1,2Z"/>
  <path d="M71.29,64.41c-1.38,1.59-5.01-.72-3.91-3.44-11.06-8.4,9.73-19.78,16.81-14.31,3.87,3,4.91,9.72,2.02,13.89,2.92.5,5.96.91,9.11,1.21l.98,1.64c8.89,1.89,6.99,18.99-3,14-.33-.66-.66-.66-1,0l-.53,4.97c2.83,2.8,7.53,13.78-.47,9.03-.53-.89-1.02-1.53-2-2-.79-.46-1.46-.46-2,0-.22.68-.56.64-1,0l-1-1c-1.58-.27-2.52-1.07-1-2v-1c-.64-.33-.64-.66,0-1,1.49,0,1.16-.67-1-2l-2.28-1.66c-8.59.65-9.47-4.56-.52-4.74l-2.11-3.86c-2.05,4.02-4.5,5.75-7.35,5.19-2.06,4.55-10.77,4.04-7.73-.92,2-.71,3.67-2.1,5.02-4.17,3.41.08,4.2-.75,2.35-2.51-4.24,1.4-15.04,4.48-8.98-2.07l-.4-1.25c-.96-1.03.04-1.7,3-2,.91-2.48,4.74-2.68,4.98.12,3.96,1.86,8.98,4.03,13.02,2.88,1.24.72,2.01,1.29,1.57,2.62,1.53-4.21,4.9-2.3,6.06,1.33l1.11-2.73c-2.9-.51-5.48-1.58-7.73-3.23-5.5,1.66-9.5,1.33-12-1,.37-6.04,3.38-1.02.69-.97-.49-.71-.72-.39-.69.97Z"/>
  <path d="M69.29,27.41c-3.68,1.94-4.12-4.89-1-5,2-.21,2.2,3.83,1,5Z"/>
  <path d="M37.29,114.41c0,.52-.03,1-.26,1.37-.29.48-9.78,2.82-10.74,1.63-1.9-3.97,9.98-8.62,11-3Z"/>
  <path d="M39.29,113.41c.74,1.89-.71,2.51-2,1-.87-2.61-.06-2.8,2-1Z"/>
  <path d="M101.29,132.41c-3.53,1.27-5.76-3.81-3-6,2.37.06,5.07,4.1,3,6Z"/>
  <path d="M175.29,48.41c-.43-.87-.05-1.17,1-1,.74,1.39.3,1.86-1,1Z"/>
  <path d="M57.29,126.41c.86.28.85.62,0,1l-2,2c-.67,3.11-1.67,5.77-3,8-.62.58-1.61,1.03-2.09.52-1.13-1.21,2.23-7.87,3.09-9.52-.63-2.11,2.69-3.73,4-2Z"/>
  <path d="M166.29,61.41c-1.44-1.44-1.02-2.27,1-2,1.29,1,.64,1.77-1,2Z"/>
  <path d="M51.29,127.41h-1c-1.34-1.37-.79-1.83,1-1,.87.34.87.67,0,1Z"/>
  <path d="M161.29,74.41c-.67.5-2.48.93-3.21.71-3.1-.96-11.71-13.01-7.79-15.71,4.52,1.98,11.21,9.93,11,15Z"/>
  <path d="M15.29,130.41c-1.81.07-1.3-1.02,0-2,.94-1.71,1.94-2.38,3-2,2.36,1.81-.5,5.24-3,4Z"/>
  <path d="M154.29,116.41c-1.49,2.83-5.69,1.16-5-2,2.52-1.56,5.29-1.37,5,2Z"/>
  <path d="M174.29,49.41c-.29-.95.05-1.29,1-1,.98,1.22.44,1.73-1,1Z"/>
  <path d="M13.29,127.41c-.31.88-.64.87-1,0-.65-1.19-.22-1.68,1-1,.65.27.62.6,0,1Z"/>
  <path d="M194.29,120.41c-.65.52-1.29.43-2,0-.61-1.58,6.59-6.28,7.06-6.17,2.83.67-2.41,6.32-5.06,6.17Z"/>
  <path d="M179.29,25.41c5.42-3.24,3.27,5.27,0,1v-1Z"/>
  <path d="M186.29,150.41c-3.31-.91-1.24-6.79,2-6.5-.77-.1-1.91-.31-2-.88-.21-1.26-.25-15.4,0-16.2l2-1.42c2.16.73,3.08,3.13,2.74,7.21,3.16,2.22,3.2,7.54,1.46,10.63,1.23,2.84,1.18,5.48-2.19,5.16-.31,1.52-2.6,2.5-4,2Z"/>
  <path d="M53.29,125.41c.52,1.98-.37,1.93-2,1-.58-1.53.76-1.7,2-1Z"/>
  <path d="M39.29,116.41c.26,3.22-6.73,4.91-8,2,.6-1.98,6.69-3.65,8-2Z"/>
  <path d="M128.29,117.41c-.32.64-.65.64-1,0-.44-.87-.06-1.17,1-1,.6.27.58.61,0,1Z"/>
  <path d="M167.29,59.41c-1.24-1.54-.66-2.07,1-1,.83,1.25.32,1.75-1,1Z"/>
  <path d="M158.29,118.41c-2.11,2.08-4.72.97-4-2,1.58-2.66,4.65-.93,4,2Z"/>
  <path d="M116.29,57.41c.1,1.91.8,3.02,2.11,3.34.01,7.59-4.61,7.13-4.11-.34-1.2-.52-1.08-1.27,0-2,.12-.61.35-1.01,1-1,.32-.63.66-.63,1,0Z"/>
  <path d="M26.29,117.41c1.51.36,1.18,1.03-1,2-.84.93-1.7,1.79-3,2l-7,7c-.39,1.57-.85,2.38-2,1-1.12-.05-.82-1.25,0-2,.51-.46.51-.8,0-1-.11-4.3,8.62-12.98,13-9Z"/>
  <path d="M114.29,58.41c-.29.89-.62.87-1,0-.43-.87-.05-1.17,1-1v1Z"/>
  <path d="M128.29,118.41c-.6-.27-.58-.61,0-1,.32-.64.65-.64,1,0,.42.86.04,1.16-1,1Z"/>
  <path d="M18.29,126.41c-.28-.95.05-1.28,1-1,1.29,1.44.72,1.99-1,1Z"/>
  <path d="M12.29,119.41c5.33-7.65,9.62,1.58,1,3l-1-1c-1.25-.23-1.32-1.53,0-2Z"/>
  <path d="M31.29,118.41c-.53,3.32-4.23,4.92-7,3-.58-.63-.25-1.3,1-2,1.36-1.62,4.48-2.46,6-1Z"/>
  <path d="M181.29,123.41l-1.6,1.65c-3.96-1.42-11.85-3.67-10.55,2.71-1.46,5.11-2.6,10.29-1.74,15.82,1.36,2.09.96,6.99-1.49,7.67,3.05.01,1.78,8.05-1.63,8.15-1.79,1.78-3.79,3.12-6,4-.27.65-.61.63-1,0l-1.21-1.73c6.34-11.62,8.33-24.75,5.97-39.41-2.54-.56-3.79-1.85-3.76-3.87l1.84-1.59c5.2.03,21.55.5,21.16,6.59Z"/>
  <path d="M109.29,59.41c1.31-.38,2.65-.71,4-1l1,2c.6,3.24,1.15,6.67,1.63,10.31-4.29,4.51.45,11.46,4.45,15.13l-.08,2.56c-2.36.84-3.75,2.54-1.78,3.37-.38,1.86-2.01,3.61-3.54,2.57-.67,4.87-3.81,1.83-5.68-.95-2.53-1.9-1.24-4.31,3.88-7.25-5.58-7.54-9.17-15.45-7.23-24.88-1.21-4.93,3.23-8.34,3.35-1.87Z"/>
  <path d="M110.29,158.41c-.31.63-.64.62-1,0l-1-1c-5.24-4.42,5.18-3.98,2,1Z"/>
  <path d="M168.29,58.41c-2.07-1.79-1.72-2.22,1-2,1.31.91.55,2.12-1,2Z"/>
  <path d="M115.29,57.41h-1c-.28-.95.05-1.28,1-1,.59.33.59.66,0,1Z"/>
  <path d="M173.29,51.41c-2.14-1.76-1.74-2.59,1-2,1.52.72.68,2.1-1,2Z"/>
  <path d="M55.29,124.41c.62,1.73-.67,2.25-2,1-.86-.29-.85-.63,0-1,.64-.7,1.34-.72,2,0Z"/>
  <path d="M74.29,140.41c.67,2.68-.18,3.09-2,1-.31-1.51.95-2.28,2-1Z"/>
  <path d="M169.29,56.41c-1.41-1.4-.78-1.99,1-1,1.08,1.18.48,1.72-1,1Z"/>
  <path d="M50.29,124.41c-.12,1.93-5.41,5.96-7,4-1.1-2.85,4.99-6.68,7-4Z"/>
  <path d="M109.29,59.41c-2.53-2.44-2.84-4.39,1-4,3.58.69,1.62,4.97-1,4Z"/>
  <path d="M12.29,122.41c-.29.78-.62.76-1,0-.57-1.92-.56-2.38,1-1,.62.27.6.6,0,1Z"/>
  <path d="M19.29,125.41c-.85-1.08-.31-1.5,1-1,1.31,1.44.73,2-1,1Z"/>
  <path d="M170.29,55.41c-2.08-1.85-1.71-2.44,1-2,1.49.97.62,2.27-1,2Z"/>
  <path d="M24.29,121.41c1.23,2.94-.97,4.59-3,2-.36-.65-.03-1.31,1-2,1.01-.79,1.67-.79,2,0Z"/>
  <path d="M187.29,123.41c-.33,3.58-5.6,3.62-6,0,.65-1.47,5.5-1.94,6,0Z"/>
  <path d="M98.29,124.41c1.06,1.26,1.06,1.93,0,2-2.65,1.1-3.93-.83-2-3,.31-.59.64-.58,1,0l1,1Z"/>
  <path d="M72.29,28.41c.87.32.86.65,0,1-.04,2.61-.7,2.61-2,0-.86-.33-.86-.67,0-1,.36-1.85.98-1.48,2,0Z"/>
  <path d="M12.29,123.41c-.86-.25-.84-.58,0-1,.32-.61.66-.61,1,0,1.07,1.36.54,1.88-1,1Z"/>
  <path d="M172.29,52.41c-1.3-1.47-.72-2.01,1-1,.27.95-.06,1.28-1,1Z"/>
  <path d="M20.29,124.41c-.28-.95.05-1.29,1-1,1.31,1.44.73,2-1,1Z"/>
  <path d="M171.29,53.41c-.28-.95.05-1.29,1-1,.27.95-.06,1.28-1,1Z"/>
  <path d="M105.29,161.42c-.34,1.45-1.61,2.29-2.99,1.98v-1.99s2.99,0,2.99,0Z"/>
  <path class="cls-1" d="M118.29,141.41c-.06.11-.98-.1-1,0,.05,0,.04-.99.49-.98.39.22.7.61.51.98Z"/>
  <path class="cls-1" d="M54.29,142.41c-.03-.66.06-1.35,0-2,.19.17.83-.17,1,0-.11.95.38,2.06-1,2Z"/>
  <path class="cls-1" d="M73.29,137.41c-.14.1.14.95,0,1-.9.34-2.07.08-2-1,.64.02,1.38.08,2,0Z"/>
  <path class="cls-1" d="M74.29,137.41c-.29.07-.66-.04-1,0,.33-.24.55-.8,1-1-.09.03.08.98,0,1Z"/>
  <path class="cls-1" d="M75.29,136.41c-.25.12-.68-.1-1,0h1Z"/>
  <path class="cls-1" d="M35.29,135.41c.47.47-.93,1.59-1,.5-.02-.35.78-.72,1-.5Z"/>
  <path class="cls-1" d="M79.29,136.41c.19-.2-.11-1.42,0-2,2.59.99.02,1.86,0,2Z"/>
  <path class="cls-1" d="M45.29,134.41c-1.12,10.61.41,17.24,11.48,20.02l-7.44-4.56c-4.33-3.45-3.66-10.69-2.04-15.46,1.95,2.1-.24,3.13.03,5.45.1.9.93,1.34.97,1.55.86,4.26.7,3.08,3,6,.14.18-.35,1.28.66,2.05,5.2,3.97,18.52,3.83,24.34.95-4.22,8.56-32.26,5.75-35.25-1.25-2.26-5.3-.93-11.86,4.25-14.75Z"/>
  <path class="cls-1" d="M35.29,135.41s-.05-.98,0-1c.93-.42.93,1.42,0,1Z"/>
  <path class="cls-1" d="M57.29,134.41c.24,8.8,7.88,10.82,15,7,1.27-.33,1.47-.77,2-1,.32-.14.64-.73,1-1,.85-.63,1.37,1.51,2-2,.46-.43,1.64-.61,2-1-.13.92.23,2.3,0,3-2.02,2-2.1,2.95-3,4-1.08.94-1.86,1.89-2,2-2.55,2.07-12.04,1.4-15-1-.8-.65-2.93-2.94-4-4,.25-2.2-.13-4.72,0-7,.51-.04,1.59.64,2,1Z"/>
  <path class="cls-1" d="M47.29,134.41h-2c.24-.13.39-1.14,1.47-1.01.69.16.43.9.53,1.01Z"/>
  <path class="cls-1" d="M11.29,133.41c-.2.85.16,2.08,0,3-1.96-.67-2.12-4.33-1.99-6h.98c.1.96-.22,2.7,1.01,3Z"/>
  <path class="cls-1" d="M61.29,136.41c.23.33.68.74,1,1,3.67,2.91,3.01,1.33,8,1.01l-3.99,1v.98c3.51.67,4.57-.43,7-1.99.34-.22.7-.67,1-1,.05-.05,1.18.11,1-1,.64-.3,1.44-.61,2-1-.11.63.11,1.38,0,2-.64.61-1.59,1.66-2,2-.37.3-.67.78-1,1-.38.25-1.36.66-2,1-12.45,3.21-8.98-1.69-15-7-.05-1.94-.26-4.42,1.99-5-.82,4.25.34,4.6,2.01,7Z"/>
  <path class="cls-1" d="M55.29,133.41l-.99.5c.09,2.15-.19,4.37,0,6.5-.43-.39-1.98-2.76-2-3-.21-2.17,1.6-6.23,3-8-.25.5.06,2.95,0,4Z"/>
  <path class="cls-1" d="M52.29,137.41c.15.98-.26,2.25.2,3.3.58,1.31,1.51,1.33,1.8,1.7,1.97,2.54,1.57,1.74,4,3,4.33,2.25,6.3,2.55,11.56,2.06,3.6-.34,2.43-.33,4.44-2.06.92-.8,1.2-1.07,2-2,2.03-1.76,2.02-.99,3-4,.77-.76.72-2.25,1.99-2,3.39,15.06-24.11,17.47-29.99,10-.21-.26-2.93-5.67-3-6-.7-3.16,2.18-10.73,5-13,.19,1.82-1.68,4.82-1.82,6.83-.1,1.52.78,1.91.82,2.17Z"/>
  <path class="cls-1" d="M50.29,128.41c-1.57,3,.52,4.93-5.5,3.99l-.5-.99c2.02.28,2.25-1.37,3-2,.37-.2.64-.78,1-1,.37-.23,1.64.23,2,0Z"/>
  <path class="cls-1" d="M15.29,130.41c-.5.79-.66,1.39-1,2-.68.64-2.09,1.22-3,1,.05-.22,1.85-3.83,2-4,.34-.39,1.53-.57,2-1-.2.46.19,1.47,0,2Z"/>
  <path class="cls-1" d="M190.29,24.41c-.73-5.87,1.63-6.63,5-10.99-2.17-1.99-6.06,7.68-7.99,7.99-.24-16.67,5.02-10.26,12.99-5l-1.98.48c2.46,2.02-1.26,6.28-1.02,6.51,2.34,2.29,3.58-5.97,3-6.99,5.86,3.86,10.48,2.72,9.99,13-.58.63-8.03-3.39-9.72-3.77-3.32-.74-6.46-.03-10.27-1.23Z"/>
  <path class="cls-1" d="M57.29,127.41c-1.41,2.21-1.93,1.85-2,2,.52-.66,1.09-1.85,2-2Z"/>
  <path class="cls-1" d="M58.29,145.41l1-1-1,1Z"/>
  <path class="cls-1" d="M50.29,128.41c.14-.26-.14-.74,0-1,.29-.05.7-.03,1,0-.28.2-.53.7-1,1Z"/>
  <path class="cls-1" d="M13.29,129.41c-.04.09-1.74,1.24-1.97.52.73-.71.7-1.76.97-2.52.33-.1.75.12,1,0-.17.57.2,1.59,0,2Z"/>
  <path class="cls-1" d="M100.29,146.41c-1.18-1.02-.32-1.25,0-2-.04.66.06,1.35,0,2Z"/>
  <path class="cls-1" d="M102.29,147.41l-2.99,2c-.4-1.19.94-2.38.99-3l2.51-1.98c.68.77-.64,1.92-.51,2.98Z"/>
  <path class="cls-1" d="M64.29,136.41c-2.54-6.45.03-10.18,7-9.99-.3,1.93-3.53.98-5.02,2.46-3.69,3.64,1.26,8.97,5.54,6.57,1.03.64-.48,1.42-.51,1.97-1.86-.06-6.73-1.23-7-1Z"/>
  <path class="cls-1" d="M13.29,127.41c.1-.32-.13-.93,0-1,1.54.23,1.11.49,0,1Z"/>
  <path class="cls-1" d="M60.29,128.41c1.59-.12,2.72-3.61,5-2.99-2.85,2.72-5.19,8.16-1,10.99-.08.07,1.16,1.31.53,1.98-.53-.98-2.09-.69-2.53-.98-.15-.1-.93-.88-1-1-.93-1.59-1.23-6.07-1-8Z"/>
  <path class="cls-1" d="M98.29,124.41c3.17,2.65,5.12,4.34,4.99,9-.11.15-1.69-.75-1.99-1-.15-4.27-1.27-3.67-3-6-.17-.48.12-1.38,0-2Z"/>
  <path class="cls-1" d="M60.29,128.41c-.38.03-1.79-1.2-3-1,.15-.24-.15-.75,0-1,1.46-.57,3.32-.51,4.51-1.98.22,1.4-1.29,2.12-1.51,3.98Z"/>
  <path class="cls-1" d="M53.29,124.41c-.16.11.16.86,0,1-.15.12-1.17.35-2,1-.31.27-.85.72-1,1-.94.15-1.3.52-2,1-.39.27-.65.7-1,1-1.34.71-2.83,1.93-3,2-2.34,1.01-6.49,2.32-9,3-.65.18-1.41.06-2.01.49-2.05.71.79-1.82,1.04-1.96,2.36-1.26,4.85-2.43,6.96-3.54.79-.33,1.33-.68,2-1,2.58-1.26,5.48-3.29,7-4,.53-.25,2.12.16,3,0Z"/>
  <path class="cls-1" d="M98.29,124.41c-.37-.31-.65-.69-1-1,.34.33.7.64,1,1Z"/>
  <path class="cls-1" d="M77.29,135.41c.43-2.51,1.5-4.69,1-7.46-.41-2.29-2.62-2.68-2.51-4.52,3.11,2.19,4,5.23,5.49,8.5-3.54-.87-1.3.74-1.98,2.48-.06.17-1.5.66-2,1Z"/>
  <path class="cls-1" d="M55.29,124.41c-.6.11-1.71-.2-2,0,.14-.03,1.01-2.58,2,0Z"/>
  <path class="cls-1" d="M97.29,123.41c-.17-.15-.93.15-1,0l.5-.98c.62,0,.45.93.5.98Z"/>
  <path class="cls-1" d="M55.29,124.41c2.48-1.01,5.22-2.18,8-1.99-.1,1.68-2.86,1.19-4.43,2.1-.83.48-1.12,1.12-1.57,1.89-1.63.63-2.52.8-4,2-.15-1.42-.92-.89-2-1,.16-.11-.16-.88,0-1,.14-.12,1.46-.71,2-1s1.49-.79,2-1Z"/>
  <path class="cls-1" d="M62.29,179.41c-.32,1.06-1.18.86-2,1,.46-.19,1.32-.68,2-1Z"/>
  <path class="cls-1" d="M12.29,123.41c-.39.22-1.18.32-1.51.98-1.03-.59.6-1.44.51-1.98h1c-.05.33.06.68,0,1Z"/>
  <path class="cls-1" d="M22.29,121.41c-.31.16-.58,1.63-1,2-.31.35-.69.64-1,1s-.69.65-1,1-.69.64-1,1c-.84.76-2.18,1.24-3,2,2.07-4.7,2.93-4.58,7-7Z"/>
  <path class="cls-1" d="M13.29,122.41c-.03.05-.68,0-1,0,.05-.33-.05-.67,0-1,.76,0,1.09.2,1,1Z"/>
  <path class="cls-1" d="M102.29,147.41c0,.06.95-.15.99.5.22,3.14-.12,6.35,0,9.49-3.08-1.64-.9-7.22-.99-9.99Z"/>
  <path class="cls-1" d="M187.29,123.41c2.41-.31,6.49-1.32,8.5-1.01.99.15-.76,1.28-.02,1.99,1.61-1.52,2.72-.26,1.99-2.95,2.29,1.91,3.17-1.22,5.53-1.03l-6,5.98,6.51-3.97c2.82,2.3,1.4,3.82.49,5.98,1.74-4.33-3.06-4.44-5-.5l3.97-1.01c-6.69,6.35-.07,4.22,1.02,1.51-1.04,2.47-1.68,3.76-4,5.5l1.95.54c-1.02,3.59-2.37,3.32-4.95,5.46l2.97-.02c-1.77,5.19-3.55,7.67-6.98,11.51.66-1.48-.55-1.56-1-2-.65-.63-.54-1.18-2-1,.17-.97,1.39-2.18,1.01-3.49h-1.99s2.97-5.51,2.97-5.51l-2.98.99c-.44-1.64,1.74-.46,2.01-1.64.3-1.3-.16-2.96-.03-4.36l-1.98,1.01-1.01-10.01v18.5c0,.74-1.96,3.73-2,6.5-2.63,1.96-4.21,5.48-7,7.5-.04.89,1.31.47,2,.5-.19.11-.35,1.05-1.04,1.44-2.8,1.57-13.47,7.35-15.97,5.55-.27-.2,2.07-2.97,0-2.99.46-.64,2.21-2.75,2-2.99-.66-.07-1.34.06-2-.01,1.13-2.69.68-5.1,1.98-7.53-1.87,1.11-3.09-.86-1.97-2.48l1.99,1.02c-.54-2.01-.99-3.2.99-4.52l-1.98-.48c.62-4.74-1.78-11.08,1.99-14.52-4.24-1.07.24-1.35,0-4.5l-1.99-.48c5.98-6.83,8.48-4.34,16-2.51,4.32,1.05,2.67.43,6,0Z"/>
  <path class="cls-1" d="M194.29,120.41c-.66.13-.45,1.68-2,0,.63-.08,1.53.16,2,0Z"/>
  <path class="cls-1" d="M25.29,119.41c-.42.52-.58,1.49-1,2-.48.21-1.58-.22-2,0,.86-.51.46-1.19,3-2Z"/>
  <path class="cls-1" d="M128.29,118.41c-.5.27-1.27-.5-1-1,.09-.16.8.15,1,0-.15.2.16.91,0,1Z"/>
  <path class="cls-1" d="M12.29,119.41c-.12.59.1,1.37,0,2-.76,0-1.09.2-1,1-.17-1.04-1.92-3.03-.99-5,1.43-.47.87,1.59,1.99,2Z"/>
  <path class="cls-1" d="M129.29,117.41c-.09.16-.8-.15-1,0,.15-.2-.16-.91,0-1,.5-.27,1.27.5,1,1Z"/>
  <path class="cls-1" d="M205.29,29.41c.88.43,2.16.33,3.34,1.11,9.33,6.21,3.15,14.81-6.33,14.88-.31-.34.8-4.85,1-5,.29-.21,6.77,3.17,4.51-.98l-3.52.97,1.99-2.5-1.97-.98c3.05-2.09.83-4.47.98-7.51Z"/>
  <path class="cls-1" d="M190.29,150.41c-.42.18-4.06,1.11-3,2-.01-.19-1.01-1.03-1-2,.59-.44,3.46-1.93,4-2-.11.63.14,1.43,0,2Z"/>
  <path class="cls-1" d="M145.29,111.41h1c-.13,0,.87.84-1,0Z"/>
  <path class="cls-1" d="M194.29,112.41c-.05-.12-2.01-.76-1-2,.48-.59,1.39,1.05,1,2Z"/>
  <path class="cls-1" d="M145.29,110.41v1c-.67-.3-1.42-.32-2-1,.56.14,1.36-.09,2,0Z"/>
  <path class="cls-1" d="M195.29,109.41c-.11-.25-1.53-.15-1-2,1.52-.1.77,1.74,1,2Z"/>
  <path class="cls-1" d="M135.29,107.41c-.38-.28-.65-.7-1-1l1,1Z"/>
  <path class="cls-1" d="M196.29,105.41c.22.1.64-.05,1,0-.1.11.05,1.01-.49.98-.66-.18-.39-.66-.51-.98Z"/>
  <path class="cls-1" d="M134.29,106.41c-.35-.3-.69-.66-1-1,.1.26.81.59,1,1Z"/>
  <path class="cls-1" d="M109.29,158.41c.16.15.94-.15,1,0,.17.42-.12.78-.5.98-.61.03-.46-.95-.5-.98Z"/>
  <path class="cls-1" d="M196.29,105.41c-1.41-.66-.83-.6-1-2l.99.51c.2.37-.16,1.04,0,1.49Z"/>
  <path class="cls-1" d="M76.29,150.41c-.47-.47.93-1.59,1-.5.02.35-.78.72-1,.5Z"/>
  <path class="cls-1" d="M191.29,150.41c.07-.02-.13-1.17,1-1,.18,1.11-.95.95-1,1Z"/>
  <path class="cls-1" d="M78.29,109.41c-5.93-6.23-11.65-5.15-19-3-2.71.79-2.5.61-5,2-.52.29-1.41.71-2,1-3.25,1.3-2.75,1.43-5,3-2.27,1.11-6.16,3.27-8,4-1.57.63-4.69.68-8,2-1.79.44-3.83.3-6,1,.43-.52.6-1.59,1-2,3.88-1.13,6.89-1.27,11-3,.87-.37,1.16-.49,2-1,.46-.28,1.19-.5,2-1,3.33-1.38,5.91-3.46,9-5,1.16-.45,4.53-1.87,5-2,.67-.3,1.6-.87,2-1,8.97-2.82,19.05-1.09,24.98,6.51-1.32.05-2.35-1.08-3.98-1.51Z"/>
  <path class="cls-1" d="M133.29,103.41c.21.43-.2,1.49,0,2-1.47-1.63-1.18-1.73-2-3,.22.31,1.55.55,2,1Z"/>
  <path class="cls-1" d="M130.29,98.41c.16.23.6,1.31,1,2,.23.39-.23,1.66,0,2-2.07-3.2-1.62-2.77-3-6,.15.16.88-.16,1,0,.23.31.44,1.21,1,2Z"/>
  <path class="cls-1" d="M128.29,96.41c-.3-.33-.66-.72-1-1,.31.31.85.64,1,1Z"/>
  <path class="cls-1" d="M127.29,95.41c-.17-.17-.82.17-1,0-.1-.31.11-.71,0-1,.41.32.68.73,1,1Z"/>
  <path class="cls-1" d="M126.29,94.41c-.04-.12-.95.12-1,0l.5-.98c.62,0,.46.95.5.98Z"/>
  <path class="cls-1" d="M88.29,92.41c-.15-.07.15-.88,0-1l.98.5c-.21.39-.59.68-.98.5Z"/>
  <path class="cls-1" d="M115.29,151.41c.07-.02-.13-1.17,1-1,.22.98-1,.93-1,1Z"/>
  <path class="cls-1" d="M88.29,91.41c-.18-.15-.93.15-1,0-.07-.32.09-.7,0-1,.33.33.78.56,1,1Z"/>
  <path class="cls-1" d="M195.29,91.41c-.04-.66.05-1.34,0-2,1.35.45,1.47,1.99,0,2Z"/>
  <path class="cls-1" d="M89.29,89.41c3.35.56,1.42,1.16,2,2-1.22-.32-1.42-1.46-2-2Z"/>
  <path class="cls-1" d="M190.29,151.41c.09-.29-.08-.67,0-1,.26-.12.68.1,1,0-.29.32-.68.8-1,1Z"/>
  <path class="cls-1" d="M87.29,90.41c-.16-.17-.86.17-1,0-.16-.19.17-.83,0-1,.31.07.67-.05,1,0,.06.34-.09.72,0,1Z"/>
  <path class="cls-1" d="M86.29,89.41c-.32-.07-.69.08-1,0-.15-.11.15-.92,0-1,.35.31.67.66,1,1Z"/>
  <path class="cls-1" d="M89.29,89.41c-.63-.1-1.36.09-2,0-.19-1.01-.99-2.24-.51-2.98,1.17.64,1.73,2.26,2.51,2.98Z"/>
  <path class="cls-1" d="M84.29,86.41c-.16-.07.15-.78,0-1,.03.05.98-.12.98.5-.21.38-.58.68-.98.5Z"/>
  <path class="cls-1" d="M84.29,85.41s-.98.12-.98-.5c.21-.38.58-.68.98-.5.16.07-.15.78,0,1Z"/>
  <path class="cls-1" d="M77.29,85.41c.84.57,1.32.65,2,1s1.39.66,2,1c.73.4,1.43.68,2,1,.55.2,1.06.76,2,1,.31.22.71.68,1,1,.32.35.69.65,1,1s.68.65,1,1c2.56,2.81,2.42,1.74,5.52,3.99,2.92,2.12,13.88,14.95,15.69,18.31.72,1.33.69,3.06,1.78,4.23-4.17-1.42-.62,4.11.53,5.47-.54-2.02,1.61-6.36,1.31-7.48-.09-.36-2.81-1.68-3.31-3.55-.88-3.27,2.09-3.15-3.5-6.47.62-4.14.8,2.35,2.99.5.3-.26-4.88-6.93.01-5.5-.5-2.7-5.07-5.71.99-3.5-.53-1.35-1.52-3.63-1-4.99.04-.1,1.91-1.09,1.99-1.01l2,4.01-.99-5.99,4.99,2.98-2.99-3.98,6-1.01c-.11,1.73-2.42.25-1.99,1.99,3-.17,4.85,2.3,6.99,4.01.36.28.66.68,1,1,.96,3.06,4.28,12.13,7.51,13,1.64.44,1.4-1.03,1.49-1,1.16.41,2.08,1.45,4,2,4.35,3.88,5.21,3.18,10,5,2.64,1.78,3.4,1.24,5,2,1.27.6,1.9,1.13,4,2,1.99.82,4,1.9,6.06,2.61-.83,11.03,1.82,23.18-2.29,33.66-.74,1.89-3.62,7.34-4.77,8.73-5.69,6.86-18.77,9.3-27.27,7.77-7.65-1.38-3.08-4.79-3.74-5.77-.77-.13-1.43.96-1.99,1,.04-1.45-1.83-1.85-3-2-1.99-1.96-4.53-3.23-4.69-3.49-.22-.35-2.22-6.65-2.56-7.78-.93-3.06-.78-.97,1.26-1.73-.02,1.36.89,1.68,1,2,.85,2.46,3.5,8.96,6.49,9.01,2.1-4.31-.73-1.91-2.01-2.91-1.86-1.46-2.49-4.25-3.48-6.1,1.15.77,3.16,3.03,4,1.5-.88-1.69-4.22-3.42-5-4.5-.51-.72-2.46-5.4-1.99-6l5.99,3.99-4.99-6.51c-.29-2.91.98-.62,1.99-.48-.11.62.04,1.35,0,1.99l2.99,1.01c.92-2.2-1.71-2.13-1.99-3-.02-.07.9-.71.68-1.3-.56-1.55-2.17-2.65-1.67-4.69l1.98,1.99c-2.52-6.86,4.41-14.4,9.01-18.99.33-.33.66-.68,1-1,2.8-2.62,6.07-4.56,9-6.99-5.55-.52-7,3.24-10,5.99-.35.32-.67.66-1,1-1.56,1.63-3.25,2.33-4.83,4.67-6.11,9.02-9.15,21.63-10.18,32.33l-2.98-5c-.77,4.54,2.45,5.45,3.74,7.71.45.8.27,2.28.82,3.22,1.36,2.32,4.46,3.1,3.42,7.07-4.28-.84-1.73-2.83-3.54-5.92-1.02-1.74-2.6-2.12-3.44-3.08-.33-.38-.23-2.48-1.5-3-1.01-.04-.27,1.46-.5,2-.19.45-.86.54-1,2-.41-.44-1.58-.68-2.06-1.4-2.3-3.48-.07-13.75-1.95-18.6l-1.97.49c1.97,2.45-.54,3.37-1.03,4.51.11-1.65-.07-3.34,0-5-4.27-.73,1.07,4.03-2.98,4.99-.43-6.06-5.4-7.61-8.54-10.97-7.42-7.96-12.83-16.07-25.47-14.02l.53,1.97c-4.26-1.66-9.76,1.44-13.53,3.02-3.33,1.4-5.12,3.11-7,4-.69.34-1.32.64-2,1-3.28,1.37-7.71,1.59-11.26,3.24-12.37,5.75-17.44,18.84-10.58,31.1.97,1.74,14.76,15.68,15.86,16.15,2.37,1.01,15.78,2.87,18.33,2.31,1.45-.31,2.44-1.75,2.65-1.8,1.12-.26,2.79.21,4,0-2.03.86-6.85,3.86-9,4-6.23.39-16.18-2.4-21.33-6.17-2.12-1.55-13.15-13.15-14.67-15.33-5.41-7.76-5.53-17.61-3.99-26.51,2.92,1,2.11-2.38,3-4,.71-.67.72-1.21,1-2,.14-.22,2.83-3.8,3-4,.35-.31.64-.71,1-1s.64-.7,1-1,.65-.69,1-1c.12-.14,1.53-.21,3-2,2.25-.99,4.74-1.1,7-2,2.98-.73,4.82-1.17,8.01-2.18,1.7-.54,2.96-1.15,5.07-2.26,1.76-.93,2.38-1.32,3.14-1.85,2.2-1.07,4.05-2.46,5.06-2.95.81-.33,1.73-.91,2.07-1.02,1.34-.47,4.89-1.97,5.17-2.03,3.84-.87,8.61-1.29,12.49-.7l-9.99,1.98c5.76.55,10.1-.55,15.99,1.01.64.67,1.5,2.12,2,3-6.56-2.85-11.8-.72-17.72-1.73-1.97-.33-1.2-.14-1.28,1.73h15.5c.72,0,2.55,2.43,3.99,2.01,1.11,0-.21-1.52-.49-2.01,2.94,1.28,13.49,8.51,16,11,.13.13,1.3,2.06,2,3,.81,2.24.89,4.26,3,6,.02.52-1.42,9.29,1.99,6,.72-.7,1.16-8.96,6-4,1.07-1.3-3.76-3.9-.49-5,.51-.17.57,3.92,2.49,1.99.14-.14-1.45-3.12-1.99-3.51-1.64-1.2-3.32,4.45-5,4.52-.02-2.79-.89-4.79-2.47-7.04s-20.1-17.72-23.21-19.79c-5.13-3.43-11.78-4.01-17.81-3.12-2.27.33-3.02.79-3.64.99-.88.28-1.71,1.03-2.09,1.13-1.56.7-2.43,1.06-4.61,2.14-5.75,2.21-2.67,1.16-6.93,3.82-.7.29-4.41,2.11-4.7,2.19-.88.25-1.54.33-1.84.39-1.12.25-2.7.37-4.05.59-1.05.17-5.75,2.74-6.68,3.69-6.84,1.99-9.84,3.6-13,9-.04.06-.6-.12-1,1-.69.2-1.35,1.48-1.98.51,1.19-1.26,1.69-2.85,1.98-4.51.4-.22.65-.74,1-1,1.47-1.09,3.33-2.15,4-3.99-1-.37-4.59,1.14-5,.99,2.12-10.16,6.12-15.75,14.53-21.98,4.96-3.68,19.45-10.45,25.47-12.02.62-.16,5.17-.91,6-1,5.38-.56,13.75-.25,19,1Z"/>
  <path class="cls-1" d="M52.29,85.41l-1-1,1,1Z"/>
  <path class="cls-1" d="M84.29,86.41c.37.25.59,1.63,1,2-.43-.22-1.6.22-2,0-.52-.19-1.08-.71-2-1-.41-.13-1.14-.71-2-1-.41-.14-.84-.72-2-1-.95-.65-3.01-1.43-1.49-2.01.69.03,7.9,2.62,8.49,3.01Z"/>
  <path class="cls-1" d="M189.29,152.41c.18-.42.92-.75,1-1-.09.06.12.74-1,1Z"/>
  <path class="cls-1" d="M188.29,155.41c.26-.18.66-1.46,1-2,.98-.32,3.68-1.28,4-2-.22.24-.06,1.64-.99,2.49-1.34,1.22-3.1.97-4.01,1.51Z"/>
  <path class="cls-1" d="M58.29,83.41s.04.98,0,1c-2.59,1.37-2.59-2.37,0-1Z"/>
  <path class="cls-1" d="M185.29,21.41c-1.85-.54-2.74.5-4,1-3.31,1.31-3.96,3.34-7,3.99v-5.98s1.99,2.99,1.99,2.99l-.99-4.99c5.36-1.1,6.44.76,10,2.99Z"/>
  <path class="cls-1" d="M84.29,84.41c-.1-.05-.97-1.73-1-2,3.75.73,7.93,1.37,7.51,5.98-1.55-3.29-4.92-3.08-6.51-3.98Z"/>
  <path class="cls-1" d="M163.29,75.41c-1.03.9-1.62.74-2,1-.14-.26.14-.75,0-1,.59-.12,1.36.07,2,0Z"/>
  <path class="cls-1" d="M121.29,164.41c.93.92.61,2.14,3,2-.08,3.35-8.38-2.69-3-2Z"/>
  <path class="cls-1" d="M191.29,75.41c1.21-.49,2.7-.77,3.99-.99l-1.99,1.98,3.97-.51-.97,2.52,1.97-.53-.98,3.52c3.81.91,1.24-4.29,2-4.99,1.8-1.66,3.17,1.75,3.72,1.94,1.61.57,3.27,0,5.65,1.18,5.61,2.8,6.89,12.24,6.61,17.87l-2.98-1,1.97,3.51c-3.35-.94-1.36,1.22-2.73,4.23-2.9,6.38-7.53,8.03-10.96,11.55-2.45,2.51.82,3.36-6.29,4.71.88-.29,5.62-3.16,4.99-5l-6.99,5c-2.65-2.87,4.95-4.99,5.98-7.51l-3.97,1.51c-.14-.62.17-1.56,0-2,1.89.37,2.71-1.28,3.98-2.51-1-1.02-2.32,2.1-2.97,1.51-.22-.2.2-1.51-.01-2,.43.47,3.32-2.94,4-3.5.03-.92-1.32-.41-2-.5,4.96-5.17-.04-3.24,0-3.51l1.99-4h-1.99c1.55-4.22-.35-13.57-2.55-17.42-.55-.95-2.33-3.15-3.43-1.57,3.86,2.84,3.66,6.28,4,10.5l-7.02-9.48,7.02,11.48c.21,3.86-.44,8.29,0,12-1.44,1.05-.67,3.11-1,4-.43,1.16-.68,1.53-1,3-.22,1.01-2.16,2.46-.03,4.52-2.84-.5-3.11,2.89-6.06,4.89-1.31.89-3.34,1.28-4.91,1.6l6.5-.99c.64.48-1.35,2.92-1.51,2.98-.48.17-5.35.17-6,0s-2.6-2.27-4.73-2.77c-5.25-1.24-13.04-.67-18.27-2.23-.49-.15-2.13-1.41-4-2-.8-.25-3.62-1.48-5-2-.82-.55-2.22-.88-1.99-1.99.32-.2,5.74,2.55,3-.52-1.29-.65-2.64-.45-4.01-.48.46-.62-.84-.77-1-1-.97-1.38-2.19-2.53-3-3.99,1.2-1.06,5.82,4.79,8.01,2.49l-6.01-4c.2-1.88,6.72,3.34,5,.02-.63-1.22-12.46-5.28.99-3.52l-5-3.99,4,1.99c.31-.27-5.29-4.66-1.01-5.98l2.01,2.98c-1.78-2.55-1.67-4.08-1-6.99,1.11-1.3,1.62-2.53,2.01-2.99.96-1.13.96,3.93,2.99,1.98.37-.35-2.14-2.13-2-3.99.02-.2.88-.62,1-1,2.42-2.62,5.02-4.99,8-7,1.95,3.52,19.45,3.73,23.55,3.22.84-.1,2.24.86,2.4.75.13-.09.43-2.15,1.04-2.97,1.61-.55,2.05.05,3-2Z"/>
  <path class="cls-1" d="M163.29,75.41v-1c.11.34,1.66-.45,0,1Z"/>
  <path class="cls-1" d="M93.29,77.41c-.05.12-.96-.12-1,0,.21-1.17-.61-3.36.5-4.01,1.01,0,.34,2.96.5,4.01Z"/>
  <path class="cls-1" d="M163.29,163.41c-2.06,2.04-2.84,3.65-6.5,4.01-3.93-.25,3.53-3.17,4.5-4.01.64-.09,1.35.05,2,0Z"/>
  <path class="cls-1" d="M117.29,153.41c-.07-.14-.93.14-1,0l.5-.98c.63.01.45.95.5.98Z"/>
  <path class="cls-1" d="M189.29,152.41c-.13.3.14.77,0,1-.53.17-1.44-.17-2,0,.05-.3.02-.69,0-1,.08.06,1.54.11,2,0Z"/>
  <path class="cls-1" d="M157.29,163.41c.07-.15.87.15,1,0-.05,0,.15.93-.5.98l-.5-.98Z"/>
  <path class="cls-1" d="M63.29,76.41c.16.07.4,1.54,1.61,1.88,4.17,1.18,3.72-2.17,4.58-2.67,1.32-.76,3.57.29,4.66-.36.78-.46.7-6.25,5.62-4.91.77.21.74,6.87,6.05,3.07l-.53,1.97,6,.02-1.01,6.99-3.97-.48c.1-4.32,1.54-1.05,2.97-3.52-4.97-1.37-9.02-.13-13.99,0,1.11,2.16,6.88,1.06,8.51.01.38,1.2-.66,2.49-.51,3.98-5.51-1.07-10.34-1.28-15.99-.99l6.99,1.98c-5.26-.28-10.76.42-15.99.01-1.52-.12-4.54-3.36-3.46.97-1.63-1.78-2.65-.21-3.54.03-2.12.56-6.5,1.26-8.19,2.1-1.46.72-3.11,4.44-5.81,3.89-2.04-1.73,18.88-17.41,26-13.99Z"/>
  <path class="cls-1" d="M61.29,66.41l9,.99c-3.18-.2-7.97.08-9.99,3l11.43-3.02c5.66,9.58-1.28,5.76-2.48,6.49-.81.5-2.55,5.89-5.95,2.53-.24-.24.08-2.48-1.63-2.93s-6.28,2.97-4.37-2.07c.06-.17,1.78-2.71,2-3,.23-.31.69-.74,1-1,.36-.31.73-.6,1-1Z"/>
  <path class="cls-1" d="M111.29,164.41v-1c.1.12.95.03.98.49l-.98.51Z"/>
  <path class="cls-1" d="M111.29,164.41c-1.04,1.64-4.15,1.02-6,1,1.95-.85,2.94-2.31,6-1Z"/>
  <path class="cls-1" d="M163.29,163.41c.12,0,.13-1.01,1-1-.26.36-.68.68-1,1Z"/>
  <path class="cls-1" d="M190.29,24.41c.1.8.74,2.76,1,4-2.06,1.68-1.25,1.85-2,3-1.19,1.83-1.23,1.91-2,4-.42,1.16-.67,1.58-1,3-.07.3-1.33.7-.86,2.2.6,1.89,3.41,2.3-.14,3.8-1.21-1.77-4.1-5.35-6-6-1.88-5.17-1.59-6.82,0-12l2.01-.5c0-.83-1.22-.59-2.01-.5.58-2.39,3.79-.19,2-3,.71-.46,3.98.94,4-1,1.97,1.24,2.4,2.18,5,3Z"/>
  <path class="cls-1" d="M111.29,163.41c-.74.07-.71-.74-1-1,.29.35.7.63,1,1Z"/>
  <path class="cls-1" d="M187.29,153.41c-.05.35-.9,1.94-1,2-.24.14-2.12.33-2-.5.79-1.32,1.83-1.16,3-1.5Z"/>
  <path class="cls-1" d="M83.29,65.41c.1.06,1.32-.93,2.28-.64,2.85.85,4.94,2.65,8.71,1.63-.64-2.88-7.94,1.4-6.99-2.99,3.62,1.89,6.62-.33,9.45,3.03,2.61,3.1,2.62,8.31-1.94,6.97-1.88-.55-.6-4.13-2.51-3.99.25,1.8-1.4,5.42-3.5,4.99l-2.5-5.99c-1.09,7.03-6.11,6.95-4.01-1.01.24-.37,1.52-.11,1-2Z"/>
  <path class="cls-1" d="M149.29,30.41c.97-1.29.95-2.79,1.09-2.94.13-.14,1.32.88,1.71.69.23-.11.23-1.57,1.45-2.05,5.45-2.13,11.96-2.36,17.37.18,2.21,1.04,2.1,2.61,2.56,2.92.68.45,1.36-2.3,2.8,1.72l-1.9-.4c.98,4.99-5.71,2.32-9.67,2.83-1.37.17-2.05.96-2.42,1.04-1.48.31-1.85.58-3,1-2.1.77-2.35,1.1-4,2s-1.58.9-3,2c-.38.3-1.57.27-2,1l-1,1c-1.63.67-3.39,1.7-5,2,0-.33,0-.67,0-1,0-.08.95-.21.89-1.38-.13-2.37-1.53-4.96-.88-7.62l1.98,2.99c-.72-3.06,1.01-4.08,2.01-5.99-.19.37.11.76.5.98.64.01.41-.86.5-.98Z"/>
  <path class="cls-1" d="M179.29,26.41v-1s.03.68,0,1Z"/>
  <path class="cls-1" d="M57.29,71.41c-1.92,3.09-.92,5.16-5.99,6-.62-6.3,1.27-9.29,6.98-11.06-.77-2.79-3.57-2.78-2.5-5.92,3.89,3.71,3.71,3.25,8.51,3.98-.07,1.18-2.05,1.2-3,2-.36.3-.67.67-1,1s-.69.65-1,1c-1.4,1.62-1.14,1.61-2,3Z"/>
  <path class="cls-1" d="M205.29,29.41l-1.01,4.99-2.99-3.99c2.33,4.84.38,10.03,0,14.99h-14l5.01-3.5c.04-.53-4.46-1.38-5.01-3.5-.21-.81.14-2.06,0-3l4,1.99-3-2.01,2.99-2-1.99-1.99h3.01c-.41-1.01-.78-1.92-1.01-3,5.23-4.26,8.98-1.43,14,1Z"/>
  <path class="cls-1" d="M114.29,60.41c-1.82-.06-1.42,3.47-2.99,2.99-.18-.39,1.62-4.47,1.99-4.99.11-.16.86.16,1,0-.15.56.12,1.38,0,2Z"/>
  <path class="cls-1" d="M114.29,58.41c.09-.35-.13-.84,0-1,.04-.04.71-.03,1,0-.3.2-.73.69-1,1Z"/>
  <path class="cls-1" d="M110.29,162.41c-.28-.34-.67-.69-1-1,.34.33.66.68,1,1Z"/>
  <path class="cls-1" d="M116.29,57.41c-.04-.08-.66.03-1,0,.15-.1-.15-.92,0-1,1.12-.15.85.75,1,1Z"/>
  <path class="cls-1" d="M96.29,63.41c3.24-.39,7.55-11.98,13.99-9.99.04.66-.02,1.33,0,1.99-.64,1.33-1.52,2.02-1,4-.16-.46-1.14-2.31-1.99-2,1.56,4.23-.3,8.49.18,12.22.68,5.36,5.36,13.07,8.79,17.27-1.36,1.81-4.03,2.04-5.56,3.46-1.24,1.15-1.05,2.54-1.42,3.03-3.29,4.34-2.99,4.75-4.9,9.62-.27.69.16,2.11-1.58,1.37-.8-.34-10.42-11.4-11.51-12.99.8.21,2.06-.13,3,0-.21-2.7-2.44-3.57-2.93-6.54-.61-3.66.46-4.77.94-7.45-.39,1.03.27,3.62,0,5,3.29.88,1.34-2.65.99-5,.39-.91,1.26-1.71,1.01-2.99h.98s1,3.99,1,3.99c.23-1.07-.56-3.9.51-4.01.64-.06.38,3.88,2.01,1.01,3.35-5.91-.61-7.61-2.51-12Z"/>
  <path class="cls-1" d="M149.29,30.41c-.04.12-.94-.12-1,0,.3-.56-.55-2.02.5-2.01.79-.08.63,1.6.5,2.01Z"/>
  <path class="cls-1" d="M188.29,155.41c-2.61,1.55-1.82,3.19-7,3,1.45-.86,3.12-2.03,5-3,.44-.23,1.67.23,2,0Z"/>
  <path class="cls-1" d="M116.29,57.41c.66,1.07.97,3.01,1.5,3.01l.51-5.01c1.63-.43.49,1.74,1.62,2.02,4.91,1.19,2.48-2.22,3.38-6.02l1.98,2.99c.35-1.06-1.11-3.79-.99-3.96.9-1.18,12.27-4.24,14.41-4.03,2.44.24,3.64,2.01,5.58,2.99.17-.19-2.22-5.34.99-3,.57.41,3.46,10.09,5.01,13,1.65,5.54,5.09,13.1,11,15,.15.23-.15.75,0,1-5.16,1.05-6.5,3.19-8,8-.32.35-.69.65-1,1-1.87,2.1-2.22,1.62-3,5-3.53,4.14-2.32,4.12-4,8-1.91,4.42-6.03,8.29-2,13-1.33-.34-2.68-.62-4-1-1.69-1.51-4.22-4.21-6-6-.89-1.83-1.71-2.45-2-3-.34-.64-.58-1.26-1-2-.35-.61-.48-1.25-1-2-4.13-5.87-4.42-4.29-9-8-8.59-6.94-8.48-13.3-8.99-24,2.88.64-1.4,7.94,2.99,6.99-1.7-4.22-.8-6.93,0-10.99,1.93.09.53,2.92,1.01,4h.98c.14-.32.16-6.67.01-7Z"/>
  <path class="cls-1" d="M158.29,163.41c2.51-3.01,4.31-2.69,4.01-6.99v2.98c.65.06,1.33-.06,1.99,0-.28.68-2.44,3.51-3,4-.96.13-2.04-.13-3,0Z"/>
  <path class="cls-1" d="M185.29,44.41c.2.09.43,1.62,2.47,1.99,4.14.75,11.54.24,16.03,0,2.39.18,6.04,8.98,6.4,11.61.5,3.61.43,9.96-2,12.82-1.63,1.92-2.79,1.18-4.58,1.96-.34.15-.36,1.58-.98,1.66-1.79.24-5.02-1.76-7.35-1.04l2.99-2h-3.99c-.82-2.62,2.95-2.46,3.09-3.62.12-1.02-1.21-3.13-1.09-3.36.06-.12,1.52.49,2.35-1.29s-.36-2.57-.35-2.71c.34-3.05.74-5.18,1.99-8.01l-2,.5c-.31-1.86,1.38-5.21-1.99-4.49.71,1.51,1.02,2.72,1.06,4.43s.75,6.8-1.05,7.56c-.09-3.09.28-6.18-.29-9.26-.32-1.74-.42-3.31-2.72-2.72.71,1.57,1.7,2.69,1.94,4.54.96,7.27-1.21,16.56-3.94,22.45-1.89.76-1.54.05-3,2-10.48,3.61-7.89.33-14.98-1.37-3.49-.84-7.49,1.16-10.02-4.62h5.99c-2.04.43-5.9-.79-6-3.01,0-.16.74-2.17,1-3,.12-.39.7-1.28,1-2,.23-.56.69-1.38,1-2s.66-1.38,1-2c.19-.34.78-.63,1-1,.42-.72.72-1.55,1-2,.22-.35.74-.62,1-1,.53-.77.76-1.68,1-2,.27-.36.72-.63,1-1s.7-.63,1-1c.63-.77.83-1.82,1-2,.3-.33.66-.71,1-1,.36-.31,1.2-.15,1-1,2.16.54.44,2.27-.19,3.31-2.02,3.33-10.39,13.37-10.67,16.37-.24,2.66,3.27,2.51,4.85,2.31l-3.99-2.98,4.99-.02-3.99-1.48,3.99-1.52c.36-1.68-.9-.68-1.36-.98-1.97-1.29,3.37-2.47,4.36-2.02.36-2.12-3.97.28-2.99-2.47.68-1.9,2.75-.75,3.98-.52.49-1.79-2.29-.44-1.99-1.49.53-1.87,8.17-10.92,9.99-11.51.28-.09,1.79-.09,2,0Z"/>
  <path class="cls-1" d="M183.29,44.41c-1.13.17-.89-.87-1-1,.77.05,1.09.17,1,1Z"/>
  <path class="cls-1" d="M90.29,42.41c.45.17,1.38-.15,2,0,.34,3.5-1.06,1.81-3,1l1-1Z"/>
  <path class="cls-1" d="M109.29,158.41c-.16-.12-1.16.13-1-1,1.11-.18.95.95,1,1Z"/>
  <path class="cls-1" d="M60.29,42.41c-.56.22-1.23.68-2,1,.84-1.21.42-.87,2-1Z"/>
  <path class="cls-1" d="M90.29,42.41l-1,1c-1.02-.43-2.84-.81-3-2,1.81-.52,2.75.53,4,1Z"/>
  <path class="cls-1" d="M109.29,161.41c-.28-.27-2.29.92-2-2,.53.57,1.43,1.46,2,2Z"/>
  <path class="cls-1" d="M187.29,38.41c1.4,2.61-2.46,2.53-1,0,.03-.04.98-.04,1,0Z"/>
  <path class="cls-1" d="M110.29,55.41c5.2-10.83,16.75-20.31,29.55-19.11,2.41.23.64,2.29,2.44,2.11l1-2c-.46,1.33,1.32,5.65,1.01,5.99-.28.3-1.9-.59-2.01.5-.08.79,1.28.64,2.01.5,0,.36,1.22,1.86,1.01,1.99-13.05-1.7-20.74,2.83-30.01,11.01-.35.31-.66.68-1,1s-.67.66-1,1c-.91.94-3.84,4.26-3.99,3.99-.18-.9.23-2.3-.01-2.99,1.49-.05,1.06-2.54,1-4Z"/>
  <path class="cls-1" d="M86.29,41.41c.02.1-1.47,1.15-.95,1.85.3.41,3.44,1.13,3.95,2.66.07.22-2.55,1-2,3.49l10.01.02c-2.27,4.31-12.2,5.09-1,6.49-1.56.53-2.52,2.56-3.37,3.18-1.04.76-4.13-.29-2.14,2.3,7.21-2.94,4.52-.3,5.52,2.02-2.56.31-8.15-2.53-11.99,0-1.93-4.63.8-3.84.99-4.67,1.58-6.96-.07-12.21-7.99-11.34.08,3.37-.62,6.89,1,9.99h-4c6.58-16.77-10.18-6.21-7.91.39.44,1.27,2.41,1.32,2.7,1.82.76,1.32-.31,3.74.38,4.68.35.48,1.55-.03,1.84.12l-.99-3.99,1.98,1.99c.96-6.88,1.88-2.65,5,0l2-3.99c.45,1.79-.97,4.39-2.51,4.99-2.53.98-1.36-4.19-3.48-3.99l-2.01,5c4.91,2.6,6.16-1.48,10.55-1.12,2.2.18,1.31,2.03,1.45,2.12-1.47-.08-.79,1.21-1,2-4.22,6.47-8.81-1.07-12.26-2.21-2.45-.81-3.69-.48-5.74-.79l-5-2.01,1.99-3.98-11,1.98c.57-2.69,9.13-2.1,8.98-4.49-.07-1.19-3.18-.78-2.97-2.49,1.55-.72,3.57,2.46,3.99,1.99.16-.19-.77-3.88.01-4.98l-3-.51,6.01-7c-.04-.86-2.13-.57-3.01-.5,5.92-2.34,11.83-5.9,18.5-4.99l-.51-2c3.56.15,7.19,2.41,8.01,5.99Z"/>
  <path class="cls-1" d="M162.29,34.41c4.36-.74,10.4.53,15,0l-1,3.99c.9.19,2.3-.24,3,0,.84,2.31,1.48,3.16,3,5-3.24-.22-4.33,2.4-6,4-.34.33-.67.66-1,1s-.69.64-1,1c-.69.79-.77,1.72-1,2-.29.36-.71.63-1,1s-.72.62-1,1c-.61.82-.71,1.58-1,2-.24.36-.76.62-1,1-.51.8-.68,1.47-1,2-.21.35-.79.63-1,1-.39.7-.65,1.3-1,2s-.68,1.29-1,2c-.29.65-.69,1.17-1,2-.44,1.17-.66,1.57-1,3-.74,3.17-1.32,2.05,0,6-.62-.11-1.49.16-2,0-3.27-4.87-7.99-9.39-11-15-.96-3.22-2.98-12.7-2.66-15.54.07-.64.92-1.5,1.65-1.46.57,3.36-1.65,9.04,2,11l-1.99-12c.51-.21,1.05-.36,1-1,2.44-.41-1.02,7.18,3,5.99l-1-6.99c1.73.11.25,2.42,1.99,1.99.29-.75.85-3.87,1.01-3.99.55-.4,3.55,1.45,3.99,1,.32-.31-.27-2.67,0-3,.1-.12,2.84-.97,3-1Z"/>
  <path class="cls-1" d="M104.29,169.42v.98c-4.16.5-4.16-1.48,0-.98Z"/>
  <path class="cls-1" d="M203.3,134.41c-.67-1.25,1.6-3.49,1.98-3,.67,1.25-1.6,3.49-1.98,3Z"/>
  <path class="cls-1" d="M53.29,65.41c.04-.09,1.75-1.25,1.98-.51l-.99,2.5h-.98c.07-.62-.18-1.65-.01-1.99Z"/>
  <path class="cls-1" d="M138.29,34.42l-12.99,2.98c2.24-4.92,8.56-2.48,12.99-2.98Z"/>
  <path class="cls-1" d="M38.29,140.41c-1.45,5.18-1.63,11.62,4.73,13.77,5.95,2.01,19.58,3.01,25.79,2.26,5.76-.7,10.76-6.56,18.47-4.03.65-4.29-7.41.49-9.99-1,1.55-4.14,4.61-1.71,8-2,.16-5.39-4.71-.65-4.99-.99,2.64-7.12,2.83-14.77.48-21.98,3.32,1.25,4.6,7.61,5.66,8.8.18.2,3.38-1.64,2.86,3.17l1.98-1.99c.84,3.19,4.27,2.89,3.02,7l1.97-1.01c5.09,12.7-11.3,20.74-19.89,26.58-2.19,1.49-3.25,4.83-6.08,3.42,2.41,4.75-4.84,5.49-8.01,7,.15-.5.32-2.07-.49-1.99-1.47.74-4.16,2.61-5.51,2.99-4.62,1.31-14.65.22-19.29-1.21-2.53-.78-16.13-15.28-17.59-18.41-4.2-8.99-2.89-13.83,3.88-20.38.19-.18,1.63-.14,2.53-.93,1.13-1,1.86-2.6,3.47-4.07-.05.19.95,1.88,0,2.99l5-1.98-1.5,3.99c1.29-.87,7.17-8.31,8.5-6.99-1.22,2.99-2.1,3.78-2.99,6.99Z"/>
  <path class="cls-1" d="M9.28,151.41l-1.5-12.97c3.01,3.31.95,8.9,1.5,12.97Z"/>
  <path class="cls-1" d="M10.28,154.41c-.35.68-1.7-.59-.98-1.99.35-.68,1.7.59.98,1.99Z"/>
  <path class="cls-1" d="M188.79,41.41c.65.33.65.67,0,1v-1Z"/>
  <path class="cls-1" d="M35.29,88.41c-1.59-7.07.72-14.78-5.49-20.01-6.09-5.13-21.76-3.06-18.51,2,.44.68,7.88.74,7.98,2.51-.78,1.89-2.91.36-2.97.5-1.15,2.41,1.95,9.58-6,3,.06,1.93-.78,4-2.45,5.06-8.06,5.14-5.09-10.4,2.43-9.07.27-1.65-2.65-1.14-3-2.53-1.21-4.82,9.86-8.76,13.49-8.48,6.41.48,21.24,9.44,15.54,16.53l2.98-.5-1.99,2.51,1.97.98-1.98,2.5,2.98-.5c-1.41,2.11-3.27,3.71-4.98,5.51Z"/>
  <path class="cls-1" d="M75.29,29.41c-.86-.17-2.44.26-3,0-.1-.05.06-.66,0-1,1.16.24,2.98-.66,3,1Z"/>
  <path class="cls-1" d="M70.29,29.41c-1.54-.32-4.11.75-4.91-1.65-.49-1.46.96-9.44,1.84-10.92,2.28-3.81,11.19-3.33,14.05.08-6.23-1.57-10.66-.62-12.98,5.49-1.11,2.93-2.07,2.51,1,5,.32.26.65.91,1,1,.12.29-.11.71,0,1Z"/>
  <path class="cls-1" d="M75.29,29.41c2.12-.42,3.35,1.21,2.46-1.96,5.52,2.38,4.66-5.44,4.55-9.04,4.96,1.02,5.52,8.35,1.54,11.05-1.38.94-3.65.31-3.54,1.94,3.82-2.17,9.47,6.1,5.5,5.99-.59-.02-8.24-5.27-11-4.06l-12.5,3.08c2.95-1.96,4.91-5.36,9-5.01.3-.25-.77-1.38-1-1.99.57.12,1.34-.04,2,0,.78.05-.13.62,3,0Z"/>
  <path class="cls-1" d="M68.29,22.41c.78-2.2,8.22-5.86,10.52-2.01,1.07,1.79-.53,4.89,1.47,5.01-.13-1.66.42-3.87-.11-5.38-.62-1.76-3.06-.91-2.87-2.61,1.98.33,3.8.27,4.07,2.46.81,6.62-.54,5.64-5.08,6.53,3.11-1.41,2.7-7.93-3.37-5.88-2.07.7-2.59,6.15-.63,6.88.01.32-.06.69,0,1-.61-.13-1.43.15-2,0-.15-.36-.91-.71-1-1-.35-1.21-1.33-4.06-1-5Z"/>
  <path class="cls-1" d="M72.29,27.41c-.37-8.75,5.03-5.94,4.98-4.5-.1,2.58-5,.51-3.97,3.49.87-.15,2.44.26,2.99,0-.84.17-2.1,1.71-4,1Z"/>
  <path class="cls-1" d="M71.8,34.43c-.27,2.95-5.14,3.84-7.49,4.49l7.49-4.49Z"/>
  <rect class="cls-1" x="73.3" y="35.42" width="3.99" height=".98"/>
  <path class="cls-1" d="M177.79,36.41c.65.33.65.67,0,1v-1Z"/>
  <path class="cls-1" d="M176.79,28.41c.65.33.65.67,0,1v-1Z"/>
  <path class="cls-1" d="M196.29,64.41c-.47.47-1.59-.93-.5-1,.35-.02.72.78.5,1Z"/>
  <path class="cls-1" d="M44.29,43.41l-2.99,2c-.5-2.64.58-2.07,2.99-2Z"/>
  <polygon points="154.29 134.41 154.3 132.41 156.29 133.92 154.29 134.41 156.28 138.41 152.3 134.9 154.29 134.41"/>
  <polygon points="122.29 134.4 120.3 134.41 120.3 130.42 121.28 130.42 122.29 134.4"/>
  <polygon points="111.28 148.41 109.3 145.41 112.28 143.42 111.28 148.41"/>
  <path d="M124.29,129.4c-2.09.29-2.28.1-1.99-1.99l1.99,1.99Z"/>
  <path d="M109.3,124.42c.47-.97,1.93,1.98,1.5,2.97-1.08-.89-1.83-1.51-1.5-2.97Z"/>
  <path d="M126.29,125.42c.68.35-.59,1.7-1.99.98-.68-.35.59-1.7,1.99-.98Z"/>
  <path d="M175.29,104.4c-1.98,1.67-2.84-3.17-2.99-4.99.73-.93,3.22,4.79,2.99,4.99Z"/>
  <rect x="175.3" y="98.42" width=".98" height="3.99"/>
  <path d="M151.28,93.41c-.35.68-1.7-.59-.98-1.99.35-.68,1.7.59.98,1.99Z"/>
  <path d="M73.29,41.42c.42,3.13.18,1.34-1.46,1.24-1.05-.06-.97,2.85-2.52,2.75.17-2.71.79-4.77,3.99-3.99Z"/>
  <path d="M81.29,40.42c.13.12-.05,1.36,0,1.99-8.03.38-1.2-3.05,0-1.99Z"/>
  <path d="M103.29,61.41c1.44-3.37,3.28,2.18.01,3,.14-.87-.26-2.41-.01-3-.53.74-2.32,1.19-2.02,3-4.46-1.58,2.77-5.45,4.53-7.98-.82,1.37-1.65,3.78-2.51,4.98Z"/>
  <path d="M85.29,144.42v.98c-4.16.5-4.16-1.48,0-.98Z"/>
  <path d="M84.28,143.41c-.35.68-1.7-.59-.98-1.99.35-.68,1.7.59.98,1.99Z"/>
  <path d="M83.79,138.41c.65.33.65.67,0,1v-1Z"/>
  <path d="M208.29,42.42c.68.35-.59,1.7-1.99.98-.68-.35.59-1.7,1.99-.98Z"/>
  <path d="M203.3,23.41c-.41-1.3,1.5-5.03,1.98-3.99.27,1.78-.06,3.51-1.98,3.99Z"/>
  <path class="cls-1" d="M75.22,126.49c.21.22.83,6.09-.92,5.91l-1.99-6.5c.48-.29,2.81.48,2.91.59Z"/>
  <rect class="cls-1" x="76.3" y="127.42" width=".98" height="4.99"/>
  <rect class="cls-1" x="65.3" y="121.42" width="4.99" height=".98"/>
  <rect class="cls-1" x="66.3" y="124.42" width="3.99" height=".98"/>
  <path class="cls-1" d="M71.29,130.42c2.46,2.82-4.06.8-3.97.5.45-1.65,3.42-1.14,3.97-.5Z"/>
  <path class="cls-1" d="M68.29,132.42c.07.07.38,2.12-.49,1.99-2.73-1.56-.67-3.13.49-1.99Z"/>
  <path class="cls-1" d="M74.29,122.42v.98c-4.16.5-4.16-1.48,0-.98Z"/>
  <path class="cls-1" d="M70.3,129.4c-.18-1.97,1.96-1.01,2.97.52l-2.97-.52Z"/>
  <path class="cls-1" d="M64.79,123.41c.65.33.65.67,0,1v-1Z"/>
  <path class="cls-1" d="M73.79,133.41c.65.33.65.67,0,1v-1Z"/>
  <path class="cls-1" d="M75.79,133.41c.65.33.65.67,0,1v-1Z"/>
  <rect class="cls-1" x="86.46" y="113.15" width=".66" height="3.52" transform="translate(-55.83 95.03) rotate(-45)"/>
  <path class="cls-1" d="M168.29,120.42v.98c-4.16.5-4.16-1.48,0-.98Z"/>
  <path class="cls-1" d="M167.29,122.42c.68.35-.59,1.7-1.99.98-.68-.35.59-1.7,1.99-.98Z"/>
  <path class="cls-1" d="M164.28,155.41c-.35.68-1.7-.59-.98-1.99.35-.68,1.7.59.98,1.99Z"/>
  <polygon class="cls-1" points="111.28 75.41 109.58 71.63 109.3 65.42 111.28 75.41"/>
  <path class="cls-1" d="M106.28,104.41c-.35.68-1.7-.59-.98-1.99.35-.68,1.7.59.98,1.99Z"/>
  <path class="cls-1" d="M29.29,135.41c.23-.9.84-1.42,1.51-1.98,1.18.9-.83,1.36-1.51,1.98Z"/>
  <path class="cls-1" d="M23.29,140.41c-.4.17-1.03-.19-.98-.5l2.49-2.48c.61.46-1.36,2.92-1.51,2.98Z"/>
  <path class="cls-1" d="M81.79,83.41c.65.33.65.67,0,1v-1Z"/>
  <path class="cls-1" d="M78.79,82.41c.65.33.65.67,0,1v-1Z"/>
  <path class="cls-1" d="M190.28,138.41c-.35.68-1.7-.59-.98-1.99.35-.68,1.7.59.98,1.99Z"/>
  <path class="cls-1" d="M188.79,146.41c.65.33.65.67,0,1v-1Z"/>
  <path class="cls-1" d="M84.29,58.41c-7.88-.55-3.66-1.95-3.92-5.4-.03-.45-3.42-.98-2.07-3.59,6.32-.13,6.52,3.71,5.99,8.99Z"/>
  <path class="cls-1" d="M73.3,57.38c-.35.53-5.54,1.81-6.01-.49.51-3.93,3.86-5.04,6.99-6.48.59,1.8-1.5,2.34-1.74,3.65-.19,1.08,1.04,2.88.75,3.32Z"/>
  <path class="cls-1" d="M83.29,62.4c-3.25.33-3.32.26-2.99-2.99l2.99,2.99Z"/>
  <path class="cls-1" d="M84.79,80.41c.65.33.65.67,0,1v-1Z"/>
  <path class="cls-1" d="M121.28,56.41c-.14.14-.65-.05-.98,0-.27-1.78.06-3.51,1.98-3.99.11.79-.77,3.77-1,3.99Z"/>
  <path class="cls-1" d="M147.28,47.41c-.35.68-1.7-.59-.98-1.99.35-.68,1.7.59.98,1.99Z"/>
  <path class="cls-1" d="M38.29,140.41c2.11,1.6.56,5.71.99,7.99-2.28-.96-.4-6.03-.99-7.99Z"/>
  <path class="cls-1" d="M42.79,133.41c.65.33.65.67,0,1v-1Z"/>
  <path class="cls-1" d="M198.29,60.41c.47.47-.93,1.59-1,.5-.02-.35.78-.72,1-.5Z"/>
  <path d="M144.3,74.41l.49-5.99c2.21,1.65,2.26,5.02-.49,5.99Z"/>
  <path d="M128.28,53.41h-.98c-.5-4.16,1.48-4.16.98,0Z"/>
</svg>